<?xml version="1.0" encoding="utf-8"?>
<svg xmlns="http://www.w3.org/2000/svg" xmlns:xlink="http://www.w3.org/1999/xlink" width="480" height="360" viewBox="0 0 1920 1440">
<defs>
  <clipPath id="clip230">
    <rect x="0" y="0" width="1920" height="1440"/>
  </clipPath>
</defs>
<path clip-path="url(#clip230)" d="M0 1440 L1920 1440 L1920 0 L0 0  Z" fill="#ffffff" fill-rule="evenodd" fill-opacity="1"/>
<defs>
  <clipPath id="clip231">
    <rect x="384" y="0" width="1345" height="1345"/>
  </clipPath>
</defs>
<path clip-path="url(#clip230)" d="M221.006 1254.52 L1872.76 1254.52 L1872.76 47.2441 L221.006 47.2441  Z" fill="#ffffff" fill-rule="evenodd" fill-opacity="1"/>
<defs>
  <clipPath id="clip232">
    <rect x="221" y="47" width="1653" height="1208"/>
  </clipPath>
</defs>
<polyline clip-path="url(#clip232)" style="stroke:#000000; stroke-linecap:round; stroke-linejoin:round; stroke-width:2; stroke-opacity:0.1; fill:none" points="221.006,1254.52 221.006,47.2441 "/>
<polyline clip-path="url(#clip232)" style="stroke:#000000; stroke-linecap:round; stroke-linejoin:round; stroke-width:2; stroke-opacity:0.1; fill:none" points="475.122,1254.52 475.122,47.2441 "/>
<polyline clip-path="url(#clip232)" style="stroke:#000000; stroke-linecap:round; stroke-linejoin:round; stroke-width:2; stroke-opacity:0.1; fill:none" points="729.237,1254.52 729.237,47.2441 "/>
<polyline clip-path="url(#clip232)" style="stroke:#000000; stroke-linecap:round; stroke-linejoin:round; stroke-width:2; stroke-opacity:0.1; fill:none" points="983.352,1254.52 983.352,47.2441 "/>
<polyline clip-path="url(#clip232)" style="stroke:#000000; stroke-linecap:round; stroke-linejoin:round; stroke-width:2; stroke-opacity:0.1; fill:none" points="1237.47,1254.52 1237.47,47.2441 "/>
<polyline clip-path="url(#clip232)" style="stroke:#000000; stroke-linecap:round; stroke-linejoin:round; stroke-width:2; stroke-opacity:0.1; fill:none" points="1491.58,1254.52 1491.58,47.2441 "/>
<polyline clip-path="url(#clip232)" style="stroke:#000000; stroke-linecap:round; stroke-linejoin:round; stroke-width:2; stroke-opacity:0.1; fill:none" points="1745.7,1254.52 1745.7,47.2441 "/>
<polyline clip-path="url(#clip232)" style="stroke:#000000; stroke-linecap:round; stroke-linejoin:round; stroke-width:2; stroke-opacity:0.1; fill:none" points="221.006,1254.52 1872.76,1254.52 "/>
<polyline clip-path="url(#clip232)" style="stroke:#000000; stroke-linecap:round; stroke-linejoin:round; stroke-width:2; stroke-opacity:0.1; fill:none" points="221.006,1013.06 1872.76,1013.06 "/>
<polyline clip-path="url(#clip232)" style="stroke:#000000; stroke-linecap:round; stroke-linejoin:round; stroke-width:2; stroke-opacity:0.1; fill:none" points="221.006,771.61 1872.76,771.61 "/>
<polyline clip-path="url(#clip232)" style="stroke:#000000; stroke-linecap:round; stroke-linejoin:round; stroke-width:2; stroke-opacity:0.1; fill:none" points="221.006,530.154 1872.76,530.154 "/>
<polyline clip-path="url(#clip232)" style="stroke:#000000; stroke-linecap:round; stroke-linejoin:round; stroke-width:2; stroke-opacity:0.1; fill:none" points="221.006,288.699 1872.76,288.699 "/>
<polyline clip-path="url(#clip232)" style="stroke:#000000; stroke-linecap:round; stroke-linejoin:round; stroke-width:2; stroke-opacity:0.1; fill:none" points="221.006,47.2441 1872.76,47.2441 "/>
<polyline clip-path="url(#clip230)" style="stroke:#000000; stroke-linecap:round; stroke-linejoin:round; stroke-width:4; stroke-opacity:1; fill:none" points="221.006,1254.52 1872.76,1254.52 "/>
<polyline clip-path="url(#clip230)" style="stroke:#000000; stroke-linecap:round; stroke-linejoin:round; stroke-width:4; stroke-opacity:1; fill:none" points="221.006,1254.52 221.006,1235.62 "/>
<polyline clip-path="url(#clip230)" style="stroke:#000000; stroke-linecap:round; stroke-linejoin:round; stroke-width:4; stroke-opacity:1; fill:none" points="475.122,1254.52 475.122,1235.62 "/>
<polyline clip-path="url(#clip230)" style="stroke:#000000; stroke-linecap:round; stroke-linejoin:round; stroke-width:4; stroke-opacity:1; fill:none" points="729.237,1254.52 729.237,1235.62 "/>
<polyline clip-path="url(#clip230)" style="stroke:#000000; stroke-linecap:round; stroke-linejoin:round; stroke-width:4; stroke-opacity:1; fill:none" points="983.352,1254.52 983.352,1235.62 "/>
<polyline clip-path="url(#clip230)" style="stroke:#000000; stroke-linecap:round; stroke-linejoin:round; stroke-width:4; stroke-opacity:1; fill:none" points="1237.47,1254.52 1237.47,1235.62 "/>
<polyline clip-path="url(#clip230)" style="stroke:#000000; stroke-linecap:round; stroke-linejoin:round; stroke-width:4; stroke-opacity:1; fill:none" points="1491.58,1254.52 1491.58,1235.62 "/>
<polyline clip-path="url(#clip230)" style="stroke:#000000; stroke-linecap:round; stroke-linejoin:round; stroke-width:4; stroke-opacity:1; fill:none" points="1745.7,1254.52 1745.7,1235.62 "/>
<path clip-path="url(#clip230)" d="M198.391 1281.6 Q194.78 1281.6 192.951 1285.16 Q191.145 1288.7 191.145 1295.83 Q191.145 1302.94 192.951 1306.51 Q194.78 1310.05 198.391 1310.05 Q202.025 1310.05 203.83 1306.51 Q205.659 1302.94 205.659 1295.83 Q205.659 1288.7 203.83 1285.16 Q202.025 1281.6 198.391 1281.6 M198.391 1277.89 Q204.201 1277.89 207.256 1282.5 Q210.335 1287.08 210.335 1295.83 Q210.335 1304.56 207.256 1309.17 Q204.201 1313.75 198.391 1313.75 Q192.58 1313.75 189.502 1309.17 Q186.446 1304.56 186.446 1295.83 Q186.446 1287.08 189.502 1282.5 Q192.58 1277.89 198.391 1277.89 Z" fill="#000000" fill-rule="nonzero" fill-opacity="1" /><path clip-path="url(#clip230)" d="M218.553 1307.2 L223.437 1307.2 L223.437 1313.08 L218.553 1313.08 L218.553 1307.2 Z" fill="#000000" fill-rule="nonzero" fill-opacity="1" /><path clip-path="url(#clip230)" d="M243.622 1281.6 Q240.011 1281.6 238.182 1285.16 Q236.377 1288.7 236.377 1295.83 Q236.377 1302.94 238.182 1306.51 Q240.011 1310.05 243.622 1310.05 Q247.256 1310.05 249.062 1306.51 Q250.89 1302.94 250.89 1295.83 Q250.89 1288.7 249.062 1285.16 Q247.256 1281.6 243.622 1281.6 M243.622 1277.89 Q249.432 1277.89 252.488 1282.5 Q255.566 1287.08 255.566 1295.83 Q255.566 1304.56 252.488 1309.17 Q249.432 1313.75 243.622 1313.75 Q237.812 1313.75 234.733 1309.17 Q231.678 1304.56 231.678 1295.83 Q231.678 1287.08 234.733 1282.5 Q237.812 1277.89 243.622 1277.89 Z" fill="#000000" fill-rule="nonzero" fill-opacity="1" /><path clip-path="url(#clip230)" d="M453.305 1281.6 Q449.693 1281.6 447.865 1285.16 Q446.059 1288.7 446.059 1295.83 Q446.059 1302.94 447.865 1306.51 Q449.693 1310.05 453.305 1310.05 Q456.939 1310.05 458.744 1306.51 Q460.573 1302.94 460.573 1295.83 Q460.573 1288.7 458.744 1285.16 Q456.939 1281.6 453.305 1281.6 M453.305 1277.89 Q459.115 1277.89 462.17 1282.5 Q465.249 1287.08 465.249 1295.83 Q465.249 1304.56 462.17 1309.17 Q459.115 1313.75 453.305 1313.75 Q447.494 1313.75 444.416 1309.17 Q441.36 1304.56 441.36 1295.83 Q441.36 1287.08 444.416 1282.5 Q447.494 1277.89 453.305 1277.89 Z" fill="#000000" fill-rule="nonzero" fill-opacity="1" /><path clip-path="url(#clip230)" d="M473.467 1307.2 L478.351 1307.2 L478.351 1313.08 L473.467 1313.08 L473.467 1307.2 Z" fill="#000000" fill-rule="nonzero" fill-opacity="1" /><path clip-path="url(#clip230)" d="M492.564 1309.14 L508.883 1309.14 L508.883 1313.08 L486.939 1313.08 L486.939 1309.14 Q489.601 1306.39 494.184 1301.76 Q498.79 1297.11 499.971 1295.77 Q502.216 1293.24 503.096 1291.51 Q503.999 1289.75 503.999 1288.06 Q503.999 1285.3 502.054 1283.57 Q500.133 1281.83 497.031 1281.83 Q494.832 1281.83 492.378 1282.59 Q489.948 1283.36 487.17 1284.91 L487.17 1280.19 Q489.994 1279.05 492.448 1278.47 Q494.902 1277.89 496.939 1277.89 Q502.309 1277.89 505.503 1280.58 Q508.698 1283.27 508.698 1287.76 Q508.698 1289.89 507.888 1291.81 Q507.101 1293.7 504.994 1296.3 Q504.415 1296.97 501.314 1300.19 Q498.212 1303.38 492.564 1309.14 Z" fill="#000000" fill-rule="nonzero" fill-opacity="1" /><path clip-path="url(#clip230)" d="M706.378 1281.6 Q702.767 1281.6 700.938 1285.16 Q699.133 1288.7 699.133 1295.83 Q699.133 1302.94 700.938 1306.51 Q702.767 1310.05 706.378 1310.05 Q710.012 1310.05 711.818 1306.51 Q713.647 1302.94 713.647 1295.83 Q713.647 1288.7 711.818 1285.16 Q710.012 1281.6 706.378 1281.6 M706.378 1277.89 Q712.188 1277.89 715.244 1282.5 Q718.323 1287.08 718.323 1295.83 Q718.323 1304.56 715.244 1309.17 Q712.188 1313.75 706.378 1313.75 Q700.568 1313.75 697.489 1309.17 Q694.434 1304.56 694.434 1295.83 Q694.434 1287.08 697.489 1282.5 Q700.568 1277.89 706.378 1277.89 Z" fill="#000000" fill-rule="nonzero" fill-opacity="1" /><path clip-path="url(#clip230)" d="M726.54 1307.2 L731.424 1307.2 L731.424 1313.08 L726.54 1313.08 L726.54 1307.2 Z" fill="#000000" fill-rule="nonzero" fill-opacity="1" /><path clip-path="url(#clip230)" d="M754.457 1282.59 L742.651 1301.04 L754.457 1301.04 L754.457 1282.59 M753.23 1278.52 L759.109 1278.52 L759.109 1301.04 L764.04 1301.04 L764.04 1304.93 L759.109 1304.93 L759.109 1313.08 L754.457 1313.08 L754.457 1304.93 L738.855 1304.93 L738.855 1300.42 L753.23 1278.52 Z" fill="#000000" fill-rule="nonzero" fill-opacity="1" /><path clip-path="url(#clip230)" d="M960.656 1281.6 Q957.045 1281.6 955.216 1285.16 Q953.41 1288.7 953.41 1295.83 Q953.41 1302.94 955.216 1306.51 Q957.045 1310.05 960.656 1310.05 Q964.29 1310.05 966.095 1306.51 Q967.924 1302.94 967.924 1295.83 Q967.924 1288.7 966.095 1285.16 Q964.29 1281.6 960.656 1281.6 M960.656 1277.89 Q966.466 1277.89 969.521 1282.5 Q972.6 1287.08 972.6 1295.83 Q972.6 1304.56 969.521 1309.17 Q966.466 1313.75 960.656 1313.75 Q954.845 1313.75 951.767 1309.17 Q948.711 1304.56 948.711 1295.83 Q948.711 1287.08 951.767 1282.5 Q954.845 1277.89 960.656 1277.89 Z" fill="#000000" fill-rule="nonzero" fill-opacity="1" /><path clip-path="url(#clip230)" d="M980.818 1307.2 L985.702 1307.2 L985.702 1313.08 L980.818 1313.08 L980.818 1307.2 Z" fill="#000000" fill-rule="nonzero" fill-opacity="1" /><path clip-path="url(#clip230)" d="M1006.47 1293.94 Q1003.32 1293.94 1001.47 1296.09 Q999.637 1298.24 999.637 1301.99 Q999.637 1305.72 1001.47 1307.89 Q1003.32 1310.05 1006.47 1310.05 Q1009.61 1310.05 1011.44 1307.89 Q1013.29 1305.72 1013.29 1301.99 Q1013.29 1298.24 1011.44 1296.09 Q1009.61 1293.94 1006.47 1293.94 M1015.75 1279.28 L1015.75 1283.54 Q1013.99 1282.71 1012.18 1282.27 Q1010.4 1281.83 1008.64 1281.83 Q1004.01 1281.83 1001.56 1284.95 Q999.128 1288.08 998.78 1294.4 Q1000.15 1292.39 1002.21 1291.32 Q1004.27 1290.23 1006.74 1290.23 Q1011.95 1290.23 1014.96 1293.4 Q1017.99 1296.55 1017.99 1301.99 Q1017.99 1307.32 1014.85 1310.53 Q1011.7 1313.75 1006.47 1313.75 Q1000.47 1313.75 997.299 1309.17 Q994.128 1304.56 994.128 1295.83 Q994.128 1287.64 998.017 1282.78 Q1001.91 1277.89 1008.46 1277.89 Q1010.22 1277.89 1012 1278.24 Q1013.8 1278.59 1015.75 1279.28 Z" fill="#000000" fill-rule="nonzero" fill-opacity="1" /><path clip-path="url(#clip230)" d="M1214.9 1281.6 Q1211.29 1281.6 1209.46 1285.16 Q1207.65 1288.7 1207.65 1295.83 Q1207.65 1302.94 1209.46 1306.51 Q1211.29 1310.05 1214.9 1310.05 Q1218.53 1310.05 1220.34 1306.51 Q1222.17 1302.94 1222.17 1295.83 Q1222.17 1288.7 1220.34 1285.16 Q1218.53 1281.6 1214.9 1281.6 M1214.9 1277.89 Q1220.71 1277.89 1223.76 1282.5 Q1226.84 1287.08 1226.84 1295.83 Q1226.84 1304.56 1223.76 1309.17 Q1220.71 1313.75 1214.9 1313.75 Q1209.09 1313.75 1206.01 1309.17 Q1202.95 1304.56 1202.95 1295.83 Q1202.95 1287.08 1206.01 1282.5 Q1209.09 1277.89 1214.9 1277.89 Z" fill="#000000" fill-rule="nonzero" fill-opacity="1" /><path clip-path="url(#clip230)" d="M1235.06 1307.2 L1239.94 1307.2 L1239.94 1313.08 L1235.06 1313.08 L1235.06 1307.2 Z" fill="#000000" fill-rule="nonzero" fill-opacity="1" /><path clip-path="url(#clip230)" d="M1260.13 1296.67 Q1256.8 1296.67 1254.87 1298.45 Q1252.98 1300.23 1252.98 1303.36 Q1252.98 1306.48 1254.87 1308.27 Q1256.8 1310.05 1260.13 1310.05 Q1263.46 1310.05 1265.38 1308.27 Q1267.31 1306.46 1267.31 1303.36 Q1267.31 1300.23 1265.38 1298.45 Q1263.49 1296.67 1260.13 1296.67 M1255.45 1294.68 Q1252.44 1293.94 1250.75 1291.88 Q1249.09 1289.82 1249.09 1286.85 Q1249.09 1282.71 1252.03 1280.3 Q1254.99 1277.89 1260.13 1277.89 Q1265.29 1277.89 1268.23 1280.3 Q1271.17 1282.71 1271.17 1286.85 Q1271.17 1289.82 1269.48 1291.88 Q1267.81 1293.94 1264.83 1294.68 Q1268.21 1295.46 1270.08 1297.76 Q1271.98 1300.05 1271.98 1303.36 Q1271.98 1308.38 1268.9 1311.07 Q1265.85 1313.75 1260.13 1313.75 Q1254.41 1313.75 1251.33 1311.07 Q1248.28 1308.38 1248.28 1303.36 Q1248.28 1300.05 1250.18 1297.76 Q1252.07 1295.46 1255.45 1294.68 M1253.74 1287.29 Q1253.74 1289.98 1255.41 1291.48 Q1257.1 1292.99 1260.13 1292.99 Q1263.14 1292.99 1264.83 1291.48 Q1266.54 1289.98 1266.54 1287.29 Q1266.54 1284.61 1264.83 1283.1 Q1263.14 1281.6 1260.13 1281.6 Q1257.1 1281.6 1255.41 1283.1 Q1253.74 1284.61 1253.74 1287.29 Z" fill="#000000" fill-rule="nonzero" fill-opacity="1" /><path clip-path="url(#clip230)" d="M1458.74 1309.14 L1466.37 1309.14 L1466.37 1282.78 L1458.06 1284.45 L1458.06 1280.19 L1466.33 1278.52 L1471 1278.52 L1471 1309.14 L1478.64 1309.14 L1478.64 1313.08 L1458.74 1313.08 L1458.74 1309.14 Z" fill="#000000" fill-rule="nonzero" fill-opacity="1" /><path clip-path="url(#clip230)" d="M1488.09 1307.2 L1492.97 1307.2 L1492.97 1313.08 L1488.09 1313.08 L1488.09 1307.2 Z" fill="#000000" fill-rule="nonzero" fill-opacity="1" /><path clip-path="url(#clip230)" d="M1513.16 1281.6 Q1509.55 1281.6 1507.72 1285.16 Q1505.91 1288.7 1505.91 1295.83 Q1505.91 1302.94 1507.72 1306.51 Q1509.55 1310.05 1513.16 1310.05 Q1516.79 1310.05 1518.6 1306.51 Q1520.43 1302.94 1520.43 1295.83 Q1520.43 1288.7 1518.6 1285.16 Q1516.79 1281.6 1513.16 1281.6 M1513.16 1277.89 Q1518.97 1277.89 1522.02 1282.5 Q1525.1 1287.08 1525.1 1295.83 Q1525.1 1304.56 1522.02 1309.17 Q1518.97 1313.75 1513.16 1313.75 Q1507.35 1313.75 1504.27 1309.17 Q1501.21 1304.56 1501.21 1295.83 Q1501.21 1287.08 1504.27 1282.5 Q1507.35 1277.89 1513.16 1277.89 Z" fill="#000000" fill-rule="nonzero" fill-opacity="1" /><path clip-path="url(#clip230)" d="M1713.65 1309.14 L1721.29 1309.14 L1721.29 1282.78 L1712.98 1284.45 L1712.98 1280.19 L1721.24 1278.52 L1725.92 1278.52 L1725.92 1309.14 L1733.56 1309.14 L1733.56 1313.08 L1713.65 1313.08 L1713.65 1309.14 Z" fill="#000000" fill-rule="nonzero" fill-opacity="1" /><path clip-path="url(#clip230)" d="M1743 1307.2 L1747.89 1307.2 L1747.89 1313.08 L1743 1313.08 L1743 1307.2 Z" fill="#000000" fill-rule="nonzero" fill-opacity="1" /><path clip-path="url(#clip230)" d="M1762.1 1309.14 L1778.42 1309.14 L1778.42 1313.08 L1756.47 1313.08 L1756.47 1309.14 Q1759.14 1306.39 1763.72 1301.76 Q1768.33 1297.11 1769.51 1295.77 Q1771.75 1293.24 1772.63 1291.51 Q1773.53 1289.75 1773.53 1288.06 Q1773.53 1285.3 1771.59 1283.57 Q1769.67 1281.83 1766.57 1281.83 Q1764.37 1281.83 1761.91 1282.59 Q1759.48 1283.36 1756.71 1284.91 L1756.71 1280.19 Q1759.53 1279.05 1761.98 1278.47 Q1764.44 1277.89 1766.47 1277.89 Q1771.84 1277.89 1775.04 1280.58 Q1778.23 1283.27 1778.23 1287.76 Q1778.23 1289.89 1777.42 1291.81 Q1776.64 1293.7 1774.53 1296.3 Q1773.95 1296.97 1770.85 1300.19 Q1767.75 1303.38 1762.1 1309.14 Z" fill="#000000" fill-rule="nonzero" fill-opacity="1" /><path clip-path="url(#clip230)" d="M1055.35 1356.05 Q1055.35 1356.95 1054.93 1357.18 Q1054.52 1357.37 1053.36 1357.37 L1047.17 1357.37 L1042.28 1376.82 Q1041.89 1378.53 1041.89 1379.98 Q1041.89 1381.59 1042.37 1382.3 Q1042.89 1383.01 1043.95 1383.01 Q1046.05 1383.01 1048.3 1381.11 Q1050.59 1379.21 1052.52 1374.57 Q1052.78 1373.96 1052.9 1373.83 Q1053.07 1373.67 1053.48 1373.67 Q1054.29 1373.67 1054.29 1374.31 Q1054.29 1374.54 1053.84 1375.57 Q1053.42 1376.6 1052.49 1378.11 Q1051.58 1379.62 1050.39 1381.04 Q1049.23 1382.46 1047.46 1383.49 Q1045.69 1384.49 1043.79 1384.49 Q1041.12 1384.49 1039.41 1382.78 Q1037.74 1381.07 1037.74 1378.4 Q1037.74 1377.53 1038.41 1374.76 Q1039.09 1371.96 1042.76 1357.37 L1036.93 1357.37 Q1036.13 1357.37 1035.8 1357.34 Q1035.51 1357.31 1035.29 1357.14 Q1035.1 1356.95 1035.1 1356.57 Q1035.1 1355.95 1035.35 1355.7 Q1035.61 1355.41 1035.93 1355.37 Q1036.29 1355.31 1037.09 1355.31 L1043.28 1355.31 L1045.85 1344.84 Q1046.11 1343.81 1046.75 1343.23 Q1047.43 1342.62 1047.82 1342.56 Q1048.2 1342.46 1048.49 1342.46 Q1049.36 1342.46 1049.88 1342.94 Q1050.39 1343.39 1050.39 1344.23 Q1050.39 1344.68 1047.69 1355.31 L1053.48 1355.31 Q1054.23 1355.31 1054.52 1355.34 Q1054.84 1355.37 1055.09 1355.53 Q1055.35 1355.7 1055.35 1356.05 Z" fill="#000000" fill-rule="nonzero" fill-opacity="1" /><polyline clip-path="url(#clip230)" style="stroke:#000000; stroke-linecap:round; stroke-linejoin:round; stroke-width:4; stroke-opacity:1; fill:none" points="221.006,1254.52 221.006,47.2441 "/>
<polyline clip-path="url(#clip230)" style="stroke:#000000; stroke-linecap:round; stroke-linejoin:round; stroke-width:4; stroke-opacity:1; fill:none" points="221.006,1254.52 239.904,1254.52 "/>
<polyline clip-path="url(#clip230)" style="stroke:#000000; stroke-linecap:round; stroke-linejoin:round; stroke-width:4; stroke-opacity:1; fill:none" points="221.006,1013.06 239.904,1013.06 "/>
<polyline clip-path="url(#clip230)" style="stroke:#000000; stroke-linecap:round; stroke-linejoin:round; stroke-width:4; stroke-opacity:1; fill:none" points="221.006,771.61 239.904,771.61 "/>
<polyline clip-path="url(#clip230)" style="stroke:#000000; stroke-linecap:round; stroke-linejoin:round; stroke-width:4; stroke-opacity:1; fill:none" points="221.006,530.154 239.904,530.154 "/>
<polyline clip-path="url(#clip230)" style="stroke:#000000; stroke-linecap:round; stroke-linejoin:round; stroke-width:4; stroke-opacity:1; fill:none" points="221.006,288.699 239.904,288.699 "/>
<polyline clip-path="url(#clip230)" style="stroke:#000000; stroke-linecap:round; stroke-linejoin:round; stroke-width:4; stroke-opacity:1; fill:none" points="221.006,47.2441 239.904,47.2441 "/>
<path clip-path="url(#clip230)" d="M135.031 1240.32 Q131.42 1240.32 129.591 1243.88 Q127.785 1247.42 127.785 1254.55 Q127.785 1261.66 129.591 1265.23 Q131.42 1268.77 135.031 1268.77 Q138.665 1268.77 140.47 1265.23 Q142.299 1261.66 142.299 1254.55 Q142.299 1247.42 140.47 1243.88 Q138.665 1240.32 135.031 1240.32 M135.031 1236.61 Q140.841 1236.61 143.896 1241.22 Q146.975 1245.8 146.975 1254.55 Q146.975 1263.28 143.896 1267.89 Q140.841 1272.47 135.031 1272.47 Q129.22 1272.47 126.142 1267.89 Q123.086 1263.28 123.086 1254.55 Q123.086 1245.8 126.142 1241.22 Q129.22 1236.61 135.031 1236.61 Z" fill="#000000" fill-rule="nonzero" fill-opacity="1" /><path clip-path="url(#clip230)" d="M155.193 1265.92 L160.077 1265.92 L160.077 1271.8 L155.193 1271.8 L155.193 1265.92 Z" fill="#000000" fill-rule="nonzero" fill-opacity="1" /><path clip-path="url(#clip230)" d="M180.262 1240.32 Q176.651 1240.32 174.822 1243.88 Q173.017 1247.42 173.017 1254.55 Q173.017 1261.66 174.822 1265.23 Q176.651 1268.77 180.262 1268.77 Q183.896 1268.77 185.702 1265.23 Q187.53 1261.66 187.53 1254.55 Q187.53 1247.42 185.702 1243.88 Q183.896 1240.32 180.262 1240.32 M180.262 1236.61 Q186.072 1236.61 189.128 1241.22 Q192.206 1245.8 192.206 1254.55 Q192.206 1263.28 189.128 1267.89 Q186.072 1272.47 180.262 1272.47 Q174.452 1272.47 171.373 1267.89 Q168.318 1263.28 168.318 1254.55 Q168.318 1245.8 171.373 1241.22 Q174.452 1236.61 180.262 1236.61 Z" fill="#000000" fill-rule="nonzero" fill-opacity="1" /><path clip-path="url(#clip230)" d="M136.628 998.863 Q133.017 998.863 131.188 1002.43 Q129.383 1005.97 129.383 1013.1 Q129.383 1020.21 131.188 1023.77 Q133.017 1027.31 136.628 1027.31 Q140.262 1027.31 142.068 1023.77 Q143.896 1020.21 143.896 1013.1 Q143.896 1005.97 142.068 1002.43 Q140.262 998.863 136.628 998.863 M136.628 995.16 Q142.438 995.16 145.494 999.766 Q148.572 1004.35 148.572 1013.1 Q148.572 1021.83 145.494 1026.43 Q142.438 1031.02 136.628 1031.02 Q130.818 1031.02 127.739 1026.43 Q124.683 1021.83 124.683 1013.1 Q124.683 1004.35 127.739 999.766 Q130.818 995.16 136.628 995.16 Z" fill="#000000" fill-rule="nonzero" fill-opacity="1" /><path clip-path="url(#clip230)" d="M156.79 1024.47 L161.674 1024.47 L161.674 1030.34 L156.79 1030.34 L156.79 1024.47 Z" fill="#000000" fill-rule="nonzero" fill-opacity="1" /><path clip-path="url(#clip230)" d="M175.887 1026.41 L192.206 1026.41 L192.206 1030.34 L170.262 1030.34 L170.262 1026.41 Q172.924 1023.65 177.507 1019.03 Q182.114 1014.37 183.294 1013.03 Q185.54 1010.51 186.419 1008.77 Q187.322 1007.01 187.322 1005.32 Q187.322 1002.57 185.378 1000.83 Q183.456 999.095 180.354 999.095 Q178.155 999.095 175.702 999.859 Q173.271 1000.62 170.493 1002.17 L170.493 997.451 Q173.317 996.317 175.771 995.738 Q178.225 995.16 180.262 995.16 Q185.632 995.16 188.827 997.845 Q192.021 1000.53 192.021 1005.02 Q192.021 1007.15 191.211 1009.07 Q190.424 1010.97 188.317 1013.56 Q187.739 1014.23 184.637 1017.45 Q181.535 1020.65 175.887 1026.41 Z" fill="#000000" fill-rule="nonzero" fill-opacity="1" /><path clip-path="url(#clip230)" d="M134.545 757.408 Q130.933 757.408 129.105 760.973 Q127.299 764.515 127.299 771.644 Q127.299 778.751 129.105 782.316 Q130.933 785.857 134.545 785.857 Q138.179 785.857 139.984 782.316 Q141.813 778.751 141.813 771.644 Q141.813 764.515 139.984 760.973 Q138.179 757.408 134.545 757.408 M134.545 753.705 Q140.355 753.705 143.41 758.311 Q146.489 762.894 146.489 771.644 Q146.489 780.371 143.41 784.978 Q140.355 789.561 134.545 789.561 Q128.734 789.561 125.656 784.978 Q122.6 780.371 122.6 771.644 Q122.6 762.894 125.656 758.311 Q128.734 753.705 134.545 753.705 Z" fill="#000000" fill-rule="nonzero" fill-opacity="1" /><path clip-path="url(#clip230)" d="M154.706 783.01 L159.591 783.01 L159.591 788.89 L154.706 788.89 L154.706 783.01 Z" fill="#000000" fill-rule="nonzero" fill-opacity="1" /><path clip-path="url(#clip230)" d="M182.623 758.404 L170.817 776.853 L182.623 776.853 L182.623 758.404 M181.396 754.33 L187.276 754.33 L187.276 776.853 L192.206 776.853 L192.206 780.741 L187.276 780.741 L187.276 788.89 L182.623 788.89 L182.623 780.741 L167.021 780.741 L167.021 776.228 L181.396 754.33 Z" fill="#000000" fill-rule="nonzero" fill-opacity="1" /><path clip-path="url(#clip230)" d="M134.869 515.953 Q131.258 515.953 129.429 519.518 Q127.623 523.06 127.623 530.189 Q127.623 537.296 129.429 540.86 Q131.258 544.402 134.869 544.402 Q138.503 544.402 140.308 540.86 Q142.137 537.296 142.137 530.189 Q142.137 523.06 140.308 519.518 Q138.503 515.953 134.869 515.953 M134.869 512.249 Q140.679 512.249 143.734 516.856 Q146.813 521.439 146.813 530.189 Q146.813 538.916 143.734 543.522 Q140.679 548.106 134.869 548.106 Q129.058 548.106 125.98 543.522 Q122.924 538.916 122.924 530.189 Q122.924 521.439 125.98 516.856 Q129.058 512.249 134.869 512.249 Z" fill="#000000" fill-rule="nonzero" fill-opacity="1" /><path clip-path="url(#clip230)" d="M155.031 541.555 L159.915 541.555 L159.915 547.434 L155.031 547.434 L155.031 541.555 Z" fill="#000000" fill-rule="nonzero" fill-opacity="1" /><path clip-path="url(#clip230)" d="M180.679 528.291 Q177.53 528.291 175.679 530.444 Q173.85 532.597 173.85 536.346 Q173.85 540.073 175.679 542.249 Q177.53 544.402 180.679 544.402 Q183.827 544.402 185.655 542.249 Q187.507 540.073 187.507 536.346 Q187.507 532.597 185.655 530.444 Q183.827 528.291 180.679 528.291 M189.961 513.638 L189.961 517.898 Q188.202 517.064 186.396 516.624 Q184.614 516.185 182.854 516.185 Q178.225 516.185 175.771 519.31 Q173.341 522.435 172.993 528.754 Q174.359 526.74 176.419 525.675 Q178.479 524.587 180.956 524.587 Q186.165 524.587 189.174 527.759 Q192.206 530.907 192.206 536.346 Q192.206 541.671 189.058 544.888 Q185.91 548.106 180.679 548.106 Q174.683 548.106 171.512 543.522 Q168.341 538.916 168.341 530.189 Q168.341 521.995 172.23 517.134 Q176.118 512.249 182.669 512.249 Q184.429 512.249 186.211 512.597 Q188.016 512.944 189.961 513.638 Z" fill="#000000" fill-rule="nonzero" fill-opacity="1" /><path clip-path="url(#clip230)" d="M135.123 274.498 Q131.512 274.498 129.683 278.063 Q127.878 281.604 127.878 288.734 Q127.878 295.84 129.683 299.405 Q131.512 302.947 135.123 302.947 Q138.757 302.947 140.563 299.405 Q142.392 295.84 142.392 288.734 Q142.392 281.604 140.563 278.063 Q138.757 274.498 135.123 274.498 M135.123 270.794 Q140.933 270.794 143.989 275.401 Q147.068 279.984 147.068 288.734 Q147.068 297.461 143.989 302.067 Q140.933 306.651 135.123 306.651 Q129.313 306.651 126.234 302.067 Q123.179 297.461 123.179 288.734 Q123.179 279.984 126.234 275.401 Q129.313 270.794 135.123 270.794 Z" fill="#000000" fill-rule="nonzero" fill-opacity="1" /><path clip-path="url(#clip230)" d="M155.285 300.1 L160.169 300.1 L160.169 305.979 L155.285 305.979 L155.285 300.1 Z" fill="#000000" fill-rule="nonzero" fill-opacity="1" /><path clip-path="url(#clip230)" d="M180.354 289.567 Q177.021 289.567 175.1 291.35 Q173.202 293.132 173.202 296.257 Q173.202 299.382 175.1 301.164 Q177.021 302.947 180.354 302.947 Q183.688 302.947 185.609 301.164 Q187.53 299.359 187.53 296.257 Q187.53 293.132 185.609 291.35 Q183.711 289.567 180.354 289.567 M175.679 287.577 Q172.669 286.836 170.98 284.776 Q169.313 282.715 169.313 279.753 Q169.313 275.609 172.253 273.202 Q175.216 270.794 180.354 270.794 Q185.516 270.794 188.456 273.202 Q191.396 275.609 191.396 279.753 Q191.396 282.715 189.706 284.776 Q188.04 286.836 185.054 287.577 Q188.433 288.364 190.308 290.655 Q192.206 292.947 192.206 296.257 Q192.206 301.28 189.128 303.965 Q186.072 306.651 180.354 306.651 Q174.637 306.651 171.558 303.965 Q168.503 301.28 168.503 296.257 Q168.503 292.947 170.401 290.655 Q172.299 288.364 175.679 287.577 M173.966 280.192 Q173.966 282.878 175.632 284.382 Q177.322 285.887 180.354 285.887 Q183.364 285.887 185.054 284.382 Q186.766 282.878 186.766 280.192 Q186.766 277.507 185.054 276.003 Q183.364 274.498 180.354 274.498 Q177.322 274.498 175.632 276.003 Q173.966 277.507 173.966 280.192 Z" fill="#000000" fill-rule="nonzero" fill-opacity="1" /><path clip-path="url(#clip230)" d="M125.841 60.5889 L133.48 60.5889 L133.48 34.2233 L125.17 35.89 L125.17 31.6308 L133.433 29.9641 L138.109 29.9641 L138.109 60.5889 L145.748 60.5889 L145.748 64.5241 L125.841 64.5241 L125.841 60.5889 Z" fill="#000000" fill-rule="nonzero" fill-opacity="1" /><path clip-path="url(#clip230)" d="M155.193 58.6445 L160.077 58.6445 L160.077 64.5241 L155.193 64.5241 L155.193 58.6445 Z" fill="#000000" fill-rule="nonzero" fill-opacity="1" /><path clip-path="url(#clip230)" d="M180.262 33.0428 Q176.651 33.0428 174.822 36.6076 Q173.017 40.1492 173.017 47.2788 Q173.017 54.3853 174.822 57.9501 Q176.651 61.4917 180.262 61.4917 Q183.896 61.4917 185.702 57.9501 Q187.53 54.3853 187.53 47.2788 Q187.53 40.1492 185.702 36.6076 Q183.896 33.0428 180.262 33.0428 M180.262 29.3391 Q186.072 29.3391 189.128 33.9456 Q192.206 38.5289 192.206 47.2788 Q192.206 56.0056 189.128 60.6121 Q186.072 65.1954 180.262 65.1954 Q174.452 65.1954 171.373 60.6121 Q168.318 56.0056 168.318 47.2788 Q168.318 38.5289 171.373 33.9456 Q174.452 29.3391 180.262 29.3391 Z" fill="#000000" fill-rule="nonzero" fill-opacity="1" /><path clip-path="url(#clip230)" d="M35.7905 670.595 L50.2187 674.17 Q51.0883 674.363 51.3137 674.524 Q51.5391 674.685 51.5391 675.136 Q51.5391 675.491 51.3781 675.716 Q51.2171 675.909 51.056 675.909 L50.895 675.941 Q50.7984 675.941 50.3153 675.877 Q49.8 675.813 48.9627 675.748 Q48.1253 675.684 47.1913 675.684 Q41.9096 675.684 39.4619 678.26 Q36.9821 680.805 36.9821 685.185 Q36.9821 688.212 38.5924 690.917 Q40.2027 693.623 42.7469 695.168 Q45.259 696.714 47.8999 696.714 Q50.3153 696.714 51.8612 695.49 Q53.4071 694.267 53.9224 692.689 L55.114 688.276 Q56.3056 683.639 56.8209 682.318 Q57.304 680.998 58.399 679.903 Q61.4263 676.65 66.1284 676.65 Q70.1863 676.65 74.1154 678.937 Q78.0124 681.223 80.5566 685.152 Q83.0687 689.081 83.0687 693.429 Q83.0687 701.062 78.3344 704.573 L82.0703 707.793 Q82.7788 708.405 82.9076 708.598 Q83.0687 708.759 83.0687 708.985 Q83.0687 709.275 82.8754 709.5 Q82.7144 709.725 82.4246 709.725 Q82.1991 709.725 74.6307 707.825 Q67.0624 705.925 66.9013 705.764 Q66.6437 705.506 66.6437 705.088 Q66.6437 704.315 67.3844 704.315 Q67.5777 704.379 67.8353 704.444 Q70.1541 704.83 71.4101 704.83 Q73.7612 704.83 75.5647 704.025 Q77.336 703.22 78.3666 702.028 Q79.365 700.804 80.0091 699.162 Q80.621 697.519 80.8465 696.135 Q81.0397 694.75 81.0397 693.3 Q81.0397 690.176 79.2362 687.407 Q77.4326 684.605 74.6307 683.027 Q71.8288 681.416 68.8981 681.416 Q67.3522 681.416 66.1606 681.835 Q64.9368 682.254 64.2604 682.834 Q63.5841 683.381 63.0688 684.315 Q62.5535 685.249 62.3603 685.893 Q62.1349 686.505 61.9094 687.471 L60.0415 694.524 Q59.2041 697.358 56.7887 699.387 Q54.3732 701.384 50.6696 701.384 Q46.7727 701.384 43.1656 699.098 Q39.5263 696.779 37.3363 693.011 Q35.1141 689.21 35.1141 685.12 Q35.1141 681.9 36.3702 679.42 Q37.594 676.94 39.8806 675.684 L36.1125 672.495 Q35.3718 671.851 35.243 671.723 Q35.1141 671.562 35.1141 671.336 Q35.1141 670.95 35.3396 670.789 Q35.565 670.595 35.7905 670.595 Z" fill="#000000" fill-rule="nonzero" fill-opacity="1" /><path clip-path="url(#clip230)" d="M65.13 663.095 Q53.9868 663.095 45.0013 658.94 Q41.2333 657.169 38.0771 654.689 Q34.9209 652.209 33.5361 650.567 Q32.1512 648.924 32.1512 648.473 Q32.1512 647.829 32.7953 647.797 Q33.1174 647.797 33.9225 648.667 Q44.7437 659.294 65.13 659.262 Q85.5807 659.262 95.9832 648.924 Q97.1104 647.797 97.4647 647.797 Q98.1088 647.797 98.1088 648.473 Q98.1088 648.924 96.7884 650.502 Q95.4679 652.08 92.4406 654.528 Q89.4132 656.976 85.7096 658.747 Q76.7241 663.095 65.13 663.095 Z" fill="#000000" fill-rule="nonzero" fill-opacity="1" /><path clip-path="url(#clip230)" d="M53.9224 622.527 Q54.8241 622.527 55.0496 622.946 Q55.2428 623.364 55.2428 624.524 L55.2428 630.707 L74.6951 635.603 Q76.4021 635.989 77.8513 635.989 Q79.4616 635.989 80.1701 635.506 Q80.8787 634.991 80.8787 633.928 Q80.8787 631.835 78.9785 629.58 Q77.0784 627.294 72.4407 625.361 Q71.8288 625.104 71.7 624.975 Q71.539 624.814 71.539 624.395 Q71.539 623.59 72.1831 623.59 Q72.4085 623.59 73.4391 624.041 Q74.4697 624.459 75.9834 625.393 Q77.4971 626.295 78.9141 627.487 Q80.3312 628.646 81.3618 630.417 Q82.3601 632.189 82.3601 634.089 Q82.3601 636.762 80.6532 638.469 Q78.9463 640.144 76.2732 640.144 Q75.4037 640.144 72.634 639.467 Q69.8321 638.791 55.2428 635.12 L55.2428 640.949 Q55.2428 641.754 55.2106 642.076 Q55.1784 642.366 55.0174 642.591 Q54.8241 642.785 54.4377 642.785 Q53.8257 642.785 53.5681 642.527 Q53.2782 642.269 53.246 641.947 Q53.1816 641.593 53.1816 640.788 L53.1816 634.604 L42.7147 632.028 Q41.6841 631.77 41.1044 631.126 Q40.4925 630.45 40.4281 630.063 Q40.3315 629.677 40.3315 629.387 Q40.3315 628.517 40.8146 628.002 Q41.2655 627.487 42.1028 627.487 Q42.5537 627.487 53.1816 630.192 L53.1816 624.395 Q53.1816 623.654 53.2138 623.364 Q53.246 623.042 53.4071 622.785 Q53.5681 622.527 53.9224 622.527 Z" fill="#000000" fill-rule="nonzero" fill-opacity="1" /><path clip-path="url(#clip230)" d="M97.4647 617.365 Q97.1426 617.365 96.3375 616.527 Q85.5163 605.899 65.13 605.899 Q44.6793 605.899 34.3412 616.109 Q33.1496 617.365 32.7953 617.365 Q32.1512 617.365 32.1512 616.721 Q32.1512 616.27 33.4716 614.692 Q34.7921 613.081 37.8194 610.666 Q40.8468 608.218 44.5505 606.415 Q53.5359 602.067 65.13 602.067 Q76.2732 602.067 85.2587 606.221 Q89.0268 607.993 92.1829 610.473 Q95.3391 612.952 96.724 614.595 Q98.1088 616.237 98.1088 616.721 Q98.1088 617.365 97.4647 617.365 Z" fill="#000000" fill-rule="nonzero" fill-opacity="1" /><polyline clip-path="url(#clip232)" style="stroke:#3da44d; stroke-linecap:round; stroke-linejoin:round; stroke-width:4; stroke-opacity:1; fill:none" points="221.006,47.2441 233.712,52.0598 246.418,58.3357 259.124,65.3363 271.829,72.8688 284.535,80.8352 297.241,89.1747 309.947,97.8455 322.652,106.817 335.358,116.064 348.064,125.568 360.77,135.312 373.475,145.282 386.181,155.465 398.887,165.85 411.593,176.427 424.299,187.186 437.004,198.118 449.71,209.215 462.416,220.468 475.122,231.869 487.827,243.411 500.533,255.086 513.239,266.887 525.945,278.807 538.65,290.839 551.356,302.975 564.062,315.209 576.768,327.533 589.473,339.941 602.179,352.426 614.885,364.981 627.591,377.6 640.297,390.275 653.002,403.001 665.708,415.769 678.414,428.575 691.12,441.411 703.825,454.271 716.531,467.148 729.237,480.036 741.943,492.928 754.648,505.819 767.354,518.701 780.06,531.569 792.766,544.417 805.472,557.239 818.177,570.028 830.883,582.779 843.589,595.486 856.295,608.144 869,620.746 881.706,633.287 894.412,645.763 907.118,658.167 919.823,670.495 932.529,682.741 945.235,694.902 957.941,706.971 970.646,718.944 983.352,730.817 996.058,742.586 1008.76,754.246 1021.47,765.794 1034.18,777.224 1046.88,788.535 1059.59,799.721 1072.29,810.78 1085,821.708 1097.7,832.503 1110.41,843.161 1123.12,853.679 1135.82,864.055 1148.53,874.286 1161.23,884.37 1173.94,894.306 1186.64,904.09 1199.35,913.721 1212.06,923.197 1224.76,932.518 1237.47,941.681 1250.17,950.685 1262.88,959.53 1275.58,968.214 1288.29,976.737 1301,985.098 1313.7,993.296 1326.41,1001.33 1339.11,1009.21 1351.82,1016.92 1364.53,1024.47 1377.23,1031.85 1389.94,1039.08 1402.64,1046.14 1415.35,1053.04 1428.05,1059.78 1440.76,1066.37 1453.47,1072.79 1466.17,1079.06 1478.88,1085.17 1491.58,1091.13 1504.29,1096.94 1516.99,1102.59 1529.7,1108.1 1542.41,1113.45 1555.11,1118.66 1567.82,1123.73 1580.52,1128.65 1593.23,1133.43 1605.93,1138.08 1618.64,1142.58 1631.35,1146.96 1644.05,1151.2 1656.76,1155.31 1669.46,1159.29 1682.17,1163.14 1694.88,1166.88 1707.58,1170.49 1720.29,1173.98 1732.99,1177.36 1745.7,1180.63 1758.4,1183.78 1771.11,1186.83 1783.82,1189.76 1796.52,1192.6 1809.23,1195.33 1821.93,1197.97 1834.64,1200.51 1847.34,1202.95 1860.05,1205.31 1872.76,1207.57 1885.46,1209.75 1898.17,1211.84 1910.87,1213.85 1923.58,1215.79 1936.28,1217.64 1948.99,1219.42 1961.7,1221.13 1974.4,1222.77 1987.11,1224.33 1999.81,1225.84 2012.52,1227.28 2025.23,1228.65 2037.93,1229.97 2050.64,1231.23 2063.34,1232.44 2076.05,1233.59 2088.75,1234.68 2101.46,1235.73 2114.17,1236.73 2126.87,1237.69 2139.58,1238.6 2152.28,1239.46 2164.99,1240.29 2177.69,1241.08 2190.4,1241.82 2203.11,1242.53 2215.81,1243.21 2228.52,1243.85 2241.22,1244.46 2253.93,1245.04 2266.63,1245.59 2279.34,1246.11 2292.05,1246.61 2304.75,1247.08 2317.46,1247.52 2330.16,1247.94 2342.87,1248.34 2355.58,1248.71 2368.28,1249.07 2380.99,1249.4 2393.69,1249.72 2406.4,1250.02 2419.1,1250.3 2431.81,1250.57 2444.52,1250.82 2457.22,1251.06 2469.93,1251.28 2482.63,1251.49 2495.34,1251.69 2508.04,1251.87 2520.75,1252.05 2533.46,1252.21 2546.16,1252.37 2558.87,1252.51 2571.57,1252.65 2584.28,1252.78 2596.98,1252.9 2609.69,1253.01 2622.4,1253.11 2635.1,1253.21 2647.81,1253.3 2660.51,1253.39 2673.22,1253.47 2685.92,1253.54 2698.63,1253.61 2711.34,1253.68 2724.04,1253.74 2736.75,1253.8 2749.45,1253.85 2762.16,1253.9 "/>
<polyline clip-path="url(#clip232)" style="stroke:#000000; stroke-linecap:round; stroke-linejoin:round; stroke-width:4; stroke-opacity:1; fill:none" points="221.006,47.2441 233.712,59.3169 246.418,59.3169 259.124,83.4624 271.829,83.4624 284.535,107.608 297.241,119.681 309.947,131.753 322.652,167.972 335.358,167.972 348.064,167.972 360.77,167.972 373.475,180.044 386.181,192.117 398.887,204.19 411.593,228.335 424.299,240.408 437.004,252.481 449.71,264.554 462.416,264.554 475.122,264.554 487.827,312.845 500.533,324.918 513.239,324.918 525.945,349.063 538.65,361.136 551.356,361.136 564.062,361.136 576.768,373.209 589.473,385.281 602.179,385.281 614.885,409.427 627.591,409.427 640.297,421.5 653.002,433.572 665.708,433.572 678.414,457.718 691.12,469.791 703.825,506.009 716.531,506.009 729.237,506.009 741.943,506.009 754.648,506.009 767.354,506.009 780.06,518.082 792.766,530.154 805.472,542.227 818.177,566.373 830.883,602.591 843.589,626.736 856.295,626.736 869,675.027 881.706,687.1 894.412,711.246 907.118,735.391 919.823,735.391 932.529,735.391 945.235,735.391 957.941,735.391 970.646,747.464 983.352,747.464 996.058,747.464 1008.76,747.464 1021.47,747.464 1034.18,759.537 1046.88,771.61 1059.59,783.682 1072.29,783.682 1085,807.828 1097.7,819.901 1110.41,819.901 1123.12,831.973 1135.82,831.973 1148.53,856.119 1161.23,856.119 1173.94,868.192 1186.64,868.192 1199.35,868.192 1212.06,880.264 1224.76,892.337 1237.47,916.483 1250.17,916.483 1262.88,928.555 1275.58,952.701 1288.29,952.701 1301,964.774 1313.7,988.919 1326.41,1000.99 1339.11,1000.99 1351.82,1013.06 1364.53,1013.06 1377.23,1013.06 1389.94,1013.06 1402.64,1025.14 1415.35,1025.14 1428.05,1037.21 1440.76,1037.21 1453.47,1037.21 1466.17,1049.28 1478.88,1049.28 1491.58,1049.28 1504.29,1049.28 1516.99,1049.28 1529.7,1049.28 1542.41,1049.28 1555.11,1061.36 1567.82,1061.36 1580.52,1061.36 1593.23,1061.36 1605.93,1061.36 1618.64,1061.36 1631.35,1061.36 1644.05,1061.36 1656.76,1073.43 1669.46,1073.43 1682.17,1085.5 1694.88,1097.57 1707.58,1109.65 1720.29,1109.65 1732.99,1109.65 1745.7,1121.72 1758.4,1133.79 1771.11,1133.79 1783.82,1133.79 1796.52,1145.87 1809.23,1145.87 1821.93,1157.94 1834.64,1157.94 1847.34,1182.08 1860.05,1182.08 1872.76,1182.08 1885.46,1182.08 1898.17,1182.08 1910.87,1182.08 1923.58,1182.08 1936.28,1182.08 1948.99,1182.08 1961.7,1182.08 1974.4,1182.08 1987.11,1182.08 1999.81,1194.16 2012.52,1206.23 2025.23,1206.23 2037.93,1218.3 2050.64,1218.3 2063.34,1230.37 2076.05,1230.37 2088.75,1230.37 2101.46,1230.37 2114.17,1230.37 2126.87,1230.37 2139.58,1230.37 2152.28,1230.37 2164.99,1230.37 2177.69,1230.37 2190.4,1230.37 2203.11,1230.37 2215.81,1242.45 2228.52,1242.45 2241.22,1242.45 2253.93,1242.45 2266.63,1242.45 2279.34,1242.45 2292.05,1242.45 2304.75,1242.45 2317.46,1242.45 2330.16,1242.45 2342.87,1242.45 2355.58,1242.45 2368.28,1242.45 2380.99,1242.45 2393.69,1242.45 2406.4,1242.45 2419.1,1242.45 2431.81,1242.45 2444.52,1242.45 2457.22,1242.45 2469.93,1242.45 2482.63,1242.45 2495.34,1242.45 2508.04,1242.45 2520.75,1242.45 2533.46,1242.45 2546.16,1242.45 2558.87,1242.45 2571.57,1242.45 2584.28,1254.52 2596.98,1254.52 2609.69,1254.52 2622.4,1254.52 2635.1,1254.52 2647.81,1254.52 2660.51,1254.52 2673.22,1254.52 2685.92,1254.52 2698.63,1254.52 2711.34,1254.52 2724.04,1254.52 2736.75,1254.52 2749.45,1254.52 2762.16,1254.52 "/>
<polyline clip-path="url(#clip232)" style="stroke:#009af9; stroke-linecap:round; stroke-linejoin:round; stroke-width:4; stroke-opacity:1; fill:none" points="221.006,47.2441 233.712,53.6778 246.418,63.5853 259.124,73.8061 271.829,84.2558 284.535,94.8884 297.241,105.708 309.947,116.568 322.652,127.441 335.358,138.31 348.064,149.174 360.77,160.053 373.475,170.97 386.181,181.972 398.887,193.062 411.593,204.254 424.299,215.528 437.004,226.817 449.71,238.111 462.416,249.412 475.122,260.701 487.827,271.973 500.533,283.204 513.239,294.389 525.945,305.537 538.65,316.648 551.356,327.729 564.062,338.809 576.768,349.922 589.473,361.154 602.179,372.524 614.885,383.99 627.591,395.496 640.297,407.082 653.002,418.809 665.708,430.63 678.414,442.508 691.12,454.425 703.825,466.311 716.531,478.128 729.237,489.929 741.943,501.729 754.648,513.63 767.354,525.811 780.06,538.356 792.766,551.053 805.472,563.839 818.177,576.605 830.883,589.361 843.589,602.04 856.295,614.553 869,626.912 881.706,639.09 894.412,651.072 907.118,662.862 919.823,674.457 932.529,685.862 945.235,697.085 957.941,708.145 970.646,719.057 983.352,729.809 996.058,740.413 1008.76,750.884 1021.47,761.234 1034.18,771.471 1046.88,781.597 1059.59,791.6 1072.29,801.472 1085,811.221 1097.7,820.832 1110.41,830.311 1123.12,839.666 1135.82,848.897 1148.53,857.999 1161.23,866.96 1173.94,875.774 1186.64,884.448 1199.35,892.986 1212.06,901.399 1224.76,909.681 1237.47,917.827 1250.17,925.837 1262.88,933.717 1275.58,941.47 1288.29,949.078 1301,956.552 1313.7,963.888 1326.41,971.078 1339.11,978.123 1351.82,985.023 1364.53,991.782 1377.23,998.396 1389.94,1004.88 1402.64,1011.23 1415.35,1017.45 1428.05,1023.55 1440.76,1029.52 1453.47,1035.38 1466.17,1041.11 1478.88,1046.72 1491.58,1052.22 1504.29,1057.6 1516.99,1062.88 1529.7,1068.06 1542.41,1073.13 1555.11,1078.12 1567.82,1083.01 1580.52,1087.8 1593.23,1092.5 1605.93,1097.12 1618.64,1101.69 1631.35,1106.19 1644.05,1110.64 1656.76,1115.05 1669.46,1119.41 1682.17,1123.74 1694.88,1128.01 1707.58,1132.19 1720.29,1136.27 1732.99,1140.26 1745.7,1144.17 1758.4,1147.99 1771.11,1151.72 1783.82,1155.35 1796.52,1158.88 1809.23,1162.33 1821.93,1165.69 1834.64,1168.96 1847.34,1172.13 1860.05,1175.21 1872.76,1178.18 1885.46,1181.06 1898.17,1183.86 1910.87,1186.56 1923.58,1189.19 1936.28,1191.73 1948.99,1194.19 1961.7,1196.58 1974.4,1198.9 1987.11,1201.16 1999.81,1203.35 2012.52,1205.47 2025.23,1207.52 2037.93,1209.49 2050.64,1211.38 2063.34,1213.21 2076.05,1214.96 2088.75,1216.65 2101.46,1218.27 2114.17,1219.82 2126.87,1221.32 2139.58,1222.76 2152.28,1224.13 2164.99,1225.46 2177.69,1226.73 2190.4,1227.96 2203.11,1229.14 2215.81,1230.26 2228.52,1231.35 2241.22,1232.38 2253.93,1233.38 2266.63,1234.33 2279.34,1235.24 2292.05,1236.11 2304.75,1236.95 2317.46,1237.76 2330.16,1238.52 2342.87,1239.26 2355.58,1239.96 2368.28,1240.63 2380.99,1241.27 2393.69,1241.89 2406.4,1242.48 2419.1,1243.04 2431.81,1243.58 2444.52,1244.09 2457.22,1244.58 2469.93,1245.05 2482.63,1245.5 2495.34,1245.94 2508.04,1246.35 2520.75,1246.74 2533.46,1247.12 2546.16,1247.48 2558.87,1247.83 2571.57,1248.17 2584.28,1248.48 2596.98,1248.78 2609.69,1249.07 2622.4,1249.34 2635.1,1249.6 2647.81,1249.84 2660.51,1250.07 2673.22,1250.3 2685.92,1250.51 2698.63,1250.71 2711.34,1250.9 2724.04,1251.08 2736.75,1251.25 2749.45,1251.41 2762.16,1251.57 "/>
<path clip-path="url(#clip232)" d="M221.006 47.2441 L233.712 59.5945 L246.418 73.8063 L259.124 88.9326 L271.829 104.164 L284.535 119.288 L297.241 134.406 L309.947 149.746 L322.652 164.883 L335.358 179.287 L348.064 194.16 L360.77 208.496 L373.475 222.734 L386.181 237.413 L398.887 251.496 L411.593 265.224 L424.299 279.13 L437.004 293.349 L449.71 306.683 L462.416 320.399 L475.122 334.297 L487.827 347.087 L500.533 360.908 L513.239 375.458 L525.945 389.693 L538.65 403.231 L551.356 416.079 L564.062 429.494 L576.768 442.035 L589.473 455.434 L602.179 467.774 L614.885 480.108 L627.591 493.738 L640.297 505.555 L653.002 518.942 L665.708 530.208 L678.414 542.603 L691.12 555.168 L703.825 567.58 L716.531 579.659 L729.237 592.726 L741.943 604.883 L754.648 617.943 L767.354 630.879 L780.06 644.726 L792.766 657.099 L805.472 669.831 L818.177 683.046 L830.883 695.25 L843.589 708.635 L856.295 721.013 L869 733.828 L881.706 745.546 L894.412 756.958 L907.118 768.123 L919.823 779.093 L932.529 790.36 L945.235 801.904 L957.941 812.475 L970.646 823.074 L983.352 833.813 L996.058 843.481 L1008.76 853.332 L1021.47 863.173 L1034.18 872.379 L1046.88 881.484 L1059.59 891.872 L1072.29 900.56 L1085 909.78 L1097.7 918.383 L1110.41 926.559 L1123.12 935.02 L1135.82 943.446 L1148.53 951.639 L1161.23 959.651 L1173.94 967.145 L1186.64 975.131 L1199.35 982.921 L1212.06 990.37 L1224.76 997.495 L1237.47 1004.45 L1250.17 1010.87 L1262.88 1018.47 L1275.58 1025.06 L1288.29 1031.52 L1301 1037.55 L1313.7 1044.45 L1326.41 1050.65 L1339.11 1056.59 L1351.82 1063.08 L1364.53 1069.15 L1377.23 1075.03 L1389.94 1079.92 L1402.64 1084.41 L1415.35 1089.29 L1428.05 1094.28 L1440.76 1099.26 L1453.47 1104.05 L1466.17 1108.4 L1478.88 1112.94 L1491.58 1117.65 L1504.29 1122.26 L1516.99 1126.4 L1529.7 1130.93 L1542.41 1135.35 L1555.11 1139.52 L1567.82 1143.27 L1580.52 1147.25 L1593.23 1151.5 L1605.93 1155.52 L1618.64 1159.3 L1631.35 1163.07 L1644.05 1166.41 L1656.76 1169.91 L1669.46 1173.02 L1682.17 1176.35 L1694.88 1179.37 L1707.58 1182.22 L1720.29 1184.9 L1732.99 1187.99 L1745.7 1190.76 L1758.4 1193.69 L1771.11 1196.46 L1783.82 1198.86 L1796.52 1201.9 L1809.23 1204.81 L1821.93 1206.99 L1834.64 1209.46 L1847.34 1212.17 L1860.05 1213.98 L1872.76 1216.3 L1885.46 1218.05 L1898.17 1219.78 L1910.87 1221.52 L1923.58 1223.28 L1936.28 1225.07 L1948.99 1226.94 L1961.7 1228.54 L1974.4 1230.04 L1987.11 1231.64 L1999.81 1232.88 L2012.52 1234.1 L2025.23 1235.37 L2037.93 1236.59 L2050.64 1237.72 L2063.34 1238.78 L2076.05 1239.77 L2088.75 1240.7 L2101.46 1241.62 L2114.17 1242.57 L2126.87 1243.5 L2139.58 1244.32 L2152.28 1244.99 L2164.99 1245.77 L2177.69 1246.47 L2190.4 1247.11 L2203.11 1247.69 L2215.81 1248.23 L2228.52 1248.7 L2241.22 1249.17 L2253.93 1249.6 L2266.63 1249.95 L2279.34 1250.32 L2292.05 1250.68 L2304.75 1251 L2317.46 1251.39 L2330.16 1251.65 L2342.87 1251.92 L2355.58 1252.16 L2368.28 1252.36 L2380.99 1252.54 L2393.69 1252.69 L2406.4 1252.84 L2419.1 1252.98 L2431.81 1253.12 L2444.52 1253.25 L2457.22 1253.35 L2469.93 1253.47 L2482.63 1253.57 L2495.34 1253.68 L2508.04 1253.75 L2520.75 1253.82 L2533.46 1253.89 L2546.16 1253.95 L2558.87 1254.02 L2571.57 1254.09 L2584.28 1254.14 L2596.98 1254.19 L2609.69 1254.22 L2622.4 1254.26 L2635.1 1254.3 L2647.81 1254.32 L2660.51 1254.35 L2673.22 1254.37 L2685.92 1254.38 L2698.63 1254.39 L2711.34 1254.41 L2724.04 1254.42 L2736.75 1254.43 L2749.45 1254.44 L2762.16 1254.45 L2762.16 1241.68 L2749.45 1241.18 L2736.75 1240.72 L2724.04 1240.27 L2711.34 1239.8 L2698.63 1239.27 L2685.92 1238.6 L2673.22 1237.81 L2660.51 1237.35 L2647.81 1236.86 L2635.1 1236.05 L2622.4 1235.34 L2609.69 1234.63 L2596.98 1234.01 L2584.28 1233.34 L2571.57 1232.47 L2558.87 1231.6 L2546.16 1230.54 L2533.46 1229.72 L2520.75 1228.94 L2508.04 1227.92 L2495.34 1227.27 L2482.63 1226.58 L2469.93 1225.45 L2457.22 1224.69 L2444.52 1223.61 L2431.81 1222.34 L2419.1 1221.29 L2406.4 1220.24 L2393.69 1218.94 L2380.99 1217.47 L2368.28 1216.25 L2355.58 1215.1 L2342.87 1213.94 L2330.16 1212.5 L2317.46 1211.38 L2304.75 1209.85 L2292.05 1208.27 L2279.34 1206.61 L2266.63 1205.04 L2253.93 1203.5 L2241.22 1201.84 L2228.52 1200.2 L2215.81 1198.52 L2203.11 1196.38 L2190.4 1194.64 L2177.69 1192.41 L2164.99 1190.63 L2152.28 1189.03 L2139.58 1187.29 L2126.87 1185.21 L2114.17 1183.06 L2101.46 1180.84 L2088.75 1178.57 L2076.05 1176.22 L2063.34 1173.53 L2050.64 1170.7 L2037.93 1167.77 L2025.23 1164.31 L2012.52 1161.56 L1999.81 1158.58 L1987.11 1155.95 L1974.4 1152.6 L1961.7 1149.09 L1948.99 1144.86 L1936.28 1141.54 L1923.58 1137.8 L1910.87 1133.92 L1898.17 1130.13 L1885.46 1125.39 L1872.76 1120.93 L1860.05 1117.9 L1847.34 1113.94 L1834.64 1109.2 L1821.93 1105.46 L1809.23 1101.42 L1796.52 1096.01 L1783.82 1090.74 L1771.11 1085.43 L1758.4 1081.16 L1745.7 1075.74 L1732.99 1069.89 L1720.29 1064.81 L1707.58 1059.97 L1694.88 1053.42 L1682.17 1048.49 L1669.46 1043.23 L1656.76 1036.97 L1644.05 1031.14 L1631.35 1026 L1618.64 1020.97 L1605.93 1015.09 L1593.23 1010.75 L1580.52 1005.2 L1567.82 999.978 L1555.11 994.232 L1542.41 988.472 L1529.7 981.662 L1516.99 975.345 L1504.29 969.34 L1491.58 962.523 L1478.88 956.318 L1466.17 949.951 L1453.47 943.394 L1440.76 936.64 L1428.05 929.393 L1415.35 923.181 L1402.64 916.616 L1389.94 909.527 L1377.23 901.649 L1364.53 894.62 L1351.82 886.625 L1339.11 878.354 L1326.41 872.044 L1313.7 864.064 L1301 855.678 L1288.29 847.442 L1275.58 839.672 L1262.88 832.071 L1250.17 823.583 L1237.47 814.353 L1224.76 805.138 L1212.06 795.77 L1199.35 785.366 L1186.64 776.488 L1173.94 768.103 L1161.23 758.672 L1148.53 747.109 L1135.82 737.241 L1123.12 728.236 L1110.41 718.656 L1097.7 708.842 L1085 700.248 L1072.29 690.894 L1059.59 678.17 L1046.88 667.834 L1034.18 657.935 L1021.47 648.03 L1008.76 638.046 L996.058 627.115 L983.352 615.841 L970.646 604.801 L957.941 593.637 L945.235 584.069 L932.529 573.074 L919.823 562.033 L907.118 551.639 L894.412 540.798 L881.706 528.095 L869 516.277 L856.295 505.145 L843.589 493.452 L830.883 481.156 L818.177 467.921 L805.472 454.41 L792.766 441.213 L780.06 429.195 L767.354 416.908 L754.648 405.997 L741.943 396.193 L729.237 386.08 L716.531 374.386 L703.825 364.734 L691.12 353.234 L678.414 342.109 L665.708 331.438 L653.002 321.073 L640.297 311.453 L627.591 300.919 L614.885 292.951 L602.179 281.606 L589.473 271.065 L576.768 261.171 L564.062 252.393 L551.356 244.58 L538.65 235.725 L525.945 226.718 L513.239 218.335 L500.533 209.631 L487.827 200.952 L475.122 191.427 L462.416 182.553 L449.71 173.217 L437.004 165.063 L424.299 156.619 L411.593 148.286 L398.887 138.793 L386.181 130.589 L373.475 123.23 L360.77 115.851 L348.064 108.172 L335.358 100.196 L322.652 92.3085 L309.947 84.94 L297.241 77.9083 L284.535 70.9714 L271.829 64.0605 L259.124 57.94 L246.418 52.8625 L233.712 48.7869 L221.006 47.2441  Z" fill="#009af9" fill-rule="evenodd" fill-opacity="0.2"/>
<polyline clip-path="url(#clip232)" style="stroke:#009af9; stroke-linecap:round; stroke-linejoin:round; stroke-width:4; stroke-opacity:0; fill:none" points="221.006,47.2441 233.712,59.5945 246.418,73.8063 259.124,88.9326 271.829,104.164 284.535,119.288 297.241,134.406 309.947,149.746 322.652,164.883 335.358,179.287 348.064,194.16 360.77,208.496 373.475,222.734 386.181,237.413 398.887,251.496 411.593,265.224 424.299,279.13 437.004,293.349 449.71,306.683 462.416,320.399 475.122,334.297 487.827,347.087 500.533,360.908 513.239,375.458 525.945,389.693 538.65,403.231 551.356,416.079 564.062,429.494 576.768,442.035 589.473,455.434 602.179,467.774 614.885,480.108 627.591,493.738 640.297,505.555 653.002,518.942 665.708,530.208 678.414,542.603 691.12,555.168 703.825,567.58 716.531,579.659 729.237,592.726 741.943,604.883 754.648,617.943 767.354,630.879 780.06,644.726 792.766,657.099 805.472,669.831 818.177,683.046 830.883,695.25 843.589,708.635 856.295,721.013 869,733.828 881.706,745.546 894.412,756.958 907.118,768.123 919.823,779.093 932.529,790.36 945.235,801.904 957.941,812.475 970.646,823.074 983.352,833.813 996.058,843.481 1008.76,853.332 1021.47,863.173 1034.18,872.379 1046.88,881.484 1059.59,891.872 1072.29,900.56 1085,909.78 1097.7,918.383 1110.41,926.559 1123.12,935.02 1135.82,943.446 1148.53,951.639 1161.23,959.651 1173.94,967.145 1186.64,975.131 1199.35,982.921 1212.06,990.37 1224.76,997.495 1237.47,1004.45 1250.17,1010.87 1262.88,1018.47 1275.58,1025.06 1288.29,1031.52 1301,1037.55 1313.7,1044.45 1326.41,1050.65 1339.11,1056.59 1351.82,1063.08 1364.53,1069.15 1377.23,1075.03 1389.94,1079.92 1402.64,1084.41 1415.35,1089.29 1428.05,1094.28 1440.76,1099.26 1453.47,1104.05 1466.17,1108.4 1478.88,1112.94 1491.58,1117.65 1504.29,1122.26 1516.99,1126.4 1529.7,1130.93 1542.41,1135.35 1555.11,1139.52 1567.82,1143.27 1580.52,1147.25 1593.23,1151.5 1605.93,1155.52 1618.64,1159.3 1631.35,1163.07 1644.05,1166.41 1656.76,1169.91 1669.46,1173.02 1682.17,1176.35 1694.88,1179.37 1707.58,1182.22 1720.29,1184.9 1732.99,1187.99 1745.7,1190.76 1758.4,1193.69 1771.11,1196.46 1783.82,1198.86 1796.52,1201.9 1809.23,1204.81 1821.93,1206.99 1834.64,1209.46 1847.34,1212.17 1860.05,1213.98 1872.76,1216.3 1885.46,1218.05 1898.17,1219.78 1910.87,1221.52 1923.58,1223.28 1936.28,1225.07 1948.99,1226.94 1961.7,1228.54 1974.4,1230.04 1987.11,1231.64 1999.81,1232.88 2012.52,1234.1 2025.23,1235.37 2037.93,1236.59 2050.64,1237.72 2063.34,1238.78 2076.05,1239.77 2088.75,1240.7 2101.46,1241.62 2114.17,1242.57 2126.87,1243.5 2139.58,1244.32 2152.28,1244.99 2164.99,1245.77 2177.69,1246.47 2190.4,1247.11 2203.11,1247.69 2215.81,1248.23 2228.52,1248.7 2241.22,1249.17 2253.93,1249.6 2266.63,1249.95 2279.34,1250.32 2292.05,1250.68 2304.75,1251 2317.46,1251.39 2330.16,1251.65 2342.87,1251.92 2355.58,1252.16 2368.28,1252.36 2380.99,1252.54 2393.69,1252.69 2406.4,1252.84 2419.1,1252.98 2431.81,1253.12 2444.52,1253.25 2457.22,1253.35 2469.93,1253.47 2482.63,1253.57 2495.34,1253.68 2508.04,1253.75 2520.75,1253.82 2533.46,1253.89 2546.16,1253.95 2558.87,1254.02 2571.57,1254.09 2584.28,1254.14 2596.98,1254.19 2609.69,1254.22 2622.4,1254.26 2635.1,1254.3 2647.81,1254.32 2660.51,1254.35 2673.22,1254.37 2685.92,1254.38 2698.63,1254.39 2711.34,1254.41 2724.04,1254.42 2736.75,1254.43 2749.45,1254.44 2762.16,1254.45 "/>
<polyline clip-path="url(#clip232)" style="stroke:#e26f46; stroke-linecap:round; stroke-linejoin:round; stroke-width:4; stroke-opacity:1; fill:none" points="221.006,47.2441 233.712,61.5407 246.418,75.5768 259.124,89.4277 271.829,103.392 284.535,118.53 297.241,135.618 309.947,153.879 322.652,170.948 335.358,170.948 348.064,170.948 360.77,170.948 373.475,187.678 386.181,205.661 398.887,222.269 411.593,239.491 424.299,239.491 437.004,255.844 449.71,272.005 462.416,272.005 475.122,290.173 487.827,309.249 500.533,326.874 513.239,343.79 525.945,361.658 538.65,361.658 551.356,361.658 564.062,361.658 576.768,377.827 589.473,393.243 602.179,409.424 614.885,409.424 627.591,409.424 640.297,425.519 653.002,441.251 665.708,458.68 678.414,477.959 691.12,502.151 703.825,502.151 716.531,502.151 729.237,502.151 741.943,502.151 754.648,502.151 767.354,522.862 780.06,543.775 792.766,543.775 805.472,568.325 818.177,591.232 830.883,615.835 843.589,637.789 856.295,662.039 869,686.723 881.706,686.723 894.412,710.415 907.118,730.202 919.823,730.202 932.529,730.202 945.235,730.202 957.941,730.202 970.646,747.801 983.352,747.801 996.058,747.801 1008.76,747.801 1021.47,763.896 1034.18,779.327 1046.88,795.408 1059.59,795.408 1072.29,812.12 1085,812.12 1097.7,828.508 1110.41,828.508 1123.12,845.039 1135.82,845.039 1148.53,862.687 1161.23,862.687 1173.94,879.715 1186.64,879.715 1199.35,879.715 1212.06,898.163 1224.76,919.128 1237.47,919.128 1250.17,919.128 1262.88,938.601 1275.58,956.265 1288.29,972.914 1301,989.143 1313.7,1003.58 1326.41,1003.58 1339.11,1016.89 1351.82,1016.89 1364.53,1016.89 1377.23,1016.89 1389.94,1029.75 1402.64,1029.75 1415.35,1029.75 1428.05,1042.7 1440.76,1042.7 1453.47,1056.66 1466.17,1056.66 1478.88,1056.66 1491.58,1056.66 1504.29,1056.66 1516.99,1056.66 1529.7,1056.66 1542.41,1056.66 1555.11,1070.86 1567.82,1070.86 1580.52,1070.86 1593.23,1070.86 1605.93,1070.86 1618.64,1070.86 1631.35,1070.86 1644.05,1085.29 1656.76,1085.29 1669.46,1085.29 1682.17,1100.66 1694.88,1114.92 1707.58,1114.92 1720.29,1114.92 1732.99,1128.31 1745.7,1128.31 1758.4,1141.11 1771.11,1141.11 1783.82,1153.27 1796.52,1153.27 1809.23,1165.51 1821.93,1165.51 1834.64,1177.67 1847.34,1189.26 1860.05,1189.26 1872.76,1189.26 1885.46,1189.26 1898.17,1189.26 1910.87,1189.26 1923.58,1189.26 1936.28,1189.26 1948.99,1189.26 1961.7,1189.26 1974.4,1189.26 1987.11,1200.66 1999.81,1211.51 2012.52,1211.51 2025.23,1221.18 2037.93,1221.18 2050.64,1229.73 2063.34,1229.73 2076.05,1229.73 2088.75,1229.73 2101.46,1229.73 2114.17,1229.73 2126.87,1229.73 2139.58,1229.73 2152.28,1229.73 2164.99,1229.73 2177.69,1229.73 2190.4,1229.73 2203.11,1229.73 2215.81,1235.69 2228.52,1235.69 2241.22,1235.69 2253.93,1235.69 2266.63,1235.69 2279.34,1235.69 2292.05,1235.69 2304.75,1235.69 2317.46,1235.69 2330.16,1235.69 2342.87,1235.69 2355.58,1235.69 2368.28,1235.69 2380.99,1235.69 2393.69,1235.69 2406.4,1235.69 2419.1,1235.69 2431.81,1235.69 2444.52,1235.69 2457.22,1235.69 2469.93,1235.69 2482.63,1235.69 2495.34,1235.69 2508.04,1235.69 2520.75,1235.69 2533.46,1235.69 2546.16,1235.69 2558.87,1235.69 2571.57,1235.69 2584.28,1239.97 2596.98,1239.97 2609.69,1239.97 2622.4,1239.97 2635.1,1239.97 2647.81,1239.97 2660.51,1239.97 2673.22,1239.97 2685.92,1239.97 2698.63,1239.97 2711.34,1239.97 2724.04,1239.97 2736.75,1239.97 2749.45,1239.97 2762.16,1239.97 "/>
<path clip-path="url(#clip232)" d="M221.006 47.2441 L233.712 84.0882 L246.418 111.595 L259.124 135.125 L271.829 155.372 L284.535 174.236 L297.241 197.507 L309.947 228.176 L322.652 247.579 L335.358 247.579 L348.064 247.579 L360.77 247.579 L373.475 267.868 L386.181 290.704 L398.887 316.892 L411.593 333.147 L424.299 333.147 L437.004 350.247 L449.71 369.783 L462.416 369.783 L475.122 393.249 L487.827 411.197 L500.533 433.165 L513.239 451.534 L525.945 476.348 L538.65 476.348 L551.356 476.348 L564.062 476.348 L576.768 491.94 L589.473 506.547 L602.179 524.651 L614.885 524.651 L627.591 524.651 L640.297 543.174 L653.002 558.819 L665.708 572.818 L678.414 591.265 L691.12 618.793 L703.825 618.793 L716.531 618.793 L729.237 618.793 L741.943 618.793 L754.648 618.793 L767.354 636.113 L780.06 655.656 L792.766 655.656 L805.472 679.458 L818.177 704.861 L830.883 728.837 L843.589 752.131 L856.295 777.224 L869 802.807 L881.706 802.807 L894.412 825.284 L907.118 844.862 L919.823 844.862 L932.529 844.862 L945.235 844.862 L957.941 844.862 L970.646 861.022 L983.352 861.022 L996.058 861.022 L1008.76 861.022 L1021.47 877.608 L1034.18 893.694 L1046.88 909.177 L1059.59 909.177 L1072.29 926.212 L1085 926.212 L1097.7 941.043 L1110.41 941.043 L1123.12 955.772 L1135.82 955.772 L1148.53 968.289 L1161.23 968.289 L1173.94 984.006 L1186.64 984.006 L1199.35 984.006 L1212.06 997.4 L1224.76 1012.08 L1237.47 1012.08 L1250.17 1012.08 L1262.88 1029.98 L1275.58 1048.86 L1288.29 1065.25 L1301 1080.44 L1313.7 1092.1 L1326.41 1092.1 L1339.11 1101.35 L1351.82 1101.35 L1364.53 1101.35 L1377.23 1101.35 L1389.94 1111.35 L1402.64 1111.35 L1415.35 1111.35 L1428.05 1120.05 L1440.76 1120.05 L1453.47 1133.42 L1466.17 1133.42 L1478.88 1133.42 L1491.58 1133.42 L1504.29 1133.42 L1516.99 1133.42 L1529.7 1133.42 L1542.41 1133.42 L1555.11 1144.62 L1567.82 1144.62 L1580.52 1144.62 L1593.23 1144.62 L1605.93 1144.62 L1618.64 1144.62 L1631.35 1144.62 L1644.05 1155.18 L1656.76 1155.18 L1669.46 1155.18 L1682.17 1167.37 L1694.88 1176.72 L1707.58 1176.72 L1720.29 1176.72 L1732.99 1187.44 L1745.7 1187.44 L1758.4 1194.28 L1771.11 1194.28 L1783.82 1202.9 L1796.52 1202.9 L1809.23 1210.18 L1821.93 1210.18 L1834.64 1217.84 L1847.34 1226.11 L1860.05 1226.11 L1872.76 1226.11 L1885.46 1226.11 L1898.17 1226.11 L1910.87 1226.11 L1923.58 1226.11 L1936.28 1226.11 L1948.99 1226.11 L1961.7 1226.11 L1974.4 1226.11 L1987.11 1232.77 L1999.81 1239.87 L2012.52 1239.87 L2025.23 1245.24 L2037.93 1245.24 L2050.64 1249.16 L2063.34 1249.16 L2076.05 1249.16 L2088.75 1249.16 L2101.46 1249.16 L2114.17 1249.16 L2126.87 1249.16 L2139.58 1249.16 L2152.28 1249.16 L2164.99 1249.16 L2177.69 1249.16 L2190.4 1249.16 L2203.11 1249.16 L2215.81 1251.46 L2228.52 1251.46 L2241.22 1251.46 L2253.93 1251.46 L2266.63 1251.46 L2279.34 1251.46 L2292.05 1251.46 L2304.75 1251.46 L2317.46 1251.46 L2330.16 1251.46 L2342.87 1251.46 L2355.58 1251.46 L2368.28 1251.46 L2380.99 1251.46 L2393.69 1251.46 L2406.4 1251.46 L2419.1 1251.46 L2431.81 1251.46 L2444.52 1251.46 L2457.22 1251.46 L2469.93 1251.46 L2482.63 1251.46 L2495.34 1251.46 L2508.04 1251.46 L2520.75 1251.46 L2533.46 1251.46 L2546.16 1251.46 L2558.87 1251.46 L2571.57 1251.46 L2584.28 1253.13 L2596.98 1253.13 L2609.69 1253.13 L2622.4 1253.13 L2635.1 1253.13 L2647.81 1253.13 L2660.51 1253.13 L2673.22 1253.13 L2685.92 1253.13 L2698.63 1253.13 L2711.34 1253.13 L2724.04 1253.13 L2736.75 1253.13 L2749.45 1253.13 L2762.16 1253.13 L2762.16 1210.01 L2749.45 1210.01 L2736.75 1210.01 L2724.04 1210.01 L2711.34 1210.01 L2698.63 1210.01 L2685.92 1210.01 L2673.22 1210.01 L2660.51 1210.01 L2647.81 1210.01 L2635.1 1210.01 L2622.4 1210.01 L2609.69 1210.01 L2596.98 1210.01 L2584.28 1210.01 L2571.57 1203.07 L2558.87 1203.07 L2546.16 1203.07 L2533.46 1203.07 L2520.75 1203.07 L2508.04 1203.07 L2495.34 1203.07 L2482.63 1203.07 L2469.93 1203.07 L2457.22 1203.07 L2444.52 1203.07 L2431.81 1203.07 L2419.1 1203.07 L2406.4 1203.07 L2393.69 1203.07 L2380.99 1203.07 L2368.28 1203.07 L2355.58 1203.07 L2342.87 1203.07 L2330.16 1203.07 L2317.46 1203.07 L2304.75 1203.07 L2292.05 1203.07 L2279.34 1203.07 L2266.63 1203.07 L2253.93 1203.07 L2241.22 1203.07 L2228.52 1203.07 L2215.81 1203.07 L2203.11 1194.63 L2190.4 1194.63 L2177.69 1194.63 L2164.99 1194.63 L2152.28 1194.63 L2139.58 1194.63 L2126.87 1194.63 L2114.17 1194.63 L2101.46 1194.63 L2088.75 1194.63 L2076.05 1194.63 L2063.34 1194.63 L2050.64 1194.63 L2037.93 1180.6 L2025.23 1180.6 L2012.52 1167.01 L1999.81 1167.01 L1987.11 1152.68 L1974.4 1134.22 L1961.7 1134.22 L1948.99 1134.22 L1936.28 1134.22 L1923.58 1134.22 L1910.87 1134.22 L1898.17 1134.22 L1885.46 1134.22 L1872.76 1134.22 L1860.05 1134.22 L1847.34 1134.22 L1834.64 1118.78 L1821.93 1101.32 L1809.23 1101.32 L1796.52 1082.65 L1783.82 1082.65 L1771.11 1065.26 L1758.4 1065.26 L1745.7 1047.72 L1732.99 1047.72 L1720.29 1035 L1707.58 1035 L1694.88 1035 L1682.17 1022.68 L1669.46 1006.51 L1656.76 1006.51 L1644.05 1006.51 L1631.35 987.432 L1618.64 987.432 L1605.93 987.432 L1593.23 987.432 L1580.52 987.432 L1567.82 987.432 L1555.11 987.432 L1542.41 969.925 L1529.7 969.925 L1516.99 969.925 L1504.29 969.925 L1491.58 969.925 L1478.88 969.925 L1466.17 969.925 L1453.47 969.925 L1440.76 953.969 L1428.05 953.969 L1415.35 938.243 L1402.64 938.243 L1389.94 938.243 L1377.23 926.149 L1364.53 926.149 L1351.82 926.149 L1339.11 926.149 L1326.41 913.142 L1313.7 913.142 L1301 893.921 L1288.29 878.16 L1275.58 862.085 L1262.88 845.047 L1250.17 825.08 L1237.47 825.08 L1224.76 825.08 L1212.06 799.101 L1199.35 781.613 L1186.64 781.613 L1173.94 781.613 L1161.23 758.341 L1148.53 758.341 L1135.82 742.192 L1123.12 742.192 L1110.41 724.348 L1097.7 724.348 L1085 709.872 L1072.29 709.872 L1059.59 688.006 L1046.88 688.006 L1034.18 671.627 L1021.47 651.723 L1008.76 633.642 L996.058 633.642 L983.352 633.642 L970.646 633.642 L957.941 614.47 L945.235 614.47 L932.529 614.47 L919.823 614.47 L907.118 614.47 L894.412 597.922 L881.706 573.778 L869 573.778 L856.295 547.923 L843.589 523.839 L830.883 502.701 L818.177 480.512 L805.472 458.601 L792.766 436.884 L780.06 436.884 L767.354 414.088 L754.648 392.213 L741.943 392.213 L729.237 392.213 L716.531 392.213 L703.825 392.213 L691.12 392.213 L678.414 370.035 L665.708 354.055 L653.002 335.489 L640.297 325.018 L627.591 308.113 L614.885 308.113 L602.179 308.113 L589.473 296.367 L576.768 282.188 L564.062 266.559 L551.356 266.559 L538.65 266.559 L525.945 266.559 L513.239 251.309 L500.533 237.685 L487.827 222.695 L475.122 206.06 L462.416 191.889 L449.71 191.889 L437.004 176.889 L424.299 164.406 L411.593 164.406 L398.887 153.015 L386.181 140.082 L373.475 126.829 L360.77 113.225 L348.064 113.225 L335.358 113.225 L322.652 113.225 L309.947 100.571 L297.241 89.475 L284.535 78.4822 L271.829 68.9092 L259.124 61.4514 L246.418 55.1099 L233.712 49.7317 L221.006 47.2441  Z" fill="#e26f46" fill-rule="evenodd" fill-opacity="0.2"/>
<polyline clip-path="url(#clip232)" style="stroke:#e26f46; stroke-linecap:round; stroke-linejoin:round; stroke-width:4; stroke-opacity:0; fill:none" points="221.006,47.2441 233.712,84.0882 246.418,111.595 259.124,135.125 271.829,155.372 284.535,174.236 297.241,197.507 309.947,228.176 322.652,247.579 335.358,247.579 348.064,247.579 360.77,247.579 373.475,267.868 386.181,290.704 398.887,316.892 411.593,333.147 424.299,333.147 437.004,350.247 449.71,369.783 462.416,369.783 475.122,393.249 487.827,411.197 500.533,433.165 513.239,451.534 525.945,476.348 538.65,476.348 551.356,476.348 564.062,476.348 576.768,491.94 589.473,506.547 602.179,524.651 614.885,524.651 627.591,524.651 640.297,543.174 653.002,558.819 665.708,572.818 678.414,591.265 691.12,618.793 703.825,618.793 716.531,618.793 729.237,618.793 741.943,618.793 754.648,618.793 767.354,636.113 780.06,655.656 792.766,655.656 805.472,679.458 818.177,704.861 830.883,728.837 843.589,752.131 856.295,777.224 869,802.807 881.706,802.807 894.412,825.284 907.118,844.862 919.823,844.862 932.529,844.862 945.235,844.862 957.941,844.862 970.646,861.022 983.352,861.022 996.058,861.022 1008.76,861.022 1021.47,877.608 1034.18,893.694 1046.88,909.177 1059.59,909.177 1072.29,926.212 1085,926.212 1097.7,941.043 1110.41,941.043 1123.12,955.772 1135.82,955.772 1148.53,968.289 1161.23,968.289 1173.94,984.006 1186.64,984.006 1199.35,984.006 1212.06,997.4 1224.76,1012.08 1237.47,1012.08 1250.17,1012.08 1262.88,1029.98 1275.58,1048.86 1288.29,1065.25 1301,1080.44 1313.7,1092.1 1326.41,1092.1 1339.11,1101.35 1351.82,1101.35 1364.53,1101.35 1377.23,1101.35 1389.94,1111.35 1402.64,1111.35 1415.35,1111.35 1428.05,1120.05 1440.76,1120.05 1453.47,1133.42 1466.17,1133.42 1478.88,1133.42 1491.58,1133.42 1504.29,1133.42 1516.99,1133.42 1529.7,1133.42 1542.41,1133.42 1555.11,1144.62 1567.82,1144.62 1580.52,1144.62 1593.23,1144.62 1605.93,1144.62 1618.64,1144.62 1631.35,1144.62 1644.05,1155.18 1656.76,1155.18 1669.46,1155.18 1682.17,1167.37 1694.88,1176.72 1707.58,1176.72 1720.29,1176.72 1732.99,1187.44 1745.7,1187.44 1758.4,1194.28 1771.11,1194.28 1783.82,1202.9 1796.52,1202.9 1809.23,1210.18 1821.93,1210.18 1834.64,1217.84 1847.34,1226.11 1860.05,1226.11 1872.76,1226.11 1885.46,1226.11 1898.17,1226.11 1910.87,1226.11 1923.58,1226.11 1936.28,1226.11 1948.99,1226.11 1961.7,1226.11 1974.4,1226.11 1987.11,1232.77 1999.81,1239.87 2012.52,1239.87 2025.23,1245.24 2037.93,1245.24 2050.64,1249.16 2063.34,1249.16 2076.05,1249.16 2088.75,1249.16 2101.46,1249.16 2114.17,1249.16 2126.87,1249.16 2139.58,1249.16 2152.28,1249.16 2164.99,1249.16 2177.69,1249.16 2190.4,1249.16 2203.11,1249.16 2215.81,1251.46 2228.52,1251.46 2241.22,1251.46 2253.93,1251.46 2266.63,1251.46 2279.34,1251.46 2292.05,1251.46 2304.75,1251.46 2317.46,1251.46 2330.16,1251.46 2342.87,1251.46 2355.58,1251.46 2368.28,1251.46 2380.99,1251.46 2393.69,1251.46 2406.4,1251.46 2419.1,1251.46 2431.81,1251.46 2444.52,1251.46 2457.22,1251.46 2469.93,1251.46 2482.63,1251.46 2495.34,1251.46 2508.04,1251.46 2520.75,1251.46 2533.46,1251.46 2546.16,1251.46 2558.87,1251.46 2571.57,1251.46 2584.28,1253.13 2596.98,1253.13 2609.69,1253.13 2622.4,1253.13 2635.1,1253.13 2647.81,1253.13 2660.51,1253.13 2673.22,1253.13 2685.92,1253.13 2698.63,1253.13 2711.34,1253.13 2724.04,1253.13 2736.75,1253.13 2749.45,1253.13 2762.16,1253.13 "/>
<path clip-path="url(#clip230)" d="M1524.47 346.687 L1817.7 346.687 L1817.7 87.4866 L1524.47 87.4866  Z" fill="#ffffff" fill-rule="evenodd" fill-opacity="1"/>
<polyline clip-path="url(#clip230)" style="stroke:#000000; stroke-linecap:round; stroke-linejoin:round; stroke-width:4; stroke-opacity:1; fill:none" points="1524.47,346.687 1817.7,346.687 1817.7,87.4866 1524.47,87.4866 1524.47,346.687 "/>
<polyline clip-path="url(#clip230)" style="stroke:#3da44d; stroke-linecap:round; stroke-linejoin:round; stroke-width:4; stroke-opacity:1; fill:none" points="1542.82,139.327 1652.94,139.327 "/>
<path clip-path="url(#clip230)" d="M1678.7 123.32 L1678.7 130.681 L1687.47 130.681 L1687.47 133.991 L1678.7 133.991 L1678.7 148.065 Q1678.7 151.236 1679.55 152.139 Q1680.43 153.042 1683.1 153.042 L1687.47 153.042 L1687.47 156.607 L1683.1 156.607 Q1678.16 156.607 1676.29 154.778 Q1674.41 152.926 1674.41 148.065 L1674.41 133.991 L1671.29 133.991 L1671.29 130.681 L1674.41 130.681 L1674.41 123.32 L1678.7 123.32 Z" fill="#000000" fill-rule="nonzero" fill-opacity="1" /><path clip-path="url(#clip230)" d="M1708.1 134.662 Q1707.38 134.246 1706.52 134.06 Q1705.69 133.852 1704.67 133.852 Q1701.06 133.852 1699.11 136.213 Q1697.19 138.551 1697.19 142.949 L1697.19 156.607 L1692.91 156.607 L1692.91 130.681 L1697.19 130.681 L1697.19 134.709 Q1698.54 132.347 1700.69 131.213 Q1702.84 130.056 1705.92 130.056 Q1706.36 130.056 1706.89 130.125 Q1707.42 130.172 1708.07 130.287 L1708.1 134.662 Z" fill="#000000" fill-rule="nonzero" fill-opacity="1" /><path clip-path="url(#clip230)" d="M1712.12 146.375 L1712.12 130.681 L1716.38 130.681 L1716.38 146.213 Q1716.38 149.894 1717.82 151.746 Q1719.25 153.574 1722.12 153.574 Q1725.57 153.574 1727.56 151.375 Q1729.58 149.176 1729.58 145.38 L1729.58 130.681 L1733.84 130.681 L1733.84 156.607 L1729.58 156.607 L1729.58 152.625 Q1728.03 154.986 1725.97 156.144 Q1723.93 157.278 1721.22 157.278 Q1716.75 157.278 1714.44 154.5 Q1712.12 151.722 1712.12 146.375 M1722.84 130.056 L1722.84 130.056 Z" fill="#000000" fill-rule="nonzero" fill-opacity="1" /><path clip-path="url(#clip230)" d="M1764.78 142.579 L1764.78 144.662 L1745.2 144.662 Q1745.48 149.06 1747.84 151.375 Q1750.22 153.667 1754.46 153.667 Q1756.91 153.667 1759.21 153.065 Q1761.52 152.463 1763.79 151.259 L1763.79 155.287 Q1761.5 156.259 1759.09 156.769 Q1756.68 157.278 1754.21 157.278 Q1748 157.278 1744.37 153.667 Q1740.76 150.056 1740.76 143.898 Q1740.76 137.533 1744.18 133.806 Q1747.63 130.056 1753.47 130.056 Q1758.7 130.056 1761.73 133.435 Q1764.78 136.792 1764.78 142.579 M1760.53 141.329 Q1760.48 137.834 1758.56 135.75 Q1756.66 133.667 1753.51 133.667 Q1749.95 133.667 1747.79 135.681 Q1745.66 137.695 1745.34 141.352 L1760.53 141.329 Z" fill="#000000" fill-rule="nonzero" fill-opacity="1" /><polyline clip-path="url(#clip230)" style="stroke:#000000; stroke-linecap:round; stroke-linejoin:round; stroke-width:4; stroke-opacity:1; fill:none" points="1542.82,191.167 1652.94,191.167 "/>
<path clip-path="url(#clip230)" d="M1687.79 172.428 L1687.79 175.97 L1683.72 175.97 Q1681.43 175.97 1680.53 176.896 Q1679.65 177.822 1679.65 180.229 L1679.65 182.521 L1686.66 182.521 L1686.66 185.831 L1679.65 185.831 L1679.65 208.447 L1675.36 208.447 L1675.36 185.831 L1671.29 185.831 L1671.29 182.521 L1675.36 182.521 L1675.36 180.715 Q1675.36 176.387 1677.38 174.419 Q1679.39 172.428 1683.77 172.428 L1687.79 172.428 Z" fill="#000000" fill-rule="nonzero" fill-opacity="1" /><path clip-path="url(#clip230)" d="M1706.38 186.502 Q1705.66 186.086 1704.81 185.9 Q1703.97 185.692 1702.96 185.692 Q1699.35 185.692 1697.4 188.053 Q1695.48 190.391 1695.48 194.789 L1695.48 208.447 L1691.2 208.447 L1691.2 182.521 L1695.48 182.521 L1695.48 186.549 Q1696.82 184.187 1698.97 183.053 Q1701.13 181.896 1704.21 181.896 Q1704.65 181.896 1705.18 181.965 Q1705.71 182.012 1706.36 182.127 L1706.38 186.502 Z" fill="#000000" fill-rule="nonzero" fill-opacity="1" /><path clip-path="url(#clip230)" d="M1731.98 194.419 L1731.98 196.502 L1712.4 196.502 Q1712.68 200.9 1715.04 203.215 Q1717.42 205.507 1721.66 205.507 Q1724.11 205.507 1726.41 204.905 Q1728.72 204.303 1730.99 203.099 L1730.99 207.127 Q1728.7 208.099 1726.29 208.609 Q1723.88 209.118 1721.41 209.118 Q1715.2 209.118 1711.57 205.507 Q1707.96 201.896 1707.96 195.738 Q1707.96 189.373 1711.38 185.646 Q1714.83 181.896 1720.66 181.896 Q1725.9 181.896 1728.93 185.275 Q1731.98 188.632 1731.98 194.419 M1727.72 193.169 Q1727.68 189.674 1725.76 187.59 Q1723.86 185.507 1720.71 185.507 Q1717.15 185.507 1714.99 187.521 Q1712.86 189.535 1712.54 193.192 L1727.72 193.169 Z" fill="#000000" fill-rule="nonzero" fill-opacity="1" /><path clip-path="url(#clip230)" d="M1741.52 195.507 Q1741.52 200.206 1743.44 202.891 Q1745.39 205.553 1748.77 205.553 Q1752.15 205.553 1754.09 202.891 Q1756.03 200.206 1756.03 195.507 Q1756.03 190.808 1754.09 188.146 Q1752.15 185.461 1748.77 185.461 Q1745.39 185.461 1743.44 188.146 Q1741.52 190.808 1741.52 195.507 M1756.03 204.558 Q1754.69 206.873 1752.63 208.007 Q1750.6 209.118 1747.72 209.118 Q1743.03 209.118 1740.06 205.368 Q1737.12 201.618 1737.12 195.507 Q1737.12 189.396 1740.06 185.646 Q1743.03 181.896 1747.72 181.896 Q1750.6 181.896 1752.63 183.03 Q1754.69 184.141 1756.03 186.456 L1756.03 182.521 L1760.29 182.521 L1760.29 218.308 L1756.03 218.308 L1756.03 204.558 Z" fill="#000000" fill-rule="nonzero" fill-opacity="1" /><polyline clip-path="url(#clip230)" style="stroke:#009af9; stroke-linecap:round; stroke-linejoin:round; stroke-width:4; stroke-opacity:1; fill:none" points="1542.82,243.007 1652.94,243.007 "/>
<path clip-path="url(#clip230)" d="M1693 244.639 L1693 260.287 L1688.74 260.287 L1688.74 244.777 Q1688.74 241.097 1687.31 239.268 Q1685.87 237.44 1683 237.44 Q1679.55 237.44 1677.56 239.639 Q1675.57 241.838 1675.57 245.634 L1675.57 260.287 L1671.29 260.287 L1671.29 224.268 L1675.57 224.268 L1675.57 238.389 Q1677.1 236.051 1679.16 234.893 Q1681.24 233.736 1683.95 233.736 Q1688.42 233.736 1690.71 236.514 Q1693 239.268 1693 244.639 Z" fill="#000000" fill-rule="nonzero" fill-opacity="1" /><path clip-path="url(#clip230)" d="M1727.56 228.389 L1727.56 233.319 Q1725.2 231.12 1722.52 230.032 Q1719.85 228.944 1716.85 228.944 Q1710.92 228.944 1707.77 232.578 Q1704.62 236.19 1704.62 243.041 Q1704.62 249.87 1707.77 253.504 Q1710.92 257.115 1716.85 257.115 Q1719.85 257.115 1722.52 256.027 Q1725.2 254.939 1727.56 252.74 L1727.56 257.625 Q1725.11 259.291 1722.35 260.125 Q1719.62 260.958 1716.57 260.958 Q1708.72 260.958 1704.21 256.166 Q1699.69 251.351 1699.69 243.041 Q1699.69 234.708 1704.21 229.916 Q1708.72 225.102 1716.57 225.102 Q1719.67 225.102 1722.4 225.935 Q1725.16 226.745 1727.56 228.389 Z" fill="#000000" fill-rule="nonzero" fill-opacity="1" /><path clip-path="url(#clip230)" d="M1751.17 244.083 Q1752.68 244.592 1754.09 246.259 Q1755.53 247.926 1756.96 250.842 L1761.71 260.287 L1756.68 260.287 L1752.26 251.421 Q1750.55 247.949 1748.93 246.814 Q1747.33 245.68 1744.55 245.68 L1739.46 245.68 L1739.46 260.287 L1734.78 260.287 L1734.78 225.727 L1745.34 225.727 Q1751.27 225.727 1754.18 228.203 Q1757.1 230.68 1757.1 235.68 Q1757.1 238.944 1755.57 241.097 Q1754.07 243.25 1751.17 244.083 M1739.46 229.569 L1739.46 241.838 L1745.34 241.838 Q1748.72 241.838 1750.43 240.287 Q1752.17 238.713 1752.17 235.68 Q1752.17 232.648 1750.43 231.12 Q1748.72 229.569 1745.34 229.569 L1739.46 229.569 Z" fill="#000000" fill-rule="nonzero" fill-opacity="1" /><path clip-path="url(#clip230)" d="M1767.72 225.727 L1774.69 225.727 L1783.51 249.245 L1792.38 225.727 L1799.34 225.727 L1799.34 260.287 L1794.78 260.287 L1794.78 229.94 L1785.87 253.643 L1781.17 253.643 L1772.26 229.94 L1772.26 260.287 L1767.72 260.287 L1767.72 225.727 Z" fill="#000000" fill-rule="nonzero" fill-opacity="1" /><polyline clip-path="url(#clip230)" style="stroke:#e26f46; stroke-linecap:round; stroke-linejoin:round; stroke-width:4; stroke-opacity:1; fill:none" points="1542.82,294.847 1652.94,294.847 "/>
<path clip-path="url(#clip230)" d="M1675.97 295.622 L1675.97 308.284 L1683.47 308.284 Q1687.24 308.284 1689.04 306.733 Q1690.87 305.159 1690.87 301.941 Q1690.87 298.701 1689.04 297.173 Q1687.24 295.622 1683.47 295.622 L1675.97 295.622 M1675.97 281.409 L1675.97 291.826 L1682.89 291.826 Q1686.31 291.826 1687.98 290.553 Q1689.67 289.256 1689.67 286.617 Q1689.67 284.002 1687.98 282.705 Q1686.31 281.409 1682.89 281.409 L1675.97 281.409 M1671.29 277.567 L1683.23 277.567 Q1688.58 277.567 1691.48 279.789 Q1694.37 282.011 1694.37 286.108 Q1694.37 289.28 1692.89 291.155 Q1691.41 293.029 1688.54 293.492 Q1691.98 294.233 1693.88 296.594 Q1695.8 298.932 1695.8 302.451 Q1695.8 307.08 1692.66 309.603 Q1689.51 312.127 1683.7 312.127 L1671.29 312.127 L1671.29 277.567 Z" fill="#000000" fill-rule="nonzero" fill-opacity="1" /><path clip-path="url(#clip230)" d="M1715.36 282.173 L1709.02 299.372 L1721.73 299.372 L1715.36 282.173 M1712.72 277.567 L1718.03 277.567 L1731.2 312.127 L1726.34 312.127 L1723.19 303.261 L1707.61 303.261 L1704.46 312.127 L1699.53 312.127 L1712.72 277.567 Z" fill="#000000" fill-rule="nonzero" fill-opacity="1" /><path clip-path="url(#clip230)" d="M1752.63 295.923 Q1754.14 296.432 1755.55 298.099 Q1756.98 299.766 1758.42 302.682 L1763.16 312.127 L1758.14 312.127 L1753.72 303.261 Q1752.01 299.789 1750.39 298.654 Q1748.79 297.52 1746.01 297.52 L1740.92 297.52 L1740.92 312.127 L1736.24 312.127 L1736.24 277.567 L1746.8 277.567 Q1752.72 277.567 1755.64 280.043 Q1758.56 282.52 1758.56 287.52 Q1758.56 290.784 1757.03 292.937 Q1755.53 295.09 1752.63 295.923 M1740.92 281.409 L1740.92 293.678 L1746.8 293.678 Q1750.18 293.678 1751.89 292.127 Q1753.63 290.553 1753.63 287.52 Q1753.63 284.488 1751.89 282.96 Q1750.18 281.409 1746.8 281.409 L1740.92 281.409 Z" fill="#000000" fill-rule="nonzero" fill-opacity="1" /><path clip-path="url(#clip230)" d="M1760.94 277.567 L1790.18 277.567 L1790.18 281.502 L1777.91 281.502 L1777.91 312.127 L1773.21 312.127 L1773.21 281.502 L1760.94 281.502 L1760.94 277.567 Z" fill="#000000" fill-rule="nonzero" fill-opacity="1" /></svg>
