<?xml version="1.0" encoding="utf-8"?>
<svg xmlns="http://www.w3.org/2000/svg" xmlns:xlink="http://www.w3.org/1999/xlink" width="480" height="360" viewBox="0 0 1920 1440">
<defs>
  <clipPath id="clip690">
    <rect x="0" y="0" width="1920" height="1440"/>
  </clipPath>
</defs>
<path clip-path="url(#clip690)" d="M0 1440 L1920 1440 L1920 0 L0 0  Z" fill="#ffffff" fill-rule="evenodd" fill-opacity="1"/>
<defs>
  <clipPath id="clip691">
    <rect x="384" y="0" width="1345" height="1345"/>
  </clipPath>
</defs>
<path clip-path="url(#clip690)" d="M221.006 1254.52 L1872.76 1254.52 L1872.76 47.2441 L221.006 47.2441  Z" fill="#ffffff" fill-rule="evenodd" fill-opacity="1"/>
<defs>
  <clipPath id="clip692">
    <rect x="221" y="47" width="1653" height="1208"/>
  </clipPath>
</defs>
<polyline clip-path="url(#clip692)" style="stroke:#000000; stroke-linecap:round; stroke-linejoin:round; stroke-width:2; stroke-opacity:0.1; fill:none" points="221.006,1254.52 221.006,47.2441 "/>
<polyline clip-path="url(#clip692)" style="stroke:#000000; stroke-linecap:round; stroke-linejoin:round; stroke-width:2; stroke-opacity:0.1; fill:none" points="609.653,1254.52 609.653,47.2441 "/>
<polyline clip-path="url(#clip692)" style="stroke:#000000; stroke-linecap:round; stroke-linejoin:round; stroke-width:2; stroke-opacity:0.1; fill:none" points="998.3,1254.52 998.3,47.2441 "/>
<polyline clip-path="url(#clip692)" style="stroke:#000000; stroke-linecap:round; stroke-linejoin:round; stroke-width:2; stroke-opacity:0.1; fill:none" points="1386.95,1254.52 1386.95,47.2441 "/>
<polyline clip-path="url(#clip692)" style="stroke:#000000; stroke-linecap:round; stroke-linejoin:round; stroke-width:2; stroke-opacity:0.1; fill:none" points="1775.59,1254.52 1775.59,47.2441 "/>
<polyline clip-path="url(#clip692)" style="stroke:#000000; stroke-linecap:round; stroke-linejoin:round; stroke-width:2; stroke-opacity:0.1; fill:none" points="221.006,1254.52 1872.76,1254.52 "/>
<polyline clip-path="url(#clip692)" style="stroke:#000000; stroke-linecap:round; stroke-linejoin:round; stroke-width:2; stroke-opacity:0.1; fill:none" points="221.006,1013.06 1872.76,1013.06 "/>
<polyline clip-path="url(#clip692)" style="stroke:#000000; stroke-linecap:round; stroke-linejoin:round; stroke-width:2; stroke-opacity:0.1; fill:none" points="221.006,771.61 1872.76,771.61 "/>
<polyline clip-path="url(#clip692)" style="stroke:#000000; stroke-linecap:round; stroke-linejoin:round; stroke-width:2; stroke-opacity:0.1; fill:none" points="221.006,530.154 1872.76,530.154 "/>
<polyline clip-path="url(#clip692)" style="stroke:#000000; stroke-linecap:round; stroke-linejoin:round; stroke-width:2; stroke-opacity:0.1; fill:none" points="221.006,288.699 1872.76,288.699 "/>
<polyline clip-path="url(#clip692)" style="stroke:#000000; stroke-linecap:round; stroke-linejoin:round; stroke-width:2; stroke-opacity:0.1; fill:none" points="221.006,47.2441 1872.76,47.2441 "/>
<polyline clip-path="url(#clip690)" style="stroke:#000000; stroke-linecap:round; stroke-linejoin:round; stroke-width:4; stroke-opacity:1; fill:none" points="221.006,1254.52 1872.76,1254.52 "/>
<polyline clip-path="url(#clip690)" style="stroke:#000000; stroke-linecap:round; stroke-linejoin:round; stroke-width:4; stroke-opacity:1; fill:none" points="221.006,1254.52 221.006,1235.62 "/>
<polyline clip-path="url(#clip690)" style="stroke:#000000; stroke-linecap:round; stroke-linejoin:round; stroke-width:4; stroke-opacity:1; fill:none" points="609.653,1254.52 609.653,1235.62 "/>
<polyline clip-path="url(#clip690)" style="stroke:#000000; stroke-linecap:round; stroke-linejoin:round; stroke-width:4; stroke-opacity:1; fill:none" points="998.3,1254.52 998.3,1235.62 "/>
<polyline clip-path="url(#clip690)" style="stroke:#000000; stroke-linecap:round; stroke-linejoin:round; stroke-width:4; stroke-opacity:1; fill:none" points="1386.95,1254.52 1386.95,1235.62 "/>
<polyline clip-path="url(#clip690)" style="stroke:#000000; stroke-linecap:round; stroke-linejoin:round; stroke-width:4; stroke-opacity:1; fill:none" points="1775.59,1254.52 1775.59,1235.62 "/>
<path clip-path="url(#clip690)" d="M221.006 1281.6 Q217.395 1281.6 215.566 1285.16 Q213.761 1288.7 213.761 1295.83 Q213.761 1302.94 215.566 1306.51 Q217.395 1310.05 221.006 1310.05 Q224.641 1310.05 226.446 1306.51 Q228.275 1302.94 228.275 1295.83 Q228.275 1288.7 226.446 1285.16 Q224.641 1281.6 221.006 1281.6 M221.006 1277.89 Q226.816 1277.89 229.872 1282.5 Q232.951 1287.08 232.951 1295.83 Q232.951 1304.56 229.872 1309.17 Q226.816 1313.75 221.006 1313.75 Q215.196 1313.75 212.117 1309.17 Q209.062 1304.56 209.062 1295.83 Q209.062 1287.08 212.117 1282.5 Q215.196 1277.89 221.006 1277.89 Z" fill="#000000" fill-rule="nonzero" fill-opacity="1" /><path clip-path="url(#clip690)" d="M604.306 1309.14 L620.625 1309.14 L620.625 1313.08 L598.681 1313.08 L598.681 1309.14 Q601.343 1306.39 605.926 1301.76 Q610.533 1297.11 611.713 1295.77 Q613.959 1293.24 614.838 1291.51 Q615.741 1289.75 615.741 1288.06 Q615.741 1285.3 613.797 1283.57 Q611.875 1281.83 608.774 1281.83 Q606.575 1281.83 604.121 1282.59 Q601.69 1283.36 598.913 1284.91 L598.913 1280.19 Q601.737 1279.05 604.19 1278.47 Q606.644 1277.89 608.681 1277.89 Q614.051 1277.89 617.246 1280.58 Q620.44 1283.27 620.44 1287.76 Q620.44 1289.89 619.63 1291.81 Q618.843 1293.7 616.737 1296.3 Q616.158 1296.97 613.056 1300.19 Q609.954 1303.38 604.306 1309.14 Z" fill="#000000" fill-rule="nonzero" fill-opacity="1" /><path clip-path="url(#clip690)" d="M1001.31 1282.59 L989.504 1301.04 L1001.31 1301.04 L1001.31 1282.59 M1000.08 1278.52 L1005.96 1278.52 L1005.96 1301.04 L1010.89 1301.04 L1010.89 1304.93 L1005.96 1304.93 L1005.96 1313.08 L1001.31 1313.08 L1001.31 1304.93 L985.708 1304.93 L985.708 1300.42 L1000.08 1278.52 Z" fill="#000000" fill-rule="nonzero" fill-opacity="1" /><path clip-path="url(#clip690)" d="M1387.35 1293.94 Q1384.2 1293.94 1382.35 1296.09 Q1380.52 1298.24 1380.52 1301.99 Q1380.52 1305.72 1382.35 1307.89 Q1384.2 1310.05 1387.35 1310.05 Q1390.5 1310.05 1392.33 1307.89 Q1394.18 1305.72 1394.18 1301.99 Q1394.18 1298.24 1392.33 1296.09 Q1390.5 1293.94 1387.35 1293.94 M1396.63 1279.28 L1396.63 1283.54 Q1394.88 1282.71 1393.07 1282.27 Q1391.29 1281.83 1389.53 1281.83 Q1384.9 1281.83 1382.44 1284.95 Q1380.01 1288.08 1379.67 1294.4 Q1381.03 1292.39 1383.09 1291.32 Q1385.15 1290.23 1387.63 1290.23 Q1392.84 1290.23 1395.85 1293.4 Q1398.88 1296.55 1398.88 1301.99 Q1398.88 1307.32 1395.73 1310.53 Q1392.58 1313.75 1387.35 1313.75 Q1381.36 1313.75 1378.19 1309.17 Q1375.01 1304.56 1375.01 1295.83 Q1375.01 1287.64 1378.9 1282.78 Q1382.79 1277.89 1389.34 1277.89 Q1391.1 1277.89 1392.88 1278.24 Q1394.69 1278.59 1396.63 1279.28 Z" fill="#000000" fill-rule="nonzero" fill-opacity="1" /><path clip-path="url(#clip690)" d="M1775.59 1296.67 Q1772.26 1296.67 1770.34 1298.45 Q1768.44 1300.23 1768.44 1303.36 Q1768.44 1306.48 1770.34 1308.27 Q1772.26 1310.05 1775.59 1310.05 Q1778.93 1310.05 1780.85 1308.27 Q1782.77 1306.46 1782.77 1303.36 Q1782.77 1300.23 1780.85 1298.45 Q1778.95 1296.67 1775.59 1296.67 M1770.92 1294.68 Q1767.91 1293.94 1766.22 1291.88 Q1764.55 1289.82 1764.55 1286.85 Q1764.55 1282.71 1767.49 1280.3 Q1770.46 1277.89 1775.59 1277.89 Q1780.76 1277.89 1783.7 1280.3 Q1786.64 1282.71 1786.64 1286.85 Q1786.64 1289.82 1784.95 1291.88 Q1783.28 1293.94 1780.29 1294.68 Q1783.67 1295.46 1785.55 1297.76 Q1787.45 1300.05 1787.45 1303.36 Q1787.45 1308.38 1784.37 1311.07 Q1781.31 1313.75 1775.59 1313.75 Q1769.88 1313.75 1766.8 1311.07 Q1763.74 1308.38 1763.74 1303.36 Q1763.74 1300.05 1765.64 1297.76 Q1767.54 1295.46 1770.92 1294.68 M1769.21 1287.29 Q1769.21 1289.98 1770.87 1291.48 Q1772.56 1292.99 1775.59 1292.99 Q1778.6 1292.99 1780.29 1291.48 Q1782.01 1289.98 1782.01 1287.29 Q1782.01 1284.61 1780.29 1283.1 Q1778.6 1281.6 1775.59 1281.6 Q1772.56 1281.6 1770.87 1283.1 Q1769.21 1284.61 1769.21 1287.29 Z" fill="#000000" fill-rule="nonzero" fill-opacity="1" /><path clip-path="url(#clip690)" d="M932.67 1356.05 Q932.67 1356.95 932.251 1357.18 Q931.832 1357.37 930.673 1357.37 L924.489 1357.37 L919.594 1376.82 Q919.208 1378.53 919.208 1379.98 Q919.208 1381.59 919.691 1382.3 Q920.206 1383.01 921.269 1383.01 Q923.362 1383.01 925.616 1381.11 Q927.903 1379.21 929.835 1374.57 Q930.093 1373.96 930.222 1373.83 Q930.383 1373.67 930.802 1373.67 Q931.607 1373.67 931.607 1374.31 Q931.607 1374.54 931.156 1375.57 Q930.737 1376.6 929.803 1378.11 Q928.901 1379.62 927.71 1381.04 Q926.55 1382.46 924.779 1383.49 Q923.008 1384.49 921.108 1384.49 Q918.435 1384.49 916.728 1382.78 Q915.053 1381.07 915.053 1378.4 Q915.053 1377.53 915.729 1374.76 Q916.406 1371.96 920.077 1357.37 L914.248 1357.37 Q913.443 1357.37 913.121 1357.34 Q912.831 1357.31 912.605 1357.14 Q912.412 1356.95 912.412 1356.57 Q912.412 1355.95 912.67 1355.7 Q912.927 1355.41 913.249 1355.37 Q913.604 1355.31 914.409 1355.31 L920.592 1355.31 L923.169 1344.84 Q923.426 1343.81 924.071 1343.23 Q924.747 1342.62 925.133 1342.56 Q925.52 1342.46 925.81 1342.46 Q926.679 1342.46 927.195 1342.94 Q927.71 1343.39 927.71 1344.23 Q927.71 1344.68 925.005 1355.31 L930.802 1355.31 Q931.542 1355.31 931.832 1355.34 Q932.154 1355.37 932.412 1355.53 Q932.67 1355.7 932.67 1356.05 Z" fill="#000000" fill-rule="nonzero" fill-opacity="1" /><path clip-path="url(#clip690)" d="M976.915 1334.29 Q972.65 1341.61 970.582 1348.77 Q968.513 1355.93 968.513 1363.28 Q968.513 1370.63 970.582 1377.86 Q972.682 1385.05 976.915 1392.34 L971.823 1392.34 Q967.049 1384.86 964.661 1377.64 Q962.306 1370.41 962.306 1363.28 Q962.306 1356.18 964.661 1348.99 Q967.017 1341.8 971.823 1334.29 L976.915 1334.29 Z" fill="#000000" fill-rule="nonzero" fill-opacity="1" /><path clip-path="url(#clip690)" d="M1003.11 1387.06 Q1000.63 1393.42 998.272 1395.36 Q995.917 1397.31 991.97 1397.31 L987.292 1397.31 L987.292 1392.4 L990.729 1392.4 Q993.148 1392.4 994.485 1391.26 Q995.822 1390.11 997.445 1385.85 L998.495 1383.17 L984.077 1348.1 L990.283 1348.1 L1001.42 1375.98 L1012.56 1348.1 L1018.77 1348.1 L1003.11 1387.06 Z" fill="#000000" fill-rule="nonzero" fill-opacity="1" /><path clip-path="url(#clip690)" d="M1057.35 1364.46 L1057.35 1367.32 L1030.42 1367.32 Q1030.8 1373.37 1034.05 1376.55 Q1037.33 1379.7 1043.15 1379.7 Q1046.52 1379.7 1049.68 1378.88 Q1052.86 1378.05 1055.98 1376.39 L1055.98 1381.93 Q1052.83 1383.27 1049.52 1383.97 Q1046.21 1384.67 1042.8 1384.67 Q1034.27 1384.67 1029.27 1379.7 Q1024.31 1374.74 1024.31 1366.27 Q1024.31 1357.52 1029.02 1352.4 Q1033.76 1347.24 1041.78 1347.24 Q1048.98 1347.24 1053.14 1351.89 Q1057.35 1356.5 1057.35 1364.46 M1051.49 1362.74 Q1051.43 1357.93 1048.78 1355.07 Q1046.17 1352.2 1041.85 1352.2 Q1036.94 1352.2 1033.98 1354.97 Q1031.06 1357.74 1030.61 1362.77 L1051.49 1362.74 Z" fill="#000000" fill-rule="nonzero" fill-opacity="1" /><path clip-path="url(#clip690)" d="M1083.16 1365.83 Q1076.06 1365.83 1073.32 1367.45 Q1070.59 1369.07 1070.59 1372.99 Q1070.59 1376.11 1072.62 1377.95 Q1074.69 1379.77 1078.23 1379.77 Q1083.1 1379.77 1086.02 1376.33 Q1088.98 1372.86 1088.98 1367.13 L1088.98 1365.83 L1083.16 1365.83 M1094.84 1363.41 L1094.84 1383.75 L1088.98 1383.75 L1088.98 1378.34 Q1086.98 1381.58 1083.99 1383.14 Q1080.99 1384.67 1076.67 1384.67 Q1071.19 1384.67 1067.95 1381.61 Q1064.73 1378.53 1064.73 1373.37 Q1064.73 1367.36 1068.74 1364.3 Q1072.78 1361.24 1080.77 1361.24 L1088.98 1361.24 L1088.98 1360.67 Q1088.98 1356.63 1086.31 1354.43 Q1083.67 1352.2 1078.86 1352.2 Q1075.81 1352.2 1072.91 1352.94 Q1070.01 1353.67 1067.34 1355.13 L1067.34 1349.72 Q1070.55 1348.48 1073.58 1347.88 Q1076.6 1347.24 1079.47 1347.24 Q1087.2 1347.24 1091.02 1351.25 Q1094.84 1355.26 1094.84 1363.41 Z" fill="#000000" fill-rule="nonzero" fill-opacity="1" /><path clip-path="url(#clip690)" d="M1127.56 1353.57 Q1126.57 1353 1125.4 1352.75 Q1124.25 1352.46 1122.85 1352.46 Q1117.88 1352.46 1115.21 1355.71 Q1112.57 1358.92 1112.57 1364.97 L1112.57 1383.75 L1106.68 1383.75 L1106.68 1348.1 L1112.57 1348.1 L1112.57 1353.64 Q1114.41 1350.39 1117.37 1348.83 Q1120.33 1347.24 1124.57 1347.24 Q1125.17 1347.24 1125.9 1347.34 Q1126.64 1347.4 1127.53 1347.56 L1127.56 1353.57 Z" fill="#000000" fill-rule="nonzero" fill-opacity="1" /><path clip-path="url(#clip690)" d="M1156.43 1349.15 L1156.43 1354.69 Q1153.95 1353.41 1151.27 1352.78 Q1148.6 1352.14 1145.73 1352.14 Q1141.37 1352.14 1139.18 1353.48 Q1137.01 1354.81 1137.01 1357.49 Q1137.01 1359.53 1138.57 1360.7 Q1140.13 1361.85 1144.84 1362.9 L1146.85 1363.34 Q1153.09 1364.68 1155.7 1367.13 Q1158.34 1369.55 1158.34 1373.91 Q1158.34 1378.88 1154.39 1381.77 Q1150.48 1384.67 1143.6 1384.67 Q1140.74 1384.67 1137.62 1384.1 Q1134.53 1383.56 1131.09 1382.44 L1131.09 1376.39 Q1134.34 1378.08 1137.49 1378.94 Q1140.64 1379.77 1143.73 1379.77 Q1147.87 1379.77 1150.09 1378.37 Q1152.32 1376.94 1152.32 1374.36 Q1152.32 1371.97 1150.7 1370.7 Q1149.11 1369.42 1143.67 1368.25 L1141.63 1367.77 Q1136.19 1366.62 1133.77 1364.27 Q1131.35 1361.88 1131.35 1357.74 Q1131.35 1352.71 1134.91 1349.98 Q1138.48 1347.24 1145.03 1347.24 Q1148.28 1347.24 1151.14 1347.72 Q1154.01 1348.19 1156.43 1349.15 Z" fill="#000000" fill-rule="nonzero" fill-opacity="1" /><path clip-path="url(#clip690)" d="M1166.74 1334.29 L1171.83 1334.29 Q1176.61 1341.8 1178.96 1348.99 Q1181.35 1356.18 1181.35 1363.28 Q1181.35 1370.41 1178.96 1377.64 Q1176.61 1384.86 1171.83 1392.34 L1166.74 1392.34 Q1170.97 1385.05 1173.04 1377.86 Q1175.14 1370.63 1175.14 1363.28 Q1175.14 1355.93 1173.04 1348.77 Q1170.97 1341.61 1166.74 1334.29 Z" fill="#000000" fill-rule="nonzero" fill-opacity="1" /><polyline clip-path="url(#clip690)" style="stroke:#000000; stroke-linecap:round; stroke-linejoin:round; stroke-width:4; stroke-opacity:1; fill:none" points="221.006,1254.52 221.006,47.2441 "/>
<polyline clip-path="url(#clip690)" style="stroke:#000000; stroke-linecap:round; stroke-linejoin:round; stroke-width:4; stroke-opacity:1; fill:none" points="221.006,1254.52 239.904,1254.52 "/>
<polyline clip-path="url(#clip690)" style="stroke:#000000; stroke-linecap:round; stroke-linejoin:round; stroke-width:4; stroke-opacity:1; fill:none" points="221.006,1013.06 239.904,1013.06 "/>
<polyline clip-path="url(#clip690)" style="stroke:#000000; stroke-linecap:round; stroke-linejoin:round; stroke-width:4; stroke-opacity:1; fill:none" points="221.006,771.61 239.904,771.61 "/>
<polyline clip-path="url(#clip690)" style="stroke:#000000; stroke-linecap:round; stroke-linejoin:round; stroke-width:4; stroke-opacity:1; fill:none" points="221.006,530.154 239.904,530.154 "/>
<polyline clip-path="url(#clip690)" style="stroke:#000000; stroke-linecap:round; stroke-linejoin:round; stroke-width:4; stroke-opacity:1; fill:none" points="221.006,288.699 239.904,288.699 "/>
<polyline clip-path="url(#clip690)" style="stroke:#000000; stroke-linecap:round; stroke-linejoin:round; stroke-width:4; stroke-opacity:1; fill:none" points="221.006,47.2441 239.904,47.2441 "/>
<path clip-path="url(#clip690)" d="M135.031 1240.32 Q131.42 1240.32 129.591 1243.88 Q127.785 1247.42 127.785 1254.55 Q127.785 1261.66 129.591 1265.23 Q131.42 1268.77 135.031 1268.77 Q138.665 1268.77 140.47 1265.23 Q142.299 1261.66 142.299 1254.55 Q142.299 1247.42 140.47 1243.88 Q138.665 1240.32 135.031 1240.32 M135.031 1236.61 Q140.841 1236.61 143.896 1241.22 Q146.975 1245.8 146.975 1254.55 Q146.975 1263.28 143.896 1267.89 Q140.841 1272.47 135.031 1272.47 Q129.22 1272.47 126.142 1267.89 Q123.086 1263.28 123.086 1254.55 Q123.086 1245.8 126.142 1241.22 Q129.22 1236.61 135.031 1236.61 Z" fill="#000000" fill-rule="nonzero" fill-opacity="1" /><path clip-path="url(#clip690)" d="M155.193 1265.92 L160.077 1265.92 L160.077 1271.8 L155.193 1271.8 L155.193 1265.92 Z" fill="#000000" fill-rule="nonzero" fill-opacity="1" /><path clip-path="url(#clip690)" d="M180.262 1240.32 Q176.651 1240.32 174.822 1243.88 Q173.017 1247.42 173.017 1254.55 Q173.017 1261.66 174.822 1265.23 Q176.651 1268.77 180.262 1268.77 Q183.896 1268.77 185.702 1265.23 Q187.53 1261.66 187.53 1254.55 Q187.53 1247.42 185.702 1243.88 Q183.896 1240.32 180.262 1240.32 M180.262 1236.61 Q186.072 1236.61 189.128 1241.22 Q192.206 1245.8 192.206 1254.55 Q192.206 1263.28 189.128 1267.89 Q186.072 1272.47 180.262 1272.47 Q174.452 1272.47 171.373 1267.89 Q168.318 1263.28 168.318 1254.55 Q168.318 1245.8 171.373 1241.22 Q174.452 1236.61 180.262 1236.61 Z" fill="#000000" fill-rule="nonzero" fill-opacity="1" /><path clip-path="url(#clip690)" d="M136.628 998.863 Q133.017 998.863 131.188 1002.43 Q129.383 1005.97 129.383 1013.1 Q129.383 1020.21 131.188 1023.77 Q133.017 1027.31 136.628 1027.31 Q140.262 1027.31 142.068 1023.77 Q143.896 1020.21 143.896 1013.1 Q143.896 1005.97 142.068 1002.43 Q140.262 998.863 136.628 998.863 M136.628 995.16 Q142.438 995.16 145.494 999.766 Q148.572 1004.35 148.572 1013.1 Q148.572 1021.83 145.494 1026.43 Q142.438 1031.02 136.628 1031.02 Q130.818 1031.02 127.739 1026.43 Q124.683 1021.83 124.683 1013.1 Q124.683 1004.35 127.739 999.766 Q130.818 995.16 136.628 995.16 Z" fill="#000000" fill-rule="nonzero" fill-opacity="1" /><path clip-path="url(#clip690)" d="M156.79 1024.47 L161.674 1024.47 L161.674 1030.34 L156.79 1030.34 L156.79 1024.47 Z" fill="#000000" fill-rule="nonzero" fill-opacity="1" /><path clip-path="url(#clip690)" d="M175.887 1026.41 L192.206 1026.41 L192.206 1030.34 L170.262 1030.34 L170.262 1026.41 Q172.924 1023.65 177.507 1019.03 Q182.114 1014.37 183.294 1013.03 Q185.54 1010.51 186.419 1008.77 Q187.322 1007.01 187.322 1005.32 Q187.322 1002.57 185.378 1000.83 Q183.456 999.095 180.354 999.095 Q178.155 999.095 175.702 999.859 Q173.271 1000.62 170.493 1002.17 L170.493 997.451 Q173.317 996.317 175.771 995.738 Q178.225 995.16 180.262 995.16 Q185.632 995.16 188.827 997.845 Q192.021 1000.53 192.021 1005.02 Q192.021 1007.15 191.211 1009.07 Q190.424 1010.97 188.317 1013.56 Q187.739 1014.23 184.637 1017.45 Q181.535 1020.65 175.887 1026.41 Z" fill="#000000" fill-rule="nonzero" fill-opacity="1" /><path clip-path="url(#clip690)" d="M134.545 757.408 Q130.933 757.408 129.105 760.973 Q127.299 764.515 127.299 771.644 Q127.299 778.751 129.105 782.316 Q130.933 785.857 134.545 785.857 Q138.179 785.857 139.984 782.316 Q141.813 778.751 141.813 771.644 Q141.813 764.515 139.984 760.973 Q138.179 757.408 134.545 757.408 M134.545 753.705 Q140.355 753.705 143.41 758.311 Q146.489 762.894 146.489 771.644 Q146.489 780.371 143.41 784.978 Q140.355 789.561 134.545 789.561 Q128.734 789.561 125.656 784.978 Q122.6 780.371 122.6 771.644 Q122.6 762.894 125.656 758.311 Q128.734 753.705 134.545 753.705 Z" fill="#000000" fill-rule="nonzero" fill-opacity="1" /><path clip-path="url(#clip690)" d="M154.706 783.01 L159.591 783.01 L159.591 788.89 L154.706 788.89 L154.706 783.01 Z" fill="#000000" fill-rule="nonzero" fill-opacity="1" /><path clip-path="url(#clip690)" d="M182.623 758.404 L170.817 776.853 L182.623 776.853 L182.623 758.404 M181.396 754.33 L187.276 754.33 L187.276 776.853 L192.206 776.853 L192.206 780.741 L187.276 780.741 L187.276 788.89 L182.623 788.89 L182.623 780.741 L167.021 780.741 L167.021 776.228 L181.396 754.33 Z" fill="#000000" fill-rule="nonzero" fill-opacity="1" /><path clip-path="url(#clip690)" d="M134.869 515.953 Q131.258 515.953 129.429 519.518 Q127.623 523.06 127.623 530.189 Q127.623 537.296 129.429 540.86 Q131.258 544.402 134.869 544.402 Q138.503 544.402 140.308 540.86 Q142.137 537.296 142.137 530.189 Q142.137 523.06 140.308 519.518 Q138.503 515.953 134.869 515.953 M134.869 512.249 Q140.679 512.249 143.734 516.856 Q146.813 521.439 146.813 530.189 Q146.813 538.916 143.734 543.522 Q140.679 548.106 134.869 548.106 Q129.058 548.106 125.98 543.522 Q122.924 538.916 122.924 530.189 Q122.924 521.439 125.98 516.856 Q129.058 512.249 134.869 512.249 Z" fill="#000000" fill-rule="nonzero" fill-opacity="1" /><path clip-path="url(#clip690)" d="M155.031 541.555 L159.915 541.555 L159.915 547.434 L155.031 547.434 L155.031 541.555 Z" fill="#000000" fill-rule="nonzero" fill-opacity="1" /><path clip-path="url(#clip690)" d="M180.679 528.291 Q177.53 528.291 175.679 530.444 Q173.85 532.597 173.85 536.346 Q173.85 540.073 175.679 542.249 Q177.53 544.402 180.679 544.402 Q183.827 544.402 185.655 542.249 Q187.507 540.073 187.507 536.346 Q187.507 532.597 185.655 530.444 Q183.827 528.291 180.679 528.291 M189.961 513.638 L189.961 517.898 Q188.202 517.064 186.396 516.624 Q184.614 516.185 182.854 516.185 Q178.225 516.185 175.771 519.31 Q173.341 522.435 172.993 528.754 Q174.359 526.74 176.419 525.675 Q178.479 524.587 180.956 524.587 Q186.165 524.587 189.174 527.759 Q192.206 530.907 192.206 536.346 Q192.206 541.671 189.058 544.888 Q185.91 548.106 180.679 548.106 Q174.683 548.106 171.512 543.522 Q168.341 538.916 168.341 530.189 Q168.341 521.995 172.23 517.134 Q176.118 512.249 182.669 512.249 Q184.429 512.249 186.211 512.597 Q188.016 512.944 189.961 513.638 Z" fill="#000000" fill-rule="nonzero" fill-opacity="1" /><path clip-path="url(#clip690)" d="M135.123 274.498 Q131.512 274.498 129.683 278.063 Q127.878 281.604 127.878 288.734 Q127.878 295.84 129.683 299.405 Q131.512 302.947 135.123 302.947 Q138.757 302.947 140.563 299.405 Q142.392 295.84 142.392 288.734 Q142.392 281.604 140.563 278.063 Q138.757 274.498 135.123 274.498 M135.123 270.794 Q140.933 270.794 143.989 275.401 Q147.068 279.984 147.068 288.734 Q147.068 297.461 143.989 302.067 Q140.933 306.651 135.123 306.651 Q129.313 306.651 126.234 302.067 Q123.179 297.461 123.179 288.734 Q123.179 279.984 126.234 275.401 Q129.313 270.794 135.123 270.794 Z" fill="#000000" fill-rule="nonzero" fill-opacity="1" /><path clip-path="url(#clip690)" d="M155.285 300.1 L160.169 300.1 L160.169 305.979 L155.285 305.979 L155.285 300.1 Z" fill="#000000" fill-rule="nonzero" fill-opacity="1" /><path clip-path="url(#clip690)" d="M180.354 289.567 Q177.021 289.567 175.1 291.35 Q173.202 293.132 173.202 296.257 Q173.202 299.382 175.1 301.164 Q177.021 302.947 180.354 302.947 Q183.688 302.947 185.609 301.164 Q187.53 299.359 187.53 296.257 Q187.53 293.132 185.609 291.35 Q183.711 289.567 180.354 289.567 M175.679 287.577 Q172.669 286.836 170.98 284.776 Q169.313 282.715 169.313 279.753 Q169.313 275.609 172.253 273.202 Q175.216 270.794 180.354 270.794 Q185.516 270.794 188.456 273.202 Q191.396 275.609 191.396 279.753 Q191.396 282.715 189.706 284.776 Q188.04 286.836 185.054 287.577 Q188.433 288.364 190.308 290.655 Q192.206 292.947 192.206 296.257 Q192.206 301.28 189.128 303.965 Q186.072 306.651 180.354 306.651 Q174.637 306.651 171.558 303.965 Q168.503 301.28 168.503 296.257 Q168.503 292.947 170.401 290.655 Q172.299 288.364 175.679 287.577 M173.966 280.192 Q173.966 282.878 175.632 284.382 Q177.322 285.887 180.354 285.887 Q183.364 285.887 185.054 284.382 Q186.766 282.878 186.766 280.192 Q186.766 277.507 185.054 276.003 Q183.364 274.498 180.354 274.498 Q177.322 274.498 175.632 276.003 Q173.966 277.507 173.966 280.192 Z" fill="#000000" fill-rule="nonzero" fill-opacity="1" /><path clip-path="url(#clip690)" d="M125.841 60.5889 L133.48 60.5889 L133.48 34.2233 L125.17 35.89 L125.17 31.6308 L133.433 29.9641 L138.109 29.9641 L138.109 60.5889 L145.748 60.5889 L145.748 64.5241 L125.841 64.5241 L125.841 60.5889 Z" fill="#000000" fill-rule="nonzero" fill-opacity="1" /><path clip-path="url(#clip690)" d="M155.193 58.6445 L160.077 58.6445 L160.077 64.5241 L155.193 64.5241 L155.193 58.6445 Z" fill="#000000" fill-rule="nonzero" fill-opacity="1" /><path clip-path="url(#clip690)" d="M180.262 33.0428 Q176.651 33.0428 174.822 36.6076 Q173.017 40.1492 173.017 47.2788 Q173.017 54.3853 174.822 57.9501 Q176.651 61.4917 180.262 61.4917 Q183.896 61.4917 185.702 57.9501 Q187.53 54.3853 187.53 47.2788 Q187.53 40.1492 185.702 36.6076 Q183.896 33.0428 180.262 33.0428 M180.262 29.3391 Q186.072 29.3391 189.128 33.9456 Q192.206 38.5289 192.206 47.2788 Q192.206 56.0056 189.128 60.6121 Q186.072 65.1954 180.262 65.1954 Q174.452 65.1954 171.373 60.6121 Q168.318 56.0056 168.318 47.2788 Q168.318 38.5289 171.373 33.9456 Q174.452 29.3391 180.262 29.3391 Z" fill="#000000" fill-rule="nonzero" fill-opacity="1" /><path clip-path="url(#clip690)" d="M35.7905 670.595 L50.2187 674.17 Q51.0883 674.363 51.3137 674.524 Q51.5391 674.685 51.5391 675.136 Q51.5391 675.491 51.3781 675.716 Q51.2171 675.909 51.056 675.909 L50.895 675.941 Q50.7984 675.941 50.3153 675.877 Q49.8 675.813 48.9627 675.748 Q48.1253 675.684 47.1913 675.684 Q41.9096 675.684 39.4619 678.26 Q36.9821 680.805 36.9821 685.185 Q36.9821 688.212 38.5924 690.917 Q40.2027 693.623 42.7469 695.168 Q45.259 696.714 47.8999 696.714 Q50.3153 696.714 51.8612 695.49 Q53.4071 694.267 53.9224 692.689 L55.114 688.276 Q56.3056 683.639 56.8209 682.318 Q57.304 680.998 58.399 679.903 Q61.4263 676.65 66.1284 676.65 Q70.1863 676.65 74.1154 678.937 Q78.0124 681.223 80.5566 685.152 Q83.0687 689.081 83.0687 693.429 Q83.0687 701.062 78.3344 704.573 L82.0703 707.793 Q82.7788 708.405 82.9076 708.598 Q83.0687 708.759 83.0687 708.985 Q83.0687 709.275 82.8754 709.5 Q82.7144 709.725 82.4246 709.725 Q82.1991 709.725 74.6307 707.825 Q67.0624 705.925 66.9013 705.764 Q66.6437 705.506 66.6437 705.088 Q66.6437 704.315 67.3844 704.315 Q67.5777 704.379 67.8353 704.444 Q70.1541 704.83 71.4101 704.83 Q73.7612 704.83 75.5647 704.025 Q77.336 703.22 78.3666 702.028 Q79.365 700.804 80.0091 699.162 Q80.621 697.519 80.8465 696.135 Q81.0397 694.75 81.0397 693.3 Q81.0397 690.176 79.2362 687.407 Q77.4326 684.605 74.6307 683.027 Q71.8288 681.416 68.8981 681.416 Q67.3522 681.416 66.1606 681.835 Q64.9368 682.254 64.2604 682.834 Q63.5841 683.381 63.0688 684.315 Q62.5535 685.249 62.3603 685.893 Q62.1349 686.505 61.9094 687.471 L60.0415 694.524 Q59.2041 697.358 56.7887 699.387 Q54.3732 701.384 50.6696 701.384 Q46.7727 701.384 43.1656 699.098 Q39.5263 696.779 37.3363 693.011 Q35.1141 689.21 35.1141 685.12 Q35.1141 681.9 36.3702 679.42 Q37.594 676.94 39.8806 675.684 L36.1125 672.495 Q35.3718 671.851 35.243 671.723 Q35.1141 671.562 35.1141 671.336 Q35.1141 670.95 35.3396 670.789 Q35.565 670.595 35.7905 670.595 Z" fill="#000000" fill-rule="nonzero" fill-opacity="1" /><path clip-path="url(#clip690)" d="M65.13 663.095 Q53.9868 663.095 45.0013 658.94 Q41.2333 657.169 38.0771 654.689 Q34.9209 652.209 33.5361 650.567 Q32.1512 648.924 32.1512 648.473 Q32.1512 647.829 32.7953 647.797 Q33.1174 647.797 33.9225 648.667 Q44.7437 659.294 65.13 659.262 Q85.5807 659.262 95.9832 648.924 Q97.1104 647.797 97.4647 647.797 Q98.1088 647.797 98.1088 648.473 Q98.1088 648.924 96.7884 650.502 Q95.4679 652.08 92.4406 654.528 Q89.4132 656.976 85.7096 658.747 Q76.7241 663.095 65.13 663.095 Z" fill="#000000" fill-rule="nonzero" fill-opacity="1" /><path clip-path="url(#clip690)" d="M53.9224 622.527 Q54.8241 622.527 55.0496 622.946 Q55.2428 623.364 55.2428 624.524 L55.2428 630.707 L74.6951 635.603 Q76.4021 635.989 77.8513 635.989 Q79.4616 635.989 80.1701 635.506 Q80.8787 634.991 80.8787 633.928 Q80.8787 631.835 78.9785 629.58 Q77.0784 627.294 72.4407 625.361 Q71.8288 625.104 71.7 624.975 Q71.539 624.814 71.539 624.395 Q71.539 623.59 72.1831 623.59 Q72.4085 623.59 73.4391 624.041 Q74.4697 624.459 75.9834 625.393 Q77.4971 626.295 78.9141 627.487 Q80.3312 628.646 81.3618 630.417 Q82.3601 632.189 82.3601 634.089 Q82.3601 636.762 80.6532 638.469 Q78.9463 640.144 76.2732 640.144 Q75.4037 640.144 72.634 639.467 Q69.8321 638.791 55.2428 635.12 L55.2428 640.949 Q55.2428 641.754 55.2106 642.076 Q55.1784 642.366 55.0174 642.591 Q54.8241 642.785 54.4377 642.785 Q53.8257 642.785 53.5681 642.527 Q53.2782 642.269 53.246 641.947 Q53.1816 641.593 53.1816 640.788 L53.1816 634.604 L42.7147 632.028 Q41.6841 631.77 41.1044 631.126 Q40.4925 630.45 40.4281 630.063 Q40.3315 629.677 40.3315 629.387 Q40.3315 628.517 40.8146 628.002 Q41.2655 627.487 42.1028 627.487 Q42.5537 627.487 53.1816 630.192 L53.1816 624.395 Q53.1816 623.654 53.2138 623.364 Q53.246 623.042 53.4071 622.785 Q53.5681 622.527 53.9224 622.527 Z" fill="#000000" fill-rule="nonzero" fill-opacity="1" /><path clip-path="url(#clip690)" d="M97.4647 617.365 Q97.1426 617.365 96.3375 616.527 Q85.5163 605.899 65.13 605.899 Q44.6793 605.899 34.3412 616.109 Q33.1496 617.365 32.7953 617.365 Q32.1512 617.365 32.1512 616.721 Q32.1512 616.27 33.4716 614.692 Q34.7921 613.081 37.8194 610.666 Q40.8468 608.218 44.5505 606.415 Q53.5359 602.067 65.13 602.067 Q76.2732 602.067 85.2587 606.221 Q89.0268 607.993 92.1829 610.473 Q95.3391 612.952 96.724 614.595 Q98.1088 616.237 98.1088 616.721 Q98.1088 617.365 97.4647 617.365 Z" fill="#000000" fill-rule="nonzero" fill-opacity="1" /><polyline clip-path="url(#clip692)" style="stroke:#000000; stroke-linecap:round; stroke-linejoin:round; stroke-width:4; stroke-opacity:1; fill:none" points="221.006,47.2441 230.722,51.5755 240.439,55.9214 250.155,55.9214 259.871,55.9214 269.587,55.9214 279.303,60.3127 289.019,60.3127 298.736,60.3127 308.452,60.3127 318.168,60.3127 327.884,64.704 337.6,73.532 347.317,82.4139 357.033,82.4139 366.749,82.4139 376.465,86.8665 386.181,91.3191 395.897,91.3191 405.614,91.3191 415.33,95.7717 425.046,95.7717 434.762,100.224 444.478,100.224 454.194,104.677 463.911,104.677 473.627,109.146 483.343,113.614 493.059,113.614 502.775,118.099 512.491,118.099 522.208,118.099 531.924,118.099 541.64,118.099 551.356,118.099 561.072,127.119 570.789,127.119 580.505,136.206 590.221,136.206 599.937,136.206 609.653,140.758 619.369,140.758 629.086,145.327 638.802,149.914 648.518,154.518 658.234,159.141 667.95,168.385 677.666,173.008 687.383,182.253 697.099,182.253 706.815,182.253 716.531,182.253 726.247,182.253 735.964,186.875 745.68,196.176 755.396,196.176 765.112,196.176 774.828,196.176 784.544,205.515 794.261,214.893 803.977,214.893 813.693,214.893 823.409,214.893 833.125,214.893 842.841,219.611 852.558,219.611 862.274,219.611 871.99,219.611 881.706,224.33 891.422,229.068 901.138,233.807 910.855,233.807 920.571,238.545 930.287,238.545 940.003,238.545 949.719,238.545 959.436,238.545 969.152,238.545 978.868,238.545 988.584,248.043 998.3,248.043 1008.02,248.043 1017.73,248.043 1027.45,252.867 1037.16,262.769 1046.88,267.757 1056.6,272.77 1066.31,277.808 1076.03,277.808 1085.75,282.897 1095.46,282.897 1105.18,282.897 1114.89,288.264 1124.61,293.69 1134.33,293.69 1144.04,299.237 1153.76,299.237 1163.48,299.237 1173.19,299.237 1182.91,299.237 1192.62,299.237 1202.34,299.237 1212.06,305.417 1221.77,305.417 1231.49,305.417 1241.2,305.417 1250.92,312.014 1260.64,312.014 1270.35,312.014 1280.07,312.014 1289.79,312.014 1299.5,312.014 1309.22,312.014 1318.93,327.131 1328.65,327.131 1338.37,334.84 1348.08,350.641 1357.8,350.641 1367.51,350.641 1377.23,350.641 1386.95,350.641 1396.66,350.641 1406.38,350.641 1416.1,350.641 1425.81,359.283 1435.53,359.283 1445.24,359.283 1454.96,359.283 1464.68,359.283 1474.39,359.283 1484.11,359.283 1493.83,368.355 1503.54,368.355 1513.26,368.355 1522.97,368.355 1532.69,368.355 1542.41,378.014 1552.12,378.014 1561.84,378.014 1571.55,378.014 1581.27,378.014 1590.99,388.462 1600.7,388.462 1610.42,388.462 1620.14,388.462 1629.85,388.462 1639.57,388.462 1649.28,388.462 1659,388.462 1668.72,388.462 1678.43,388.462 1688.15,388.462 1697.86,388.462 1707.58,399.714 1717.3,399.714 1727.01,399.714 1736.73,399.714 1746.45,399.714 1756.16,399.714 1765.88,399.714 1775.59,399.714 1785.31,399.714 1795.03,399.714 1804.74,399.714 1814.46,399.714 1824.18,399.714 1833.89,399.714 1843.61,412.069 1853.32,412.069 1863.04,412.069 1872.76,412.069 1882.47,412.069 1892.19,412.069 1901.9,426.016 1911.62,426.016 1921.34,440.43 1931.05,440.43 1940.77,440.43 1950.49,440.43 1960.2,440.43 1969.92,440.43 1979.63,440.43 1989.35,440.43 1999.07,458.614 2008.78,458.614 2018.5,458.614 2028.21,458.614 2037.93,458.614 2047.65,458.614 2057.36,458.614 2067.08,480.773 2076.8,480.773 2086.51,480.773 2096.23,480.773 2105.94,480.773 2115.66,480.773 2125.38,480.773 2135.09,480.773 2144.81,480.773 2154.52,480.773 2164.24,480.773 2173.96,480.773 2183.67,480.773 2193.39,480.773 2203.11,480.773 2212.82,480.773 2222.54,480.773 2232.25,480.773 2241.97,480.773 2251.69,480.773 2261.4,480.773 2271.12,480.773 2280.84,480.773 2290.55,480.773 2300.27,480.773 2309.98,480.773 2319.7,480.773 2329.42,480.773 2339.13,480.773 2348.85,480.773 2358.56,480.773 2368.28,480.773 2378,480.773 2387.71,480.773 2397.43,480.773 2407.15,480.773 2416.86,480.773 2426.58,480.773 2436.29,480.773 2446.01,480.773 2455.73,480.773 2465.44,480.773 2475.16,480.773 2484.87,480.773 2494.59,480.773 2504.31,480.773 2514.02,480.773 2523.74,480.773 2533.46,480.773 2543.17,480.773 2552.89,480.773 "/>
<polyline clip-path="url(#clip692)" style="stroke:#009af9; stroke-linecap:round; stroke-linejoin:round; stroke-width:4; stroke-opacity:1; fill:none" points="221.006,47.2441 230.722,48.2767 240.439,49.7365 250.155,51.1983 259.871,52.6645 269.587,54.1463 279.303,55.6764 289.019,57.2797 298.736,59.0295 308.452,61.0364 318.168,63.6143 327.884,66.8146 337.6,70.0421 347.317,73.2474 357.033,76.4281 366.749,79.5857 376.465,82.723 386.181,85.8352 395.897,88.92 405.614,91.9823 415.33,95.0249 425.046,98.0459 434.762,101.047 444.478,104.033 454.194,107.004 463.911,109.958 473.627,112.898 483.343,115.823 493.059,118.734 502.775,121.638 512.491,124.536 522.208,127.428 531.924,130.319 541.64,133.225 551.356,136.17 561.072,139.168 570.789,142.165 580.505,145.155 590.221,148.138 599.937,151.116 609.653,154.098 619.369,157.095 629.086,160.098 638.802,163.102 648.518,166.101 658.234,169.086 667.95,172.053 677.666,174.998 687.383,177.919 697.099,180.813 706.815,183.683 716.531,186.529 726.247,189.351 735.964,192.154 745.68,194.936 755.396,197.696 765.112,200.432 774.828,203.146 784.544,205.839 794.261,208.509 803.977,211.157 813.693,213.782 823.409,216.386 833.125,218.967 842.841,221.528 852.558,224.071 862.274,226.593 871.99,229.096 881.706,231.58 891.422,234.045 901.138,236.493 910.855,238.924 920.571,241.338 930.287,243.735 940.003,246.115 949.719,248.48 959.436,250.83 969.152,253.17 978.868,255.501 988.584,257.824 998.3,260.136 1008.02,262.44 1017.73,264.737 1027.45,267.028 1037.16,269.311 1046.88,271.578 1056.6,273.829 1066.31,276.062 1076.03,278.279 1085.75,280.479 1095.46,282.663 1105.18,284.831 1114.89,286.982 1124.61,289.119 1134.33,291.241 1144.04,293.346 1153.76,295.435 1163.48,297.511 1173.19,299.572 1182.91,301.62 1192.62,303.656 1202.34,305.68 1212.06,307.694 1221.77,309.695 1231.49,311.687 1241.2,313.669 1250.92,315.647 1260.64,317.616 1270.35,319.573 1280.07,321.519 1289.79,323.457 1299.5,325.389 1309.22,327.318 1318.93,329.248 1328.65,331.17 1338.37,333.079 1348.08,334.974 1357.8,336.855 1367.51,338.722 1377.23,340.576 1386.95,342.416 1396.66,344.243 1406.38,346.059 1416.1,347.862 1425.81,349.654 1435.53,351.434 1445.24,353.204 1454.96,354.961 1464.68,356.707 1474.39,358.443 1484.11,360.169 1493.83,361.884 1503.54,363.59 1513.26,365.285 1522.97,366.969 1532.69,368.643 1542.41,370.308 1552.12,371.964 1561.84,373.611 1571.55,375.25 1581.27,376.882 1590.99,378.505 1600.7,380.121 1610.42,381.729 1620.14,383.329 1629.85,384.921 1639.57,386.506 1649.28,388.087 1659,389.664 1668.72,391.238 1678.43,392.809 1688.15,394.376 1697.86,395.94 1707.58,397.504 1717.3,399.062 1727.01,400.615 1736.73,402.161 1746.45,403.706 1756.16,405.252 1765.88,406.796 1775.59,408.339 1785.31,409.884 1795.03,411.434 1804.74,412.996 1814.46,414.569 1824.18,416.165 1833.89,417.774 1843.61,419.406 1853.32,421.046 1863.04,422.698 1872.76,424.364 1882.47,426.048 1892.19,427.749 1901.9,429.478 1911.62,431.21 1921.34,432.933 1931.05,434.646 1940.77,436.346 1950.49,438.034 1960.2,439.713 1969.92,441.383 1979.63,443.043 1989.35,444.695 1999.07,446.338 2008.78,447.972 2018.5,449.596 2028.21,451.21 2037.93,452.816 2047.65,454.413 2057.36,456.004 2067.08,457.587 2076.8,459.161 2086.51,460.724 2096.23,462.277 2105.94,463.821 2115.66,465.355 2125.38,466.879 2135.09,468.394 2144.81,469.902 2154.52,471.401 2164.24,472.891 2173.96,474.373 2183.67,475.848 2193.39,477.315 2203.11,478.774 2212.82,480.226 2222.54,481.673 2232.25,483.11 2241.97,484.541 2251.69,485.967 2261.4,487.387 2271.12,488.801 2280.84,490.209 2290.55,491.612 2300.27,493.01 2309.98,494.404 2319.7,495.794 2329.42,497.18 2339.13,498.562 2348.85,499.941 2358.56,501.317 2368.28,502.689 2378,504.059 2387.71,505.427 2397.43,506.794 2407.15,508.157 2416.86,509.517 2426.58,510.878 2436.29,512.242 2446.01,513.605 2455.73,514.969 2465.44,516.331 2475.16,517.696 2484.87,519.067 2494.59,520.44 2504.31,521.818 2514.02,523.199 2523.74,524.581 2533.46,525.964 2543.17,527.348 2552.89,528.74 "/>
<path clip-path="url(#clip692)" d="M221.006 47.2441 L230.722 50.2613 L240.439 54.0402 L250.155 57.9864 L259.871 61.9835 L269.587 65.8313 L279.303 69.709 L289.019 73.6928 L298.736 77.6017 L308.452 81.4785 L318.168 85.205 L327.884 88.9791 L337.6 92.7286 L347.317 96.5456 L357.033 100.322 L366.749 104.514 L376.465 108.277 L386.181 112.197 L395.897 116.325 L405.614 120.176 L415.33 124.373 L425.046 128.799 L434.762 132.56 L444.478 136.209 L454.194 140.175 L463.911 144.136 L473.627 148.044 L483.343 151.776 L493.059 155.952 L502.775 160.131 L512.491 164.11 L522.208 168.011 L531.924 172.057 L541.64 175.931 L551.356 179.697 L561.072 182.969 L570.789 186.673 L580.505 190.655 L590.221 194.454 L599.937 198.294 L609.653 202.095 L619.369 205.85 L629.086 209.885 L638.802 213.401 L648.518 216.838 L658.234 220.404 L667.95 223.805 L677.666 227.255 L687.383 230.943 L697.099 235.063 L706.815 238.414 L716.531 241.953 L726.247 246.407 L735.964 249.645 L745.68 253.416 L755.396 256.864 L765.112 260.039 L774.828 263.528 L784.544 266.998 L794.261 270.33 L803.977 273.633 L813.693 276.906 L823.409 280.27 L833.125 283.545 L842.841 286.686 L852.558 290.113 L862.274 293.262 L871.99 296.027 L881.706 299.146 L891.422 302.194 L901.138 305.305 L910.855 308.274 L920.571 311.214 L930.287 314.266 L940.003 317.232 L949.719 320.689 L959.436 323.844 L969.152 326.781 L978.868 330.098 L988.584 333.203 L998.3 336.154 L1008.02 339.043 L1017.73 341.901 L1027.45 344.641 L1037.16 347.272 L1046.88 349.601 L1056.6 351.879 L1066.31 355.243 L1076.03 357.683 L1085.75 360.549 L1095.46 363.087 L1105.18 365.136 L1114.89 367.013 L1124.61 369.472 L1134.33 372.014 L1144.04 374.547 L1153.76 377.215 L1163.48 380.146 L1173.19 383.056 L1182.91 385.944 L1192.62 389.05 L1202.34 391.657 L1212.06 393.378 L1221.77 395.418 L1231.49 398.064 L1241.2 400.504 L1250.92 402.895 L1260.64 405.35 L1270.35 407.206 L1280.07 409.739 L1289.79 412.064 L1299.5 414.129 L1309.22 416.66 L1318.93 419.17 L1328.65 421.587 L1338.37 423.675 L1348.08 425.709 L1357.8 427.691 L1367.51 429.622 L1377.23 431.739 L1386.95 433.745 L1396.66 435.836 L1406.38 438.272 L1416.1 440.443 L1425.81 442.553 L1435.53 444.448 L1445.24 446.348 L1454.96 448.447 L1464.68 450.383 L1474.39 452.724 L1484.11 455.137 L1493.83 457.621 L1503.54 459.388 L1513.26 461.427 L1522.97 464.501 L1532.69 466.896 L1542.41 468.143 L1552.12 469.305 L1561.84 471.75 L1571.55 473.332 L1581.27 474.894 L1590.99 476.436 L1600.7 477.974 L1610.42 479.532 L1620.14 481.674 L1629.85 483.513 L1639.57 485.335 L1649.28 487.846 L1659 490.524 L1668.72 492.209 L1678.43 493.858 L1688.15 495.722 L1697.86 498.18 L1707.58 500.397 L1717.3 502.143 L1727.01 504.036 L1736.73 505.634 L1746.45 507.339 L1756.16 509.038 L1765.88 510.427 L1775.59 512.939 L1785.31 515.442 L1795.03 516.765 L1804.74 519.075 L1814.46 520.976 L1824.18 523.113 L1833.89 525.228 L1843.61 527.415 L1853.32 529.647 L1863.04 532.217 L1872.76 534.706 L1882.47 537.117 L1892.19 539.596 L1901.9 541.969 L1911.62 544.293 L1921.34 546.311 L1931.05 548.171 L1940.77 549.797 L1950.49 551.847 L1960.2 553.657 L1969.92 555.928 L1979.63 558.183 L1989.35 560.17 L1999.07 562.009 L2008.78 564.055 L2018.5 565.993 L2028.21 567.913 L2037.93 569.837 L2047.65 571.746 L2057.36 573.641 L2067.08 575.527 L2076.8 577.211 L2086.51 578.862 L2096.23 581.159 L2105.94 583.057 L2115.66 584.888 L2125.38 586.726 L2135.09 588.43 L2144.81 590.088 L2154.52 592.003 L2164.24 594.005 L2173.96 595.847 L2183.67 597.647 L2193.39 599.324 L2203.11 600.98 L2212.82 602.813 L2222.54 604.564 L2232.25 606.565 L2241.97 608.554 L2251.69 610.836 L2261.4 613.154 L2271.12 614.528 L2280.84 616.363 L2290.55 618.588 L2300.27 620.411 L2309.98 622.557 L2319.7 625.384 L2329.42 627.932 L2339.13 629.478 L2348.85 631.472 L2358.56 633.059 L2368.28 635.018 L2378 637.017 L2387.71 637.628 L2397.43 639.161 L2407.15 640.881 L2416.86 643.038 L2426.58 645.193 L2436.29 648.042 L2446.01 651.027 L2455.73 652.994 L2465.44 655.003 L2475.16 656.978 L2484.87 659.417 L2494.59 661.916 L2504.31 664.552 L2514.02 666.981 L2523.74 669.514 L2533.46 672.085 L2543.17 677.348 L2552.89 681.286 L2552.89 396.64 L2543.17 395.809 L2533.46 394.936 L2523.74 394.069 L2514.02 393.199 L2504.31 391.921 L2494.59 391.043 L2484.87 390.063 L2475.16 389.192 L2465.44 388.324 L2455.73 387.452 L2446.01 386.861 L2436.29 386.394 L2426.58 385.692 L2416.86 385.436 L2407.15 384.461 L2397.43 383.31 L2387.71 382.567 L2378 382.022 L2368.28 381.478 L2358.56 380.925 L2348.85 380.364 L2339.13 379.66 L2329.42 378.852 L2319.7 378.034 L2309.98 376.997 L2300.27 376.357 L2290.55 375.732 L2280.84 375.305 L2271.12 373.736 L2261.4 372.562 L2251.69 371.373 L2241.97 369.99 L2232.25 369.132 L2222.54 368.538 L2212.82 367.943 L2203.11 367.341 L2193.39 366.722 L2183.67 365.733 L2173.96 364.93 L2164.24 363.896 L2154.52 362.845 L2144.81 361.795 L2135.09 360.37 L2125.38 359.241 L2115.66 358.18 L2105.94 357.106 L2096.23 356.02 L2086.51 354.924 L2076.8 353.818 L2067.08 352.695 L2057.36 351.556 L2047.65 350.403 L2037.93 349.236 L2028.21 348.056 L2018.5 346.863 L2008.78 345.665 L1999.07 344.438 L1989.35 343.196 L1979.63 341.448 L1969.92 340.682 L1960.2 339.006 L1950.49 337.439 L1940.77 336.263 L1931.05 334.833 L1921.34 333.512 L1911.62 332.089 L1901.9 330.025 L1892.19 328.967 L1882.47 327.924 L1872.76 326.866 L1863.04 325.174 L1853.32 323.828 L1843.61 322.757 L1833.89 321.436 L1824.18 320.288 L1814.46 318.942 L1804.74 317.323 L1795.03 316.219 L1785.31 314.856 L1775.59 313.495 L1765.88 312.128 L1756.16 310.758 L1746.45 309.383 L1736.73 308.221 L1727.01 306.638 L1717.3 305.343 L1707.58 304.441 L1697.86 303.706 L1688.15 302.338 L1678.43 300.97 L1668.72 299.994 L1659 298.685 L1649.28 297.601 L1639.57 296.443 L1629.85 295.364 L1620.14 294.286 L1610.42 293.117 L1600.7 291.952 L1590.99 290.927 L1581.27 289.883 L1571.55 288.773 L1561.84 287.657 L1552.12 286.056 L1542.41 284.401 L1532.69 283.243 L1522.97 282.182 L1513.26 280.859 L1503.54 279.259 L1493.83 277.655 L1484.11 276.256 L1474.39 275.08 L1464.68 273.905 L1454.96 273.04 L1445.24 271.514 L1435.53 270.3 L1425.81 268.995 L1416.1 267.811 L1406.38 266.602 L1396.66 265.054 L1386.95 263.317 L1377.23 261.579 L1367.51 259.863 L1357.8 258.219 L1348.08 256.608 L1338.37 255.313 L1328.65 254.147 L1318.93 252.978 L1309.22 251.347 L1299.5 249.689 L1289.79 248.026 L1280.07 246.278 L1270.35 244.581 L1260.64 242.992 L1250.92 241.3 L1241.2 239.616 L1231.49 237.927 L1221.77 236.302 L1212.06 234.765 L1202.34 233.305 L1192.62 231.893 L1182.91 230.455 L1173.19 229.005 L1163.48 227.333 L1153.76 225.469 L1144.04 223.605 L1134.33 221.736 L1124.61 219.868 L1114.89 218.014 L1105.18 216.117 L1095.46 214.233 L1085.75 212.726 L1076.03 211.241 L1066.31 209.749 L1056.6 207.952 L1046.88 206.281 L1037.16 204.667 L1027.45 202.966 L1017.73 200.542 L1008.02 198.645 L998.3 196.836 L988.584 195.014 L978.868 193.169 L969.152 191.301 L959.436 189.407 L949.719 187.724 L940.003 186.07 L930.287 184.403 L920.571 182.724 L910.855 181.037 L901.138 179.222 L891.422 177.304 L881.706 175.365 L871.99 173.651 L862.274 171.448 L852.558 169.852 L842.841 167.547 L833.125 165.777 L823.409 163.154 L813.693 161.119 L803.977 158.968 L794.261 156.781 L784.544 154.773 L774.828 152.624 L765.112 150.684 L755.396 148.592 L745.68 146.368 L735.964 144.28 L726.247 142.231 L716.531 139.668 L706.815 137.453 L697.099 135.084 L687.383 133.122 L677.666 130.439 L667.95 128.307 L658.234 125.912 L648.518 123.81 L638.802 121.835 L629.086 119.646 L619.369 117.177 L609.653 115.044 L599.937 112.634 L590.221 109.78 L580.505 107.294 L570.789 105.274 L561.072 103.037 L551.356 100.365 L541.64 97.8786 L531.924 95.8718 L522.208 94.0157 L512.491 92.2844 L502.775 90.331 L493.059 88.2613 L483.343 86.3832 L473.627 84.6803 L463.911 83.1108 L454.194 81.3317 L444.478 79.4004 L434.762 77.4887 L425.046 75.5512 L415.33 73.7163 L405.614 71.6145 L395.897 69.6432 L386.181 67.6529 L376.465 65.5954 L366.749 63.5154 L357.033 61.3703 L347.317 59.1328 L337.6 56.6196 L327.884 53.8426 L318.168 51.1295 L308.452 49.7856 L298.736 49.3342 L289.019 49.0044 L279.303 48.7189 L269.587 48.4485 L259.871 48.1845 L250.155 47.9257 L240.439 47.6695 L230.722 47.4079 L221.006 47.2441  Z" fill="#009af9" fill-rule="evenodd" fill-opacity="0.2"/>
<polyline clip-path="url(#clip692)" style="stroke:#009af9; stroke-linecap:round; stroke-linejoin:round; stroke-width:4; stroke-opacity:0; fill:none" points="221.006,47.2441 230.722,50.2613 240.439,54.0402 250.155,57.9864 259.871,61.9835 269.587,65.8313 279.303,69.709 289.019,73.6928 298.736,77.6017 308.452,81.4785 318.168,85.205 327.884,88.9791 337.6,92.7286 347.317,96.5456 357.033,100.322 366.749,104.514 376.465,108.277 386.181,112.197 395.897,116.325 405.614,120.176 415.33,124.373 425.046,128.799 434.762,132.56 444.478,136.209 454.194,140.175 463.911,144.136 473.627,148.044 483.343,151.776 493.059,155.952 502.775,160.131 512.491,164.11 522.208,168.011 531.924,172.057 541.64,175.931 551.356,179.697 561.072,182.969 570.789,186.673 580.505,190.655 590.221,194.454 599.937,198.294 609.653,202.095 619.369,205.85 629.086,209.885 638.802,213.401 648.518,216.838 658.234,220.404 667.95,223.805 677.666,227.255 687.383,230.943 697.099,235.063 706.815,238.414 716.531,241.953 726.247,246.407 735.964,249.645 745.68,253.416 755.396,256.864 765.112,260.039 774.828,263.528 784.544,266.998 794.261,270.33 803.977,273.633 813.693,276.906 823.409,280.27 833.125,283.545 842.841,286.686 852.558,290.113 862.274,293.262 871.99,296.027 881.706,299.146 891.422,302.194 901.138,305.305 910.855,308.274 920.571,311.214 930.287,314.266 940.003,317.232 949.719,320.689 959.436,323.844 969.152,326.781 978.868,330.098 988.584,333.203 998.3,336.154 1008.02,339.043 1017.73,341.901 1027.45,344.641 1037.16,347.272 1046.88,349.601 1056.6,351.879 1066.31,355.243 1076.03,357.683 1085.75,360.549 1095.46,363.087 1105.18,365.136 1114.89,367.013 1124.61,369.472 1134.33,372.014 1144.04,374.547 1153.76,377.215 1163.48,380.146 1173.19,383.056 1182.91,385.944 1192.62,389.05 1202.34,391.657 1212.06,393.378 1221.77,395.418 1231.49,398.064 1241.2,400.504 1250.92,402.895 1260.64,405.35 1270.35,407.206 1280.07,409.739 1289.79,412.064 1299.5,414.129 1309.22,416.66 1318.93,419.17 1328.65,421.587 1338.37,423.675 1348.08,425.709 1357.8,427.691 1367.51,429.622 1377.23,431.739 1386.95,433.745 1396.66,435.836 1406.38,438.272 1416.1,440.443 1425.81,442.553 1435.53,444.448 1445.24,446.348 1454.96,448.447 1464.68,450.383 1474.39,452.724 1484.11,455.137 1493.83,457.621 1503.54,459.388 1513.26,461.427 1522.97,464.501 1532.69,466.896 1542.41,468.143 1552.12,469.305 1561.84,471.75 1571.55,473.332 1581.27,474.894 1590.99,476.436 1600.7,477.974 1610.42,479.532 1620.14,481.674 1629.85,483.513 1639.57,485.335 1649.28,487.846 1659,490.524 1668.72,492.209 1678.43,493.858 1688.15,495.722 1697.86,498.18 1707.58,500.397 1717.3,502.143 1727.01,504.036 1736.73,505.634 1746.45,507.339 1756.16,509.038 1765.88,510.427 1775.59,512.939 1785.31,515.442 1795.03,516.765 1804.74,519.075 1814.46,520.976 1824.18,523.113 1833.89,525.228 1843.61,527.415 1853.32,529.647 1863.04,532.217 1872.76,534.706 1882.47,537.117 1892.19,539.596 1901.9,541.969 1911.62,544.293 1921.34,546.311 1931.05,548.171 1940.77,549.797 1950.49,551.847 1960.2,553.657 1969.92,555.928 1979.63,558.183 1989.35,560.17 1999.07,562.009 2008.78,564.055 2018.5,565.993 2028.21,567.913 2037.93,569.837 2047.65,571.746 2057.36,573.641 2067.08,575.527 2076.8,577.211 2086.51,578.862 2096.23,581.159 2105.94,583.057 2115.66,584.888 2125.38,586.726 2135.09,588.43 2144.81,590.088 2154.52,592.003 2164.24,594.005 2173.96,595.847 2183.67,597.647 2193.39,599.324 2203.11,600.98 2212.82,602.813 2222.54,604.564 2232.25,606.565 2241.97,608.554 2251.69,610.836 2261.4,613.154 2271.12,614.528 2280.84,616.363 2290.55,618.588 2300.27,620.411 2309.98,622.557 2319.7,625.384 2329.42,627.932 2339.13,629.478 2348.85,631.472 2358.56,633.059 2368.28,635.018 2378,637.017 2387.71,637.628 2397.43,639.161 2407.15,640.881 2416.86,643.038 2426.58,645.193 2436.29,648.042 2446.01,651.027 2455.73,652.994 2465.44,655.003 2475.16,656.978 2484.87,659.417 2494.59,661.916 2504.31,664.552 2514.02,666.981 2523.74,669.514 2533.46,672.085 2543.17,677.348 2552.89,681.286 "/>
<polyline clip-path="url(#clip692)" style="stroke:#e26f46; stroke-linecap:round; stroke-linejoin:round; stroke-width:4; stroke-opacity:1; fill:none" points="221.006,47.2441 230.722,51.3404 240.439,59.4731 250.155,59.4731 259.871,59.4731 269.587,59.4731 279.303,63.6569 289.019,63.6569 298.736,63.6569 308.452,63.6569 318.168,68.2413 327.884,68.2413 337.6,77.3475 347.317,81.933 357.033,81.933 366.749,81.933 376.465,86.4974 386.181,91.275 395.897,91.275 405.614,91.275 415.33,95.9738 425.046,95.9738 434.762,100.651 444.478,100.651 454.194,105.351 463.911,105.351 473.627,110.124 483.343,114.874 493.059,114.874 502.775,119.648 512.491,119.648 522.208,119.648 531.924,119.648 541.64,119.648 551.356,124.395 561.072,129.121 570.789,129.121 580.505,138.587 590.221,138.587 599.937,138.587 609.653,143.329 619.369,143.329 629.086,148.175 638.802,153.179 648.518,158.159 658.234,163.113 667.95,173.02 677.666,177.972 687.383,182.899 697.099,182.899 706.815,182.899 716.531,182.899 726.247,182.899 735.964,182.899 745.68,197.461 755.396,197.461 765.112,197.461 774.828,202.248 784.544,206.813 794.261,215.876 803.977,215.876 813.693,215.876 823.409,215.876 833.125,215.876 842.841,220.266 852.558,220.266 862.274,220.266 871.99,220.266 881.706,224.691 891.422,229.096 901.138,233.479 910.855,233.479 920.571,237.902 930.287,237.902 940.003,237.902 949.719,237.902 959.436,237.902 969.152,237.902 978.868,237.902 988.584,245.806 998.3,245.806 1008.02,245.806 1017.73,248.874 1027.45,254.977 1037.16,261.038 1046.88,264.052 1056.6,269.339 1066.31,271.969 1076.03,271.969 1085.75,276.206 1095.46,282.522 1105.18,284.617 1114.89,288.647 1124.61,292.656 1134.33,294.654 1144.04,296.404 1153.76,298.15 1163.48,299.892 1173.19,303.18 1182.91,306.454 1192.62,308.086 1202.34,311.214 1212.06,314.33 1221.77,314.33 1231.49,315.853 1241.2,318.889 1250.92,321.914 1260.64,325.151 1270.35,328.375 1280.07,328.375 1289.79,332.229 1299.5,334.149 1309.22,337.974 1318.93,340.287 1328.65,344.893 1338.37,349.489 1348.08,354.074 1357.8,354.074 1367.51,356.355 1377.23,360.755 1386.95,360.755 1396.66,362.945 1406.38,365.244 1416.1,365.244 1425.81,369.82 1435.53,369.82 1445.24,369.82 1454.96,369.82 1464.68,369.82 1474.39,372.006 1484.11,374.184 1493.83,376.524 1503.54,378.855 1513.26,381.179 1522.97,383.529 1532.69,388.205 1542.41,388.205 1552.12,390.508 1561.84,390.508 1571.55,392.804 1581.27,397.71 1590.99,402.581 1600.7,402.581 1610.42,402.581 1620.14,402.581 1629.85,402.581 1639.57,404.828 1649.28,409.3 1659,409.3 1668.72,409.3 1678.43,411.641 1688.15,411.641 1697.86,411.641 1707.58,416.835 1717.3,416.835 1727.01,416.835 1736.73,416.835 1746.45,416.835 1756.16,416.835 1765.88,416.835 1775.59,416.835 1785.31,416.835 1795.03,416.835 1804.74,416.835 1814.46,419.611 1824.18,419.611 1833.89,419.611 1843.61,425.306 1853.32,425.306 1863.04,430.948 1872.76,433.672 1882.47,433.672 1892.19,433.672 1901.9,439.734 1911.62,439.734 1921.34,445.732 1931.05,445.732 1940.77,448.679 1950.49,448.679 1960.2,448.679 1969.92,451.602 1979.63,454.509 1989.35,454.509 1999.07,460.462 2008.78,460.462 2018.5,460.462 2028.21,463.353 2037.93,466.229 2047.65,466.229 2057.36,469.157 2067.08,472.068 2076.8,474.833 2086.51,474.833 2096.23,474.833 2105.94,477.581 2115.66,477.581 2125.38,477.581 2135.09,477.581 2144.81,477.581 2154.52,477.581 2164.24,477.581 2173.96,479.996 2183.67,479.996 2193.39,482.362 2203.11,482.362 2212.82,482.362 2222.54,482.362 2232.25,484.538 2241.97,484.538 2251.69,484.538 2261.4,486.58 2271.12,486.58 2280.84,490.673 2290.55,490.673 2300.27,490.673 2309.98,492.722 2319.7,492.722 2329.42,492.722 2339.13,494.74 2348.85,494.74 2358.56,496.746 2368.28,496.746 2378,496.746 2387.71,496.746 2397.43,496.746 2407.15,498.787 2416.86,502.828 2426.58,502.828 2436.29,502.828 2446.01,502.828 2455.73,502.828 2465.44,504.892 2475.16,504.892 2484.87,504.892 2494.59,504.892 2504.31,504.892 2514.02,504.892 2523.74,507.043 2533.46,507.043 2543.17,507.043 2552.89,507.043 "/>
<path clip-path="url(#clip692)" d="M221.006 47.2441 L230.722 57.5832 L240.439 77.9966 L250.155 77.9966 L259.871 77.9966 L269.587 77.9966 L279.303 87.165 L289.019 87.165 L298.736 87.165 L308.452 87.165 L318.168 92.4268 L327.884 92.4268 L337.6 106.821 L347.317 113.851 L357.033 113.851 L366.749 113.851 L376.465 121.314 L386.181 127.448 L395.897 127.448 L405.614 127.448 L415.33 134.653 L425.046 134.653 L434.762 141.908 L444.478 141.908 L454.194 147.602 L463.911 147.602 L473.627 153.099 L483.343 158.909 L493.059 158.909 L502.775 165.282 L512.491 165.282 L522.208 165.282 L531.924 165.282 L541.64 165.282 L551.356 171.489 L561.072 177.858 L570.789 177.858 L580.505 192.136 L590.221 192.136 L599.937 192.136 L609.653 198.844 L619.369 198.844 L629.086 206.408 L638.802 213.872 L648.518 220.75 L658.234 226.219 L667.95 241.046 L677.666 247.583 L687.383 254.114 L697.099 254.114 L706.815 254.114 L716.531 254.114 L726.247 254.114 L735.964 254.114 L745.68 275.141 L755.396 275.141 L765.112 275.141 L774.828 280.598 L784.544 284.283 L794.261 293.629 L803.977 293.629 L813.693 293.629 L823.409 293.629 L833.125 293.629 L842.841 299.572 L852.558 299.572 L862.274 299.572 L871.99 299.572 L881.706 305.298 L891.422 310.952 L901.138 316.472 L910.855 316.472 L920.571 321.919 L930.287 321.919 L940.003 321.919 L949.719 321.919 L959.436 321.919 L969.152 321.919 L978.868 321.919 L988.584 330.292 L998.3 330.292 L1008.02 330.292 L1017.73 333.159 L1027.45 341.271 L1037.16 348.54 L1046.88 353.154 L1056.6 358.795 L1066.31 360.955 L1076.03 360.955 L1085.75 365.379 L1095.46 372.268 L1105.18 376.293 L1114.89 381.4 L1124.61 385.519 L1134.33 386.833 L1144.04 388.852 L1153.76 390.597 L1163.48 392.891 L1173.19 398.588 L1182.91 403.058 L1192.62 404.675 L1202.34 409.709 L1212.06 413.692 L1221.77 413.692 L1231.49 417.283 L1241.2 422.216 L1250.92 424.816 L1260.64 428.893 L1270.35 433.055 L1280.07 433.055 L1289.79 435.811 L1299.5 437.61 L1309.22 440.403 L1318.93 441.715 L1328.65 447.203 L1338.37 449.65 L1348.08 455.702 L1357.8 455.702 L1367.51 457.699 L1377.23 461.244 L1386.95 461.244 L1396.66 463.01 L1406.38 465.645 L1416.1 465.645 L1425.81 470.447 L1435.53 470.447 L1445.24 470.447 L1454.96 470.447 L1464.68 470.447 L1474.39 472.208 L1484.11 475.703 L1493.83 477.694 L1503.54 479.761 L1513.26 481.788 L1522.97 485.042 L1532.69 491.222 L1542.41 491.222 L1552.12 492.962 L1561.84 492.962 L1571.55 495.98 L1581.27 503.109 L1590.99 507.237 L1600.7 507.237 L1610.42 507.237 L1620.14 507.237 L1629.85 507.237 L1639.57 510.655 L1649.28 515.274 L1659 515.274 L1668.72 515.274 L1678.43 517.481 L1688.15 517.481 L1697.86 517.481 L1707.58 522.908 L1717.3 522.908 L1727.01 522.908 L1736.73 522.908 L1746.45 522.908 L1756.16 522.908 L1765.88 522.908 L1775.59 522.908 L1785.31 522.908 L1795.03 522.908 L1804.74 522.908 L1814.46 526.463 L1824.18 526.463 L1833.89 526.463 L1843.61 535.51 L1853.32 535.51 L1863.04 543.109 L1872.76 547.18 L1882.47 547.18 L1892.19 547.18 L1901.9 554.41 L1911.62 554.41 L1921.34 564.329 L1931.05 564.329 L1940.77 569.354 L1950.49 569.354 L1960.2 569.354 L1969.92 573.263 L1979.63 578.625 L1989.35 578.625 L1999.07 584.397 L2008.78 584.397 L2018.5 584.397 L2028.21 588.254 L2037.93 594.045 L2047.65 594.045 L2057.36 595.311 L2067.08 600.819 L2076.8 603.351 L2086.51 603.351 L2096.23 603.351 L2105.94 605.874 L2115.66 605.874 L2125.38 605.874 L2135.09 605.874 L2144.81 605.874 L2154.52 605.874 L2164.24 605.874 L2173.96 608.349 L2183.67 608.349 L2193.39 611.792 L2203.11 611.792 L2212.82 611.792 L2222.54 611.792 L2232.25 613.972 L2241.97 613.972 L2251.69 613.972 L2261.4 615.622 L2271.12 615.622 L2280.84 622.949 L2290.55 622.949 L2300.27 622.949 L2309.98 625.429 L2319.7 625.429 L2329.42 625.429 L2339.13 627.733 L2348.85 627.733 L2358.56 632.096 L2368.28 632.096 L2378 632.096 L2387.71 632.096 L2397.43 632.096 L2407.15 637.323 L2416.86 642.702 L2426.58 642.702 L2436.29 642.702 L2446.01 642.702 L2455.73 642.702 L2465.44 650.074 L2475.16 650.074 L2484.87 650.074 L2494.59 650.074 L2504.31 650.074 L2514.02 650.074 L2523.74 650.562 L2533.46 650.562 L2543.17 650.562 L2552.89 650.562 L2552.89 386.432 L2543.17 386.432 L2533.46 386.432 L2523.74 386.432 L2514.02 385.646 L2504.31 385.646 L2494.59 385.646 L2484.87 385.646 L2475.16 385.646 L2465.44 385.646 L2455.73 384.607 L2446.01 384.607 L2436.29 384.607 L2426.58 384.607 L2416.86 384.607 L2407.15 383.924 L2397.43 383.602 L2387.71 383.602 L2378 383.602 L2368.28 383.602 L2358.56 383.602 L2348.85 380.228 L2339.13 380.228 L2329.42 378.776 L2319.7 378.776 L2309.98 378.776 L2300.27 376.27 L2290.55 376.27 L2280.84 376.27 L2271.12 372.855 L2261.4 372.855 L2251.69 372.027 L2241.97 372.027 L2232.25 372.027 L2222.54 371.331 L2212.82 371.331 L2203.11 371.331 L2193.39 371.331 L2183.67 368.381 L2173.96 368.381 L2164.24 366.541 L2154.52 366.541 L2144.81 366.541 L2135.09 366.541 L2125.38 366.541 L2115.66 366.541 L2105.94 366.541 L2096.23 365.264 L2086.51 365.264 L2076.8 365.264 L2067.08 363.725 L2057.36 361.786 L2047.65 359.799 L2037.93 359.799 L2028.21 358.428 L2018.5 356.751 L2008.78 356.751 L1999.07 356.751 L1989.35 352.29 L1979.63 352.29 L1969.92 350.03 L1960.2 347.592 L1950.49 347.592 L1940.77 347.592 L1931.05 345.582 L1921.34 345.582 L1911.62 341.746 L1901.9 341.746 L1892.19 337.808 L1882.47 337.808 L1872.76 337.808 L1863.04 335.002 L1853.32 331.513 L1843.61 331.513 L1833.89 328.6 L1824.18 328.6 L1814.46 328.6 L1804.74 326.271 L1795.03 326.271 L1785.31 326.271 L1775.59 326.271 L1765.88 326.271 L1756.16 326.271 L1746.45 326.271 L1736.73 326.271 L1727.01 326.271 L1717.3 326.271 L1707.58 326.271 L1697.86 321.844 L1688.15 321.844 L1678.43 321.844 L1668.72 320.454 L1659 320.454 L1649.28 320.454 L1639.57 317.431 L1629.85 315.712 L1620.14 315.712 L1610.42 315.712 L1600.7 315.712 L1590.99 315.712 L1581.27 310.182 L1571.55 305.429 L1561.84 302.483 L1552.12 302.483 L1542.41 300.845 L1532.69 300.845 L1522.97 298.513 L1513.26 296.19 L1503.54 294.595 L1493.83 293.355 L1484.11 290.935 L1474.39 288.363 L1464.68 287.345 L1454.96 287.345 L1445.24 287.345 L1435.53 287.345 L1425.81 287.345 L1416.1 284.236 L1406.38 284.236 L1396.66 281.622 L1386.95 280.332 L1377.23 280.332 L1367.51 277.573 L1357.8 275.852 L1348.08 275.852 L1338.37 272.317 L1328.65 268.555 L1318.93 264.546 L1309.22 262.885 L1299.5 261.844 L1289.79 259.827 L1280.07 255.364 L1270.35 255.364 L1260.64 252.332 L1250.92 249.203 L1241.2 246.707 L1231.49 243.298 L1221.77 241.58 L1212.06 241.58 L1202.34 238.117 L1192.62 234.343 L1182.91 232.88 L1173.19 229.42 L1163.48 226.03 L1153.76 224.289 L1144.04 222.549 L1134.33 220.798 L1124.61 219.088 L1114.89 215.411 L1105.18 211.795 L1095.46 209.982 L1085.75 204.635 L1076.03 200.9 L1066.31 200.9 L1056.6 199.086 L1046.88 195.765 L1037.16 193.268 L1027.45 187.652 L1017.73 181.735 L1008.02 178.803 L998.3 178.803 L988.584 178.803 L978.868 172.066 L969.152 172.066 L959.436 172.066 L949.719 172.066 L940.003 172.066 L930.287 172.066 L920.571 172.066 L910.855 169.093 L901.138 169.093 L891.422 165.727 L881.706 162.96 L871.99 159.985 L862.274 159.985 L852.558 159.985 L842.841 159.985 L833.125 157.434 L823.409 157.434 L813.693 157.434 L803.977 157.434 L794.261 157.434 L784.544 150.175 L774.828 147.065 L765.112 143.098 L755.396 143.098 L745.68 143.098 L735.964 131.49 L726.247 131.49 L716.531 131.49 L706.815 131.49 L697.099 131.49 L687.383 131.49 L677.666 128.577 L667.95 126.343 L658.234 118.5 L648.518 114.972 L638.802 111.14 L629.086 106.618 L619.369 102.072 L609.653 102.072 L599.937 98.8555 L590.221 98.8555 L580.505 98.8555 L570.789 92.468 L561.072 92.468 L551.356 89.4454 L541.64 86.5278 L531.924 86.5278 L522.208 86.5278 L512.491 86.5278 L502.775 86.5278 L493.059 83.3136 L483.343 83.3136 L473.627 80.4108 L463.911 76.7879 L454.194 76.7879 L444.478 73.4214 L434.762 73.4214 L425.046 69.7132 L415.33 69.7132 L405.614 66.3086 L395.897 66.3086 L386.181 66.3086 L376.465 63.3795 L366.749 61.0834 L357.033 61.0834 L347.317 61.0834 L337.6 57.8537 L327.884 53.7467 L318.168 53.7467 L308.452 50.886 L298.736 50.886 L289.019 50.886 L279.303 50.886 L269.587 49.8268 L259.871 49.8268 L250.155 49.8268 L240.439 49.8268 L230.722 48.1056 L221.006 47.2441  Z" fill="#e26f46" fill-rule="evenodd" fill-opacity="0.2"/>
<polyline clip-path="url(#clip692)" style="stroke:#e26f46; stroke-linecap:round; stroke-linejoin:round; stroke-width:4; stroke-opacity:0; fill:none" points="221.006,47.2441 230.722,57.5832 240.439,77.9966 250.155,77.9966 259.871,77.9966 269.587,77.9966 279.303,87.165 289.019,87.165 298.736,87.165 308.452,87.165 318.168,92.4268 327.884,92.4268 337.6,106.821 347.317,113.851 357.033,113.851 366.749,113.851 376.465,121.314 386.181,127.448 395.897,127.448 405.614,127.448 415.33,134.653 425.046,134.653 434.762,141.908 444.478,141.908 454.194,147.602 463.911,147.602 473.627,153.099 483.343,158.909 493.059,158.909 502.775,165.282 512.491,165.282 522.208,165.282 531.924,165.282 541.64,165.282 551.356,171.489 561.072,177.858 570.789,177.858 580.505,192.136 590.221,192.136 599.937,192.136 609.653,198.844 619.369,198.844 629.086,206.408 638.802,213.872 648.518,220.75 658.234,226.219 667.95,241.046 677.666,247.583 687.383,254.114 697.099,254.114 706.815,254.114 716.531,254.114 726.247,254.114 735.964,254.114 745.68,275.141 755.396,275.141 765.112,275.141 774.828,280.598 784.544,284.283 794.261,293.629 803.977,293.629 813.693,293.629 823.409,293.629 833.125,293.629 842.841,299.572 852.558,299.572 862.274,299.572 871.99,299.572 881.706,305.298 891.422,310.952 901.138,316.472 910.855,316.472 920.571,321.919 930.287,321.919 940.003,321.919 949.719,321.919 959.436,321.919 969.152,321.919 978.868,321.919 988.584,330.292 998.3,330.292 1008.02,330.292 1017.73,333.159 1027.45,341.271 1037.16,348.54 1046.88,353.154 1056.6,358.795 1066.31,360.955 1076.03,360.955 1085.75,365.379 1095.46,372.268 1105.18,376.293 1114.89,381.4 1124.61,385.519 1134.33,386.833 1144.04,388.852 1153.76,390.597 1163.48,392.891 1173.19,398.588 1182.91,403.058 1192.62,404.675 1202.34,409.709 1212.06,413.692 1221.77,413.692 1231.49,417.283 1241.2,422.216 1250.92,424.816 1260.64,428.893 1270.35,433.055 1280.07,433.055 1289.79,435.811 1299.5,437.61 1309.22,440.403 1318.93,441.715 1328.65,447.203 1338.37,449.65 1348.08,455.702 1357.8,455.702 1367.51,457.699 1377.23,461.244 1386.95,461.244 1396.66,463.01 1406.38,465.645 1416.1,465.645 1425.81,470.447 1435.53,470.447 1445.24,470.447 1454.96,470.447 1464.68,470.447 1474.39,472.208 1484.11,475.703 1493.83,477.694 1503.54,479.761 1513.26,481.788 1522.97,485.042 1532.69,491.222 1542.41,491.222 1552.12,492.962 1561.84,492.962 1571.55,495.98 1581.27,503.109 1590.99,507.237 1600.7,507.237 1610.42,507.237 1620.14,507.237 1629.85,507.237 1639.57,510.655 1649.28,515.274 1659,515.274 1668.72,515.274 1678.43,517.481 1688.15,517.481 1697.86,517.481 1707.58,522.908 1717.3,522.908 1727.01,522.908 1736.73,522.908 1746.45,522.908 1756.16,522.908 1765.88,522.908 1775.59,522.908 1785.31,522.908 1795.03,522.908 1804.74,522.908 1814.46,526.463 1824.18,526.463 1833.89,526.463 1843.61,535.51 1853.32,535.51 1863.04,543.109 1872.76,547.18 1882.47,547.18 1892.19,547.18 1901.9,554.41 1911.62,554.41 1921.34,564.329 1931.05,564.329 1940.77,569.354 1950.49,569.354 1960.2,569.354 1969.92,573.263 1979.63,578.625 1989.35,578.625 1999.07,584.397 2008.78,584.397 2018.5,584.397 2028.21,588.254 2037.93,594.045 2047.65,594.045 2057.36,595.311 2067.08,600.819 2076.8,603.351 2086.51,603.351 2096.23,603.351 2105.94,605.874 2115.66,605.874 2125.38,605.874 2135.09,605.874 2144.81,605.874 2154.52,605.874 2164.24,605.874 2173.96,608.349 2183.67,608.349 2193.39,611.792 2203.11,611.792 2212.82,611.792 2222.54,611.792 2232.25,613.972 2241.97,613.972 2251.69,613.972 2261.4,615.622 2271.12,615.622 2280.84,622.949 2290.55,622.949 2300.27,622.949 2309.98,625.429 2319.7,625.429 2329.42,625.429 2339.13,627.733 2348.85,627.733 2358.56,632.096 2368.28,632.096 2378,632.096 2387.71,632.096 2397.43,632.096 2407.15,637.323 2416.86,642.702 2426.58,642.702 2436.29,642.702 2446.01,642.702 2455.73,642.702 2465.44,650.074 2475.16,650.074 2484.87,650.074 2494.59,650.074 2504.31,650.074 2514.02,650.074 2523.74,650.562 2533.46,650.562 2543.17,650.562 2552.89,650.562 "/>
<path clip-path="url(#clip690)" d="M1524.47 294.847 L1817.7 294.847 L1817.7 87.4866 L1524.47 87.4866  Z" fill="#ffffff" fill-rule="evenodd" fill-opacity="1"/>
<polyline clip-path="url(#clip690)" style="stroke:#000000; stroke-linecap:round; stroke-linejoin:round; stroke-width:4; stroke-opacity:1; fill:none" points="1524.47,294.847 1817.7,294.847 1817.7,87.4866 1524.47,87.4866 1524.47,294.847 "/>
<polyline clip-path="url(#clip690)" style="stroke:#000000; stroke-linecap:round; stroke-linejoin:round; stroke-width:4; stroke-opacity:1; fill:none" points="1542.82,139.327 1652.94,139.327 "/>
<path clip-path="url(#clip690)" d="M1687.79 120.588 L1687.79 124.13 L1683.72 124.13 Q1681.43 124.13 1680.53 125.056 Q1679.65 125.982 1679.65 128.389 L1679.65 130.681 L1686.66 130.681 L1686.66 133.991 L1679.65 133.991 L1679.65 156.607 L1675.36 156.607 L1675.36 133.991 L1671.29 133.991 L1671.29 130.681 L1675.36 130.681 L1675.36 128.875 Q1675.36 124.547 1677.38 122.579 Q1679.39 120.588 1683.77 120.588 L1687.79 120.588 Z" fill="#000000" fill-rule="nonzero" fill-opacity="1" /><path clip-path="url(#clip690)" d="M1706.38 134.662 Q1705.66 134.246 1704.81 134.06 Q1703.97 133.852 1702.96 133.852 Q1699.35 133.852 1697.4 136.213 Q1695.48 138.551 1695.48 142.949 L1695.48 156.607 L1691.2 156.607 L1691.2 130.681 L1695.48 130.681 L1695.48 134.709 Q1696.82 132.347 1698.97 131.213 Q1701.13 130.056 1704.21 130.056 Q1704.65 130.056 1705.18 130.125 Q1705.71 130.172 1706.36 130.287 L1706.38 134.662 Z" fill="#000000" fill-rule="nonzero" fill-opacity="1" /><path clip-path="url(#clip690)" d="M1731.98 142.579 L1731.98 144.662 L1712.4 144.662 Q1712.68 149.06 1715.04 151.375 Q1717.42 153.667 1721.66 153.667 Q1724.11 153.667 1726.41 153.065 Q1728.72 152.463 1730.99 151.259 L1730.99 155.287 Q1728.7 156.259 1726.29 156.769 Q1723.88 157.278 1721.41 157.278 Q1715.2 157.278 1711.57 153.667 Q1707.96 150.056 1707.96 143.898 Q1707.96 137.533 1711.38 133.806 Q1714.83 130.056 1720.66 130.056 Q1725.9 130.056 1728.93 133.435 Q1731.98 136.792 1731.98 142.579 M1727.72 141.329 Q1727.68 137.834 1725.76 135.75 Q1723.86 133.667 1720.71 133.667 Q1717.15 133.667 1714.99 135.681 Q1712.86 137.695 1712.54 141.352 L1727.72 141.329 Z" fill="#000000" fill-rule="nonzero" fill-opacity="1" /><path clip-path="url(#clip690)" d="M1741.52 143.667 Q1741.52 148.366 1743.44 151.051 Q1745.39 153.713 1748.77 153.713 Q1752.15 153.713 1754.09 151.051 Q1756.03 148.366 1756.03 143.667 Q1756.03 138.968 1754.09 136.306 Q1752.15 133.621 1748.77 133.621 Q1745.39 133.621 1743.44 136.306 Q1741.52 138.968 1741.52 143.667 M1756.03 152.718 Q1754.69 155.033 1752.63 156.167 Q1750.6 157.278 1747.72 157.278 Q1743.03 157.278 1740.06 153.528 Q1737.12 149.778 1737.12 143.667 Q1737.12 137.556 1740.06 133.806 Q1743.03 130.056 1747.72 130.056 Q1750.6 130.056 1752.63 131.19 Q1754.69 132.301 1756.03 134.616 L1756.03 130.681 L1760.29 130.681 L1760.29 166.468 L1756.03 166.468 L1756.03 152.718 Z" fill="#000000" fill-rule="nonzero" fill-opacity="1" /><polyline clip-path="url(#clip690)" style="stroke:#009af9; stroke-linecap:round; stroke-linejoin:round; stroke-width:4; stroke-opacity:1; fill:none" points="1542.82,191.167 1652.94,191.167 "/>
<path clip-path="url(#clip690)" d="M1693 192.799 L1693 208.447 L1688.74 208.447 L1688.74 192.937 Q1688.74 189.257 1687.31 187.428 Q1685.87 185.6 1683 185.6 Q1679.55 185.6 1677.56 187.799 Q1675.57 189.998 1675.57 193.794 L1675.57 208.447 L1671.29 208.447 L1671.29 172.428 L1675.57 172.428 L1675.57 186.549 Q1677.1 184.211 1679.16 183.053 Q1681.24 181.896 1683.95 181.896 Q1688.42 181.896 1690.71 184.674 Q1693 187.428 1693 192.799 Z" fill="#000000" fill-rule="nonzero" fill-opacity="1" /><path clip-path="url(#clip690)" d="M1727.56 176.549 L1727.56 181.479 Q1725.2 179.28 1722.52 178.192 Q1719.85 177.104 1716.85 177.104 Q1710.92 177.104 1707.77 180.738 Q1704.62 184.35 1704.62 191.201 Q1704.62 198.03 1707.77 201.664 Q1710.92 205.275 1716.85 205.275 Q1719.85 205.275 1722.52 204.187 Q1725.2 203.099 1727.56 200.9 L1727.56 205.785 Q1725.11 207.451 1722.35 208.285 Q1719.62 209.118 1716.57 209.118 Q1708.72 209.118 1704.21 204.326 Q1699.69 199.511 1699.69 191.201 Q1699.69 182.868 1704.21 178.076 Q1708.72 173.262 1716.57 173.262 Q1719.67 173.262 1722.4 174.095 Q1725.16 174.905 1727.56 176.549 Z" fill="#000000" fill-rule="nonzero" fill-opacity="1" /><path clip-path="url(#clip690)" d="M1751.17 192.243 Q1752.68 192.752 1754.09 194.419 Q1755.53 196.086 1756.96 199.002 L1761.71 208.447 L1756.68 208.447 L1752.26 199.581 Q1750.55 196.109 1748.93 194.974 Q1747.33 193.84 1744.55 193.84 L1739.46 193.84 L1739.46 208.447 L1734.78 208.447 L1734.78 173.887 L1745.34 173.887 Q1751.27 173.887 1754.18 176.363 Q1757.1 178.84 1757.1 183.84 Q1757.1 187.104 1755.57 189.257 Q1754.07 191.41 1751.17 192.243 M1739.46 177.729 L1739.46 189.998 L1745.34 189.998 Q1748.72 189.998 1750.43 188.447 Q1752.17 186.873 1752.17 183.84 Q1752.17 180.808 1750.43 179.28 Q1748.72 177.729 1745.34 177.729 L1739.46 177.729 Z" fill="#000000" fill-rule="nonzero" fill-opacity="1" /><path clip-path="url(#clip690)" d="M1767.72 173.887 L1774.69 173.887 L1783.51 197.405 L1792.38 173.887 L1799.34 173.887 L1799.34 208.447 L1794.78 208.447 L1794.78 178.1 L1785.87 201.803 L1781.17 201.803 L1772.26 178.1 L1772.26 208.447 L1767.72 208.447 L1767.72 173.887 Z" fill="#000000" fill-rule="nonzero" fill-opacity="1" /><polyline clip-path="url(#clip690)" style="stroke:#e26f46; stroke-linecap:round; stroke-linejoin:round; stroke-width:4; stroke-opacity:1; fill:none" points="1542.82,243.007 1652.94,243.007 "/>
<path clip-path="url(#clip690)" d="M1675.97 243.782 L1675.97 256.444 L1683.47 256.444 Q1687.24 256.444 1689.04 254.893 Q1690.87 253.319 1690.87 250.101 Q1690.87 246.861 1689.04 245.333 Q1687.24 243.782 1683.47 243.782 L1675.97 243.782 M1675.97 229.569 L1675.97 239.986 L1682.89 239.986 Q1686.31 239.986 1687.98 238.713 Q1689.67 237.416 1689.67 234.777 Q1689.67 232.162 1687.98 230.865 Q1686.31 229.569 1682.89 229.569 L1675.97 229.569 M1671.29 225.727 L1683.23 225.727 Q1688.58 225.727 1691.48 227.949 Q1694.37 230.171 1694.37 234.268 Q1694.37 237.44 1692.89 239.315 Q1691.41 241.189 1688.54 241.652 Q1691.98 242.393 1693.88 244.754 Q1695.8 247.092 1695.8 250.611 Q1695.8 255.24 1692.66 257.763 Q1689.51 260.287 1683.7 260.287 L1671.29 260.287 L1671.29 225.727 Z" fill="#000000" fill-rule="nonzero" fill-opacity="1" /><path clip-path="url(#clip690)" d="M1715.36 230.333 L1709.02 247.532 L1721.73 247.532 L1715.36 230.333 M1712.72 225.727 L1718.03 225.727 L1731.2 260.287 L1726.34 260.287 L1723.19 251.421 L1707.61 251.421 L1704.46 260.287 L1699.53 260.287 L1712.72 225.727 Z" fill="#000000" fill-rule="nonzero" fill-opacity="1" /><path clip-path="url(#clip690)" d="M1752.63 244.083 Q1754.14 244.592 1755.55 246.259 Q1756.98 247.926 1758.42 250.842 L1763.16 260.287 L1758.14 260.287 L1753.72 251.421 Q1752.01 247.949 1750.39 246.814 Q1748.79 245.68 1746.01 245.68 L1740.92 245.68 L1740.92 260.287 L1736.24 260.287 L1736.24 225.727 L1746.8 225.727 Q1752.72 225.727 1755.64 228.203 Q1758.56 230.68 1758.56 235.68 Q1758.56 238.944 1757.03 241.097 Q1755.53 243.25 1752.63 244.083 M1740.92 229.569 L1740.92 241.838 L1746.8 241.838 Q1750.18 241.838 1751.89 240.287 Q1753.63 238.713 1753.63 235.68 Q1753.63 232.648 1751.89 231.12 Q1750.18 229.569 1746.8 229.569 L1740.92 229.569 Z" fill="#000000" fill-rule="nonzero" fill-opacity="1" /><path clip-path="url(#clip690)" d="M1760.94 225.727 L1790.18 225.727 L1790.18 229.662 L1777.91 229.662 L1777.91 260.287 L1773.21 260.287 L1773.21 229.662 L1760.94 229.662 L1760.94 225.727 Z" fill="#000000" fill-rule="nonzero" fill-opacity="1" /></svg>
