<?xml version="1.0" encoding="utf-8"?>
<svg xmlns="http://www.w3.org/2000/svg" xmlns:xlink="http://www.w3.org/1999/xlink" width="480" height="360" viewBox="0 0 1920 1440">
<defs>
  <clipPath id="clip810">
    <rect x="0" y="0" width="1920" height="1440"/>
  </clipPath>
</defs>
<path clip-path="url(#clip810)" d="M0 1440 L1920 1440 L1920 0 L0 0  Z" fill="#ffffff" fill-rule="evenodd" fill-opacity="1"/>
<defs>
  <clipPath id="clip811">
    <rect x="384" y="0" width="1345" height="1345"/>
  </clipPath>
</defs>
<path clip-path="url(#clip810)" d="M221.006 1254.52 L1872.76 1254.52 L1872.76 47.2441 L221.006 47.2441  Z" fill="#ffffff" fill-rule="evenodd" fill-opacity="1"/>
<defs>
  <clipPath id="clip812">
    <rect x="221" y="47" width="1653" height="1208"/>
  </clipPath>
</defs>
<polyline clip-path="url(#clip812)" style="stroke:#000000; stroke-linecap:round; stroke-linejoin:round; stroke-width:2; stroke-opacity:0.1; fill:none" points="221.006,1254.52 221.006,47.2441 "/>
<polyline clip-path="url(#clip812)" style="stroke:#000000; stroke-linecap:round; stroke-linejoin:round; stroke-width:2; stroke-opacity:0.1; fill:none" points="521.324,1254.52 521.324,47.2441 "/>
<polyline clip-path="url(#clip812)" style="stroke:#000000; stroke-linecap:round; stroke-linejoin:round; stroke-width:2; stroke-opacity:0.1; fill:none" points="821.642,1254.52 821.642,47.2441 "/>
<polyline clip-path="url(#clip812)" style="stroke:#000000; stroke-linecap:round; stroke-linejoin:round; stroke-width:2; stroke-opacity:0.1; fill:none" points="1121.96,1254.52 1121.96,47.2441 "/>
<polyline clip-path="url(#clip812)" style="stroke:#000000; stroke-linecap:round; stroke-linejoin:round; stroke-width:2; stroke-opacity:0.1; fill:none" points="1422.28,1254.52 1422.28,47.2441 "/>
<polyline clip-path="url(#clip812)" style="stroke:#000000; stroke-linecap:round; stroke-linejoin:round; stroke-width:2; stroke-opacity:0.1; fill:none" points="1722.6,1254.52 1722.6,47.2441 "/>
<polyline clip-path="url(#clip812)" style="stroke:#000000; stroke-linecap:round; stroke-linejoin:round; stroke-width:2; stroke-opacity:0.1; fill:none" points="221.006,1254.52 1872.76,1254.52 "/>
<polyline clip-path="url(#clip812)" style="stroke:#000000; stroke-linecap:round; stroke-linejoin:round; stroke-width:2; stroke-opacity:0.1; fill:none" points="221.006,1013.06 1872.76,1013.06 "/>
<polyline clip-path="url(#clip812)" style="stroke:#000000; stroke-linecap:round; stroke-linejoin:round; stroke-width:2; stroke-opacity:0.1; fill:none" points="221.006,771.61 1872.76,771.61 "/>
<polyline clip-path="url(#clip812)" style="stroke:#000000; stroke-linecap:round; stroke-linejoin:round; stroke-width:2; stroke-opacity:0.1; fill:none" points="221.006,530.154 1872.76,530.154 "/>
<polyline clip-path="url(#clip812)" style="stroke:#000000; stroke-linecap:round; stroke-linejoin:round; stroke-width:2; stroke-opacity:0.1; fill:none" points="221.006,288.699 1872.76,288.699 "/>
<polyline clip-path="url(#clip812)" style="stroke:#000000; stroke-linecap:round; stroke-linejoin:round; stroke-width:2; stroke-opacity:0.1; fill:none" points="221.006,47.2441 1872.76,47.2441 "/>
<polyline clip-path="url(#clip810)" style="stroke:#000000; stroke-linecap:round; stroke-linejoin:round; stroke-width:4; stroke-opacity:1; fill:none" points="221.006,1254.52 1872.76,1254.52 "/>
<polyline clip-path="url(#clip810)" style="stroke:#000000; stroke-linecap:round; stroke-linejoin:round; stroke-width:4; stroke-opacity:1; fill:none" points="221.006,1254.52 221.006,1235.62 "/>
<polyline clip-path="url(#clip810)" style="stroke:#000000; stroke-linecap:round; stroke-linejoin:round; stroke-width:4; stroke-opacity:1; fill:none" points="521.324,1254.52 521.324,1235.62 "/>
<polyline clip-path="url(#clip810)" style="stroke:#000000; stroke-linecap:round; stroke-linejoin:round; stroke-width:4; stroke-opacity:1; fill:none" points="821.642,1254.52 821.642,1235.62 "/>
<polyline clip-path="url(#clip810)" style="stroke:#000000; stroke-linecap:round; stroke-linejoin:round; stroke-width:4; stroke-opacity:1; fill:none" points="1121.96,1254.52 1121.96,1235.62 "/>
<polyline clip-path="url(#clip810)" style="stroke:#000000; stroke-linecap:round; stroke-linejoin:round; stroke-width:4; stroke-opacity:1; fill:none" points="1422.28,1254.52 1422.28,1235.62 "/>
<polyline clip-path="url(#clip810)" style="stroke:#000000; stroke-linecap:round; stroke-linejoin:round; stroke-width:4; stroke-opacity:1; fill:none" points="1722.6,1254.52 1722.6,1235.62 "/>
<path clip-path="url(#clip810)" d="M221.006 1281.6 Q217.395 1281.6 215.566 1285.16 Q213.761 1288.7 213.761 1295.83 Q213.761 1302.94 215.566 1306.51 Q217.395 1310.05 221.006 1310.05 Q224.641 1310.05 226.446 1306.51 Q228.275 1302.94 228.275 1295.83 Q228.275 1288.7 226.446 1285.16 Q224.641 1281.6 221.006 1281.6 M221.006 1277.89 Q226.816 1277.89 229.872 1282.5 Q232.951 1287.08 232.951 1295.83 Q232.951 1304.56 229.872 1309.17 Q226.816 1313.75 221.006 1313.75 Q215.196 1313.75 212.117 1309.17 Q209.062 1304.56 209.062 1295.83 Q209.062 1287.08 212.117 1282.5 Q215.196 1277.89 221.006 1277.89 Z" fill="#000000" fill-rule="nonzero" fill-opacity="1" /><path clip-path="url(#clip810)" d="M511.706 1309.14 L519.345 1309.14 L519.345 1282.78 L511.035 1284.45 L511.035 1280.19 L519.299 1278.52 L523.975 1278.52 L523.975 1309.14 L531.614 1309.14 L531.614 1313.08 L511.706 1313.08 L511.706 1309.14 Z" fill="#000000" fill-rule="nonzero" fill-opacity="1" /><path clip-path="url(#clip810)" d="M816.295 1309.14 L832.615 1309.14 L832.615 1313.08 L810.67 1313.08 L810.67 1309.14 Q813.332 1306.39 817.916 1301.76 Q822.522 1297.11 823.703 1295.77 Q825.948 1293.24 826.828 1291.51 Q827.73 1289.75 827.73 1288.06 Q827.73 1285.3 825.786 1283.57 Q823.865 1281.83 820.763 1281.83 Q818.564 1281.83 816.11 1282.59 Q813.68 1283.36 810.902 1284.91 L810.902 1280.19 Q813.726 1279.05 816.18 1278.47 Q818.633 1277.89 820.67 1277.89 Q826.041 1277.89 829.235 1280.58 Q832.429 1283.27 832.429 1287.76 Q832.429 1289.89 831.619 1291.81 Q830.832 1293.7 828.726 1296.3 Q828.147 1296.97 825.045 1300.19 Q821.943 1303.38 816.295 1309.14 Z" fill="#000000" fill-rule="nonzero" fill-opacity="1" /><path clip-path="url(#clip810)" d="M1126.21 1294.45 Q1129.56 1295.16 1131.44 1297.43 Q1133.34 1299.7 1133.34 1303.03 Q1133.34 1308.15 1129.82 1310.95 Q1126.3 1313.75 1119.82 1313.75 Q1117.64 1313.75 1115.33 1313.31 Q1113.04 1312.89 1110.58 1312.04 L1110.58 1307.52 Q1112.53 1308.66 1114.84 1309.24 Q1117.16 1309.82 1119.68 1309.82 Q1124.08 1309.82 1126.37 1308.08 Q1128.69 1306.34 1128.69 1303.03 Q1128.69 1299.98 1126.53 1298.27 Q1124.4 1296.53 1120.58 1296.53 L1116.56 1296.53 L1116.56 1292.69 L1120.77 1292.69 Q1124.22 1292.69 1126.05 1291.32 Q1127.87 1289.93 1127.87 1287.34 Q1127.87 1284.68 1125.98 1283.27 Q1124.1 1281.83 1120.58 1281.83 Q1118.66 1281.83 1116.46 1282.25 Q1114.26 1282.66 1111.63 1283.54 L1111.63 1279.38 Q1114.29 1278.64 1116.6 1278.27 Q1118.94 1277.89 1121 1277.89 Q1126.32 1277.89 1129.43 1280.33 Q1132.53 1282.73 1132.53 1286.85 Q1132.53 1289.72 1130.88 1291.71 Q1129.24 1293.68 1126.21 1294.45 Z" fill="#000000" fill-rule="nonzero" fill-opacity="1" /><path clip-path="url(#clip810)" d="M1425.29 1282.59 L1413.48 1301.04 L1425.29 1301.04 L1425.29 1282.59 M1424.06 1278.52 L1429.94 1278.52 L1429.94 1301.04 L1434.87 1301.04 L1434.87 1304.93 L1429.94 1304.93 L1429.94 1313.08 L1425.29 1313.08 L1425.29 1304.93 L1409.69 1304.93 L1409.69 1300.42 L1424.06 1278.52 Z" fill="#000000" fill-rule="nonzero" fill-opacity="1" /><path clip-path="url(#clip810)" d="M1712.87 1278.52 L1731.23 1278.52 L1731.23 1282.46 L1717.16 1282.46 L1717.16 1290.93 Q1718.18 1290.58 1719.19 1290.42 Q1720.21 1290.23 1721.23 1290.23 Q1727.02 1290.23 1730.4 1293.4 Q1733.78 1296.58 1733.78 1301.99 Q1733.78 1307.57 1730.31 1310.67 Q1726.83 1313.75 1720.51 1313.75 Q1718.34 1313.75 1716.07 1313.38 Q1713.82 1313.01 1711.42 1312.27 L1711.42 1307.57 Q1713.5 1308.7 1715.72 1309.26 Q1717.94 1309.82 1720.42 1309.82 Q1724.43 1309.82 1726.76 1307.71 Q1729.1 1305.6 1729.1 1301.99 Q1729.1 1298.38 1726.76 1296.27 Q1724.43 1294.17 1720.42 1294.17 Q1718.55 1294.17 1716.67 1294.58 Q1714.82 1295 1712.87 1295.88 L1712.87 1278.52 Z" fill="#000000" fill-rule="nonzero" fill-opacity="1" /><path clip-path="url(#clip810)" d="M932.67 1356.05 Q932.67 1356.95 932.251 1357.18 Q931.832 1357.37 930.673 1357.37 L924.489 1357.37 L919.594 1376.82 Q919.208 1378.53 919.208 1379.98 Q919.208 1381.59 919.691 1382.3 Q920.206 1383.01 921.269 1383.01 Q923.362 1383.01 925.616 1381.11 Q927.903 1379.21 929.835 1374.57 Q930.093 1373.96 930.222 1373.83 Q930.383 1373.67 930.802 1373.67 Q931.607 1373.67 931.607 1374.31 Q931.607 1374.54 931.156 1375.57 Q930.737 1376.6 929.803 1378.11 Q928.901 1379.62 927.71 1381.04 Q926.55 1382.46 924.779 1383.49 Q923.008 1384.49 921.108 1384.49 Q918.435 1384.49 916.728 1382.78 Q915.053 1381.07 915.053 1378.4 Q915.053 1377.53 915.729 1374.76 Q916.406 1371.96 920.077 1357.37 L914.248 1357.37 Q913.443 1357.37 913.121 1357.34 Q912.831 1357.31 912.605 1357.14 Q912.412 1356.95 912.412 1356.57 Q912.412 1355.95 912.67 1355.7 Q912.927 1355.41 913.249 1355.37 Q913.604 1355.31 914.409 1355.31 L920.592 1355.31 L923.169 1344.84 Q923.426 1343.81 924.071 1343.23 Q924.747 1342.62 925.133 1342.56 Q925.52 1342.46 925.81 1342.46 Q926.679 1342.46 927.195 1342.94 Q927.71 1343.39 927.71 1344.23 Q927.71 1344.68 925.005 1355.31 L930.802 1355.31 Q931.542 1355.31 931.832 1355.34 Q932.154 1355.37 932.412 1355.53 Q932.67 1355.7 932.67 1356.05 Z" fill="#000000" fill-rule="nonzero" fill-opacity="1" /><path clip-path="url(#clip810)" d="M976.915 1334.29 Q972.65 1341.61 970.582 1348.77 Q968.513 1355.93 968.513 1363.28 Q968.513 1370.63 970.582 1377.86 Q972.682 1385.05 976.915 1392.34 L971.823 1392.34 Q967.049 1384.86 964.661 1377.64 Q962.306 1370.41 962.306 1363.28 Q962.306 1356.18 964.661 1348.99 Q967.017 1341.8 971.823 1334.29 L976.915 1334.29 Z" fill="#000000" fill-rule="nonzero" fill-opacity="1" /><path clip-path="url(#clip810)" d="M1003.11 1387.06 Q1000.63 1393.42 998.272 1395.36 Q995.917 1397.31 991.97 1397.31 L987.292 1397.31 L987.292 1392.4 L990.729 1392.4 Q993.148 1392.4 994.485 1391.26 Q995.822 1390.11 997.445 1385.85 L998.495 1383.17 L984.077 1348.1 L990.283 1348.1 L1001.42 1375.98 L1012.56 1348.1 L1018.77 1348.1 L1003.11 1387.06 Z" fill="#000000" fill-rule="nonzero" fill-opacity="1" /><path clip-path="url(#clip810)" d="M1057.35 1364.46 L1057.35 1367.32 L1030.42 1367.32 Q1030.8 1373.37 1034.05 1376.55 Q1037.33 1379.7 1043.15 1379.7 Q1046.52 1379.7 1049.68 1378.88 Q1052.86 1378.05 1055.98 1376.39 L1055.98 1381.93 Q1052.83 1383.27 1049.52 1383.97 Q1046.21 1384.67 1042.8 1384.67 Q1034.27 1384.67 1029.27 1379.7 Q1024.31 1374.74 1024.31 1366.27 Q1024.31 1357.52 1029.02 1352.4 Q1033.76 1347.24 1041.78 1347.24 Q1048.98 1347.24 1053.14 1351.89 Q1057.35 1356.5 1057.35 1364.46 M1051.49 1362.74 Q1051.43 1357.93 1048.78 1355.07 Q1046.17 1352.2 1041.85 1352.2 Q1036.94 1352.2 1033.98 1354.97 Q1031.06 1357.74 1030.61 1362.77 L1051.49 1362.74 Z" fill="#000000" fill-rule="nonzero" fill-opacity="1" /><path clip-path="url(#clip810)" d="M1083.16 1365.83 Q1076.06 1365.83 1073.32 1367.45 Q1070.59 1369.07 1070.59 1372.99 Q1070.59 1376.11 1072.62 1377.95 Q1074.69 1379.77 1078.23 1379.77 Q1083.1 1379.77 1086.02 1376.33 Q1088.98 1372.86 1088.98 1367.13 L1088.98 1365.83 L1083.16 1365.83 M1094.84 1363.41 L1094.84 1383.75 L1088.98 1383.75 L1088.98 1378.34 Q1086.98 1381.58 1083.99 1383.14 Q1080.99 1384.67 1076.67 1384.67 Q1071.19 1384.67 1067.95 1381.61 Q1064.73 1378.53 1064.73 1373.37 Q1064.73 1367.36 1068.74 1364.3 Q1072.78 1361.24 1080.77 1361.24 L1088.98 1361.24 L1088.98 1360.67 Q1088.98 1356.63 1086.31 1354.43 Q1083.67 1352.2 1078.86 1352.2 Q1075.81 1352.2 1072.91 1352.94 Q1070.01 1353.67 1067.34 1355.13 L1067.34 1349.72 Q1070.55 1348.48 1073.58 1347.88 Q1076.6 1347.24 1079.47 1347.24 Q1087.2 1347.24 1091.02 1351.25 Q1094.84 1355.26 1094.84 1363.41 Z" fill="#000000" fill-rule="nonzero" fill-opacity="1" /><path clip-path="url(#clip810)" d="M1127.56 1353.57 Q1126.57 1353 1125.4 1352.75 Q1124.25 1352.46 1122.85 1352.46 Q1117.88 1352.46 1115.21 1355.71 Q1112.57 1358.92 1112.57 1364.97 L1112.57 1383.75 L1106.68 1383.75 L1106.68 1348.1 L1112.57 1348.1 L1112.57 1353.64 Q1114.41 1350.39 1117.37 1348.83 Q1120.33 1347.24 1124.57 1347.24 Q1125.17 1347.24 1125.9 1347.34 Q1126.64 1347.4 1127.53 1347.56 L1127.56 1353.57 Z" fill="#000000" fill-rule="nonzero" fill-opacity="1" /><path clip-path="url(#clip810)" d="M1156.43 1349.15 L1156.43 1354.69 Q1153.95 1353.41 1151.27 1352.78 Q1148.6 1352.14 1145.73 1352.14 Q1141.37 1352.14 1139.18 1353.48 Q1137.01 1354.81 1137.01 1357.49 Q1137.01 1359.53 1138.57 1360.7 Q1140.13 1361.85 1144.84 1362.9 L1146.85 1363.34 Q1153.09 1364.68 1155.7 1367.13 Q1158.34 1369.55 1158.34 1373.91 Q1158.34 1378.88 1154.39 1381.77 Q1150.48 1384.67 1143.6 1384.67 Q1140.74 1384.67 1137.62 1384.1 Q1134.53 1383.56 1131.09 1382.44 L1131.09 1376.39 Q1134.34 1378.08 1137.49 1378.94 Q1140.64 1379.77 1143.73 1379.77 Q1147.87 1379.77 1150.09 1378.37 Q1152.32 1376.94 1152.32 1374.36 Q1152.32 1371.97 1150.7 1370.7 Q1149.11 1369.42 1143.67 1368.25 L1141.63 1367.77 Q1136.19 1366.62 1133.77 1364.27 Q1131.35 1361.88 1131.35 1357.74 Q1131.35 1352.71 1134.91 1349.98 Q1138.48 1347.24 1145.03 1347.24 Q1148.28 1347.24 1151.14 1347.72 Q1154.01 1348.19 1156.43 1349.15 Z" fill="#000000" fill-rule="nonzero" fill-opacity="1" /><path clip-path="url(#clip810)" d="M1166.74 1334.29 L1171.83 1334.29 Q1176.61 1341.8 1178.96 1348.99 Q1181.35 1356.18 1181.35 1363.28 Q1181.35 1370.41 1178.96 1377.64 Q1176.61 1384.86 1171.83 1392.34 L1166.74 1392.34 Q1170.97 1385.05 1173.04 1377.86 Q1175.14 1370.63 1175.14 1363.28 Q1175.14 1355.93 1173.04 1348.77 Q1170.97 1341.61 1166.74 1334.29 Z" fill="#000000" fill-rule="nonzero" fill-opacity="1" /><polyline clip-path="url(#clip810)" style="stroke:#000000; stroke-linecap:round; stroke-linejoin:round; stroke-width:4; stroke-opacity:1; fill:none" points="221.006,1254.52 221.006,47.2441 "/>
<polyline clip-path="url(#clip810)" style="stroke:#000000; stroke-linecap:round; stroke-linejoin:round; stroke-width:4; stroke-opacity:1; fill:none" points="221.006,1254.52 239.904,1254.52 "/>
<polyline clip-path="url(#clip810)" style="stroke:#000000; stroke-linecap:round; stroke-linejoin:round; stroke-width:4; stroke-opacity:1; fill:none" points="221.006,1013.06 239.904,1013.06 "/>
<polyline clip-path="url(#clip810)" style="stroke:#000000; stroke-linecap:round; stroke-linejoin:round; stroke-width:4; stroke-opacity:1; fill:none" points="221.006,771.61 239.904,771.61 "/>
<polyline clip-path="url(#clip810)" style="stroke:#000000; stroke-linecap:round; stroke-linejoin:round; stroke-width:4; stroke-opacity:1; fill:none" points="221.006,530.154 239.904,530.154 "/>
<polyline clip-path="url(#clip810)" style="stroke:#000000; stroke-linecap:round; stroke-linejoin:round; stroke-width:4; stroke-opacity:1; fill:none" points="221.006,288.699 239.904,288.699 "/>
<polyline clip-path="url(#clip810)" style="stroke:#000000; stroke-linecap:round; stroke-linejoin:round; stroke-width:4; stroke-opacity:1; fill:none" points="221.006,47.2441 239.904,47.2441 "/>
<path clip-path="url(#clip810)" d="M135.031 1240.32 Q131.42 1240.32 129.591 1243.88 Q127.785 1247.42 127.785 1254.55 Q127.785 1261.66 129.591 1265.23 Q131.42 1268.77 135.031 1268.77 Q138.665 1268.77 140.47 1265.23 Q142.299 1261.66 142.299 1254.55 Q142.299 1247.42 140.47 1243.88 Q138.665 1240.32 135.031 1240.32 M135.031 1236.61 Q140.841 1236.61 143.896 1241.22 Q146.975 1245.8 146.975 1254.55 Q146.975 1263.28 143.896 1267.89 Q140.841 1272.47 135.031 1272.47 Q129.22 1272.47 126.142 1267.89 Q123.086 1263.28 123.086 1254.55 Q123.086 1245.8 126.142 1241.22 Q129.22 1236.61 135.031 1236.61 Z" fill="#000000" fill-rule="nonzero" fill-opacity="1" /><path clip-path="url(#clip810)" d="M155.193 1265.92 L160.077 1265.92 L160.077 1271.8 L155.193 1271.8 L155.193 1265.92 Z" fill="#000000" fill-rule="nonzero" fill-opacity="1" /><path clip-path="url(#clip810)" d="M180.262 1240.32 Q176.651 1240.32 174.822 1243.88 Q173.017 1247.42 173.017 1254.55 Q173.017 1261.66 174.822 1265.23 Q176.651 1268.77 180.262 1268.77 Q183.896 1268.77 185.702 1265.23 Q187.53 1261.66 187.53 1254.55 Q187.53 1247.42 185.702 1243.88 Q183.896 1240.32 180.262 1240.32 M180.262 1236.61 Q186.072 1236.61 189.128 1241.22 Q192.206 1245.8 192.206 1254.55 Q192.206 1263.28 189.128 1267.89 Q186.072 1272.47 180.262 1272.47 Q174.452 1272.47 171.373 1267.89 Q168.318 1263.28 168.318 1254.55 Q168.318 1245.8 171.373 1241.22 Q174.452 1236.61 180.262 1236.61 Z" fill="#000000" fill-rule="nonzero" fill-opacity="1" /><path clip-path="url(#clip810)" d="M136.628 998.863 Q133.017 998.863 131.188 1002.43 Q129.383 1005.97 129.383 1013.1 Q129.383 1020.21 131.188 1023.77 Q133.017 1027.31 136.628 1027.31 Q140.262 1027.31 142.068 1023.77 Q143.896 1020.21 143.896 1013.1 Q143.896 1005.97 142.068 1002.43 Q140.262 998.863 136.628 998.863 M136.628 995.16 Q142.438 995.16 145.494 999.766 Q148.572 1004.35 148.572 1013.1 Q148.572 1021.83 145.494 1026.43 Q142.438 1031.02 136.628 1031.02 Q130.818 1031.02 127.739 1026.43 Q124.683 1021.83 124.683 1013.1 Q124.683 1004.35 127.739 999.766 Q130.818 995.16 136.628 995.16 Z" fill="#000000" fill-rule="nonzero" fill-opacity="1" /><path clip-path="url(#clip810)" d="M156.79 1024.47 L161.674 1024.47 L161.674 1030.34 L156.79 1030.34 L156.79 1024.47 Z" fill="#000000" fill-rule="nonzero" fill-opacity="1" /><path clip-path="url(#clip810)" d="M175.887 1026.41 L192.206 1026.41 L192.206 1030.34 L170.262 1030.34 L170.262 1026.41 Q172.924 1023.65 177.507 1019.03 Q182.114 1014.37 183.294 1013.03 Q185.54 1010.51 186.419 1008.77 Q187.322 1007.01 187.322 1005.32 Q187.322 1002.57 185.378 1000.83 Q183.456 999.095 180.354 999.095 Q178.155 999.095 175.702 999.859 Q173.271 1000.62 170.493 1002.17 L170.493 997.451 Q173.317 996.317 175.771 995.738 Q178.225 995.16 180.262 995.16 Q185.632 995.16 188.827 997.845 Q192.021 1000.53 192.021 1005.02 Q192.021 1007.15 191.211 1009.07 Q190.424 1010.97 188.317 1013.56 Q187.739 1014.23 184.637 1017.45 Q181.535 1020.65 175.887 1026.41 Z" fill="#000000" fill-rule="nonzero" fill-opacity="1" /><path clip-path="url(#clip810)" d="M134.545 757.408 Q130.933 757.408 129.105 760.973 Q127.299 764.515 127.299 771.644 Q127.299 778.751 129.105 782.316 Q130.933 785.857 134.545 785.857 Q138.179 785.857 139.984 782.316 Q141.813 778.751 141.813 771.644 Q141.813 764.515 139.984 760.973 Q138.179 757.408 134.545 757.408 M134.545 753.705 Q140.355 753.705 143.41 758.311 Q146.489 762.894 146.489 771.644 Q146.489 780.371 143.41 784.978 Q140.355 789.561 134.545 789.561 Q128.734 789.561 125.656 784.978 Q122.6 780.371 122.6 771.644 Q122.6 762.894 125.656 758.311 Q128.734 753.705 134.545 753.705 Z" fill="#000000" fill-rule="nonzero" fill-opacity="1" /><path clip-path="url(#clip810)" d="M154.706 783.01 L159.591 783.01 L159.591 788.89 L154.706 788.89 L154.706 783.01 Z" fill="#000000" fill-rule="nonzero" fill-opacity="1" /><path clip-path="url(#clip810)" d="M182.623 758.404 L170.817 776.853 L182.623 776.853 L182.623 758.404 M181.396 754.33 L187.276 754.33 L187.276 776.853 L192.206 776.853 L192.206 780.741 L187.276 780.741 L187.276 788.89 L182.623 788.89 L182.623 780.741 L167.021 780.741 L167.021 776.228 L181.396 754.33 Z" fill="#000000" fill-rule="nonzero" fill-opacity="1" /><path clip-path="url(#clip810)" d="M134.869 515.953 Q131.258 515.953 129.429 519.518 Q127.623 523.06 127.623 530.189 Q127.623 537.296 129.429 540.86 Q131.258 544.402 134.869 544.402 Q138.503 544.402 140.308 540.86 Q142.137 537.296 142.137 530.189 Q142.137 523.06 140.308 519.518 Q138.503 515.953 134.869 515.953 M134.869 512.249 Q140.679 512.249 143.734 516.856 Q146.813 521.439 146.813 530.189 Q146.813 538.916 143.734 543.522 Q140.679 548.106 134.869 548.106 Q129.058 548.106 125.98 543.522 Q122.924 538.916 122.924 530.189 Q122.924 521.439 125.98 516.856 Q129.058 512.249 134.869 512.249 Z" fill="#000000" fill-rule="nonzero" fill-opacity="1" /><path clip-path="url(#clip810)" d="M155.031 541.555 L159.915 541.555 L159.915 547.434 L155.031 547.434 L155.031 541.555 Z" fill="#000000" fill-rule="nonzero" fill-opacity="1" /><path clip-path="url(#clip810)" d="M180.679 528.291 Q177.53 528.291 175.679 530.444 Q173.85 532.597 173.85 536.346 Q173.85 540.073 175.679 542.249 Q177.53 544.402 180.679 544.402 Q183.827 544.402 185.655 542.249 Q187.507 540.073 187.507 536.346 Q187.507 532.597 185.655 530.444 Q183.827 528.291 180.679 528.291 M189.961 513.638 L189.961 517.898 Q188.202 517.064 186.396 516.624 Q184.614 516.185 182.854 516.185 Q178.225 516.185 175.771 519.31 Q173.341 522.435 172.993 528.754 Q174.359 526.74 176.419 525.675 Q178.479 524.587 180.956 524.587 Q186.165 524.587 189.174 527.759 Q192.206 530.907 192.206 536.346 Q192.206 541.671 189.058 544.888 Q185.91 548.106 180.679 548.106 Q174.683 548.106 171.512 543.522 Q168.341 538.916 168.341 530.189 Q168.341 521.995 172.23 517.134 Q176.118 512.249 182.669 512.249 Q184.429 512.249 186.211 512.597 Q188.016 512.944 189.961 513.638 Z" fill="#000000" fill-rule="nonzero" fill-opacity="1" /><path clip-path="url(#clip810)" d="M135.123 274.498 Q131.512 274.498 129.683 278.063 Q127.878 281.604 127.878 288.734 Q127.878 295.84 129.683 299.405 Q131.512 302.947 135.123 302.947 Q138.757 302.947 140.563 299.405 Q142.392 295.84 142.392 288.734 Q142.392 281.604 140.563 278.063 Q138.757 274.498 135.123 274.498 M135.123 270.794 Q140.933 270.794 143.989 275.401 Q147.068 279.984 147.068 288.734 Q147.068 297.461 143.989 302.067 Q140.933 306.651 135.123 306.651 Q129.313 306.651 126.234 302.067 Q123.179 297.461 123.179 288.734 Q123.179 279.984 126.234 275.401 Q129.313 270.794 135.123 270.794 Z" fill="#000000" fill-rule="nonzero" fill-opacity="1" /><path clip-path="url(#clip810)" d="M155.285 300.1 L160.169 300.1 L160.169 305.979 L155.285 305.979 L155.285 300.1 Z" fill="#000000" fill-rule="nonzero" fill-opacity="1" /><path clip-path="url(#clip810)" d="M180.354 289.567 Q177.021 289.567 175.1 291.35 Q173.202 293.132 173.202 296.257 Q173.202 299.382 175.1 301.164 Q177.021 302.947 180.354 302.947 Q183.688 302.947 185.609 301.164 Q187.53 299.359 187.53 296.257 Q187.53 293.132 185.609 291.35 Q183.711 289.567 180.354 289.567 M175.679 287.577 Q172.669 286.836 170.98 284.776 Q169.313 282.715 169.313 279.753 Q169.313 275.609 172.253 273.202 Q175.216 270.794 180.354 270.794 Q185.516 270.794 188.456 273.202 Q191.396 275.609 191.396 279.753 Q191.396 282.715 189.706 284.776 Q188.04 286.836 185.054 287.577 Q188.433 288.364 190.308 290.655 Q192.206 292.947 192.206 296.257 Q192.206 301.28 189.128 303.965 Q186.072 306.651 180.354 306.651 Q174.637 306.651 171.558 303.965 Q168.503 301.28 168.503 296.257 Q168.503 292.947 170.401 290.655 Q172.299 288.364 175.679 287.577 M173.966 280.192 Q173.966 282.878 175.632 284.382 Q177.322 285.887 180.354 285.887 Q183.364 285.887 185.054 284.382 Q186.766 282.878 186.766 280.192 Q186.766 277.507 185.054 276.003 Q183.364 274.498 180.354 274.498 Q177.322 274.498 175.632 276.003 Q173.966 277.507 173.966 280.192 Z" fill="#000000" fill-rule="nonzero" fill-opacity="1" /><path clip-path="url(#clip810)" d="M125.841 60.5889 L133.48 60.5889 L133.48 34.2233 L125.17 35.89 L125.17 31.6308 L133.433 29.9641 L138.109 29.9641 L138.109 60.5889 L145.748 60.5889 L145.748 64.5241 L125.841 64.5241 L125.841 60.5889 Z" fill="#000000" fill-rule="nonzero" fill-opacity="1" /><path clip-path="url(#clip810)" d="M155.193 58.6445 L160.077 58.6445 L160.077 64.5241 L155.193 64.5241 L155.193 58.6445 Z" fill="#000000" fill-rule="nonzero" fill-opacity="1" /><path clip-path="url(#clip810)" d="M180.262 33.0428 Q176.651 33.0428 174.822 36.6076 Q173.017 40.1492 173.017 47.2788 Q173.017 54.3853 174.822 57.9501 Q176.651 61.4917 180.262 61.4917 Q183.896 61.4917 185.702 57.9501 Q187.53 54.3853 187.53 47.2788 Q187.53 40.1492 185.702 36.6076 Q183.896 33.0428 180.262 33.0428 M180.262 29.3391 Q186.072 29.3391 189.128 33.9456 Q192.206 38.5289 192.206 47.2788 Q192.206 56.0056 189.128 60.6121 Q186.072 65.1954 180.262 65.1954 Q174.452 65.1954 171.373 60.6121 Q168.318 56.0056 168.318 47.2788 Q168.318 38.5289 171.373 33.9456 Q174.452 29.3391 180.262 29.3391 Z" fill="#000000" fill-rule="nonzero" fill-opacity="1" /><path clip-path="url(#clip810)" d="M35.7905 670.595 L50.2187 674.17 Q51.0883 674.363 51.3137 674.524 Q51.5391 674.685 51.5391 675.136 Q51.5391 675.491 51.3781 675.716 Q51.2171 675.909 51.056 675.909 L50.895 675.941 Q50.7984 675.941 50.3153 675.877 Q49.8 675.813 48.9627 675.748 Q48.1253 675.684 47.1913 675.684 Q41.9096 675.684 39.4619 678.26 Q36.9821 680.805 36.9821 685.185 Q36.9821 688.212 38.5924 690.917 Q40.2027 693.623 42.7469 695.168 Q45.259 696.714 47.8999 696.714 Q50.3153 696.714 51.8612 695.49 Q53.4071 694.267 53.9224 692.689 L55.114 688.276 Q56.3056 683.639 56.8209 682.318 Q57.304 680.998 58.399 679.903 Q61.4263 676.65 66.1284 676.65 Q70.1863 676.65 74.1154 678.937 Q78.0124 681.223 80.5566 685.152 Q83.0687 689.081 83.0687 693.429 Q83.0687 701.062 78.3344 704.573 L82.0703 707.793 Q82.7788 708.405 82.9076 708.598 Q83.0687 708.759 83.0687 708.985 Q83.0687 709.275 82.8754 709.5 Q82.7144 709.725 82.4246 709.725 Q82.1991 709.725 74.6307 707.825 Q67.0624 705.925 66.9013 705.764 Q66.6437 705.506 66.6437 705.088 Q66.6437 704.315 67.3844 704.315 Q67.5777 704.379 67.8353 704.444 Q70.1541 704.83 71.4101 704.83 Q73.7612 704.83 75.5647 704.025 Q77.336 703.22 78.3666 702.028 Q79.365 700.804 80.0091 699.162 Q80.621 697.519 80.8465 696.135 Q81.0397 694.75 81.0397 693.3 Q81.0397 690.176 79.2362 687.407 Q77.4326 684.605 74.6307 683.027 Q71.8288 681.416 68.8981 681.416 Q67.3522 681.416 66.1606 681.835 Q64.9368 682.254 64.2604 682.834 Q63.5841 683.381 63.0688 684.315 Q62.5535 685.249 62.3603 685.893 Q62.1349 686.505 61.9094 687.471 L60.0415 694.524 Q59.2041 697.358 56.7887 699.387 Q54.3732 701.384 50.6696 701.384 Q46.7727 701.384 43.1656 699.098 Q39.5263 696.779 37.3363 693.011 Q35.1141 689.21 35.1141 685.12 Q35.1141 681.9 36.3702 679.42 Q37.594 676.94 39.8806 675.684 L36.1125 672.495 Q35.3718 671.851 35.243 671.723 Q35.1141 671.562 35.1141 671.336 Q35.1141 670.95 35.3396 670.789 Q35.565 670.595 35.7905 670.595 Z" fill="#000000" fill-rule="nonzero" fill-opacity="1" /><path clip-path="url(#clip810)" d="M65.13 663.095 Q53.9868 663.095 45.0013 658.94 Q41.2333 657.169 38.0771 654.689 Q34.9209 652.209 33.5361 650.567 Q32.1512 648.924 32.1512 648.473 Q32.1512 647.829 32.7953 647.797 Q33.1174 647.797 33.9225 648.667 Q44.7437 659.294 65.13 659.262 Q85.5807 659.262 95.9832 648.924 Q97.1104 647.797 97.4647 647.797 Q98.1088 647.797 98.1088 648.473 Q98.1088 648.924 96.7884 650.502 Q95.4679 652.08 92.4406 654.528 Q89.4132 656.976 85.7096 658.747 Q76.7241 663.095 65.13 663.095 Z" fill="#000000" fill-rule="nonzero" fill-opacity="1" /><path clip-path="url(#clip810)" d="M53.9224 622.527 Q54.8241 622.527 55.0496 622.946 Q55.2428 623.364 55.2428 624.524 L55.2428 630.707 L74.6951 635.603 Q76.4021 635.989 77.8513 635.989 Q79.4616 635.989 80.1701 635.506 Q80.8787 634.991 80.8787 633.928 Q80.8787 631.835 78.9785 629.58 Q77.0784 627.294 72.4407 625.361 Q71.8288 625.104 71.7 624.975 Q71.539 624.814 71.539 624.395 Q71.539 623.59 72.1831 623.59 Q72.4085 623.59 73.4391 624.041 Q74.4697 624.459 75.9834 625.393 Q77.4971 626.295 78.9141 627.487 Q80.3312 628.646 81.3618 630.417 Q82.3601 632.189 82.3601 634.089 Q82.3601 636.762 80.6532 638.469 Q78.9463 640.144 76.2732 640.144 Q75.4037 640.144 72.634 639.467 Q69.8321 638.791 55.2428 635.12 L55.2428 640.949 Q55.2428 641.754 55.2106 642.076 Q55.1784 642.366 55.0174 642.591 Q54.8241 642.785 54.4377 642.785 Q53.8257 642.785 53.5681 642.527 Q53.2782 642.269 53.246 641.947 Q53.1816 641.593 53.1816 640.788 L53.1816 634.604 L42.7147 632.028 Q41.6841 631.77 41.1044 631.126 Q40.4925 630.45 40.4281 630.063 Q40.3315 629.677 40.3315 629.387 Q40.3315 628.517 40.8146 628.002 Q41.2655 627.487 42.1028 627.487 Q42.5537 627.487 53.1816 630.192 L53.1816 624.395 Q53.1816 623.654 53.2138 623.364 Q53.246 623.042 53.4071 622.785 Q53.5681 622.527 53.9224 622.527 Z" fill="#000000" fill-rule="nonzero" fill-opacity="1" /><path clip-path="url(#clip810)" d="M97.4647 617.365 Q97.1426 617.365 96.3375 616.527 Q85.5163 605.899 65.13 605.899 Q44.6793 605.899 34.3412 616.109 Q33.1496 617.365 32.7953 617.365 Q32.1512 617.365 32.1512 616.721 Q32.1512 616.27 33.4716 614.692 Q34.7921 613.081 37.8194 610.666 Q40.8468 608.218 44.5505 606.415 Q53.5359 602.067 65.13 602.067 Q76.2732 602.067 85.2587 606.221 Q89.0268 607.993 92.1829 610.473 Q95.3391 612.952 96.724 614.595 Q98.1088 616.237 98.1088 616.721 Q98.1088 617.365 97.4647 617.365 Z" fill="#000000" fill-rule="nonzero" fill-opacity="1" /><polyline clip-path="url(#clip812)" style="stroke:#000000; stroke-linecap:round; stroke-linejoin:round; stroke-width:4; stroke-opacity:1; fill:none" points="221.006,47.2441 233.019,126.089 245.032,266.862 257.044,317.29 269.057,341.262 281.07,374.46 293.083,386.602 305.095,429.934 317.108,461.428 329.121,486.956 341.134,506.197 353.146,525.723 365.159,564.89 377.172,587.894 389.184,601.242 401.197,621.559 413.21,631.739 425.223,652.234 437.235,665.909 449.248,683.011 461.261,683.011 473.273,700.134 485.286,717.274 497.299,727.559 509.312,737.848 521.324,741.281 533.337,748.192 545.35,748.192 557.363,748.192 569.375,748.192 581.388,751.803 593.401,755.468 605.413,755.468 617.426,755.468 629.439,755.468 641.452,766.464 653.464,766.464 665.477,766.464 677.49,770.248 689.503,774.032 701.515,789.169 713.528,792.954 725.541,796.742 737.553,796.742 749.566,804.383 761.579,808.206 773.592,812.064 785.604,812.064 797.617,812.064 809.63,812.064 821.642,812.064 833.655,812.064 845.668,812.064 857.681,812.064 869.693,816.066 881.706,820.071 893.719,820.071 905.732,820.071 917.744,820.071 929.757,820.071 941.77,820.071 953.782,824.153 965.795,824.153 977.808,828.237 989.821,828.237 1001.83,828.237 1013.85,832.447 1025.86,836.659 1037.87,836.659 1049.88,840.872 1061.9,840.872 1073.91,840.872 1085.92,845.18 1097.94,845.18 1109.95,845.18 1121.96,849.635 1133.97,854.139 1145.99,854.139 1158,854.139 1170.01,858.801 1182.02,858.801 1194.04,863.64 1206.05,868.48 1218.06,873.447 1230.08,873.447 1242.09,873.447 1254.1,878.557 1266.11,878.557 1278.13,878.557 1290.14,878.557 1302.15,878.557 1314.16,878.557 1326.18,878.557 1338.19,878.557 1350.2,878.557 1362.22,878.557 1374.23,878.557 1386.24,878.557 1398.25,878.557 1410.27,883.892 1422.28,889.31 1434.29,889.31 1446.3,889.31 1458.32,889.31 1470.33,889.31 1482.34,889.31 1494.36,889.31 1506.37,895.196 1518.38,895.196 1530.39,895.196 1542.41,895.196 1554.42,895.196 1566.43,895.196 1578.44,895.196 1590.46,901.393 1602.47,901.393 1614.48,901.393 1626.5,901.393 1638.51,901.393 1650.52,901.393 1662.53,901.393 1674.55,901.393 1686.56,901.393 1698.57,901.393 1710.58,901.393 1722.6,908.074 1734.61,908.074 1746.62,908.074 1758.64,908.074 1770.65,915.358 1782.66,915.358 1794.67,915.358 1806.69,915.358 1818.7,915.358 1830.71,915.358 1842.72,915.358 1854.74,915.358 1866.75,922.822 1878.76,922.822 1890.77,922.822 1902.79,922.822 1914.8,922.822 1926.81,922.822 1938.83,922.822 1950.84,922.822 1962.85,922.822 1974.86,922.822 1986.88,922.822 1998.89,922.822 2010.9,922.822 2022.91,922.822 2034.93,922.822 2046.94,922.822 2058.95,922.822 2070.97,922.822 2082.98,922.822 2094.99,922.822 2107,922.822 2119.02,922.822 2131.03,922.822 2143.04,922.822 2155.05,922.822 2167.07,922.822 2179.08,922.822 2191.09,931.754 2203.11,931.754 2215.12,931.754 2227.13,931.754 2239.14,931.754 2251.16,931.754 2263.17,931.754 2275.18,931.754 2287.19,931.754 2299.21,931.754 2311.22,931.754 2323.23,931.754 2335.25,931.754 2347.26,942.201 2359.27,942.201 2371.28,942.201 2383.3,953.893 2395.31,953.893 2407.32,953.893 2419.33,966.635 2431.35,966.635 2443.36,966.635 2455.37,966.635 2467.39,966.635 2479.4,966.635 2491.41,966.635 2503.42,966.635 2515.44,966.635 2527.45,966.635 2539.46,966.635 2551.47,966.635 2563.49,966.635 2575.5,966.635 2587.51,966.635 2599.53,966.635 2611.54,966.635 2623.55,966.635 2635.56,966.635 2647.58,966.635 2659.59,966.635 2671.6,966.635 2683.61,966.635 2695.63,966.635 2707.64,966.635 2719.65,966.635 2731.67,966.635 2743.68,966.635 2755.69,966.635 2767.7,966.635 2779.72,966.635 2791.73,966.635 2803.74,966.635 2815.75,966.635 2827.77,966.635 2839.78,966.635 2851.79,966.635 2863.81,966.635 2875.82,966.635 2887.83,966.635 2899.84,966.635 2911.86,966.635 2923.87,966.635 2935.88,966.635 2947.89,966.635 2959.91,966.635 2971.92,966.635 2983.93,966.635 2995.95,966.635 3007.96,966.635 3019.97,966.635 3031.98,966.635 3044,966.635 3056.01,966.635 3068.02,966.635 3080.03,966.635 3092.05,966.635 3104.06,966.635 3116.07,966.635 3128.09,966.635 3140.1,966.635 3152.11,966.635 3164.12,966.635 3176.14,966.635 3188.15,966.635 3200.16,966.635 3212.17,966.635 3224.19,966.635 "/>
<polyline clip-path="url(#clip812)" style="stroke:#009af9; stroke-linecap:round; stroke-linejoin:round; stroke-width:4; stroke-opacity:1; fill:none" points="221.006,47.2441 233.019,107.525 245.032,182.194 257.044,246.987 269.057,303.532 281.07,353.153 293.083,396.853 305.095,435.534 317.108,469.877 329.121,500.47 341.134,527.818 353.146,552.471 365.159,574.896 377.172,595.071 389.184,613.264 401.197,629.737 413.21,644.691 425.223,658.308 437.235,670.714 449.248,682.018 461.261,692.335 473.273,701.776 485.286,710.424 497.299,718.337 509.312,725.585 521.324,732.234 533.337,738.339 545.35,743.95 557.363,749.112 569.375,753.871 581.388,758.269 593.401,762.341 605.413,766.115 617.426,769.64 629.439,772.991 641.452,776.23 653.464,779.294 665.477,782.302 677.49,785.524 689.503,789.231 701.515,792.934 713.528,796.343 725.541,799.482 737.553,802.377 749.566,805.054 761.579,807.528 773.592,809.814 785.604,811.927 797.617,813.88 809.63,815.689 821.642,817.365 833.655,818.928 845.668,820.397 857.681,821.792 869.693,823.151 881.706,824.451 893.719,825.669 905.732,826.823 917.744,827.938 929.757,829.05 941.77,830.255 953.782,831.748 965.795,833.497 977.808,835.307 989.821,837.12 1001.83,839.066 1013.85,841.265 1025.86,843.512 1037.87,845.736 1049.88,847.911 1061.9,849.96 1073.91,851.938 1085.92,853.943 1097.94,855.89 1109.95,857.795 1121.96,859.774 1133.97,861.747 1145.99,863.647 1158,865.503 1170.01,867.336 1182.02,869.083 1194.04,870.771 1206.05,872.402 1218.06,873.926 1230.08,875.345 1242.09,876.667 1254.1,877.909 1266.11,879.069 1278.13,880.148 1290.14,881.158 1302.15,882.103 1314.16,882.992 1326.18,883.837 1338.19,884.644 1350.2,885.426 1362.22,886.192 1374.23,886.959 1386.24,887.763 1398.25,888.641 1410.27,889.638 1422.28,890.647 1434.29,891.599 1446.3,892.491 1458.32,893.333 1470.33,894.138 1482.34,894.916 1494.36,895.677 1506.37,896.435 1518.38,897.169 1530.39,897.874 1542.41,898.569 1554.42,899.273 1566.43,899.992 1578.44,900.746 1590.46,901.568 1602.47,902.368 1614.48,903.126 1626.5,903.85 1638.51,904.549 1650.52,905.234 1662.53,905.922 1674.55,906.635 1686.56,907.384 1698.57,908.199 1710.58,909.133 1722.6,910.209 1734.61,911.254 1746.62,912.244 1758.64,913.191 1770.65,914.089 1782.66,914.925 1794.67,915.711 1806.69,916.446 1818.7,917.135 1830.71,917.788 1842.72,918.407 1854.74,918.999 1866.75,919.562 1878.76,920.089 1890.77,920.582 1902.79,921.044 1914.8,921.479 1926.81,921.888 1938.83,922.273 1950.84,922.637 1962.85,922.983 1974.86,923.31 1986.88,923.622 1998.89,923.923 2010.9,924.213 2022.91,924.491 2034.93,924.761 2046.94,925.025 2058.95,925.287 2070.97,925.552 2082.98,925.827 2094.99,926.12 2107,926.439 2119.02,926.804 2131.03,927.227 2143.04,927.731 2155.05,928.325 2167.07,929.039 2179.08,929.955 2191.09,930.975 2203.11,931.928 2215.12,932.826 2227.13,933.684 2239.14,934.505 2251.16,935.309 2263.17,936.102 2275.18,936.902 2287.19,937.738 2299.21,938.646 2311.22,939.648 2323.23,940.81 2335.25,942.25 2347.26,943.998 2359.27,945.737 2371.28,947.362 2383.3,948.887 2395.31,950.306 2407.32,951.62 2419.33,952.838 2431.35,953.966 2443.36,955.012 2455.37,955.98 2467.39,956.879 2479.4,957.716 2491.41,958.494 2503.42,959.22 2515.44,959.898 2527.45,960.533 2539.46,961.129 2551.47,961.687 2563.49,962.212 2575.5,962.706 2587.51,963.168 2599.53,963.602 2611.54,964.012 2623.55,964.399 2635.56,964.761 2647.58,965.104 2659.59,965.43 2671.6,965.737 2683.61,966.031 2695.63,966.313 2707.64,966.585 2719.65,966.846 2731.67,967.095 2743.68,967.331 2755.69,967.56 2767.7,967.78 2779.72,967.992 2791.73,968.193 2803.74,968.385 2815.75,968.569 2827.77,968.747 2839.78,968.923 2851.79,969.095 2863.81,969.264 2875.82,969.431 2887.83,969.596 2899.84,969.757 2911.86,969.917 2923.87,970.07 2935.88,970.218 2947.89,970.367 2959.91,970.513 2971.92,970.654 2983.93,970.797 2995.95,970.94 3007.96,971.081 3019.97,971.224 3031.98,971.367 3044,971.511 3056.01,971.651 3068.02,971.788 3080.03,971.923 3092.05,972.053 3104.06,972.178 3116.07,972.307 3128.09,972.437 3140.1,972.569 3152.11,972.703 3164.12,972.839 3176.14,972.981 3188.15,973.13 3200.16,973.285 3212.17,973.444 3224.19,973.6 "/>
<path clip-path="url(#clip812)" d="M221.006 47.2441 L233.019 125.48 L245.032 215.359 L257.044 293.323 L269.057 358.76 L281.07 415.244 L293.083 464.142 L305.095 505.5 L317.108 544.134 L329.121 577.766 L341.134 607.281 L353.146 633.616 L365.159 657.282 L377.172 677.565 L389.184 695.64 L401.197 711.818 L413.21 726.642 L425.223 741.641 L437.235 754.202 L449.248 765.578 L461.261 775.267 L473.273 784.526 L485.286 793.367 L497.299 801.334 L509.312 808.377 L521.324 814.6 L533.337 820.596 L545.35 826.132 L557.363 831.425 L569.375 836.425 L581.388 841.031 L593.401 845.349 L605.413 849.753 L617.426 854.022 L629.439 857.845 L641.452 860.956 L653.464 864.476 L665.477 867.994 L677.49 870.71 L689.503 874.088 L701.515 876.552 L713.528 879.463 L725.541 883.457 L737.553 886.433 L749.566 889.96 L761.579 893.312 L773.592 896.101 L785.604 898.15 L797.617 900.048 L809.63 901.31 L821.642 902.299 L833.655 903.634 L845.668 905.23 L857.681 906.461 L869.693 907.715 L881.706 909.225 L893.719 910.628 L905.732 911.605 L917.744 912.631 L929.757 913.789 L941.77 914.416 L953.782 916.295 L965.795 917.745 L977.808 919.018 L989.821 921.293 L1001.83 922.922 L1013.85 924.25 L1025.86 926.493 L1037.87 928.901 L1049.88 930.468 L1061.9 932.345 L1073.91 934.549 L1085.92 937.059 L1097.94 939.658 L1109.95 941.794 L1121.96 944.124 L1133.97 946.05 L1145.99 947.656 L1158 949.5 L1170.01 951.531 L1182.02 953.423 L1194.04 955.212 L1206.05 956.89 L1218.06 958.111 L1230.08 960.029 L1242.09 961.779 L1254.1 963.507 L1266.11 964.451 L1278.13 966.566 L1290.14 967.742 L1302.15 968.686 L1314.16 969.562 L1326.18 970.374 L1338.19 971.13 L1350.2 971.831 L1362.22 972.476 L1374.23 973.243 L1386.24 974.431 L1398.25 974.679 L1410.27 975.094 L1422.28 975.755 L1434.29 976.836 L1446.3 977.509 L1458.32 978.696 L1470.33 979.506 L1482.34 980.323 L1494.36 981.066 L1506.37 982.314 L1518.38 982.995 L1530.39 983.909 L1542.41 984.438 L1554.42 984.99 L1566.43 985.376 L1578.44 985.554 L1590.46 985.991 L1602.47 986.542 L1614.48 986.733 L1626.5 987.066 L1638.51 987.295 L1650.52 987.622 L1662.53 988.062 L1674.55 988.637 L1686.56 989.304 L1698.57 990.633 L1710.58 991.293 L1722.6 992.897 L1734.61 994.116 L1746.62 994.92 L1758.64 996.306 L1770.65 997.926 L1782.66 999.32 L1794.67 1000.38 L1806.69 1001.24 L1818.7 1002.06 L1830.71 1002.81 L1842.72 1003.69 L1854.74 1004.2 L1866.75 1004.81 L1878.76 1005.81 L1890.77 1006.2 L1902.79 1007.11 L1914.8 1007.57 L1926.81 1007.95 L1938.83 1008.35 L1950.84 1008.82 L1962.85 1009.42 L1974.86 1009.9 L1986.88 1010.35 L1998.89 1010.76 L2010.9 1011.18 L2022.91 1011.56 L2034.93 1011.93 L2046.94 1012.26 L2058.95 1012.58 L2070.97 1012.87 L2082.98 1013.16 L2094.99 1013.42 L2107 1013.69 L2119.02 1014.85 L2131.03 1015.02 L2143.04 1015.28 L2155.05 1015.54 L2167.07 1016.06 L2179.08 1017.83 L2191.09 1018.39 L2203.11 1020.23 L2215.12 1020.95 L2227.13 1021.58 L2239.14 1021.9 L2251.16 1022.72 L2263.17 1023.55 L2275.18 1025.06 L2287.19 1025.7 L2299.21 1026.7 L2311.22 1027.38 L2323.23 1028.6 L2335.25 1029.63 L2347.26 1030.84 L2359.27 1032.73 L2371.28 1033.85 L2383.3 1035.48 L2395.31 1036.56 L2407.32 1038.78 L2419.33 1040.98 L2431.35 1042.52 L2443.36 1043.54 L2455.37 1044.22 L2467.39 1044.97 L2479.4 1045.5 L2491.41 1045.98 L2503.42 1046.42 L2515.44 1047.14 L2527.45 1047.55 L2539.46 1047.92 L2551.47 1048.26 L2563.49 1048.82 L2575.5 1049.14 L2587.51 1049.44 L2599.53 1049.97 L2611.54 1050.54 L2623.55 1051.17 L2635.56 1051.52 L2647.58 1051.78 L2659.59 1052.03 L2671.6 1052.25 L2683.61 1052.45 L2695.63 1053 L2707.64 1053.81 L2719.65 1054.83 L2731.67 1055.08 L2743.68 1055.26 L2755.69 1055.62 L2767.7 1055.79 L2779.72 1055.89 L2791.73 1056.04 L2803.74 1056.35 L2815.75 1056.51 L2827.77 1056.85 L2839.78 1057.16 L2851.79 1057.45 L2863.81 1057.72 L2875.82 1057.98 L2887.83 1058.09 L2899.84 1058.17 L2911.86 1058.44 L2923.87 1058.8 L2935.88 1059.11 L2947.89 1059.27 L2959.91 1059.62 L2971.92 1060.03 L2983.93 1060.28 L2995.95 1060.51 L3007.96 1060.65 L3019.97 1060.72 L3031.98 1060.96 L3044 1061.21 L3056.01 1061.32 L3068.02 1061.43 L3080.03 1061.48 L3092.05 1061.51 L3104.06 1061.54 L3116.07 1061.56 L3128.09 1061.59 L3140.1 1061.92 L3152.11 1062.14 L3164.12 1062.31 L3176.14 1062.46 L3188.15 1062.68 L3200.16 1062.75 L3212.17 1062.87 L3224.19 1062.89 L3224.19 883.783 L3212.17 883.595 L3200.16 883.559 L3188.15 883.52 L3176.14 882.577 L3164.12 882.557 L3152.11 882.544 L3140.1 882.531 L3128.09 882.517 L3116.07 882.503 L3104.06 882.47 L3092.05 882.457 L3080.03 882.442 L3068.02 882.421 L3056.01 882.398 L3044 882.22 L3031.98 881.931 L3019.97 881.709 L3007.96 881.609 L2995.95 881.506 L2983.93 881.236 L2971.92 880.878 L2959.91 880.608 L2947.89 880.096 L2935.88 879.865 L2923.87 879.451 L2911.86 878.933 L2899.84 878.537 L2887.83 878.187 L2875.82 878.132 L2863.81 878.073 L2851.79 878.01 L2839.78 877.971 L2827.77 877.948 L2815.75 877.922 L2803.74 877.895 L2791.73 877.865 L2779.72 877.803 L2767.7 877.659 L2755.69 877.504 L2743.68 877.153 L2731.67 877.004 L2719.65 876.21 L2707.64 875.076 L2695.63 874.575 L2683.61 874.419 L2671.6 874.357 L2659.59 874.292 L2647.58 874.22 L2635.56 873.701 L2623.55 873.149 L2611.54 872.983 L2599.53 872.707 L2587.51 871.627 L2575.5 871.02 L2563.49 870.342 L2551.47 869.94 L2539.46 869.748 L2527.45 869.435 L2515.44 869.003 L2503.42 868.52 L2491.41 868.166 L2479.4 867.67 L2467.39 867.385 L2455.37 866.437 L2443.36 865.439 L2431.35 864.272 L2419.33 863.61 L2407.32 862.748 L2395.31 861.297 L2383.3 860.595 L2371.28 858.697 L2359.27 856.702 L2347.26 854.343 L2335.25 851.861 L2323.23 850.079 L2311.22 849.004 L2299.21 847.987 L2287.19 846.944 L2275.18 846.793 L2263.17 846.623 L2251.16 846.232 L2239.14 845.526 L2227.13 844.802 L2215.12 844.369 L2203.11 843.617 L2191.09 842.52 L2179.08 841.989 L2167.07 841.412 L2155.05 840.657 L2143.04 840.145 L2131.03 839.684 L2119.02 838.401 L2107 838.009 L2094.99 837.962 L2082.98 837.855 L2070.97 837.182 L2058.95 837.035 L2046.94 836.893 L2034.93 836.779 L2022.91 836.655 L2010.9 836.42 L1998.89 836.112 L1986.88 836.067 L1974.86 836.018 L1962.85 835.712 L1950.84 835.26 L1938.83 834.784 L1926.81 834.247 L1914.8 833.651 L1902.79 832.893 L1890.77 832.08 L1878.76 831.39 L1866.75 830.83 L1854.74 830.233 L1842.72 829.697 L1830.71 829.31 L1818.7 828.978 L1806.69 828.601 L1794.67 828.41 L1782.66 827.958 L1770.65 827.014 L1758.64 825.783 L1746.62 825.259 L1734.61 824.329 L1722.6 823.478 L1710.58 822.377 L1698.57 821.516 L1686.56 820.263 L1674.55 820.026 L1662.53 818.822 L1650.52 817.962 L1638.51 816.736 L1626.5 816.149 L1614.48 815.882 L1602.47 815.122 L1590.46 814.236 L1578.44 813.781 L1566.43 813.389 L1554.42 812.083 L1542.41 810.966 L1530.39 809.486 L1518.38 808.764 L1506.37 808.501 L1494.36 807.048 L1482.34 806.523 L1470.33 806.059 L1458.32 805.772 L1446.3 805.387 L1434.29 804.171 L1422.28 802.267 L1410.27 800.211 L1398.25 799.797 L1386.24 798.99 L1374.23 797.978 L1362.22 796.886 L1350.2 796.036 L1338.19 795.337 L1326.18 795.026 L1314.16 794.691 L1302.15 794.328 L1290.14 793.536 L1278.13 793.076 L1266.11 791.939 L1254.1 790.522 L1242.09 789.772 L1230.08 788.326 L1218.06 787.508 L1206.05 786.477 L1194.04 785.178 L1182.02 783.603 L1170.01 781.802 L1158 780.242 L1145.99 778.521 L1133.97 776.865 L1121.96 774.263 L1109.95 771.476 L1097.94 770.093 L1085.92 767.435 L1073.91 766.23 L1061.9 763.311 L1049.88 762.296 L1037.87 760.841 L1025.86 759.211 L1013.85 755.486 L1001.83 753.712 L989.821 751.777 L977.808 750.237 L965.795 747.868 L953.782 746.267 L941.77 744.769 L929.757 743.841 L917.744 742.291 L905.732 741.565 L893.719 740.788 L881.706 739.854 L869.693 738.388 L857.681 736.862 L845.668 736.063 L833.655 735.272 L821.642 733.253 L809.63 731.264 L797.617 729.657 L785.604 727.657 L773.592 724.566 L761.579 721.91 L749.566 720.089 L737.553 716.997 L725.541 714.241 L713.528 710.669 L701.515 706.939 L689.503 701.827 L677.49 696.866 L665.477 693.662 L653.464 691.594 L641.452 688.65 L629.439 685.874 L617.426 683.194 L605.413 679.865 L593.401 675.983 L581.388 672.641 L569.375 669.141 L557.363 664.794 L545.35 660.112 L533.337 654.938 L521.324 648.202 L509.312 641.367 L497.299 634.701 L485.286 627.351 L473.273 619.091 L461.261 610.192 L449.248 600.815 L437.235 590.534 L425.223 578.913 L413.21 566.798 L401.197 551.982 L389.184 536.578 L377.172 519.423 L365.159 500.571 L353.146 479.674 L341.134 456.69 L329.121 431.472 L317.108 403.705 L305.095 372.995 L293.083 338.222 L281.07 300.17 L269.057 257.652 L257.044 209.759 L245.032 154.421 L233.019 90.1416 L221.006 47.2441  Z" fill="#009af9" fill-rule="evenodd" fill-opacity="0.2"/>
<polyline clip-path="url(#clip812)" style="stroke:#009af9; stroke-linecap:round; stroke-linejoin:round; stroke-width:4; stroke-opacity:0; fill:none" points="221.006,47.2441 233.019,125.48 245.032,215.359 257.044,293.323 269.057,358.76 281.07,415.244 293.083,464.142 305.095,505.5 317.108,544.134 329.121,577.766 341.134,607.281 353.146,633.616 365.159,657.282 377.172,677.565 389.184,695.64 401.197,711.818 413.21,726.642 425.223,741.641 437.235,754.202 449.248,765.578 461.261,775.267 473.273,784.526 485.286,793.367 497.299,801.334 509.312,808.377 521.324,814.6 533.337,820.596 545.35,826.132 557.363,831.425 569.375,836.425 581.388,841.031 593.401,845.349 605.413,849.753 617.426,854.022 629.439,857.845 641.452,860.956 653.464,864.476 665.477,867.994 677.49,870.71 689.503,874.088 701.515,876.552 713.528,879.463 725.541,883.457 737.553,886.433 749.566,889.96 761.579,893.312 773.592,896.101 785.604,898.15 797.617,900.048 809.63,901.31 821.642,902.299 833.655,903.634 845.668,905.23 857.681,906.461 869.693,907.715 881.706,909.225 893.719,910.628 905.732,911.605 917.744,912.631 929.757,913.789 941.77,914.416 953.782,916.295 965.795,917.745 977.808,919.018 989.821,921.293 1001.83,922.922 1013.85,924.25 1025.86,926.493 1037.87,928.901 1049.88,930.468 1061.9,932.345 1073.91,934.549 1085.92,937.059 1097.94,939.658 1109.95,941.794 1121.96,944.124 1133.97,946.05 1145.99,947.656 1158,949.5 1170.01,951.531 1182.02,953.423 1194.04,955.212 1206.05,956.89 1218.06,958.111 1230.08,960.029 1242.09,961.779 1254.1,963.507 1266.11,964.451 1278.13,966.566 1290.14,967.742 1302.15,968.686 1314.16,969.562 1326.18,970.374 1338.19,971.13 1350.2,971.831 1362.22,972.476 1374.23,973.243 1386.24,974.431 1398.25,974.679 1410.27,975.094 1422.28,975.755 1434.29,976.836 1446.3,977.509 1458.32,978.696 1470.33,979.506 1482.34,980.323 1494.36,981.066 1506.37,982.314 1518.38,982.995 1530.39,983.909 1542.41,984.438 1554.42,984.99 1566.43,985.376 1578.44,985.554 1590.46,985.991 1602.47,986.542 1614.48,986.733 1626.5,987.066 1638.51,987.295 1650.52,987.622 1662.53,988.062 1674.55,988.637 1686.56,989.304 1698.57,990.633 1710.58,991.293 1722.6,992.897 1734.61,994.116 1746.62,994.92 1758.64,996.306 1770.65,997.926 1782.66,999.32 1794.67,1000.38 1806.69,1001.24 1818.7,1002.06 1830.71,1002.81 1842.72,1003.69 1854.74,1004.2 1866.75,1004.81 1878.76,1005.81 1890.77,1006.2 1902.79,1007.11 1914.8,1007.57 1926.81,1007.95 1938.83,1008.35 1950.84,1008.82 1962.85,1009.42 1974.86,1009.9 1986.88,1010.35 1998.89,1010.76 2010.9,1011.18 2022.91,1011.56 2034.93,1011.93 2046.94,1012.26 2058.95,1012.58 2070.97,1012.87 2082.98,1013.16 2094.99,1013.42 2107,1013.69 2119.02,1014.85 2131.03,1015.02 2143.04,1015.28 2155.05,1015.54 2167.07,1016.06 2179.08,1017.83 2191.09,1018.39 2203.11,1020.23 2215.12,1020.95 2227.13,1021.58 2239.14,1021.9 2251.16,1022.72 2263.17,1023.55 2275.18,1025.06 2287.19,1025.7 2299.21,1026.7 2311.22,1027.38 2323.23,1028.6 2335.25,1029.63 2347.26,1030.84 2359.27,1032.73 2371.28,1033.85 2383.3,1035.48 2395.31,1036.56 2407.32,1038.78 2419.33,1040.98 2431.35,1042.52 2443.36,1043.54 2455.37,1044.22 2467.39,1044.97 2479.4,1045.5 2491.41,1045.98 2503.42,1046.42 2515.44,1047.14 2527.45,1047.55 2539.46,1047.92 2551.47,1048.26 2563.49,1048.82 2575.5,1049.14 2587.51,1049.44 2599.53,1049.97 2611.54,1050.54 2623.55,1051.17 2635.56,1051.52 2647.58,1051.78 2659.59,1052.03 2671.6,1052.25 2683.61,1052.45 2695.63,1053 2707.64,1053.81 2719.65,1054.83 2731.67,1055.08 2743.68,1055.26 2755.69,1055.62 2767.7,1055.79 2779.72,1055.89 2791.73,1056.04 2803.74,1056.35 2815.75,1056.51 2827.77,1056.85 2839.78,1057.16 2851.79,1057.45 2863.81,1057.72 2875.82,1057.98 2887.83,1058.09 2899.84,1058.17 2911.86,1058.44 2923.87,1058.8 2935.88,1059.11 2947.89,1059.27 2959.91,1059.62 2971.92,1060.03 2983.93,1060.28 2995.95,1060.51 3007.96,1060.65 3019.97,1060.72 3031.98,1060.96 3044,1061.21 3056.01,1061.32 3068.02,1061.43 3080.03,1061.48 3092.05,1061.51 3104.06,1061.54 3116.07,1061.56 3128.09,1061.59 3140.1,1061.92 3152.11,1062.14 3164.12,1062.31 3176.14,1062.46 3188.15,1062.68 3200.16,1062.75 3212.17,1062.87 3224.19,1062.89 "/>
<polyline clip-path="url(#clip812)" style="stroke:#e26f46; stroke-linecap:round; stroke-linejoin:round; stroke-width:4; stroke-opacity:1; fill:none" points="221.006,47.2441 233.019,111.489 245.032,172.248 257.044,229.713 269.057,284.066 281.07,313.244 293.083,341.513 305.095,368.901 317.108,395.123 329.121,420.228 341.134,444.566 353.146,468.159 365.159,497.649 377.172,539.724 389.184,566.403 401.197,592.47 413.21,617.513 425.223,641.574 437.235,653.248 449.248,675.797 461.261,675.797 473.273,697.465 485.286,707.98 497.299,725.927 509.312,734.667 521.324,755.421 533.337,759.113 545.35,766.404 557.363,773.57 569.375,777.122 581.388,780.643 593.401,787.597 605.413,787.597 617.426,787.597 629.439,787.597 641.452,794.975 653.464,799.017 665.477,803.02 677.49,806.982 689.503,811.762 701.515,816.484 713.528,821.149 725.541,825.757 737.553,829.835 749.566,833.87 761.579,837.863 773.592,841.617 785.604,845.332 797.617,845.332 809.63,849.01 821.642,849.01 833.655,855.671 845.668,855.671 857.681,858.955 869.693,861.716 881.706,864.455 893.719,864.455 905.732,864.455 917.744,867.244 929.757,867.244 941.77,867.244 953.782,867.244 965.795,869.993 977.808,875.425 989.821,878.19 1001.83,878.19 1013.85,880.931 1025.86,883.413 1037.87,883.413 1049.88,885.876 1061.9,888.32 1073.91,890.687 1085.92,893.036 1097.94,893.036 1109.95,895.368 1121.96,900.163 1133.97,904.886 1145.99,904.886 1158,907.248 1170.01,909.592 1182.02,914.226 1194.04,916.706 1206.05,921.602 1218.06,924.019 1230.08,926.416 1242.09,926.416 1254.1,928.717 1266.11,930.998 1278.13,930.998 1290.14,933.287 1302.15,933.287 1314.16,933.287 1326.18,933.287 1338.19,933.287 1350.2,933.287 1362.22,935.489 1374.23,935.489 1386.24,935.489 1398.25,935.489 1410.27,937.623 1422.28,943.915 1434.29,945.977 1446.3,948.009 1458.32,948.009 1470.33,948.009 1482.34,948.009 1494.36,950.071 1506.37,952.114 1518.38,952.114 1530.39,952.114 1542.41,952.114 1554.42,952.114 1566.43,952.114 1578.44,955.77 1590.46,957.575 1602.47,957.575 1614.48,957.575 1626.5,959.366 1638.51,961.142 1650.52,961.142 1662.53,961.142 1674.55,963.009 1686.56,964.859 1698.57,964.859 1710.58,964.859 1722.6,966.774 1734.61,968.669 1746.62,968.669 1758.64,972.413 1770.65,974.259 1782.66,974.259 1794.67,974.259 1806.69,975.926 1818.7,975.926 1830.71,975.926 1842.72,975.926 1854.74,975.926 1866.75,977.566 1878.76,977.566 1890.77,979.191 1902.79,980.801 1914.8,980.801 1926.81,982.395 1938.83,982.395 1950.84,982.395 1962.85,982.395 1974.86,982.395 1986.88,982.395 1998.89,982.395 2010.9,982.395 2022.91,984.158 2034.93,984.158 2046.94,984.158 2058.95,984.158 2070.97,984.158 2082.98,986.011 2094.99,986.011 2107,986.011 2119.02,987.934 2131.03,987.934 2143.04,987.934 2155.05,989.924 2167.07,989.924 2179.08,991.89 2191.09,991.89 2203.11,991.89 2215.12,991.89 2227.13,991.89 2239.14,991.89 2251.16,991.89 2263.17,993.778 2275.18,993.778 2287.19,993.778 2299.21,993.778 2311.22,995.65 2323.23,999.528 2335.25,1001.53 2347.26,1005.45 2359.27,1007.37 2371.28,1007.37 2383.3,1009.44 2395.31,1011.48 2407.32,1011.48 2419.33,1013.49 2431.35,1013.49 2443.36,1013.49 2455.37,1013.49 2467.39,1013.49 2479.4,1015.45 2491.41,1015.45 2503.42,1015.45 2515.44,1017.14 2527.45,1017.14 2539.46,1018.69 2551.47,1020.23 2563.49,1020.23 2575.5,1020.23 2587.51,1020.23 2599.53,1020.23 2611.54,1020.23 2623.55,1020.23 2635.56,1020.23 2647.58,1021.67 2659.59,1021.67 2671.6,1021.67 2683.61,1021.67 2695.63,1021.67 2707.64,1021.67 2719.65,1021.67 2731.67,1021.67 2743.68,1021.67 2755.69,1021.67 2767.7,1021.67 2779.72,1021.67 2791.73,1021.67 2803.74,1021.67 2815.75,1021.67 2827.77,1021.67 2839.78,1021.67 2851.79,1021.67 2863.81,1021.67 2875.82,1021.67 2887.83,1021.67 2899.84,1021.67 2911.86,1021.67 2923.87,1022.9 2935.88,1024.12 2947.89,1025.29 2959.91,1025.29 2971.92,1025.29 2983.93,1025.29 2995.95,1025.29 3007.96,1025.29 3019.97,1025.29 3031.98,1025.29 3044,1025.29 3056.01,1025.29 3068.02,1025.29 3080.03,1025.29 3092.05,1025.29 3104.06,1025.29 3116.07,1025.29 3128.09,1025.29 3140.1,1025.29 3152.11,1025.29 3164.12,1025.29 3176.14,1025.29 3188.15,1025.29 3200.16,1025.29 3212.17,1025.29 3224.19,1026.45 "/>
<path clip-path="url(#clip812)" d="M221.006 47.2441 L233.019 129.874 L245.032 206.848 L257.044 278.554 L269.057 345.352 L281.07 376.35 L293.083 407.108 L305.095 439.252 L317.108 468.952 L329.121 495.94 L341.134 523.856 L353.146 549.595 L365.159 578.733 L377.172 619.172 L389.184 646.303 L401.197 673.075 L413.21 699.334 L425.223 725.152 L437.235 736.143 L449.248 758.588 L461.261 758.588 L473.273 782.837 L485.286 794.181 L497.299 810.23 L509.312 819.89 L521.324 841.57 L533.337 844.398 L545.35 850.121 L557.363 857.1 L569.375 861.049 L581.388 864.771 L593.401 871.141 L605.413 871.141 L617.426 871.141 L629.439 871.141 L641.452 880.225 L653.464 883.581 L665.477 886.867 L677.49 889.4 L689.503 894.726 L701.515 899.326 L713.528 904.603 L725.541 909.889 L737.553 914.572 L749.566 917.473 L761.579 920.576 L773.592 925.743 L785.604 930.338 L797.617 930.338 L809.63 935.154 L821.642 935.154 L833.655 941.978 L845.668 941.978 L857.681 945.85 L869.693 948 L881.706 950.074 L893.719 950.074 L905.732 950.074 L917.744 952.106 L929.757 952.106 L941.77 952.106 L953.782 952.106 L965.795 954.234 L977.808 960.127 L989.821 963.401 L1001.83 963.401 L1013.85 966.601 L1025.86 969 L1037.87 969 L1049.88 971.306 L1061.9 974.082 L1073.91 976.025 L1085.92 978.565 L1097.94 978.565 L1109.95 980.879 L1121.96 985.137 L1133.97 989.271 L1145.99 989.271 L1158 991.814 L1170.01 993.908 L1182.02 999.584 L1194.04 1002.07 L1206.05 1008.32 L1218.06 1010.69 L1230.08 1012.62 L1242.09 1012.62 L1254.1 1014.68 L1266.11 1016.73 L1278.13 1016.73 L1290.14 1018.36 L1302.15 1018.36 L1314.16 1018.36 L1326.18 1018.36 L1338.19 1018.36 L1350.2 1018.36 L1362.22 1021 L1374.23 1021 L1386.24 1021 L1398.25 1021 L1410.27 1023.96 L1422.28 1030.7 L1434.29 1034 L1446.3 1035.51 L1458.32 1035.51 L1470.33 1035.51 L1482.34 1035.51 L1494.36 1038.18 L1506.37 1039.89 L1518.38 1039.89 L1530.39 1039.89 L1542.41 1039.89 L1554.42 1039.89 L1566.43 1039.89 L1578.44 1044.13 L1590.46 1046.32 L1602.47 1046.32 L1614.48 1046.32 L1626.5 1049.61 L1638.51 1053.22 L1650.52 1053.22 L1662.53 1053.22 L1674.55 1054.6 L1686.56 1056.84 L1698.57 1056.84 L1710.58 1056.84 L1722.6 1058.04 L1734.61 1060.89 L1746.62 1060.89 L1758.64 1064.75 L1770.65 1066.48 L1782.66 1066.48 L1794.67 1066.48 L1806.69 1068.85 L1818.7 1068.85 L1830.71 1068.85 L1842.72 1068.85 L1854.74 1068.85 L1866.75 1069.75 L1878.76 1069.75 L1890.77 1071.47 L1902.79 1073.47 L1914.8 1073.47 L1926.81 1074.87 L1938.83 1074.87 L1950.84 1074.87 L1962.85 1074.87 L1974.86 1074.87 L1986.88 1074.87 L1998.89 1074.87 L2010.9 1074.87 L2022.91 1077.36 L2034.93 1077.36 L2046.94 1077.36 L2058.95 1077.36 L2070.97 1077.36 L2082.98 1079.36 L2094.99 1079.36 L2107 1079.36 L2119.02 1080.27 L2131.03 1080.27 L2143.04 1080.27 L2155.05 1083.96 L2167.07 1083.96 L2179.08 1088.31 L2191.09 1088.31 L2203.11 1088.31 L2215.12 1088.31 L2227.13 1088.31 L2239.14 1088.31 L2251.16 1088.31 L2263.17 1089.76 L2275.18 1089.76 L2287.19 1089.76 L2299.21 1089.76 L2311.22 1090.51 L2323.23 1093.89 L2335.25 1096.48 L2347.26 1099.77 L2359.27 1102.37 L2371.28 1102.37 L2383.3 1106.77 L2395.31 1109.18 L2407.32 1109.18 L2419.33 1113.37 L2431.35 1113.37 L2443.36 1113.37 L2455.37 1113.37 L2467.39 1113.37 L2479.4 1116.71 L2491.41 1116.71 L2503.42 1116.71 L2515.44 1119.38 L2527.45 1119.38 L2539.46 1120.28 L2551.47 1121.4 L2563.49 1121.4 L2575.5 1121.4 L2587.51 1121.4 L2599.53 1121.4 L2611.54 1121.4 L2623.55 1121.4 L2635.56 1121.4 L2647.58 1122.37 L2659.59 1122.37 L2671.6 1122.37 L2683.61 1122.37 L2695.63 1122.37 L2707.64 1122.37 L2719.65 1122.37 L2731.67 1122.37 L2743.68 1122.37 L2755.69 1122.37 L2767.7 1122.37 L2779.72 1122.37 L2791.73 1122.37 L2803.74 1122.37 L2815.75 1122.37 L2827.77 1122.37 L2839.78 1122.37 L2851.79 1122.37 L2863.81 1122.37 L2875.82 1122.37 L2887.83 1122.37 L2899.84 1122.37 L2911.86 1122.37 L2923.87 1124 L2935.88 1126.03 L2947.89 1126.64 L2959.91 1126.64 L2971.92 1126.64 L2983.93 1126.64 L2995.95 1126.64 L3007.96 1126.64 L3019.97 1126.64 L3031.98 1126.64 L3044 1126.64 L3056.01 1126.64 L3068.02 1126.64 L3080.03 1126.64 L3092.05 1126.64 L3104.06 1126.64 L3116.07 1126.64 L3128.09 1126.64 L3140.1 1126.64 L3152.11 1126.64 L3164.12 1126.64 L3176.14 1126.64 L3188.15 1126.64 L3200.16 1126.64 L3212.17 1126.64 L3224.19 1128.9 L3224.19 924.765 L3212.17 924.633 L3200.16 924.633 L3188.15 924.633 L3176.14 924.633 L3164.12 924.633 L3152.11 924.633 L3140.1 924.633 L3128.09 924.633 L3116.07 924.633 L3104.06 924.633 L3092.05 924.633 L3080.03 924.633 L3068.02 924.633 L3056.01 924.633 L3044 924.633 L3031.98 924.633 L3019.97 924.633 L3007.96 924.633 L2995.95 924.633 L2983.93 924.633 L2971.92 924.633 L2959.91 924.633 L2947.89 924.633 L2935.88 923.3 L2923.87 921.33 L2911.86 920.442 L2899.84 920.442 L2887.83 920.442 L2875.82 920.442 L2863.81 920.442 L2851.79 920.442 L2839.78 920.442 L2827.77 920.442 L2815.75 920.442 L2803.74 920.442 L2791.73 920.442 L2779.72 920.442 L2767.7 920.442 L2755.69 920.442 L2743.68 920.442 L2731.67 920.442 L2719.65 920.442 L2707.64 920.442 L2695.63 920.442 L2683.61 920.442 L2671.6 920.442 L2659.59 920.442 L2647.58 920.442 L2635.56 919.948 L2623.55 919.948 L2611.54 919.948 L2599.53 919.948 L2587.51 919.948 L2575.5 919.948 L2563.49 919.948 L2551.47 919.948 L2539.46 919.31 L2527.45 918.671 L2515.44 918.671 L2503.42 917.861 L2491.41 917.861 L2479.4 917.861 L2467.39 917.037 L2455.37 917.037 L2443.36 917.037 L2431.35 917.037 L2419.33 917.037 L2407.32 915.848 L2395.31 915.848 L2383.3 914.404 L2371.28 912.082 L2359.27 912.082 L2347.26 911.332 L2335.25 908.518 L2323.23 907.043 L2311.22 904.064 L2299.21 902.345 L2287.19 902.345 L2275.18 902.345 L2263.17 902.345 L2251.16 900.781 L2239.14 900.781 L2227.13 900.781 L2215.12 900.781 L2203.11 900.781 L2191.09 900.781 L2179.08 900.781 L2167.07 898.963 L2155.05 898.963 L2143.04 897.172 L2131.03 897.172 L2119.02 897.172 L2107 895.312 L2094.99 895.312 L2082.98 895.312 L2070.97 893.449 L2058.95 893.449 L2046.94 893.449 L2034.93 893.449 L2022.91 893.449 L2010.9 892.124 L1998.89 892.124 L1986.88 892.124 L1974.86 892.124 L1962.85 892.124 L1950.84 892.124 L1938.83 892.124 L1926.81 892.124 L1914.8 891.254 L1902.79 891.254 L1890.77 890.682 L1878.76 889.119 L1866.75 889.119 L1854.74 887.98 L1842.72 887.98 L1830.71 887.98 L1818.7 887.98 L1806.69 887.98 L1794.67 887.052 L1782.66 887.052 L1770.65 887.052 L1758.64 884.764 L1746.62 882.408 L1734.61 882.408 L1722.6 880.365 L1710.58 878.274 L1698.57 878.274 L1686.56 878.274 L1674.55 876.767 L1662.53 873.66 L1650.52 873.66 L1638.51 873.66 L1626.5 872.14 L1614.48 869.979 L1602.47 869.979 L1590.46 869.979 L1578.44 868.172 L1566.43 864.249 L1554.42 864.249 L1542.41 864.249 L1530.39 864.249 L1518.38 864.249 L1506.37 864.249 L1494.36 860.905 L1482.34 859.829 L1470.33 859.829 L1458.32 859.829 L1446.3 859.829 L1434.29 858.495 L1422.28 857.014 L1410.27 850.255 L1398.25 847.017 L1386.24 847.017 L1374.23 847.017 L1362.22 847.017 L1350.2 844.946 L1338.19 844.946 L1326.18 844.946 L1314.16 844.946 L1302.15 844.946 L1290.14 844.946 L1278.13 842.919 L1266.11 842.919 L1254.1 840.237 L1242.09 838.166 L1230.08 838.166 L1218.06 835.584 L1206.05 832.865 L1194.04 827.791 L1182.02 825.67 L1170.01 820.755 L1158 818.442 L1145.99 815.518 L1133.97 815.518 L1121.96 811.01 L1109.95 806.513 L1097.94 803.917 L1085.92 803.917 L1073.91 801.043 L1061.9 798.179 L1049.88 795.782 L1037.87 793.34 L1025.86 793.34 L1013.85 790.894 L1001.83 787.854 L989.821 787.854 L977.808 783.518 L965.795 777.823 L953.782 774.97 L941.77 774.97 L929.757 774.97 L917.744 774.97 L905.732 772.082 L893.719 772.082 L881.706 772.082 L869.693 769.486 L857.681 767.041 L845.668 764.66 L833.655 764.66 L821.642 758.432 L809.63 758.432 L797.617 755.289 L785.604 755.289 L773.592 752.122 L761.579 748.738 L749.566 744.916 L737.553 741.061 L725.541 736.847 L713.528 732.874 L701.515 727.508 L689.503 723.59 L677.49 716.941 L665.477 713.944 L653.464 710.866 L641.452 707.924 L629.439 701.87 L617.426 701.87 L605.413 701.87 L593.401 701.87 L581.388 693.876 L569.375 691.736 L557.363 687.724 L545.35 679.144 L533.337 669.868 L521.324 665.82 L509.312 644.454 L497.299 636.506 L485.286 619.902 L473.273 610.622 L461.261 590.57 L449.248 590.57 L437.235 569.977 L425.223 558.472 L413.21 534.674 L401.197 507.753 L389.184 480.985 L377.172 456.933 L365.159 413.145 L353.146 381.312 L341.134 360.319 L329.121 342.665 L317.108 322.767 L305.095 300.522 L293.083 279.508 L281.07 254.617 L269.057 227.098 L257.044 184.816 L245.032 140.795 L233.019 94.9628 L221.006 47.2441  Z" fill="#e26f46" fill-rule="evenodd" fill-opacity="0.2"/>
<polyline clip-path="url(#clip812)" style="stroke:#e26f46; stroke-linecap:round; stroke-linejoin:round; stroke-width:4; stroke-opacity:0; fill:none" points="221.006,47.2441 233.019,129.874 245.032,206.848 257.044,278.554 269.057,345.352 281.07,376.35 293.083,407.108 305.095,439.252 317.108,468.952 329.121,495.94 341.134,523.856 353.146,549.595 365.159,578.733 377.172,619.172 389.184,646.303 401.197,673.075 413.21,699.334 425.223,725.152 437.235,736.143 449.248,758.588 461.261,758.588 473.273,782.837 485.286,794.181 497.299,810.23 509.312,819.89 521.324,841.57 533.337,844.398 545.35,850.121 557.363,857.1 569.375,861.049 581.388,864.771 593.401,871.141 605.413,871.141 617.426,871.141 629.439,871.141 641.452,880.225 653.464,883.581 665.477,886.867 677.49,889.4 689.503,894.726 701.515,899.326 713.528,904.603 725.541,909.889 737.553,914.572 749.566,917.473 761.579,920.576 773.592,925.743 785.604,930.338 797.617,930.338 809.63,935.154 821.642,935.154 833.655,941.978 845.668,941.978 857.681,945.85 869.693,948 881.706,950.074 893.719,950.074 905.732,950.074 917.744,952.106 929.757,952.106 941.77,952.106 953.782,952.106 965.795,954.234 977.808,960.127 989.821,963.401 1001.83,963.401 1013.85,966.601 1025.86,969 1037.87,969 1049.88,971.306 1061.9,974.082 1073.91,976.025 1085.92,978.565 1097.94,978.565 1109.95,980.879 1121.96,985.137 1133.97,989.271 1145.99,989.271 1158,991.814 1170.01,993.908 1182.02,999.584 1194.04,1002.07 1206.05,1008.32 1218.06,1010.69 1230.08,1012.62 1242.09,1012.62 1254.1,1014.68 1266.11,1016.73 1278.13,1016.73 1290.14,1018.36 1302.15,1018.36 1314.16,1018.36 1326.18,1018.36 1338.19,1018.36 1350.2,1018.36 1362.22,1021 1374.23,1021 1386.24,1021 1398.25,1021 1410.27,1023.96 1422.28,1030.7 1434.29,1034 1446.3,1035.51 1458.32,1035.51 1470.33,1035.51 1482.34,1035.51 1494.36,1038.18 1506.37,1039.89 1518.38,1039.89 1530.39,1039.89 1542.41,1039.89 1554.42,1039.89 1566.43,1039.89 1578.44,1044.13 1590.46,1046.32 1602.47,1046.32 1614.48,1046.32 1626.5,1049.61 1638.51,1053.22 1650.52,1053.22 1662.53,1053.22 1674.55,1054.6 1686.56,1056.84 1698.57,1056.84 1710.58,1056.84 1722.6,1058.04 1734.61,1060.89 1746.62,1060.89 1758.64,1064.75 1770.65,1066.48 1782.66,1066.48 1794.67,1066.48 1806.69,1068.85 1818.7,1068.85 1830.71,1068.85 1842.72,1068.85 1854.74,1068.85 1866.75,1069.75 1878.76,1069.75 1890.77,1071.47 1902.79,1073.47 1914.8,1073.47 1926.81,1074.87 1938.83,1074.87 1950.84,1074.87 1962.85,1074.87 1974.86,1074.87 1986.88,1074.87 1998.89,1074.87 2010.9,1074.87 2022.91,1077.36 2034.93,1077.36 2046.94,1077.36 2058.95,1077.36 2070.97,1077.36 2082.98,1079.36 2094.99,1079.36 2107,1079.36 2119.02,1080.27 2131.03,1080.27 2143.04,1080.27 2155.05,1083.96 2167.07,1083.96 2179.08,1088.31 2191.09,1088.31 2203.11,1088.31 2215.12,1088.31 2227.13,1088.31 2239.14,1088.31 2251.16,1088.31 2263.17,1089.76 2275.18,1089.76 2287.19,1089.76 2299.21,1089.76 2311.22,1090.51 2323.23,1093.89 2335.25,1096.48 2347.26,1099.77 2359.27,1102.37 2371.28,1102.37 2383.3,1106.77 2395.31,1109.18 2407.32,1109.18 2419.33,1113.37 2431.35,1113.37 2443.36,1113.37 2455.37,1113.37 2467.39,1113.37 2479.4,1116.71 2491.41,1116.71 2503.42,1116.71 2515.44,1119.38 2527.45,1119.38 2539.46,1120.28 2551.47,1121.4 2563.49,1121.4 2575.5,1121.4 2587.51,1121.4 2599.53,1121.4 2611.54,1121.4 2623.55,1121.4 2635.56,1121.4 2647.58,1122.37 2659.59,1122.37 2671.6,1122.37 2683.61,1122.37 2695.63,1122.37 2707.64,1122.37 2719.65,1122.37 2731.67,1122.37 2743.68,1122.37 2755.69,1122.37 2767.7,1122.37 2779.72,1122.37 2791.73,1122.37 2803.74,1122.37 2815.75,1122.37 2827.77,1122.37 2839.78,1122.37 2851.79,1122.37 2863.81,1122.37 2875.82,1122.37 2887.83,1122.37 2899.84,1122.37 2911.86,1122.37 2923.87,1124 2935.88,1126.03 2947.89,1126.64 2959.91,1126.64 2971.92,1126.64 2983.93,1126.64 2995.95,1126.64 3007.96,1126.64 3019.97,1126.64 3031.98,1126.64 3044,1126.64 3056.01,1126.64 3068.02,1126.64 3080.03,1126.64 3092.05,1126.64 3104.06,1126.64 3116.07,1126.64 3128.09,1126.64 3140.1,1126.64 3152.11,1126.64 3164.12,1126.64 3176.14,1126.64 3188.15,1126.64 3200.16,1126.64 3212.17,1126.64 3224.19,1128.9 "/>
<path clip-path="url(#clip810)" d="M1524.47 294.847 L1817.7 294.847 L1817.7 87.4866 L1524.47 87.4866  Z" fill="#ffffff" fill-rule="evenodd" fill-opacity="1"/>
<polyline clip-path="url(#clip810)" style="stroke:#000000; stroke-linecap:round; stroke-linejoin:round; stroke-width:4; stroke-opacity:1; fill:none" points="1524.47,294.847 1817.7,294.847 1817.7,87.4866 1524.47,87.4866 1524.47,294.847 "/>
<polyline clip-path="url(#clip810)" style="stroke:#000000; stroke-linecap:round; stroke-linejoin:round; stroke-width:4; stroke-opacity:1; fill:none" points="1542.82,139.327 1652.94,139.327 "/>
<path clip-path="url(#clip810)" d="M1687.79 120.588 L1687.79 124.13 L1683.72 124.13 Q1681.43 124.13 1680.53 125.056 Q1679.65 125.982 1679.65 128.389 L1679.65 130.681 L1686.66 130.681 L1686.66 133.991 L1679.65 133.991 L1679.65 156.607 L1675.36 156.607 L1675.36 133.991 L1671.29 133.991 L1671.29 130.681 L1675.36 130.681 L1675.36 128.875 Q1675.36 124.547 1677.38 122.579 Q1679.39 120.588 1683.77 120.588 L1687.79 120.588 Z" fill="#000000" fill-rule="nonzero" fill-opacity="1" /><path clip-path="url(#clip810)" d="M1706.38 134.662 Q1705.66 134.246 1704.81 134.06 Q1703.97 133.852 1702.96 133.852 Q1699.35 133.852 1697.4 136.213 Q1695.48 138.551 1695.48 142.949 L1695.48 156.607 L1691.2 156.607 L1691.2 130.681 L1695.48 130.681 L1695.48 134.709 Q1696.82 132.347 1698.97 131.213 Q1701.13 130.056 1704.21 130.056 Q1704.65 130.056 1705.18 130.125 Q1705.71 130.172 1706.36 130.287 L1706.38 134.662 Z" fill="#000000" fill-rule="nonzero" fill-opacity="1" /><path clip-path="url(#clip810)" d="M1731.98 142.579 L1731.98 144.662 L1712.4 144.662 Q1712.68 149.06 1715.04 151.375 Q1717.42 153.667 1721.66 153.667 Q1724.11 153.667 1726.41 153.065 Q1728.72 152.463 1730.99 151.259 L1730.99 155.287 Q1728.7 156.259 1726.29 156.769 Q1723.88 157.278 1721.41 157.278 Q1715.2 157.278 1711.57 153.667 Q1707.96 150.056 1707.96 143.898 Q1707.96 137.533 1711.38 133.806 Q1714.83 130.056 1720.66 130.056 Q1725.9 130.056 1728.93 133.435 Q1731.98 136.792 1731.98 142.579 M1727.72 141.329 Q1727.68 137.834 1725.76 135.75 Q1723.86 133.667 1720.71 133.667 Q1717.15 133.667 1714.99 135.681 Q1712.86 137.695 1712.54 141.352 L1727.72 141.329 Z" fill="#000000" fill-rule="nonzero" fill-opacity="1" /><path clip-path="url(#clip810)" d="M1741.52 143.667 Q1741.52 148.366 1743.44 151.051 Q1745.39 153.713 1748.77 153.713 Q1752.15 153.713 1754.09 151.051 Q1756.03 148.366 1756.03 143.667 Q1756.03 138.968 1754.09 136.306 Q1752.15 133.621 1748.77 133.621 Q1745.39 133.621 1743.44 136.306 Q1741.52 138.968 1741.52 143.667 M1756.03 152.718 Q1754.69 155.033 1752.63 156.167 Q1750.6 157.278 1747.72 157.278 Q1743.03 157.278 1740.06 153.528 Q1737.12 149.778 1737.12 143.667 Q1737.12 137.556 1740.06 133.806 Q1743.03 130.056 1747.72 130.056 Q1750.6 130.056 1752.63 131.19 Q1754.69 132.301 1756.03 134.616 L1756.03 130.681 L1760.29 130.681 L1760.29 166.468 L1756.03 166.468 L1756.03 152.718 Z" fill="#000000" fill-rule="nonzero" fill-opacity="1" /><polyline clip-path="url(#clip810)" style="stroke:#009af9; stroke-linecap:round; stroke-linejoin:round; stroke-width:4; stroke-opacity:1; fill:none" points="1542.82,191.167 1652.94,191.167 "/>
<path clip-path="url(#clip810)" d="M1693 192.799 L1693 208.447 L1688.74 208.447 L1688.74 192.937 Q1688.74 189.257 1687.31 187.428 Q1685.87 185.6 1683 185.6 Q1679.55 185.6 1677.56 187.799 Q1675.57 189.998 1675.57 193.794 L1675.57 208.447 L1671.29 208.447 L1671.29 172.428 L1675.57 172.428 L1675.57 186.549 Q1677.1 184.211 1679.16 183.053 Q1681.24 181.896 1683.95 181.896 Q1688.42 181.896 1690.71 184.674 Q1693 187.428 1693 192.799 Z" fill="#000000" fill-rule="nonzero" fill-opacity="1" /><path clip-path="url(#clip810)" d="M1727.56 176.549 L1727.56 181.479 Q1725.2 179.28 1722.52 178.192 Q1719.85 177.104 1716.85 177.104 Q1710.92 177.104 1707.77 180.738 Q1704.62 184.35 1704.62 191.201 Q1704.62 198.03 1707.77 201.664 Q1710.92 205.275 1716.85 205.275 Q1719.85 205.275 1722.52 204.187 Q1725.2 203.099 1727.56 200.9 L1727.56 205.785 Q1725.11 207.451 1722.35 208.285 Q1719.62 209.118 1716.57 209.118 Q1708.72 209.118 1704.21 204.326 Q1699.69 199.511 1699.69 191.201 Q1699.69 182.868 1704.21 178.076 Q1708.72 173.262 1716.57 173.262 Q1719.67 173.262 1722.4 174.095 Q1725.16 174.905 1727.56 176.549 Z" fill="#000000" fill-rule="nonzero" fill-opacity="1" /><path clip-path="url(#clip810)" d="M1751.17 192.243 Q1752.68 192.752 1754.09 194.419 Q1755.53 196.086 1756.96 199.002 L1761.71 208.447 L1756.68 208.447 L1752.26 199.581 Q1750.55 196.109 1748.93 194.974 Q1747.33 193.84 1744.55 193.84 L1739.46 193.84 L1739.46 208.447 L1734.78 208.447 L1734.78 173.887 L1745.34 173.887 Q1751.27 173.887 1754.18 176.363 Q1757.1 178.84 1757.1 183.84 Q1757.1 187.104 1755.57 189.257 Q1754.07 191.41 1751.17 192.243 M1739.46 177.729 L1739.46 189.998 L1745.34 189.998 Q1748.72 189.998 1750.43 188.447 Q1752.17 186.873 1752.17 183.84 Q1752.17 180.808 1750.43 179.28 Q1748.72 177.729 1745.34 177.729 L1739.46 177.729 Z" fill="#000000" fill-rule="nonzero" fill-opacity="1" /><path clip-path="url(#clip810)" d="M1767.72 173.887 L1774.69 173.887 L1783.51 197.405 L1792.38 173.887 L1799.34 173.887 L1799.34 208.447 L1794.78 208.447 L1794.78 178.1 L1785.87 201.803 L1781.17 201.803 L1772.26 178.1 L1772.26 208.447 L1767.72 208.447 L1767.72 173.887 Z" fill="#000000" fill-rule="nonzero" fill-opacity="1" /><polyline clip-path="url(#clip810)" style="stroke:#e26f46; stroke-linecap:round; stroke-linejoin:round; stroke-width:4; stroke-opacity:1; fill:none" points="1542.82,243.007 1652.94,243.007 "/>
<path clip-path="url(#clip810)" d="M1675.97 243.782 L1675.97 256.444 L1683.47 256.444 Q1687.24 256.444 1689.04 254.893 Q1690.87 253.319 1690.87 250.101 Q1690.87 246.861 1689.04 245.333 Q1687.24 243.782 1683.47 243.782 L1675.97 243.782 M1675.97 229.569 L1675.97 239.986 L1682.89 239.986 Q1686.31 239.986 1687.98 238.713 Q1689.67 237.416 1689.67 234.777 Q1689.67 232.162 1687.98 230.865 Q1686.31 229.569 1682.89 229.569 L1675.97 229.569 M1671.29 225.727 L1683.23 225.727 Q1688.58 225.727 1691.48 227.949 Q1694.37 230.171 1694.37 234.268 Q1694.37 237.44 1692.89 239.315 Q1691.41 241.189 1688.54 241.652 Q1691.98 242.393 1693.88 244.754 Q1695.8 247.092 1695.8 250.611 Q1695.8 255.24 1692.66 257.763 Q1689.51 260.287 1683.7 260.287 L1671.29 260.287 L1671.29 225.727 Z" fill="#000000" fill-rule="nonzero" fill-opacity="1" /><path clip-path="url(#clip810)" d="M1715.36 230.333 L1709.02 247.532 L1721.73 247.532 L1715.36 230.333 M1712.72 225.727 L1718.03 225.727 L1731.2 260.287 L1726.34 260.287 L1723.19 251.421 L1707.61 251.421 L1704.46 260.287 L1699.53 260.287 L1712.72 225.727 Z" fill="#000000" fill-rule="nonzero" fill-opacity="1" /><path clip-path="url(#clip810)" d="M1752.63 244.083 Q1754.14 244.592 1755.55 246.259 Q1756.98 247.926 1758.42 250.842 L1763.16 260.287 L1758.14 260.287 L1753.72 251.421 Q1752.01 247.949 1750.39 246.814 Q1748.79 245.68 1746.01 245.68 L1740.92 245.68 L1740.92 260.287 L1736.24 260.287 L1736.24 225.727 L1746.8 225.727 Q1752.72 225.727 1755.64 228.203 Q1758.56 230.68 1758.56 235.68 Q1758.56 238.944 1757.03 241.097 Q1755.53 243.25 1752.63 244.083 M1740.92 229.569 L1740.92 241.838 L1746.8 241.838 Q1750.18 241.838 1751.89 240.287 Q1753.63 238.713 1753.63 235.68 Q1753.63 232.648 1751.89 231.12 Q1750.18 229.569 1746.8 229.569 L1740.92 229.569 Z" fill="#000000" fill-rule="nonzero" fill-opacity="1" /><path clip-path="url(#clip810)" d="M1760.94 225.727 L1790.18 225.727 L1790.18 229.662 L1777.91 229.662 L1777.91 260.287 L1773.21 260.287 L1773.21 229.662 L1760.94 229.662 L1760.94 225.727 Z" fill="#000000" fill-rule="nonzero" fill-opacity="1" /></svg>
