<?xml version="1.0" encoding="utf-8"?>
<svg xmlns="http://www.w3.org/2000/svg" xmlns:xlink="http://www.w3.org/1999/xlink" width="480" height="360" viewBox="0 0 1920 1440">
<defs>
  <clipPath id="clip770">
    <rect x="0" y="0" width="1920" height="1440"/>
  </clipPath>
</defs>
<path clip-path="url(#clip770)" d="M0 1440 L1920 1440 L1920 0 L0 0  Z" fill="#ffffff" fill-rule="evenodd" fill-opacity="1"/>
<defs>
  <clipPath id="clip771">
    <rect x="384" y="0" width="1345" height="1345"/>
  </clipPath>
</defs>
<path clip-path="url(#clip770)" d="M221.006 1254.52 L1872.76 1254.52 L1872.76 47.2441 L221.006 47.2441  Z" fill="#ffffff" fill-rule="evenodd" fill-opacity="1"/>
<defs>
  <clipPath id="clip772">
    <rect x="221" y="47" width="1653" height="1208"/>
  </clipPath>
</defs>
<polyline clip-path="url(#clip772)" style="stroke:#000000; stroke-linecap:round; stroke-linejoin:round; stroke-width:2; stroke-opacity:0.1; fill:none" points="221.006,1254.52 221.006,47.2441 "/>
<polyline clip-path="url(#clip772)" style="stroke:#000000; stroke-linecap:round; stroke-linejoin:round; stroke-width:2; stroke-opacity:0.1; fill:none" points="521.324,1254.52 521.324,47.2441 "/>
<polyline clip-path="url(#clip772)" style="stroke:#000000; stroke-linecap:round; stroke-linejoin:round; stroke-width:2; stroke-opacity:0.1; fill:none" points="821.642,1254.52 821.642,47.2441 "/>
<polyline clip-path="url(#clip772)" style="stroke:#000000; stroke-linecap:round; stroke-linejoin:round; stroke-width:2; stroke-opacity:0.1; fill:none" points="1121.96,1254.52 1121.96,47.2441 "/>
<polyline clip-path="url(#clip772)" style="stroke:#000000; stroke-linecap:round; stroke-linejoin:round; stroke-width:2; stroke-opacity:0.1; fill:none" points="1422.28,1254.52 1422.28,47.2441 "/>
<polyline clip-path="url(#clip772)" style="stroke:#000000; stroke-linecap:round; stroke-linejoin:round; stroke-width:2; stroke-opacity:0.1; fill:none" points="1722.6,1254.52 1722.6,47.2441 "/>
<polyline clip-path="url(#clip772)" style="stroke:#000000; stroke-linecap:round; stroke-linejoin:round; stroke-width:2; stroke-opacity:0.1; fill:none" points="221.006,1254.52 1872.76,1254.52 "/>
<polyline clip-path="url(#clip772)" style="stroke:#000000; stroke-linecap:round; stroke-linejoin:round; stroke-width:2; stroke-opacity:0.1; fill:none" points="221.006,1013.06 1872.76,1013.06 "/>
<polyline clip-path="url(#clip772)" style="stroke:#000000; stroke-linecap:round; stroke-linejoin:round; stroke-width:2; stroke-opacity:0.1; fill:none" points="221.006,771.61 1872.76,771.61 "/>
<polyline clip-path="url(#clip772)" style="stroke:#000000; stroke-linecap:round; stroke-linejoin:round; stroke-width:2; stroke-opacity:0.1; fill:none" points="221.006,530.154 1872.76,530.154 "/>
<polyline clip-path="url(#clip772)" style="stroke:#000000; stroke-linecap:round; stroke-linejoin:round; stroke-width:2; stroke-opacity:0.1; fill:none" points="221.006,288.699 1872.76,288.699 "/>
<polyline clip-path="url(#clip772)" style="stroke:#000000; stroke-linecap:round; stroke-linejoin:round; stroke-width:2; stroke-opacity:0.1; fill:none" points="221.006,47.2441 1872.76,47.2441 "/>
<polyline clip-path="url(#clip770)" style="stroke:#000000; stroke-linecap:round; stroke-linejoin:round; stroke-width:4; stroke-opacity:1; fill:none" points="221.006,1254.52 1872.76,1254.52 "/>
<polyline clip-path="url(#clip770)" style="stroke:#000000; stroke-linecap:round; stroke-linejoin:round; stroke-width:4; stroke-opacity:1; fill:none" points="221.006,1254.52 221.006,1235.62 "/>
<polyline clip-path="url(#clip770)" style="stroke:#000000; stroke-linecap:round; stroke-linejoin:round; stroke-width:4; stroke-opacity:1; fill:none" points="521.324,1254.52 521.324,1235.62 "/>
<polyline clip-path="url(#clip770)" style="stroke:#000000; stroke-linecap:round; stroke-linejoin:round; stroke-width:4; stroke-opacity:1; fill:none" points="821.642,1254.52 821.642,1235.62 "/>
<polyline clip-path="url(#clip770)" style="stroke:#000000; stroke-linecap:round; stroke-linejoin:round; stroke-width:4; stroke-opacity:1; fill:none" points="1121.96,1254.52 1121.96,1235.62 "/>
<polyline clip-path="url(#clip770)" style="stroke:#000000; stroke-linecap:round; stroke-linejoin:round; stroke-width:4; stroke-opacity:1; fill:none" points="1422.28,1254.52 1422.28,1235.62 "/>
<polyline clip-path="url(#clip770)" style="stroke:#000000; stroke-linecap:round; stroke-linejoin:round; stroke-width:4; stroke-opacity:1; fill:none" points="1722.6,1254.52 1722.6,1235.62 "/>
<path clip-path="url(#clip770)" d="M221.006 1281.6 Q217.395 1281.6 215.566 1285.16 Q213.761 1288.7 213.761 1295.83 Q213.761 1302.94 215.566 1306.51 Q217.395 1310.05 221.006 1310.05 Q224.641 1310.05 226.446 1306.51 Q228.275 1302.94 228.275 1295.83 Q228.275 1288.7 226.446 1285.16 Q224.641 1281.6 221.006 1281.6 M221.006 1277.89 Q226.816 1277.89 229.872 1282.5 Q232.951 1287.08 232.951 1295.83 Q232.951 1304.56 229.872 1309.17 Q226.816 1313.75 221.006 1313.75 Q215.196 1313.75 212.117 1309.17 Q209.062 1304.56 209.062 1295.83 Q209.062 1287.08 212.117 1282.5 Q215.196 1277.89 221.006 1277.89 Z" fill="#000000" fill-rule="nonzero" fill-opacity="1" /><path clip-path="url(#clip770)" d="M511.706 1309.14 L519.345 1309.14 L519.345 1282.78 L511.035 1284.45 L511.035 1280.19 L519.299 1278.52 L523.975 1278.52 L523.975 1309.14 L531.614 1309.14 L531.614 1313.08 L511.706 1313.08 L511.706 1309.14 Z" fill="#000000" fill-rule="nonzero" fill-opacity="1" /><path clip-path="url(#clip770)" d="M816.295 1309.14 L832.615 1309.14 L832.615 1313.08 L810.67 1313.08 L810.67 1309.14 Q813.332 1306.39 817.916 1301.76 Q822.522 1297.11 823.703 1295.77 Q825.948 1293.24 826.828 1291.51 Q827.73 1289.75 827.73 1288.06 Q827.73 1285.3 825.786 1283.57 Q823.865 1281.83 820.763 1281.83 Q818.564 1281.83 816.11 1282.59 Q813.68 1283.36 810.902 1284.91 L810.902 1280.19 Q813.726 1279.05 816.18 1278.47 Q818.633 1277.89 820.67 1277.89 Q826.041 1277.89 829.235 1280.58 Q832.429 1283.27 832.429 1287.76 Q832.429 1289.89 831.619 1291.81 Q830.832 1293.7 828.726 1296.3 Q828.147 1296.97 825.045 1300.19 Q821.943 1303.38 816.295 1309.14 Z" fill="#000000" fill-rule="nonzero" fill-opacity="1" /><path clip-path="url(#clip770)" d="M1126.21 1294.45 Q1129.56 1295.16 1131.44 1297.43 Q1133.34 1299.7 1133.34 1303.03 Q1133.34 1308.15 1129.82 1310.95 Q1126.3 1313.75 1119.82 1313.75 Q1117.64 1313.75 1115.33 1313.31 Q1113.04 1312.89 1110.58 1312.04 L1110.58 1307.52 Q1112.53 1308.66 1114.84 1309.24 Q1117.16 1309.82 1119.68 1309.82 Q1124.08 1309.82 1126.37 1308.08 Q1128.69 1306.34 1128.69 1303.03 Q1128.69 1299.98 1126.53 1298.27 Q1124.4 1296.53 1120.58 1296.53 L1116.56 1296.53 L1116.56 1292.69 L1120.77 1292.69 Q1124.22 1292.69 1126.05 1291.32 Q1127.87 1289.93 1127.87 1287.34 Q1127.87 1284.68 1125.98 1283.27 Q1124.1 1281.83 1120.58 1281.83 Q1118.66 1281.83 1116.46 1282.25 Q1114.26 1282.66 1111.63 1283.54 L1111.63 1279.38 Q1114.29 1278.64 1116.6 1278.27 Q1118.94 1277.89 1121 1277.89 Q1126.32 1277.89 1129.43 1280.33 Q1132.53 1282.73 1132.53 1286.85 Q1132.53 1289.72 1130.88 1291.71 Q1129.24 1293.68 1126.21 1294.45 Z" fill="#000000" fill-rule="nonzero" fill-opacity="1" /><path clip-path="url(#clip770)" d="M1425.29 1282.59 L1413.48 1301.04 L1425.29 1301.04 L1425.29 1282.59 M1424.06 1278.52 L1429.94 1278.52 L1429.94 1301.04 L1434.87 1301.04 L1434.87 1304.93 L1429.94 1304.93 L1429.94 1313.08 L1425.29 1313.08 L1425.29 1304.93 L1409.69 1304.93 L1409.69 1300.42 L1424.06 1278.52 Z" fill="#000000" fill-rule="nonzero" fill-opacity="1" /><path clip-path="url(#clip770)" d="M1712.87 1278.52 L1731.23 1278.52 L1731.23 1282.46 L1717.16 1282.46 L1717.16 1290.93 Q1718.18 1290.58 1719.19 1290.42 Q1720.21 1290.23 1721.23 1290.23 Q1727.02 1290.23 1730.4 1293.4 Q1733.78 1296.58 1733.78 1301.99 Q1733.78 1307.57 1730.31 1310.67 Q1726.83 1313.75 1720.51 1313.75 Q1718.34 1313.75 1716.07 1313.38 Q1713.82 1313.01 1711.42 1312.27 L1711.42 1307.57 Q1713.5 1308.7 1715.72 1309.26 Q1717.94 1309.82 1720.42 1309.82 Q1724.43 1309.82 1726.76 1307.71 Q1729.1 1305.6 1729.1 1301.99 Q1729.1 1298.38 1726.76 1296.27 Q1724.43 1294.17 1720.42 1294.17 Q1718.55 1294.17 1716.67 1294.58 Q1714.82 1295 1712.87 1295.88 L1712.87 1278.52 Z" fill="#000000" fill-rule="nonzero" fill-opacity="1" /><path clip-path="url(#clip770)" d="M932.67 1356.05 Q932.67 1356.95 932.251 1357.18 Q931.832 1357.37 930.673 1357.37 L924.489 1357.37 L919.594 1376.82 Q919.208 1378.53 919.208 1379.98 Q919.208 1381.59 919.691 1382.3 Q920.206 1383.01 921.269 1383.01 Q923.362 1383.01 925.616 1381.11 Q927.903 1379.21 929.835 1374.57 Q930.093 1373.96 930.222 1373.83 Q930.383 1373.67 930.802 1373.67 Q931.607 1373.67 931.607 1374.31 Q931.607 1374.54 931.156 1375.57 Q930.737 1376.6 929.803 1378.11 Q928.901 1379.62 927.71 1381.04 Q926.55 1382.46 924.779 1383.49 Q923.008 1384.49 921.108 1384.49 Q918.435 1384.49 916.728 1382.78 Q915.053 1381.07 915.053 1378.4 Q915.053 1377.53 915.729 1374.76 Q916.406 1371.96 920.077 1357.37 L914.248 1357.37 Q913.443 1357.37 913.121 1357.34 Q912.831 1357.31 912.605 1357.14 Q912.412 1356.95 912.412 1356.57 Q912.412 1355.95 912.67 1355.7 Q912.927 1355.41 913.249 1355.37 Q913.604 1355.31 914.409 1355.31 L920.592 1355.31 L923.169 1344.84 Q923.426 1343.81 924.071 1343.23 Q924.747 1342.62 925.133 1342.56 Q925.52 1342.46 925.81 1342.46 Q926.679 1342.46 927.195 1342.94 Q927.71 1343.39 927.71 1344.23 Q927.71 1344.68 925.005 1355.31 L930.802 1355.31 Q931.542 1355.31 931.832 1355.34 Q932.154 1355.37 932.412 1355.53 Q932.67 1355.7 932.67 1356.05 Z" fill="#000000" fill-rule="nonzero" fill-opacity="1" /><path clip-path="url(#clip770)" d="M976.915 1334.29 Q972.65 1341.61 970.582 1348.77 Q968.513 1355.93 968.513 1363.28 Q968.513 1370.63 970.582 1377.86 Q972.682 1385.05 976.915 1392.34 L971.823 1392.34 Q967.049 1384.86 964.661 1377.64 Q962.306 1370.41 962.306 1363.28 Q962.306 1356.18 964.661 1348.99 Q967.017 1341.8 971.823 1334.29 L976.915 1334.29 Z" fill="#000000" fill-rule="nonzero" fill-opacity="1" /><path clip-path="url(#clip770)" d="M1003.11 1387.06 Q1000.63 1393.42 998.272 1395.36 Q995.917 1397.31 991.97 1397.31 L987.292 1397.31 L987.292 1392.4 L990.729 1392.4 Q993.148 1392.4 994.485 1391.26 Q995.822 1390.11 997.445 1385.85 L998.495 1383.17 L984.077 1348.1 L990.283 1348.1 L1001.42 1375.98 L1012.56 1348.1 L1018.77 1348.1 L1003.11 1387.06 Z" fill="#000000" fill-rule="nonzero" fill-opacity="1" /><path clip-path="url(#clip770)" d="M1057.35 1364.46 L1057.35 1367.32 L1030.42 1367.32 Q1030.8 1373.37 1034.05 1376.55 Q1037.33 1379.7 1043.15 1379.7 Q1046.52 1379.7 1049.68 1378.88 Q1052.86 1378.05 1055.98 1376.39 L1055.98 1381.93 Q1052.83 1383.27 1049.52 1383.97 Q1046.21 1384.67 1042.8 1384.67 Q1034.27 1384.67 1029.27 1379.7 Q1024.31 1374.74 1024.31 1366.27 Q1024.31 1357.52 1029.02 1352.4 Q1033.76 1347.24 1041.78 1347.24 Q1048.98 1347.24 1053.14 1351.89 Q1057.35 1356.5 1057.35 1364.46 M1051.49 1362.74 Q1051.43 1357.93 1048.78 1355.07 Q1046.17 1352.2 1041.85 1352.2 Q1036.94 1352.2 1033.98 1354.97 Q1031.06 1357.74 1030.61 1362.77 L1051.49 1362.74 Z" fill="#000000" fill-rule="nonzero" fill-opacity="1" /><path clip-path="url(#clip770)" d="M1083.16 1365.83 Q1076.06 1365.83 1073.32 1367.45 Q1070.59 1369.07 1070.59 1372.99 Q1070.59 1376.11 1072.62 1377.95 Q1074.69 1379.77 1078.23 1379.77 Q1083.1 1379.77 1086.02 1376.33 Q1088.98 1372.86 1088.98 1367.13 L1088.98 1365.83 L1083.16 1365.83 M1094.84 1363.41 L1094.84 1383.75 L1088.98 1383.75 L1088.98 1378.34 Q1086.98 1381.58 1083.99 1383.14 Q1080.99 1384.67 1076.67 1384.67 Q1071.19 1384.67 1067.95 1381.61 Q1064.73 1378.53 1064.73 1373.37 Q1064.73 1367.36 1068.74 1364.3 Q1072.78 1361.24 1080.77 1361.24 L1088.98 1361.24 L1088.98 1360.67 Q1088.98 1356.63 1086.31 1354.43 Q1083.67 1352.2 1078.86 1352.2 Q1075.81 1352.2 1072.91 1352.94 Q1070.01 1353.67 1067.34 1355.13 L1067.34 1349.72 Q1070.55 1348.48 1073.58 1347.88 Q1076.6 1347.24 1079.47 1347.24 Q1087.2 1347.24 1091.02 1351.25 Q1094.84 1355.26 1094.84 1363.41 Z" fill="#000000" fill-rule="nonzero" fill-opacity="1" /><path clip-path="url(#clip770)" d="M1127.56 1353.57 Q1126.57 1353 1125.4 1352.75 Q1124.25 1352.46 1122.85 1352.46 Q1117.88 1352.46 1115.21 1355.71 Q1112.57 1358.92 1112.57 1364.97 L1112.57 1383.75 L1106.68 1383.75 L1106.68 1348.1 L1112.57 1348.1 L1112.57 1353.64 Q1114.41 1350.39 1117.37 1348.83 Q1120.33 1347.24 1124.57 1347.24 Q1125.17 1347.24 1125.9 1347.34 Q1126.64 1347.4 1127.53 1347.56 L1127.56 1353.57 Z" fill="#000000" fill-rule="nonzero" fill-opacity="1" /><path clip-path="url(#clip770)" d="M1156.43 1349.15 L1156.43 1354.69 Q1153.95 1353.41 1151.27 1352.78 Q1148.6 1352.14 1145.73 1352.14 Q1141.37 1352.14 1139.18 1353.48 Q1137.01 1354.81 1137.01 1357.49 Q1137.01 1359.53 1138.57 1360.7 Q1140.13 1361.85 1144.84 1362.9 L1146.85 1363.34 Q1153.09 1364.68 1155.7 1367.13 Q1158.34 1369.55 1158.34 1373.91 Q1158.34 1378.88 1154.39 1381.77 Q1150.48 1384.67 1143.6 1384.67 Q1140.74 1384.67 1137.62 1384.1 Q1134.53 1383.56 1131.09 1382.44 L1131.09 1376.39 Q1134.34 1378.08 1137.49 1378.94 Q1140.64 1379.77 1143.73 1379.77 Q1147.87 1379.77 1150.09 1378.37 Q1152.32 1376.94 1152.32 1374.36 Q1152.32 1371.97 1150.7 1370.7 Q1149.11 1369.42 1143.67 1368.25 L1141.63 1367.77 Q1136.19 1366.62 1133.77 1364.27 Q1131.35 1361.88 1131.35 1357.74 Q1131.35 1352.71 1134.91 1349.98 Q1138.48 1347.24 1145.03 1347.24 Q1148.28 1347.24 1151.14 1347.72 Q1154.01 1348.19 1156.43 1349.15 Z" fill="#000000" fill-rule="nonzero" fill-opacity="1" /><path clip-path="url(#clip770)" d="M1166.74 1334.29 L1171.83 1334.29 Q1176.61 1341.8 1178.96 1348.99 Q1181.35 1356.18 1181.35 1363.28 Q1181.35 1370.41 1178.96 1377.64 Q1176.61 1384.86 1171.83 1392.34 L1166.74 1392.34 Q1170.97 1385.05 1173.04 1377.86 Q1175.14 1370.63 1175.14 1363.28 Q1175.14 1355.93 1173.04 1348.77 Q1170.97 1341.61 1166.74 1334.29 Z" fill="#000000" fill-rule="nonzero" fill-opacity="1" /><polyline clip-path="url(#clip770)" style="stroke:#000000; stroke-linecap:round; stroke-linejoin:round; stroke-width:4; stroke-opacity:1; fill:none" points="221.006,1254.52 221.006,47.2441 "/>
<polyline clip-path="url(#clip770)" style="stroke:#000000; stroke-linecap:round; stroke-linejoin:round; stroke-width:4; stroke-opacity:1; fill:none" points="221.006,1254.52 239.904,1254.52 "/>
<polyline clip-path="url(#clip770)" style="stroke:#000000; stroke-linecap:round; stroke-linejoin:round; stroke-width:4; stroke-opacity:1; fill:none" points="221.006,1013.06 239.904,1013.06 "/>
<polyline clip-path="url(#clip770)" style="stroke:#000000; stroke-linecap:round; stroke-linejoin:round; stroke-width:4; stroke-opacity:1; fill:none" points="221.006,771.61 239.904,771.61 "/>
<polyline clip-path="url(#clip770)" style="stroke:#000000; stroke-linecap:round; stroke-linejoin:round; stroke-width:4; stroke-opacity:1; fill:none" points="221.006,530.154 239.904,530.154 "/>
<polyline clip-path="url(#clip770)" style="stroke:#000000; stroke-linecap:round; stroke-linejoin:round; stroke-width:4; stroke-opacity:1; fill:none" points="221.006,288.699 239.904,288.699 "/>
<polyline clip-path="url(#clip770)" style="stroke:#000000; stroke-linecap:round; stroke-linejoin:round; stroke-width:4; stroke-opacity:1; fill:none" points="221.006,47.2441 239.904,47.2441 "/>
<path clip-path="url(#clip770)" d="M135.031 1240.32 Q131.42 1240.32 129.591 1243.88 Q127.785 1247.42 127.785 1254.55 Q127.785 1261.66 129.591 1265.23 Q131.42 1268.77 135.031 1268.77 Q138.665 1268.77 140.47 1265.23 Q142.299 1261.66 142.299 1254.55 Q142.299 1247.42 140.47 1243.88 Q138.665 1240.32 135.031 1240.32 M135.031 1236.61 Q140.841 1236.61 143.896 1241.22 Q146.975 1245.8 146.975 1254.55 Q146.975 1263.28 143.896 1267.89 Q140.841 1272.47 135.031 1272.47 Q129.22 1272.47 126.142 1267.89 Q123.086 1263.28 123.086 1254.55 Q123.086 1245.8 126.142 1241.22 Q129.22 1236.61 135.031 1236.61 Z" fill="#000000" fill-rule="nonzero" fill-opacity="1" /><path clip-path="url(#clip770)" d="M155.193 1265.92 L160.077 1265.92 L160.077 1271.8 L155.193 1271.8 L155.193 1265.92 Z" fill="#000000" fill-rule="nonzero" fill-opacity="1" /><path clip-path="url(#clip770)" d="M180.262 1240.32 Q176.651 1240.32 174.822 1243.88 Q173.017 1247.42 173.017 1254.55 Q173.017 1261.66 174.822 1265.23 Q176.651 1268.77 180.262 1268.77 Q183.896 1268.77 185.702 1265.23 Q187.53 1261.66 187.53 1254.55 Q187.53 1247.42 185.702 1243.88 Q183.896 1240.32 180.262 1240.32 M180.262 1236.61 Q186.072 1236.61 189.128 1241.22 Q192.206 1245.8 192.206 1254.55 Q192.206 1263.28 189.128 1267.89 Q186.072 1272.47 180.262 1272.47 Q174.452 1272.47 171.373 1267.89 Q168.318 1263.28 168.318 1254.55 Q168.318 1245.8 171.373 1241.22 Q174.452 1236.61 180.262 1236.61 Z" fill="#000000" fill-rule="nonzero" fill-opacity="1" /><path clip-path="url(#clip770)" d="M136.628 998.863 Q133.017 998.863 131.188 1002.43 Q129.383 1005.97 129.383 1013.1 Q129.383 1020.21 131.188 1023.77 Q133.017 1027.31 136.628 1027.31 Q140.262 1027.31 142.068 1023.77 Q143.896 1020.21 143.896 1013.1 Q143.896 1005.97 142.068 1002.43 Q140.262 998.863 136.628 998.863 M136.628 995.16 Q142.438 995.16 145.494 999.766 Q148.572 1004.35 148.572 1013.1 Q148.572 1021.83 145.494 1026.43 Q142.438 1031.02 136.628 1031.02 Q130.818 1031.02 127.739 1026.43 Q124.683 1021.83 124.683 1013.1 Q124.683 1004.35 127.739 999.766 Q130.818 995.16 136.628 995.16 Z" fill="#000000" fill-rule="nonzero" fill-opacity="1" /><path clip-path="url(#clip770)" d="M156.79 1024.47 L161.674 1024.47 L161.674 1030.34 L156.79 1030.34 L156.79 1024.47 Z" fill="#000000" fill-rule="nonzero" fill-opacity="1" /><path clip-path="url(#clip770)" d="M175.887 1026.41 L192.206 1026.41 L192.206 1030.34 L170.262 1030.34 L170.262 1026.41 Q172.924 1023.65 177.507 1019.03 Q182.114 1014.37 183.294 1013.03 Q185.54 1010.51 186.419 1008.77 Q187.322 1007.01 187.322 1005.32 Q187.322 1002.57 185.378 1000.83 Q183.456 999.095 180.354 999.095 Q178.155 999.095 175.702 999.859 Q173.271 1000.62 170.493 1002.17 L170.493 997.451 Q173.317 996.317 175.771 995.738 Q178.225 995.16 180.262 995.16 Q185.632 995.16 188.827 997.845 Q192.021 1000.53 192.021 1005.02 Q192.021 1007.15 191.211 1009.07 Q190.424 1010.97 188.317 1013.56 Q187.739 1014.23 184.637 1017.45 Q181.535 1020.65 175.887 1026.41 Z" fill="#000000" fill-rule="nonzero" fill-opacity="1" /><path clip-path="url(#clip770)" d="M134.545 757.408 Q130.933 757.408 129.105 760.973 Q127.299 764.515 127.299 771.644 Q127.299 778.751 129.105 782.316 Q130.933 785.857 134.545 785.857 Q138.179 785.857 139.984 782.316 Q141.813 778.751 141.813 771.644 Q141.813 764.515 139.984 760.973 Q138.179 757.408 134.545 757.408 M134.545 753.705 Q140.355 753.705 143.41 758.311 Q146.489 762.894 146.489 771.644 Q146.489 780.371 143.41 784.978 Q140.355 789.561 134.545 789.561 Q128.734 789.561 125.656 784.978 Q122.6 780.371 122.6 771.644 Q122.6 762.894 125.656 758.311 Q128.734 753.705 134.545 753.705 Z" fill="#000000" fill-rule="nonzero" fill-opacity="1" /><path clip-path="url(#clip770)" d="M154.706 783.01 L159.591 783.01 L159.591 788.89 L154.706 788.89 L154.706 783.01 Z" fill="#000000" fill-rule="nonzero" fill-opacity="1" /><path clip-path="url(#clip770)" d="M182.623 758.404 L170.817 776.853 L182.623 776.853 L182.623 758.404 M181.396 754.33 L187.276 754.33 L187.276 776.853 L192.206 776.853 L192.206 780.741 L187.276 780.741 L187.276 788.89 L182.623 788.89 L182.623 780.741 L167.021 780.741 L167.021 776.228 L181.396 754.33 Z" fill="#000000" fill-rule="nonzero" fill-opacity="1" /><path clip-path="url(#clip770)" d="M134.869 515.953 Q131.258 515.953 129.429 519.518 Q127.623 523.06 127.623 530.189 Q127.623 537.296 129.429 540.86 Q131.258 544.402 134.869 544.402 Q138.503 544.402 140.308 540.86 Q142.137 537.296 142.137 530.189 Q142.137 523.06 140.308 519.518 Q138.503 515.953 134.869 515.953 M134.869 512.249 Q140.679 512.249 143.734 516.856 Q146.813 521.439 146.813 530.189 Q146.813 538.916 143.734 543.522 Q140.679 548.106 134.869 548.106 Q129.058 548.106 125.98 543.522 Q122.924 538.916 122.924 530.189 Q122.924 521.439 125.98 516.856 Q129.058 512.249 134.869 512.249 Z" fill="#000000" fill-rule="nonzero" fill-opacity="1" /><path clip-path="url(#clip770)" d="M155.031 541.555 L159.915 541.555 L159.915 547.434 L155.031 547.434 L155.031 541.555 Z" fill="#000000" fill-rule="nonzero" fill-opacity="1" /><path clip-path="url(#clip770)" d="M180.679 528.291 Q177.53 528.291 175.679 530.444 Q173.85 532.597 173.85 536.346 Q173.85 540.073 175.679 542.249 Q177.53 544.402 180.679 544.402 Q183.827 544.402 185.655 542.249 Q187.507 540.073 187.507 536.346 Q187.507 532.597 185.655 530.444 Q183.827 528.291 180.679 528.291 M189.961 513.638 L189.961 517.898 Q188.202 517.064 186.396 516.624 Q184.614 516.185 182.854 516.185 Q178.225 516.185 175.771 519.31 Q173.341 522.435 172.993 528.754 Q174.359 526.74 176.419 525.675 Q178.479 524.587 180.956 524.587 Q186.165 524.587 189.174 527.759 Q192.206 530.907 192.206 536.346 Q192.206 541.671 189.058 544.888 Q185.91 548.106 180.679 548.106 Q174.683 548.106 171.512 543.522 Q168.341 538.916 168.341 530.189 Q168.341 521.995 172.23 517.134 Q176.118 512.249 182.669 512.249 Q184.429 512.249 186.211 512.597 Q188.016 512.944 189.961 513.638 Z" fill="#000000" fill-rule="nonzero" fill-opacity="1" /><path clip-path="url(#clip770)" d="M135.123 274.498 Q131.512 274.498 129.683 278.063 Q127.878 281.604 127.878 288.734 Q127.878 295.84 129.683 299.405 Q131.512 302.947 135.123 302.947 Q138.757 302.947 140.563 299.405 Q142.392 295.84 142.392 288.734 Q142.392 281.604 140.563 278.063 Q138.757 274.498 135.123 274.498 M135.123 270.794 Q140.933 270.794 143.989 275.401 Q147.068 279.984 147.068 288.734 Q147.068 297.461 143.989 302.067 Q140.933 306.651 135.123 306.651 Q129.313 306.651 126.234 302.067 Q123.179 297.461 123.179 288.734 Q123.179 279.984 126.234 275.401 Q129.313 270.794 135.123 270.794 Z" fill="#000000" fill-rule="nonzero" fill-opacity="1" /><path clip-path="url(#clip770)" d="M155.285 300.1 L160.169 300.1 L160.169 305.979 L155.285 305.979 L155.285 300.1 Z" fill="#000000" fill-rule="nonzero" fill-opacity="1" /><path clip-path="url(#clip770)" d="M180.354 289.567 Q177.021 289.567 175.1 291.35 Q173.202 293.132 173.202 296.257 Q173.202 299.382 175.1 301.164 Q177.021 302.947 180.354 302.947 Q183.688 302.947 185.609 301.164 Q187.53 299.359 187.53 296.257 Q187.53 293.132 185.609 291.35 Q183.711 289.567 180.354 289.567 M175.679 287.577 Q172.669 286.836 170.98 284.776 Q169.313 282.715 169.313 279.753 Q169.313 275.609 172.253 273.202 Q175.216 270.794 180.354 270.794 Q185.516 270.794 188.456 273.202 Q191.396 275.609 191.396 279.753 Q191.396 282.715 189.706 284.776 Q188.04 286.836 185.054 287.577 Q188.433 288.364 190.308 290.655 Q192.206 292.947 192.206 296.257 Q192.206 301.28 189.128 303.965 Q186.072 306.651 180.354 306.651 Q174.637 306.651 171.558 303.965 Q168.503 301.28 168.503 296.257 Q168.503 292.947 170.401 290.655 Q172.299 288.364 175.679 287.577 M173.966 280.192 Q173.966 282.878 175.632 284.382 Q177.322 285.887 180.354 285.887 Q183.364 285.887 185.054 284.382 Q186.766 282.878 186.766 280.192 Q186.766 277.507 185.054 276.003 Q183.364 274.498 180.354 274.498 Q177.322 274.498 175.632 276.003 Q173.966 277.507 173.966 280.192 Z" fill="#000000" fill-rule="nonzero" fill-opacity="1" /><path clip-path="url(#clip770)" d="M125.841 60.5889 L133.48 60.5889 L133.48 34.2233 L125.17 35.89 L125.17 31.6308 L133.433 29.9641 L138.109 29.9641 L138.109 60.5889 L145.748 60.5889 L145.748 64.5241 L125.841 64.5241 L125.841 60.5889 Z" fill="#000000" fill-rule="nonzero" fill-opacity="1" /><path clip-path="url(#clip770)" d="M155.193 58.6445 L160.077 58.6445 L160.077 64.5241 L155.193 64.5241 L155.193 58.6445 Z" fill="#000000" fill-rule="nonzero" fill-opacity="1" /><path clip-path="url(#clip770)" d="M180.262 33.0428 Q176.651 33.0428 174.822 36.6076 Q173.017 40.1492 173.017 47.2788 Q173.017 54.3853 174.822 57.9501 Q176.651 61.4917 180.262 61.4917 Q183.896 61.4917 185.702 57.9501 Q187.53 54.3853 187.53 47.2788 Q187.53 40.1492 185.702 36.6076 Q183.896 33.0428 180.262 33.0428 M180.262 29.3391 Q186.072 29.3391 189.128 33.9456 Q192.206 38.5289 192.206 47.2788 Q192.206 56.0056 189.128 60.6121 Q186.072 65.1954 180.262 65.1954 Q174.452 65.1954 171.373 60.6121 Q168.318 56.0056 168.318 47.2788 Q168.318 38.5289 171.373 33.9456 Q174.452 29.3391 180.262 29.3391 Z" fill="#000000" fill-rule="nonzero" fill-opacity="1" /><path clip-path="url(#clip770)" d="M35.7905 670.595 L50.2187 674.17 Q51.0883 674.363 51.3137 674.524 Q51.5391 674.685 51.5391 675.136 Q51.5391 675.491 51.3781 675.716 Q51.2171 675.909 51.056 675.909 L50.895 675.941 Q50.7984 675.941 50.3153 675.877 Q49.8 675.813 48.9627 675.748 Q48.1253 675.684 47.1913 675.684 Q41.9096 675.684 39.4619 678.26 Q36.9821 680.805 36.9821 685.185 Q36.9821 688.212 38.5924 690.917 Q40.2027 693.623 42.7469 695.168 Q45.259 696.714 47.8999 696.714 Q50.3153 696.714 51.8612 695.49 Q53.4071 694.267 53.9224 692.689 L55.114 688.276 Q56.3056 683.639 56.8209 682.318 Q57.304 680.998 58.399 679.903 Q61.4263 676.65 66.1284 676.65 Q70.1863 676.65 74.1154 678.937 Q78.0124 681.223 80.5566 685.152 Q83.0687 689.081 83.0687 693.429 Q83.0687 701.062 78.3344 704.573 L82.0703 707.793 Q82.7788 708.405 82.9076 708.598 Q83.0687 708.759 83.0687 708.985 Q83.0687 709.275 82.8754 709.5 Q82.7144 709.725 82.4246 709.725 Q82.1991 709.725 74.6307 707.825 Q67.0624 705.925 66.9013 705.764 Q66.6437 705.506 66.6437 705.088 Q66.6437 704.315 67.3844 704.315 Q67.5777 704.379 67.8353 704.444 Q70.1541 704.83 71.4101 704.83 Q73.7612 704.83 75.5647 704.025 Q77.336 703.22 78.3666 702.028 Q79.365 700.804 80.0091 699.162 Q80.621 697.519 80.8465 696.135 Q81.0397 694.75 81.0397 693.3 Q81.0397 690.176 79.2362 687.407 Q77.4326 684.605 74.6307 683.027 Q71.8288 681.416 68.8981 681.416 Q67.3522 681.416 66.1606 681.835 Q64.9368 682.254 64.2604 682.834 Q63.5841 683.381 63.0688 684.315 Q62.5535 685.249 62.3603 685.893 Q62.1349 686.505 61.9094 687.471 L60.0415 694.524 Q59.2041 697.358 56.7887 699.387 Q54.3732 701.384 50.6696 701.384 Q46.7727 701.384 43.1656 699.098 Q39.5263 696.779 37.3363 693.011 Q35.1141 689.21 35.1141 685.12 Q35.1141 681.9 36.3702 679.42 Q37.594 676.94 39.8806 675.684 L36.1125 672.495 Q35.3718 671.851 35.243 671.723 Q35.1141 671.562 35.1141 671.336 Q35.1141 670.95 35.3396 670.789 Q35.565 670.595 35.7905 670.595 Z" fill="#000000" fill-rule="nonzero" fill-opacity="1" /><path clip-path="url(#clip770)" d="M65.13 663.095 Q53.9868 663.095 45.0013 658.94 Q41.2333 657.169 38.0771 654.689 Q34.9209 652.209 33.5361 650.567 Q32.1512 648.924 32.1512 648.473 Q32.1512 647.829 32.7953 647.797 Q33.1174 647.797 33.9225 648.667 Q44.7437 659.294 65.13 659.262 Q85.5807 659.262 95.9832 648.924 Q97.1104 647.797 97.4647 647.797 Q98.1088 647.797 98.1088 648.473 Q98.1088 648.924 96.7884 650.502 Q95.4679 652.08 92.4406 654.528 Q89.4132 656.976 85.7096 658.747 Q76.7241 663.095 65.13 663.095 Z" fill="#000000" fill-rule="nonzero" fill-opacity="1" /><path clip-path="url(#clip770)" d="M53.9224 622.527 Q54.8241 622.527 55.0496 622.946 Q55.2428 623.364 55.2428 624.524 L55.2428 630.707 L74.6951 635.603 Q76.4021 635.989 77.8513 635.989 Q79.4616 635.989 80.1701 635.506 Q80.8787 634.991 80.8787 633.928 Q80.8787 631.835 78.9785 629.58 Q77.0784 627.294 72.4407 625.361 Q71.8288 625.104 71.7 624.975 Q71.539 624.814 71.539 624.395 Q71.539 623.59 72.1831 623.59 Q72.4085 623.59 73.4391 624.041 Q74.4697 624.459 75.9834 625.393 Q77.4971 626.295 78.9141 627.487 Q80.3312 628.646 81.3618 630.417 Q82.3601 632.189 82.3601 634.089 Q82.3601 636.762 80.6532 638.469 Q78.9463 640.144 76.2732 640.144 Q75.4037 640.144 72.634 639.467 Q69.8321 638.791 55.2428 635.12 L55.2428 640.949 Q55.2428 641.754 55.2106 642.076 Q55.1784 642.366 55.0174 642.591 Q54.8241 642.785 54.4377 642.785 Q53.8257 642.785 53.5681 642.527 Q53.2782 642.269 53.246 641.947 Q53.1816 641.593 53.1816 640.788 L53.1816 634.604 L42.7147 632.028 Q41.6841 631.77 41.1044 631.126 Q40.4925 630.45 40.4281 630.063 Q40.3315 629.677 40.3315 629.387 Q40.3315 628.517 40.8146 628.002 Q41.2655 627.487 42.1028 627.487 Q42.5537 627.487 53.1816 630.192 L53.1816 624.395 Q53.1816 623.654 53.2138 623.364 Q53.246 623.042 53.4071 622.785 Q53.5681 622.527 53.9224 622.527 Z" fill="#000000" fill-rule="nonzero" fill-opacity="1" /><path clip-path="url(#clip770)" d="M97.4647 617.365 Q97.1426 617.365 96.3375 616.527 Q85.5163 605.899 65.13 605.899 Q44.6793 605.899 34.3412 616.109 Q33.1496 617.365 32.7953 617.365 Q32.1512 617.365 32.1512 616.721 Q32.1512 616.27 33.4716 614.692 Q34.7921 613.081 37.8194 610.666 Q40.8468 608.218 44.5505 606.415 Q53.5359 602.067 65.13 602.067 Q76.2732 602.067 85.2587 606.221 Q89.0268 607.993 92.1829 610.473 Q95.3391 612.952 96.724 614.595 Q98.1088 616.237 98.1088 616.721 Q98.1088 617.365 97.4647 617.365 Z" fill="#000000" fill-rule="nonzero" fill-opacity="1" /><polyline clip-path="url(#clip772)" style="stroke:#000000; stroke-linecap:round; stroke-linejoin:round; stroke-width:4; stroke-opacity:1; fill:none" points="221.006,47.2441 233.019,130.692 245.032,278.792 257.044,331.542 269.057,356.559 281.07,391.138 293.083,403.766 305.095,448.742 317.108,481.342 329.121,507.709 341.134,527.548 353.146,547.649 365.159,587.87 377.172,611.429 389.184,625.077 401.197,645.817 413.21,656.195 425.223,677.056 437.235,690.951 449.248,708.302 461.261,708.302 473.273,725.641 485.286,742.966 497.299,753.346 509.312,763.718 521.324,767.175 533.337,774.132 545.35,774.132 557.363,774.132 569.375,774.132 581.388,777.764 593.401,781.45 605.413,781.45 617.426,781.45 629.439,781.45 641.452,792.496 653.464,792.496 665.477,792.496 677.49,796.294 689.503,800.09 701.515,815.258 713.528,819.047 725.541,822.836 737.553,822.836 749.566,830.473 761.579,834.292 773.592,838.144 785.604,838.144 797.617,838.144 809.63,838.144 821.642,838.144 833.655,838.144 845.668,838.144 857.681,838.144 869.693,842.137 881.706,846.13 893.719,846.13 905.732,846.13 917.744,846.13 929.757,846.13 941.77,846.13 953.782,850.198 965.795,850.198 977.808,854.266 989.821,854.266 1001.83,854.266 1013.85,858.457 1025.86,862.648 1037.87,862.648 1049.88,866.836 1061.9,866.836 1073.91,866.836 1085.92,871.117 1097.94,871.117 1109.95,871.117 1121.96,875.541 1133.97,880.01 1145.99,880.01 1158,880.01 1170.01,884.633 1182.02,884.633 1194.04,889.428 1206.05,894.22 1218.06,899.136 1230.08,899.136 1242.09,899.136 1254.1,904.186 1266.11,904.186 1278.13,904.186 1290.14,904.186 1302.15,904.186 1314.16,904.186 1326.18,904.186 1338.19,904.186 1350.2,904.186 1362.22,904.186 1374.23,904.186 1386.24,904.186 1398.25,904.186 1410.27,909.457 1422.28,914.804 1434.29,914.804 1446.3,914.804 1458.32,914.804 1470.33,914.804 1482.34,914.804 1494.36,914.804 1506.37,920.608 1518.38,920.608 1530.39,920.608 1542.41,920.608 1554.42,920.608 1566.43,920.608 1578.44,920.608 1590.46,926.712 1602.47,926.712 1614.48,926.712 1626.5,926.712 1638.51,926.712 1650.52,926.712 1662.53,926.712 1674.55,926.712 1686.56,926.712 1698.57,926.712 1710.58,926.712 1722.6,933.285 1734.61,933.285 1746.62,933.285 1758.64,933.285 1770.65,940.443 1782.66,940.443 1794.67,940.443 1806.69,940.443 1818.7,940.443 1830.71,940.443 1842.72,940.443 1854.74,940.443 1866.75,947.769 1878.76,947.769 1890.77,947.769 1902.79,947.769 1914.8,947.769 1926.81,947.769 1938.83,947.769 1950.84,947.769 1962.85,947.769 1974.86,947.769 1986.88,947.769 1998.89,947.769 2010.9,947.769 2022.91,947.769 2034.93,947.769 2046.94,947.769 2058.95,947.769 2070.97,947.769 2082.98,947.769 2094.99,947.769 2107,947.769 2119.02,947.769 2131.03,947.769 2143.04,947.769 2155.05,947.769 2167.07,947.769 2179.08,947.769 2191.09,956.522 2203.11,956.522 2215.12,956.522 2227.13,956.522 2239.14,956.522 2251.16,956.522 2263.17,956.522 2275.18,956.522 2287.19,956.522 2299.21,956.522 2311.22,956.522 2323.23,956.522 2335.25,956.522 2347.26,966.741 2359.27,966.741 2371.28,966.741 2383.3,978.153 2395.31,978.153 2407.32,978.153 2419.33,990.559 2431.35,990.559 2443.36,990.559 2455.37,990.559 2467.39,990.559 2479.4,990.559 2491.41,990.559 2503.42,990.559 2515.44,990.559 2527.45,990.559 2539.46,990.559 2551.47,990.559 2563.49,990.559 2575.5,990.559 2587.51,990.559 2599.53,990.559 2611.54,990.559 2623.55,990.559 2635.56,990.559 2647.58,990.559 2659.59,990.559 2671.6,990.559 2683.61,990.559 2695.63,990.559 2707.64,990.559 2719.65,990.559 2731.67,990.559 2743.68,990.559 2755.69,990.559 2767.7,990.559 2779.72,990.559 2791.73,990.559 2803.74,990.559 2815.75,990.559 2827.77,990.559 2839.78,990.559 2851.79,990.559 2863.81,990.559 2875.82,990.559 2887.83,990.559 2899.84,990.559 2911.86,990.559 2923.87,990.559 2935.88,990.559 2947.89,990.559 2959.91,990.559 2971.92,990.559 2983.93,990.559 2995.95,990.559 3007.96,990.559 3019.97,990.559 3031.98,990.559 3044,990.559 3056.01,990.559 3068.02,990.559 3080.03,990.559 3092.05,990.559 3104.06,990.559 3116.07,990.559 3128.09,990.559 3140.1,990.559 3152.11,990.559 3164.12,990.559 3176.14,990.559 3188.15,990.559 3200.16,990.559 3212.17,990.559 3224.19,990.559 "/>
<polyline clip-path="url(#clip772)" style="stroke:#009af9; stroke-linecap:round; stroke-linejoin:round; stroke-width:4; stroke-opacity:1; fill:none" points="221.006,47.2441 233.019,112.306 245.032,192.506 257.044,261.726 269.057,321.837 281.07,374.349 293.083,420.4 305.095,461.004 317.108,496.923 329.121,528.814 341.134,557.234 353.146,582.779 365.159,605.956 377.172,626.755 389.184,645.467 401.197,662.372 413.21,677.689 425.223,691.609 437.235,704.269 449.248,715.785 461.261,726.28 473.273,735.87 485.286,744.642 497.299,752.659 509.312,759.995 521.324,766.717 533.337,772.882 545.35,778.543 557.363,783.747 569.375,788.54 581.388,792.967 593.401,797.062 605.413,800.856 617.426,804.397 629.439,807.761 641.452,811.011 653.464,814.084 665.477,817.099 677.49,820.328 689.503,824.043 701.515,827.752 713.528,831.164 725.541,834.304 737.553,837.198 749.566,839.873 761.579,842.343 773.592,844.625 785.604,846.732 797.617,848.68 809.63,850.483 821.642,852.153 833.655,853.71 845.668,855.173 857.681,856.561 869.693,857.915 881.706,859.208 893.719,860.42 905.732,861.567 917.744,862.676 929.757,863.781 941.77,864.979 953.782,866.464 965.795,868.202 977.808,870 989.821,871.801 1001.83,873.731 1013.85,875.915 1025.86,878.144 1037.87,880.349 1049.88,882.505 1061.9,884.534 1073.91,886.493 1085.92,888.477 1097.94,890.403 1109.95,892.288 1121.96,894.245 1133.97,896.195 1145.99,898.073 1158,899.906 1170.01,901.716 1182.02,903.441 1194.04,905.106 1206.05,906.715 1218.06,908.217 1230.08,909.616 1242.09,910.919 1254.1,912.142 1266.11,913.284 1278.13,914.347 1290.14,915.341 1302.15,916.271 1314.16,917.145 1326.18,917.976 1338.19,918.77 1350.2,919.539 1362.22,920.291 1374.23,921.046 1386.24,921.836 1398.25,922.699 1410.27,923.68 1422.28,924.671 1434.29,925.606 1446.3,926.483 1458.32,927.309 1470.33,928.099 1482.34,928.863 1494.36,929.609 1506.37,930.353 1518.38,931.071 1530.39,931.762 1542.41,932.443 1554.42,933.132 1566.43,933.836 1578.44,934.575 1590.46,935.379 1602.47,936.163 1614.48,936.904 1626.5,937.612 1638.51,938.295 1650.52,938.965 1662.53,939.637 1674.55,940.334 1686.56,941.068 1698.57,941.866 1710.58,942.782 1722.6,943.835 1734.61,944.859 1746.62,945.829 1758.64,946.755 1770.65,947.633 1782.66,948.452 1794.67,949.22 1806.69,949.939 1818.7,950.613 1830.71,951.25 1842.72,951.856 1854.74,952.434 1866.75,952.984 1878.76,953.499 1890.77,953.98 1902.79,954.431 1914.8,954.856 1926.81,955.255 1938.83,955.631 1950.84,955.986 1962.85,956.323 1974.86,956.643 1986.88,956.947 1998.89,957.241 2010.9,957.524 2022.91,957.795 2034.93,958.059 2046.94,958.316 2058.95,958.571 2070.97,958.831 2082.98,959.099 2094.99,959.385 2107,959.695 2119.02,960.051 2131.03,960.463 2143.04,960.954 2155.05,961.533 2167.07,962.229 2179.08,963.122 2191.09,964.117 2203.11,965.047 2215.12,965.921 2227.13,966.757 2239.14,967.557 2251.16,968.34 2263.17,969.111 2275.18,969.89 2287.19,970.702 2299.21,971.585 2311.22,972.558 2323.23,973.686 2335.25,975.083 2347.26,976.78 2359.27,978.468 2371.28,980.043 2383.3,981.521 2395.31,982.895 2407.32,984.167 2419.33,985.346 2431.35,986.437 2443.36,987.448 2455.37,988.383 2467.39,989.251 2479.4,990.06 2491.41,990.812 2503.42,991.512 2515.44,992.166 2527.45,992.779 2539.46,993.354 2551.47,993.892 2563.49,994.399 2575.5,994.875 2587.51,995.32 2599.53,995.738 2611.54,996.134 2623.55,996.507 2635.56,996.855 2647.58,997.186 2659.59,997.499 2671.6,997.795 2683.61,998.079 2695.63,998.351 2707.64,998.612 2719.65,998.863 2731.67,999.103 2743.68,999.33 2755.69,999.551 2767.7,999.763 2779.72,999.967 2791.73,1000.16 2803.74,1000.34 2815.75,1000.52 2827.77,1000.69 2839.78,1000.86 2851.79,1001.03 2863.81,1001.19 2875.82,1001.35 2887.83,1001.51 2899.84,1001.67 2911.86,1001.82 2923.87,1001.97 2935.88,1002.11 2947.89,1002.25 2959.91,1002.39 2971.92,1002.53 2983.93,1002.67 2995.95,1002.8 3007.96,1002.94 3019.97,1003.08 3031.98,1003.21 3044,1003.35 3056.01,1003.49 3068.02,1003.62 3080.03,1003.75 3092.05,1003.87 3104.06,1003.99 3116.07,1004.12 3128.09,1004.24 3140.1,1004.37 3152.11,1004.5 3164.12,1004.63 3176.14,1004.77 3188.15,1004.91 3200.16,1005.06 3212.17,1005.21 3224.19,1005.36 "/>
<path clip-path="url(#clip772)" d="M221.006 47.2441 L233.019 131.823 L245.032 228 L257.044 308.419 L269.057 378.462 L281.07 436.727 L293.083 486.987 L305.095 530.197 L317.108 567.13 L329.121 600.562 L341.134 630.619 L353.146 657.376 L365.159 681.217 L377.172 702.186 L389.184 720.594 L401.197 736.993 L413.21 753.273 L425.223 767.898 L437.235 780.852 L449.248 792.039 L461.261 802.683 L473.273 812.982 L485.286 821.974 L497.299 829.332 L509.312 837.033 L521.324 844.173 L533.337 850.319 L545.35 856.158 L557.363 862.007 L569.375 867.182 L581.388 871.542 L593.401 875.137 L605.413 878.814 L617.426 882.626 L629.439 886.237 L641.452 889.9 L653.464 892.326 L665.477 895.078 L677.49 898.561 L689.503 901.637 L701.515 905.124 L713.528 907.81 L725.541 911.018 L737.553 913.575 L749.566 916.009 L761.579 917.903 L773.592 919.5 L785.604 921.164 L797.617 922.809 L809.63 924.589 L821.642 926.293 L833.655 928.171 L845.668 929.934 L857.681 931.463 L869.693 932.794 L881.706 934.086 L893.719 935.056 L905.732 935.966 L917.744 937.342 L929.757 938.79 L941.77 939.815 L953.782 940.91 L965.795 942.019 L977.808 943.455 L989.821 945.516 L1001.83 947.69 L1013.85 950.027 L1025.86 952.866 L1037.87 955.189 L1049.88 957.31 L1061.9 959.022 L1073.91 960.933 L1085.92 961.741 L1097.94 962.541 L1109.95 963.906 L1121.96 965.948 L1133.97 968.299 L1145.99 969.631 L1158 970.797 L1170.01 972.36 L1182.02 973.877 L1194.04 975.324 L1206.05 976.615 L1218.06 978.234 L1230.08 979.435 L1242.09 980.604 L1254.1 981.639 L1266.11 982.666 L1278.13 983.873 L1290.14 984.669 L1302.15 985.883 L1314.16 986.681 L1326.18 987.5 L1338.19 988.162 L1350.2 988.831 L1362.22 989.652 L1374.23 990.573 L1386.24 991.356 L1398.25 992.084 L1410.27 992.861 L1422.28 993.48 L1434.29 994.142 L1446.3 995.556 L1458.32 996.631 L1470.33 996.97 L1482.34 997.305 L1494.36 998.073 L1506.37 999.429 L1518.38 999.908 L1530.39 1000.23 L1542.41 1000.68 L1554.42 1001.49 L1566.43 1001.99 L1578.44 1002.41 L1590.46 1003.58 L1602.47 1004.53 L1614.48 1006.05 L1626.5 1007.05 L1638.51 1007.45 L1650.52 1007.83 L1662.53 1008.18 L1674.55 1008.54 L1686.56 1009.71 L1698.57 1011.22 L1710.58 1011.65 L1722.6 1012.01 L1734.61 1013.63 L1746.62 1014.89 L1758.64 1016.61 L1770.65 1017.86 L1782.66 1018.28 L1794.67 1018.66 L1806.69 1019.27 L1818.7 1019.65 L1830.71 1020.07 L1842.72 1020.85 L1854.74 1021.6 L1866.75 1022.27 L1878.76 1023.09 L1890.77 1023.44 L1902.79 1023.96 L1914.8 1024.45 L1926.81 1024.91 L1938.83 1025.33 L1950.84 1025.72 L1962.85 1026.09 L1974.86 1026.53 L1986.88 1027.1 L1998.89 1027.43 L2010.9 1027.74 L2022.91 1028.08 L2034.93 1028.19 L2046.94 1028.29 L2058.95 1028.75 L2070.97 1028.95 L2082.98 1029.1 L2094.99 1029.32 L2107 1029.52 L2119.02 1029.76 L2131.03 1030.2 L2143.04 1030.56 L2155.05 1031.26 L2167.07 1031.68 L2179.08 1032.18 L2191.09 1032.66 L2203.11 1033.79 L2215.12 1034.72 L2227.13 1035.7 L2239.14 1036.66 L2251.16 1037.18 L2263.17 1038.36 L2275.18 1039.37 L2287.19 1040.28 L2299.21 1040.76 L2311.22 1041.58 L2323.23 1042.35 L2335.25 1043.39 L2347.26 1044.94 L2359.27 1046.16 L2371.28 1047.26 L2383.3 1048.61 L2395.31 1049.99 L2407.32 1052.04 L2419.33 1053.3 L2431.35 1054.18 L2443.36 1055.02 L2455.37 1055.8 L2467.39 1056.55 L2479.4 1057.23 L2491.41 1058.96 L2503.42 1060.22 L2515.44 1060.66 L2527.45 1061.02 L2539.46 1061.61 L2551.47 1062.37 L2563.49 1063.26 L2575.5 1063.5 L2587.51 1063.91 L2599.53 1064.15 L2611.54 1064.42 L2623.55 1064.84 L2635.56 1065.27 L2647.58 1065.94 L2659.59 1066.23 L2671.6 1066.48 L2683.61 1066.83 L2695.63 1067.39 L2707.64 1067.71 L2719.65 1067.79 L2731.67 1068.26 L2743.68 1068.61 L2755.69 1069.01 L2767.7 1069.43 L2779.72 1069.8 L2791.73 1070.14 L2803.74 1070.47 L2815.75 1070.77 L2827.77 1071.05 L2839.78 1071.32 L2851.79 1071.58 L2863.81 1071.8 L2875.82 1072.03 L2887.83 1072.23 L2899.84 1072.43 L2911.86 1072.76 L2923.87 1073.09 L2935.88 1073.4 L2947.89 1073.69 L2959.91 1073.96 L2971.92 1074.03 L2983.93 1074.41 L2995.95 1074.71 L3007.96 1074.93 L3019.97 1075.39 L3031.98 1076.01 L3044 1076.16 L3056.01 1076.3 L3068.02 1076.35 L3080.03 1076.36 L3092.05 1076.37 L3104.06 1076.38 L3116.07 1076.39 L3128.09 1076.4 L3140.1 1076.49 L3152.11 1076.83 L3164.12 1077.14 L3176.14 1077.43 L3188.15 1077.69 L3200.16 1077.92 L3212.17 1078.14 L3224.19 1078.22 L3224.19 930.059 L3212.17 929.995 L3200.16 929.833 L3188.15 929.782 L3176.14 929.744 L3164.12 929.659 L3152.11 929.568 L3140.1 929.471 L3128.09 929.367 L3116.07 929.26 L3104.06 929.154 L3092.05 929.04 L3080.03 928.918 L3068.02 928.788 L3056.01 928.648 L3044 927.84 L3031.98 927.828 L3019.97 927.815 L3007.96 927.804 L2995.95 927.788 L2983.93 927.415 L2971.92 927.351 L2959.91 927.111 L2947.89 926.968 L2935.88 926.798 L2923.87 926.404 L2911.86 926.267 L2899.84 926.24 L2887.83 926.21 L2875.82 926.095 L2863.81 926.06 L2851.79 925.694 L2839.78 925.542 L2827.77 925.378 L2815.75 925.251 L2803.74 925.133 L2791.73 925.006 L2779.72 924.87 L2767.7 924.729 L2755.69 924.578 L2743.68 924.486 L2731.67 924.437 L2719.65 924.384 L2707.64 924.258 L2695.63 924.094 L2683.61 923.953 L2671.6 923.836 L2659.59 923.509 L2647.58 923.277 L2635.56 923.027 L2623.55 922.766 L2611.54 922.484 L2599.53 922.26 L2587.51 922.13 L2575.5 921.99 L2563.49 921.838 L2551.47 921.424 L2539.46 920.943 L2527.45 920.376 L2515.44 919.759 L2503.42 918.74 L2491.41 917.943 L2479.4 917.29 L2467.39 916.559 L2455.37 915.736 L2443.36 915.24 L2431.35 913.719 L2419.33 912.437 L2407.32 910.742 L2395.31 909.879 L2383.3 909.419 L2371.28 908.364 L2359.27 906.251 L2347.26 904.567 L2335.25 903.452 L2323.23 901.852 L2311.22 900.944 L2299.21 900.281 L2287.19 899.578 L2275.18 898.864 L2263.17 898.431 L2251.16 897.269 L2239.14 896.492 L2227.13 895.138 L2215.12 894.321 L2203.11 893.22 L2191.09 892.617 L2179.08 890.05 L2167.07 889.049 L2155.05 888.81 L2143.04 888.236 L2131.03 887.946 L2119.02 887.443 L2107 887.25 L2094.99 886.946 L2082.98 886.689 L2070.97 886.507 L2058.95 886.287 L2046.94 886.059 L2034.93 885.911 L2022.91 885.752 L2010.9 885.583 L1998.89 885.399 L1986.88 885.197 L1974.86 885.02 L1962.85 884.904 L1950.84 884.583 L1938.83 884.164 L1926.81 883.772 L1914.8 883.461 L1902.79 883.194 L1890.77 882.675 L1878.76 882.212 L1866.75 881.751 L1854.74 881.466 L1842.72 880.971 L1830.71 880.051 L1818.7 879.663 L1806.69 879.128 L1794.67 877.562 L1782.66 876.979 L1770.65 875.721 L1758.64 874.014 L1746.62 873.539 L1734.61 871.251 L1722.6 870.657 L1710.58 868.667 L1698.57 867.218 L1686.56 866.723 L1674.55 866.23 L1662.53 864.605 L1650.52 864.452 L1638.51 863.915 L1626.5 863.631 L1614.48 862.959 L1602.47 862.597 L1590.46 861.99 L1578.44 861.289 L1566.43 861.129 L1554.42 860.706 L1542.41 859.956 L1530.39 859.715 L1518.38 859.321 L1506.37 858.88 L1494.36 857.619 L1482.34 856.731 L1470.33 856.554 L1458.32 856.137 L1446.3 854.639 L1434.29 853.594 L1422.28 853.074 L1410.27 852.304 L1398.25 851.228 L1386.24 850.45 L1374.23 849.869 L1362.22 848.534 L1350.2 847.914 L1338.19 847.315 L1326.18 846.297 L1314.16 845.178 L1302.15 843.962 L1290.14 843.474 L1278.13 841.758 L1266.11 839.86 L1254.1 838.403 L1242.09 837.306 L1230.08 836.625 L1218.06 834.967 L1206.05 834.093 L1194.04 832.302 L1182.02 831.159 L1170.01 829.498 L1158 827.491 L1145.99 825.444 L1133.97 823.478 L1121.96 821.176 L1109.95 818.993 L1097.94 817.54 L1085.92 816.377 L1073.91 814.99 L1061.9 812.565 L1049.88 809.034 L1037.87 807.476 L1025.86 804.875 L1013.85 802.678 L1001.83 799.966 L989.821 797.028 L977.808 795.174 L965.795 793.552 L953.782 790.693 L941.77 787.84 L929.757 787.131 L917.744 786.366 L905.732 785.499 L893.719 784.469 L881.706 783.422 L869.693 782.715 L857.681 781.316 L845.668 780.078 L833.655 778.753 L821.642 777.74 L809.63 776.251 L797.617 774.971 L785.604 773.324 L773.592 771.34 L761.579 769.016 L749.566 766.675 L737.553 764.272 L725.541 761.109 L713.528 757.728 L701.515 752.647 L689.503 748.263 L677.49 744.344 L665.477 740.098 L653.464 737.41 L641.452 735.179 L629.439 732.367 L617.426 729.634 L605.413 726.614 L593.401 723.257 L581.388 719.796 L569.375 715.582 L557.363 709.892 L545.35 704.317 L533.337 698.352 L521.324 692.789 L509.312 686.336 L497.299 679.175 L485.286 671.414 L473.273 661.91 L461.261 652.316 L449.248 641.369 L437.235 630.167 L425.223 617.774 L413.21 604.088 L401.197 589.38 L389.184 573.561 L377.172 555.26 L365.159 535.655 L353.146 513.65 L341.134 489.788 L329.121 463.644 L317.108 433.135 L305.095 399.505 L293.083 362.133 L281.07 320.825 L269.057 275.216 L257.044 222.39 L245.032 163.854 L233.019 92.4737 L221.006 47.2441  Z" fill="#009af9" fill-rule="evenodd" fill-opacity="0.2"/>
<polyline clip-path="url(#clip772)" style="stroke:#009af9; stroke-linecap:round; stroke-linejoin:round; stroke-width:4; stroke-opacity:0; fill:none" points="221.006,47.2441 233.019,131.823 245.032,228 257.044,308.419 269.057,378.462 281.07,436.727 293.083,486.987 305.095,530.197 317.108,567.13 329.121,600.562 341.134,630.619 353.146,657.376 365.159,681.217 377.172,702.186 389.184,720.594 401.197,736.993 413.21,753.273 425.223,767.898 437.235,780.852 449.248,792.039 461.261,802.683 473.273,812.982 485.286,821.974 497.299,829.332 509.312,837.033 521.324,844.173 533.337,850.319 545.35,856.158 557.363,862.007 569.375,867.182 581.388,871.542 593.401,875.137 605.413,878.814 617.426,882.626 629.439,886.237 641.452,889.9 653.464,892.326 665.477,895.078 677.49,898.561 689.503,901.637 701.515,905.124 713.528,907.81 725.541,911.018 737.553,913.575 749.566,916.009 761.579,917.903 773.592,919.5 785.604,921.164 797.617,922.809 809.63,924.589 821.642,926.293 833.655,928.171 845.668,929.934 857.681,931.463 869.693,932.794 881.706,934.086 893.719,935.056 905.732,935.966 917.744,937.342 929.757,938.79 941.77,939.815 953.782,940.91 965.795,942.019 977.808,943.455 989.821,945.516 1001.83,947.69 1013.85,950.027 1025.86,952.866 1037.87,955.189 1049.88,957.31 1061.9,959.022 1073.91,960.933 1085.92,961.741 1097.94,962.541 1109.95,963.906 1121.96,965.948 1133.97,968.299 1145.99,969.631 1158,970.797 1170.01,972.36 1182.02,973.877 1194.04,975.324 1206.05,976.615 1218.06,978.234 1230.08,979.435 1242.09,980.604 1254.1,981.639 1266.11,982.666 1278.13,983.873 1290.14,984.669 1302.15,985.883 1314.16,986.681 1326.18,987.5 1338.19,988.162 1350.2,988.831 1362.22,989.652 1374.23,990.573 1386.24,991.356 1398.25,992.084 1410.27,992.861 1422.28,993.48 1434.29,994.142 1446.3,995.556 1458.32,996.631 1470.33,996.97 1482.34,997.305 1494.36,998.073 1506.37,999.429 1518.38,999.908 1530.39,1000.23 1542.41,1000.68 1554.42,1001.49 1566.43,1001.99 1578.44,1002.41 1590.46,1003.58 1602.47,1004.53 1614.48,1006.05 1626.5,1007.05 1638.51,1007.45 1650.52,1007.83 1662.53,1008.18 1674.55,1008.54 1686.56,1009.71 1698.57,1011.22 1710.58,1011.65 1722.6,1012.01 1734.61,1013.63 1746.62,1014.89 1758.64,1016.61 1770.65,1017.86 1782.66,1018.28 1794.67,1018.66 1806.69,1019.27 1818.7,1019.65 1830.71,1020.07 1842.72,1020.85 1854.74,1021.6 1866.75,1022.27 1878.76,1023.09 1890.77,1023.44 1902.79,1023.96 1914.8,1024.45 1926.81,1024.91 1938.83,1025.33 1950.84,1025.72 1962.85,1026.09 1974.86,1026.53 1986.88,1027.1 1998.89,1027.43 2010.9,1027.74 2022.91,1028.08 2034.93,1028.19 2046.94,1028.29 2058.95,1028.75 2070.97,1028.95 2082.98,1029.1 2094.99,1029.32 2107,1029.52 2119.02,1029.76 2131.03,1030.2 2143.04,1030.56 2155.05,1031.26 2167.07,1031.68 2179.08,1032.18 2191.09,1032.66 2203.11,1033.79 2215.12,1034.72 2227.13,1035.7 2239.14,1036.66 2251.16,1037.18 2263.17,1038.36 2275.18,1039.37 2287.19,1040.28 2299.21,1040.76 2311.22,1041.58 2323.23,1042.35 2335.25,1043.39 2347.26,1044.94 2359.27,1046.16 2371.28,1047.26 2383.3,1048.61 2395.31,1049.99 2407.32,1052.04 2419.33,1053.3 2431.35,1054.18 2443.36,1055.02 2455.37,1055.8 2467.39,1056.55 2479.4,1057.23 2491.41,1058.96 2503.42,1060.22 2515.44,1060.66 2527.45,1061.02 2539.46,1061.61 2551.47,1062.37 2563.49,1063.26 2575.5,1063.5 2587.51,1063.91 2599.53,1064.15 2611.54,1064.42 2623.55,1064.84 2635.56,1065.27 2647.58,1065.94 2659.59,1066.23 2671.6,1066.48 2683.61,1066.83 2695.63,1067.39 2707.64,1067.71 2719.65,1067.79 2731.67,1068.26 2743.68,1068.61 2755.69,1069.01 2767.7,1069.43 2779.72,1069.8 2791.73,1070.14 2803.74,1070.47 2815.75,1070.77 2827.77,1071.05 2839.78,1071.32 2851.79,1071.58 2863.81,1071.8 2875.82,1072.03 2887.83,1072.23 2899.84,1072.43 2911.86,1072.76 2923.87,1073.09 2935.88,1073.4 2947.89,1073.69 2959.91,1073.96 2971.92,1074.03 2983.93,1074.41 2995.95,1074.71 3007.96,1074.93 3019.97,1075.39 3031.98,1076.01 3044,1076.16 3056.01,1076.3 3068.02,1076.35 3080.03,1076.36 3092.05,1076.37 3104.06,1076.38 3116.07,1076.39 3128.09,1076.4 3140.1,1076.49 3152.11,1076.83 3164.12,1077.14 3176.14,1077.43 3188.15,1077.69 3200.16,1077.92 3212.17,1078.14 3224.19,1078.22 "/>
<polyline clip-path="url(#clip772)" style="stroke:#e26f46; stroke-linecap:round; stroke-linejoin:round; stroke-width:4; stroke-opacity:1; fill:none" points="221.006,47.2441 233.019,152.247 245.032,248.009 257.044,335.353 269.057,415.029 281.07,446.233 293.083,476.247 305.095,505.116 317.108,531.541 329.121,555.708 341.134,579.041 353.146,601.571 365.159,619.251 377.172,644.845 389.184,661.312 401.197,675.818 413.21,689.955 425.223,703.732 437.235,710.489 449.248,723.717 461.261,723.717 473.273,736.609 485.286,742.931 497.299,753.336 509.312,758.454 521.324,770.673 533.337,772.811 545.35,777.057 557.363,781.26 569.375,783.361 581.388,785.451 593.401,789.601 605.413,789.601 617.426,789.601 629.439,789.601 641.452,793.967 653.464,796.307 665.477,798.634 677.49,800.948 689.503,803.779 701.515,806.59 713.528,809.381 725.541,812.152 737.553,814.705 749.566,817.24 761.579,819.759 773.592,822.061 785.604,824.348 797.617,824.348 809.63,826.622 821.642,826.622 833.655,830.753 845.668,830.753 857.681,832.802 869.693,834.798 881.706,836.784 893.719,836.784 905.732,836.784 917.744,838.847 929.757,838.847 941.77,838.847 953.782,838.847 965.795,840.886 977.808,844.932 989.821,846.945 1001.83,846.945 1013.85,848.948 1025.86,850.768 1037.87,850.768 1049.88,852.579 1061.9,854.38 1073.91,856.121 1085.92,857.854 1097.94,857.854 1109.95,859.579 1121.96,863.069 1133.97,866.526 1145.99,866.526 1158,868.295 1170.01,870.054 1182.02,873.545 1194.04,875.369 1206.05,878.986 1218.06,880.779 1230.08,882.564 1242.09,882.564 1254.1,884.298 1266.11,886.023 1278.13,886.023 1290.14,887.82 1302.15,887.82 1314.16,887.82 1326.18,887.82 1338.19,887.82 1350.2,887.82 1362.22,889.51 1374.23,889.51 1386.24,889.51 1398.25,889.51 1410.27,891.172 1422.28,896.102 1434.29,897.728 1446.3,899.404 1458.32,899.404 1470.33,899.404 1482.34,899.404 1494.36,901.094 1506.37,902.774 1518.38,902.774 1530.39,902.774 1542.41,902.774 1554.42,902.774 1566.43,902.774 1578.44,905.979 1590.46,907.567 1602.47,907.567 1614.48,907.567 1626.5,909.193 1638.51,910.809 1650.52,910.809 1662.53,910.809 1674.55,912.609 1686.56,914.398 1698.57,914.398 1710.58,914.398 1722.6,916.286 1734.61,918.161 1746.62,918.161 1758.64,921.905 1770.65,923.757 1782.66,923.757 1794.67,923.757 1806.69,925.396 1818.7,925.396 1830.71,925.396 1842.72,925.396 1854.74,925.396 1866.75,927.047 1878.76,927.047 1890.77,928.687 1902.79,930.316 1914.8,930.316 1926.81,931.903 1938.83,931.903 1950.84,931.903 1962.85,931.903 1974.86,931.903 1986.88,931.903 1998.89,931.903 2010.9,931.903 2022.91,933.817 2034.93,933.817 2046.94,933.817 2058.95,933.817 2070.97,933.817 2082.98,935.709 2094.99,935.709 2107,935.709 2119.02,937.709 2131.03,937.709 2143.04,937.709 2155.05,939.84 2167.07,939.84 2179.08,941.951 2191.09,941.951 2203.11,941.951 2215.12,941.951 2227.13,941.951 2239.14,941.951 2251.16,941.951 2263.17,943.959 2275.18,943.959 2287.19,943.959 2299.21,943.959 2311.22,945.984 2323.23,950.181 2335.25,952.348 2347.26,956.622 2359.27,958.729 2371.28,958.729 2383.3,961.022 2395.31,963.29 2407.32,963.29 2419.33,965.489 2431.35,965.489 2443.36,965.489 2455.37,965.489 2467.39,965.489 2479.4,967.563 2491.41,967.563 2503.42,967.563 2515.44,969.418 2527.45,969.418 2539.46,971.062 2551.47,972.691 2563.49,972.691 2575.5,972.691 2587.51,972.691 2599.53,972.691 2611.54,972.691 2623.55,972.691 2635.56,972.691 2647.58,974.205 2659.59,974.205 2671.6,974.205 2683.61,974.205 2695.63,974.205 2707.64,974.205 2719.65,974.205 2731.67,974.205 2743.68,974.205 2755.69,974.205 2767.7,974.205 2779.72,974.205 2791.73,974.205 2803.74,974.205 2815.75,974.205 2827.77,974.205 2839.78,974.205 2851.79,974.205 2863.81,974.205 2875.82,974.205 2887.83,974.205 2899.84,974.205 2911.86,974.205 2923.87,975.377 2935.88,976.537 2947.89,977.645 2959.91,977.645 2971.92,977.645 2983.93,977.645 2995.95,977.645 3007.96,977.645 3019.97,977.645 3031.98,977.645 3044,977.645 3056.01,977.645 3068.02,977.645 3080.03,977.645 3092.05,977.645 3104.06,977.645 3116.07,977.645 3128.09,977.645 3140.1,977.645 3152.11,977.645 3164.12,977.645 3176.14,977.645 3188.15,977.645 3200.16,977.645 3212.17,977.645 3224.19,978.619 "/>
<path clip-path="url(#clip772)" d="M221.006 47.2441 L233.019 176.701 L245.032 292.276 L257.044 395.457 L269.057 487.575 L281.07 517.151 L293.083 547.466 L305.095 576.931 L317.108 605.829 L329.121 628.692 L341.134 655.187 L353.146 678.838 L365.159 694.96 L377.172 721.399 L389.184 737.261 L401.197 751.666 L413.21 765.646 L425.223 778.257 L437.235 784.968 L449.248 800.486 L461.261 800.486 L473.273 817.44 L485.286 823.811 L497.299 833.192 L509.312 839.796 L521.324 852.693 L533.337 854.077 L545.35 858.265 L557.363 862.196 L569.375 864.013 L581.388 866.628 L593.401 871.806 L605.413 871.806 L617.426 871.806 L629.439 871.806 L641.452 876.732 L653.464 879.012 L665.477 881.272 L677.49 882.559 L689.503 885.26 L701.515 887.983 L713.528 890.196 L725.541 892.39 L737.553 895.16 L749.566 899.276 L761.579 901.731 L773.592 903.733 L785.604 905.417 L797.617 905.417 L809.63 906.757 L821.642 906.757 L833.655 910.594 L845.668 910.594 L857.681 912.106 L869.693 914.103 L881.706 916.255 L893.719 916.255 L905.732 916.255 L917.744 919.255 L929.757 919.255 L941.77 919.255 L953.782 919.255 L965.795 922.225 L977.808 926.637 L989.821 927.864 L1001.83 927.864 L1013.85 929.391 L1025.86 932.514 L1037.87 932.514 L1049.88 935.218 L1061.9 936.366 L1073.91 938.196 L1085.92 940.398 L1097.94 940.398 L1109.95 942.582 L1121.96 945.178 L1133.97 947.862 L1145.99 947.862 L1158 949.407 L1170.01 950.944 L1182.02 953.994 L1194.04 955.513 L1206.05 958.526 L1218.06 960.021 L1230.08 961.509 L1242.09 961.509 L1254.1 962.984 L1266.11 965.058 L1278.13 965.058 L1290.14 966.227 L1302.15 966.227 L1314.16 966.227 L1326.18 966.227 L1338.19 966.227 L1350.2 966.227 L1362.22 968.25 L1374.23 968.25 L1386.24 968.25 L1398.25 968.25 L1410.27 968.877 L1422.28 974.173 L1434.29 975.841 L1446.3 977.778 L1458.32 977.778 L1470.33 977.778 L1482.34 977.778 L1494.36 979.123 L1506.37 981.603 L1518.38 981.603 L1530.39 981.603 L1542.41 981.603 L1554.42 981.603 L1566.43 981.603 L1578.44 985.068 L1590.46 986.896 L1602.47 986.896 L1614.48 986.896 L1626.5 987.561 L1638.51 988.506 L1650.52 988.506 L1662.53 988.506 L1674.55 990.209 L1686.56 991.621 L1698.57 991.621 L1710.58 991.621 L1722.6 993.301 L1734.61 995.323 L1746.62 995.323 L1758.64 998.67 L1770.65 999.916 L1782.66 999.916 L1794.67 999.916 L1806.69 1001.35 L1818.7 1001.35 L1830.71 1001.35 L1842.72 1001.35 L1854.74 1001.35 L1866.75 1002.87 L1878.76 1002.87 L1890.77 1004.48 L1902.79 1006.23 L1914.8 1006.23 L1926.81 1007.85 L1938.83 1007.85 L1950.84 1007.85 L1962.85 1007.85 L1974.86 1007.85 L1986.88 1007.85 L1998.89 1007.85 L2010.9 1007.85 L2022.91 1009.09 L2034.93 1009.09 L2046.94 1009.09 L2058.95 1009.09 L2070.97 1009.09 L2082.98 1009.98 L2094.99 1009.98 L2107 1009.98 L2119.02 1010.65 L2131.03 1010.65 L2143.04 1010.65 L2155.05 1012.5 L2167.07 1012.5 L2179.08 1013.52 L2191.09 1013.52 L2203.11 1013.52 L2215.12 1013.52 L2227.13 1013.52 L2239.14 1013.52 L2251.16 1013.52 L2263.17 1015.65 L2275.18 1015.65 L2287.19 1015.65 L2299.21 1015.65 L2311.22 1017.34 L2323.23 1021.09 L2335.25 1024.37 L2347.26 1029.86 L2359.27 1033.51 L2371.28 1033.51 L2383.3 1037.19 L2395.31 1040.55 L2407.32 1040.55 L2419.33 1043.17 L2431.35 1043.17 L2443.36 1043.17 L2455.37 1043.17 L2467.39 1043.17 L2479.4 1045.66 L2491.41 1045.66 L2503.42 1045.66 L2515.44 1047.99 L2527.45 1047.99 L2539.46 1049.64 L2551.47 1050.86 L2563.49 1050.86 L2575.5 1050.86 L2587.51 1050.86 L2599.53 1050.86 L2611.54 1050.86 L2623.55 1050.86 L2635.56 1050.86 L2647.58 1053.71 L2659.59 1053.71 L2671.6 1053.71 L2683.61 1053.71 L2695.63 1053.71 L2707.64 1053.71 L2719.65 1053.71 L2731.67 1053.71 L2743.68 1053.71 L2755.69 1053.71 L2767.7 1053.71 L2779.72 1053.71 L2791.73 1053.71 L2803.74 1053.71 L2815.75 1053.71 L2827.77 1053.71 L2839.78 1053.71 L2851.79 1053.71 L2863.81 1053.71 L2875.82 1053.71 L2887.83 1053.71 L2899.84 1053.71 L2911.86 1053.71 L2923.87 1055.26 L2935.88 1057.01 L2947.89 1058.33 L2959.91 1058.33 L2971.92 1058.33 L2983.93 1058.33 L2995.95 1058.33 L3007.96 1058.33 L3019.97 1058.33 L3031.98 1058.33 L3044 1058.33 L3056.01 1058.33 L3068.02 1058.33 L3080.03 1058.33 L3092.05 1058.33 L3104.06 1058.33 L3116.07 1058.33 L3128.09 1058.33 L3140.1 1058.33 L3152.11 1058.33 L3164.12 1058.33 L3176.14 1058.33 L3188.15 1058.33 L3200.16 1058.33 L3212.17 1058.33 L3224.19 1060.51 L3224.19 900.524 L3212.17 899.56 L3200.16 899.56 L3188.15 899.56 L3176.14 899.56 L3164.12 899.56 L3152.11 899.56 L3140.1 899.56 L3128.09 899.56 L3116.07 899.56 L3104.06 899.56 L3092.05 899.56 L3080.03 899.56 L3068.02 899.56 L3056.01 899.56 L3044 899.56 L3031.98 899.56 L3019.97 899.56 L3007.96 899.56 L2995.95 899.56 L2983.93 899.56 L2971.92 899.56 L2959.91 899.56 L2947.89 899.56 L2935.88 898.863 L2923.87 898.124 L2911.86 897.388 L2899.84 897.388 L2887.83 897.388 L2875.82 897.388 L2863.81 897.388 L2851.79 897.388 L2839.78 897.388 L2827.77 897.388 L2815.75 897.388 L2803.74 897.388 L2791.73 897.388 L2779.72 897.388 L2767.7 897.388 L2755.69 897.388 L2743.68 897.388 L2731.67 897.388 L2719.65 897.388 L2707.64 897.388 L2695.63 897.388 L2683.61 897.388 L2671.6 897.388 L2659.59 897.388 L2647.58 897.388 L2635.56 895.727 L2623.55 895.727 L2611.54 895.727 L2599.53 895.727 L2587.51 895.727 L2575.5 895.727 L2563.49 895.727 L2551.47 895.727 L2539.46 893.328 L2527.45 890.83 L2515.44 890.83 L2503.42 890.139 L2491.41 890.139 L2479.4 890.139 L2467.39 888.092 L2455.37 888.092 L2443.36 888.092 L2431.35 888.092 L2419.33 888.092 L2407.32 885.565 L2395.31 885.565 L2383.3 883.02 L2371.28 881.041 L2359.27 881.041 L2347.26 877.795 L2335.25 872.084 L2323.23 870.416 L2311.22 867.482 L2299.21 865.367 L2287.19 865.367 L2275.18 865.367 L2263.17 865.367 L2251.16 863.754 L2239.14 863.754 L2227.13 863.754 L2215.12 863.754 L2203.11 863.754 L2191.09 863.754 L2179.08 863.754 L2167.07 861.251 L2155.05 861.251 L2143.04 858.501 L2131.03 858.501 L2119.02 858.501 L2107 856.964 L2094.99 856.964 L2082.98 856.964 L2070.97 855.677 L2058.95 855.677 L2046.94 855.677 L2034.93 855.677 L2022.91 855.677 L2010.9 853.101 L1998.89 853.101 L1986.88 853.101 L1974.86 853.101 L1962.85 853.101 L1950.84 853.101 L1938.83 853.101 L1926.81 853.101 L1914.8 850.646 L1902.79 850.646 L1890.77 848.695 L1878.76 845.157 L1866.75 845.157 L1854.74 844.768 L1842.72 844.768 L1830.71 844.768 L1818.7 844.768 L1806.69 844.768 L1794.67 843.589 L1782.66 843.589 L1770.65 843.589 L1758.64 842.409 L1746.62 837.764 L1734.61 837.764 L1722.6 836.765 L1710.58 835.764 L1698.57 835.764 L1686.56 835.764 L1674.55 834.71 L1662.53 831.764 L1650.52 831.764 L1638.51 831.764 L1626.5 830.281 L1614.48 828.793 L1602.47 828.793 L1590.46 828.793 L1578.44 826.903 L1566.43 822.233 L1554.42 822.233 L1542.41 822.233 L1530.39 822.233 L1518.38 822.233 L1506.37 822.233 L1494.36 819.7 L1482.34 817.513 L1470.33 817.513 L1458.32 817.513 L1446.3 817.513 L1434.29 815.055 L1422.28 812.992 L1410.27 804.215 L1398.25 802.127 L1386.24 802.127 L1374.23 802.127 L1362.22 802.127 L1350.2 800.169 L1338.19 800.169 L1326.18 800.169 L1314.16 800.169 L1302.15 800.169 L1290.14 800.169 L1278.13 798.21 L1266.11 798.21 L1254.1 796.75 L1242.09 795.297 L1230.08 795.297 L1218.06 793.851 L1206.05 792.404 L1194.04 789.839 L1182.02 788.56 L1170.01 786.546 L1158 785.385 L1145.99 783.696 L1133.97 783.696 L1121.96 780 L1109.95 777.189 L1097.94 775.154 L1085.92 775.154 L1073.91 773.11 L1061.9 771.244 L1049.88 768.982 L1037.87 766.892 L1025.86 766.892 L1013.85 765.293 L1001.83 763.349 L989.821 763.349 L977.808 761.401 L965.795 758.203 L953.782 755.639 L941.77 755.639 L929.757 755.639 L917.744 755.639 L905.732 754.038 L893.719 754.038 L881.706 754.038 L869.693 752.533 L857.681 751.027 L845.668 749.101 L833.655 749.101 L821.642 745.641 L809.63 745.641 L797.617 743.734 L785.604 743.734 L773.592 741.84 L761.579 739.942 L749.566 737.918 L737.553 735.886 L725.541 733.808 L713.528 731.244 L701.515 728.675 L689.503 725.503 L677.49 722.214 L665.477 718.927 L653.464 717.104 L641.452 715.067 L629.439 710.671 L617.426 710.671 L605.413 710.671 L593.401 710.671 L581.388 705.494 L569.375 703.658 L557.363 701.9 L545.35 698.201 L533.337 694.811 L521.324 693.463 L509.312 681.529 L497.299 675.038 L485.286 665.581 L473.273 659.814 L461.261 646.993 L449.248 646.993 L437.235 633.131 L425.223 625.728 L413.21 611.986 L401.197 596.144 L389.184 582.121 L377.172 564.707 L365.159 539.707 L353.146 522.575 L341.134 500.999 L329.121 479.558 L317.108 457.053 L305.095 432.429 L293.083 406.569 L281.07 379.168 L269.057 347.58 L257.044 280.348 L245.032 208.132 L233.019 130.563 L221.006 47.2441  Z" fill="#e26f46" fill-rule="evenodd" fill-opacity="0.2"/>
<polyline clip-path="url(#clip772)" style="stroke:#e26f46; stroke-linecap:round; stroke-linejoin:round; stroke-width:4; stroke-opacity:0; fill:none" points="221.006,47.2441 233.019,176.701 245.032,292.276 257.044,395.457 269.057,487.575 281.07,517.151 293.083,547.466 305.095,576.931 317.108,605.829 329.121,628.692 341.134,655.187 353.146,678.838 365.159,694.96 377.172,721.399 389.184,737.261 401.197,751.666 413.21,765.646 425.223,778.257 437.235,784.968 449.248,800.486 461.261,800.486 473.273,817.44 485.286,823.811 497.299,833.192 509.312,839.796 521.324,852.693 533.337,854.077 545.35,858.265 557.363,862.196 569.375,864.013 581.388,866.628 593.401,871.806 605.413,871.806 617.426,871.806 629.439,871.806 641.452,876.732 653.464,879.012 665.477,881.272 677.49,882.559 689.503,885.26 701.515,887.983 713.528,890.196 725.541,892.39 737.553,895.16 749.566,899.276 761.579,901.731 773.592,903.733 785.604,905.417 797.617,905.417 809.63,906.757 821.642,906.757 833.655,910.594 845.668,910.594 857.681,912.106 869.693,914.103 881.706,916.255 893.719,916.255 905.732,916.255 917.744,919.255 929.757,919.255 941.77,919.255 953.782,919.255 965.795,922.225 977.808,926.637 989.821,927.864 1001.83,927.864 1013.85,929.391 1025.86,932.514 1037.87,932.514 1049.88,935.218 1061.9,936.366 1073.91,938.196 1085.92,940.398 1097.94,940.398 1109.95,942.582 1121.96,945.178 1133.97,947.862 1145.99,947.862 1158,949.407 1170.01,950.944 1182.02,953.994 1194.04,955.513 1206.05,958.526 1218.06,960.021 1230.08,961.509 1242.09,961.509 1254.1,962.984 1266.11,965.058 1278.13,965.058 1290.14,966.227 1302.15,966.227 1314.16,966.227 1326.18,966.227 1338.19,966.227 1350.2,966.227 1362.22,968.25 1374.23,968.25 1386.24,968.25 1398.25,968.25 1410.27,968.877 1422.28,974.173 1434.29,975.841 1446.3,977.778 1458.32,977.778 1470.33,977.778 1482.34,977.778 1494.36,979.123 1506.37,981.603 1518.38,981.603 1530.39,981.603 1542.41,981.603 1554.42,981.603 1566.43,981.603 1578.44,985.068 1590.46,986.896 1602.47,986.896 1614.48,986.896 1626.5,987.561 1638.51,988.506 1650.52,988.506 1662.53,988.506 1674.55,990.209 1686.56,991.621 1698.57,991.621 1710.58,991.621 1722.6,993.301 1734.61,995.323 1746.62,995.323 1758.64,998.67 1770.65,999.916 1782.66,999.916 1794.67,999.916 1806.69,1001.35 1818.7,1001.35 1830.71,1001.35 1842.72,1001.35 1854.74,1001.35 1866.75,1002.87 1878.76,1002.87 1890.77,1004.48 1902.79,1006.23 1914.8,1006.23 1926.81,1007.85 1938.83,1007.85 1950.84,1007.85 1962.85,1007.85 1974.86,1007.85 1986.88,1007.85 1998.89,1007.85 2010.9,1007.85 2022.91,1009.09 2034.93,1009.09 2046.94,1009.09 2058.95,1009.09 2070.97,1009.09 2082.98,1009.98 2094.99,1009.98 2107,1009.98 2119.02,1010.65 2131.03,1010.65 2143.04,1010.65 2155.05,1012.5 2167.07,1012.5 2179.08,1013.52 2191.09,1013.52 2203.11,1013.52 2215.12,1013.52 2227.13,1013.52 2239.14,1013.52 2251.16,1013.52 2263.17,1015.65 2275.18,1015.65 2287.19,1015.65 2299.21,1015.65 2311.22,1017.34 2323.23,1021.09 2335.25,1024.37 2347.26,1029.86 2359.27,1033.51 2371.28,1033.51 2383.3,1037.19 2395.31,1040.55 2407.32,1040.55 2419.33,1043.17 2431.35,1043.17 2443.36,1043.17 2455.37,1043.17 2467.39,1043.17 2479.4,1045.66 2491.41,1045.66 2503.42,1045.66 2515.44,1047.99 2527.45,1047.99 2539.46,1049.64 2551.47,1050.86 2563.49,1050.86 2575.5,1050.86 2587.51,1050.86 2599.53,1050.86 2611.54,1050.86 2623.55,1050.86 2635.56,1050.86 2647.58,1053.71 2659.59,1053.71 2671.6,1053.71 2683.61,1053.71 2695.63,1053.71 2707.64,1053.71 2719.65,1053.71 2731.67,1053.71 2743.68,1053.71 2755.69,1053.71 2767.7,1053.71 2779.72,1053.71 2791.73,1053.71 2803.74,1053.71 2815.75,1053.71 2827.77,1053.71 2839.78,1053.71 2851.79,1053.71 2863.81,1053.71 2875.82,1053.71 2887.83,1053.71 2899.84,1053.71 2911.86,1053.71 2923.87,1055.26 2935.88,1057.01 2947.89,1058.33 2959.91,1058.33 2971.92,1058.33 2983.93,1058.33 2995.95,1058.33 3007.96,1058.33 3019.97,1058.33 3031.98,1058.33 3044,1058.33 3056.01,1058.33 3068.02,1058.33 3080.03,1058.33 3092.05,1058.33 3104.06,1058.33 3116.07,1058.33 3128.09,1058.33 3140.1,1058.33 3152.11,1058.33 3164.12,1058.33 3176.14,1058.33 3188.15,1058.33 3200.16,1058.33 3212.17,1058.33 3224.19,1060.51 "/>
<path clip-path="url(#clip770)" d="M1524.47 294.847 L1817.7 294.847 L1817.7 87.4866 L1524.47 87.4866  Z" fill="#ffffff" fill-rule="evenodd" fill-opacity="1"/>
<polyline clip-path="url(#clip770)" style="stroke:#000000; stroke-linecap:round; stroke-linejoin:round; stroke-width:4; stroke-opacity:1; fill:none" points="1524.47,294.847 1817.7,294.847 1817.7,87.4866 1524.47,87.4866 1524.47,294.847 "/>
<polyline clip-path="url(#clip770)" style="stroke:#000000; stroke-linecap:round; stroke-linejoin:round; stroke-width:4; stroke-opacity:1; fill:none" points="1542.82,139.327 1652.94,139.327 "/>
<path clip-path="url(#clip770)" d="M1687.79 120.588 L1687.79 124.13 L1683.72 124.13 Q1681.43 124.13 1680.53 125.056 Q1679.65 125.982 1679.65 128.389 L1679.65 130.681 L1686.66 130.681 L1686.66 133.991 L1679.65 133.991 L1679.65 156.607 L1675.36 156.607 L1675.36 133.991 L1671.29 133.991 L1671.29 130.681 L1675.36 130.681 L1675.36 128.875 Q1675.36 124.547 1677.38 122.579 Q1679.39 120.588 1683.77 120.588 L1687.79 120.588 Z" fill="#000000" fill-rule="nonzero" fill-opacity="1" /><path clip-path="url(#clip770)" d="M1706.38 134.662 Q1705.66 134.246 1704.81 134.06 Q1703.97 133.852 1702.96 133.852 Q1699.35 133.852 1697.4 136.213 Q1695.48 138.551 1695.48 142.949 L1695.48 156.607 L1691.2 156.607 L1691.2 130.681 L1695.48 130.681 L1695.48 134.709 Q1696.82 132.347 1698.97 131.213 Q1701.13 130.056 1704.21 130.056 Q1704.65 130.056 1705.18 130.125 Q1705.71 130.172 1706.36 130.287 L1706.38 134.662 Z" fill="#000000" fill-rule="nonzero" fill-opacity="1" /><path clip-path="url(#clip770)" d="M1731.98 142.579 L1731.98 144.662 L1712.4 144.662 Q1712.68 149.06 1715.04 151.375 Q1717.42 153.667 1721.66 153.667 Q1724.11 153.667 1726.41 153.065 Q1728.72 152.463 1730.99 151.259 L1730.99 155.287 Q1728.7 156.259 1726.29 156.769 Q1723.88 157.278 1721.41 157.278 Q1715.2 157.278 1711.57 153.667 Q1707.96 150.056 1707.96 143.898 Q1707.96 137.533 1711.38 133.806 Q1714.83 130.056 1720.66 130.056 Q1725.9 130.056 1728.93 133.435 Q1731.98 136.792 1731.98 142.579 M1727.72 141.329 Q1727.68 137.834 1725.76 135.75 Q1723.86 133.667 1720.71 133.667 Q1717.15 133.667 1714.99 135.681 Q1712.86 137.695 1712.54 141.352 L1727.72 141.329 Z" fill="#000000" fill-rule="nonzero" fill-opacity="1" /><path clip-path="url(#clip770)" d="M1741.52 143.667 Q1741.52 148.366 1743.44 151.051 Q1745.39 153.713 1748.77 153.713 Q1752.15 153.713 1754.09 151.051 Q1756.03 148.366 1756.03 143.667 Q1756.03 138.968 1754.09 136.306 Q1752.15 133.621 1748.77 133.621 Q1745.39 133.621 1743.44 136.306 Q1741.52 138.968 1741.52 143.667 M1756.03 152.718 Q1754.69 155.033 1752.63 156.167 Q1750.6 157.278 1747.72 157.278 Q1743.03 157.278 1740.06 153.528 Q1737.12 149.778 1737.12 143.667 Q1737.12 137.556 1740.06 133.806 Q1743.03 130.056 1747.72 130.056 Q1750.6 130.056 1752.63 131.19 Q1754.69 132.301 1756.03 134.616 L1756.03 130.681 L1760.29 130.681 L1760.29 166.468 L1756.03 166.468 L1756.03 152.718 Z" fill="#000000" fill-rule="nonzero" fill-opacity="1" /><polyline clip-path="url(#clip770)" style="stroke:#009af9; stroke-linecap:round; stroke-linejoin:round; stroke-width:4; stroke-opacity:1; fill:none" points="1542.82,191.167 1652.94,191.167 "/>
<path clip-path="url(#clip770)" d="M1693 192.799 L1693 208.447 L1688.74 208.447 L1688.74 192.937 Q1688.74 189.257 1687.31 187.428 Q1685.87 185.6 1683 185.6 Q1679.55 185.6 1677.56 187.799 Q1675.57 189.998 1675.57 193.794 L1675.57 208.447 L1671.29 208.447 L1671.29 172.428 L1675.57 172.428 L1675.57 186.549 Q1677.1 184.211 1679.16 183.053 Q1681.24 181.896 1683.95 181.896 Q1688.42 181.896 1690.71 184.674 Q1693 187.428 1693 192.799 Z" fill="#000000" fill-rule="nonzero" fill-opacity="1" /><path clip-path="url(#clip770)" d="M1727.56 176.549 L1727.56 181.479 Q1725.2 179.28 1722.52 178.192 Q1719.85 177.104 1716.85 177.104 Q1710.92 177.104 1707.77 180.738 Q1704.62 184.35 1704.62 191.201 Q1704.62 198.03 1707.77 201.664 Q1710.92 205.275 1716.85 205.275 Q1719.85 205.275 1722.52 204.187 Q1725.2 203.099 1727.56 200.9 L1727.56 205.785 Q1725.11 207.451 1722.35 208.285 Q1719.62 209.118 1716.57 209.118 Q1708.72 209.118 1704.21 204.326 Q1699.69 199.511 1699.69 191.201 Q1699.69 182.868 1704.21 178.076 Q1708.72 173.262 1716.57 173.262 Q1719.67 173.262 1722.4 174.095 Q1725.16 174.905 1727.56 176.549 Z" fill="#000000" fill-rule="nonzero" fill-opacity="1" /><path clip-path="url(#clip770)" d="M1751.17 192.243 Q1752.68 192.752 1754.09 194.419 Q1755.53 196.086 1756.96 199.002 L1761.71 208.447 L1756.68 208.447 L1752.26 199.581 Q1750.55 196.109 1748.93 194.974 Q1747.33 193.84 1744.55 193.84 L1739.46 193.84 L1739.46 208.447 L1734.78 208.447 L1734.78 173.887 L1745.34 173.887 Q1751.27 173.887 1754.18 176.363 Q1757.1 178.84 1757.1 183.84 Q1757.1 187.104 1755.57 189.257 Q1754.07 191.41 1751.17 192.243 M1739.46 177.729 L1739.46 189.998 L1745.34 189.998 Q1748.72 189.998 1750.43 188.447 Q1752.17 186.873 1752.17 183.84 Q1752.17 180.808 1750.43 179.28 Q1748.72 177.729 1745.34 177.729 L1739.46 177.729 Z" fill="#000000" fill-rule="nonzero" fill-opacity="1" /><path clip-path="url(#clip770)" d="M1767.72 173.887 L1774.69 173.887 L1783.51 197.405 L1792.38 173.887 L1799.34 173.887 L1799.34 208.447 L1794.78 208.447 L1794.78 178.1 L1785.87 201.803 L1781.17 201.803 L1772.26 178.1 L1772.26 208.447 L1767.72 208.447 L1767.72 173.887 Z" fill="#000000" fill-rule="nonzero" fill-opacity="1" /><polyline clip-path="url(#clip770)" style="stroke:#e26f46; stroke-linecap:round; stroke-linejoin:round; stroke-width:4; stroke-opacity:1; fill:none" points="1542.82,243.007 1652.94,243.007 "/>
<path clip-path="url(#clip770)" d="M1675.97 243.782 L1675.97 256.444 L1683.47 256.444 Q1687.24 256.444 1689.04 254.893 Q1690.87 253.319 1690.87 250.101 Q1690.87 246.861 1689.04 245.333 Q1687.24 243.782 1683.47 243.782 L1675.97 243.782 M1675.97 229.569 L1675.97 239.986 L1682.89 239.986 Q1686.31 239.986 1687.98 238.713 Q1689.67 237.416 1689.67 234.777 Q1689.67 232.162 1687.98 230.865 Q1686.31 229.569 1682.89 229.569 L1675.97 229.569 M1671.29 225.727 L1683.23 225.727 Q1688.58 225.727 1691.48 227.949 Q1694.37 230.171 1694.37 234.268 Q1694.37 237.44 1692.89 239.315 Q1691.41 241.189 1688.54 241.652 Q1691.98 242.393 1693.88 244.754 Q1695.8 247.092 1695.8 250.611 Q1695.8 255.24 1692.66 257.763 Q1689.51 260.287 1683.7 260.287 L1671.29 260.287 L1671.29 225.727 Z" fill="#000000" fill-rule="nonzero" fill-opacity="1" /><path clip-path="url(#clip770)" d="M1715.36 230.333 L1709.02 247.532 L1721.73 247.532 L1715.36 230.333 M1712.72 225.727 L1718.03 225.727 L1731.2 260.287 L1726.34 260.287 L1723.19 251.421 L1707.61 251.421 L1704.46 260.287 L1699.53 260.287 L1712.72 225.727 Z" fill="#000000" fill-rule="nonzero" fill-opacity="1" /><path clip-path="url(#clip770)" d="M1752.63 244.083 Q1754.14 244.592 1755.55 246.259 Q1756.98 247.926 1758.42 250.842 L1763.16 260.287 L1758.14 260.287 L1753.72 251.421 Q1752.01 247.949 1750.39 246.814 Q1748.79 245.68 1746.01 245.68 L1740.92 245.68 L1740.92 260.287 L1736.24 260.287 L1736.24 225.727 L1746.8 225.727 Q1752.72 225.727 1755.64 228.203 Q1758.56 230.68 1758.56 235.68 Q1758.56 238.944 1757.03 241.097 Q1755.53 243.25 1752.63 244.083 M1740.92 229.569 L1740.92 241.838 L1746.8 241.838 Q1750.18 241.838 1751.89 240.287 Q1753.63 238.713 1753.63 235.68 Q1753.63 232.648 1751.89 231.12 Q1750.18 229.569 1746.8 229.569 L1740.92 229.569 Z" fill="#000000" fill-rule="nonzero" fill-opacity="1" /><path clip-path="url(#clip770)" d="M1760.94 225.727 L1790.18 225.727 L1790.18 229.662 L1777.91 229.662 L1777.91 260.287 L1773.21 260.287 L1773.21 229.662 L1760.94 229.662 L1760.94 225.727 Z" fill="#000000" fill-rule="nonzero" fill-opacity="1" /></svg>
