<?xml version="1.0" encoding="utf-8"?>
<svg xmlns="http://www.w3.org/2000/svg" xmlns:xlink="http://www.w3.org/1999/xlink" width="480" height="360" viewBox="0 0 1920 1440">
<defs>
  <clipPath id="clip490">
    <rect x="0" y="0" width="1920" height="1440"/>
  </clipPath>
</defs>
<path clip-path="url(#clip490)" d="M0 1440 L1920 1440 L1920 0 L0 0  Z" fill="#ffffff" fill-rule="evenodd" fill-opacity="1"/>
<defs>
  <clipPath id="clip491">
    <rect x="384" y="0" width="1345" height="1345"/>
  </clipPath>
</defs>
<path clip-path="url(#clip490)" d="M181.474 1254.52 L1872.76 1254.52 L1872.76 47.2441 L181.474 47.2441  Z" fill="#ffffff" fill-rule="evenodd" fill-opacity="1"/>
<defs>
  <clipPath id="clip492">
    <rect x="181" y="47" width="1692" height="1208"/>
  </clipPath>
</defs>
<polyline clip-path="url(#clip492)" style="stroke:#000000; stroke-linecap:round; stroke-linejoin:round; stroke-width:2; stroke-opacity:0.1; fill:none" points="181.474,1254.52 181.474,47.2441 "/>
<polyline clip-path="url(#clip492)" style="stroke:#000000; stroke-linecap:round; stroke-linejoin:round; stroke-width:2; stroke-opacity:0.1; fill:none" points="519.73,1254.52 519.73,47.2441 "/>
<polyline clip-path="url(#clip492)" style="stroke:#000000; stroke-linecap:round; stroke-linejoin:round; stroke-width:2; stroke-opacity:0.1; fill:none" points="857.987,1254.52 857.987,47.2441 "/>
<polyline clip-path="url(#clip492)" style="stroke:#000000; stroke-linecap:round; stroke-linejoin:round; stroke-width:2; stroke-opacity:0.1; fill:none" points="1196.24,1254.52 1196.24,47.2441 "/>
<polyline clip-path="url(#clip492)" style="stroke:#000000; stroke-linecap:round; stroke-linejoin:round; stroke-width:2; stroke-opacity:0.1; fill:none" points="1534.5,1254.52 1534.5,47.2441 "/>
<polyline clip-path="url(#clip492)" style="stroke:#000000; stroke-linecap:round; stroke-linejoin:round; stroke-width:2; stroke-opacity:0.1; fill:none" points="1872.76,1254.52 1872.76,47.2441 "/>
<polyline clip-path="url(#clip492)" style="stroke:#000000; stroke-linecap:round; stroke-linejoin:round; stroke-width:2; stroke-opacity:0.1; fill:none" points="181.474,1254.52 1872.76,1254.52 "/>
<polyline clip-path="url(#clip492)" style="stroke:#000000; stroke-linecap:round; stroke-linejoin:round; stroke-width:2; stroke-opacity:0.1; fill:none" points="181.474,946.695 1872.76,946.695 "/>
<polyline clip-path="url(#clip492)" style="stroke:#000000; stroke-linecap:round; stroke-linejoin:round; stroke-width:2; stroke-opacity:0.1; fill:none" points="181.474,638.871 1872.76,638.871 "/>
<polyline clip-path="url(#clip492)" style="stroke:#000000; stroke-linecap:round; stroke-linejoin:round; stroke-width:2; stroke-opacity:0.1; fill:none" points="181.474,331.046 1872.76,331.046 "/>
<polyline clip-path="url(#clip490)" style="stroke:#000000; stroke-linecap:round; stroke-linejoin:round; stroke-width:4; stroke-opacity:1; fill:none" points="181.474,1254.52 1872.76,1254.52 "/>
<polyline clip-path="url(#clip490)" style="stroke:#000000; stroke-linecap:round; stroke-linejoin:round; stroke-width:4; stroke-opacity:1; fill:none" points="181.474,1254.52 181.474,1235.62 "/>
<polyline clip-path="url(#clip490)" style="stroke:#000000; stroke-linecap:round; stroke-linejoin:round; stroke-width:4; stroke-opacity:1; fill:none" points="519.73,1254.52 519.73,1235.62 "/>
<polyline clip-path="url(#clip490)" style="stroke:#000000; stroke-linecap:round; stroke-linejoin:round; stroke-width:4; stroke-opacity:1; fill:none" points="857.987,1254.52 857.987,1235.62 "/>
<polyline clip-path="url(#clip490)" style="stroke:#000000; stroke-linecap:round; stroke-linejoin:round; stroke-width:4; stroke-opacity:1; fill:none" points="1196.24,1254.52 1196.24,1235.62 "/>
<polyline clip-path="url(#clip490)" style="stroke:#000000; stroke-linecap:round; stroke-linejoin:round; stroke-width:4; stroke-opacity:1; fill:none" points="1534.5,1254.52 1534.5,1235.62 "/>
<polyline clip-path="url(#clip490)" style="stroke:#000000; stroke-linecap:round; stroke-linejoin:round; stroke-width:4; stroke-opacity:1; fill:none" points="1872.76,1254.52 1872.76,1235.62 "/>
<path clip-path="url(#clip490)" d="M181.474 1281.6 Q177.863 1281.6 176.034 1285.16 Q174.229 1288.7 174.229 1295.83 Q174.229 1302.94 176.034 1306.51 Q177.863 1310.05 181.474 1310.05 Q185.108 1310.05 186.914 1306.51 Q188.742 1302.94 188.742 1295.83 Q188.742 1288.7 186.914 1285.16 Q185.108 1281.6 181.474 1281.6 M181.474 1277.89 Q187.284 1277.89 190.34 1282.5 Q193.418 1287.08 193.418 1295.83 Q193.418 1304.56 190.34 1309.17 Q187.284 1313.75 181.474 1313.75 Q175.664 1313.75 172.585 1309.17 Q169.53 1304.56 169.53 1295.83 Q169.53 1287.08 172.585 1282.5 Q175.664 1277.89 181.474 1277.89 Z" fill="#000000" fill-rule="nonzero" fill-opacity="1" /><path clip-path="url(#clip490)" d="M510.008 1278.52 L528.365 1278.52 L528.365 1282.46 L514.291 1282.46 L514.291 1290.93 Q515.309 1290.58 516.328 1290.42 Q517.346 1290.23 518.365 1290.23 Q524.152 1290.23 527.531 1293.4 Q530.911 1296.58 530.911 1301.99 Q530.911 1307.57 527.439 1310.67 Q523.966 1313.75 517.647 1313.75 Q515.471 1313.75 513.203 1313.38 Q510.957 1313.01 508.55 1312.27 L508.55 1307.57 Q510.633 1308.7 512.855 1309.26 Q515.078 1309.82 517.554 1309.82 Q521.559 1309.82 523.897 1307.71 Q526.235 1305.6 526.235 1301.99 Q526.235 1298.38 523.897 1296.27 Q521.559 1294.17 517.554 1294.17 Q515.679 1294.17 513.804 1294.58 Q511.953 1295 510.008 1295.88 L510.008 1278.52 Z" fill="#000000" fill-rule="nonzero" fill-opacity="1" /><path clip-path="url(#clip490)" d="M832.674 1309.14 L840.313 1309.14 L840.313 1282.78 L832.003 1284.45 L832.003 1280.19 L840.267 1278.52 L844.943 1278.52 L844.943 1309.14 L852.582 1309.14 L852.582 1313.08 L832.674 1313.08 L832.674 1309.14 Z" fill="#000000" fill-rule="nonzero" fill-opacity="1" /><path clip-path="url(#clip490)" d="M872.026 1281.6 Q868.415 1281.6 866.586 1285.16 Q864.781 1288.7 864.781 1295.83 Q864.781 1302.94 866.586 1306.51 Q868.415 1310.05 872.026 1310.05 Q875.66 1310.05 877.466 1306.51 Q879.295 1302.94 879.295 1295.83 Q879.295 1288.7 877.466 1285.16 Q875.66 1281.6 872.026 1281.6 M872.026 1277.89 Q877.836 1277.89 880.892 1282.5 Q883.97 1287.08 883.97 1295.83 Q883.97 1304.56 880.892 1309.17 Q877.836 1313.75 872.026 1313.75 Q866.216 1313.75 863.137 1309.17 Q860.082 1304.56 860.082 1295.83 Q860.082 1287.08 863.137 1282.5 Q866.216 1277.89 872.026 1277.89 Z" fill="#000000" fill-rule="nonzero" fill-opacity="1" /><path clip-path="url(#clip490)" d="M1171.43 1309.14 L1179.07 1309.14 L1179.07 1282.78 L1170.76 1284.45 L1170.76 1280.19 L1179.02 1278.52 L1183.7 1278.52 L1183.7 1309.14 L1191.34 1309.14 L1191.34 1313.08 L1171.43 1313.08 L1171.43 1309.14 Z" fill="#000000" fill-rule="nonzero" fill-opacity="1" /><path clip-path="url(#clip490)" d="M1200.83 1278.52 L1219.18 1278.52 L1219.18 1282.46 L1205.11 1282.46 L1205.11 1290.93 Q1206.13 1290.58 1207.15 1290.42 Q1208.16 1290.23 1209.18 1290.23 Q1214.97 1290.23 1218.35 1293.4 Q1221.73 1296.58 1221.73 1301.99 Q1221.73 1307.57 1218.26 1310.67 Q1214.78 1313.75 1208.47 1313.75 Q1206.29 1313.75 1204.02 1313.38 Q1201.78 1313.01 1199.37 1312.27 L1199.37 1307.57 Q1201.45 1308.7 1203.67 1309.26 Q1205.9 1309.82 1208.37 1309.82 Q1212.38 1309.82 1214.72 1307.71 Q1217.05 1305.6 1217.05 1301.99 Q1217.05 1298.38 1214.72 1296.27 Q1212.38 1294.17 1208.37 1294.17 Q1206.5 1294.17 1204.62 1294.58 Q1202.77 1295 1200.83 1295.88 L1200.83 1278.52 Z" fill="#000000" fill-rule="nonzero" fill-opacity="1" /><path clip-path="url(#clip490)" d="M1513.27 1309.14 L1529.59 1309.14 L1529.59 1313.08 L1507.65 1313.08 L1507.65 1309.14 Q1510.31 1306.39 1514.89 1301.76 Q1519.5 1297.11 1520.68 1295.77 Q1522.93 1293.24 1523.81 1291.51 Q1524.71 1289.75 1524.71 1288.06 Q1524.71 1285.3 1522.76 1283.57 Q1520.84 1281.83 1517.74 1281.83 Q1515.54 1281.83 1513.09 1282.59 Q1510.66 1283.36 1507.88 1284.91 L1507.88 1280.19 Q1510.7 1279.05 1513.16 1278.47 Q1515.61 1277.89 1517.65 1277.89 Q1523.02 1277.89 1526.21 1280.58 Q1529.41 1283.27 1529.41 1287.76 Q1529.41 1289.89 1528.6 1291.81 Q1527.81 1293.7 1525.7 1296.3 Q1525.12 1296.97 1522.02 1300.19 Q1518.92 1303.38 1513.27 1309.14 Z" fill="#000000" fill-rule="nonzero" fill-opacity="1" /><path clip-path="url(#clip490)" d="M1549.41 1281.6 Q1545.8 1281.6 1543.97 1285.16 Q1542.16 1288.7 1542.16 1295.83 Q1542.16 1302.94 1543.97 1306.51 Q1545.8 1310.05 1549.41 1310.05 Q1553.04 1310.05 1554.85 1306.51 Q1556.68 1302.94 1556.68 1295.83 Q1556.68 1288.7 1554.85 1285.16 Q1553.04 1281.6 1549.41 1281.6 M1549.41 1277.89 Q1555.22 1277.89 1558.27 1282.5 Q1561.35 1287.08 1561.35 1295.83 Q1561.35 1304.56 1558.27 1309.17 Q1555.22 1313.75 1549.41 1313.75 Q1543.6 1313.75 1540.52 1309.17 Q1537.46 1304.56 1537.46 1295.83 Q1537.46 1287.08 1540.52 1282.5 Q1543.6 1277.89 1549.41 1277.89 Z" fill="#000000" fill-rule="nonzero" fill-opacity="1" /><path clip-path="url(#clip490)" d="M1852.03 1309.14 L1868.35 1309.14 L1868.35 1313.08 L1846.4 1313.08 L1846.4 1309.14 Q1849.06 1306.39 1853.65 1301.76 Q1858.25 1297.11 1859.43 1295.77 Q1861.68 1293.24 1862.56 1291.51 Q1863.46 1289.75 1863.46 1288.06 Q1863.46 1285.3 1861.52 1283.57 Q1859.6 1281.83 1856.49 1281.83 Q1854.3 1281.83 1851.84 1282.59 Q1849.41 1283.36 1846.63 1284.91 L1846.63 1280.19 Q1849.46 1279.05 1851.91 1278.47 Q1854.36 1277.89 1856.4 1277.89 Q1861.77 1277.89 1864.97 1280.58 Q1868.16 1283.27 1868.16 1287.76 Q1868.16 1289.89 1867.35 1291.81 Q1866.56 1293.7 1864.46 1296.3 Q1863.88 1296.97 1860.78 1300.19 Q1857.67 1303.38 1852.03 1309.14 Z" fill="#000000" fill-rule="nonzero" fill-opacity="1" /><path clip-path="url(#clip490)" d="M1878.21 1278.52 L1896.56 1278.52 L1896.56 1282.46 L1882.49 1282.46 L1882.49 1290.93 Q1883.51 1290.58 1884.53 1290.42 Q1885.55 1290.23 1886.56 1290.23 Q1892.35 1290.23 1895.73 1293.4 Q1899.11 1296.58 1899.11 1301.99 Q1899.11 1307.57 1895.64 1310.67 Q1892.17 1313.75 1885.85 1313.75 Q1883.67 1313.75 1881.4 1313.38 Q1879.16 1313.01 1876.75 1312.27 L1876.75 1307.57 Q1878.83 1308.7 1881.05 1309.26 Q1883.28 1309.82 1885.75 1309.82 Q1889.76 1309.82 1892.1 1307.71 Q1894.43 1305.6 1894.43 1301.99 Q1894.43 1298.38 1892.1 1296.27 Q1889.76 1294.17 1885.75 1294.17 Q1883.88 1294.17 1882 1294.58 Q1880.15 1295 1878.21 1295.88 L1878.21 1278.52 Z" fill="#000000" fill-rule="nonzero" fill-opacity="1" /><path clip-path="url(#clip490)" d="M1039.95 1360.97 Q1039.95 1362.81 1038.83 1363.9 Q1037.73 1365 1036.35 1365 Q1035.12 1365 1034.48 1364.29 Q1033.83 1363.58 1033.83 1362.68 Q1033.83 1362.29 1033.99 1361.81 Q1034.16 1361.3 1034.51 1360.68 Q1034.9 1360.07 1035.7 1359.62 Q1036.51 1359.17 1037.6 1359.11 Q1037.38 1358.88 1037.31 1358.85 Q1036.83 1358.46 1035.93 1358.33 Q1035.8 1358.27 1035.35 1358.27 Q1033.13 1358.27 1030.87 1359.91 Q1028.65 1361.52 1025.91 1364.58 Q1022.46 1368.16 1020.24 1369.48 Q1030 1370.76 1030 1376.4 Q1030 1377.33 1029.74 1378.46 Q1029.23 1380.59 1029.23 1382.13 Q1029.23 1385.22 1031.32 1385.22 Q1033.35 1385.22 1034.64 1383.16 Q1035.96 1381.1 1037.05 1377.08 Q1037.22 1376.34 1037.38 1376.11 Q1037.54 1375.89 1037.99 1375.89 Q1038.79 1375.89 1038.79 1376.53 Q1038.05 1380.3 1036.41 1383.2 Q1034.32 1386.71 1031.19 1386.71 Q1028.58 1386.71 1026.84 1384.9 Q1025.14 1383.07 1025.14 1380.17 Q1025.14 1379.46 1025.4 1377.85 Q1025.59 1377.21 1025.59 1376.46 Q1025.59 1374.95 1024.75 1373.82 Q1023.91 1372.66 1022.56 1372.08 Q1021.21 1371.51 1020.08 1371.25 Q1018.99 1370.96 1017.92 1370.86 Q1014.7 1384.48 1014.25 1385.32 Q1013.96 1385.9 1013.32 1386.29 Q1012.67 1386.71 1012 1386.71 Q1011.35 1386.71 1010.71 1386.26 Q1010.1 1385.84 1010.1 1384.84 Q1010.1 1384.32 1010.36 1383.39 L1019.92 1345.39 L1020.11 1344.1 Q1020.11 1343.71 1019.95 1343.52 Q1019.82 1343.29 1019.05 1343.13 Q1018.31 1342.97 1016.83 1342.97 Q1016.22 1342.97 1015.93 1342.94 Q1015.67 1342.91 1015.44 1342.75 Q1015.22 1342.55 1015.22 1342.17 Q1015.22 1341.62 1015.44 1341.33 Q1015.7 1341.01 1015.89 1340.94 Q1016.09 1340.88 1016.47 1340.85 Q1017.02 1340.81 1018.86 1340.65 Q1020.69 1340.46 1022.27 1340.33 Q1023.85 1340.2 1024.53 1340.2 Q1024.91 1340.2 1025.11 1340.39 Q1025.33 1340.56 1025.36 1340.75 L1025.4 1340.91 L1018.54 1368.74 Q1021.37 1367.61 1025.85 1362.62 Q1031.03 1356.82 1035.48 1356.82 Q1037.57 1356.82 1038.76 1358.11 Q1039.95 1359.36 1039.95 1360.97 Z" fill="#000000" fill-rule="nonzero" fill-opacity="1" /><polyline clip-path="url(#clip490)" style="stroke:#000000; stroke-linecap:round; stroke-linejoin:round; stroke-width:4; stroke-opacity:1; fill:none" points="181.474,1254.52 181.474,47.2441 "/>
<polyline clip-path="url(#clip490)" style="stroke:#000000; stroke-linecap:round; stroke-linejoin:round; stroke-width:4; stroke-opacity:1; fill:none" points="181.474,1254.52 200.372,1254.52 "/>
<polyline clip-path="url(#clip490)" style="stroke:#000000; stroke-linecap:round; stroke-linejoin:round; stroke-width:4; stroke-opacity:1; fill:none" points="181.474,946.695 200.372,946.695 "/>
<polyline clip-path="url(#clip490)" style="stroke:#000000; stroke-linecap:round; stroke-linejoin:round; stroke-width:4; stroke-opacity:1; fill:none" points="181.474,638.871 200.372,638.871 "/>
<polyline clip-path="url(#clip490)" style="stroke:#000000; stroke-linecap:round; stroke-linejoin:round; stroke-width:4; stroke-opacity:1; fill:none" points="181.474,331.046 200.372,331.046 "/>
<path clip-path="url(#clip490)" d="M65.3365 1240.32 Q61.7254 1240.32 59.8967 1243.88 Q58.0912 1247.42 58.0912 1254.55 Q58.0912 1261.66 59.8967 1265.23 Q61.7254 1268.77 65.3365 1268.77 Q68.9707 1268.77 70.7763 1265.23 Q72.605 1261.66 72.605 1254.55 Q72.605 1247.42 70.7763 1243.88 Q68.9707 1240.32 65.3365 1240.32 M65.3365 1236.61 Q71.1467 1236.61 74.2022 1241.22 Q77.2809 1245.8 77.2809 1254.55 Q77.2809 1263.28 74.2022 1267.89 Q71.1467 1272.47 65.3365 1272.47 Q59.5264 1272.47 56.4477 1267.89 Q53.3921 1263.28 53.3921 1254.55 Q53.3921 1245.8 56.4477 1241.22 Q59.5264 1236.61 65.3365 1236.61 Z" fill="#000000" fill-rule="nonzero" fill-opacity="1" /><path clip-path="url(#clip490)" d="M85.4984 1265.92 L90.3827 1265.92 L90.3827 1271.8 L85.4984 1271.8 L85.4984 1265.92 Z" fill="#000000" fill-rule="nonzero" fill-opacity="1" /><path clip-path="url(#clip490)" d="M110.568 1240.32 Q106.957 1240.32 105.128 1243.88 Q103.322 1247.42 103.322 1254.55 Q103.322 1261.66 105.128 1265.23 Q106.957 1268.77 110.568 1268.77 Q114.202 1268.77 116.008 1265.23 Q117.836 1261.66 117.836 1254.55 Q117.836 1247.42 116.008 1243.88 Q114.202 1240.32 110.568 1240.32 M110.568 1236.61 Q116.378 1236.61 119.433 1241.22 Q122.512 1245.8 122.512 1254.55 Q122.512 1263.28 119.433 1267.89 Q116.378 1272.47 110.568 1272.47 Q104.758 1272.47 101.679 1267.89 Q98.6234 1263.28 98.6234 1254.55 Q98.6234 1245.8 101.679 1241.22 Q104.758 1236.61 110.568 1236.61 Z" fill="#000000" fill-rule="nonzero" fill-opacity="1" /><path clip-path="url(#clip490)" d="M140.73 1240.32 Q137.119 1240.32 135.29 1243.88 Q133.484 1247.42 133.484 1254.55 Q133.484 1261.66 135.29 1265.23 Q137.119 1268.77 140.73 1268.77 Q144.364 1268.77 146.169 1265.23 Q147.998 1261.66 147.998 1254.55 Q147.998 1247.42 146.169 1243.88 Q144.364 1240.32 140.73 1240.32 M140.73 1236.61 Q146.54 1236.61 149.595 1241.22 Q152.674 1245.8 152.674 1254.55 Q152.674 1263.28 149.595 1267.89 Q146.54 1272.47 140.73 1272.47 Q134.919 1272.47 131.841 1267.89 Q128.785 1263.28 128.785 1254.55 Q128.785 1245.8 131.841 1241.22 Q134.919 1236.61 140.73 1236.61 Z" fill="#000000" fill-rule="nonzero" fill-opacity="1" /><path clip-path="url(#clip490)" d="M66.3319 932.494 Q62.7208 932.494 60.8921 936.059 Q59.0865 939.6 59.0865 946.73 Q59.0865 953.836 60.8921 957.401 Q62.7208 960.943 66.3319 960.943 Q69.9661 960.943 71.7717 957.401 Q73.6004 953.836 73.6004 946.73 Q73.6004 939.6 71.7717 936.059 Q69.9661 932.494 66.3319 932.494 M66.3319 928.79 Q72.142 928.79 75.1976 933.397 Q78.2763 937.98 78.2763 946.73 Q78.2763 955.457 75.1976 960.063 Q72.142 964.647 66.3319 964.647 Q60.5217 964.647 57.443 960.063 Q54.3875 955.457 54.3875 946.73 Q54.3875 937.98 57.443 933.397 Q60.5217 928.79 66.3319 928.79 Z" fill="#000000" fill-rule="nonzero" fill-opacity="1" /><path clip-path="url(#clip490)" d="M86.4938 958.096 L91.378 958.096 L91.378 963.975 L86.4938 963.975 L86.4938 958.096 Z" fill="#000000" fill-rule="nonzero" fill-opacity="1" /><path clip-path="url(#clip490)" d="M111.563 932.494 Q107.952 932.494 106.123 936.059 Q104.318 939.6 104.318 946.73 Q104.318 953.836 106.123 957.401 Q107.952 960.943 111.563 960.943 Q115.197 960.943 117.003 957.401 Q118.832 953.836 118.832 946.73 Q118.832 939.6 117.003 936.059 Q115.197 932.494 111.563 932.494 M111.563 928.79 Q117.373 928.79 120.429 933.397 Q123.507 937.98 123.507 946.73 Q123.507 955.457 120.429 960.063 Q117.373 964.647 111.563 964.647 Q105.753 964.647 102.674 960.063 Q99.6187 955.457 99.6187 946.73 Q99.6187 937.98 102.674 933.397 Q105.753 928.79 111.563 928.79 Z" fill="#000000" fill-rule="nonzero" fill-opacity="1" /><path clip-path="url(#clip490)" d="M131.771 929.415 L150.128 929.415 L150.128 933.35 L136.054 933.35 L136.054 941.823 Q137.072 941.475 138.091 941.313 Q139.109 941.128 140.128 941.128 Q145.915 941.128 149.294 944.3 Q152.674 947.471 152.674 952.887 Q152.674 958.466 149.202 961.568 Q145.73 964.647 139.41 964.647 Q137.234 964.647 134.966 964.276 Q132.72 963.906 130.313 963.165 L130.313 958.466 Q132.396 959.6 134.619 960.156 Q136.841 960.711 139.318 960.711 Q143.322 960.711 145.66 958.605 Q147.998 956.499 147.998 952.887 Q147.998 949.276 145.66 947.17 Q143.322 945.063 139.318 945.063 Q137.443 945.063 135.568 945.48 Q133.716 945.897 131.771 946.776 L131.771 929.415 Z" fill="#000000" fill-rule="nonzero" fill-opacity="1" /><path clip-path="url(#clip490)" d="M65.3365 624.669 Q61.7254 624.669 59.8967 628.234 Q58.0912 631.776 58.0912 638.906 Q58.0912 646.012 59.8967 649.577 Q61.7254 653.118 65.3365 653.118 Q68.9707 653.118 70.7763 649.577 Q72.605 646.012 72.605 638.906 Q72.605 631.776 70.7763 628.234 Q68.9707 624.669 65.3365 624.669 M65.3365 620.966 Q71.1467 620.966 74.2022 625.572 Q77.2809 630.156 77.2809 638.906 Q77.2809 647.632 74.2022 652.239 Q71.1467 656.822 65.3365 656.822 Q59.5264 656.822 56.4477 652.239 Q53.3921 647.632 53.3921 638.906 Q53.3921 630.156 56.4477 625.572 Q59.5264 620.966 65.3365 620.966 Z" fill="#000000" fill-rule="nonzero" fill-opacity="1" /><path clip-path="url(#clip490)" d="M85.4984 650.271 L90.3827 650.271 L90.3827 656.151 L85.4984 656.151 L85.4984 650.271 Z" fill="#000000" fill-rule="nonzero" fill-opacity="1" /><path clip-path="url(#clip490)" d="M101.378 652.216 L109.017 652.216 L109.017 625.85 L100.707 627.517 L100.707 623.257 L108.971 621.591 L113.646 621.591 L113.646 652.216 L121.285 652.216 L121.285 656.151 L101.378 656.151 L101.378 652.216 Z" fill="#000000" fill-rule="nonzero" fill-opacity="1" /><path clip-path="url(#clip490)" d="M140.73 624.669 Q137.119 624.669 135.29 628.234 Q133.484 631.776 133.484 638.906 Q133.484 646.012 135.29 649.577 Q137.119 653.118 140.73 653.118 Q144.364 653.118 146.169 649.577 Q147.998 646.012 147.998 638.906 Q147.998 631.776 146.169 628.234 Q144.364 624.669 140.73 624.669 M140.73 620.966 Q146.54 620.966 149.595 625.572 Q152.674 630.156 152.674 638.906 Q152.674 647.632 149.595 652.239 Q146.54 656.822 140.73 656.822 Q134.919 656.822 131.841 652.239 Q128.785 647.632 128.785 638.906 Q128.785 630.156 131.841 625.572 Q134.919 620.966 140.73 620.966 Z" fill="#000000" fill-rule="nonzero" fill-opacity="1" /><path clip-path="url(#clip490)" d="M66.3319 316.845 Q62.7208 316.845 60.8921 320.41 Q59.0865 323.951 59.0865 331.081 Q59.0865 338.187 60.8921 341.752 Q62.7208 345.294 66.3319 345.294 Q69.9661 345.294 71.7717 341.752 Q73.6004 338.187 73.6004 331.081 Q73.6004 323.951 71.7717 320.41 Q69.9661 316.845 66.3319 316.845 M66.3319 313.141 Q72.142 313.141 75.1976 317.748 Q78.2763 322.331 78.2763 331.081 Q78.2763 339.808 75.1976 344.414 Q72.142 348.998 66.3319 348.998 Q60.5217 348.998 57.443 344.414 Q54.3875 339.808 54.3875 331.081 Q54.3875 322.331 57.443 317.748 Q60.5217 313.141 66.3319 313.141 Z" fill="#000000" fill-rule="nonzero" fill-opacity="1" /><path clip-path="url(#clip490)" d="M86.4938 342.447 L91.378 342.447 L91.378 348.326 L86.4938 348.326 L86.4938 342.447 Z" fill="#000000" fill-rule="nonzero" fill-opacity="1" /><path clip-path="url(#clip490)" d="M102.373 344.391 L110.012 344.391 L110.012 318.026 L101.702 319.692 L101.702 315.433 L109.966 313.766 L114.642 313.766 L114.642 344.391 L122.281 344.391 L122.281 348.326 L102.373 348.326 L102.373 344.391 Z" fill="#000000" fill-rule="nonzero" fill-opacity="1" /><path clip-path="url(#clip490)" d="M131.771 313.766 L150.128 313.766 L150.128 317.701 L136.054 317.701 L136.054 326.174 Q137.072 325.826 138.091 325.664 Q139.109 325.479 140.128 325.479 Q145.915 325.479 149.294 328.65 Q152.674 331.822 152.674 337.238 Q152.674 342.817 149.202 345.919 Q145.73 348.998 139.41 348.998 Q137.234 348.998 134.966 348.627 Q132.72 348.257 130.313 347.516 L130.313 342.817 Q132.396 343.951 134.619 344.507 Q136.841 345.062 139.318 345.062 Q143.322 345.062 145.66 342.956 Q147.998 340.849 147.998 337.238 Q147.998 333.627 145.66 331.521 Q143.322 329.414 139.318 329.414 Q137.443 329.414 135.568 329.831 Q133.716 330.248 131.771 331.127 L131.771 313.766 Z" fill="#000000" fill-rule="nonzero" fill-opacity="1" /><path clip-path="url(#clip492)" d="M249.125 1254.52 L249.125 1254.52 L316.777 1254.52 L316.777 1254.52 L249.125 1254.52 L249.125 1254.52  Z" fill="#009af9" fill-rule="evenodd" fill-opacity="1"/>
<polyline clip-path="url(#clip492)" style="stroke:#000000; stroke-linecap:round; stroke-linejoin:round; stroke-width:4; stroke-opacity:1; fill:none" points="249.125,1254.52 249.125,1254.52 316.777,1254.52 249.125,1254.52 "/>
<path clip-path="url(#clip492)" d="M316.777 1254.52 L316.777 1254.52 L384.428 1254.52 L384.428 1254.52 L316.777 1254.52 L316.777 1254.52  Z" fill="#009af9" fill-rule="evenodd" fill-opacity="1"/>
<polyline clip-path="url(#clip492)" style="stroke:#000000; stroke-linecap:round; stroke-linejoin:round; stroke-width:4; stroke-opacity:1; fill:none" points="316.777,1254.52 316.777,1254.52 384.428,1254.52 316.777,1254.52 "/>
<path clip-path="url(#clip492)" d="M384.428 1239.12 L384.428 1254.52 L452.079 1254.52 L452.079 1239.12 L384.428 1239.12 L384.428 1239.12  Z" fill="#009af9" fill-rule="evenodd" fill-opacity="1"/>
<polyline clip-path="url(#clip492)" style="stroke:#000000; stroke-linecap:round; stroke-linejoin:round; stroke-width:4; stroke-opacity:1; fill:none" points="384.428,1239.12 384.428,1254.52 452.079,1254.52 452.079,1239.12 384.428,1239.12 "/>
<path clip-path="url(#clip492)" d="M452.079 1042.01 L452.079 1254.52 L519.73 1254.52 L519.73 1042.01 L452.079 1042.01 L452.079 1042.01  Z" fill="#009af9" fill-rule="evenodd" fill-opacity="1"/>
<polyline clip-path="url(#clip492)" style="stroke:#000000; stroke-linecap:round; stroke-linejoin:round; stroke-width:4; stroke-opacity:1; fill:none" points="452.079,1042.01 452.079,1254.52 519.73,1254.52 519.73,1042.01 452.079,1042.01 "/>
<path clip-path="url(#clip492)" d="M519.73 669.361 L519.73 1254.52 L587.382 1254.52 L587.382 669.361 L519.73 669.361 L519.73 669.361  Z" fill="#009af9" fill-rule="evenodd" fill-opacity="1"/>
<polyline clip-path="url(#clip492)" style="stroke:#000000; stroke-linecap:round; stroke-linejoin:round; stroke-width:4; stroke-opacity:1; fill:none" points="519.73,669.361 519.73,1254.52 587.382,1254.52 587.382,669.361 519.73,669.361 "/>
<path clip-path="url(#clip492)" d="M587.382 247.43 L587.382 1254.52 L655.033 1254.52 L655.033 247.43 L587.382 247.43 L587.382 247.43  Z" fill="#009af9" fill-rule="evenodd" fill-opacity="1"/>
<polyline clip-path="url(#clip492)" style="stroke:#000000; stroke-linecap:round; stroke-linejoin:round; stroke-width:4; stroke-opacity:1; fill:none" points="587.382,247.43 587.382,1254.52 655.033,1254.52 655.033,247.43 587.382,247.43 "/>
<path clip-path="url(#clip492)" d="M655.033 47.2441 L655.033 1254.52 L722.684 1254.52 L722.684 47.2441 L655.033 47.2441 L655.033 47.2441  Z" fill="#009af9" fill-rule="evenodd" fill-opacity="1"/>
<polyline clip-path="url(#clip492)" style="stroke:#000000; stroke-linecap:round; stroke-linejoin:round; stroke-width:4; stroke-opacity:1; fill:none" points="655.033,47.2441 655.033,1254.52 722.684,1254.52 722.684,47.2441 655.033,47.2441 "/>
<path clip-path="url(#clip492)" d="M722.684 361.382 L722.684 1254.52 L790.335 1254.52 L790.335 361.382 L722.684 361.382 L722.684 361.382  Z" fill="#009af9" fill-rule="evenodd" fill-opacity="1"/>
<polyline clip-path="url(#clip492)" style="stroke:#000000; stroke-linecap:round; stroke-linejoin:round; stroke-width:4; stroke-opacity:1; fill:none" points="722.684,361.382 722.684,1254.52 790.335,1254.52 790.335,361.382 722.684,361.382 "/>
<path clip-path="url(#clip492)" d="M790.335 373.701 L790.335 1254.52 L857.987 1254.52 L857.987 373.701 L790.335 373.701 L790.335 373.701  Z" fill="#009af9" fill-rule="evenodd" fill-opacity="1"/>
<polyline clip-path="url(#clip492)" style="stroke:#000000; stroke-linecap:round; stroke-linejoin:round; stroke-width:4; stroke-opacity:1; fill:none" points="790.335,373.701 790.335,1254.52 857.987,1254.52 857.987,373.701 790.335,373.701 "/>
<path clip-path="url(#clip492)" d="M857.987 675.52 L857.987 1254.52 L925.638 1254.52 L925.638 675.52 L857.987 675.52 L857.987 675.52  Z" fill="#009af9" fill-rule="evenodd" fill-opacity="1"/>
<polyline clip-path="url(#clip492)" style="stroke:#000000; stroke-linecap:round; stroke-linejoin:round; stroke-width:4; stroke-opacity:1; fill:none" points="857.987,675.52 857.987,1254.52 925.638,1254.52 925.638,675.52 857.987,675.52 "/>
<path clip-path="url(#clip492)" d="M925.638 900.345 L925.638 1254.52 L993.289 1254.52 L993.289 900.345 L925.638 900.345 L925.638 900.345  Z" fill="#009af9" fill-rule="evenodd" fill-opacity="1"/>
<polyline clip-path="url(#clip492)" style="stroke:#000000; stroke-linecap:round; stroke-linejoin:round; stroke-width:4; stroke-opacity:1; fill:none" points="925.638,900.345 925.638,1254.52 993.289,1254.52 993.289,900.345 925.638,900.345 "/>
<path clip-path="url(#clip492)" d="M993.289 1029.7 L993.289 1254.52 L1060.94 1254.52 L1060.94 1029.7 L993.289 1029.7 L993.289 1029.7  Z" fill="#009af9" fill-rule="evenodd" fill-opacity="1"/>
<polyline clip-path="url(#clip492)" style="stroke:#000000; stroke-linecap:round; stroke-linejoin:round; stroke-width:4; stroke-opacity:1; fill:none" points="993.289,1029.7 993.289,1254.52 1060.94,1254.52 1060.94,1029.7 993.289,1029.7 "/>
<path clip-path="url(#clip492)" d="M1060.94 1192.92 L1060.94 1254.52 L1128.59 1254.52 L1128.59 1192.92 L1060.94 1192.92 L1060.94 1192.92  Z" fill="#009af9" fill-rule="evenodd" fill-opacity="1"/>
<polyline clip-path="url(#clip492)" style="stroke:#000000; stroke-linecap:round; stroke-linejoin:round; stroke-width:4; stroke-opacity:1; fill:none" points="1060.94,1192.92 1060.94,1254.52 1128.59,1254.52 1128.59,1192.92 1060.94,1192.92 "/>
<path clip-path="url(#clip492)" d="M1128.59 1192.92 L1128.59 1254.52 L1196.24 1254.52 L1196.24 1192.92 L1128.59 1192.92 L1128.59 1192.92  Z" fill="#009af9" fill-rule="evenodd" fill-opacity="1"/>
<polyline clip-path="url(#clip492)" style="stroke:#000000; stroke-linecap:round; stroke-linejoin:round; stroke-width:4; stroke-opacity:1; fill:none" points="1128.59,1192.92 1128.59,1254.52 1196.24,1254.52 1196.24,1192.92 1128.59,1192.92 "/>
<path clip-path="url(#clip492)" d="M1196.24 1229.88 L1196.24 1254.52 L1263.89 1254.52 L1263.89 1229.88 L1196.24 1229.88 L1196.24 1229.88  Z" fill="#009af9" fill-rule="evenodd" fill-opacity="1"/>
<polyline clip-path="url(#clip492)" style="stroke:#000000; stroke-linecap:round; stroke-linejoin:round; stroke-width:4; stroke-opacity:1; fill:none" points="1196.24,1229.88 1196.24,1254.52 1263.89,1254.52 1263.89,1229.88 1196.24,1229.88 "/>
<path clip-path="url(#clip492)" d="M1263.89 1232.96 L1263.89 1254.52 L1331.55 1254.52 L1331.55 1232.96 L1263.89 1232.96 L1263.89 1232.96  Z" fill="#009af9" fill-rule="evenodd" fill-opacity="1"/>
<polyline clip-path="url(#clip492)" style="stroke:#000000; stroke-linecap:round; stroke-linejoin:round; stroke-width:4; stroke-opacity:1; fill:none" points="1263.89,1232.96 1263.89,1254.52 1331.55,1254.52 1331.55,1232.96 1263.89,1232.96 "/>
<path clip-path="url(#clip492)" d="M1331.55 1248.36 L1331.55 1254.52 L1399.2 1254.52 L1399.2 1248.36 L1331.55 1248.36 L1331.55 1248.36  Z" fill="#009af9" fill-rule="evenodd" fill-opacity="1"/>
<polyline clip-path="url(#clip492)" style="stroke:#000000; stroke-linecap:round; stroke-linejoin:round; stroke-width:4; stroke-opacity:1; fill:none" points="1331.55,1248.36 1331.55,1254.52 1399.2,1254.52 1399.2,1248.36 1331.55,1248.36 "/>
<path clip-path="url(#clip492)" d="M1399.2 1242.2 L1399.2 1254.52 L1466.85 1254.52 L1466.85 1242.2 L1399.2 1242.2 L1399.2 1242.2  Z" fill="#009af9" fill-rule="evenodd" fill-opacity="1"/>
<polyline clip-path="url(#clip492)" style="stroke:#000000; stroke-linecap:round; stroke-linejoin:round; stroke-width:4; stroke-opacity:1; fill:none" points="1399.2,1242.2 1399.2,1254.52 1466.85,1254.52 1466.85,1242.2 1399.2,1242.2 "/>
<path clip-path="url(#clip492)" d="M1466.85 1248.36 L1466.85 1254.52 L1534.5 1254.52 L1534.5 1248.36 L1466.85 1248.36 L1466.85 1248.36  Z" fill="#009af9" fill-rule="evenodd" fill-opacity="1"/>
<polyline clip-path="url(#clip492)" style="stroke:#000000; stroke-linecap:round; stroke-linejoin:round; stroke-width:4; stroke-opacity:1; fill:none" points="1466.85,1248.36 1466.85,1254.52 1534.5,1254.52 1534.5,1248.36 1466.85,1248.36 "/>
<path clip-path="url(#clip492)" d="M1534.5 1251.44 L1534.5 1254.52 L1602.15 1254.52 L1602.15 1251.44 L1534.5 1251.44 L1534.5 1251.44  Z" fill="#009af9" fill-rule="evenodd" fill-opacity="1"/>
<polyline clip-path="url(#clip492)" style="stroke:#000000; stroke-linecap:round; stroke-linejoin:round; stroke-width:4; stroke-opacity:1; fill:none" points="1534.5,1251.44 1534.5,1254.52 1602.15,1254.52 1602.15,1251.44 1534.5,1251.44 "/>
<path clip-path="url(#clip492)" d="M1602.15 1254.52 L1602.15 1254.52 L1669.8 1254.52 L1669.8 1254.52 L1602.15 1254.52 L1602.15 1254.52  Z" fill="#009af9" fill-rule="evenodd" fill-opacity="1"/>
<polyline clip-path="url(#clip492)" style="stroke:#000000; stroke-linecap:round; stroke-linejoin:round; stroke-width:4; stroke-opacity:1; fill:none" points="1602.15,1254.52 1602.15,1254.52 1669.8,1254.52 1602.15,1254.52 "/>
<circle clip-path="url(#clip492)" style="fill:#009af9; stroke:none; fill-opacity:0" cx="282.951" cy="1254.52" r="2"/>
<circle clip-path="url(#clip492)" style="fill:#009af9; stroke:none; fill-opacity:0" cx="350.602" cy="1254.52" r="2"/>
<circle clip-path="url(#clip492)" style="fill:#009af9; stroke:none; fill-opacity:0" cx="418.253" cy="1239.12" r="2"/>
<circle clip-path="url(#clip492)" style="fill:#009af9; stroke:none; fill-opacity:0" cx="485.905" cy="1042.01" r="2"/>
<circle clip-path="url(#clip492)" style="fill:#009af9; stroke:none; fill-opacity:0" cx="553.556" cy="669.361" r="2"/>
<circle clip-path="url(#clip492)" style="fill:#009af9; stroke:none; fill-opacity:0" cx="621.207" cy="247.43" r="2"/>
<circle clip-path="url(#clip492)" style="fill:#009af9; stroke:none; fill-opacity:0" cx="688.859" cy="47.2441" r="2"/>
<circle clip-path="url(#clip492)" style="fill:#009af9; stroke:none; fill-opacity:0" cx="756.51" cy="361.382" r="2"/>
<circle clip-path="url(#clip492)" style="fill:#009af9; stroke:none; fill-opacity:0" cx="824.161" cy="373.701" r="2"/>
<circle clip-path="url(#clip492)" style="fill:#009af9; stroke:none; fill-opacity:0" cx="891.812" cy="675.52" r="2"/>
<circle clip-path="url(#clip492)" style="fill:#009af9; stroke:none; fill-opacity:0" cx="959.464" cy="900.345" r="2"/>
<circle clip-path="url(#clip492)" style="fill:#009af9; stroke:none; fill-opacity:0" cx="1027.11" cy="1029.7" r="2"/>
<circle clip-path="url(#clip492)" style="fill:#009af9; stroke:none; fill-opacity:0" cx="1094.77" cy="1192.92" r="2"/>
<circle clip-path="url(#clip492)" style="fill:#009af9; stroke:none; fill-opacity:0" cx="1162.42" cy="1192.92" r="2"/>
<circle clip-path="url(#clip492)" style="fill:#009af9; stroke:none; fill-opacity:0" cx="1230.07" cy="1229.88" r="2"/>
<circle clip-path="url(#clip492)" style="fill:#009af9; stroke:none; fill-opacity:0" cx="1297.72" cy="1232.96" r="2"/>
<circle clip-path="url(#clip492)" style="fill:#009af9; stroke:none; fill-opacity:0" cx="1365.37" cy="1248.36" r="2"/>
<circle clip-path="url(#clip492)" style="fill:#009af9; stroke:none; fill-opacity:0" cx="1433.02" cy="1242.2" r="2"/>
<circle clip-path="url(#clip492)" style="fill:#009af9; stroke:none; fill-opacity:0" cx="1500.67" cy="1248.36" r="2"/>
<circle clip-path="url(#clip492)" style="fill:#009af9; stroke:none; fill-opacity:0" cx="1568.33" cy="1251.44" r="2"/>
<circle clip-path="url(#clip492)" style="fill:#009af9; stroke:none; fill-opacity:0" cx="1635.98" cy="1254.52" r="2"/>
</svg>
