<?xml version="1.0" encoding="utf-8"?>
<svg xmlns="http://www.w3.org/2000/svg" xmlns:xlink="http://www.w3.org/1999/xlink" width="480" height="360" viewBox="0 0 1920 1440">
<defs>
  <clipPath id="clip570">
    <rect x="0" y="0" width="1920" height="1440"/>
  </clipPath>
</defs>
<path clip-path="url(#clip570)" d="M0 1440 L1920 1440 L1920 0 L0 0  Z" fill="#ffffff" fill-rule="evenodd" fill-opacity="1"/>
<defs>
  <clipPath id="clip571">
    <rect x="384" y="0" width="1345" height="1345"/>
  </clipPath>
</defs>
<path clip-path="url(#clip570)" d="M151.312 1254.52 L1872.76 1254.52 L1872.76 47.2441 L151.312 47.2441  Z" fill="#ffffff" fill-rule="evenodd" fill-opacity="1"/>
<defs>
  <clipPath id="clip572">
    <rect x="151" y="47" width="1722" height="1208"/>
  </clipPath>
</defs>
<polyline clip-path="url(#clip572)" style="stroke:#000000; stroke-linecap:round; stroke-linejoin:round; stroke-width:2; stroke-opacity:0.1; fill:none" points="151.312,1254.52 151.312,47.2441 "/>
<polyline clip-path="url(#clip572)" style="stroke:#000000; stroke-linecap:round; stroke-linejoin:round; stroke-width:2; stroke-opacity:0.1; fill:none" points="581.673,1254.52 581.673,47.2441 "/>
<polyline clip-path="url(#clip572)" style="stroke:#000000; stroke-linecap:round; stroke-linejoin:round; stroke-width:2; stroke-opacity:0.1; fill:none" points="1012.03,1254.52 1012.03,47.2441 "/>
<polyline clip-path="url(#clip572)" style="stroke:#000000; stroke-linecap:round; stroke-linejoin:round; stroke-width:2; stroke-opacity:0.1; fill:none" points="1442.39,1254.52 1442.39,47.2441 "/>
<polyline clip-path="url(#clip572)" style="stroke:#000000; stroke-linecap:round; stroke-linejoin:round; stroke-width:2; stroke-opacity:0.1; fill:none" points="1872.76,1254.52 1872.76,47.2441 "/>
<polyline clip-path="url(#clip572)" style="stroke:#000000; stroke-linecap:round; stroke-linejoin:round; stroke-width:2; stroke-opacity:0.1; fill:none" points="151.312,1254.52 1872.76,1254.52 "/>
<polyline clip-path="url(#clip572)" style="stroke:#000000; stroke-linecap:round; stroke-linejoin:round; stroke-width:2; stroke-opacity:0.1; fill:none" points="151.312,1046.37 1872.76,1046.37 "/>
<polyline clip-path="url(#clip572)" style="stroke:#000000; stroke-linecap:round; stroke-linejoin:round; stroke-width:2; stroke-opacity:0.1; fill:none" points="151.312,838.218 1872.76,838.218 "/>
<polyline clip-path="url(#clip572)" style="stroke:#000000; stroke-linecap:round; stroke-linejoin:round; stroke-width:2; stroke-opacity:0.1; fill:none" points="151.312,630.067 1872.76,630.067 "/>
<polyline clip-path="url(#clip572)" style="stroke:#000000; stroke-linecap:round; stroke-linejoin:round; stroke-width:2; stroke-opacity:0.1; fill:none" points="151.312,421.916 1872.76,421.916 "/>
<polyline clip-path="url(#clip572)" style="stroke:#000000; stroke-linecap:round; stroke-linejoin:round; stroke-width:2; stroke-opacity:0.1; fill:none" points="151.312,213.765 1872.76,213.765 "/>
<polyline clip-path="url(#clip570)" style="stroke:#000000; stroke-linecap:round; stroke-linejoin:round; stroke-width:4; stroke-opacity:1; fill:none" points="151.312,1254.52 1872.76,1254.52 "/>
<polyline clip-path="url(#clip570)" style="stroke:#000000; stroke-linecap:round; stroke-linejoin:round; stroke-width:4; stroke-opacity:1; fill:none" points="151.312,1254.52 151.312,1235.62 "/>
<polyline clip-path="url(#clip570)" style="stroke:#000000; stroke-linecap:round; stroke-linejoin:round; stroke-width:4; stroke-opacity:1; fill:none" points="581.673,1254.52 581.673,1235.62 "/>
<polyline clip-path="url(#clip570)" style="stroke:#000000; stroke-linecap:round; stroke-linejoin:round; stroke-width:4; stroke-opacity:1; fill:none" points="1012.03,1254.52 1012.03,1235.62 "/>
<polyline clip-path="url(#clip570)" style="stroke:#000000; stroke-linecap:round; stroke-linejoin:round; stroke-width:4; stroke-opacity:1; fill:none" points="1442.39,1254.52 1442.39,1235.62 "/>
<polyline clip-path="url(#clip570)" style="stroke:#000000; stroke-linecap:round; stroke-linejoin:round; stroke-width:4; stroke-opacity:1; fill:none" points="1872.76,1254.52 1872.76,1235.62 "/>
<path clip-path="url(#clip570)" d="M128.697 1281.6 Q125.085 1281.6 123.257 1285.16 Q121.451 1288.7 121.451 1295.83 Q121.451 1302.94 123.257 1306.51 Q125.085 1310.05 128.697 1310.05 Q132.331 1310.05 134.136 1306.51 Q135.965 1302.94 135.965 1295.83 Q135.965 1288.7 134.136 1285.16 Q132.331 1281.6 128.697 1281.6 M128.697 1277.89 Q134.507 1277.89 137.562 1282.5 Q140.641 1287.08 140.641 1295.83 Q140.641 1304.56 137.562 1309.17 Q134.507 1313.75 128.697 1313.75 Q122.886 1313.75 119.808 1309.17 Q116.752 1304.56 116.752 1295.83 Q116.752 1287.08 119.808 1282.5 Q122.886 1277.89 128.697 1277.89 Z" fill="#000000" fill-rule="nonzero" fill-opacity="1" /><path clip-path="url(#clip570)" d="M148.858 1307.2 L153.743 1307.2 L153.743 1313.08 L148.858 1313.08 L148.858 1307.2 Z" fill="#000000" fill-rule="nonzero" fill-opacity="1" /><path clip-path="url(#clip570)" d="M173.928 1281.6 Q170.317 1281.6 168.488 1285.16 Q166.682 1288.7 166.682 1295.83 Q166.682 1302.94 168.488 1306.51 Q170.317 1310.05 173.928 1310.05 Q177.562 1310.05 179.368 1306.51 Q181.196 1302.94 181.196 1295.83 Q181.196 1288.7 179.368 1285.16 Q177.562 1281.6 173.928 1281.6 M173.928 1277.89 Q179.738 1277.89 182.793 1282.5 Q185.872 1287.08 185.872 1295.83 Q185.872 1304.56 182.793 1309.17 Q179.738 1313.75 173.928 1313.75 Q168.118 1313.75 165.039 1309.17 Q161.983 1304.56 161.983 1295.83 Q161.983 1287.08 165.039 1282.5 Q168.118 1277.89 173.928 1277.89 Z" fill="#000000" fill-rule="nonzero" fill-opacity="1" /><path clip-path="url(#clip570)" d="M559.555 1281.6 Q555.944 1281.6 554.115 1285.16 Q552.31 1288.7 552.31 1295.83 Q552.31 1302.94 554.115 1306.51 Q555.944 1310.05 559.555 1310.05 Q563.189 1310.05 564.995 1306.51 Q566.824 1302.94 566.824 1295.83 Q566.824 1288.7 564.995 1285.16 Q563.189 1281.6 559.555 1281.6 M559.555 1277.89 Q565.365 1277.89 568.421 1282.5 Q571.5 1287.08 571.5 1295.83 Q571.5 1304.56 568.421 1309.17 Q565.365 1313.75 559.555 1313.75 Q553.745 1313.75 550.666 1309.17 Q547.611 1304.56 547.611 1295.83 Q547.611 1287.08 550.666 1282.5 Q553.745 1277.89 559.555 1277.89 Z" fill="#000000" fill-rule="nonzero" fill-opacity="1" /><path clip-path="url(#clip570)" d="M579.717 1307.2 L584.601 1307.2 L584.601 1313.08 L579.717 1313.08 L579.717 1307.2 Z" fill="#000000" fill-rule="nonzero" fill-opacity="1" /><path clip-path="url(#clip570)" d="M594.833 1278.52 L613.189 1278.52 L613.189 1282.46 L599.115 1282.46 L599.115 1290.93 Q600.134 1290.58 601.152 1290.42 Q602.171 1290.23 603.189 1290.23 Q608.976 1290.23 612.356 1293.4 Q615.735 1296.58 615.735 1301.99 Q615.735 1307.57 612.263 1310.67 Q608.791 1313.75 602.472 1313.75 Q600.296 1313.75 598.027 1313.38 Q595.782 1313.01 593.374 1312.27 L593.374 1307.57 Q595.458 1308.7 597.68 1309.26 Q599.902 1309.82 602.379 1309.82 Q606.384 1309.82 608.722 1307.71 Q611.059 1305.6 611.059 1301.99 Q611.059 1298.38 608.722 1296.27 Q606.384 1294.17 602.379 1294.17 Q600.504 1294.17 598.629 1294.58 Q596.777 1295 594.833 1295.88 L594.833 1278.52 Z" fill="#000000" fill-rule="nonzero" fill-opacity="1" /><path clip-path="url(#clip570)" d="M979.187 1309.14 L986.826 1309.14 L986.826 1282.78 L978.516 1284.45 L978.516 1280.19 L986.78 1278.52 L991.455 1278.52 L991.455 1309.14 L999.094 1309.14 L999.094 1313.08 L979.187 1313.08 L979.187 1309.14 Z" fill="#000000" fill-rule="nonzero" fill-opacity="1" /><path clip-path="url(#clip570)" d="M1008.54 1307.2 L1013.42 1307.2 L1013.42 1313.08 L1008.54 1313.08 L1008.54 1307.2 Z" fill="#000000" fill-rule="nonzero" fill-opacity="1" /><path clip-path="url(#clip570)" d="M1033.61 1281.6 Q1030 1281.6 1028.17 1285.16 Q1026.36 1288.7 1026.36 1295.83 Q1026.36 1302.94 1028.17 1306.51 Q1030 1310.05 1033.61 1310.05 Q1037.24 1310.05 1039.05 1306.51 Q1040.88 1302.94 1040.88 1295.83 Q1040.88 1288.7 1039.05 1285.16 Q1037.24 1281.6 1033.61 1281.6 M1033.61 1277.89 Q1039.42 1277.89 1042.47 1282.5 Q1045.55 1287.08 1045.55 1295.83 Q1045.55 1304.56 1042.47 1309.17 Q1039.42 1313.75 1033.61 1313.75 Q1027.8 1313.75 1024.72 1309.17 Q1021.66 1304.56 1021.66 1295.83 Q1021.66 1287.08 1024.72 1282.5 Q1027.8 1277.89 1033.61 1277.89 Z" fill="#000000" fill-rule="nonzero" fill-opacity="1" /><path clip-path="url(#clip570)" d="M1410.05 1309.14 L1417.68 1309.14 L1417.68 1282.78 L1409.37 1284.45 L1409.37 1280.19 L1417.64 1278.52 L1422.31 1278.52 L1422.31 1309.14 L1429.95 1309.14 L1429.95 1313.08 L1410.05 1313.08 L1410.05 1309.14 Z" fill="#000000" fill-rule="nonzero" fill-opacity="1" /><path clip-path="url(#clip570)" d="M1439.4 1307.2 L1444.28 1307.2 L1444.28 1313.08 L1439.4 1313.08 L1439.4 1307.2 Z" fill="#000000" fill-rule="nonzero" fill-opacity="1" /><path clip-path="url(#clip570)" d="M1454.51 1278.52 L1472.87 1278.52 L1472.87 1282.46 L1458.8 1282.46 L1458.8 1290.93 Q1459.81 1290.58 1460.83 1290.42 Q1461.85 1290.23 1462.87 1290.23 Q1468.66 1290.23 1472.04 1293.4 Q1475.42 1296.58 1475.42 1301.99 Q1475.42 1307.57 1471.94 1310.67 Q1468.47 1313.75 1462.15 1313.75 Q1459.98 1313.75 1457.71 1313.38 Q1455.46 1313.01 1453.05 1312.27 L1453.05 1307.57 Q1455.14 1308.7 1457.36 1309.26 Q1459.58 1309.82 1462.06 1309.82 Q1466.06 1309.82 1468.4 1307.71 Q1470.74 1305.6 1470.74 1301.99 Q1470.74 1298.38 1468.4 1296.27 Q1466.06 1294.17 1462.06 1294.17 Q1460.18 1294.17 1458.31 1294.58 Q1456.46 1295 1454.51 1295.88 L1454.51 1278.52 Z" fill="#000000" fill-rule="nonzero" fill-opacity="1" /><path clip-path="url(#clip570)" d="M1843.99 1309.14 L1860.31 1309.14 L1860.31 1313.08 L1838.37 1313.08 L1838.37 1309.14 Q1841.03 1306.39 1845.61 1301.76 Q1850.22 1297.11 1851.4 1295.77 Q1853.65 1293.24 1854.53 1291.51 Q1855.43 1289.75 1855.43 1288.06 Q1855.43 1285.3 1853.49 1283.57 Q1851.56 1281.83 1848.46 1281.83 Q1846.26 1281.83 1843.81 1282.59 Q1841.38 1283.36 1838.6 1284.91 L1838.6 1280.19 Q1841.43 1279.05 1843.88 1278.47 Q1846.33 1277.89 1848.37 1277.89 Q1853.74 1277.89 1856.93 1280.58 Q1860.13 1283.27 1860.13 1287.76 Q1860.13 1289.89 1859.32 1291.81 Q1858.53 1293.7 1856.42 1296.3 Q1855.85 1296.97 1852.74 1300.19 Q1849.64 1303.38 1843.99 1309.14 Z" fill="#000000" fill-rule="nonzero" fill-opacity="1" /><path clip-path="url(#clip570)" d="M1870.13 1307.2 L1875.01 1307.2 L1875.01 1313.08 L1870.13 1313.08 L1870.13 1307.2 Z" fill="#000000" fill-rule="nonzero" fill-opacity="1" /><path clip-path="url(#clip570)" d="M1895.2 1281.6 Q1891.59 1281.6 1889.76 1285.16 Q1887.95 1288.7 1887.95 1295.83 Q1887.95 1302.94 1889.76 1306.51 Q1891.59 1310.05 1895.2 1310.05 Q1898.83 1310.05 1900.64 1306.51 Q1902.47 1302.94 1902.47 1295.83 Q1902.47 1288.7 1900.64 1285.16 Q1898.83 1281.6 1895.2 1281.6 M1895.2 1277.89 Q1901.01 1277.89 1904.06 1282.5 Q1907.14 1287.08 1907.14 1295.83 Q1907.14 1304.56 1904.06 1309.17 Q1901.01 1313.75 1895.2 1313.75 Q1889.39 1313.75 1886.31 1309.17 Q1883.25 1304.56 1883.25 1295.83 Q1883.25 1287.08 1886.31 1282.5 Q1889.39 1277.89 1895.2 1277.89 Z" fill="#000000" fill-rule="nonzero" fill-opacity="1" /><path clip-path="url(#clip570)" d="M928.047 1380 L928.047 1377.97 Q931.558 1377.97 932.363 1377.56 Q933.168 1377.1 933.168 1374.98 L933.168 1340.68 Q933.168 1338.23 932.298 1337.62 Q931.461 1337.01 928.047 1337.01 L928.047 1334.95 L937.516 1334.24 L937.516 1374.98 Q937.516 1377.1 938.353 1377.56 Q939.19 1377.97 942.669 1377.97 L942.669 1380 Q941.864 1380 940.189 1379.94 Q938.514 1379.87 937.29 1379.84 Q936.067 1379.81 935.358 1379.81 Q934.585 1379.81 928.047 1380 Z" fill="#000000" fill-rule="nonzero" fill-opacity="1" /><path clip-path="url(#clip570)" d="M952.593 1376.46 Q948.245 1372.14 948.245 1365.9 Q948.245 1359.62 952.496 1355.04 Q956.779 1350.44 962.899 1350.44 Q968.889 1350.44 973.172 1355.01 Q977.488 1359.55 977.488 1365.9 Q977.488 1372.11 973.14 1376.43 Q968.824 1380.74 962.834 1380.74 Q956.973 1380.74 952.593 1376.46 M953.72 1365.35 Q953.72 1371.76 955.395 1374.66 Q957.971 1379.07 962.899 1379.07 Q965.346 1379.07 967.375 1377.75 Q969.436 1376.43 970.564 1374.21 Q972.013 1371.31 972.013 1365.35 Q972.013 1359 970.274 1356.2 Q967.697 1351.92 962.834 1351.92 Q960.709 1351.92 958.615 1353.05 Q956.554 1354.14 955.298 1356.33 Q953.72 1359.23 953.72 1365.35 Z" fill="#000000" fill-rule="nonzero" fill-opacity="1" /><path clip-path="url(#clip570)" d="M978.531 1385.22 Q978.531 1383.09 980.142 1381.26 Q981.784 1379.42 984.618 1378.62 Q981.72 1376.78 981.72 1372.76 Q981.72 1369.67 983.749 1367.28 Q980.657 1364.71 980.657 1360.49 Q980.657 1356.59 983.749 1353.72 Q986.84 1350.86 991.349 1350.86 Q995.311 1350.86 998.338 1353.24 Q1001.49 1350.15 1005.33 1350.12 Q1007.03 1350.12 1007.84 1351.18 Q1008.68 1352.24 1008.68 1353.37 Q1008.68 1354.37 1008.03 1354.85 Q1007.42 1355.33 1006.78 1355.33 Q1005.97 1355.33 1005.39 1354.82 Q1004.84 1354.27 1004.84 1353.43 Q1004.84 1352.05 1005.91 1351.63 Q1005.71 1351.57 1005.26 1351.57 Q1002.04 1351.57 999.304 1354.14 Q1002.01 1356.65 1002.01 1360.55 Q1002.01 1364.45 998.918 1367.31 Q995.826 1370.18 991.349 1370.18 Q987.646 1370.18 984.811 1368.12 Q983.684 1369.44 983.684 1371.24 Q983.684 1372.89 984.683 1374.17 Q985.681 1375.46 987.195 1375.66 Q987.646 1375.72 992.122 1375.72 Q994.763 1375.72 996.212 1375.78 Q997.662 1375.85 999.723 1376.3 Q1001.82 1376.72 1003.46 1377.56 Q1007.74 1379.94 1007.77 1385.09 Q1007.77 1388.86 1003.43 1391.21 Q999.111 1393.59 993.121 1393.59 Q987.066 1393.59 982.783 1391.18 Q978.531 1388.8 978.531 1385.22 M981.977 1385.22 Q981.977 1387.93 985.166 1389.99 Q988.354 1392.08 993.185 1392.08 Q997.919 1392.08 1001.11 1390.02 Q1004.33 1387.99 1004.33 1385.22 Q1004.33 1383.26 1003.2 1382 Q1002.07 1380.74 999.755 1380.23 Q997.468 1379.75 995.858 1379.65 Q994.248 1379.55 991.285 1379.55 L987.388 1379.55 Q985.134 1379.68 983.555 1381.32 Q981.977 1382.97 981.977 1385.22 M985.584 1360.55 Q985.584 1368.67 991.349 1368.67 Q994.248 1368.67 996.019 1366.03 Q997.082 1364.25 997.082 1360.49 Q997.082 1352.37 991.349 1352.37 Q988.451 1352.37 986.647 1355.01 Q985.584 1356.78 985.584 1360.55 Z" fill="#000000" fill-rule="nonzero" fill-opacity="1" /><path clip-path="url(#clip570)" d="M1019.04 1363.51 Q1019.04 1352.37 1023.19 1343.39 Q1024.96 1339.62 1027.44 1336.46 Q1029.92 1333.3 1031.56 1331.92 Q1033.21 1330.53 1033.66 1330.53 Q1034.3 1330.53 1034.33 1331.18 Q1034.33 1331.5 1033.46 1332.31 Q1022.84 1343.13 1022.87 1363.51 Q1022.87 1383.96 1033.21 1394.37 Q1034.33 1395.49 1034.33 1395.85 Q1034.33 1396.49 1033.66 1396.49 Q1033.21 1396.49 1031.63 1395.17 Q1030.05 1393.85 1027.6 1390.82 Q1025.16 1387.8 1023.38 1384.09 Q1019.04 1375.11 1019.04 1363.51 Z" fill="#000000" fill-rule="nonzero" fill-opacity="1" /><path clip-path="url(#clip570)" d="M1073.03 1370.57 Q1072.23 1374.53 1070.59 1377.3 Q1068.56 1380.74 1065.47 1380.74 Q1062.86 1380.74 1061.12 1378.94 Q1059.38 1377.1 1059.38 1374.21 Q1059.38 1373.34 1059.73 1371.89 Q1059.86 1371.24 1059.86 1370.44 Q1059.86 1365.22 1048.56 1364.83 Q1047.62 1368.54 1046.98 1371.05 Q1046.37 1373.53 1046.17 1374.27 Q1045.98 1375.01 1045.82 1375.62 Q1045.69 1376.24 1045.47 1377.04 Q1045.14 1378.36 1044.92 1379 Q1044.69 1379.65 1044.08 1380.2 Q1043.5 1380.74 1042.57 1380.74 Q1041.76 1380.74 1041.21 1380.26 Q1040.67 1379.78 1040.67 1378.94 Q1040.67 1378.36 1040.92 1377.43 L1046.98 1353.24 Q1047.14 1352.56 1047.46 1352.08 Q1047.78 1351.6 1048.07 1351.37 Q1048.4 1351.15 1048.78 1351.02 Q1049.17 1350.89 1049.33 1350.89 Q1049.49 1350.86 1049.62 1350.86 Q1050.49 1350.86 1051 1351.34 Q1051.55 1351.79 1051.55 1352.63 Q1051.55 1352.76 1051.33 1353.66 Q1051.13 1354.53 1050.81 1355.85 Q1050.49 1357.17 1050.36 1357.78 L1049.04 1362.93 Q1050.88 1362.32 1052.52 1361.23 Q1054.19 1360.13 1057.48 1357.3 Q1058.99 1356.04 1059.89 1355.33 Q1060.83 1354.59 1062.37 1353.59 Q1063.92 1352.56 1065.4 1352.08 Q1066.88 1351.57 1068.3 1351.57 Q1069.39 1351.57 1070.04 1352.08 Q1070.68 1352.56 1070.81 1353.01 Q1070.94 1353.43 1070.94 1353.88 Q1070.94 1355.2 1069.91 1356.33 Q1068.88 1357.46 1067.37 1357.46 Q1066.01 1357.46 1065.43 1356.72 Q1064.85 1355.98 1064.85 1355.14 Q1064.85 1354.5 1065.18 1353.69 Q1063.37 1354.46 1061.83 1355.59 Q1060.28 1356.69 1057.61 1358.97 Q1053.81 1362.23 1051.55 1363.45 Q1052.84 1363.48 1053.81 1363.58 Q1054.81 1363.64 1056.48 1363.87 Q1058.15 1364.09 1059.38 1364.58 Q1060.6 1365.03 1061.79 1365.74 Q1063.02 1366.44 1063.66 1367.6 Q1064.34 1368.76 1064.34 1370.24 Q1064.34 1370.95 1064.02 1372.4 Q1063.47 1374.79 1063.47 1376.11 Q1063.47 1377.78 1063.98 1378.52 Q1064.53 1379.26 1065.59 1379.26 Q1067.62 1379.26 1068.91 1377.17 Q1070.23 1375.04 1071.33 1371.11 Q1071.49 1370.37 1071.65 1370.15 Q1071.81 1369.92 1072.26 1369.92 Q1073.03 1369.92 1073.03 1370.57 Z" fill="#000000" fill-rule="nonzero" fill-opacity="1" /><path clip-path="url(#clip570)" d="M1078.54 1395.85 Q1078.54 1395.53 1079.37 1394.72 Q1090 1383.9 1090 1363.51 Q1090 1343.06 1079.79 1332.72 Q1078.54 1331.53 1078.54 1331.18 Q1078.54 1330.53 1079.18 1330.53 Q1079.63 1330.53 1081.21 1331.86 Q1082.82 1333.18 1085.24 1336.2 Q1087.68 1339.23 1089.49 1342.93 Q1093.84 1351.92 1093.84 1363.51 Q1093.84 1374.66 1089.68 1383.64 Q1087.91 1387.41 1085.43 1390.57 Q1082.95 1393.72 1081.31 1395.11 Q1079.66 1396.49 1079.18 1396.49 Q1078.54 1396.49 1078.54 1395.85 Z" fill="#000000" fill-rule="nonzero" fill-opacity="1" /><polyline clip-path="url(#clip570)" style="stroke:#000000; stroke-linecap:round; stroke-linejoin:round; stroke-width:4; stroke-opacity:1; fill:none" points="151.312,1254.52 151.312,47.2441 "/>
<polyline clip-path="url(#clip570)" style="stroke:#000000; stroke-linecap:round; stroke-linejoin:round; stroke-width:4; stroke-opacity:1; fill:none" points="151.312,1254.52 170.21,1254.52 "/>
<polyline clip-path="url(#clip570)" style="stroke:#000000; stroke-linecap:round; stroke-linejoin:round; stroke-width:4; stroke-opacity:1; fill:none" points="151.312,1046.37 170.21,1046.37 "/>
<polyline clip-path="url(#clip570)" style="stroke:#000000; stroke-linecap:round; stroke-linejoin:round; stroke-width:4; stroke-opacity:1; fill:none" points="151.312,838.218 170.21,838.218 "/>
<polyline clip-path="url(#clip570)" style="stroke:#000000; stroke-linecap:round; stroke-linejoin:round; stroke-width:4; stroke-opacity:1; fill:none" points="151.312,630.067 170.21,630.067 "/>
<polyline clip-path="url(#clip570)" style="stroke:#000000; stroke-linecap:round; stroke-linejoin:round; stroke-width:4; stroke-opacity:1; fill:none" points="151.312,421.916 170.21,421.916 "/>
<polyline clip-path="url(#clip570)" style="stroke:#000000; stroke-linecap:round; stroke-linejoin:round; stroke-width:4; stroke-opacity:1; fill:none" points="151.312,213.765 170.21,213.765 "/>
<path clip-path="url(#clip570)" d="M65.3365 1240.32 Q61.7254 1240.32 59.8967 1243.88 Q58.0912 1247.42 58.0912 1254.55 Q58.0912 1261.66 59.8967 1265.23 Q61.7254 1268.77 65.3365 1268.77 Q68.9707 1268.77 70.7763 1265.23 Q72.605 1261.66 72.605 1254.55 Q72.605 1247.42 70.7763 1243.88 Q68.9707 1240.32 65.3365 1240.32 M65.3365 1236.61 Q71.1467 1236.61 74.2022 1241.22 Q77.2809 1245.8 77.2809 1254.55 Q77.2809 1263.28 74.2022 1267.89 Q71.1467 1272.47 65.3365 1272.47 Q59.5264 1272.47 56.4477 1267.89 Q53.3921 1263.28 53.3921 1254.55 Q53.3921 1245.8 56.4477 1241.22 Q59.5264 1236.61 65.3365 1236.61 Z" fill="#000000" fill-rule="nonzero" fill-opacity="1" /><path clip-path="url(#clip570)" d="M85.4984 1265.92 L90.3827 1265.92 L90.3827 1271.8 L85.4984 1271.8 L85.4984 1265.92 Z" fill="#000000" fill-rule="nonzero" fill-opacity="1" /><path clip-path="url(#clip570)" d="M110.568 1240.32 Q106.957 1240.32 105.128 1243.88 Q103.322 1247.42 103.322 1254.55 Q103.322 1261.66 105.128 1265.23 Q106.957 1268.77 110.568 1268.77 Q114.202 1268.77 116.008 1265.23 Q117.836 1261.66 117.836 1254.55 Q117.836 1247.42 116.008 1243.88 Q114.202 1240.32 110.568 1240.32 M110.568 1236.61 Q116.378 1236.61 119.433 1241.22 Q122.512 1245.8 122.512 1254.55 Q122.512 1263.28 119.433 1267.89 Q116.378 1272.47 110.568 1272.47 Q104.758 1272.47 101.679 1267.89 Q98.6234 1263.28 98.6234 1254.55 Q98.6234 1245.8 101.679 1241.22 Q104.758 1236.61 110.568 1236.61 Z" fill="#000000" fill-rule="nonzero" fill-opacity="1" /><path clip-path="url(#clip570)" d="M66.3319 1032.17 Q62.7208 1032.17 60.8921 1035.73 Q59.0865 1039.27 59.0865 1046.4 Q59.0865 1053.51 60.8921 1057.07 Q62.7208 1060.62 66.3319 1060.62 Q69.9661 1060.62 71.7717 1057.07 Q73.6004 1053.51 73.6004 1046.4 Q73.6004 1039.27 71.7717 1035.73 Q69.9661 1032.17 66.3319 1032.17 M66.3319 1028.46 Q72.142 1028.46 75.1976 1033.07 Q78.2763 1037.65 78.2763 1046.4 Q78.2763 1055.13 75.1976 1059.74 Q72.142 1064.32 66.3319 1064.32 Q60.5217 1064.32 57.443 1059.74 Q54.3875 1055.13 54.3875 1046.4 Q54.3875 1037.65 57.443 1033.07 Q60.5217 1028.46 66.3319 1028.46 Z" fill="#000000" fill-rule="nonzero" fill-opacity="1" /><path clip-path="url(#clip570)" d="M86.4938 1057.77 L91.378 1057.77 L91.378 1063.65 L86.4938 1063.65 L86.4938 1057.77 Z" fill="#000000" fill-rule="nonzero" fill-opacity="1" /><path clip-path="url(#clip570)" d="M101.609 1029.09 L119.966 1029.09 L119.966 1033.02 L105.892 1033.02 L105.892 1041.5 Q106.91 1041.15 107.929 1040.99 Q108.947 1040.8 109.966 1040.8 Q115.753 1040.8 119.133 1043.97 Q122.512 1047.14 122.512 1052.56 Q122.512 1058.14 119.04 1061.24 Q115.568 1064.32 109.248 1064.32 Q107.072 1064.32 104.804 1063.95 Q102.559 1063.58 100.151 1062.84 L100.151 1058.14 Q102.234 1059.27 104.457 1059.83 Q106.679 1060.38 109.156 1060.38 Q113.16 1060.38 115.498 1058.28 Q117.836 1056.17 117.836 1052.56 Q117.836 1048.95 115.498 1046.84 Q113.16 1044.74 109.156 1044.74 Q107.281 1044.74 105.406 1045.15 Q103.554 1045.57 101.609 1046.45 L101.609 1029.09 Z" fill="#000000" fill-rule="nonzero" fill-opacity="1" /><path clip-path="url(#clip570)" d="M56.1467 851.563 L63.7856 851.563 L63.7856 825.197 L55.4754 826.864 L55.4754 822.605 L63.7393 820.938 L68.4152 820.938 L68.4152 851.563 L76.054 851.563 L76.054 855.498 L56.1467 855.498 L56.1467 851.563 Z" fill="#000000" fill-rule="nonzero" fill-opacity="1" /><path clip-path="url(#clip570)" d="M85.4984 849.618 L90.3827 849.618 L90.3827 855.498 L85.4984 855.498 L85.4984 849.618 Z" fill="#000000" fill-rule="nonzero" fill-opacity="1" /><path clip-path="url(#clip570)" d="M110.568 824.017 Q106.957 824.017 105.128 827.581 Q103.322 831.123 103.322 838.253 Q103.322 845.359 105.128 848.924 Q106.957 852.465 110.568 852.465 Q114.202 852.465 116.008 848.924 Q117.836 845.359 117.836 838.253 Q117.836 831.123 116.008 827.581 Q114.202 824.017 110.568 824.017 M110.568 820.313 Q116.378 820.313 119.433 824.919 Q122.512 829.503 122.512 838.253 Q122.512 846.979 119.433 851.586 Q116.378 856.169 110.568 856.169 Q104.758 856.169 101.679 851.586 Q98.6234 846.979 98.6234 838.253 Q98.6234 829.503 101.679 824.919 Q104.758 820.313 110.568 820.313 Z" fill="#000000" fill-rule="nonzero" fill-opacity="1" /><path clip-path="url(#clip570)" d="M57.1421 643.412 L64.781 643.412 L64.781 617.046 L56.4708 618.713 L56.4708 614.454 L64.7347 612.787 L69.4106 612.787 L69.4106 643.412 L77.0494 643.412 L77.0494 647.347 L57.1421 647.347 L57.1421 643.412 Z" fill="#000000" fill-rule="nonzero" fill-opacity="1" /><path clip-path="url(#clip570)" d="M86.4938 641.467 L91.378 641.467 L91.378 647.347 L86.4938 647.347 L86.4938 641.467 Z" fill="#000000" fill-rule="nonzero" fill-opacity="1" /><path clip-path="url(#clip570)" d="M101.609 612.787 L119.966 612.787 L119.966 616.722 L105.892 616.722 L105.892 625.194 Q106.91 624.847 107.929 624.685 Q108.947 624.5 109.966 624.5 Q115.753 624.5 119.133 627.671 Q122.512 630.842 122.512 636.259 Q122.512 641.838 119.04 644.939 Q115.568 648.018 109.248 648.018 Q107.072 648.018 104.804 647.648 Q102.559 647.277 100.151 646.537 L100.151 641.838 Q102.234 642.972 104.457 643.527 Q106.679 644.083 109.156 644.083 Q113.16 644.083 115.498 641.977 Q117.836 639.87 117.836 636.259 Q117.836 632.648 115.498 630.541 Q113.16 628.435 109.156 628.435 Q107.281 628.435 105.406 628.852 Q103.554 629.268 101.609 630.148 L101.609 612.787 Z" fill="#000000" fill-rule="nonzero" fill-opacity="1" /><path clip-path="url(#clip570)" d="M59.3643 435.261 L75.6837 435.261 L75.6837 439.196 L53.7393 439.196 L53.7393 435.261 Q56.4014 432.506 60.9847 427.876 Q65.5911 423.224 66.7717 421.881 Q69.017 419.358 69.8967 417.622 Q70.7994 415.863 70.7994 414.173 Q70.7994 411.418 68.855 409.682 Q66.9337 407.946 63.8319 407.946 Q61.6328 407.946 59.1791 408.71 Q56.7486 409.474 53.9708 411.025 L53.9708 406.303 Q56.7949 405.168 59.2486 404.59 Q61.7023 404.011 63.7393 404.011 Q69.1096 404.011 72.3041 406.696 Q75.4985 409.381 75.4985 413.872 Q75.4985 416.002 74.6883 417.923 Q73.9013 419.821 71.7948 422.414 Q71.2161 423.085 68.1143 426.302 Q65.0124 429.497 59.3643 435.261 Z" fill="#000000" fill-rule="nonzero" fill-opacity="1" /><path clip-path="url(#clip570)" d="M85.4984 433.316 L90.3827 433.316 L90.3827 439.196 L85.4984 439.196 L85.4984 433.316 Z" fill="#000000" fill-rule="nonzero" fill-opacity="1" /><path clip-path="url(#clip570)" d="M110.568 407.715 Q106.957 407.715 105.128 411.279 Q103.322 414.821 103.322 421.951 Q103.322 429.057 105.128 432.622 Q106.957 436.163 110.568 436.163 Q114.202 436.163 116.008 432.622 Q117.836 429.057 117.836 421.951 Q117.836 414.821 116.008 411.279 Q114.202 407.715 110.568 407.715 M110.568 404.011 Q116.378 404.011 119.433 408.617 Q122.512 413.201 122.512 421.951 Q122.512 430.677 119.433 435.284 Q116.378 439.867 110.568 439.867 Q104.758 439.867 101.679 435.284 Q98.6234 430.677 98.6234 421.951 Q98.6234 413.201 101.679 408.617 Q104.758 404.011 110.568 404.011 Z" fill="#000000" fill-rule="nonzero" fill-opacity="1" /><path clip-path="url(#clip570)" d="M60.3597 227.11 L76.679 227.11 L76.679 231.045 L54.7347 231.045 L54.7347 227.11 Q57.3967 224.355 61.98 219.726 Q66.5865 215.073 67.767 213.73 Q70.0124 211.207 70.892 209.471 Q71.7948 207.712 71.7948 206.022 Q71.7948 203.267 69.8504 201.531 Q67.9291 199.795 64.8272 199.795 Q62.6282 199.795 60.1745 200.559 Q57.744 201.323 54.9662 202.874 L54.9662 198.152 Q57.7903 197.017 60.2439 196.439 Q62.6976 195.86 64.7347 195.86 Q70.105 195.86 73.2994 198.545 Q76.4939 201.23 76.4939 205.721 Q76.4939 207.851 75.6837 209.772 Q74.8966 211.67 72.7902 214.263 Q72.2115 214.934 69.1096 218.151 Q66.0078 221.346 60.3597 227.11 Z" fill="#000000" fill-rule="nonzero" fill-opacity="1" /><path clip-path="url(#clip570)" d="M86.4938 225.165 L91.378 225.165 L91.378 231.045 L86.4938 231.045 L86.4938 225.165 Z" fill="#000000" fill-rule="nonzero" fill-opacity="1" /><path clip-path="url(#clip570)" d="M101.609 196.485 L119.966 196.485 L119.966 200.42 L105.892 200.42 L105.892 208.892 Q106.91 208.545 107.929 208.383 Q108.947 208.198 109.966 208.198 Q115.753 208.198 119.133 211.369 Q122.512 214.54 122.512 219.957 Q122.512 225.536 119.04 228.637 Q115.568 231.716 109.248 231.716 Q107.072 231.716 104.804 231.346 Q102.559 230.975 100.151 230.235 L100.151 225.536 Q102.234 226.67 104.457 227.225 Q106.679 227.781 109.156 227.781 Q113.16 227.781 115.498 225.675 Q117.836 223.568 117.836 219.957 Q117.836 216.346 115.498 214.239 Q113.16 212.133 109.156 212.133 Q107.281 212.133 105.406 212.55 Q103.554 212.966 101.609 213.846 L101.609 196.485 Z" fill="#000000" fill-rule="nonzero" fill-opacity="1" /><path clip-path="url(#clip572)" d="M237.384 1246.19 L237.384 1254.52 L280.42 1254.52 L280.42 1246.19 L237.384 1246.19 L237.384 1246.19  Z" fill="#009af9" fill-rule="evenodd" fill-opacity="1"/>
<polyline clip-path="url(#clip572)" style="stroke:#000000; stroke-linecap:round; stroke-linejoin:round; stroke-width:4; stroke-opacity:1; fill:none" points="237.384,1246.19 237.384,1254.52 280.42,1254.52 280.42,1246.19 237.384,1246.19 "/>
<path clip-path="url(#clip572)" d="M280.42 1246.19 L280.42 1254.52 L323.457 1254.52 L323.457 1246.19 L280.42 1246.19 L280.42 1246.19  Z" fill="#009af9" fill-rule="evenodd" fill-opacity="1"/>
<polyline clip-path="url(#clip572)" style="stroke:#000000; stroke-linecap:round; stroke-linejoin:round; stroke-width:4; stroke-opacity:1; fill:none" points="280.42,1246.19 280.42,1254.52 323.457,1254.52 323.457,1246.19 280.42,1246.19 "/>
<path clip-path="url(#clip572)" d="M323.457 1217.05 L323.457 1254.52 L366.493 1254.52 L366.493 1217.05 L323.457 1217.05 L323.457 1217.05  Z" fill="#009af9" fill-rule="evenodd" fill-opacity="1"/>
<polyline clip-path="url(#clip572)" style="stroke:#000000; stroke-linecap:round; stroke-linejoin:round; stroke-width:4; stroke-opacity:1; fill:none" points="323.457,1217.05 323.457,1254.52 366.493,1254.52 366.493,1217.05 323.457,1217.05 "/>
<path clip-path="url(#clip572)" d="M366.493 1150.44 L366.493 1254.52 L409.529 1254.52 L409.529 1150.44 L366.493 1150.44 L366.493 1150.44  Z" fill="#009af9" fill-rule="evenodd" fill-opacity="1"/>
<polyline clip-path="url(#clip572)" style="stroke:#000000; stroke-linecap:round; stroke-linejoin:round; stroke-width:4; stroke-opacity:1; fill:none" points="366.493,1150.44 366.493,1254.52 409.529,1254.52 409.529,1150.44 366.493,1150.44 "/>
<path clip-path="url(#clip572)" d="M409.529 1067.18 L409.529 1254.52 L452.565 1254.52 L452.565 1067.18 L409.529 1067.18 L409.529 1067.18  Z" fill="#009af9" fill-rule="evenodd" fill-opacity="1"/>
<polyline clip-path="url(#clip572)" style="stroke:#000000; stroke-linecap:round; stroke-linejoin:round; stroke-width:4; stroke-opacity:1; fill:none" points="409.529,1067.18 409.529,1254.52 452.565,1254.52 452.565,1067.18 409.529,1067.18 "/>
<path clip-path="url(#clip572)" d="M452.565 979.761 L452.565 1254.52 L495.601 1254.52 L495.601 979.761 L452.565 979.761 L452.565 979.761  Z" fill="#009af9" fill-rule="evenodd" fill-opacity="1"/>
<polyline clip-path="url(#clip572)" style="stroke:#000000; stroke-linecap:round; stroke-linejoin:round; stroke-width:4; stroke-opacity:1; fill:none" points="452.565,979.761 452.565,1254.52 495.601,1254.52 495.601,979.761 452.565,979.761 "/>
<path clip-path="url(#clip572)" d="M495.601 759.12 L495.601 1254.52 L538.637 1254.52 L538.637 759.12 L495.601 759.12 L495.601 759.12  Z" fill="#009af9" fill-rule="evenodd" fill-opacity="1"/>
<polyline clip-path="url(#clip572)" style="stroke:#000000; stroke-linecap:round; stroke-linejoin:round; stroke-width:4; stroke-opacity:1; fill:none" points="495.601,759.12 495.601,1254.52 538.637,1254.52 538.637,759.12 495.601,759.12 "/>
<path clip-path="url(#clip572)" d="M538.637 455.22 L538.637 1254.52 L581.673 1254.52 L581.673 455.22 L538.637 455.22 L538.637 455.22  Z" fill="#009af9" fill-rule="evenodd" fill-opacity="1"/>
<polyline clip-path="url(#clip572)" style="stroke:#000000; stroke-linecap:round; stroke-linejoin:round; stroke-width:4; stroke-opacity:1; fill:none" points="538.637,455.22 538.637,1254.52 581.673,1254.52 581.673,455.22 538.637,455.22 "/>
<path clip-path="url(#clip572)" d="M581.673 309.514 L581.673 1254.52 L624.709 1254.52 L624.709 309.514 L581.673 309.514 L581.673 309.514  Z" fill="#009af9" fill-rule="evenodd" fill-opacity="1"/>
<polyline clip-path="url(#clip572)" style="stroke:#000000; stroke-linecap:round; stroke-linejoin:round; stroke-width:4; stroke-opacity:1; fill:none" points="581.673,309.514 581.673,1254.52 624.709,1254.52 624.709,309.514 581.673,309.514 "/>
<path clip-path="url(#clip572)" d="M624.709 47.2441 L624.709 1254.52 L667.745 1254.52 L667.745 47.2441 L624.709 47.2441 L624.709 47.2441  Z" fill="#009af9" fill-rule="evenodd" fill-opacity="1"/>
<polyline clip-path="url(#clip572)" style="stroke:#000000; stroke-linecap:round; stroke-linejoin:round; stroke-width:4; stroke-opacity:1; fill:none" points="624.709,47.2441 624.709,1254.52 667.745,1254.52 667.745,47.2441 624.709,47.2441 "/>
<path clip-path="url(#clip572)" d="M667.745 226.254 L667.745 1254.52 L710.781 1254.52 L710.781 226.254 L667.745 226.254 L667.745 226.254  Z" fill="#009af9" fill-rule="evenodd" fill-opacity="1"/>
<polyline clip-path="url(#clip572)" style="stroke:#000000; stroke-linecap:round; stroke-linejoin:round; stroke-width:4; stroke-opacity:1; fill:none" points="667.745,226.254 667.745,1254.52 710.781,1254.52 710.781,226.254 667.745,226.254 "/>
<path clip-path="url(#clip572)" d="M710.781 355.308 L710.781 1254.52 L753.817 1254.52 L753.817 355.308 L710.781 355.308 L710.781 355.308  Z" fill="#009af9" fill-rule="evenodd" fill-opacity="1"/>
<polyline clip-path="url(#clip572)" style="stroke:#000000; stroke-linecap:round; stroke-linejoin:round; stroke-width:4; stroke-opacity:1; fill:none" points="710.781,355.308 710.781,1254.52 753.817,1254.52 753.817,355.308 710.781,355.308 "/>
<path clip-path="url(#clip572)" d="M753.817 471.872 L753.817 1254.52 L796.854 1254.52 L796.854 471.872 L753.817 471.872 L753.817 471.872  Z" fill="#009af9" fill-rule="evenodd" fill-opacity="1"/>
<polyline clip-path="url(#clip572)" style="stroke:#000000; stroke-linecap:round; stroke-linejoin:round; stroke-width:4; stroke-opacity:1; fill:none" points="753.817,471.872 753.817,1254.52 796.854,1254.52 796.854,471.872 753.817,471.872 "/>
<path clip-path="url(#clip572)" d="M796.854 692.512 L796.854 1254.52 L839.89 1254.52 L839.89 692.512 L796.854 692.512 L796.854 692.512  Z" fill="#009af9" fill-rule="evenodd" fill-opacity="1"/>
<polyline clip-path="url(#clip572)" style="stroke:#000000; stroke-linecap:round; stroke-linejoin:round; stroke-width:4; stroke-opacity:1; fill:none" points="796.854,692.512 796.854,1254.52 839.89,1254.52 839.89,692.512 796.854,692.512 "/>
<path clip-path="url(#clip572)" d="M839.89 863.196 L839.89 1254.52 L882.926 1254.52 L882.926 863.196 L839.89 863.196 L839.89 863.196  Z" fill="#009af9" fill-rule="evenodd" fill-opacity="1"/>
<polyline clip-path="url(#clip572)" style="stroke:#000000; stroke-linecap:round; stroke-linejoin:round; stroke-width:4; stroke-opacity:1; fill:none" points="839.89,863.196 839.89,1254.52 882.926,1254.52 882.926,863.196 839.89,863.196 "/>
<path clip-path="url(#clip572)" d="M882.926 1038.04 L882.926 1254.52 L925.962 1254.52 L925.962 1038.04 L882.926 1038.04 L882.926 1038.04  Z" fill="#009af9" fill-rule="evenodd" fill-opacity="1"/>
<polyline clip-path="url(#clip572)" style="stroke:#000000; stroke-linecap:round; stroke-linejoin:round; stroke-width:4; stroke-opacity:1; fill:none" points="882.926,1038.04 882.926,1254.52 925.962,1254.52 925.962,1038.04 882.926,1038.04 "/>
<path clip-path="url(#clip572)" d="M925.962 1175.42 L925.962 1254.52 L968.998 1254.52 L968.998 1175.42 L925.962 1175.42 L925.962 1175.42  Z" fill="#009af9" fill-rule="evenodd" fill-opacity="1"/>
<polyline clip-path="url(#clip572)" style="stroke:#000000; stroke-linecap:round; stroke-linejoin:round; stroke-width:4; stroke-opacity:1; fill:none" points="925.962,1175.42 925.962,1254.52 968.998,1254.52 968.998,1175.42 925.962,1175.42 "/>
<path clip-path="url(#clip572)" d="M968.998 1175.42 L968.998 1254.52 L1012.03 1254.52 L1012.03 1175.42 L968.998 1175.42 L968.998 1175.42  Z" fill="#009af9" fill-rule="evenodd" fill-opacity="1"/>
<polyline clip-path="url(#clip572)" style="stroke:#000000; stroke-linecap:round; stroke-linejoin:round; stroke-width:4; stroke-opacity:1; fill:none" points="968.998,1175.42 968.998,1254.52 1012.03,1254.52 1012.03,1175.42 968.998,1175.42 "/>
<path clip-path="url(#clip572)" d="M1012.03 1217.05 L1012.03 1254.52 L1055.07 1254.52 L1055.07 1217.05 L1012.03 1217.05 L1012.03 1217.05  Z" fill="#009af9" fill-rule="evenodd" fill-opacity="1"/>
<polyline clip-path="url(#clip572)" style="stroke:#000000; stroke-linecap:round; stroke-linejoin:round; stroke-width:4; stroke-opacity:1; fill:none" points="1012.03,1217.05 1012.03,1254.52 1055.07,1254.52 1055.07,1217.05 1012.03,1217.05 "/>
<path clip-path="url(#clip572)" d="M1055.07 1237.87 L1055.07 1254.52 L1098.11 1254.52 L1098.11 1237.87 L1055.07 1237.87 L1055.07 1237.87  Z" fill="#009af9" fill-rule="evenodd" fill-opacity="1"/>
<polyline clip-path="url(#clip572)" style="stroke:#000000; stroke-linecap:round; stroke-linejoin:round; stroke-width:4; stroke-opacity:1; fill:none" points="1055.07,1237.87 1055.07,1254.52 1098.11,1254.52 1098.11,1237.87 1055.07,1237.87 "/>
<path clip-path="url(#clip572)" d="M1098.11 1233.7 L1098.11 1254.52 L1141.14 1254.52 L1141.14 1233.7 L1098.11 1233.7 L1098.11 1233.7  Z" fill="#009af9" fill-rule="evenodd" fill-opacity="1"/>
<polyline clip-path="url(#clip572)" style="stroke:#000000; stroke-linecap:round; stroke-linejoin:round; stroke-width:4; stroke-opacity:1; fill:none" points="1098.11,1233.7 1098.11,1254.52 1141.14,1254.52 1141.14,1233.7 1098.11,1233.7 "/>
<path clip-path="url(#clip572)" d="M1141.14 1229.54 L1141.14 1254.52 L1184.18 1254.52 L1184.18 1229.54 L1141.14 1229.54 L1141.14 1229.54  Z" fill="#009af9" fill-rule="evenodd" fill-opacity="1"/>
<polyline clip-path="url(#clip572)" style="stroke:#000000; stroke-linecap:round; stroke-linejoin:round; stroke-width:4; stroke-opacity:1; fill:none" points="1141.14,1229.54 1141.14,1254.52 1184.18,1254.52 1184.18,1229.54 1141.14,1229.54 "/>
<path clip-path="url(#clip572)" d="M1184.18 1233.7 L1184.18 1254.52 L1227.21 1254.52 L1227.21 1233.7 L1184.18 1233.7 L1184.18 1233.7  Z" fill="#009af9" fill-rule="evenodd" fill-opacity="1"/>
<polyline clip-path="url(#clip572)" style="stroke:#000000; stroke-linecap:round; stroke-linejoin:round; stroke-width:4; stroke-opacity:1; fill:none" points="1184.18,1233.7 1184.18,1254.52 1227.21,1254.52 1227.21,1233.7 1184.18,1233.7 "/>
<path clip-path="url(#clip572)" d="M1227.21 1246.19 L1227.21 1254.52 L1270.25 1254.52 L1270.25 1246.19 L1227.21 1246.19 L1227.21 1246.19  Z" fill="#009af9" fill-rule="evenodd" fill-opacity="1"/>
<polyline clip-path="url(#clip572)" style="stroke:#000000; stroke-linecap:round; stroke-linejoin:round; stroke-width:4; stroke-opacity:1; fill:none" points="1227.21,1246.19 1227.21,1254.52 1270.25,1254.52 1270.25,1246.19 1227.21,1246.19 "/>
<path clip-path="url(#clip572)" d="M1270.25 1225.38 L1270.25 1254.52 L1313.29 1254.52 L1313.29 1225.38 L1270.25 1225.38 L1270.25 1225.38  Z" fill="#009af9" fill-rule="evenodd" fill-opacity="1"/>
<polyline clip-path="url(#clip572)" style="stroke:#000000; stroke-linecap:round; stroke-linejoin:round; stroke-width:4; stroke-opacity:1; fill:none" points="1270.25,1225.38 1270.25,1254.52 1313.29,1254.52 1313.29,1225.38 1270.25,1225.38 "/>
<path clip-path="url(#clip572)" d="M1313.29 1233.7 L1313.29 1254.52 L1356.32 1254.52 L1356.32 1233.7 L1313.29 1233.7 L1313.29 1233.7  Z" fill="#009af9" fill-rule="evenodd" fill-opacity="1"/>
<polyline clip-path="url(#clip572)" style="stroke:#000000; stroke-linecap:round; stroke-linejoin:round; stroke-width:4; stroke-opacity:1; fill:none" points="1313.29,1233.7 1313.29,1254.52 1356.32,1254.52 1356.32,1233.7 1313.29,1233.7 "/>
<path clip-path="url(#clip572)" d="M1356.32 1254.52 L1356.32 1254.52 L1399.36 1254.52 L1399.36 1254.52 L1356.32 1254.52 L1356.32 1254.52  Z" fill="#009af9" fill-rule="evenodd" fill-opacity="1"/>
<polyline clip-path="url(#clip572)" style="stroke:#000000; stroke-linecap:round; stroke-linejoin:round; stroke-width:4; stroke-opacity:1; fill:none" points="1356.32,1254.52 1356.32,1254.52 1399.36,1254.52 1356.32,1254.52 "/>
<path clip-path="url(#clip572)" d="M1399.36 1233.7 L1399.36 1254.52 L1442.39 1254.52 L1442.39 1233.7 L1399.36 1233.7 L1399.36 1233.7  Z" fill="#009af9" fill-rule="evenodd" fill-opacity="1"/>
<polyline clip-path="url(#clip572)" style="stroke:#000000; stroke-linecap:round; stroke-linejoin:round; stroke-width:4; stroke-opacity:1; fill:none" points="1399.36,1233.7 1399.36,1254.52 1442.39,1254.52 1442.39,1233.7 1399.36,1233.7 "/>
<path clip-path="url(#clip572)" d="M1442.39 1237.87 L1442.39 1254.52 L1485.43 1254.52 L1485.43 1237.87 L1442.39 1237.87 L1442.39 1237.87  Z" fill="#009af9" fill-rule="evenodd" fill-opacity="1"/>
<polyline clip-path="url(#clip572)" style="stroke:#000000; stroke-linecap:round; stroke-linejoin:round; stroke-width:4; stroke-opacity:1; fill:none" points="1442.39,1237.87 1442.39,1254.52 1485.43,1254.52 1485.43,1237.87 1442.39,1237.87 "/>
<path clip-path="url(#clip572)" d="M1485.43 1254.52 L1485.43 1254.52 L1528.47 1254.52 L1528.47 1254.52 L1485.43 1254.52 L1485.43 1254.52  Z" fill="#009af9" fill-rule="evenodd" fill-opacity="1"/>
<polyline clip-path="url(#clip572)" style="stroke:#000000; stroke-linecap:round; stroke-linejoin:round; stroke-width:4; stroke-opacity:1; fill:none" points="1485.43,1254.52 1485.43,1254.52 1528.47,1254.52 1485.43,1254.52 "/>
<path clip-path="url(#clip572)" d="M1528.47 1250.36 L1528.47 1254.52 L1571.5 1254.52 L1571.5 1250.36 L1528.47 1250.36 L1528.47 1250.36  Z" fill="#009af9" fill-rule="evenodd" fill-opacity="1"/>
<polyline clip-path="url(#clip572)" style="stroke:#000000; stroke-linecap:round; stroke-linejoin:round; stroke-width:4; stroke-opacity:1; fill:none" points="1528.47,1250.36 1528.47,1254.52 1571.5,1254.52 1571.5,1250.36 1528.47,1250.36 "/>
<circle clip-path="url(#clip572)" style="fill:#009af9; stroke:none; fill-opacity:0" cx="258.902" cy="1246.19" r="2"/>
<circle clip-path="url(#clip572)" style="fill:#009af9; stroke:none; fill-opacity:0" cx="301.938" cy="1246.19" r="2"/>
<circle clip-path="url(#clip572)" style="fill:#009af9; stroke:none; fill-opacity:0" cx="344.975" cy="1217.05" r="2"/>
<circle clip-path="url(#clip572)" style="fill:#009af9; stroke:none; fill-opacity:0" cx="388.011" cy="1150.44" r="2"/>
<circle clip-path="url(#clip572)" style="fill:#009af9; stroke:none; fill-opacity:0" cx="431.047" cy="1067.18" r="2"/>
<circle clip-path="url(#clip572)" style="fill:#009af9; stroke:none; fill-opacity:0" cx="474.083" cy="979.761" r="2"/>
<circle clip-path="url(#clip572)" style="fill:#009af9; stroke:none; fill-opacity:0" cx="517.119" cy="759.12" r="2"/>
<circle clip-path="url(#clip572)" style="fill:#009af9; stroke:none; fill-opacity:0" cx="560.155" cy="455.22" r="2"/>
<circle clip-path="url(#clip572)" style="fill:#009af9; stroke:none; fill-opacity:0" cx="603.191" cy="309.514" r="2"/>
<circle clip-path="url(#clip572)" style="fill:#009af9; stroke:none; fill-opacity:0" cx="646.227" cy="47.2441" r="2"/>
<circle clip-path="url(#clip572)" style="fill:#009af9; stroke:none; fill-opacity:0" cx="689.263" cy="226.254" r="2"/>
<circle clip-path="url(#clip572)" style="fill:#009af9; stroke:none; fill-opacity:0" cx="732.299" cy="355.308" r="2"/>
<circle clip-path="url(#clip572)" style="fill:#009af9; stroke:none; fill-opacity:0" cx="775.335" cy="471.872" r="2"/>
<circle clip-path="url(#clip572)" style="fill:#009af9; stroke:none; fill-opacity:0" cx="818.372" cy="692.512" r="2"/>
<circle clip-path="url(#clip572)" style="fill:#009af9; stroke:none; fill-opacity:0" cx="861.408" cy="863.196" r="2"/>
<circle clip-path="url(#clip572)" style="fill:#009af9; stroke:none; fill-opacity:0" cx="904.444" cy="1038.04" r="2"/>
<circle clip-path="url(#clip572)" style="fill:#009af9; stroke:none; fill-opacity:0" cx="947.48" cy="1175.42" r="2"/>
<circle clip-path="url(#clip572)" style="fill:#009af9; stroke:none; fill-opacity:0" cx="990.516" cy="1175.42" r="2"/>
<circle clip-path="url(#clip572)" style="fill:#009af9; stroke:none; fill-opacity:0" cx="1033.55" cy="1217.05" r="2"/>
<circle clip-path="url(#clip572)" style="fill:#009af9; stroke:none; fill-opacity:0" cx="1076.59" cy="1237.87" r="2"/>
<circle clip-path="url(#clip572)" style="fill:#009af9; stroke:none; fill-opacity:0" cx="1119.62" cy="1233.7" r="2"/>
<circle clip-path="url(#clip572)" style="fill:#009af9; stroke:none; fill-opacity:0" cx="1162.66" cy="1229.54" r="2"/>
<circle clip-path="url(#clip572)" style="fill:#009af9; stroke:none; fill-opacity:0" cx="1205.7" cy="1233.7" r="2"/>
<circle clip-path="url(#clip572)" style="fill:#009af9; stroke:none; fill-opacity:0" cx="1248.73" cy="1246.19" r="2"/>
<circle clip-path="url(#clip572)" style="fill:#009af9; stroke:none; fill-opacity:0" cx="1291.77" cy="1225.38" r="2"/>
<circle clip-path="url(#clip572)" style="fill:#009af9; stroke:none; fill-opacity:0" cx="1334.8" cy="1233.7" r="2"/>
<circle clip-path="url(#clip572)" style="fill:#009af9; stroke:none; fill-opacity:0" cx="1377.84" cy="1254.52" r="2"/>
<circle clip-path="url(#clip572)" style="fill:#009af9; stroke:none; fill-opacity:0" cx="1420.88" cy="1233.7" r="2"/>
<circle clip-path="url(#clip572)" style="fill:#009af9; stroke:none; fill-opacity:0" cx="1463.91" cy="1237.87" r="2"/>
<circle clip-path="url(#clip572)" style="fill:#009af9; stroke:none; fill-opacity:0" cx="1506.95" cy="1254.52" r="2"/>
<circle clip-path="url(#clip572)" style="fill:#009af9; stroke:none; fill-opacity:0" cx="1549.99" cy="1250.36" r="2"/>
<polyline clip-path="url(#clip572)" style="stroke:#e26f46; stroke-linecap:round; stroke-linejoin:round; stroke-width:8; stroke-opacity:1; fill:none" points="137.391,1254.52 144.942,1254.52 152.493,1254.51 160.044,1254.49 167.595,1254.44 175.146,1254.34 182.697,1254.16 190.248,1253.86 197.799,1253.38 205.35,1252.7 212.901,1251.82 220.452,1250.82 228.003,1249.8 235.554,1248.88 243.105,1248.16 250.656,1247.68 258.208,1247.37 265.759,1247.09 273.31,1246.66 280.861,1245.87 288.412,1244.57 295.963,1242.66 303.514,1240.11 311.065,1236.96 318.616,1233.26 326.167,1229.05 333.718,1224.25 341.269,1218.69 348.82,1212.07 356.371,1204.04 363.922,1194.34 371.473,1182.86 379.024,1169.69 386.575,1155.16 394.126,1139.8 401.677,1124.23 409.229,1109.09 416.78,1094.88 424.331,1081.8 431.882,1069.54 439.433,1057.21 446.984,1043.49 454.535,1026.94 462.086,1006.37 469.637,981.197 477.188,951.472 484.739,917.71 492.29,880.56 499.841,840.556 507.392,798.056 514.943,753.353 522.494,706.812 530.045,658.926 537.596,610.298 545.147,561.645 552.698,513.888 560.25,468.265 567.801,426.272 575.352,389.302 582.903,358.036 590.454,331.911 598.005,309.017 605.556,286.656 613.107,262.412 620.658,235.289 628.209,206.367 635.76,178.632 643.311,155.998 650.862,141.944 658.413,138.351 665.964,145.005 673.515,159.927 681.066,180.273 688.617,203.353 696.168,227.335 703.719,251.417 711.271,275.553 718.822,299.975 726.373,324.774 733.924,349.712 741.475,374.296 749.026,398.055 756.577,420.871 764.128,443.214 771.679,466.163 779.23,491.167 786.781,519.647 794.332,552.552 801.883,590.015 809.434,631.201 816.985,674.405 824.536,717.402 832.087,758.001 839.638,794.644 847.189,826.821 854.74,855.136 862.292,880.963 869.843,905.865 877.394,931.027 884.945,956.948 892.496,983.468 900.047,1010.03 907.598,1035.98 915.149,1060.77 922.7,1084.03 930.251,1105.44 937.802,1124.66 945.353,1141.36 952.904,1155.24 960.455,1166.16 968.006,1174.31 975.557,1180.18 983.108,1184.49 990.659,1188.05 998.21,1191.55 1005.76,1195.37 1013.31,1199.63 1020.86,1204.18 1028.41,1208.79 1035.97,1213.23 1043.52,1217.36 1051.07,1221.13 1058.62,1224.48 1066.17,1227.35 1073.72,1229.64 1081.27,1231.33 1088.82,1232.41 1096.37,1232.99 1103.93,1233.23 1111.48,1233.25 1119.03,1233.15 1126.58,1232.94 1134.13,1232.6 1141.68,1232.15 1149.23,1231.67 1156.78,1231.32 1164.33,1231.26 1171.88,1231.59 1179.44,1232.31 1186.99,1233.32 1194.54,1234.48 1202.09,1235.65 1209.64,1236.77 1217.19,1237.85 1224.74,1238.9 1232.29,1239.9 1239.84,1240.76 1247.4,1241.23 1254.95,1241.08 1262.5,1240.08 1270.05,1238.21 1277.6,1235.66 1285.15,1232.81 1292.7,1230.21 1300.25,1228.34 1307.8,1227.59 1315.35,1228.13 1322.91,1229.89 1330.46,1232.61 1338.01,1235.9 1345.56,1239.29 1353.11,1242.31 1360.66,1244.59 1368.21,1245.87 1375.76,1246.06 1383.31,1245.25 1390.87,1243.65 1398.42,1241.59 1405.97,1239.43 1413.52,1237.5 1421.07,1236.08 1428.62,1235.38 1436.17,1235.53 1443.72,1236.53 1451.27,1238.29 1458.82,1240.63 1466.38,1243.26 1473.93,1245.84 1481.48,1248.11 1489.03,1249.87 1496.58,1251.03 1504.13,1251.65 1511.68,1251.85 1519.23,1251.82 1526.78,1251.74 1534.33,1251.74 1541.89,1251.91 1549.44,1252.23 1556.99,1252.66 1564.54,1253.12 1572.09,1253.55 1579.64,1253.9 1587.19,1254.16 1594.74,1254.32 1602.29,1254.42 1609.85,1254.47 1617.4,1254.5 1624.95,1254.51 1632.5,1254.52 1640.05,1254.52 "/>
</svg>
