<?xml version="1.0" encoding="utf-8"?>
<svg xmlns="http://www.w3.org/2000/svg" xmlns:xlink="http://www.w3.org/1999/xlink" width="480" height="360" viewBox="0 0 1920 1440">
<defs>
  <clipPath id="clip530">
    <rect x="0" y="0" width="1920" height="1440"/>
  </clipPath>
</defs>
<path clip-path="url(#clip530)" d="M0 1440 L1920 1440 L1920 0 L0 0  Z" fill="#ffffff" fill-rule="evenodd" fill-opacity="1"/>
<defs>
  <clipPath id="clip531">
    <rect x="384" y="0" width="1345" height="1345"/>
  </clipPath>
</defs>
<path clip-path="url(#clip530)" d="M107.377 1254.52 L1872.76 1254.52 L1872.76 47.2441 L107.377 47.2441  Z" fill="#ffffff" fill-rule="evenodd" fill-opacity="1"/>
<defs>
  <clipPath id="clip532">
    <rect x="107" y="47" width="1766" height="1208"/>
  </clipPath>
</defs>
<polyline clip-path="url(#clip532)" style="stroke:#000000; stroke-linecap:round; stroke-linejoin:round; stroke-width:2; stroke-opacity:0.1; fill:none" points="107.377,1254.52 107.377,47.2441 "/>
<polyline clip-path="url(#clip532)" style="stroke:#000000; stroke-linecap:round; stroke-linejoin:round; stroke-width:2; stroke-opacity:0.1; fill:none" points="548.722,1254.52 548.722,47.2441 "/>
<polyline clip-path="url(#clip532)" style="stroke:#000000; stroke-linecap:round; stroke-linejoin:round; stroke-width:2; stroke-opacity:0.1; fill:none" points="990.067,1254.52 990.067,47.2441 "/>
<polyline clip-path="url(#clip532)" style="stroke:#000000; stroke-linecap:round; stroke-linejoin:round; stroke-width:2; stroke-opacity:0.1; fill:none" points="1431.41,1254.52 1431.41,47.2441 "/>
<polyline clip-path="url(#clip532)" style="stroke:#000000; stroke-linecap:round; stroke-linejoin:round; stroke-width:2; stroke-opacity:0.1; fill:none" points="1872.76,1254.52 1872.76,47.2441 "/>
<polyline clip-path="url(#clip532)" style="stroke:#000000; stroke-linecap:round; stroke-linejoin:round; stroke-width:2; stroke-opacity:0.1; fill:none" points="107.377,1254.52 1872.76,1254.52 "/>
<polyline clip-path="url(#clip532)" style="stroke:#000000; stroke-linecap:round; stroke-linejoin:round; stroke-width:2; stroke-opacity:0.1; fill:none" points="107.377,1014.27 1872.76,1014.27 "/>
<polyline clip-path="url(#clip532)" style="stroke:#000000; stroke-linecap:round; stroke-linejoin:round; stroke-width:2; stroke-opacity:0.1; fill:none" points="107.377,774.012 1872.76,774.012 "/>
<polyline clip-path="url(#clip532)" style="stroke:#000000; stroke-linecap:round; stroke-linejoin:round; stroke-width:2; stroke-opacity:0.1; fill:none" points="107.377,533.758 1872.76,533.758 "/>
<polyline clip-path="url(#clip532)" style="stroke:#000000; stroke-linecap:round; stroke-linejoin:round; stroke-width:2; stroke-opacity:0.1; fill:none" points="107.377,293.504 1872.76,293.504 "/>
<polyline clip-path="url(#clip532)" style="stroke:#000000; stroke-linecap:round; stroke-linejoin:round; stroke-width:2; stroke-opacity:0.1; fill:none" points="107.377,53.2504 1872.76,53.2504 "/>
<polyline clip-path="url(#clip530)" style="stroke:#000000; stroke-linecap:round; stroke-linejoin:round; stroke-width:4; stroke-opacity:1; fill:none" points="107.377,1254.52 1872.76,1254.52 "/>
<polyline clip-path="url(#clip530)" style="stroke:#000000; stroke-linecap:round; stroke-linejoin:round; stroke-width:4; stroke-opacity:1; fill:none" points="107.377,1254.52 107.377,1235.62 "/>
<polyline clip-path="url(#clip530)" style="stroke:#000000; stroke-linecap:round; stroke-linejoin:round; stroke-width:4; stroke-opacity:1; fill:none" points="548.722,1254.52 548.722,1235.62 "/>
<polyline clip-path="url(#clip530)" style="stroke:#000000; stroke-linecap:round; stroke-linejoin:round; stroke-width:4; stroke-opacity:1; fill:none" points="990.067,1254.52 990.067,1235.62 "/>
<polyline clip-path="url(#clip530)" style="stroke:#000000; stroke-linecap:round; stroke-linejoin:round; stroke-width:4; stroke-opacity:1; fill:none" points="1431.41,1254.52 1431.41,1235.62 "/>
<polyline clip-path="url(#clip530)" style="stroke:#000000; stroke-linecap:round; stroke-linejoin:round; stroke-width:4; stroke-opacity:1; fill:none" points="1872.76,1254.52 1872.76,1235.62 "/>
<path clip-path="url(#clip530)" d="M84.7616 1281.6 Q81.1505 1281.6 79.3218 1285.16 Q77.5162 1288.7 77.5162 1295.83 Q77.5162 1302.94 79.3218 1306.51 Q81.1505 1310.05 84.7616 1310.05 Q88.3958 1310.05 90.2013 1306.51 Q92.03 1302.94 92.03 1295.83 Q92.03 1288.7 90.2013 1285.16 Q88.3958 1281.6 84.7616 1281.6 M84.7616 1277.89 Q90.5717 1277.89 93.6272 1282.5 Q96.7059 1287.08 96.7059 1295.83 Q96.7059 1304.56 93.6272 1309.17 Q90.5717 1313.75 84.7616 1313.75 Q78.9514 1313.75 75.8727 1309.17 Q72.8172 1304.56 72.8172 1295.83 Q72.8172 1287.08 75.8727 1282.5 Q78.9514 1277.89 84.7616 1277.89 Z" fill="#000000" fill-rule="nonzero" fill-opacity="1" /><path clip-path="url(#clip530)" d="M104.923 1307.2 L109.808 1307.2 L109.808 1313.08 L104.923 1313.08 L104.923 1307.2 Z" fill="#000000" fill-rule="nonzero" fill-opacity="1" /><path clip-path="url(#clip530)" d="M129.993 1281.6 Q126.382 1281.6 124.553 1285.16 Q122.747 1288.7 122.747 1295.83 Q122.747 1302.94 124.553 1306.51 Q126.382 1310.05 129.993 1310.05 Q133.627 1310.05 135.433 1306.51 Q137.261 1302.94 137.261 1295.83 Q137.261 1288.7 135.433 1285.16 Q133.627 1281.6 129.993 1281.6 M129.993 1277.89 Q135.803 1277.89 138.858 1282.5 Q141.937 1287.08 141.937 1295.83 Q141.937 1304.56 138.858 1309.17 Q135.803 1313.75 129.993 1313.75 Q124.183 1313.75 121.104 1309.17 Q118.048 1304.56 118.048 1295.83 Q118.048 1287.08 121.104 1282.5 Q124.183 1277.89 129.993 1277.89 Z" fill="#000000" fill-rule="nonzero" fill-opacity="1" /><path clip-path="url(#clip530)" d="M526.905 1281.6 Q523.294 1281.6 521.465 1285.16 Q519.66 1288.7 519.66 1295.83 Q519.66 1302.94 521.465 1306.51 Q523.294 1310.05 526.905 1310.05 Q530.539 1310.05 532.345 1306.51 Q534.173 1302.94 534.173 1295.83 Q534.173 1288.7 532.345 1285.16 Q530.539 1281.6 526.905 1281.6 M526.905 1277.89 Q532.715 1277.89 535.771 1282.5 Q538.849 1287.08 538.849 1295.83 Q538.849 1304.56 535.771 1309.17 Q532.715 1313.75 526.905 1313.75 Q521.095 1313.75 518.016 1309.17 Q514.96 1304.56 514.96 1295.83 Q514.96 1287.08 518.016 1282.5 Q521.095 1277.89 526.905 1277.89 Z" fill="#000000" fill-rule="nonzero" fill-opacity="1" /><path clip-path="url(#clip530)" d="M547.067 1307.2 L551.951 1307.2 L551.951 1313.08 L547.067 1313.08 L547.067 1307.2 Z" fill="#000000" fill-rule="nonzero" fill-opacity="1" /><path clip-path="url(#clip530)" d="M566.164 1309.14 L582.483 1309.14 L582.483 1313.08 L560.539 1313.08 L560.539 1309.14 Q563.201 1306.39 567.784 1301.76 Q572.391 1297.11 573.571 1295.77 Q575.817 1293.24 576.696 1291.51 Q577.599 1289.75 577.599 1288.06 Q577.599 1285.3 575.655 1283.57 Q573.733 1281.83 570.631 1281.83 Q568.432 1281.83 565.979 1282.59 Q563.548 1283.36 560.77 1284.91 L560.77 1280.19 Q563.594 1279.05 566.048 1278.47 Q568.502 1277.89 570.539 1277.89 Q575.909 1277.89 579.104 1280.58 Q582.298 1283.27 582.298 1287.76 Q582.298 1289.89 581.488 1291.81 Q580.701 1293.7 578.594 1296.3 Q578.016 1296.97 574.914 1300.19 Q571.812 1303.38 566.164 1309.14 Z" fill="#000000" fill-rule="nonzero" fill-opacity="1" /><path clip-path="url(#clip530)" d="M967.208 1281.6 Q963.597 1281.6 961.768 1285.16 Q959.963 1288.7 959.963 1295.83 Q959.963 1302.94 961.768 1306.51 Q963.597 1310.05 967.208 1310.05 Q970.842 1310.05 972.648 1306.51 Q974.476 1302.94 974.476 1295.83 Q974.476 1288.7 972.648 1285.16 Q970.842 1281.6 967.208 1281.6 M967.208 1277.89 Q973.018 1277.89 976.074 1282.5 Q979.152 1287.08 979.152 1295.83 Q979.152 1304.56 976.074 1309.17 Q973.018 1313.75 967.208 1313.75 Q961.398 1313.75 958.319 1309.17 Q955.263 1304.56 955.263 1295.83 Q955.263 1287.08 958.319 1282.5 Q961.398 1277.89 967.208 1277.89 Z" fill="#000000" fill-rule="nonzero" fill-opacity="1" /><path clip-path="url(#clip530)" d="M987.37 1307.2 L992.254 1307.2 L992.254 1313.08 L987.37 1313.08 L987.37 1307.2 Z" fill="#000000" fill-rule="nonzero" fill-opacity="1" /><path clip-path="url(#clip530)" d="M1015.29 1282.59 L1003.48 1301.04 L1015.29 1301.04 L1015.29 1282.59 M1014.06 1278.52 L1019.94 1278.52 L1019.94 1301.04 L1024.87 1301.04 L1024.87 1304.93 L1019.94 1304.93 L1019.94 1313.08 L1015.29 1313.08 L1015.29 1304.93 L999.685 1304.93 L999.685 1300.42 L1014.06 1278.52 Z" fill="#000000" fill-rule="nonzero" fill-opacity="1" /><path clip-path="url(#clip530)" d="M1408.71 1281.6 Q1405.1 1281.6 1403.27 1285.16 Q1401.47 1288.7 1401.47 1295.83 Q1401.47 1302.94 1403.27 1306.51 Q1405.1 1310.05 1408.71 1310.05 Q1412.35 1310.05 1414.15 1306.51 Q1415.98 1302.94 1415.98 1295.83 Q1415.98 1288.7 1414.15 1285.16 Q1412.35 1281.6 1408.71 1281.6 M1408.71 1277.89 Q1414.52 1277.89 1417.58 1282.5 Q1420.66 1287.08 1420.66 1295.83 Q1420.66 1304.56 1417.58 1309.17 Q1414.52 1313.75 1408.71 1313.75 Q1402.9 1313.75 1399.83 1309.17 Q1396.77 1304.56 1396.77 1295.83 Q1396.77 1287.08 1399.83 1282.5 Q1402.9 1277.89 1408.71 1277.89 Z" fill="#000000" fill-rule="nonzero" fill-opacity="1" /><path clip-path="url(#clip530)" d="M1428.88 1307.2 L1433.76 1307.2 L1433.76 1313.08 L1428.88 1313.08 L1428.88 1307.2 Z" fill="#000000" fill-rule="nonzero" fill-opacity="1" /><path clip-path="url(#clip530)" d="M1454.52 1293.94 Q1451.38 1293.94 1449.52 1296.09 Q1447.7 1298.24 1447.7 1301.99 Q1447.7 1305.72 1449.52 1307.89 Q1451.38 1310.05 1454.52 1310.05 Q1457.67 1310.05 1459.5 1307.89 Q1461.35 1305.72 1461.35 1301.99 Q1461.35 1298.24 1459.5 1296.09 Q1457.67 1293.94 1454.52 1293.94 M1463.81 1279.28 L1463.81 1283.54 Q1462.05 1282.71 1460.24 1282.27 Q1458.46 1281.83 1456.7 1281.83 Q1452.07 1281.83 1449.62 1284.95 Q1447.19 1288.08 1446.84 1294.4 Q1448.21 1292.39 1450.27 1291.32 Q1452.33 1290.23 1454.8 1290.23 Q1460.01 1290.23 1463.02 1293.4 Q1466.05 1296.55 1466.05 1301.99 Q1466.05 1307.32 1462.9 1310.53 Q1459.76 1313.75 1454.52 1313.75 Q1448.53 1313.75 1445.36 1309.17 Q1442.19 1304.56 1442.19 1295.83 Q1442.19 1287.64 1446.08 1282.78 Q1449.96 1277.89 1456.52 1277.89 Q1458.27 1277.89 1460.06 1278.24 Q1461.86 1278.59 1463.81 1279.28 Z" fill="#000000" fill-rule="nonzero" fill-opacity="1" /><path clip-path="url(#clip530)" d="M1850.19 1281.6 Q1846.58 1281.6 1844.75 1285.16 Q1842.94 1288.7 1842.94 1295.83 Q1842.94 1302.94 1844.75 1306.51 Q1846.58 1310.05 1850.19 1310.05 Q1853.82 1310.05 1855.63 1306.51 Q1857.46 1302.94 1857.46 1295.83 Q1857.46 1288.7 1855.63 1285.16 Q1853.82 1281.6 1850.19 1281.6 M1850.19 1277.89 Q1856 1277.89 1859.05 1282.5 Q1862.13 1287.08 1862.13 1295.83 Q1862.13 1304.56 1859.05 1309.17 Q1856 1313.75 1850.19 1313.75 Q1844.38 1313.75 1841.3 1309.17 Q1838.24 1304.56 1838.24 1295.83 Q1838.24 1287.08 1841.3 1282.5 Q1844.38 1277.89 1850.19 1277.89 Z" fill="#000000" fill-rule="nonzero" fill-opacity="1" /><path clip-path="url(#clip530)" d="M1870.35 1307.2 L1875.23 1307.2 L1875.23 1313.08 L1870.35 1313.08 L1870.35 1307.2 Z" fill="#000000" fill-rule="nonzero" fill-opacity="1" /><path clip-path="url(#clip530)" d="M1895.42 1296.67 Q1892.08 1296.67 1890.16 1298.45 Q1888.27 1300.23 1888.27 1303.36 Q1888.27 1306.48 1890.16 1308.27 Q1892.08 1310.05 1895.42 1310.05 Q1898.75 1310.05 1900.67 1308.27 Q1902.59 1306.46 1902.59 1303.36 Q1902.59 1300.23 1900.67 1298.45 Q1898.77 1296.67 1895.42 1296.67 M1890.74 1294.68 Q1887.73 1293.94 1886.04 1291.88 Q1884.38 1289.82 1884.38 1286.85 Q1884.38 1282.71 1887.32 1280.3 Q1890.28 1277.89 1895.42 1277.89 Q1900.58 1277.89 1903.52 1280.3 Q1906.46 1282.71 1906.46 1286.85 Q1906.46 1289.82 1904.77 1291.88 Q1903.1 1293.94 1900.12 1294.68 Q1903.5 1295.46 1905.37 1297.76 Q1907.27 1300.05 1907.27 1303.36 Q1907.27 1308.38 1904.19 1311.07 Q1901.14 1313.75 1895.42 1313.75 Q1889.7 1313.75 1886.62 1311.07 Q1883.57 1308.38 1883.57 1303.36 Q1883.57 1300.05 1885.46 1297.76 Q1887.36 1295.46 1890.74 1294.68 M1889.03 1287.29 Q1889.03 1289.98 1890.7 1291.48 Q1892.39 1292.99 1895.42 1292.99 Q1898.43 1292.99 1900.12 1291.48 Q1901.83 1289.98 1901.83 1287.29 Q1901.83 1284.61 1900.12 1283.1 Q1898.43 1281.6 1895.42 1281.6 Q1892.39 1281.6 1890.7 1283.1 Q1889.03 1284.61 1889.03 1287.29 Z" fill="#000000" fill-rule="nonzero" fill-opacity="1" /><path clip-path="url(#clip530)" d="M1002 1353.36 Q1002 1358.77 1000.26 1364.85 Q998.556 1370.91 995.851 1375.8 Q993.146 1380.67 989.603 1383.89 Q986.06 1387.08 982.679 1387.08 Q980.521 1387.08 978.911 1385.88 Q977.332 1384.66 976.463 1382.63 Q975.593 1380.57 975.175 1378.32 Q974.756 1376.03 974.756 1373.55 Q974.756 1369.84 975.561 1365.82 Q976.366 1361.76 977.719 1358.09 Q979.072 1354.39 980.972 1351.04 Q982.872 1347.66 984.965 1345.21 Q987.091 1342.73 989.474 1341.28 Q991.857 1339.83 994.08 1339.83 Q995.69 1339.83 996.978 1340.54 Q998.298 1341.21 999.136 1342.41 Q999.973 1343.56 1000.55 1344.95 Q1001.16 1346.33 1001.45 1347.94 Q1001.74 1349.52 1001.87 1350.84 Q1002 1352.13 1002 1353.36 M997.654 1349.27 Q997.654 1347.62 997.526 1346.4 Q997.397 1345.14 997.042 1343.89 Q996.688 1342.63 995.915 1341.95 Q995.175 1341.28 994.015 1341.28 Q990.633 1341.28 986.833 1348.2 Q985.609 1350.36 984.514 1353.29 Q983.419 1356.22 983.033 1357.61 Q982.646 1358.99 981.745 1362.41 L995.529 1362.41 Q997.654 1353.61 997.654 1349.27 M994.949 1364.5 L981.229 1364.5 Q979.104 1372.55 979.104 1377.57 Q979.104 1381.95 980.006 1383.79 Q980.94 1385.59 982.679 1385.59 Q984.675 1385.59 986.543 1383.6 Q988.411 1381.57 990.311 1377.9 Q992.823 1373.13 994.949 1364.5 Z" fill="#000000" fill-rule="nonzero" fill-opacity="1" /><polyline clip-path="url(#clip530)" style="stroke:#000000; stroke-linecap:round; stroke-linejoin:round; stroke-width:4; stroke-opacity:1; fill:none" points="107.377,1254.52 107.377,47.2441 "/>
<polyline clip-path="url(#clip530)" style="stroke:#000000; stroke-linecap:round; stroke-linejoin:round; stroke-width:4; stroke-opacity:1; fill:none" points="107.377,1254.52 126.275,1254.52 "/>
<polyline clip-path="url(#clip530)" style="stroke:#000000; stroke-linecap:round; stroke-linejoin:round; stroke-width:4; stroke-opacity:1; fill:none" points="107.377,1014.27 126.275,1014.27 "/>
<polyline clip-path="url(#clip530)" style="stroke:#000000; stroke-linecap:round; stroke-linejoin:round; stroke-width:4; stroke-opacity:1; fill:none" points="107.377,774.012 126.275,774.012 "/>
<polyline clip-path="url(#clip530)" style="stroke:#000000; stroke-linecap:round; stroke-linejoin:round; stroke-width:4; stroke-opacity:1; fill:none" points="107.377,533.758 126.275,533.758 "/>
<polyline clip-path="url(#clip530)" style="stroke:#000000; stroke-linecap:round; stroke-linejoin:round; stroke-width:4; stroke-opacity:1; fill:none" points="107.377,293.504 126.275,293.504 "/>
<polyline clip-path="url(#clip530)" style="stroke:#000000; stroke-linecap:round; stroke-linejoin:round; stroke-width:4; stroke-opacity:1; fill:none" points="107.377,53.2504 126.275,53.2504 "/>
<path clip-path="url(#clip530)" d="M66.6328 1240.32 Q63.0217 1240.32 61.193 1243.88 Q59.3875 1247.42 59.3875 1254.55 Q59.3875 1261.66 61.193 1265.23 Q63.0217 1268.77 66.6328 1268.77 Q70.267 1268.77 72.0726 1265.23 Q73.9013 1261.66 73.9013 1254.55 Q73.9013 1247.42 72.0726 1243.88 Q70.267 1240.32 66.6328 1240.32 M66.6328 1236.61 Q72.4429 1236.61 75.4985 1241.22 Q78.5772 1245.8 78.5772 1254.55 Q78.5772 1263.28 75.4985 1267.89 Q72.4429 1272.47 66.6328 1272.47 Q60.8226 1272.47 57.744 1267.89 Q54.6884 1263.28 54.6884 1254.55 Q54.6884 1245.8 57.744 1241.22 Q60.8226 1236.61 66.6328 1236.61 Z" fill="#000000" fill-rule="nonzero" fill-opacity="1" /><path clip-path="url(#clip530)" d="M58.6699 1027.61 L66.3087 1027.61 L66.3087 1001.25 L57.9986 1002.91 L57.9986 998.653 L66.2624 996.986 L70.9383 996.986 L70.9383 1027.61 L78.5772 1027.61 L78.5772 1031.55 L58.6699 1031.55 L58.6699 1027.61 Z" fill="#000000" fill-rule="nonzero" fill-opacity="1" /><path clip-path="url(#clip530)" d="M62.2578 787.357 L78.5772 787.357 L78.5772 791.292 L56.6328 791.292 L56.6328 787.357 Q59.2949 784.602 63.8782 779.973 Q68.4846 775.32 69.6652 773.977 Q71.9105 771.454 72.7902 769.718 Q73.6929 767.959 73.6929 766.269 Q73.6929 763.514 71.7485 761.778 Q69.8272 760.042 66.7254 760.042 Q64.5263 760.042 62.0726 760.806 Q59.6421 761.57 56.8643 763.121 L56.8643 758.399 Q59.6884 757.264 62.1421 756.686 Q64.5958 756.107 66.6328 756.107 Q72.0031 756.107 75.1976 758.792 Q78.392 761.477 78.392 765.968 Q78.392 768.098 77.5818 770.019 Q76.7948 771.917 74.6883 774.51 Q74.1096 775.181 71.0078 778.399 Q67.9059 781.593 62.2578 787.357 Z" fill="#000000" fill-rule="nonzero" fill-opacity="1" /><path clip-path="url(#clip530)" d="M71.4476 532.404 Q74.804 533.122 76.679 535.39 Q78.5772 537.659 78.5772 540.992 Q78.5772 546.108 75.0587 548.909 Q71.5402 551.709 65.0587 551.709 Q62.8828 551.709 60.568 551.27 Q58.2764 550.853 55.8227 549.997 L55.8227 545.483 Q57.7671 546.617 60.0819 547.196 Q62.3967 547.774 64.9198 547.774 Q69.318 547.774 71.6096 546.038 Q73.9244 544.302 73.9244 540.992 Q73.9244 537.936 71.7717 536.223 Q69.642 534.487 65.8226 534.487 L61.7949 534.487 L61.7949 530.645 L66.0078 530.645 Q69.4569 530.645 71.2855 529.279 Q73.1142 527.89 73.1142 525.298 Q73.1142 522.636 71.2161 521.224 Q69.3411 519.788 65.8226 519.788 Q63.9013 519.788 61.7023 520.205 Q59.5032 520.622 56.8643 521.501 L56.8643 517.335 Q59.5264 516.594 61.8412 516.224 Q64.1791 515.853 66.2393 515.853 Q71.5633 515.853 74.6652 518.284 Q77.767 520.691 77.767 524.811 Q77.767 527.682 76.1235 529.673 Q74.48 531.64 71.4476 532.404 Z" fill="#000000" fill-rule="nonzero" fill-opacity="1" /><path clip-path="url(#clip530)" d="M68.9939 280.298 L57.1884 298.747 L68.9939 298.747 L68.9939 280.298 M67.767 276.224 L73.6466 276.224 L73.6466 298.747 L78.5772 298.747 L78.5772 302.636 L73.6466 302.636 L73.6466 310.784 L68.9939 310.784 L68.9939 302.636 L53.3921 302.636 L53.3921 298.122 L67.767 276.224 Z" fill="#000000" fill-rule="nonzero" fill-opacity="1" /><path clip-path="url(#clip530)" d="M57.6745 35.9704 L76.0309 35.9704 L76.0309 39.9056 L61.9569 39.9056 L61.9569 48.3778 Q62.9754 48.0306 63.9939 47.8685 Q65.0124 47.6833 66.0309 47.6833 Q71.818 47.6833 75.1976 50.8546 Q78.5772 54.0259 78.5772 59.4425 Q78.5772 65.0212 75.105 68.123 Q71.6328 71.2017 65.3134 71.2017 Q63.1374 71.2017 60.8689 70.8314 Q58.6236 70.461 56.2162 69.7203 L56.2162 65.0212 Q58.2995 66.1555 60.5217 66.711 Q62.7439 67.2666 65.2208 67.2666 Q69.2254 67.2666 71.5633 65.1601 Q73.9013 63.0536 73.9013 59.4425 Q73.9013 55.8314 71.5633 53.725 Q69.2254 51.6185 65.2208 51.6185 Q63.3458 51.6185 61.4708 52.0352 Q59.6189 52.4518 57.6745 53.3315 L57.6745 35.9704 Z" fill="#000000" fill-rule="nonzero" fill-opacity="1" /><path clip-path="url(#clip532)" d="M151.512 1224.49 L151.512 1254.52 L195.646 1254.52 L195.646 1224.49 L151.512 1224.49 L151.512 1224.49  Z" fill="#009af9" fill-rule="evenodd" fill-opacity="1"/>
<polyline clip-path="url(#clip532)" style="stroke:#000000; stroke-linecap:round; stroke-linejoin:round; stroke-width:4; stroke-opacity:1; fill:none" points="151.512,1224.49 151.512,1254.52 195.646,1254.52 195.646,1224.49 151.512,1224.49 "/>
<path clip-path="url(#clip532)" d="M195.646 1134.39 L195.646 1254.52 L239.781 1254.52 L239.781 1134.39 L195.646 1134.39 L195.646 1134.39  Z" fill="#009af9" fill-rule="evenodd" fill-opacity="1"/>
<polyline clip-path="url(#clip532)" style="stroke:#000000; stroke-linecap:round; stroke-linejoin:round; stroke-width:4; stroke-opacity:1; fill:none" points="195.646,1134.39 195.646,1254.52 239.781,1254.52 239.781,1134.39 195.646,1134.39 "/>
<path clip-path="url(#clip532)" d="M239.781 972.222 L239.781 1254.52 L283.915 1254.52 L283.915 972.222 L239.781 972.222 L239.781 972.222  Z" fill="#009af9" fill-rule="evenodd" fill-opacity="1"/>
<polyline clip-path="url(#clip532)" style="stroke:#000000; stroke-linecap:round; stroke-linejoin:round; stroke-width:4; stroke-opacity:1; fill:none" points="239.781,972.222 239.781,1254.52 283.915,1254.52 283.915,972.222 239.781,972.222 "/>
<path clip-path="url(#clip532)" d="M283.915 563.79 L283.915 1254.52 L328.05 1254.52 L328.05 563.79 L283.915 563.79 L283.915 563.79  Z" fill="#009af9" fill-rule="evenodd" fill-opacity="1"/>
<polyline clip-path="url(#clip532)" style="stroke:#000000; stroke-linecap:round; stroke-linejoin:round; stroke-width:4; stroke-opacity:1; fill:none" points="283.915,563.79 283.915,1254.52 328.05,1254.52 328.05,563.79 283.915,563.79 "/>
<path clip-path="url(#clip532)" d="M328.05 317.53 L328.05 1254.52 L372.184 1254.52 L372.184 317.53 L328.05 317.53 L328.05 317.53  Z" fill="#009af9" fill-rule="evenodd" fill-opacity="1"/>
<polyline clip-path="url(#clip532)" style="stroke:#000000; stroke-linecap:round; stroke-linejoin:round; stroke-width:4; stroke-opacity:1; fill:none" points="328.05,317.53 328.05,1254.52 372.184,1254.52 372.184,317.53 328.05,317.53 "/>
<path clip-path="url(#clip532)" d="M372.184 347.561 L372.184 1254.52 L416.318 1254.52 L416.318 347.561 L372.184 347.561 L372.184 347.561  Z" fill="#009af9" fill-rule="evenodd" fill-opacity="1"/>
<polyline clip-path="url(#clip532)" style="stroke:#000000; stroke-linecap:round; stroke-linejoin:round; stroke-width:4; stroke-opacity:1; fill:none" points="372.184,347.561 372.184,1254.52 416.318,1254.52 416.318,347.561 372.184,347.561 "/>
<path clip-path="url(#clip532)" d="M416.318 95.2949 L416.318 1254.52 L460.453 1254.52 L460.453 95.2949 L416.318 95.2949 L416.318 95.2949  Z" fill="#009af9" fill-rule="evenodd" fill-opacity="1"/>
<polyline clip-path="url(#clip532)" style="stroke:#000000; stroke-linecap:round; stroke-linejoin:round; stroke-width:4; stroke-opacity:1; fill:none" points="416.318,95.2949 416.318,1254.52 460.453,1254.52 460.453,95.2949 416.318,95.2949 "/>
<path clip-path="url(#clip532)" d="M460.453 47.2441 L460.453 1254.52 L504.587 1254.52 L504.587 47.2441 L460.453 47.2441 L460.453 47.2441  Z" fill="#009af9" fill-rule="evenodd" fill-opacity="1"/>
<polyline clip-path="url(#clip532)" style="stroke:#000000; stroke-linecap:round; stroke-linejoin:round; stroke-width:4; stroke-opacity:1; fill:none" points="460.453,47.2441 460.453,1254.52 504.587,1254.52 504.587,47.2441 460.453,47.2441 "/>
<path clip-path="url(#clip532)" d="M504.587 317.53 L504.587 1254.52 L548.722 1254.52 L548.722 317.53 L504.587 317.53 L504.587 317.53  Z" fill="#009af9" fill-rule="evenodd" fill-opacity="1"/>
<polyline clip-path="url(#clip532)" style="stroke:#000000; stroke-linecap:round; stroke-linejoin:round; stroke-width:4; stroke-opacity:1; fill:none" points="504.587,317.53 504.587,1254.52 548.722,1254.52 548.722,317.53 504.587,317.53 "/>
<path clip-path="url(#clip532)" d="M548.722 251.46 L548.722 1254.52 L592.856 1254.52 L592.856 251.46 L548.722 251.46 L548.722 251.46  Z" fill="#009af9" fill-rule="evenodd" fill-opacity="1"/>
<polyline clip-path="url(#clip532)" style="stroke:#000000; stroke-linecap:round; stroke-linejoin:round; stroke-width:4; stroke-opacity:1; fill:none" points="548.722,251.46 548.722,1254.52 592.856,1254.52 592.856,251.46 548.722,251.46 "/>
<path clip-path="url(#clip532)" d="M592.856 293.504 L592.856 1254.52 L636.991 1254.52 L636.991 293.504 L592.856 293.504 L592.856 293.504  Z" fill="#009af9" fill-rule="evenodd" fill-opacity="1"/>
<polyline clip-path="url(#clip532)" style="stroke:#000000; stroke-linecap:round; stroke-linejoin:round; stroke-width:4; stroke-opacity:1; fill:none" points="592.856,293.504 592.856,1254.52 636.991,1254.52 636.991,293.504 592.856,293.504 "/>
<path clip-path="url(#clip532)" d="M636.991 431.65 L636.991 1254.52 L681.125 1254.52 L681.125 431.65 L636.991 431.65 L636.991 431.65  Z" fill="#009af9" fill-rule="evenodd" fill-opacity="1"/>
<polyline clip-path="url(#clip532)" style="stroke:#000000; stroke-linecap:round; stroke-linejoin:round; stroke-width:4; stroke-opacity:1; fill:none" points="636.991,431.65 636.991,1254.52 681.125,1254.52 681.125,431.65 636.991,431.65 "/>
<path clip-path="url(#clip532)" d="M681.125 539.765 L681.125 1254.52 L725.26 1254.52 L725.26 539.765 L681.125 539.765 L681.125 539.765  Z" fill="#009af9" fill-rule="evenodd" fill-opacity="1"/>
<polyline clip-path="url(#clip532)" style="stroke:#000000; stroke-linecap:round; stroke-linejoin:round; stroke-width:4; stroke-opacity:1; fill:none" points="681.125,539.765 681.125,1254.52 725.26,1254.52 725.26,539.765 681.125,539.765 "/>
<path clip-path="url(#clip532)" d="M725.26 587.815 L725.26 1254.52 L769.394 1254.52 L769.394 587.815 L725.26 587.815 L725.26 587.815  Z" fill="#009af9" fill-rule="evenodd" fill-opacity="1"/>
<polyline clip-path="url(#clip532)" style="stroke:#000000; stroke-linecap:round; stroke-linejoin:round; stroke-width:4; stroke-opacity:1; fill:none" points="725.26,587.815 725.26,1254.52 769.394,1254.52 769.394,587.815 725.26,587.815 "/>
<path clip-path="url(#clip532)" d="M769.394 846.088 L769.394 1254.52 L813.529 1254.52 L813.529 846.088 L769.394 846.088 L769.394 846.088  Z" fill="#009af9" fill-rule="evenodd" fill-opacity="1"/>
<polyline clip-path="url(#clip532)" style="stroke:#000000; stroke-linecap:round; stroke-linejoin:round; stroke-width:4; stroke-opacity:1; fill:none" points="769.394,846.088 769.394,1254.52 813.529,1254.52 813.529,846.088 769.394,846.088 "/>
<path clip-path="url(#clip532)" d="M813.529 942.19 L813.529 1254.52 L857.663 1254.52 L857.663 942.19 L813.529 942.19 L813.529 942.19  Z" fill="#009af9" fill-rule="evenodd" fill-opacity="1"/>
<polyline clip-path="url(#clip532)" style="stroke:#000000; stroke-linecap:round; stroke-linejoin:round; stroke-width:4; stroke-opacity:1; fill:none" points="813.529,942.19 813.529,1254.52 857.663,1254.52 857.663,942.19 813.529,942.19 "/>
<path clip-path="url(#clip532)" d="M857.663 1026.28 L857.663 1254.52 L901.798 1254.52 L901.798 1026.28 L857.663 1026.28 L857.663 1026.28  Z" fill="#009af9" fill-rule="evenodd" fill-opacity="1"/>
<polyline clip-path="url(#clip532)" style="stroke:#000000; stroke-linecap:round; stroke-linejoin:round; stroke-width:4; stroke-opacity:1; fill:none" points="857.663,1026.28 857.663,1254.52 901.798,1254.52 901.798,1026.28 857.663,1026.28 "/>
<path clip-path="url(#clip532)" d="M901.798 1080.34 L901.798 1254.52 L945.932 1254.52 L945.932 1080.34 L901.798 1080.34 L901.798 1080.34  Z" fill="#009af9" fill-rule="evenodd" fill-opacity="1"/>
<polyline clip-path="url(#clip532)" style="stroke:#000000; stroke-linecap:round; stroke-linejoin:round; stroke-width:4; stroke-opacity:1; fill:none" points="901.798,1080.34 901.798,1254.52 945.932,1254.52 945.932,1080.34 901.798,1080.34 "/>
<path clip-path="url(#clip532)" d="M945.932 1128.39 L945.932 1254.52 L990.067 1254.52 L990.067 1128.39 L945.932 1128.39 L945.932 1128.39  Z" fill="#009af9" fill-rule="evenodd" fill-opacity="1"/>
<polyline clip-path="url(#clip532)" style="stroke:#000000; stroke-linecap:round; stroke-linejoin:round; stroke-width:4; stroke-opacity:1; fill:none" points="945.932,1128.39 945.932,1254.52 990.067,1254.52 990.067,1128.39 945.932,1128.39 "/>
<path clip-path="url(#clip532)" d="M990.067 1194.46 L990.067 1254.52 L1034.2 1254.52 L1034.2 1194.46 L990.067 1194.46 L990.067 1194.46  Z" fill="#009af9" fill-rule="evenodd" fill-opacity="1"/>
<polyline clip-path="url(#clip532)" style="stroke:#000000; stroke-linecap:round; stroke-linejoin:round; stroke-width:4; stroke-opacity:1; fill:none" points="990.067,1194.46 990.067,1254.52 1034.2,1254.52 1034.2,1194.46 990.067,1194.46 "/>
<path clip-path="url(#clip532)" d="M1034.2 1170.43 L1034.2 1254.52 L1078.34 1254.52 L1078.34 1170.43 L1034.2 1170.43 L1034.2 1170.43  Z" fill="#009af9" fill-rule="evenodd" fill-opacity="1"/>
<polyline clip-path="url(#clip532)" style="stroke:#000000; stroke-linecap:round; stroke-linejoin:round; stroke-width:4; stroke-opacity:1; fill:none" points="1034.2,1170.43 1034.2,1254.52 1078.34,1254.52 1078.34,1170.43 1034.2,1170.43 "/>
<path clip-path="url(#clip532)" d="M1078.34 1218.48 L1078.34 1254.52 L1122.47 1254.52 L1122.47 1218.48 L1078.34 1218.48 L1078.34 1218.48  Z" fill="#009af9" fill-rule="evenodd" fill-opacity="1"/>
<polyline clip-path="url(#clip532)" style="stroke:#000000; stroke-linecap:round; stroke-linejoin:round; stroke-width:4; stroke-opacity:1; fill:none" points="1078.34,1218.48 1078.34,1254.52 1122.47,1254.52 1122.47,1218.48 1078.34,1218.48 "/>
<path clip-path="url(#clip532)" d="M1122.47 1224.49 L1122.47 1254.52 L1166.6 1254.52 L1166.6 1224.49 L1122.47 1224.49 L1122.47 1224.49  Z" fill="#009af9" fill-rule="evenodd" fill-opacity="1"/>
<polyline clip-path="url(#clip532)" style="stroke:#000000; stroke-linecap:round; stroke-linejoin:round; stroke-width:4; stroke-opacity:1; fill:none" points="1122.47,1224.49 1122.47,1254.52 1166.6,1254.52 1166.6,1224.49 1122.47,1224.49 "/>
<path clip-path="url(#clip532)" d="M1166.6 1242.51 L1166.6 1254.52 L1210.74 1254.52 L1210.74 1242.51 L1166.6 1242.51 L1166.6 1242.51  Z" fill="#009af9" fill-rule="evenodd" fill-opacity="1"/>
<polyline clip-path="url(#clip532)" style="stroke:#000000; stroke-linecap:round; stroke-linejoin:round; stroke-width:4; stroke-opacity:1; fill:none" points="1166.6,1242.51 1166.6,1254.52 1210.74,1254.52 1210.74,1242.51 1166.6,1242.51 "/>
<path clip-path="url(#clip532)" d="M1210.74 1224.49 L1210.74 1254.52 L1254.87 1254.52 L1254.87 1224.49 L1210.74 1224.49 L1210.74 1224.49  Z" fill="#009af9" fill-rule="evenodd" fill-opacity="1"/>
<polyline clip-path="url(#clip532)" style="stroke:#000000; stroke-linecap:round; stroke-linejoin:round; stroke-width:4; stroke-opacity:1; fill:none" points="1210.74,1224.49 1210.74,1254.52 1254.87,1254.52 1254.87,1224.49 1210.74,1224.49 "/>
<path clip-path="url(#clip532)" d="M1254.87 1230.49 L1254.87 1254.52 L1299.01 1254.52 L1299.01 1230.49 L1254.87 1230.49 L1254.87 1230.49  Z" fill="#009af9" fill-rule="evenodd" fill-opacity="1"/>
<polyline clip-path="url(#clip532)" style="stroke:#000000; stroke-linecap:round; stroke-linejoin:round; stroke-width:4; stroke-opacity:1; fill:none" points="1254.87,1230.49 1254.87,1254.52 1299.01,1254.52 1299.01,1230.49 1254.87,1230.49 "/>
<path clip-path="url(#clip532)" d="M1299.01 1242.51 L1299.01 1254.52 L1343.14 1254.52 L1343.14 1242.51 L1299.01 1242.51 L1299.01 1242.51  Z" fill="#009af9" fill-rule="evenodd" fill-opacity="1"/>
<polyline clip-path="url(#clip532)" style="stroke:#000000; stroke-linecap:round; stroke-linejoin:round; stroke-width:4; stroke-opacity:1; fill:none" points="1299.01,1242.51 1299.01,1254.52 1343.14,1254.52 1343.14,1242.51 1299.01,1242.51 "/>
<path clip-path="url(#clip532)" d="M1343.14 1254.52 L1343.14 1254.52 L1387.28 1254.52 L1387.28 1254.52 L1343.14 1254.52 L1343.14 1254.52  Z" fill="#009af9" fill-rule="evenodd" fill-opacity="1"/>
<polyline clip-path="url(#clip532)" style="stroke:#000000; stroke-linecap:round; stroke-linejoin:round; stroke-width:4; stroke-opacity:1; fill:none" points="1343.14,1254.52 1343.14,1254.52 1387.28,1254.52 1343.14,1254.52 "/>
<path clip-path="url(#clip532)" d="M1387.28 1236.5 L1387.28 1254.52 L1431.41 1254.52 L1431.41 1236.5 L1387.28 1236.5 L1387.28 1236.5  Z" fill="#009af9" fill-rule="evenodd" fill-opacity="1"/>
<polyline clip-path="url(#clip532)" style="stroke:#000000; stroke-linecap:round; stroke-linejoin:round; stroke-width:4; stroke-opacity:1; fill:none" points="1387.28,1236.5 1387.28,1254.52 1431.41,1254.52 1431.41,1236.5 1387.28,1236.5 "/>
<path clip-path="url(#clip532)" d="M1431.41 1248.51 L1431.41 1254.52 L1475.55 1254.52 L1475.55 1248.51 L1431.41 1248.51 L1431.41 1248.51  Z" fill="#009af9" fill-rule="evenodd" fill-opacity="1"/>
<polyline clip-path="url(#clip532)" style="stroke:#000000; stroke-linecap:round; stroke-linejoin:round; stroke-width:4; stroke-opacity:1; fill:none" points="1431.41,1248.51 1431.41,1254.52 1475.55,1254.52 1475.55,1248.51 1431.41,1248.51 "/>
<path clip-path="url(#clip532)" d="M1475.55 1248.51 L1475.55 1254.52 L1519.68 1254.52 L1519.68 1248.51 L1475.55 1248.51 L1475.55 1248.51  Z" fill="#009af9" fill-rule="evenodd" fill-opacity="1"/>
<polyline clip-path="url(#clip532)" style="stroke:#000000; stroke-linecap:round; stroke-linejoin:round; stroke-width:4; stroke-opacity:1; fill:none" points="1475.55,1248.51 1475.55,1254.52 1519.68,1254.52 1519.68,1248.51 1475.55,1248.51 "/>
<path clip-path="url(#clip532)" d="M1519.68 1254.52 L1519.68 1254.52 L1563.81 1254.52 L1563.81 1254.52 L1519.68 1254.52 L1519.68 1254.52  Z" fill="#009af9" fill-rule="evenodd" fill-opacity="1"/>
<polyline clip-path="url(#clip532)" style="stroke:#000000; stroke-linecap:round; stroke-linejoin:round; stroke-width:4; stroke-opacity:1; fill:none" points="1519.68,1254.52 1519.68,1254.52 1563.81,1254.52 1519.68,1254.52 "/>
<path clip-path="url(#clip532)" d="M1563.81 1254.52 L1563.81 1254.52 L1607.95 1254.52 L1607.95 1254.52 L1563.81 1254.52 L1563.81 1254.52  Z" fill="#009af9" fill-rule="evenodd" fill-opacity="1"/>
<polyline clip-path="url(#clip532)" style="stroke:#000000; stroke-linecap:round; stroke-linejoin:round; stroke-width:4; stroke-opacity:1; fill:none" points="1563.81,1254.52 1563.81,1254.52 1607.95,1254.52 1563.81,1254.52 "/>
<path clip-path="url(#clip532)" d="M1607.95 1248.51 L1607.95 1254.52 L1652.08 1254.52 L1652.08 1248.51 L1607.95 1248.51 L1607.95 1248.51  Z" fill="#009af9" fill-rule="evenodd" fill-opacity="1"/>
<polyline clip-path="url(#clip532)" style="stroke:#000000; stroke-linecap:round; stroke-linejoin:round; stroke-width:4; stroke-opacity:1; fill:none" points="1607.95,1248.51 1607.95,1254.52 1652.08,1254.52 1652.08,1248.51 1607.95,1248.51 "/>
<circle clip-path="url(#clip532)" style="fill:#009af9; stroke:none; fill-opacity:0" cx="173.579" cy="1224.49" r="2"/>
<circle clip-path="url(#clip532)" style="fill:#009af9; stroke:none; fill-opacity:0" cx="217.713" cy="1134.39" r="2"/>
<circle clip-path="url(#clip532)" style="fill:#009af9; stroke:none; fill-opacity:0" cx="261.848" cy="972.222" r="2"/>
<circle clip-path="url(#clip532)" style="fill:#009af9; stroke:none; fill-opacity:0" cx="305.982" cy="563.79" r="2"/>
<circle clip-path="url(#clip532)" style="fill:#009af9; stroke:none; fill-opacity:0" cx="350.117" cy="317.53" r="2"/>
<circle clip-path="url(#clip532)" style="fill:#009af9; stroke:none; fill-opacity:0" cx="394.251" cy="347.561" r="2"/>
<circle clip-path="url(#clip532)" style="fill:#009af9; stroke:none; fill-opacity:0" cx="438.386" cy="95.2949" r="2"/>
<circle clip-path="url(#clip532)" style="fill:#009af9; stroke:none; fill-opacity:0" cx="482.52" cy="47.2441" r="2"/>
<circle clip-path="url(#clip532)" style="fill:#009af9; stroke:none; fill-opacity:0" cx="526.655" cy="317.53" r="2"/>
<circle clip-path="url(#clip532)" style="fill:#009af9; stroke:none; fill-opacity:0" cx="570.789" cy="251.46" r="2"/>
<circle clip-path="url(#clip532)" style="fill:#009af9; stroke:none; fill-opacity:0" cx="614.924" cy="293.504" r="2"/>
<circle clip-path="url(#clip532)" style="fill:#009af9; stroke:none; fill-opacity:0" cx="659.058" cy="431.65" r="2"/>
<circle clip-path="url(#clip532)" style="fill:#009af9; stroke:none; fill-opacity:0" cx="703.192" cy="539.765" r="2"/>
<circle clip-path="url(#clip532)" style="fill:#009af9; stroke:none; fill-opacity:0" cx="747.327" cy="587.815" r="2"/>
<circle clip-path="url(#clip532)" style="fill:#009af9; stroke:none; fill-opacity:0" cx="791.461" cy="846.088" r="2"/>
<circle clip-path="url(#clip532)" style="fill:#009af9; stroke:none; fill-opacity:0" cx="835.596" cy="942.19" r="2"/>
<circle clip-path="url(#clip532)" style="fill:#009af9; stroke:none; fill-opacity:0" cx="879.73" cy="1026.28" r="2"/>
<circle clip-path="url(#clip532)" style="fill:#009af9; stroke:none; fill-opacity:0" cx="923.865" cy="1080.34" r="2"/>
<circle clip-path="url(#clip532)" style="fill:#009af9; stroke:none; fill-opacity:0" cx="967.999" cy="1128.39" r="2"/>
<circle clip-path="url(#clip532)" style="fill:#009af9; stroke:none; fill-opacity:0" cx="1012.13" cy="1194.46" r="2"/>
<circle clip-path="url(#clip532)" style="fill:#009af9; stroke:none; fill-opacity:0" cx="1056.27" cy="1170.43" r="2"/>
<circle clip-path="url(#clip532)" style="fill:#009af9; stroke:none; fill-opacity:0" cx="1100.4" cy="1218.48" r="2"/>
<circle clip-path="url(#clip532)" style="fill:#009af9; stroke:none; fill-opacity:0" cx="1144.54" cy="1224.49" r="2"/>
<circle clip-path="url(#clip532)" style="fill:#009af9; stroke:none; fill-opacity:0" cx="1188.67" cy="1242.51" r="2"/>
<circle clip-path="url(#clip532)" style="fill:#009af9; stroke:none; fill-opacity:0" cx="1232.81" cy="1224.49" r="2"/>
<circle clip-path="url(#clip532)" style="fill:#009af9; stroke:none; fill-opacity:0" cx="1276.94" cy="1230.49" r="2"/>
<circle clip-path="url(#clip532)" style="fill:#009af9; stroke:none; fill-opacity:0" cx="1321.08" cy="1242.51" r="2"/>
<circle clip-path="url(#clip532)" style="fill:#009af9; stroke:none; fill-opacity:0" cx="1365.21" cy="1254.52" r="2"/>
<circle clip-path="url(#clip532)" style="fill:#009af9; stroke:none; fill-opacity:0" cx="1409.34" cy="1236.5" r="2"/>
<circle clip-path="url(#clip532)" style="fill:#009af9; stroke:none; fill-opacity:0" cx="1453.48" cy="1248.51" r="2"/>
<circle clip-path="url(#clip532)" style="fill:#009af9; stroke:none; fill-opacity:0" cx="1497.61" cy="1248.51" r="2"/>
<circle clip-path="url(#clip532)" style="fill:#009af9; stroke:none; fill-opacity:0" cx="1541.75" cy="1254.52" r="2"/>
<circle clip-path="url(#clip532)" style="fill:#009af9; stroke:none; fill-opacity:0" cx="1585.88" cy="1254.52" r="2"/>
<circle clip-path="url(#clip532)" style="fill:#009af9; stroke:none; fill-opacity:0" cx="1630.02" cy="1248.51" r="2"/>
<polyline clip-path="url(#clip532)" style="stroke:#e26f46; stroke-linecap:round; stroke-linejoin:round; stroke-width:8; stroke-opacity:1; fill:none" points="22.0146,1254.52 30.8359,1254.51 39.6572,1254.51 48.4785,1254.49 57.2998,1254.46 66.1211,1254.39 74.9424,1254.26 83.7637,1254.01 92.585,1253.58 101.406,1252.84 110.228,1251.65 119.049,1249.79 127.87,1247.01 136.691,1243.01 145.513,1237.44 154.334,1229.96 163.155,1220.21 171.977,1207.89 180.798,1192.72 189.619,1174.51 198.441,1153.1 207.262,1128.41 216.083,1100.33 224.904,1068.75 233.726,1033.51 242.547,994.431 251.368,951.364 260.19,904.323 269.011,853.582 277.832,799.768 286.654,743.882 295.475,687.251 304.296,631.39 313.117,577.843 321.939,528.009 330.76,482.982 339.581,443.437 348.403,409.539 357.224,380.898 366.045,356.587 374.866,335.247 383.688,315.289 392.509,295.194 401.33,273.838 410.152,250.762 418.973,226.308 427.794,201.563 436.616,178.118 445.437,157.726 454.258,141.943 463.079,131.847 471.901,127.888 480.722,129.858 489.543,136.979 498.365,148.052 507.186,161.658 516.007,176.372 524.829,190.983 533.65,204.665 542.471,217.077 551.292,228.354 560.114,239.004 568.935,249.741 577.756,261.293 586.578,274.249 595.399,288.957 604.22,305.493 613.042,323.695 621.863,343.23 630.684,363.704 639.505,384.749 648.327,406.086 657.148,427.545 665.969,449.039 674.791,470.519 683.612,491.949 692.433,513.323 701.255,534.708 710.076,556.311 718.897,578.495 727.718,601.73 736.54,626.459 745.361,652.939 754.182,681.105 763.004,710.534 771.825,740.525 780.646,770.27 789.467,799.056 798.289,826.412 807.11,852.161 815.931,876.368 824.753,899.229 833.574,920.944 842.395,941.631 851.217,961.297 860.038,979.862 868.859,997.205 877.68,1013.23 886.502,1027.89 895.323,1041.25 904.144,1053.45 912.966,1064.7 921.787,1075.28 930.608,1085.48 939.43,1095.57 948.251,1105.72 957.072,1116.01 965.893,1126.37 974.715,1136.62 983.536,1146.46 992.357,1155.58 1001.18,1163.7 1010,1170.63 1018.82,1176.34 1027.64,1180.96 1036.46,1184.75 1045.29,1188.03 1054.11,1191.16 1062.93,1194.39 1071.75,1197.87 1080.57,1201.58 1089.39,1205.41 1098.21,1209.17 1107.03,1212.66 1115.86,1215.74 1124.68,1218.35 1133.5,1220.5 1142.32,1222.28 1151.14,1223.78 1159.96,1225.07 1168.78,1226.19 1177.6,1227.12 1186.43,1227.85 1195.25,1228.35 1204.07,1228.64 1212.89,1228.81 1221.71,1228.97 1230.53,1229.27 1239.35,1229.84 1248.17,1230.75 1257,1232.04 1265.82,1233.64 1274.64,1235.48 1283.46,1237.39 1292.28,1239.27 1301.1,1240.97 1309.92,1242.43 1318.75,1243.61 1327.57,1244.49 1336.39,1245.08 1345.21,1245.41 1354.03,1245.48 1362.85,1245.33 1371.67,1244.99 1380.49,1244.52 1389.32,1244.03 1398.14,1243.63 1406.96,1243.42 1415.78,1243.5 1424.6,1243.91 1433.42,1244.62 1442.24,1245.56 1451.06,1246.61 1459.89,1247.66 1468.71,1248.6 1477.53,1249.39 1486.35,1250 1495.17,1250.46 1503.99,1250.84 1512.81,1251.18 1521.64,1251.51 1530.46,1251.85 1539.28,1252.18 1548.1,1252.46 1556.92,1252.67 1565.74,1252.76 1574.56,1252.73 1583.38,1252.58 1592.21,1252.36 1601.03,1252.11 1609.85,1251.88 1618.67,1251.75 1627.49,1251.73 1636.31,1251.85 1645.13,1252.09 1653.95,1252.42 1662.78,1252.8 1671.6,1253.19 1680.42,1253.54 1689.24,1253.83 1698.06,1254.07 1706.88,1254.24 1715.7,1254.35 1724.53,1254.42 1733.35,1254.47 1742.17,1254.49 1750.99,1254.51 1759.81,1254.51 1768.63,1254.52 1777.45,1254.52 "/>
</svg>
