<?xml version="1.0" encoding="utf-8"?>
<svg xmlns="http://www.w3.org/2000/svg" xmlns:xlink="http://www.w3.org/1999/xlink" width="480" height="360" viewBox="0 0 1920 1440">
<defs>
  <clipPath id="clip610">
    <rect x="0" y="0" width="1920" height="1440"/>
  </clipPath>
</defs>
<path clip-path="url(#clip610)" d="M0 1440 L1920 1440 L1920 0 L0 0  Z" fill="#ffffff" fill-rule="evenodd" fill-opacity="1"/>
<defs>
  <clipPath id="clip611">
    <rect x="384" y="0" width="1345" height="1345"/>
  </clipPath>
</defs>
<path clip-path="url(#clip610)" d="M106.081 1254.52 L1872.76 1254.52 L1872.76 47.2441 L106.081 47.2441  Z" fill="#ffffff" fill-rule="evenodd" fill-opacity="1"/>
<defs>
  <clipPath id="clip612">
    <rect x="106" y="47" width="1768" height="1208"/>
  </clipPath>
</defs>
<polyline clip-path="url(#clip612)" style="stroke:#000000; stroke-linecap:round; stroke-linejoin:round; stroke-width:2; stroke-opacity:0.1; fill:none" points="346.991,1254.52 346.991,47.2441 "/>
<polyline clip-path="url(#clip612)" style="stroke:#000000; stroke-linecap:round; stroke-linejoin:round; stroke-width:2; stroke-opacity:0.1; fill:none" points="668.205,1254.52 668.205,47.2441 "/>
<polyline clip-path="url(#clip612)" style="stroke:#000000; stroke-linecap:round; stroke-linejoin:round; stroke-width:2; stroke-opacity:0.1; fill:none" points="989.418,1254.52 989.418,47.2441 "/>
<polyline clip-path="url(#clip612)" style="stroke:#000000; stroke-linecap:round; stroke-linejoin:round; stroke-width:2; stroke-opacity:0.1; fill:none" points="1310.63,1254.52 1310.63,47.2441 "/>
<polyline clip-path="url(#clip612)" style="stroke:#000000; stroke-linecap:round; stroke-linejoin:round; stroke-width:2; stroke-opacity:0.1; fill:none" points="1631.85,1254.52 1631.85,47.2441 "/>
<polyline clip-path="url(#clip612)" style="stroke:#000000; stroke-linecap:round; stroke-linejoin:round; stroke-width:2; stroke-opacity:0.1; fill:none" points="106.081,1254.52 1872.76,1254.52 "/>
<polyline clip-path="url(#clip612)" style="stroke:#000000; stroke-linecap:round; stroke-linejoin:round; stroke-width:2; stroke-opacity:0.1; fill:none" points="106.081,853.432 1872.76,853.432 "/>
<polyline clip-path="url(#clip612)" style="stroke:#000000; stroke-linecap:round; stroke-linejoin:round; stroke-width:2; stroke-opacity:0.1; fill:none" points="106.081,452.343 1872.76,452.343 "/>
<polyline clip-path="url(#clip612)" style="stroke:#000000; stroke-linecap:round; stroke-linejoin:round; stroke-width:2; stroke-opacity:0.1; fill:none" points="106.081,51.255 1872.76,51.255 "/>
<polyline clip-path="url(#clip610)" style="stroke:#000000; stroke-linecap:round; stroke-linejoin:round; stroke-width:4; stroke-opacity:1; fill:none" points="106.081,1254.52 1872.76,1254.52 "/>
<polyline clip-path="url(#clip610)" style="stroke:#000000; stroke-linecap:round; stroke-linejoin:round; stroke-width:4; stroke-opacity:1; fill:none" points="346.991,1254.52 346.991,1235.62 "/>
<polyline clip-path="url(#clip610)" style="stroke:#000000; stroke-linecap:round; stroke-linejoin:round; stroke-width:4; stroke-opacity:1; fill:none" points="668.205,1254.52 668.205,1235.62 "/>
<polyline clip-path="url(#clip610)" style="stroke:#000000; stroke-linecap:round; stroke-linejoin:round; stroke-width:4; stroke-opacity:1; fill:none" points="989.418,1254.52 989.418,1235.62 "/>
<polyline clip-path="url(#clip610)" style="stroke:#000000; stroke-linecap:round; stroke-linejoin:round; stroke-width:4; stroke-opacity:1; fill:none" points="1310.63,1254.52 1310.63,1235.62 "/>
<polyline clip-path="url(#clip610)" style="stroke:#000000; stroke-linecap:round; stroke-linejoin:round; stroke-width:4; stroke-opacity:1; fill:none" points="1631.85,1254.52 1631.85,1235.62 "/>
<path clip-path="url(#clip610)" d="M293.276 1296.25 L322.952 1296.25 L322.952 1300.19 L293.276 1300.19 L293.276 1296.25 Z" fill="#000000" fill-rule="nonzero" fill-opacity="1" /><path clip-path="url(#clip610)" d="M343.044 1281.6 Q339.433 1281.6 337.605 1285.16 Q335.799 1288.7 335.799 1295.83 Q335.799 1302.94 337.605 1306.51 Q339.433 1310.05 343.044 1310.05 Q346.679 1310.05 348.484 1306.51 Q350.313 1302.94 350.313 1295.83 Q350.313 1288.7 348.484 1285.16 Q346.679 1281.6 343.044 1281.6 M343.044 1277.89 Q348.855 1277.89 351.91 1282.5 Q354.989 1287.08 354.989 1295.83 Q354.989 1304.56 351.91 1309.17 Q348.855 1313.75 343.044 1313.75 Q337.234 1313.75 334.156 1309.17 Q331.1 1304.56 331.1 1295.83 Q331.1 1287.08 334.156 1282.5 Q337.234 1277.89 343.044 1277.89 Z" fill="#000000" fill-rule="nonzero" fill-opacity="1" /><path clip-path="url(#clip610)" d="M363.206 1307.2 L368.091 1307.2 L368.091 1313.08 L363.206 1313.08 L363.206 1307.2 Z" fill="#000000" fill-rule="nonzero" fill-opacity="1" /><path clip-path="url(#clip610)" d="M391.123 1282.59 L379.317 1301.04 L391.123 1301.04 L391.123 1282.59 M389.896 1278.52 L395.776 1278.52 L395.776 1301.04 L400.706 1301.04 L400.706 1304.93 L395.776 1304.93 L395.776 1313.08 L391.123 1313.08 L391.123 1304.93 L375.521 1304.93 L375.521 1300.42 L389.896 1278.52 Z" fill="#000000" fill-rule="nonzero" fill-opacity="1" /><path clip-path="url(#clip610)" d="M615.531 1296.25 L645.207 1296.25 L645.207 1300.19 L615.531 1300.19 L615.531 1296.25 Z" fill="#000000" fill-rule="nonzero" fill-opacity="1" /><path clip-path="url(#clip610)" d="M665.3 1281.6 Q661.689 1281.6 659.86 1285.16 Q658.054 1288.7 658.054 1295.83 Q658.054 1302.94 659.86 1306.51 Q661.689 1310.05 665.3 1310.05 Q668.934 1310.05 670.739 1306.51 Q672.568 1302.94 672.568 1295.83 Q672.568 1288.7 670.739 1285.16 Q668.934 1281.6 665.3 1281.6 M665.3 1277.89 Q671.11 1277.89 674.165 1282.5 Q677.244 1287.08 677.244 1295.83 Q677.244 1304.56 674.165 1309.17 Q671.11 1313.75 665.3 1313.75 Q659.49 1313.75 656.411 1309.17 Q653.355 1304.56 653.355 1295.83 Q653.355 1287.08 656.411 1282.5 Q659.49 1277.89 665.3 1277.89 Z" fill="#000000" fill-rule="nonzero" fill-opacity="1" /><path clip-path="url(#clip610)" d="M685.462 1307.2 L690.346 1307.2 L690.346 1313.08 L685.462 1313.08 L685.462 1307.2 Z" fill="#000000" fill-rule="nonzero" fill-opacity="1" /><path clip-path="url(#clip610)" d="M704.559 1309.14 L720.878 1309.14 L720.878 1313.08 L698.934 1313.08 L698.934 1309.14 Q701.596 1306.39 706.179 1301.76 Q710.786 1297.11 711.966 1295.77 Q714.211 1293.24 715.091 1291.51 Q715.994 1289.75 715.994 1288.06 Q715.994 1285.3 714.049 1283.57 Q712.128 1281.83 709.026 1281.83 Q706.827 1281.83 704.374 1282.59 Q701.943 1283.36 699.165 1284.91 L699.165 1280.19 Q701.989 1279.05 704.443 1278.47 Q706.897 1277.89 708.934 1277.89 Q714.304 1277.89 717.498 1280.58 Q720.693 1283.27 720.693 1287.76 Q720.693 1289.89 719.883 1291.81 Q719.096 1293.7 716.989 1296.3 Q716.411 1296.97 713.309 1300.19 Q710.207 1303.38 704.559 1309.14 Z" fill="#000000" fill-rule="nonzero" fill-opacity="1" /><path clip-path="url(#clip610)" d="M966.803 1281.6 Q963.192 1281.6 961.363 1285.16 Q959.557 1288.7 959.557 1295.83 Q959.557 1302.94 961.363 1306.51 Q963.192 1310.05 966.803 1310.05 Q970.437 1310.05 972.243 1306.51 Q974.071 1302.94 974.071 1295.83 Q974.071 1288.7 972.243 1285.16 Q970.437 1281.6 966.803 1281.6 M966.803 1277.89 Q972.613 1277.89 975.668 1282.5 Q978.747 1287.08 978.747 1295.83 Q978.747 1304.56 975.668 1309.17 Q972.613 1313.75 966.803 1313.75 Q960.993 1313.75 957.914 1309.17 Q954.858 1304.56 954.858 1295.83 Q954.858 1287.08 957.914 1282.5 Q960.993 1277.89 966.803 1277.89 Z" fill="#000000" fill-rule="nonzero" fill-opacity="1" /><path clip-path="url(#clip610)" d="M986.965 1307.2 L991.849 1307.2 L991.849 1313.08 L986.965 1313.08 L986.965 1307.2 Z" fill="#000000" fill-rule="nonzero" fill-opacity="1" /><path clip-path="url(#clip610)" d="M1012.03 1281.6 Q1008.42 1281.6 1006.59 1285.16 Q1004.79 1288.7 1004.79 1295.83 Q1004.79 1302.94 1006.59 1306.51 Q1008.42 1310.05 1012.03 1310.05 Q1015.67 1310.05 1017.47 1306.51 Q1019.3 1302.94 1019.3 1295.83 Q1019.3 1288.7 1017.47 1285.16 Q1015.67 1281.6 1012.03 1281.6 M1012.03 1277.89 Q1017.84 1277.89 1020.9 1282.5 Q1023.98 1287.08 1023.98 1295.83 Q1023.98 1304.56 1020.9 1309.17 Q1017.84 1313.75 1012.03 1313.75 Q1006.22 1313.75 1003.15 1309.17 Q1000.09 1304.56 1000.09 1295.83 Q1000.09 1287.08 1003.15 1282.5 Q1006.22 1277.89 1012.03 1277.89 Z" fill="#000000" fill-rule="nonzero" fill-opacity="1" /><path clip-path="url(#clip610)" d="M1288.82 1281.6 Q1285.2 1281.6 1283.38 1285.16 Q1281.57 1288.7 1281.57 1295.83 Q1281.57 1302.94 1283.38 1306.51 Q1285.2 1310.05 1288.82 1310.05 Q1292.45 1310.05 1294.25 1306.51 Q1296.08 1302.94 1296.08 1295.83 Q1296.08 1288.7 1294.25 1285.16 Q1292.45 1281.6 1288.82 1281.6 M1288.82 1277.89 Q1294.63 1277.89 1297.68 1282.5 Q1300.76 1287.08 1300.76 1295.83 Q1300.76 1304.56 1297.68 1309.17 Q1294.63 1313.75 1288.82 1313.75 Q1283 1313.75 1279.93 1309.17 Q1276.87 1304.56 1276.87 1295.83 Q1276.87 1287.08 1279.93 1282.5 Q1283 1277.89 1288.82 1277.89 Z" fill="#000000" fill-rule="nonzero" fill-opacity="1" /><path clip-path="url(#clip610)" d="M1308.98 1307.2 L1313.86 1307.2 L1313.86 1313.08 L1308.98 1313.08 L1308.98 1307.2 Z" fill="#000000" fill-rule="nonzero" fill-opacity="1" /><path clip-path="url(#clip610)" d="M1328.07 1309.14 L1344.39 1309.14 L1344.39 1313.08 L1322.45 1313.08 L1322.45 1309.14 Q1325.11 1306.39 1329.69 1301.76 Q1334.3 1297.11 1335.48 1295.77 Q1337.73 1293.24 1338.61 1291.51 Q1339.51 1289.75 1339.51 1288.06 Q1339.51 1285.3 1337.56 1283.57 Q1335.64 1281.83 1332.54 1281.83 Q1330.34 1281.83 1327.89 1282.59 Q1325.46 1283.36 1322.68 1284.91 L1322.68 1280.19 Q1325.5 1279.05 1327.96 1278.47 Q1330.41 1277.89 1332.45 1277.89 Q1337.82 1277.89 1341.01 1280.58 Q1344.21 1283.27 1344.21 1287.76 Q1344.21 1289.89 1343.4 1291.81 Q1342.61 1293.7 1340.5 1296.3 Q1339.93 1296.97 1336.82 1300.19 Q1333.72 1303.38 1328.07 1309.14 Z" fill="#000000" fill-rule="nonzero" fill-opacity="1" /><path clip-path="url(#clip610)" d="M1608.99 1281.6 Q1605.38 1281.6 1603.55 1285.16 Q1601.74 1288.7 1601.74 1295.83 Q1601.74 1302.94 1603.55 1306.51 Q1605.38 1310.05 1608.99 1310.05 Q1612.62 1310.05 1614.43 1306.51 Q1616.26 1302.94 1616.26 1295.83 Q1616.26 1288.7 1614.43 1285.16 Q1612.62 1281.6 1608.99 1281.6 M1608.99 1277.89 Q1614.8 1277.89 1617.85 1282.5 Q1620.93 1287.08 1620.93 1295.83 Q1620.93 1304.56 1617.85 1309.17 Q1614.8 1313.75 1608.99 1313.75 Q1603.18 1313.75 1600.1 1309.17 Q1597.04 1304.56 1597.04 1295.83 Q1597.04 1287.08 1600.1 1282.5 Q1603.18 1277.89 1608.99 1277.89 Z" fill="#000000" fill-rule="nonzero" fill-opacity="1" /><path clip-path="url(#clip610)" d="M1629.15 1307.2 L1634.03 1307.2 L1634.03 1313.08 L1629.15 1313.08 L1629.15 1307.2 Z" fill="#000000" fill-rule="nonzero" fill-opacity="1" /><path clip-path="url(#clip610)" d="M1657.07 1282.59 L1645.26 1301.04 L1657.07 1301.04 L1657.07 1282.59 M1655.84 1278.52 L1661.72 1278.52 L1661.72 1301.04 L1666.65 1301.04 L1666.65 1304.93 L1661.72 1304.93 L1661.72 1313.08 L1657.07 1313.08 L1657.07 1304.93 L1641.46 1304.93 L1641.46 1300.42 L1655.84 1278.52 Z" fill="#000000" fill-rule="nonzero" fill-opacity="1" /><path clip-path="url(#clip610)" d="M1004.02 1348.96 Q1004.02 1350.76 1003.47 1352.79 L995.968 1382.65 Q995.292 1385.29 993.263 1385.29 Q992.426 1385.29 991.91 1384.77 Q991.427 1384.29 991.427 1383.52 Q991.427 1383.26 991.621 1382.45 L999.125 1352.12 Q999.801 1349.35 999.801 1347.96 Q999.801 1343.36 996.226 1343.36 Q993.07 1343.36 989.914 1345.67 Q988.464 1346.83 987.047 1348.93 Q985.662 1350.99 985.405 1351.73 Q985.115 1353.4 984.696 1354.69 Q984.503 1355.59 983.569 1359.1 L982.12 1365.06 Q981.089 1369.51 980.864 1369.93 Q980.542 1370.83 979.833 1371.31 Q979.125 1371.79 978.416 1371.79 Q977.611 1371.79 977.063 1371.31 Q976.516 1370.83 976.516 1369.99 Q976.516 1369.86 976.613 1369.38 Q976.709 1368.9 976.87 1368.22 Q977.031 1367.54 977.096 1367.16 L980.928 1351.92 Q981.637 1349.15 981.798 1348.28 Q981.991 1347.38 981.991 1346.38 Q981.991 1344.64 981.443 1344 Q980.896 1343.36 979.93 1343.36 Q978.255 1343.36 977.16 1345.35 Q976.065 1347.35 975.131 1351.21 Q974.841 1352.28 974.648 1352.5 Q974.487 1352.73 974.004 1352.73 Q973.199 1352.7 973.199 1352.05 Q973.199 1351.89 973.456 1350.86 Q973.714 1349.8 974.197 1348.25 Q974.712 1346.67 975.26 1345.67 Q975.582 1345 975.872 1344.55 Q976.162 1344.1 976.741 1343.39 Q977.321 1342.68 978.191 1342.29 Q979.06 1341.91 980.123 1341.91 Q982.474 1341.91 984.213 1343.42 Q985.985 1344.93 986.21 1347.64 Q986.886 1346.64 987.756 1345.74 Q988.658 1344.84 989.914 1343.94 Q991.17 1343 992.877 1342.45 Q994.583 1341.91 996.419 1341.91 Q1000.09 1341.91 1002.06 1343.81 Q1004.02 1345.67 1004.02 1348.96 Z" fill="#000000" fill-rule="nonzero" fill-opacity="1" /><polyline clip-path="url(#clip610)" style="stroke:#000000; stroke-linecap:round; stroke-linejoin:round; stroke-width:4; stroke-opacity:1; fill:none" points="106.081,1254.52 106.081,47.2441 "/>
<polyline clip-path="url(#clip610)" style="stroke:#000000; stroke-linecap:round; stroke-linejoin:round; stroke-width:4; stroke-opacity:1; fill:none" points="106.081,1254.52 124.979,1254.52 "/>
<polyline clip-path="url(#clip610)" style="stroke:#000000; stroke-linecap:round; stroke-linejoin:round; stroke-width:4; stroke-opacity:1; fill:none" points="106.081,853.432 124.979,853.432 "/>
<polyline clip-path="url(#clip610)" style="stroke:#000000; stroke-linecap:round; stroke-linejoin:round; stroke-width:4; stroke-opacity:1; fill:none" points="106.081,452.343 124.979,452.343 "/>
<polyline clip-path="url(#clip610)" style="stroke:#000000; stroke-linecap:round; stroke-linejoin:round; stroke-width:4; stroke-opacity:1; fill:none" points="106.081,51.255 124.979,51.255 "/>
<path clip-path="url(#clip610)" d="M65.3365 1240.32 Q61.7254 1240.32 59.8967 1243.88 Q58.0912 1247.42 58.0912 1254.55 Q58.0912 1261.66 59.8967 1265.23 Q61.7254 1268.77 65.3365 1268.77 Q68.9707 1268.77 70.7763 1265.23 Q72.605 1261.66 72.605 1254.55 Q72.605 1247.42 70.7763 1243.88 Q68.9707 1240.32 65.3365 1240.32 M65.3365 1236.61 Q71.1467 1236.61 74.2022 1241.22 Q77.2809 1245.8 77.2809 1254.55 Q77.2809 1263.28 74.2022 1267.89 Q71.1467 1272.47 65.3365 1272.47 Q59.5264 1272.47 56.4477 1267.89 Q53.3921 1263.28 53.3921 1254.55 Q53.3921 1245.8 56.4477 1241.22 Q59.5264 1236.61 65.3365 1236.61 Z" fill="#000000" fill-rule="nonzero" fill-opacity="1" /><path clip-path="url(#clip610)" d="M57.3736 866.776 L65.0124 866.776 L65.0124 840.411 L56.7023 842.077 L56.7023 837.818 L64.9661 836.152 L69.642 836.152 L69.642 866.776 L77.2809 866.776 L77.2809 870.712 L57.3736 870.712 L57.3736 866.776 Z" fill="#000000" fill-rule="nonzero" fill-opacity="1" /><path clip-path="url(#clip610)" d="M60.9615 465.688 L77.2809 465.688 L77.2809 469.623 L55.3366 469.623 L55.3366 465.688 Q57.9986 462.933 62.5819 458.304 Q67.1883 453.651 68.3689 452.309 Q70.6143 449.785 71.4939 448.049 Q72.3967 446.29 72.3967 444.6 Q72.3967 441.846 70.4522 440.11 Q68.5309 438.373 65.4291 438.373 Q63.23 438.373 60.7763 439.137 Q58.3458 439.901 55.568 441.452 L55.568 436.73 Q58.3921 435.596 60.8458 435.017 Q63.2995 434.438 65.3365 434.438 Q70.7068 434.438 73.9013 437.123 Q77.0957 439.809 77.0957 444.299 Q77.0957 446.429 76.2855 448.35 Q75.4985 450.248 73.392 452.841 Q72.8133 453.512 69.7115 456.73 Q66.6096 459.924 60.9615 465.688 Z" fill="#000000" fill-rule="nonzero" fill-opacity="1" /><path clip-path="url(#clip610)" d="M70.1513 49.9008 Q73.5078 50.6184 75.3827 52.8869 Q77.2809 55.1554 77.2809 58.4887 Q77.2809 63.6044 73.7624 66.4054 Q70.2439 69.2063 63.7624 69.2063 Q61.5865 69.2063 59.2717 68.7665 Q56.9801 68.3498 54.5264 67.4933 L54.5264 62.9795 Q56.4708 64.1137 58.7856 64.6924 Q61.1004 65.2711 63.6236 65.2711 Q68.0217 65.2711 70.3133 63.535 Q72.6281 61.7989 72.6281 58.4887 Q72.6281 55.4332 70.4754 53.7202 Q68.3457 51.9841 64.5263 51.9841 L60.4986 51.9841 L60.4986 48.1416 L64.7115 48.1416 Q68.1606 48.1416 69.9893 46.7758 Q71.818 45.387 71.818 42.7944 Q71.818 40.1324 69.9198 38.7203 Q68.0448 37.2851 64.5263 37.2851 Q62.605 37.2851 60.406 37.7018 Q58.2069 38.1185 55.568 38.9981 L55.568 34.8315 Q58.2301 34.0907 60.5449 33.7203 Q62.8828 33.35 64.943 33.35 Q70.267 33.35 73.3689 35.7805 Q76.4707 38.1879 76.4707 42.3083 Q76.4707 45.1786 74.8272 47.1694 Q73.1837 49.1369 70.1513 49.9008 Z" fill="#000000" fill-rule="nonzero" fill-opacity="1" /><path clip-path="url(#clip612)" d="M106.081 1242.49 L106.081 1254.52 L186.384 1254.52 L186.384 1242.49 L106.081 1242.49 L106.081 1242.49  Z" fill="#009af9" fill-rule="evenodd" fill-opacity="1"/>
<polyline clip-path="url(#clip612)" style="stroke:#000000; stroke-linecap:round; stroke-linejoin:round; stroke-width:4; stroke-opacity:1; fill:none" points="106.081,1242.49 106.081,1254.52 186.384,1254.52 186.384,1242.49 106.081,1242.49 "/>
<path clip-path="url(#clip612)" d="M186.384 1242.49 L186.384 1254.52 L266.688 1254.52 L266.688 1242.49 L186.384 1242.49 L186.384 1242.49  Z" fill="#009af9" fill-rule="evenodd" fill-opacity="1"/>
<polyline clip-path="url(#clip612)" style="stroke:#000000; stroke-linecap:round; stroke-linejoin:round; stroke-width:4; stroke-opacity:1; fill:none" points="186.384,1242.49 186.384,1254.52 266.688,1254.52 266.688,1242.49 186.384,1242.49 "/>
<path clip-path="url(#clip612)" d="M266.688 1230.45 L266.688 1254.52 L346.991 1254.52 L346.991 1230.45 L266.688 1230.45 L266.688 1230.45  Z" fill="#009af9" fill-rule="evenodd" fill-opacity="1"/>
<polyline clip-path="url(#clip612)" style="stroke:#000000; stroke-linecap:round; stroke-linejoin:round; stroke-width:4; stroke-opacity:1; fill:none" points="266.688,1230.45 266.688,1254.52 346.991,1254.52 346.991,1230.45 266.688,1230.45 "/>
<path clip-path="url(#clip612)" d="M346.991 1182.32 L346.991 1254.52 L427.295 1254.52 L427.295 1182.32 L346.991 1182.32 L346.991 1182.32  Z" fill="#009af9" fill-rule="evenodd" fill-opacity="1"/>
<polyline clip-path="url(#clip612)" style="stroke:#000000; stroke-linecap:round; stroke-linejoin:round; stroke-width:4; stroke-opacity:1; fill:none" points="346.991,1182.32 346.991,1254.52 427.295,1254.52 427.295,1182.32 346.991,1182.32 "/>
<path clip-path="url(#clip612)" d="M427.295 1057.99 L427.295 1254.52 L507.598 1254.52 L507.598 1057.99 L427.295 1057.99 L427.295 1057.99  Z" fill="#009af9" fill-rule="evenodd" fill-opacity="1"/>
<polyline clip-path="url(#clip612)" style="stroke:#000000; stroke-linecap:round; stroke-linejoin:round; stroke-width:4; stroke-opacity:1; fill:none" points="427.295,1057.99 427.295,1254.52 507.598,1254.52 507.598,1057.99 427.295,1057.99 "/>
<path clip-path="url(#clip612)" d="M507.598 913.595 L507.598 1254.52 L587.901 1254.52 L587.901 913.595 L507.598 913.595 L507.598 913.595  Z" fill="#009af9" fill-rule="evenodd" fill-opacity="1"/>
<polyline clip-path="url(#clip612)" style="stroke:#000000; stroke-linecap:round; stroke-linejoin:round; stroke-width:4; stroke-opacity:1; fill:none" points="507.598,913.595 507.598,1254.52 587.901,1254.52 587.901,913.595 507.598,913.595 "/>
<path clip-path="url(#clip612)" d="M587.901 576.681 L587.901 1254.52 L668.205 1254.52 L668.205 576.681 L587.901 576.681 L587.901 576.681  Z" fill="#009af9" fill-rule="evenodd" fill-opacity="1"/>
<polyline clip-path="url(#clip612)" style="stroke:#000000; stroke-linecap:round; stroke-linejoin:round; stroke-width:4; stroke-opacity:1; fill:none" points="587.901,576.681 587.901,1254.52 668.205,1254.52 668.205,576.681 587.901,576.681 "/>
<path clip-path="url(#clip612)" d="M668.205 263.832 L668.205 1254.52 L748.508 1254.52 L748.508 263.832 L668.205 263.832 L668.205 263.832  Z" fill="#009af9" fill-rule="evenodd" fill-opacity="1"/>
<polyline clip-path="url(#clip612)" style="stroke:#000000; stroke-linecap:round; stroke-linejoin:round; stroke-width:4; stroke-opacity:1; fill:none" points="668.205,263.832 668.205,1254.52 748.508,1254.52 748.508,263.832 668.205,263.832 "/>
<path clip-path="url(#clip612)" d="M748.508 99.3856 L748.508 1254.52 L828.812 1254.52 L828.812 99.3856 L748.508 99.3856 L748.508 99.3856  Z" fill="#009af9" fill-rule="evenodd" fill-opacity="1"/>
<polyline clip-path="url(#clip612)" style="stroke:#000000; stroke-linecap:round; stroke-linejoin:round; stroke-width:4; stroke-opacity:1; fill:none" points="748.508,99.3856 748.508,1254.52 828.812,1254.52 828.812,99.3856 748.508,99.3856 "/>
<path clip-path="url(#clip612)" d="M828.812 47.2441 L828.812 1254.52 L909.115 1254.52 L909.115 47.2441 L828.812 47.2441 L828.812 47.2441  Z" fill="#009af9" fill-rule="evenodd" fill-opacity="1"/>
<polyline clip-path="url(#clip612)" style="stroke:#000000; stroke-linecap:round; stroke-linejoin:round; stroke-width:4; stroke-opacity:1; fill:none" points="828.812,47.2441 828.812,1254.52 909.115,1254.52 909.115,47.2441 828.812,47.2441 "/>
<path clip-path="url(#clip612)" d="M909.115 131.473 L909.115 1254.52 L989.418 1254.52 L989.418 131.473 L909.115 131.473 L909.115 131.473  Z" fill="#009af9" fill-rule="evenodd" fill-opacity="1"/>
<polyline clip-path="url(#clip612)" style="stroke:#000000; stroke-linecap:round; stroke-linejoin:round; stroke-width:4; stroke-opacity:1; fill:none" points="909.115,131.473 909.115,1254.52 989.418,1254.52 989.418,131.473 909.115,131.473 "/>
<path clip-path="url(#clip612)" d="M989.418 227.734 L989.418 1254.52 L1069.72 1254.52 L1069.72 227.734 L989.418 227.734 L989.418 227.734  Z" fill="#009af9" fill-rule="evenodd" fill-opacity="1"/>
<polyline clip-path="url(#clip612)" style="stroke:#000000; stroke-linecap:round; stroke-linejoin:round; stroke-width:4; stroke-opacity:1; fill:none" points="989.418,227.734 989.418,1254.52 1069.72,1254.52 1069.72,227.734 989.418,227.734 "/>
<path clip-path="url(#clip612)" d="M1069.72 644.866 L1069.72 1254.52 L1150.03 1254.52 L1150.03 644.866 L1069.72 644.866 L1069.72 644.866  Z" fill="#009af9" fill-rule="evenodd" fill-opacity="1"/>
<polyline clip-path="url(#clip612)" style="stroke:#000000; stroke-linecap:round; stroke-linejoin:round; stroke-width:4; stroke-opacity:1; fill:none" points="1069.72,644.866 1069.72,1254.52 1150.03,1254.52 1150.03,644.866 1069.72,644.866 "/>
<path clip-path="url(#clip612)" d="M1150.03 969.747 L1150.03 1254.52 L1230.33 1254.52 L1230.33 969.747 L1150.03 969.747 L1150.03 969.747  Z" fill="#009af9" fill-rule="evenodd" fill-opacity="1"/>
<polyline clip-path="url(#clip612)" style="stroke:#000000; stroke-linecap:round; stroke-linejoin:round; stroke-width:4; stroke-opacity:1; fill:none" points="1150.03,969.747 1150.03,1254.52 1230.33,1254.52 1230.33,969.747 1150.03,969.747 "/>
<path clip-path="url(#clip612)" d="M1230.33 1102.11 L1230.33 1254.52 L1310.63 1254.52 L1310.63 1102.11 L1230.33 1102.11 L1230.33 1102.11  Z" fill="#009af9" fill-rule="evenodd" fill-opacity="1"/>
<polyline clip-path="url(#clip612)" style="stroke:#000000; stroke-linecap:round; stroke-linejoin:round; stroke-width:4; stroke-opacity:1; fill:none" points="1230.33,1102.11 1230.33,1254.52 1310.63,1254.52 1310.63,1102.11 1230.33,1102.11 "/>
<path clip-path="url(#clip612)" d="M1310.63 1154.25 L1310.63 1254.52 L1390.94 1254.52 L1390.94 1154.25 L1310.63 1154.25 L1310.63 1154.25  Z" fill="#009af9" fill-rule="evenodd" fill-opacity="1"/>
<polyline clip-path="url(#clip612)" style="stroke:#000000; stroke-linecap:round; stroke-linejoin:round; stroke-width:4; stroke-opacity:1; fill:none" points="1310.63,1154.25 1310.63,1254.52 1390.94,1254.52 1390.94,1154.25 1310.63,1154.25 "/>
<path clip-path="url(#clip612)" d="M1390.94 1222.43 L1390.94 1254.52 L1471.24 1254.52 L1471.24 1222.43 L1390.94 1222.43 L1390.94 1222.43  Z" fill="#009af9" fill-rule="evenodd" fill-opacity="1"/>
<polyline clip-path="url(#clip612)" style="stroke:#000000; stroke-linecap:round; stroke-linejoin:round; stroke-width:4; stroke-opacity:1; fill:none" points="1390.94,1222.43 1390.94,1254.52 1471.24,1254.52 1471.24,1222.43 1390.94,1222.43 "/>
<path clip-path="url(#clip612)" d="M1471.24 1250.51 L1471.24 1254.52 L1551.54 1254.52 L1551.54 1250.51 L1471.24 1250.51 L1471.24 1250.51  Z" fill="#009af9" fill-rule="evenodd" fill-opacity="1"/>
<polyline clip-path="url(#clip612)" style="stroke:#000000; stroke-linecap:round; stroke-linejoin:round; stroke-width:4; stroke-opacity:1; fill:none" points="1471.24,1250.51 1471.24,1254.52 1551.54,1254.52 1551.54,1250.51 1471.24,1250.51 "/>
<circle clip-path="url(#clip612)" style="fill:#009af9; stroke:none; fill-opacity:0" cx="146.233" cy="1242.49" r="2"/>
<circle clip-path="url(#clip612)" style="fill:#009af9; stroke:none; fill-opacity:0" cx="226.536" cy="1242.49" r="2"/>
<circle clip-path="url(#clip612)" style="fill:#009af9; stroke:none; fill-opacity:0" cx="306.839" cy="1230.45" r="2"/>
<circle clip-path="url(#clip612)" style="fill:#009af9; stroke:none; fill-opacity:0" cx="387.143" cy="1182.32" r="2"/>
<circle clip-path="url(#clip612)" style="fill:#009af9; stroke:none; fill-opacity:0" cx="467.446" cy="1057.99" r="2"/>
<circle clip-path="url(#clip612)" style="fill:#009af9; stroke:none; fill-opacity:0" cx="547.75" cy="913.595" r="2"/>
<circle clip-path="url(#clip612)" style="fill:#009af9; stroke:none; fill-opacity:0" cx="628.053" cy="576.681" r="2"/>
<circle clip-path="url(#clip612)" style="fill:#009af9; stroke:none; fill-opacity:0" cx="708.356" cy="263.832" r="2"/>
<circle clip-path="url(#clip612)" style="fill:#009af9; stroke:none; fill-opacity:0" cx="788.66" cy="99.3856" r="2"/>
<circle clip-path="url(#clip612)" style="fill:#009af9; stroke:none; fill-opacity:0" cx="868.963" cy="47.2441" r="2"/>
<circle clip-path="url(#clip612)" style="fill:#009af9; stroke:none; fill-opacity:0" cx="949.267" cy="131.473" r="2"/>
<circle clip-path="url(#clip612)" style="fill:#009af9; stroke:none; fill-opacity:0" cx="1029.57" cy="227.734" r="2"/>
<circle clip-path="url(#clip612)" style="fill:#009af9; stroke:none; fill-opacity:0" cx="1109.87" cy="644.866" r="2"/>
<circle clip-path="url(#clip612)" style="fill:#009af9; stroke:none; fill-opacity:0" cx="1190.18" cy="969.747" r="2"/>
<circle clip-path="url(#clip612)" style="fill:#009af9; stroke:none; fill-opacity:0" cx="1270.48" cy="1102.11" r="2"/>
<circle clip-path="url(#clip612)" style="fill:#009af9; stroke:none; fill-opacity:0" cx="1350.78" cy="1154.25" r="2"/>
<circle clip-path="url(#clip612)" style="fill:#009af9; stroke:none; fill-opacity:0" cx="1431.09" cy="1222.43" r="2"/>
<circle clip-path="url(#clip612)" style="fill:#009af9; stroke:none; fill-opacity:0" cx="1511.39" cy="1250.51" r="2"/>
<polyline clip-path="url(#clip612)" style="stroke:#e26f46; stroke-linecap:round; stroke-linejoin:round; stroke-width:8; stroke-opacity:1; fill:none" points="-20.1806,1254.52 -11.4981,1254.52 -2.8156,1254.51 5.8669,1254.5 14.5494,1254.49 23.2319,1254.46 31.9144,1254.4 40.5969,1254.31 49.2794,1254.16 57.9619,1253.92 66.6444,1253.56 75.3269,1253.06 84.0095,1252.39 92.692,1251.54 101.374,1250.52 110.057,1249.36 118.739,1248.11 127.422,1246.86 136.104,1245.69 144.787,1244.66 153.469,1243.83 162.152,1243.2 170.835,1242.76 179.517,1242.45 188.2,1242.21 196.882,1241.97 205.565,1241.7 214.247,1241.38 222.93,1241.01 231.612,1240.59 240.295,1240.12 248.977,1239.55 257.66,1238.85 266.342,1237.95 275.025,1236.78 283.707,1235.27 292.39,1233.36 301.072,1231.01 309.755,1228.2 318.437,1224.89 327.12,1221.06 335.802,1216.68 344.485,1211.71 353.167,1206.11 361.85,1199.82 370.532,1192.78 379.215,1184.9 387.897,1176.09 396.58,1166.25 405.262,1155.3 413.945,1143.2 422.627,1129.96 431.31,1115.63 439.992,1100.37 448.675,1084.36 457.357,1067.84 466.04,1051.05 474.722,1034.23 483.405,1017.57 492.087,1001.19 500.77,985.115 509.452,969.23 518.135,953.271 526.817,936.803 535.5,919.228 544.182,899.844 552.865,877.938 561.547,852.912 570.23,824.426 578.912,792.501 587.595,757.565 596.277,720.403 604.96,682.019 613.642,643.441 622.325,605.507 631.007,568.727 639.69,533.223 648.372,498.809 657.055,465.138 665.737,431.897 674.42,398.961 683.102,366.465 691.785,334.767 700.467,304.339 709.15,275.622 717.832,248.913 726.515,224.318 735.197,201.782 743.88,181.17 752.562,162.365 761.245,145.317 769.927,130.038 778.61,116.542 787.292,104.767 795.975,94.534 804.657,85.5734 813.34,77.6217 822.022,70.5576 830.705,64.5078 839.387,59.8656 848.07,57.1899 856.752,57.0097 865.435,59.6017 874.117,64.8294 882.8,72.1139 891.482,80.5562 900.165,89.1696 908.847,97.1414 917.53,104.035 926.212,109.869 934.895,115.072 943.577,120.336 952.26,126.444 960.943,134.114 969.625,143.901 978.308,156.163 986.99,171.066 995.673,188.615 1004.36,208.713 1013.04,231.219 1021.72,256.015 1030.4,283.065 1039.09,312.429 1047.77,344.237 1056.45,378.601 1065.13,415.505 1073.82,454.709 1082.5,495.711 1091.18,537.788 1099.86,580.115 1108.55,621.91 1117.23,662.564 1125.91,701.713 1134.59,739.229 1143.28,775.143 1151.96,809.538 1160.64,842.444 1169.32,873.777 1178.01,903.332 1186.69,930.836 1195.37,956.027 1204.05,978.747 1212.74,999.016 1221.42,1017.04 1230.1,1033.21 1238.78,1047.96 1247.47,1061.73 1256.15,1074.83 1264.83,1087.37 1273.51,1099.31 1282.2,1110.48 1290.88,1120.66 1299.56,1129.75 1308.24,1137.73 1316.93,1144.78 1325.61,1151.15 1334.29,1157.15 1342.97,1163.05 1351.66,1169.06 1360.34,1175.24 1369.02,1181.55 1377.7,1187.9 1386.39,1194.13 1395.07,1200.08 1403.75,1205.64 1412.43,1210.72 1421.12,1215.32 1429.8,1219.46 1438.48,1223.23 1447.16,1226.72 1455.85,1230.01 1464.53,1233.14 1473.21,1236.14 1481.89,1238.94 1490.58,1241.5 1499.26,1243.73 1507.94,1245.6 1516.62,1247.1 1525.31,1248.25 1533.99,1249.13 1542.67,1249.81 1551.35,1250.37 1560.04,1250.89 1568.72,1251.39 1577.4,1251.89 1586.08,1252.38 1594.77,1252.84 1603.45,1253.26 1612.13,1253.61 1620.81,1253.89 1629.5,1254.11 1638.18,1254.26 1646.86,1254.36 1655.54,1254.43 1664.23,1254.47 1672.91,1254.49 1681.59,1254.51 1690.27,1254.51 1698.96,1254.52 1707.64,1254.52 "/>
</svg>
