<?xml version="1.0" encoding="utf-8"?>
<svg xmlns="http://www.w3.org/2000/svg" xmlns:xlink="http://www.w3.org/1999/xlink" width="480" height="360" viewBox="0 0 1920 1440">
<defs>
  <clipPath id="clip870">
    <rect x="0" y="0" width="1920" height="1440"/>
  </clipPath>
</defs>
<path clip-path="url(#clip870)" d="M0 1440 L1920 1440 L1920 0 L0 0  Z" fill="#ffffff" fill-rule="evenodd" fill-opacity="1"/>
<defs>
  <clipPath id="clip871">
    <rect x="384" y="0" width="1345" height="1345"/>
  </clipPath>
</defs>
<path clip-path="url(#clip870)" d="M220.52 1254.52 L1872.76 1254.52 L1872.76 47.2441 L220.52 47.2441  Z" fill="#ffffff" fill-rule="evenodd" fill-opacity="1"/>
<defs>
  <clipPath id="clip872">
    <rect x="220" y="47" width="1653" height="1208"/>
  </clipPath>
</defs>
<polyline clip-path="url(#clip872)" style="stroke:#000000; stroke-linecap:round; stroke-linejoin:round; stroke-width:2; stroke-opacity:0.1; fill:none" points="220.52,1254.52 220.52,47.2441 "/>
<polyline clip-path="url(#clip872)" style="stroke:#000000; stroke-linecap:round; stroke-linejoin:round; stroke-width:2; stroke-opacity:0.1; fill:none" points="679.475,1254.52 679.475,47.2441 "/>
<polyline clip-path="url(#clip872)" style="stroke:#000000; stroke-linecap:round; stroke-linejoin:round; stroke-width:2; stroke-opacity:0.1; fill:none" points="1138.43,1254.52 1138.43,47.2441 "/>
<polyline clip-path="url(#clip872)" style="stroke:#000000; stroke-linecap:round; stroke-linejoin:round; stroke-width:2; stroke-opacity:0.1; fill:none" points="1597.38,1254.52 1597.38,47.2441 "/>
<polyline clip-path="url(#clip872)" style="stroke:#000000; stroke-linecap:round; stroke-linejoin:round; stroke-width:2; stroke-opacity:0.1; fill:none" points="220.52,1254.52 1872.76,1254.52 "/>
<polyline clip-path="url(#clip872)" style="stroke:#000000; stroke-linecap:round; stroke-linejoin:round; stroke-width:2; stroke-opacity:0.1; fill:none" points="220.52,906.267 1872.76,906.267 "/>
<polyline clip-path="url(#clip872)" style="stroke:#000000; stroke-linecap:round; stroke-linejoin:round; stroke-width:2; stroke-opacity:0.1; fill:none" points="220.52,558.015 1872.76,558.015 "/>
<polyline clip-path="url(#clip872)" style="stroke:#000000; stroke-linecap:round; stroke-linejoin:round; stroke-width:2; stroke-opacity:0.1; fill:none" points="220.52,209.762 1872.76,209.762 "/>
<polyline clip-path="url(#clip870)" style="stroke:#000000; stroke-linecap:round; stroke-linejoin:round; stroke-width:4; stroke-opacity:1; fill:none" points="220.52,1254.52 1872.76,1254.52 "/>
<polyline clip-path="url(#clip870)" style="stroke:#000000; stroke-linecap:round; stroke-linejoin:round; stroke-width:4; stroke-opacity:1; fill:none" points="220.52,1254.52 220.52,1235.62 "/>
<polyline clip-path="url(#clip870)" style="stroke:#000000; stroke-linecap:round; stroke-linejoin:round; stroke-width:4; stroke-opacity:1; fill:none" points="679.475,1254.52 679.475,1235.62 "/>
<polyline clip-path="url(#clip870)" style="stroke:#000000; stroke-linecap:round; stroke-linejoin:round; stroke-width:4; stroke-opacity:1; fill:none" points="1138.43,1254.52 1138.43,1235.62 "/>
<polyline clip-path="url(#clip870)" style="stroke:#000000; stroke-linecap:round; stroke-linejoin:round; stroke-width:4; stroke-opacity:1; fill:none" points="1597.38,1254.52 1597.38,1235.62 "/>
<path clip-path="url(#clip870)" d="M197.905 1281.6 Q194.293 1281.6 192.465 1285.16 Q190.659 1288.7 190.659 1295.83 Q190.659 1302.94 192.465 1306.51 Q194.293 1310.05 197.905 1310.05 Q201.539 1310.05 203.344 1306.51 Q205.173 1302.94 205.173 1295.83 Q205.173 1288.7 203.344 1285.16 Q201.539 1281.6 197.905 1281.6 M197.905 1277.89 Q203.715 1277.89 206.77 1282.5 Q209.849 1287.08 209.849 1295.83 Q209.849 1304.56 206.77 1309.17 Q203.715 1313.75 197.905 1313.75 Q192.094 1313.75 189.016 1309.17 Q185.96 1304.56 185.96 1295.83 Q185.96 1287.08 189.016 1282.5 Q192.094 1277.89 197.905 1277.89 Z" fill="#000000" fill-rule="nonzero" fill-opacity="1" /><path clip-path="url(#clip870)" d="M218.066 1307.2 L222.951 1307.2 L222.951 1313.08 L218.066 1313.08 L218.066 1307.2 Z" fill="#000000" fill-rule="nonzero" fill-opacity="1" /><path clip-path="url(#clip870)" d="M243.136 1281.6 Q239.525 1281.6 237.696 1285.16 Q235.89 1288.7 235.89 1295.83 Q235.89 1302.94 237.696 1306.51 Q239.525 1310.05 243.136 1310.05 Q246.77 1310.05 248.576 1306.51 Q250.404 1302.94 250.404 1295.83 Q250.404 1288.7 248.576 1285.16 Q246.77 1281.6 243.136 1281.6 M243.136 1277.89 Q248.946 1277.89 252.001 1282.5 Q255.08 1287.08 255.08 1295.83 Q255.08 1304.56 252.001 1309.17 Q248.946 1313.75 243.136 1313.75 Q237.326 1313.75 234.247 1309.17 Q231.191 1304.56 231.191 1295.83 Q231.191 1287.08 234.247 1282.5 Q237.326 1277.89 243.136 1277.89 Z" fill="#000000" fill-rule="nonzero" fill-opacity="1" /><path clip-path="url(#clip870)" d="M657.357 1281.6 Q653.746 1281.6 651.917 1285.16 Q650.111 1288.7 650.111 1295.83 Q650.111 1302.94 651.917 1306.51 Q653.746 1310.05 657.357 1310.05 Q660.991 1310.05 662.796 1306.51 Q664.625 1302.94 664.625 1295.83 Q664.625 1288.7 662.796 1285.16 Q660.991 1281.6 657.357 1281.6 M657.357 1277.89 Q663.167 1277.89 666.222 1282.5 Q669.301 1287.08 669.301 1295.83 Q669.301 1304.56 666.222 1309.17 Q663.167 1313.75 657.357 1313.75 Q651.546 1313.75 648.468 1309.17 Q645.412 1304.56 645.412 1295.83 Q645.412 1287.08 648.468 1282.5 Q651.546 1277.89 657.357 1277.89 Z" fill="#000000" fill-rule="nonzero" fill-opacity="1" /><path clip-path="url(#clip870)" d="M677.519 1307.2 L682.403 1307.2 L682.403 1313.08 L677.519 1313.08 L677.519 1307.2 Z" fill="#000000" fill-rule="nonzero" fill-opacity="1" /><path clip-path="url(#clip870)" d="M692.634 1278.52 L710.991 1278.52 L710.991 1282.46 L696.917 1282.46 L696.917 1290.93 Q697.935 1290.58 698.954 1290.42 Q699.972 1290.23 700.991 1290.23 Q706.778 1290.23 710.157 1293.4 Q713.537 1296.58 713.537 1301.99 Q713.537 1307.57 710.065 1310.67 Q706.592 1313.75 700.273 1313.75 Q698.097 1313.75 695.829 1313.38 Q693.583 1313.01 691.176 1312.27 L691.176 1307.57 Q693.259 1308.7 695.481 1309.26 Q697.704 1309.82 700.18 1309.82 Q704.185 1309.82 706.523 1307.71 Q708.861 1305.6 708.861 1301.99 Q708.861 1298.38 706.523 1296.27 Q704.185 1294.17 700.18 1294.17 Q698.305 1294.17 696.43 1294.58 Q694.579 1295 692.634 1295.88 L692.634 1278.52 Z" fill="#000000" fill-rule="nonzero" fill-opacity="1" /><path clip-path="url(#clip870)" d="M1105.58 1309.14 L1113.22 1309.14 L1113.22 1282.78 L1104.91 1284.45 L1104.91 1280.19 L1113.17 1278.52 L1117.85 1278.52 L1117.85 1309.14 L1125.49 1309.14 L1125.49 1313.08 L1105.58 1313.08 L1105.58 1309.14 Z" fill="#000000" fill-rule="nonzero" fill-opacity="1" /><path clip-path="url(#clip870)" d="M1134.93 1307.2 L1139.82 1307.2 L1139.82 1313.08 L1134.93 1313.08 L1134.93 1307.2 Z" fill="#000000" fill-rule="nonzero" fill-opacity="1" /><path clip-path="url(#clip870)" d="M1160 1281.6 Q1156.39 1281.6 1154.56 1285.16 Q1152.76 1288.7 1152.76 1295.83 Q1152.76 1302.94 1154.56 1306.51 Q1156.39 1310.05 1160 1310.05 Q1163.64 1310.05 1165.44 1306.51 Q1167.27 1302.94 1167.27 1295.83 Q1167.27 1288.7 1165.44 1285.16 Q1163.64 1281.6 1160 1281.6 M1160 1277.89 Q1165.81 1277.89 1168.87 1282.5 Q1171.95 1287.08 1171.95 1295.83 Q1171.95 1304.56 1168.87 1309.17 Q1165.81 1313.75 1160 1313.75 Q1154.19 1313.75 1151.11 1309.17 Q1148.06 1304.56 1148.06 1295.83 Q1148.06 1287.08 1151.11 1282.5 Q1154.19 1277.89 1160 1277.89 Z" fill="#000000" fill-rule="nonzero" fill-opacity="1" /><path clip-path="url(#clip870)" d="M1565.03 1309.14 L1572.67 1309.14 L1572.67 1282.78 L1564.36 1284.45 L1564.36 1280.19 L1572.63 1278.52 L1577.3 1278.52 L1577.3 1309.14 L1584.94 1309.14 L1584.94 1313.08 L1565.03 1313.08 L1565.03 1309.14 Z" fill="#000000" fill-rule="nonzero" fill-opacity="1" /><path clip-path="url(#clip870)" d="M1594.39 1307.2 L1599.27 1307.2 L1599.27 1313.08 L1594.39 1313.08 L1594.39 1307.2 Z" fill="#000000" fill-rule="nonzero" fill-opacity="1" /><path clip-path="url(#clip870)" d="M1609.5 1278.52 L1627.86 1278.52 L1627.86 1282.46 L1613.78 1282.46 L1613.78 1290.93 Q1614.8 1290.58 1615.82 1290.42 Q1616.84 1290.23 1617.86 1290.23 Q1623.64 1290.23 1627.02 1293.4 Q1630.4 1296.58 1630.4 1301.99 Q1630.4 1307.57 1626.93 1310.67 Q1623.46 1313.75 1617.14 1313.75 Q1614.96 1313.75 1612.7 1313.38 Q1610.45 1313.01 1608.04 1312.27 L1608.04 1307.57 Q1610.13 1308.7 1612.35 1309.26 Q1614.57 1309.82 1617.05 1309.82 Q1621.05 1309.82 1623.39 1307.71 Q1625.73 1305.6 1625.73 1301.99 Q1625.73 1298.38 1623.39 1296.27 Q1621.05 1294.17 1617.05 1294.17 Q1615.17 1294.17 1613.3 1294.58 Q1611.45 1295 1609.5 1295.88 L1609.5 1278.52 Z" fill="#000000" fill-rule="nonzero" fill-opacity="1" /><path clip-path="url(#clip870)" d="M1055.11 1356.05 Q1055.11 1356.95 1054.69 1357.18 Q1054.27 1357.37 1053.11 1357.37 L1046.93 1357.37 L1042.03 1376.82 Q1041.65 1378.53 1041.65 1379.98 Q1041.65 1381.59 1042.13 1382.3 Q1042.65 1383.01 1043.71 1383.01 Q1045.8 1383.01 1048.06 1381.11 Q1050.34 1379.21 1052.28 1374.57 Q1052.53 1373.96 1052.66 1373.83 Q1052.82 1373.67 1053.24 1373.67 Q1054.05 1373.67 1054.05 1374.31 Q1054.05 1374.54 1053.6 1375.57 Q1053.18 1376.6 1052.24 1378.11 Q1051.34 1379.62 1050.15 1381.04 Q1048.99 1382.46 1047.22 1383.49 Q1045.45 1384.49 1043.55 1384.49 Q1040.87 1384.49 1039.17 1382.78 Q1037.49 1381.07 1037.49 1378.4 Q1037.49 1377.53 1038.17 1374.76 Q1038.85 1371.96 1042.52 1357.37 L1036.69 1357.37 Q1035.88 1357.37 1035.56 1357.34 Q1035.27 1357.31 1035.05 1357.14 Q1034.85 1356.95 1034.85 1356.57 Q1034.85 1355.95 1035.11 1355.7 Q1035.37 1355.41 1035.69 1355.37 Q1036.04 1355.31 1036.85 1355.31 L1043.03 1355.31 L1045.61 1344.84 Q1045.87 1343.81 1046.51 1343.23 Q1047.19 1342.62 1047.57 1342.56 Q1047.96 1342.46 1048.25 1342.46 Q1049.12 1342.46 1049.63 1342.94 Q1050.15 1343.39 1050.15 1344.23 Q1050.15 1344.68 1047.44 1355.31 L1053.24 1355.31 Q1053.98 1355.31 1054.27 1355.34 Q1054.59 1355.37 1054.85 1355.53 Q1055.11 1355.7 1055.11 1356.05 Z" fill="#000000" fill-rule="nonzero" fill-opacity="1" /><polyline clip-path="url(#clip870)" style="stroke:#000000; stroke-linecap:round; stroke-linejoin:round; stroke-width:4; stroke-opacity:1; fill:none" points="220.52,1254.52 220.52,47.2441 "/>
<polyline clip-path="url(#clip870)" style="stroke:#000000; stroke-linecap:round; stroke-linejoin:round; stroke-width:4; stroke-opacity:1; fill:none" points="220.52,1254.52 239.418,1254.52 "/>
<polyline clip-path="url(#clip870)" style="stroke:#000000; stroke-linecap:round; stroke-linejoin:round; stroke-width:4; stroke-opacity:1; fill:none" points="220.52,906.267 239.418,906.267 "/>
<polyline clip-path="url(#clip870)" style="stroke:#000000; stroke-linecap:round; stroke-linejoin:round; stroke-width:4; stroke-opacity:1; fill:none" points="220.52,558.015 239.418,558.015 "/>
<polyline clip-path="url(#clip870)" style="stroke:#000000; stroke-linecap:round; stroke-linejoin:round; stroke-width:4; stroke-opacity:1; fill:none" points="220.52,209.762 239.418,209.762 "/>
<path clip-path="url(#clip870)" d="M134.545 1240.32 Q130.933 1240.32 129.105 1243.88 Q127.299 1247.42 127.299 1254.55 Q127.299 1261.66 129.105 1265.23 Q130.933 1268.77 134.545 1268.77 Q138.179 1268.77 139.984 1265.23 Q141.813 1261.66 141.813 1254.55 Q141.813 1247.42 139.984 1243.88 Q138.179 1240.32 134.545 1240.32 M134.545 1236.61 Q140.355 1236.61 143.41 1241.22 Q146.489 1245.8 146.489 1254.55 Q146.489 1263.28 143.41 1267.89 Q140.355 1272.47 134.545 1272.47 Q128.734 1272.47 125.656 1267.89 Q122.6 1263.28 122.6 1254.55 Q122.6 1245.8 125.656 1241.22 Q128.734 1236.61 134.545 1236.61 Z" fill="#000000" fill-rule="nonzero" fill-opacity="1" /><path clip-path="url(#clip870)" d="M154.706 1265.92 L159.591 1265.92 L159.591 1271.8 L154.706 1271.8 L154.706 1265.92 Z" fill="#000000" fill-rule="nonzero" fill-opacity="1" /><path clip-path="url(#clip870)" d="M179.776 1240.32 Q176.165 1240.32 174.336 1243.88 Q172.53 1247.42 172.53 1254.55 Q172.53 1261.66 174.336 1265.23 Q176.165 1268.77 179.776 1268.77 Q183.41 1268.77 185.216 1265.23 Q187.044 1261.66 187.044 1254.55 Q187.044 1247.42 185.216 1243.88 Q183.41 1240.32 179.776 1240.32 M179.776 1236.61 Q185.586 1236.61 188.641 1241.22 Q191.72 1245.8 191.72 1254.55 Q191.72 1263.28 188.641 1267.89 Q185.586 1272.47 179.776 1272.47 Q173.966 1272.47 170.887 1267.89 Q167.831 1263.28 167.831 1254.55 Q167.831 1245.8 170.887 1241.22 Q173.966 1236.61 179.776 1236.61 Z" fill="#000000" fill-rule="nonzero" fill-opacity="1" /><path clip-path="url(#clip870)" d="M135.54 892.066 Q131.929 892.066 130.1 895.631 Q128.295 899.172 128.295 906.302 Q128.295 913.408 130.1 916.973 Q131.929 920.515 135.54 920.515 Q139.174 920.515 140.98 916.973 Q142.808 913.408 142.808 906.302 Q142.808 899.172 140.98 895.631 Q139.174 892.066 135.54 892.066 M135.54 888.362 Q141.35 888.362 144.406 892.969 Q147.484 897.552 147.484 906.302 Q147.484 915.029 144.406 919.635 Q141.35 924.219 135.54 924.219 Q129.73 924.219 126.651 919.635 Q123.596 915.029 123.596 906.302 Q123.596 897.552 126.651 892.969 Q129.73 888.362 135.54 888.362 Z" fill="#000000" fill-rule="nonzero" fill-opacity="1" /><path clip-path="url(#clip870)" d="M155.702 917.668 L160.586 917.668 L160.586 923.547 L155.702 923.547 L155.702 917.668 Z" fill="#000000" fill-rule="nonzero" fill-opacity="1" /><path clip-path="url(#clip870)" d="M170.817 888.987 L189.174 888.987 L189.174 892.922 L175.1 892.922 L175.1 901.395 Q176.118 901.047 177.137 900.885 Q178.155 900.7 179.174 900.7 Q184.961 900.7 188.341 903.871 Q191.72 907.043 191.72 912.459 Q191.72 918.038 188.248 921.14 Q184.776 924.219 178.456 924.219 Q176.28 924.219 174.012 923.848 Q171.767 923.478 169.359 922.737 L169.359 918.038 Q171.442 919.172 173.665 919.728 Q175.887 920.283 178.364 920.283 Q182.368 920.283 184.706 918.177 Q187.044 916.07 187.044 912.459 Q187.044 908.848 184.706 906.742 Q182.368 904.635 178.364 904.635 Q176.489 904.635 174.614 905.052 Q172.762 905.469 170.817 906.348 L170.817 888.987 Z" fill="#000000" fill-rule="nonzero" fill-opacity="1" /><path clip-path="url(#clip870)" d="M125.355 571.359 L132.994 571.359 L132.994 544.994 L124.683 546.66 L124.683 542.401 L132.947 540.735 L137.623 540.735 L137.623 571.359 L145.262 571.359 L145.262 575.295 L125.355 575.295 L125.355 571.359 Z" fill="#000000" fill-rule="nonzero" fill-opacity="1" /><path clip-path="url(#clip870)" d="M154.706 569.415 L159.591 569.415 L159.591 575.295 L154.706 575.295 L154.706 569.415 Z" fill="#000000" fill-rule="nonzero" fill-opacity="1" /><path clip-path="url(#clip870)" d="M179.776 543.813 Q176.165 543.813 174.336 547.378 Q172.53 550.92 172.53 558.049 Q172.53 565.156 174.336 568.721 Q176.165 572.262 179.776 572.262 Q183.41 572.262 185.216 568.721 Q187.044 565.156 187.044 558.049 Q187.044 550.92 185.216 547.378 Q183.41 543.813 179.776 543.813 M179.776 540.11 Q185.586 540.11 188.641 544.716 Q191.72 549.299 191.72 558.049 Q191.72 566.776 188.641 571.383 Q185.586 575.966 179.776 575.966 Q173.966 575.966 170.887 571.383 Q167.831 566.776 167.831 558.049 Q167.831 549.299 170.887 544.716 Q173.966 540.11 179.776 540.11 Z" fill="#000000" fill-rule="nonzero" fill-opacity="1" /><path clip-path="url(#clip870)" d="M126.35 223.107 L133.989 223.107 L133.989 196.741 L125.679 198.408 L125.679 194.149 L133.943 192.482 L138.619 192.482 L138.619 223.107 L146.257 223.107 L146.257 227.042 L126.35 227.042 L126.35 223.107 Z" fill="#000000" fill-rule="nonzero" fill-opacity="1" /><path clip-path="url(#clip870)" d="M155.702 221.162 L160.586 221.162 L160.586 227.042 L155.702 227.042 L155.702 221.162 Z" fill="#000000" fill-rule="nonzero" fill-opacity="1" /><path clip-path="url(#clip870)" d="M170.817 192.482 L189.174 192.482 L189.174 196.417 L175.1 196.417 L175.1 204.889 Q176.118 204.542 177.137 204.38 Q178.155 204.195 179.174 204.195 Q184.961 204.195 188.341 207.366 Q191.72 210.537 191.72 215.954 Q191.72 221.533 188.248 224.635 Q184.776 227.713 178.456 227.713 Q176.28 227.713 174.012 227.343 Q171.767 226.973 169.359 226.232 L169.359 221.533 Q171.442 222.667 173.665 223.223 Q175.887 223.778 178.364 223.778 Q182.368 223.778 184.706 221.672 Q187.044 219.565 187.044 215.954 Q187.044 212.343 184.706 210.237 Q182.368 208.13 178.364 208.13 Q176.489 208.13 174.614 208.547 Q172.762 208.963 170.817 209.843 L170.817 192.482 Z" fill="#000000" fill-rule="nonzero" fill-opacity="1" /><path clip-path="url(#clip870)" d="M39.6552 674.408 Q41.4265 674.408 42.5215 675.535 Q43.6165 676.63 43.6165 678.015 Q43.6165 679.014 43.0046 679.754 Q42.3927 680.463 41.3299 680.463 Q40.2349 680.463 39.0755 679.626 Q37.9161 678.788 37.755 676.888 Q36.5634 678.144 36.5634 680.141 Q36.5634 681.139 37.2075 681.977 Q37.8194 682.782 38.8178 683.233 Q39.8484 683.716 45.6777 684.811 Q47.5778 685.165 49.4135 685.487 Q51.2493 685.809 53.1816 686.196 L53.1816 680.721 Q53.1816 680.012 53.2138 679.722 Q53.246 679.432 53.4071 679.207 Q53.5681 678.949 53.9224 678.949 Q54.8241 678.949 55.0496 679.368 Q55.2428 679.754 55.2428 680.914 L55.2428 686.582 L76.1444 690.543 Q76.7563 690.64 78.6887 691.059 Q80.5888 691.445 83.7128 692.379 Q86.869 693.313 88.7369 694.247 Q89.7997 694.762 90.7981 695.439 Q91.8287 696.083 92.8593 697.017 Q93.8898 697.951 94.5018 699.175 Q95.1459 700.398 95.1459 701.687 Q95.1459 703.877 93.922 705.584 Q92.6982 707.29 90.6048 707.29 Q88.8335 707.29 87.7385 706.195 Q86.6435 705.068 86.6435 703.683 Q86.6435 702.685 87.2554 701.976 Q87.8673 701.236 88.9301 701.236 Q89.381 701.236 89.8963 701.397 Q90.4116 701.558 90.9913 701.912 Q91.6032 702.266 92.0219 703.039 Q92.4406 703.812 92.505 704.875 Q93.6966 703.619 93.6966 701.687 Q93.6966 701.075 93.439 700.527 Q93.2135 699.98 92.6338 699.529 Q92.0541 699.046 91.4744 698.691 Q90.9269 698.337 89.8641 697.983 Q88.8335 697.629 88.0606 697.403 Q87.2876 697.178 85.9028 696.888 Q84.5179 696.566 83.6806 696.405 Q82.8754 696.244 81.2973 695.954 L55.2428 691.026 L55.2428 695.374 Q55.2428 696.147 55.2106 696.469 Q55.1784 696.759 55.0174 696.985 Q54.8241 697.21 54.4377 697.21 Q53.8257 697.21 53.5681 696.952 Q53.2782 696.662 53.246 696.34 Q53.1816 696.018 53.1816 695.245 L53.1816 690.672 Q45.0335 689.126 42.8436 688.514 Q40.5247 687.806 38.9144 686.711 Q37.2719 685.616 36.499 684.392 Q35.7261 683.168 35.4362 682.17 Q35.1141 681.139 35.1141 680.141 Q35.1141 677.886 36.338 676.147 Q37.5296 674.408 39.6552 674.408 Z" fill="#000000" fill-rule="nonzero" fill-opacity="1" /><path clip-path="url(#clip870)" d="M65.13 665.53 Q53.9868 665.53 45.0013 661.375 Q41.2333 659.604 38.0771 657.124 Q34.9209 654.644 33.5361 653.002 Q32.1512 651.359 32.1512 650.908 Q32.1512 650.264 32.7953 650.232 Q33.1174 650.232 33.9225 651.102 Q44.7437 661.729 65.13 661.697 Q85.5807 661.697 95.9832 651.359 Q97.1104 650.232 97.4647 650.232 Q98.1088 650.232 98.1088 650.908 Q98.1088 651.359 96.7884 652.937 Q95.4679 654.515 92.4406 656.963 Q89.4132 659.411 85.7096 661.182 Q76.7241 665.53 65.13 665.53 Z" fill="#000000" fill-rule="nonzero" fill-opacity="1" /><path clip-path="url(#clip870)" d="M53.9224 624.962 Q54.8241 624.962 55.0496 625.381 Q55.2428 625.799 55.2428 626.959 L55.2428 633.142 L74.6951 638.038 Q76.4021 638.424 77.8513 638.424 Q79.4616 638.424 80.1701 637.941 Q80.8787 637.426 80.8787 636.363 Q80.8787 634.27 78.9785 632.015 Q77.0784 629.729 72.4407 627.796 Q71.8288 627.539 71.7 627.41 Q71.539 627.249 71.539 626.83 Q71.539 626.025 72.1831 626.025 Q72.4085 626.025 73.4391 626.476 Q74.4697 626.894 75.9834 627.828 Q77.4971 628.73 78.9141 629.922 Q80.3312 631.081 81.3618 632.853 Q82.3601 634.624 82.3601 636.524 Q82.3601 639.197 80.6532 640.904 Q78.9463 642.579 76.2732 642.579 Q75.4037 642.579 72.634 641.902 Q69.8321 641.226 55.2428 637.555 L55.2428 643.384 Q55.2428 644.189 55.2106 644.511 Q55.1784 644.801 55.0174 645.026 Q54.8241 645.22 54.4377 645.22 Q53.8257 645.22 53.5681 644.962 Q53.2782 644.704 53.246 644.382 Q53.1816 644.028 53.1816 643.223 L53.1816 637.039 L42.7147 634.463 Q41.6841 634.205 41.1044 633.561 Q40.4925 632.885 40.4281 632.498 Q40.3315 632.112 40.3315 631.822 Q40.3315 630.952 40.8146 630.437 Q41.2655 629.922 42.1028 629.922 Q42.5537 629.922 53.1816 632.627 L53.1816 626.83 Q53.1816 626.089 53.2138 625.799 Q53.246 625.477 53.4071 625.22 Q53.5681 624.962 53.9224 624.962 Z" fill="#000000" fill-rule="nonzero" fill-opacity="1" /><path clip-path="url(#clip870)" d="M97.4647 619.8 Q97.1426 619.8 96.3375 618.962 Q85.5163 608.334 65.13 608.334 Q44.6793 608.334 34.3412 618.544 Q33.1496 619.8 32.7953 619.8 Q32.1512 619.8 32.1512 619.156 Q32.1512 618.705 33.4716 617.127 Q34.7921 615.516 37.8194 613.101 Q40.8468 610.653 44.5505 608.85 Q53.5359 604.502 65.13 604.502 Q76.2732 604.502 85.2587 608.656 Q89.0268 610.428 92.1829 612.908 Q95.3391 615.388 96.724 617.03 Q98.1088 618.672 98.1088 619.156 Q98.1088 619.8 97.4647 619.8 Z" fill="#000000" fill-rule="nonzero" fill-opacity="1" /><path clip-path="url(#clip872)" d="M220.52 627.665 L220.52 1254.52 L312.311 1254.52 L312.311 627.665 L220.52 627.665 L220.52 627.665  Z" fill="#009af9" fill-rule="evenodd" fill-opacity="1"/>
<polyline clip-path="url(#clip872)" style="stroke:#000000; stroke-linecap:round; stroke-linejoin:round; stroke-width:4; stroke-opacity:1; fill:none" points="220.52,627.665 220.52,1254.52 312.311,1254.52 312.311,627.665 220.52,627.665 "/>
<path clip-path="url(#clip872)" d="M312.311 395.497 L312.311 1254.52 L404.102 1254.52 L404.102 395.497 L312.311 395.497 L312.311 395.497  Z" fill="#009af9" fill-rule="evenodd" fill-opacity="1"/>
<polyline clip-path="url(#clip872)" style="stroke:#000000; stroke-linecap:round; stroke-linejoin:round; stroke-width:4; stroke-opacity:1; fill:none" points="312.311,395.497 312.311,1254.52 404.102,1254.52 404.102,395.497 312.311,395.497 "/>
<path clip-path="url(#clip872)" d="M404.102 47.2441 L404.102 1254.52 L495.893 1254.52 L495.893 47.2441 L404.102 47.2441 L404.102 47.2441  Z" fill="#009af9" fill-rule="evenodd" fill-opacity="1"/>
<polyline clip-path="url(#clip872)" style="stroke:#000000; stroke-linecap:round; stroke-linejoin:round; stroke-width:4; stroke-opacity:1; fill:none" points="404.102,47.2441 404.102,1254.52 495.893,1254.52 495.893,47.2441 404.102,47.2441 "/>
<path clip-path="url(#clip872)" d="M495.893 441.93 L495.893 1254.52 L587.684 1254.52 L587.684 441.93 L495.893 441.93 L495.893 441.93  Z" fill="#009af9" fill-rule="evenodd" fill-opacity="1"/>
<polyline clip-path="url(#clip872)" style="stroke:#000000; stroke-linecap:round; stroke-linejoin:round; stroke-width:4; stroke-opacity:1; fill:none" points="495.893,441.93 495.893,1254.52 587.684,1254.52 587.684,441.93 495.893,441.93 "/>
<path clip-path="url(#clip872)" d="M587.684 581.231 L587.684 1254.52 L679.475 1254.52 L679.475 581.231 L587.684 581.231 L587.684 581.231  Z" fill="#009af9" fill-rule="evenodd" fill-opacity="1"/>
<polyline clip-path="url(#clip872)" style="stroke:#000000; stroke-linecap:round; stroke-linejoin:round; stroke-width:4; stroke-opacity:1; fill:none" points="587.684,581.231 587.684,1254.52 679.475,1254.52 679.475,581.231 587.684,581.231 "/>
<path clip-path="url(#clip872)" d="M679.475 534.798 L679.475 1254.52 L771.265 1254.52 L771.265 534.798 L679.475 534.798 L679.475 534.798  Z" fill="#009af9" fill-rule="evenodd" fill-opacity="1"/>
<polyline clip-path="url(#clip872)" style="stroke:#000000; stroke-linecap:round; stroke-linejoin:round; stroke-width:4; stroke-opacity:1; fill:none" points="679.475,534.798 679.475,1254.52 771.265,1254.52 771.265,534.798 679.475,534.798 "/>
<path clip-path="url(#clip872)" d="M771.265 697.316 L771.265 1254.52 L863.056 1254.52 L863.056 697.316 L771.265 697.316 L771.265 697.316  Z" fill="#009af9" fill-rule="evenodd" fill-opacity="1"/>
<polyline clip-path="url(#clip872)" style="stroke:#000000; stroke-linecap:round; stroke-linejoin:round; stroke-width:4; stroke-opacity:1; fill:none" points="771.265,697.316 771.265,1254.52 863.056,1254.52 863.056,697.316 771.265,697.316 "/>
<path clip-path="url(#clip872)" d="M863.056 674.099 L863.056 1254.52 L954.847 1254.52 L954.847 674.099 L863.056 674.099 L863.056 674.099  Z" fill="#009af9" fill-rule="evenodd" fill-opacity="1"/>
<polyline clip-path="url(#clip872)" style="stroke:#000000; stroke-linecap:round; stroke-linejoin:round; stroke-width:4; stroke-opacity:1; fill:none" points="863.056,674.099 863.056,1254.52 954.847,1254.52 954.847,674.099 863.056,674.099 "/>
<path clip-path="url(#clip872)" d="M954.847 952.701 L954.847 1254.52 L1046.64 1254.52 L1046.64 952.701 L954.847 952.701 L954.847 952.701  Z" fill="#009af9" fill-rule="evenodd" fill-opacity="1"/>
<polyline clip-path="url(#clip872)" style="stroke:#000000; stroke-linecap:round; stroke-linejoin:round; stroke-width:4; stroke-opacity:1; fill:none" points="954.847,952.701 954.847,1254.52 1046.64,1254.52 1046.64,952.701 954.847,952.701 "/>
<path clip-path="url(#clip872)" d="M1046.64 1022.35 L1046.64 1254.52 L1138.43 1254.52 L1138.43 1022.35 L1046.64 1022.35 L1046.64 1022.35  Z" fill="#009af9" fill-rule="evenodd" fill-opacity="1"/>
<polyline clip-path="url(#clip872)" style="stroke:#000000; stroke-linecap:round; stroke-linejoin:round; stroke-width:4; stroke-opacity:1; fill:none" points="1046.64,1022.35 1046.64,1254.52 1138.43,1254.52 1138.43,1022.35 1046.64,1022.35 "/>
<path clip-path="url(#clip872)" d="M1138.43 1092 L1138.43 1254.52 L1230.22 1254.52 L1230.22 1092 L1138.43 1092 L1138.43 1092  Z" fill="#009af9" fill-rule="evenodd" fill-opacity="1"/>
<polyline clip-path="url(#clip872)" style="stroke:#000000; stroke-linecap:round; stroke-linejoin:round; stroke-width:4; stroke-opacity:1; fill:none" points="1138.43,1092 1138.43,1254.52 1230.22,1254.52 1230.22,1092 1138.43,1092 "/>
<path clip-path="url(#clip872)" d="M1230.22 1138.44 L1230.22 1254.52 L1322.01 1254.52 L1322.01 1138.44 L1230.22 1138.44 L1230.22 1138.44  Z" fill="#009af9" fill-rule="evenodd" fill-opacity="1"/>
<polyline clip-path="url(#clip872)" style="stroke:#000000; stroke-linecap:round; stroke-linejoin:round; stroke-width:4; stroke-opacity:1; fill:none" points="1230.22,1138.44 1230.22,1254.52 1322.01,1254.52 1322.01,1138.44 1230.22,1138.44 "/>
<path clip-path="url(#clip872)" d="M1322.01 1208.09 L1322.01 1254.52 L1413.8 1254.52 L1413.8 1208.09 L1322.01 1208.09 L1322.01 1208.09  Z" fill="#009af9" fill-rule="evenodd" fill-opacity="1"/>
<polyline clip-path="url(#clip872)" style="stroke:#000000; stroke-linecap:round; stroke-linejoin:round; stroke-width:4; stroke-opacity:1; fill:none" points="1322.01,1208.09 1322.01,1254.52 1413.8,1254.52 1413.8,1208.09 1322.01,1208.09 "/>
<path clip-path="url(#clip872)" d="M1413.8 1208.09 L1413.8 1254.52 L1505.59 1254.52 L1505.59 1208.09 L1413.8 1208.09 L1413.8 1208.09  Z" fill="#009af9" fill-rule="evenodd" fill-opacity="1"/>
<polyline clip-path="url(#clip872)" style="stroke:#000000; stroke-linecap:round; stroke-linejoin:round; stroke-width:4; stroke-opacity:1; fill:none" points="1413.8,1208.09 1413.8,1254.52 1505.59,1254.52 1505.59,1208.09 1413.8,1208.09 "/>
<path clip-path="url(#clip872)" d="M1505.59 1254.52 L1505.59 1254.52 L1597.38 1254.52 L1597.38 1254.52 L1505.59 1254.52 L1505.59 1254.52  Z" fill="#009af9" fill-rule="evenodd" fill-opacity="1"/>
<polyline clip-path="url(#clip872)" style="stroke:#000000; stroke-linecap:round; stroke-linejoin:round; stroke-width:4; stroke-opacity:1; fill:none" points="1505.59,1254.52 1505.59,1254.52 1597.38,1254.52 1505.59,1254.52 "/>
<path clip-path="url(#clip872)" d="M1597.38 1254.52 L1597.38 1254.52 L1689.17 1254.52 L1689.17 1254.52 L1597.38 1254.52 L1597.38 1254.52  Z" fill="#009af9" fill-rule="evenodd" fill-opacity="1"/>
<polyline clip-path="url(#clip872)" style="stroke:#000000; stroke-linecap:round; stroke-linejoin:round; stroke-width:4; stroke-opacity:1; fill:none" points="1597.38,1254.52 1597.38,1254.52 1689.17,1254.52 1597.38,1254.52 "/>
<path clip-path="url(#clip872)" d="M1689.17 1231.3 L1689.17 1254.52 L1780.97 1254.52 L1780.97 1231.3 L1689.17 1231.3 L1689.17 1231.3  Z" fill="#009af9" fill-rule="evenodd" fill-opacity="1"/>
<polyline clip-path="url(#clip872)" style="stroke:#000000; stroke-linecap:round; stroke-linejoin:round; stroke-width:4; stroke-opacity:1; fill:none" points="1689.17,1231.3 1689.17,1254.52 1780.97,1254.52 1780.97,1231.3 1689.17,1231.3 "/>
<circle clip-path="url(#clip872)" style="fill:#009af9; stroke:none; fill-opacity:0" cx="266.416" cy="627.665" r="2"/>
<circle clip-path="url(#clip872)" style="fill:#009af9; stroke:none; fill-opacity:0" cx="358.206" cy="395.497" r="2"/>
<circle clip-path="url(#clip872)" style="fill:#009af9; stroke:none; fill-opacity:0" cx="449.997" cy="47.2441" r="2"/>
<circle clip-path="url(#clip872)" style="fill:#009af9; stroke:none; fill-opacity:0" cx="541.788" cy="441.93" r="2"/>
<circle clip-path="url(#clip872)" style="fill:#009af9; stroke:none; fill-opacity:0" cx="633.579" cy="581.231" r="2"/>
<circle clip-path="url(#clip872)" style="fill:#009af9; stroke:none; fill-opacity:0" cx="725.37" cy="534.798" r="2"/>
<circle clip-path="url(#clip872)" style="fill:#009af9; stroke:none; fill-opacity:0" cx="817.161" cy="697.316" r="2"/>
<circle clip-path="url(#clip872)" style="fill:#009af9; stroke:none; fill-opacity:0" cx="908.952" cy="674.099" r="2"/>
<circle clip-path="url(#clip872)" style="fill:#009af9; stroke:none; fill-opacity:0" cx="1000.74" cy="952.701" r="2"/>
<circle clip-path="url(#clip872)" style="fill:#009af9; stroke:none; fill-opacity:0" cx="1092.53" cy="1022.35" r="2"/>
<circle clip-path="url(#clip872)" style="fill:#009af9; stroke:none; fill-opacity:0" cx="1184.32" cy="1092" r="2"/>
<circle clip-path="url(#clip872)" style="fill:#009af9; stroke:none; fill-opacity:0" cx="1276.12" cy="1138.44" r="2"/>
<circle clip-path="url(#clip872)" style="fill:#009af9; stroke:none; fill-opacity:0" cx="1367.91" cy="1208.09" r="2"/>
<circle clip-path="url(#clip872)" style="fill:#009af9; stroke:none; fill-opacity:0" cx="1459.7" cy="1208.09" r="2"/>
<circle clip-path="url(#clip872)" style="fill:#009af9; stroke:none; fill-opacity:0" cx="1551.49" cy="1254.52" r="2"/>
<circle clip-path="url(#clip872)" style="fill:#009af9; stroke:none; fill-opacity:0" cx="1643.28" cy="1254.52" r="2"/>
<circle clip-path="url(#clip872)" style="fill:#009af9; stroke:none; fill-opacity:0" cx="1735.07" cy="1231.3" r="2"/>
<polyline clip-path="url(#clip872)" style="stroke:#e26f46; stroke-linecap:round; stroke-linejoin:round; stroke-width:8; stroke-opacity:1; fill:none" points="220.52,1254.52 229.699,850.689 238.878,764.227 248.057,702.209 257.237,652.117 266.416,609.509 275.595,572.231 284.774,539.059 293.953,509.225 303.132,482.211 312.311,457.648 321.49,435.266 330.669,414.857 339.848,396.258 349.027,379.339 358.206,363.992 367.386,350.127 376.565,337.668 385.744,326.548 394.923,316.708 404.102,308.096 413.281,300.666 422.46,294.372 431.639,289.175 440.818,285.037 449.997,281.922 459.176,279.796 468.356,278.625 477.535,278.378 486.714,279.023 495.893,280.53 505.072,282.869 514.251,286.011 523.43,289.926 532.609,294.585 541.788,299.96 550.967,306.022 560.146,312.743 569.325,320.095 578.505,328.05 587.684,336.581 596.863,345.658 606.042,355.256 615.221,365.347 624.4,375.904 633.579,386.899 642.758,398.307 651.937,410.101 661.116,422.255 670.295,434.743 679.475,447.541 688.654,460.622 697.833,473.962 707.012,487.537 716.191,501.323 725.37,515.297 734.549,529.435 743.728,543.716 752.907,558.118 762.086,572.619 771.265,587.198 780.444,601.835 789.624,616.511 798.803,631.207 807.982,645.904 817.161,660.584 826.34,675.231 835.519,689.827 844.698,704.358 853.877,718.807 863.056,733.162 872.235,747.406 881.414,761.529 890.594,775.516 899.773,789.357 908.952,803.04 918.131,816.555 927.31,829.892 936.489,843.042 945.668,855.997 954.847,868.748 964.026,881.289 973.205,893.613 982.384,905.714 991.564,917.587 1000.74,929.226 1009.92,940.628 1019.1,951.79 1028.28,962.707 1037.46,973.377 1046.64,983.799 1055.82,993.97 1065,1003.89 1074.18,1013.56 1083.35,1022.97 1092.53,1032.14 1101.71,1041.05 1110.89,1049.71 1120.07,1058.12 1129.25,1066.28 1138.43,1074.2 1147.61,1081.87 1156.79,1089.31 1165.97,1096.5 1175.15,1103.46 1184.32,1110.19 1193.5,1116.69 1202.68,1122.96 1211.86,1129.02 1221.04,1134.86 1230.22,1140.48 1239.4,1145.9 1248.58,1151.11 1257.76,1156.12 1266.94,1160.94 1276.12,1165.57 1285.29,1170.02 1294.47,1174.28 1303.65,1178.37 1312.83,1182.28 1322.01,1186.03 1331.19,1189.62 1340.37,1193.06 1349.55,1196.34 1358.73,1199.47 1367.91,1202.47 1377.09,1205.32 1386.26,1208.05 1395.44,1210.64 1404.62,1213.12 1413.8,1215.47 1422.98,1217.71 1432.16,1219.84 1441.34,1221.86 1450.52,1223.78 1459.7,1225.6 1468.88,1227.33 1478.06,1228.97 1487.23,1230.52 1496.41,1231.99 1505.59,1233.38 1514.77,1234.7 1523.95,1235.94 1533.13,1237.11 1542.31,1238.22 1551.49,1239.27 1560.67,1240.26 1569.85,1241.19 1579.03,1242.06 1588.2,1242.89 1597.38,1243.66 1606.56,1244.39 1615.74,1245.07 1624.92,1245.72 1634.1,1246.32 1643.28,1246.89 1652.46,1247.42 1661.64,1247.92 1670.82,1248.38 1680,1248.82 1689.17,1249.23 1698.35,1249.61 1707.53,1249.97 1716.71,1250.3 1725.89,1250.61 1735.07,1250.9 1744.25,1251.17 1753.43,1251.42 1762.61,1251.65 1771.79,1251.87 1780.97,1252.07 1790.14,1252.26 1799.32,1252.44 1808.5,1252.6 1817.68,1252.75 1826.86,1252.89 1836.04,1253.02 1845.22,1253.14 1854.4,1253.25 1863.58,1253.35 1872.76,1253.45 1881.93,1253.54 1891.11,1253.62 1900.29,1253.69 1909.47,1253.76 1918.65,1253.82 1927.83,1253.88 1937.01,1253.94 1946.19,1253.99 1955.37,1254.03 1964.55,1254.08 1973.73,1254.11 1982.9,1254.15 1992.08,1254.18 2001.26,1254.21 2010.44,1254.24 2019.62,1254.26 2028.8,1254.29 2037.98,1254.31 2047.16,1254.33 2056.34,1254.35 "/>
</svg>
