<?xml version="1.0" encoding="utf-8"?>
<svg xmlns="http://www.w3.org/2000/svg" xmlns:xlink="http://www.w3.org/1999/xlink" width="480" height="360" viewBox="0 0 1920 1440">
<defs>
  <clipPath id="clip350">
    <rect x="0" y="0" width="1920" height="1440"/>
  </clipPath>
</defs>
<path clip-path="url(#clip350)" d="M0 1440 L1920 1440 L1920 0 L0 0  Z" fill="#ffffff" fill-rule="evenodd" fill-opacity="1"/>
<defs>
  <clipPath id="clip351">
    <rect x="384" y="0" width="1345" height="1345"/>
  </clipPath>
</defs>
<path clip-path="url(#clip350)" d="M250.682 1254.52 L1872.76 1254.52 L1872.76 47.2441 L250.682 47.2441  Z" fill="#ffffff" fill-rule="evenodd" fill-opacity="1"/>
<defs>
  <clipPath id="clip352">
    <rect x="250" y="47" width="1623" height="1208"/>
  </clipPath>
</defs>
<polyline clip-path="url(#clip352)" style="stroke:#000000; stroke-linecap:round; stroke-linejoin:round; stroke-width:2; stroke-opacity:0.1; fill:none" points="250.682,1254.52 250.682,47.2441 "/>
<polyline clip-path="url(#clip352)" style="stroke:#000000; stroke-linecap:round; stroke-linejoin:round; stroke-width:2; stroke-opacity:0.1; fill:none" points="742.22,1254.52 742.22,47.2441 "/>
<polyline clip-path="url(#clip352)" style="stroke:#000000; stroke-linecap:round; stroke-linejoin:round; stroke-width:2; stroke-opacity:0.1; fill:none" points="1233.76,1254.52 1233.76,47.2441 "/>
<polyline clip-path="url(#clip352)" style="stroke:#000000; stroke-linecap:round; stroke-linejoin:round; stroke-width:2; stroke-opacity:0.1; fill:none" points="1725.29,1254.52 1725.29,47.2441 "/>
<polyline clip-path="url(#clip352)" style="stroke:#000000; stroke-linecap:round; stroke-linejoin:round; stroke-width:2; stroke-opacity:0.1; fill:none" points="250.682,1144.77 1872.76,1144.77 "/>
<polyline clip-path="url(#clip352)" style="stroke:#000000; stroke-linecap:round; stroke-linejoin:round; stroke-width:2; stroke-opacity:0.1; fill:none" points="250.682,870.387 1872.76,870.387 "/>
<polyline clip-path="url(#clip352)" style="stroke:#000000; stroke-linecap:round; stroke-linejoin:round; stroke-width:2; stroke-opacity:0.1; fill:none" points="250.682,596.006 1872.76,596.006 "/>
<polyline clip-path="url(#clip352)" style="stroke:#000000; stroke-linecap:round; stroke-linejoin:round; stroke-width:2; stroke-opacity:0.1; fill:none" points="250.682,321.625 1872.76,321.625 "/>
<polyline clip-path="url(#clip352)" style="stroke:#000000; stroke-linecap:round; stroke-linejoin:round; stroke-width:2; stroke-opacity:0.1; fill:none" points="250.682,47.2441 1872.76,47.2441 "/>
<polyline clip-path="url(#clip350)" style="stroke:#000000; stroke-linecap:round; stroke-linejoin:round; stroke-width:4; stroke-opacity:1; fill:none" points="250.682,1254.52 1872.76,1254.52 "/>
<polyline clip-path="url(#clip350)" style="stroke:#000000; stroke-linecap:round; stroke-linejoin:round; stroke-width:4; stroke-opacity:1; fill:none" points="250.682,1254.52 250.682,1235.62 "/>
<polyline clip-path="url(#clip350)" style="stroke:#000000; stroke-linecap:round; stroke-linejoin:round; stroke-width:4; stroke-opacity:1; fill:none" points="742.22,1254.52 742.22,1235.62 "/>
<polyline clip-path="url(#clip350)" style="stroke:#000000; stroke-linecap:round; stroke-linejoin:round; stroke-width:4; stroke-opacity:1; fill:none" points="1233.76,1254.52 1233.76,1235.62 "/>
<polyline clip-path="url(#clip350)" style="stroke:#000000; stroke-linecap:round; stroke-linejoin:round; stroke-width:4; stroke-opacity:1; fill:none" points="1725.29,1254.52 1725.29,1235.62 "/>
<path clip-path="url(#clip350)" d="M250.682 1281.6 Q247.071 1281.6 245.242 1285.16 Q243.437 1288.7 243.437 1295.83 Q243.437 1302.94 245.242 1306.51 Q247.071 1310.05 250.682 1310.05 Q254.316 1310.05 256.122 1306.51 Q257.951 1302.94 257.951 1295.83 Q257.951 1288.7 256.122 1285.16 Q254.316 1281.6 250.682 1281.6 M250.682 1277.89 Q256.492 1277.89 259.548 1282.5 Q262.626 1287.08 262.626 1295.83 Q262.626 1304.56 259.548 1309.17 Q256.492 1313.75 250.682 1313.75 Q244.872 1313.75 241.793 1309.17 Q238.738 1304.56 238.738 1295.83 Q238.738 1287.08 241.793 1282.5 Q244.872 1277.89 250.682 1277.89 Z" fill="#000000" fill-rule="nonzero" fill-opacity="1" /><path clip-path="url(#clip350)" d="M716.907 1309.14 L724.546 1309.14 L724.546 1282.78 L716.236 1284.45 L716.236 1280.19 L724.5 1278.52 L729.176 1278.52 L729.176 1309.14 L736.815 1309.14 L736.815 1313.08 L716.907 1313.08 L716.907 1309.14 Z" fill="#000000" fill-rule="nonzero" fill-opacity="1" /><path clip-path="url(#clip350)" d="M756.259 1281.6 Q752.648 1281.6 750.819 1285.16 Q749.014 1288.7 749.014 1295.83 Q749.014 1302.94 750.819 1306.51 Q752.648 1310.05 756.259 1310.05 Q759.893 1310.05 761.699 1306.51 Q763.527 1302.94 763.527 1295.83 Q763.527 1288.7 761.699 1285.16 Q759.893 1281.6 756.259 1281.6 M756.259 1277.89 Q762.069 1277.89 765.125 1282.5 Q768.203 1287.08 768.203 1295.83 Q768.203 1304.56 765.125 1309.17 Q762.069 1313.75 756.259 1313.75 Q750.449 1313.75 747.37 1309.17 Q744.314 1304.56 744.314 1295.83 Q744.314 1287.08 747.37 1282.5 Q750.449 1277.89 756.259 1277.89 Z" fill="#000000" fill-rule="nonzero" fill-opacity="1" /><path clip-path="url(#clip350)" d="M1212.53 1309.14 L1228.85 1309.14 L1228.85 1313.08 L1206.91 1313.08 L1206.91 1309.14 Q1209.57 1306.39 1214.15 1301.76 Q1218.76 1297.11 1219.94 1295.77 Q1222.18 1293.24 1223.06 1291.51 Q1223.97 1289.75 1223.97 1288.06 Q1223.97 1285.3 1222.02 1283.57 Q1220.1 1281.83 1217 1281.83 Q1214.8 1281.83 1212.35 1282.59 Q1209.91 1283.36 1207.14 1284.91 L1207.14 1280.19 Q1209.96 1279.05 1212.41 1278.47 Q1214.87 1277.89 1216.91 1277.89 Q1222.28 1277.89 1225.47 1280.58 Q1228.66 1283.27 1228.66 1287.76 Q1228.66 1289.89 1227.85 1291.81 Q1227.07 1293.7 1224.96 1296.3 Q1224.38 1296.97 1221.28 1300.19 Q1218.18 1303.38 1212.53 1309.14 Z" fill="#000000" fill-rule="nonzero" fill-opacity="1" /><path clip-path="url(#clip350)" d="M1248.66 1281.6 Q1245.05 1281.6 1243.22 1285.16 Q1241.42 1288.7 1241.42 1295.83 Q1241.42 1302.94 1243.22 1306.51 Q1245.05 1310.05 1248.66 1310.05 Q1252.3 1310.05 1254.1 1306.51 Q1255.93 1302.94 1255.93 1295.83 Q1255.93 1288.7 1254.1 1285.16 Q1252.3 1281.6 1248.66 1281.6 M1248.66 1277.89 Q1254.47 1277.89 1257.53 1282.5 Q1260.61 1287.08 1260.61 1295.83 Q1260.61 1304.56 1257.53 1309.17 Q1254.47 1313.75 1248.66 1313.75 Q1242.85 1313.75 1239.78 1309.17 Q1236.72 1304.56 1236.72 1295.83 Q1236.72 1287.08 1239.78 1282.5 Q1242.85 1277.89 1248.66 1277.89 Z" fill="#000000" fill-rule="nonzero" fill-opacity="1" /><path clip-path="url(#clip350)" d="M1714.14 1294.45 Q1717.49 1295.16 1719.37 1297.43 Q1721.27 1299.7 1721.27 1303.03 Q1721.27 1308.15 1717.75 1310.95 Q1714.23 1313.75 1707.75 1313.75 Q1705.57 1313.75 1703.26 1313.31 Q1700.97 1312.89 1698.51 1312.04 L1698.51 1307.52 Q1700.46 1308.66 1702.77 1309.24 Q1705.09 1309.82 1707.61 1309.82 Q1712.01 1309.82 1714.3 1308.08 Q1716.61 1306.34 1716.61 1303.03 Q1716.61 1299.98 1714.46 1298.27 Q1712.33 1296.53 1708.51 1296.53 L1704.48 1296.53 L1704.48 1292.69 L1708.7 1292.69 Q1712.15 1292.69 1713.98 1291.32 Q1715.8 1289.93 1715.8 1287.34 Q1715.8 1284.68 1713.91 1283.27 Q1712.03 1281.83 1708.51 1281.83 Q1706.59 1281.83 1704.39 1282.25 Q1702.19 1282.66 1699.55 1283.54 L1699.55 1279.38 Q1702.22 1278.64 1704.53 1278.27 Q1706.87 1277.89 1708.93 1277.89 Q1714.25 1277.89 1717.35 1280.33 Q1720.46 1282.73 1720.46 1286.85 Q1720.46 1289.72 1718.81 1291.71 Q1717.17 1293.68 1714.14 1294.45 Z" fill="#000000" fill-rule="nonzero" fill-opacity="1" /><path clip-path="url(#clip350)" d="M1740.13 1281.6 Q1736.52 1281.6 1734.69 1285.16 Q1732.89 1288.7 1732.89 1295.83 Q1732.89 1302.94 1734.69 1306.51 Q1736.52 1310.05 1740.13 1310.05 Q1743.77 1310.05 1745.57 1306.51 Q1747.4 1302.94 1747.4 1295.83 Q1747.4 1288.7 1745.57 1285.16 Q1743.77 1281.6 1740.13 1281.6 M1740.13 1277.89 Q1745.94 1277.89 1749 1282.5 Q1752.08 1287.08 1752.08 1295.83 Q1752.08 1304.56 1749 1309.17 Q1745.94 1313.75 1740.13 1313.75 Q1734.32 1313.75 1731.24 1309.17 Q1728.19 1304.56 1728.19 1295.83 Q1728.19 1287.08 1731.24 1282.5 Q1734.32 1277.89 1740.13 1277.89 Z" fill="#000000" fill-rule="nonzero" fill-opacity="1" /><path clip-path="url(#clip350)" d="M1018.03 1342.66 L1023.89 1342.66 L1023.89 1392.18 L1018.03 1392.18 L1018.03 1342.66 Z" fill="#000000" fill-rule="nonzero" fill-opacity="1" /><path clip-path="url(#clip350)" d="M1052.35 1374.26 Q1045.25 1374.26 1042.51 1375.89 Q1039.77 1377.51 1039.77 1381.43 Q1039.77 1384.54 1041.81 1386.39 Q1043.88 1388.21 1047.41 1388.21 Q1052.28 1388.21 1055.21 1384.77 Q1058.17 1381.3 1058.17 1375.57 L1058.17 1374.26 L1052.35 1374.26 M1064.03 1371.85 L1064.03 1392.18 L1058.17 1392.18 L1058.17 1386.77 Q1056.16 1390.02 1053.17 1391.58 Q1050.18 1393.11 1045.85 1393.11 Q1040.38 1393.11 1037.13 1390.05 Q1033.92 1386.96 1033.92 1381.81 Q1033.92 1375.79 1037.93 1372.74 Q1041.97 1369.68 1049.96 1369.68 L1058.17 1369.68 L1058.17 1369.11 Q1058.17 1365.07 1055.5 1362.87 Q1052.85 1360.64 1048.05 1360.64 Q1044.99 1360.64 1042.1 1361.37 Q1039.2 1362.11 1036.53 1363.57 L1036.53 1358.16 Q1039.74 1356.92 1042.77 1356.31 Q1045.79 1355.68 1048.65 1355.68 Q1056.39 1355.68 1060.21 1359.69 Q1064.03 1363.7 1064.03 1371.85 Z" fill="#000000" fill-rule="nonzero" fill-opacity="1" /><path clip-path="url(#clip350)" d="M1099.55 1373.95 Q1099.55 1367.58 1096.91 1364.08 Q1094.3 1360.58 1089.55 1360.58 Q1084.84 1360.58 1082.2 1364.08 Q1079.59 1367.58 1079.59 1373.95 Q1079.59 1380.28 1082.2 1383.78 Q1084.84 1387.28 1089.55 1387.28 Q1094.3 1387.28 1096.91 1383.78 Q1099.55 1380.28 1099.55 1373.95 M1105.4 1387.76 Q1105.4 1396.86 1101.36 1401.29 Q1097.32 1405.74 1088.98 1405.74 Q1085.89 1405.74 1083.16 1405.27 Q1080.42 1404.82 1077.84 1403.86 L1077.84 1398.17 Q1080.42 1399.57 1082.93 1400.24 Q1085.45 1400.9 1088.06 1400.9 Q1093.82 1400.9 1096.68 1397.88 Q1099.55 1394.89 1099.55 1388.81 L1099.55 1385.91 Q1097.73 1389.06 1094.9 1390.62 Q1092.07 1392.18 1088.12 1392.18 Q1081.56 1392.18 1077.55 1387.19 Q1073.54 1382.19 1073.54 1373.95 Q1073.54 1365.67 1077.55 1360.67 Q1081.56 1355.68 1088.12 1355.68 Q1092.07 1355.68 1094.9 1357.24 Q1097.73 1358.8 1099.55 1361.95 L1099.55 1356.54 L1105.4 1356.54 L1105.4 1387.76 Z" fill="#000000" fill-rule="nonzero" fill-opacity="1" /><polyline clip-path="url(#clip350)" style="stroke:#000000; stroke-linecap:round; stroke-linejoin:round; stroke-width:4; stroke-opacity:1; fill:none" points="250.682,1254.52 250.682,47.2441 "/>
<polyline clip-path="url(#clip350)" style="stroke:#000000; stroke-linecap:round; stroke-linejoin:round; stroke-width:4; stroke-opacity:1; fill:none" points="250.682,1144.77 269.58,1144.77 "/>
<polyline clip-path="url(#clip350)" style="stroke:#000000; stroke-linecap:round; stroke-linejoin:round; stroke-width:4; stroke-opacity:1; fill:none" points="250.682,870.387 269.58,870.387 "/>
<polyline clip-path="url(#clip350)" style="stroke:#000000; stroke-linecap:round; stroke-linejoin:round; stroke-width:4; stroke-opacity:1; fill:none" points="250.682,596.006 269.58,596.006 "/>
<polyline clip-path="url(#clip350)" style="stroke:#000000; stroke-linecap:round; stroke-linejoin:round; stroke-width:4; stroke-opacity:1; fill:none" points="250.682,321.625 269.58,321.625 "/>
<polyline clip-path="url(#clip350)" style="stroke:#000000; stroke-linecap:round; stroke-linejoin:round; stroke-width:4; stroke-opacity:1; fill:none" points="250.682,47.2441 269.58,47.2441 "/>
<path clip-path="url(#clip350)" d="M134.545 1130.57 Q130.933 1130.57 129.105 1134.13 Q127.299 1137.67 127.299 1144.8 Q127.299 1151.91 129.105 1155.47 Q130.933 1159.02 134.545 1159.02 Q138.179 1159.02 139.984 1155.47 Q141.813 1151.91 141.813 1144.8 Q141.813 1137.67 139.984 1134.13 Q138.179 1130.57 134.545 1130.57 M134.545 1126.86 Q140.355 1126.86 143.41 1131.47 Q146.489 1136.05 146.489 1144.8 Q146.489 1153.53 143.41 1158.14 Q140.355 1162.72 134.545 1162.72 Q128.734 1162.72 125.656 1158.14 Q122.6 1153.53 122.6 1144.8 Q122.6 1136.05 125.656 1131.47 Q128.734 1126.86 134.545 1126.86 Z" fill="#000000" fill-rule="nonzero" fill-opacity="1" /><path clip-path="url(#clip350)" d="M154.706 1156.17 L159.591 1156.17 L159.591 1162.05 L154.706 1162.05 L154.706 1156.17 Z" fill="#000000" fill-rule="nonzero" fill-opacity="1" /><path clip-path="url(#clip350)" d="M179.776 1130.57 Q176.165 1130.57 174.336 1134.13 Q172.53 1137.67 172.53 1144.8 Q172.53 1151.91 174.336 1155.47 Q176.165 1159.02 179.776 1159.02 Q183.41 1159.02 185.216 1155.47 Q187.044 1151.91 187.044 1144.8 Q187.044 1137.67 185.216 1134.13 Q183.41 1130.57 179.776 1130.57 M179.776 1126.86 Q185.586 1126.86 188.641 1131.47 Q191.72 1136.05 191.72 1144.8 Q191.72 1153.53 188.641 1158.14 Q185.586 1162.72 179.776 1162.72 Q173.966 1162.72 170.887 1158.14 Q167.831 1153.53 167.831 1144.8 Q167.831 1136.05 170.887 1131.47 Q173.966 1126.86 179.776 1126.86 Z" fill="#000000" fill-rule="nonzero" fill-opacity="1" /><path clip-path="url(#clip350)" d="M209.938 1130.57 Q206.327 1130.57 204.498 1134.13 Q202.692 1137.67 202.692 1144.8 Q202.692 1151.91 204.498 1155.47 Q206.327 1159.02 209.938 1159.02 Q213.572 1159.02 215.377 1155.47 Q217.206 1151.91 217.206 1144.8 Q217.206 1137.67 215.377 1134.13 Q213.572 1130.57 209.938 1130.57 M209.938 1126.86 Q215.748 1126.86 218.803 1131.47 Q221.882 1136.05 221.882 1144.8 Q221.882 1153.53 218.803 1158.14 Q215.748 1162.72 209.938 1162.72 Q204.127 1162.72 201.049 1158.14 Q197.993 1153.53 197.993 1144.8 Q197.993 1136.05 201.049 1131.47 Q204.127 1126.86 209.938 1126.86 Z" fill="#000000" fill-rule="nonzero" fill-opacity="1" /><path clip-path="url(#clip350)" d="M135.54 856.185 Q131.929 856.185 130.1 859.75 Q128.295 863.292 128.295 870.421 Q128.295 877.528 130.1 881.093 Q131.929 884.634 135.54 884.634 Q139.174 884.634 140.98 881.093 Q142.808 877.528 142.808 870.421 Q142.808 863.292 140.98 859.75 Q139.174 856.185 135.54 856.185 M135.54 852.482 Q141.35 852.482 144.406 857.088 Q147.484 861.671 147.484 870.421 Q147.484 879.148 144.406 883.755 Q141.35 888.338 135.54 888.338 Q129.73 888.338 126.651 883.755 Q123.596 879.148 123.596 870.421 Q123.596 861.671 126.651 857.088 Q129.73 852.482 135.54 852.482 Z" fill="#000000" fill-rule="nonzero" fill-opacity="1" /><path clip-path="url(#clip350)" d="M155.702 881.787 L160.586 881.787 L160.586 887.667 L155.702 887.667 L155.702 881.787 Z" fill="#000000" fill-rule="nonzero" fill-opacity="1" /><path clip-path="url(#clip350)" d="M174.799 883.731 L191.118 883.731 L191.118 887.667 L169.174 887.667 L169.174 883.731 Q171.836 880.977 176.419 876.347 Q181.026 871.695 182.206 870.352 Q184.452 867.829 185.331 866.093 Q186.234 864.333 186.234 862.644 Q186.234 859.889 184.29 858.153 Q182.368 856.417 179.267 856.417 Q177.067 856.417 174.614 857.181 Q172.183 857.945 169.405 859.496 L169.405 854.773 Q172.23 853.639 174.683 853.06 Q177.137 852.482 179.174 852.482 Q184.544 852.482 187.739 855.167 Q190.933 857.852 190.933 862.343 Q190.933 864.472 190.123 866.394 Q189.336 868.292 187.229 870.884 Q186.651 871.556 183.549 874.773 Q180.447 877.968 174.799 883.731 Z" fill="#000000" fill-rule="nonzero" fill-opacity="1" /><path clip-path="url(#clip350)" d="M200.979 853.107 L219.336 853.107 L219.336 857.042 L205.262 857.042 L205.262 865.514 Q206.28 865.167 207.299 865.005 Q208.317 864.82 209.336 864.82 Q215.123 864.82 218.502 867.991 Q221.882 871.162 221.882 876.579 Q221.882 882.157 218.41 885.259 Q214.938 888.338 208.618 888.338 Q206.442 888.338 204.174 887.968 Q201.928 887.597 199.521 886.856 L199.521 882.157 Q201.604 883.292 203.827 883.847 Q206.049 884.403 208.526 884.403 Q212.53 884.403 214.868 882.296 Q217.206 880.19 217.206 876.579 Q217.206 872.968 214.868 870.861 Q212.53 868.755 208.526 868.755 Q206.651 868.755 204.776 869.171 Q202.924 869.588 200.979 870.468 L200.979 853.107 Z" fill="#000000" fill-rule="nonzero" fill-opacity="1" /><path clip-path="url(#clip350)" d="M134.545 581.804 Q130.933 581.804 129.105 585.369 Q127.299 588.911 127.299 596.041 Q127.299 603.147 129.105 606.712 Q130.933 610.253 134.545 610.253 Q138.179 610.253 139.984 606.712 Q141.813 603.147 141.813 596.041 Q141.813 588.911 139.984 585.369 Q138.179 581.804 134.545 581.804 M134.545 578.101 Q140.355 578.101 143.41 582.707 Q146.489 587.291 146.489 596.041 Q146.489 604.767 143.41 609.374 Q140.355 613.957 134.545 613.957 Q128.734 613.957 125.656 609.374 Q122.6 604.767 122.6 596.041 Q122.6 587.291 125.656 582.707 Q128.734 578.101 134.545 578.101 Z" fill="#000000" fill-rule="nonzero" fill-opacity="1" /><path clip-path="url(#clip350)" d="M154.706 607.406 L159.591 607.406 L159.591 613.286 L154.706 613.286 L154.706 607.406 Z" fill="#000000" fill-rule="nonzero" fill-opacity="1" /><path clip-path="url(#clip350)" d="M169.822 578.726 L188.179 578.726 L188.179 582.661 L174.105 582.661 L174.105 591.133 Q175.123 590.786 176.142 590.624 Q177.16 590.439 178.179 590.439 Q183.966 590.439 187.345 593.61 Q190.725 596.781 190.725 602.198 Q190.725 607.777 187.253 610.878 Q183.78 613.957 177.461 613.957 Q175.285 613.957 173.017 613.587 Q170.771 613.216 168.364 612.476 L168.364 607.777 Q170.447 608.911 172.669 609.466 Q174.892 610.022 177.368 610.022 Q181.373 610.022 183.711 607.915 Q186.049 605.809 186.049 602.198 Q186.049 598.587 183.711 596.48 Q181.373 594.374 177.368 594.374 Q175.493 594.374 173.618 594.791 Q171.767 595.207 169.822 596.087 L169.822 578.726 Z" fill="#000000" fill-rule="nonzero" fill-opacity="1" /><path clip-path="url(#clip350)" d="M209.938 581.804 Q206.327 581.804 204.498 585.369 Q202.692 588.911 202.692 596.041 Q202.692 603.147 204.498 606.712 Q206.327 610.253 209.938 610.253 Q213.572 610.253 215.377 606.712 Q217.206 603.147 217.206 596.041 Q217.206 588.911 215.377 585.369 Q213.572 581.804 209.938 581.804 M209.938 578.101 Q215.748 578.101 218.803 582.707 Q221.882 587.291 221.882 596.041 Q221.882 604.767 218.803 609.374 Q215.748 613.957 209.938 613.957 Q204.127 613.957 201.049 609.374 Q197.993 604.767 197.993 596.041 Q197.993 587.291 201.049 582.707 Q204.127 578.101 209.938 578.101 Z" fill="#000000" fill-rule="nonzero" fill-opacity="1" /><path clip-path="url(#clip350)" d="M135.54 307.424 Q131.929 307.424 130.1 310.988 Q128.295 314.53 128.295 321.66 Q128.295 328.766 130.1 332.331 Q131.929 335.873 135.54 335.873 Q139.174 335.873 140.98 332.331 Q142.808 328.766 142.808 321.66 Q142.808 314.53 140.98 310.988 Q139.174 307.424 135.54 307.424 M135.54 303.72 Q141.35 303.72 144.406 308.326 Q147.484 312.91 147.484 321.66 Q147.484 330.386 144.406 334.993 Q141.35 339.576 135.54 339.576 Q129.73 339.576 126.651 334.993 Q123.596 330.386 123.596 321.66 Q123.596 312.91 126.651 308.326 Q129.73 303.72 135.54 303.72 Z" fill="#000000" fill-rule="nonzero" fill-opacity="1" /><path clip-path="url(#clip350)" d="M155.702 333.025 L160.586 333.025 L160.586 338.905 L155.702 338.905 L155.702 333.025 Z" fill="#000000" fill-rule="nonzero" fill-opacity="1" /><path clip-path="url(#clip350)" d="M169.591 304.345 L191.813 304.345 L191.813 306.336 L179.267 338.905 L174.382 338.905 L186.188 308.28 L169.591 308.28 L169.591 304.345 Z" fill="#000000" fill-rule="nonzero" fill-opacity="1" /><path clip-path="url(#clip350)" d="M200.979 304.345 L219.336 304.345 L219.336 308.28 L205.262 308.28 L205.262 316.752 Q206.28 316.405 207.299 316.243 Q208.317 316.058 209.336 316.058 Q215.123 316.058 218.502 319.229 Q221.882 322.4 221.882 327.817 Q221.882 333.396 218.41 336.498 Q214.938 339.576 208.618 339.576 Q206.442 339.576 204.174 339.206 Q201.928 338.836 199.521 338.095 L199.521 333.396 Q201.604 334.53 203.827 335.086 Q206.049 335.641 208.526 335.641 Q212.53 335.641 214.868 333.535 Q217.206 331.428 217.206 327.817 Q217.206 324.206 214.868 322.099 Q212.53 319.993 208.526 319.993 Q206.651 319.993 204.776 320.41 Q202.924 320.826 200.979 321.706 L200.979 304.345 Z" fill="#000000" fill-rule="nonzero" fill-opacity="1" /><path clip-path="url(#clip350)" d="M125.355 60.5889 L132.994 60.5889 L132.994 34.2233 L124.683 35.89 L124.683 31.6308 L132.947 29.9641 L137.623 29.9641 L137.623 60.5889 L145.262 60.5889 L145.262 64.5241 L125.355 64.5241 L125.355 60.5889 Z" fill="#000000" fill-rule="nonzero" fill-opacity="1" /><path clip-path="url(#clip350)" d="M154.706 58.6445 L159.591 58.6445 L159.591 64.5241 L154.706 64.5241 L154.706 58.6445 Z" fill="#000000" fill-rule="nonzero" fill-opacity="1" /><path clip-path="url(#clip350)" d="M179.776 33.0428 Q176.165 33.0428 174.336 36.6076 Q172.53 40.1492 172.53 47.2788 Q172.53 54.3853 174.336 57.9501 Q176.165 61.4917 179.776 61.4917 Q183.41 61.4917 185.216 57.9501 Q187.044 54.3853 187.044 47.2788 Q187.044 40.1492 185.216 36.6076 Q183.41 33.0428 179.776 33.0428 M179.776 29.3391 Q185.586 29.3391 188.641 33.9456 Q191.72 38.5289 191.72 47.2788 Q191.72 56.0056 188.641 60.6121 Q185.586 65.1954 179.776 65.1954 Q173.966 65.1954 170.887 60.6121 Q167.831 56.0056 167.831 47.2788 Q167.831 38.5289 170.887 33.9456 Q173.966 29.3391 179.776 29.3391 Z" fill="#000000" fill-rule="nonzero" fill-opacity="1" /><path clip-path="url(#clip350)" d="M209.938 33.0428 Q206.327 33.0428 204.498 36.6076 Q202.692 40.1492 202.692 47.2788 Q202.692 54.3853 204.498 57.9501 Q206.327 61.4917 209.938 61.4917 Q213.572 61.4917 215.377 57.9501 Q217.206 54.3853 217.206 47.2788 Q217.206 40.1492 215.377 36.6076 Q213.572 33.0428 209.938 33.0428 M209.938 29.3391 Q215.748 29.3391 218.803 33.9456 Q221.882 38.5289 221.882 47.2788 Q221.882 56.0056 218.803 60.6121 Q215.748 65.1954 209.938 65.1954 Q204.127 65.1954 201.049 60.6121 Q197.993 56.0056 197.993 47.2788 Q197.993 38.5289 201.049 33.9456 Q204.127 29.3391 209.938 29.3391 Z" fill="#000000" fill-rule="nonzero" fill-opacity="1" /><path clip-path="url(#clip350)" d="M38.358 690.19 L62.0066 698.911 L62.0066 681.437 L38.358 690.19 M32.0242 693.819 L32.0242 686.53 L79.5442 668.419 L79.5442 675.103 L67.3538 679.432 L67.3538 700.853 L79.5442 705.181 L79.5442 711.961 L32.0242 693.819 Z" fill="#000000" fill-rule="nonzero" fill-opacity="1" /><path clip-path="url(#clip350)" d="M35.6844 627.042 L42.4639 627.042 Q39.4402 630.289 37.9443 633.981 Q36.4483 637.641 36.4483 641.779 Q36.4483 649.927 41.4454 654.256 Q46.4107 658.584 55.8319 658.584 Q65.2213 658.584 70.2184 654.256 Q75.1836 649.927 75.1836 641.779 Q75.1836 637.641 73.6877 633.981 Q72.1918 630.289 69.1681 627.042 L75.8839 627.042 Q78.1755 630.416 79.3214 634.204 Q80.4672 637.96 80.4672 642.161 Q80.4672 652.951 73.8787 659.157 Q67.2583 665.364 55.8319 665.364 Q44.3736 665.364 37.7851 659.157 Q31.1648 652.951 31.1648 642.161 Q31.1648 637.896 32.3106 634.14 Q33.4246 630.353 35.6844 627.042 Z" fill="#000000" fill-rule="nonzero" fill-opacity="1" /><path clip-path="url(#clip350)" d="M32.0242 617.112 L32.0242 589.803 L37.435 589.803 L37.435 610.683 L51.4396 610.683 L51.4396 591.84 L56.8504 591.84 L56.8504 610.683 L79.5442 610.683 L79.5442 617.112 L32.0242 617.112 Z" fill="#000000" fill-rule="nonzero" fill-opacity="1" /><polyline clip-path="url(#clip352)" style="stroke:#e26f46; stroke-linecap:round; stroke-linejoin:round; stroke-width:4; stroke-opacity:1; fill:none" points="299.836,47.2441 348.99,972.109 398.143,1065.32 447.297,1089.11 496.451,1049.42 545.605,1072.37 594.758,1075.46 643.912,1121.45 693.066,1096.32 742.22,1135.98 791.373,1114.31 840.527,1129.1 889.681,1126.77 938.835,1082.68 987.988,1136.01 1037.14,1151.02 1086.3,1172.09 1135.45,1138.12 1184.6,1087.59 1233.76,1130.43 1282.91,1149.85 1332.06,1090.43 1381.22,1161.62 1430.37,1127.51 1479.53,1157.57 1528.68,1147.25 1577.83,1137.16 1626.99,1173.21 1676.14,1149.61 1725.29,1124.98 1774.45,1161.07 1823.6,1160.85 1872.76,1170.6 1921.91,1117.21 "/>
<polyline clip-path="url(#clip352)" style="stroke:#000000; stroke-linecap:round; stroke-linejoin:round; stroke-width:4; stroke-opacity:1; fill:none" stroke-dasharray="16, 10" points="-1371.39,1144.77 3494.83,1144.77 "/>
</svg>
