<?xml version="1.0" encoding="utf-8"?>
<svg xmlns="http://www.w3.org/2000/svg" xmlns:xlink="http://www.w3.org/1999/xlink" width="480" height="360" viewBox="0 0 1920 1440">
<defs>
  <clipPath id="clip190">
    <rect x="0" y="0" width="1920" height="1440"/>
  </clipPath>
</defs>
<path clip-path="url(#clip190)" d="M0 1440 L1920 1440 L1920 0 L0 0  Z" fill="#ffffff" fill-rule="evenodd" fill-opacity="1"/>
<defs>
  <clipPath id="clip191">
    <rect x="384" y="0" width="1345" height="1345"/>
  </clipPath>
</defs>
<path clip-path="url(#clip190)" d="M181.474 1254.52 L1872.76 1254.52 L1872.76 47.2441 L181.474 47.2441  Z" fill="#ffffff" fill-rule="evenodd" fill-opacity="1"/>
<defs>
  <clipPath id="clip192">
    <rect x="181" y="47" width="1692" height="1208"/>
  </clipPath>
</defs>
<polyline clip-path="url(#clip192)" style="stroke:#000000; stroke-linecap:round; stroke-linejoin:round; stroke-width:2; stroke-opacity:0.1; fill:none" points="181.474,1254.52 181.474,47.2441 "/>
<polyline clip-path="url(#clip192)" style="stroke:#000000; stroke-linecap:round; stroke-linejoin:round; stroke-width:2; stroke-opacity:0.1; fill:none" points="533.824,1254.52 533.824,47.2441 "/>
<polyline clip-path="url(#clip192)" style="stroke:#000000; stroke-linecap:round; stroke-linejoin:round; stroke-width:2; stroke-opacity:0.1; fill:none" points="886.175,1254.52 886.175,47.2441 "/>
<polyline clip-path="url(#clip192)" style="stroke:#000000; stroke-linecap:round; stroke-linejoin:round; stroke-width:2; stroke-opacity:0.1; fill:none" points="1238.53,1254.52 1238.53,47.2441 "/>
<polyline clip-path="url(#clip192)" style="stroke:#000000; stroke-linecap:round; stroke-linejoin:round; stroke-width:2; stroke-opacity:0.1; fill:none" points="1590.88,1254.52 1590.88,47.2441 "/>
<polyline clip-path="url(#clip192)" style="stroke:#000000; stroke-linecap:round; stroke-linejoin:round; stroke-width:2; stroke-opacity:0.1; fill:none" points="181.474,1254.52 1872.76,1254.52 "/>
<polyline clip-path="url(#clip192)" style="stroke:#000000; stroke-linecap:round; stroke-linejoin:round; stroke-width:2; stroke-opacity:0.1; fill:none" points="181.474,929.983 1872.76,929.983 "/>
<polyline clip-path="url(#clip192)" style="stroke:#000000; stroke-linecap:round; stroke-linejoin:round; stroke-width:2; stroke-opacity:0.1; fill:none" points="181.474,605.447 1872.76,605.447 "/>
<polyline clip-path="url(#clip192)" style="stroke:#000000; stroke-linecap:round; stroke-linejoin:round; stroke-width:2; stroke-opacity:0.1; fill:none" points="181.474,280.91 1872.76,280.91 "/>
<polyline clip-path="url(#clip190)" style="stroke:#000000; stroke-linecap:round; stroke-linejoin:round; stroke-width:4; stroke-opacity:1; fill:none" points="181.474,1254.52 1872.76,1254.52 "/>
<polyline clip-path="url(#clip190)" style="stroke:#000000; stroke-linecap:round; stroke-linejoin:round; stroke-width:4; stroke-opacity:1; fill:none" points="181.474,1254.52 181.474,1235.62 "/>
<polyline clip-path="url(#clip190)" style="stroke:#000000; stroke-linecap:round; stroke-linejoin:round; stroke-width:4; stroke-opacity:1; fill:none" points="533.824,1254.52 533.824,1235.62 "/>
<polyline clip-path="url(#clip190)" style="stroke:#000000; stroke-linecap:round; stroke-linejoin:round; stroke-width:4; stroke-opacity:1; fill:none" points="886.175,1254.52 886.175,1235.62 "/>
<polyline clip-path="url(#clip190)" style="stroke:#000000; stroke-linecap:round; stroke-linejoin:round; stroke-width:4; stroke-opacity:1; fill:none" points="1238.53,1254.52 1238.53,1235.62 "/>
<polyline clip-path="url(#clip190)" style="stroke:#000000; stroke-linecap:round; stroke-linejoin:round; stroke-width:4; stroke-opacity:1; fill:none" points="1590.88,1254.52 1590.88,1235.62 "/>
<path clip-path="url(#clip190)" d="M181.474 1281.6 Q177.863 1281.6 176.034 1285.16 Q174.229 1288.7 174.229 1295.83 Q174.229 1302.94 176.034 1306.51 Q177.863 1310.05 181.474 1310.05 Q185.108 1310.05 186.914 1306.51 Q188.742 1302.94 188.742 1295.83 Q188.742 1288.7 186.914 1285.16 Q185.108 1281.6 181.474 1281.6 M181.474 1277.89 Q187.284 1277.89 190.34 1282.5 Q193.418 1287.08 193.418 1295.83 Q193.418 1304.56 190.34 1309.17 Q187.284 1313.75 181.474 1313.75 Q175.664 1313.75 172.585 1309.17 Q169.53 1304.56 169.53 1295.83 Q169.53 1287.08 172.585 1282.5 Q175.664 1277.89 181.474 1277.89 Z" fill="#000000" fill-rule="nonzero" fill-opacity="1" /><path clip-path="url(#clip190)" d="M524.102 1278.52 L542.459 1278.52 L542.459 1282.46 L528.385 1282.46 L528.385 1290.93 Q529.403 1290.58 530.422 1290.42 Q531.44 1290.23 532.459 1290.23 Q538.246 1290.23 541.625 1293.4 Q545.005 1296.58 545.005 1301.99 Q545.005 1307.57 541.533 1310.67 Q538.06 1313.75 531.741 1313.75 Q529.565 1313.75 527.297 1313.38 Q525.051 1313.01 522.644 1312.27 L522.644 1307.57 Q524.727 1308.7 526.949 1309.26 Q529.172 1309.82 531.648 1309.82 Q535.653 1309.82 537.991 1307.71 Q540.329 1305.6 540.329 1301.99 Q540.329 1298.38 537.991 1296.27 Q535.653 1294.17 531.648 1294.17 Q529.773 1294.17 527.899 1294.58 Q526.047 1295 524.102 1295.88 L524.102 1278.52 Z" fill="#000000" fill-rule="nonzero" fill-opacity="1" /><path clip-path="url(#clip190)" d="M860.862 1309.14 L868.501 1309.14 L868.501 1282.78 L860.191 1284.45 L860.191 1280.19 L868.455 1278.52 L873.131 1278.52 L873.131 1309.14 L880.77 1309.14 L880.77 1313.08 L860.862 1313.08 L860.862 1309.14 Z" fill="#000000" fill-rule="nonzero" fill-opacity="1" /><path clip-path="url(#clip190)" d="M900.214 1281.6 Q896.603 1281.6 894.774 1285.16 Q892.969 1288.7 892.969 1295.83 Q892.969 1302.94 894.774 1306.51 Q896.603 1310.05 900.214 1310.05 Q903.848 1310.05 905.654 1306.51 Q907.483 1302.94 907.483 1295.83 Q907.483 1288.7 905.654 1285.16 Q903.848 1281.6 900.214 1281.6 M900.214 1277.89 Q906.024 1277.89 909.08 1282.5 Q912.158 1287.08 912.158 1295.83 Q912.158 1304.56 909.08 1309.17 Q906.024 1313.75 900.214 1313.75 Q894.404 1313.75 891.325 1309.17 Q888.27 1304.56 888.27 1295.83 Q888.27 1287.08 891.325 1282.5 Q894.404 1277.89 900.214 1277.89 Z" fill="#000000" fill-rule="nonzero" fill-opacity="1" /><path clip-path="url(#clip190)" d="M1213.71 1309.14 L1221.35 1309.14 L1221.35 1282.78 L1213.04 1284.45 L1213.04 1280.19 L1221.3 1278.52 L1225.98 1278.52 L1225.98 1309.14 L1233.62 1309.14 L1233.62 1313.08 L1213.71 1313.08 L1213.71 1309.14 Z" fill="#000000" fill-rule="nonzero" fill-opacity="1" /><path clip-path="url(#clip190)" d="M1243.11 1278.52 L1261.46 1278.52 L1261.46 1282.46 L1247.39 1282.46 L1247.39 1290.93 Q1248.41 1290.58 1249.43 1290.42 Q1250.45 1290.23 1251.46 1290.23 Q1257.25 1290.23 1260.63 1293.4 Q1264.01 1296.58 1264.01 1301.99 Q1264.01 1307.57 1260.54 1310.67 Q1257.07 1313.75 1250.75 1313.75 Q1248.57 1313.75 1246.3 1313.38 Q1244.06 1313.01 1241.65 1312.27 L1241.65 1307.57 Q1243.73 1308.7 1245.96 1309.26 Q1248.18 1309.82 1250.65 1309.82 Q1254.66 1309.82 1257 1307.71 Q1259.34 1305.6 1259.34 1301.99 Q1259.34 1298.38 1257 1296.27 Q1254.66 1294.17 1250.65 1294.17 Q1248.78 1294.17 1246.9 1294.58 Q1245.05 1295 1243.11 1295.88 L1243.11 1278.52 Z" fill="#000000" fill-rule="nonzero" fill-opacity="1" /><path clip-path="url(#clip190)" d="M1569.65 1309.14 L1585.97 1309.14 L1585.97 1313.08 L1564.02 1313.08 L1564.02 1309.14 Q1566.69 1306.39 1571.27 1301.76 Q1575.88 1297.11 1577.06 1295.77 Q1579.3 1293.24 1580.18 1291.51 Q1581.08 1289.75 1581.08 1288.06 Q1581.08 1285.3 1579.14 1283.57 Q1577.22 1281.83 1574.12 1281.83 Q1571.92 1281.83 1569.46 1282.59 Q1567.03 1283.36 1564.26 1284.91 L1564.26 1280.19 Q1567.08 1279.05 1569.53 1278.47 Q1571.99 1277.89 1574.02 1277.89 Q1579.39 1277.89 1582.59 1280.58 Q1585.78 1283.27 1585.78 1287.76 Q1585.78 1289.89 1584.97 1291.81 Q1584.19 1293.7 1582.08 1296.3 Q1581.5 1296.97 1578.4 1300.19 Q1575.3 1303.38 1569.65 1309.14 Z" fill="#000000" fill-rule="nonzero" fill-opacity="1" /><path clip-path="url(#clip190)" d="M1605.78 1281.6 Q1602.17 1281.6 1600.34 1285.16 Q1598.54 1288.7 1598.54 1295.83 Q1598.54 1302.94 1600.34 1306.51 Q1602.17 1310.05 1605.78 1310.05 Q1609.42 1310.05 1611.22 1306.51 Q1613.05 1302.94 1613.05 1295.83 Q1613.05 1288.7 1611.22 1285.16 Q1609.42 1281.6 1605.78 1281.6 M1605.78 1277.89 Q1611.59 1277.89 1614.65 1282.5 Q1617.73 1287.08 1617.73 1295.83 Q1617.73 1304.56 1614.65 1309.17 Q1611.59 1313.75 1605.78 1313.75 Q1599.97 1313.75 1596.89 1309.17 Q1593.84 1304.56 1593.84 1295.83 Q1593.84 1287.08 1596.89 1282.5 Q1599.97 1277.89 1605.78 1277.89 Z" fill="#000000" fill-rule="nonzero" fill-opacity="1" /><path clip-path="url(#clip190)" d="M1039.05 1353.36 Q1039.05 1358.77 1037.31 1364.85 Q1035.6 1370.91 1032.9 1375.8 Q1030.19 1380.67 1026.65 1383.89 Q1023.11 1387.08 1019.73 1387.08 Q1017.57 1387.08 1015.96 1385.88 Q1014.38 1384.66 1013.51 1382.63 Q1012.64 1380.57 1012.22 1378.32 Q1011.8 1376.03 1011.8 1373.55 Q1011.8 1369.84 1012.61 1365.82 Q1013.41 1361.76 1014.77 1358.09 Q1016.12 1354.39 1018.02 1351.04 Q1019.92 1347.66 1022.01 1345.21 Q1024.14 1342.73 1026.52 1341.28 Q1028.91 1339.83 1031.13 1339.83 Q1032.74 1339.83 1034.03 1340.54 Q1035.35 1341.21 1036.18 1342.41 Q1037.02 1343.56 1037.6 1344.95 Q1038.21 1346.33 1038.5 1347.94 Q1038.79 1349.52 1038.92 1350.84 Q1039.05 1352.13 1039.05 1353.36 M1034.7 1349.27 Q1034.7 1347.62 1034.57 1346.4 Q1034.45 1345.14 1034.09 1343.89 Q1033.74 1342.63 1032.96 1341.95 Q1032.22 1341.28 1031.06 1341.28 Q1027.68 1341.28 1023.88 1348.2 Q1022.66 1350.36 1021.56 1353.29 Q1020.47 1356.22 1020.08 1357.61 Q1019.69 1358.99 1018.79 1362.41 L1032.58 1362.41 Q1034.7 1353.61 1034.7 1349.27 M1032 1364.5 L1018.28 1364.5 Q1016.15 1372.55 1016.15 1377.57 Q1016.15 1381.95 1017.05 1383.79 Q1017.99 1385.59 1019.73 1385.59 Q1021.72 1385.59 1023.59 1383.6 Q1025.46 1381.57 1027.36 1377.9 Q1029.87 1373.13 1032 1364.5 Z" fill="#000000" fill-rule="nonzero" fill-opacity="1" /><polyline clip-path="url(#clip190)" style="stroke:#000000; stroke-linecap:round; stroke-linejoin:round; stroke-width:4; stroke-opacity:1; fill:none" points="181.474,1254.52 181.474,47.2441 "/>
<polyline clip-path="url(#clip190)" style="stroke:#000000; stroke-linecap:round; stroke-linejoin:round; stroke-width:4; stroke-opacity:1; fill:none" points="181.474,1254.52 200.372,1254.52 "/>
<polyline clip-path="url(#clip190)" style="stroke:#000000; stroke-linecap:round; stroke-linejoin:round; stroke-width:4; stroke-opacity:1; fill:none" points="181.474,929.983 200.372,929.983 "/>
<polyline clip-path="url(#clip190)" style="stroke:#000000; stroke-linecap:round; stroke-linejoin:round; stroke-width:4; stroke-opacity:1; fill:none" points="181.474,605.447 200.372,605.447 "/>
<polyline clip-path="url(#clip190)" style="stroke:#000000; stroke-linecap:round; stroke-linejoin:round; stroke-width:4; stroke-opacity:1; fill:none" points="181.474,280.91 200.372,280.91 "/>
<path clip-path="url(#clip190)" d="M65.3365 1240.32 Q61.7254 1240.32 59.8967 1243.88 Q58.0912 1247.42 58.0912 1254.55 Q58.0912 1261.66 59.8967 1265.23 Q61.7254 1268.77 65.3365 1268.77 Q68.9707 1268.77 70.7763 1265.23 Q72.605 1261.66 72.605 1254.55 Q72.605 1247.42 70.7763 1243.88 Q68.9707 1240.32 65.3365 1240.32 M65.3365 1236.61 Q71.1467 1236.61 74.2022 1241.22 Q77.2809 1245.8 77.2809 1254.55 Q77.2809 1263.28 74.2022 1267.89 Q71.1467 1272.47 65.3365 1272.47 Q59.5264 1272.47 56.4477 1267.89 Q53.3921 1263.28 53.3921 1254.55 Q53.3921 1245.8 56.4477 1241.22 Q59.5264 1236.61 65.3365 1236.61 Z" fill="#000000" fill-rule="nonzero" fill-opacity="1" /><path clip-path="url(#clip190)" d="M85.4984 1265.92 L90.3827 1265.92 L90.3827 1271.8 L85.4984 1271.8 L85.4984 1265.92 Z" fill="#000000" fill-rule="nonzero" fill-opacity="1" /><path clip-path="url(#clip190)" d="M110.568 1240.32 Q106.957 1240.32 105.128 1243.88 Q103.322 1247.42 103.322 1254.55 Q103.322 1261.66 105.128 1265.23 Q106.957 1268.77 110.568 1268.77 Q114.202 1268.77 116.008 1265.23 Q117.836 1261.66 117.836 1254.55 Q117.836 1247.42 116.008 1243.88 Q114.202 1240.32 110.568 1240.32 M110.568 1236.61 Q116.378 1236.61 119.433 1241.22 Q122.512 1245.8 122.512 1254.55 Q122.512 1263.28 119.433 1267.89 Q116.378 1272.47 110.568 1272.47 Q104.758 1272.47 101.679 1267.89 Q98.6234 1263.28 98.6234 1254.55 Q98.6234 1245.8 101.679 1241.22 Q104.758 1236.61 110.568 1236.61 Z" fill="#000000" fill-rule="nonzero" fill-opacity="1" /><path clip-path="url(#clip190)" d="M140.73 1240.32 Q137.119 1240.32 135.29 1243.88 Q133.484 1247.42 133.484 1254.55 Q133.484 1261.66 135.29 1265.23 Q137.119 1268.77 140.73 1268.77 Q144.364 1268.77 146.169 1265.23 Q147.998 1261.66 147.998 1254.55 Q147.998 1247.42 146.169 1243.88 Q144.364 1240.32 140.73 1240.32 M140.73 1236.61 Q146.54 1236.61 149.595 1241.22 Q152.674 1245.8 152.674 1254.55 Q152.674 1263.28 149.595 1267.89 Q146.54 1272.47 140.73 1272.47 Q134.919 1272.47 131.841 1267.89 Q128.785 1263.28 128.785 1254.55 Q128.785 1245.8 131.841 1241.22 Q134.919 1236.61 140.73 1236.61 Z" fill="#000000" fill-rule="nonzero" fill-opacity="1" /><path clip-path="url(#clip190)" d="M66.3319 915.782 Q62.7208 915.782 60.8921 919.347 Q59.0865 922.888 59.0865 930.018 Q59.0865 937.125 60.8921 940.689 Q62.7208 944.231 66.3319 944.231 Q69.9661 944.231 71.7717 940.689 Q73.6004 937.125 73.6004 930.018 Q73.6004 922.888 71.7717 919.347 Q69.9661 915.782 66.3319 915.782 M66.3319 912.078 Q72.142 912.078 75.1976 916.685 Q78.2763 921.268 78.2763 930.018 Q78.2763 938.745 75.1976 943.351 Q72.142 947.935 66.3319 947.935 Q60.5217 947.935 57.443 943.351 Q54.3875 938.745 54.3875 930.018 Q54.3875 921.268 57.443 916.685 Q60.5217 912.078 66.3319 912.078 Z" fill="#000000" fill-rule="nonzero" fill-opacity="1" /><path clip-path="url(#clip190)" d="M86.4938 941.384 L91.378 941.384 L91.378 947.263 L86.4938 947.263 L86.4938 941.384 Z" fill="#000000" fill-rule="nonzero" fill-opacity="1" /><path clip-path="url(#clip190)" d="M111.563 915.782 Q107.952 915.782 106.123 919.347 Q104.318 922.888 104.318 930.018 Q104.318 937.125 106.123 940.689 Q107.952 944.231 111.563 944.231 Q115.197 944.231 117.003 940.689 Q118.832 937.125 118.832 930.018 Q118.832 922.888 117.003 919.347 Q115.197 915.782 111.563 915.782 M111.563 912.078 Q117.373 912.078 120.429 916.685 Q123.507 921.268 123.507 930.018 Q123.507 938.745 120.429 943.351 Q117.373 947.935 111.563 947.935 Q105.753 947.935 102.674 943.351 Q99.6187 938.745 99.6187 930.018 Q99.6187 921.268 102.674 916.685 Q105.753 912.078 111.563 912.078 Z" fill="#000000" fill-rule="nonzero" fill-opacity="1" /><path clip-path="url(#clip190)" d="M131.771 912.703 L150.128 912.703 L150.128 916.639 L136.054 916.639 L136.054 925.111 Q137.072 924.763 138.091 924.601 Q139.109 924.416 140.128 924.416 Q145.915 924.416 149.294 927.588 Q152.674 930.759 152.674 936.175 Q152.674 941.754 149.202 944.856 Q145.73 947.935 139.41 947.935 Q137.234 947.935 134.966 947.564 Q132.72 947.194 130.313 946.453 L130.313 941.754 Q132.396 942.888 134.619 943.444 Q136.841 943.999 139.318 943.999 Q143.322 943.999 145.66 941.893 Q147.998 939.787 147.998 936.175 Q147.998 932.564 145.66 930.458 Q143.322 928.351 139.318 928.351 Q137.443 928.351 135.568 928.768 Q133.716 929.185 131.771 930.064 L131.771 912.703 Z" fill="#000000" fill-rule="nonzero" fill-opacity="1" /><path clip-path="url(#clip190)" d="M65.3365 591.246 Q61.7254 591.246 59.8967 594.81 Q58.0912 598.352 58.0912 605.482 Q58.0912 612.588 59.8967 616.153 Q61.7254 619.694 65.3365 619.694 Q68.9707 619.694 70.7763 616.153 Q72.605 612.588 72.605 605.482 Q72.605 598.352 70.7763 594.81 Q68.9707 591.246 65.3365 591.246 M65.3365 587.542 Q71.1467 587.542 74.2022 592.148 Q77.2809 596.732 77.2809 605.482 Q77.2809 614.208 74.2022 618.815 Q71.1467 623.398 65.3365 623.398 Q59.5264 623.398 56.4477 618.815 Q53.3921 614.208 53.3921 605.482 Q53.3921 596.732 56.4477 592.148 Q59.5264 587.542 65.3365 587.542 Z" fill="#000000" fill-rule="nonzero" fill-opacity="1" /><path clip-path="url(#clip190)" d="M85.4984 616.847 L90.3827 616.847 L90.3827 622.727 L85.4984 622.727 L85.4984 616.847 Z" fill="#000000" fill-rule="nonzero" fill-opacity="1" /><path clip-path="url(#clip190)" d="M101.378 618.792 L109.017 618.792 L109.017 592.426 L100.707 594.093 L100.707 589.834 L108.971 588.167 L113.646 588.167 L113.646 618.792 L121.285 618.792 L121.285 622.727 L101.378 622.727 L101.378 618.792 Z" fill="#000000" fill-rule="nonzero" fill-opacity="1" /><path clip-path="url(#clip190)" d="M140.73 591.246 Q137.119 591.246 135.29 594.81 Q133.484 598.352 133.484 605.482 Q133.484 612.588 135.29 616.153 Q137.119 619.694 140.73 619.694 Q144.364 619.694 146.169 616.153 Q147.998 612.588 147.998 605.482 Q147.998 598.352 146.169 594.81 Q144.364 591.246 140.73 591.246 M140.73 587.542 Q146.54 587.542 149.595 592.148 Q152.674 596.732 152.674 605.482 Q152.674 614.208 149.595 618.815 Q146.54 623.398 140.73 623.398 Q134.919 623.398 131.841 618.815 Q128.785 614.208 128.785 605.482 Q128.785 596.732 131.841 592.148 Q134.919 587.542 140.73 587.542 Z" fill="#000000" fill-rule="nonzero" fill-opacity="1" /><path clip-path="url(#clip190)" d="M66.3319 266.709 Q62.7208 266.709 60.8921 270.274 Q59.0865 273.815 59.0865 280.945 Q59.0865 288.052 60.8921 291.616 Q62.7208 295.158 66.3319 295.158 Q69.9661 295.158 71.7717 291.616 Q73.6004 288.052 73.6004 280.945 Q73.6004 273.815 71.7717 270.274 Q69.9661 266.709 66.3319 266.709 M66.3319 263.005 Q72.142 263.005 75.1976 267.612 Q78.2763 272.195 78.2763 280.945 Q78.2763 289.672 75.1976 294.278 Q72.142 298.862 66.3319 298.862 Q60.5217 298.862 57.443 294.278 Q54.3875 289.672 54.3875 280.945 Q54.3875 272.195 57.443 267.612 Q60.5217 263.005 66.3319 263.005 Z" fill="#000000" fill-rule="nonzero" fill-opacity="1" /><path clip-path="url(#clip190)" d="M86.4938 292.311 L91.378 292.311 L91.378 298.19 L86.4938 298.19 L86.4938 292.311 Z" fill="#000000" fill-rule="nonzero" fill-opacity="1" /><path clip-path="url(#clip190)" d="M102.373 294.255 L110.012 294.255 L110.012 267.89 L101.702 269.556 L101.702 265.297 L109.966 263.63 L114.642 263.63 L114.642 294.255 L122.281 294.255 L122.281 298.19 L102.373 298.19 L102.373 294.255 Z" fill="#000000" fill-rule="nonzero" fill-opacity="1" /><path clip-path="url(#clip190)" d="M131.771 263.63 L150.128 263.63 L150.128 267.566 L136.054 267.566 L136.054 276.038 Q137.072 275.69 138.091 275.528 Q139.109 275.343 140.128 275.343 Q145.915 275.343 149.294 278.515 Q152.674 281.686 152.674 287.102 Q152.674 292.681 149.202 295.783 Q145.73 298.862 139.41 298.862 Q137.234 298.862 134.966 298.491 Q132.72 298.121 130.313 297.38 L130.313 292.681 Q132.396 293.815 134.619 294.371 Q136.841 294.926 139.318 294.926 Q143.322 294.926 145.66 292.82 Q147.998 290.714 147.998 287.102 Q147.998 283.491 145.66 281.385 Q143.322 279.278 139.318 279.278 Q137.443 279.278 135.568 279.695 Q133.716 280.112 131.771 280.991 L131.771 263.63 Z" fill="#000000" fill-rule="nonzero" fill-opacity="1" /><path clip-path="url(#clip192)" d="M181.474 1235.05 L181.474 1254.52 L216.709 1254.52 L216.709 1235.05 L181.474 1235.05 L181.474 1235.05  Z" fill="#009af9" fill-rule="evenodd" fill-opacity="1"/>
<polyline clip-path="url(#clip192)" style="stroke:#000000; stroke-linecap:round; stroke-linejoin:round; stroke-width:4; stroke-opacity:1; fill:none" points="181.474,1235.05 181.474,1254.52 216.709,1254.52 216.709,1235.05 181.474,1235.05 "/>
<path clip-path="url(#clip192)" d="M216.709 1183.12 L216.709 1254.52 L251.944 1254.52 L251.944 1183.12 L216.709 1183.12 L216.709 1183.12  Z" fill="#009af9" fill-rule="evenodd" fill-opacity="1"/>
<polyline clip-path="url(#clip192)" style="stroke:#000000; stroke-linecap:round; stroke-linejoin:round; stroke-width:4; stroke-opacity:1; fill:none" points="216.709,1183.12 216.709,1254.52 251.944,1254.52 251.944,1183.12 216.709,1183.12 "/>
<path clip-path="url(#clip192)" d="M251.944 955.946 L251.944 1254.52 L287.179 1254.52 L287.179 955.946 L251.944 955.946 L251.944 955.946  Z" fill="#009af9" fill-rule="evenodd" fill-opacity="1"/>
<polyline clip-path="url(#clip192)" style="stroke:#000000; stroke-linecap:round; stroke-linejoin:round; stroke-width:4; stroke-opacity:1; fill:none" points="251.944,955.946 251.944,1254.52 287.179,1254.52 287.179,955.946 251.944,955.946 "/>
<path clip-path="url(#clip192)" d="M287.179 774.206 L287.179 1254.52 L322.414 1254.52 L322.414 774.206 L287.179 774.206 L287.179 774.206  Z" fill="#009af9" fill-rule="evenodd" fill-opacity="1"/>
<polyline clip-path="url(#clip192)" style="stroke:#000000; stroke-linecap:round; stroke-linejoin:round; stroke-width:4; stroke-opacity:1; fill:none" points="287.179,774.206 287.179,1254.52 322.414,1254.52 322.414,774.206 287.179,774.206 "/>
<path clip-path="url(#clip192)" d="M322.414 462.651 L322.414 1254.52 L357.649 1254.52 L357.649 462.651 L322.414 462.651 L322.414 462.651  Z" fill="#009af9" fill-rule="evenodd" fill-opacity="1"/>
<polyline clip-path="url(#clip192)" style="stroke:#000000; stroke-linecap:round; stroke-linejoin:round; stroke-width:4; stroke-opacity:1; fill:none" points="322.414,462.651 322.414,1254.52 357.649,1254.52 357.649,462.651 322.414,462.651 "/>
<path clip-path="url(#clip192)" d="M357.649 306.873 L357.649 1254.52 L392.884 1254.52 L392.884 306.873 L357.649 306.873 L357.649 306.873  Z" fill="#009af9" fill-rule="evenodd" fill-opacity="1"/>
<polyline clip-path="url(#clip192)" style="stroke:#000000; stroke-linecap:round; stroke-linejoin:round; stroke-width:4; stroke-opacity:1; fill:none" points="357.649,306.873 357.649,1254.52 392.884,1254.52 392.884,306.873 357.649,306.873 "/>
<path clip-path="url(#clip192)" d="M392.884 138.114 L392.884 1254.52 L428.119 1254.52 L428.119 138.114 L392.884 138.114 L392.884 138.114  Z" fill="#009af9" fill-rule="evenodd" fill-opacity="1"/>
<polyline clip-path="url(#clip192)" style="stroke:#000000; stroke-linecap:round; stroke-linejoin:round; stroke-width:4; stroke-opacity:1; fill:none" points="392.884,138.114 392.884,1254.52 428.119,1254.52 428.119,138.114 392.884,138.114 "/>
<path clip-path="url(#clip192)" d="M428.119 203.022 L428.119 1254.52 L463.354 1254.52 L463.354 203.022 L428.119 203.022 L428.119 203.022  Z" fill="#009af9" fill-rule="evenodd" fill-opacity="1"/>
<polyline clip-path="url(#clip192)" style="stroke:#000000; stroke-linecap:round; stroke-linejoin:round; stroke-width:4; stroke-opacity:1; fill:none" points="428.119,203.022 428.119,1254.52 463.354,1254.52 463.354,203.022 428.119,203.022 "/>
<path clip-path="url(#clip192)" d="M463.354 47.2441 L463.354 1254.52 L498.589 1254.52 L498.589 47.2441 L463.354 47.2441 L463.354 47.2441  Z" fill="#009af9" fill-rule="evenodd" fill-opacity="1"/>
<polyline clip-path="url(#clip192)" style="stroke:#000000; stroke-linecap:round; stroke-linejoin:round; stroke-width:4; stroke-opacity:1; fill:none" points="463.354,47.2441 463.354,1254.52 498.589,1254.52 498.589,47.2441 463.354,47.2441 "/>
<path clip-path="url(#clip192)" d="M498.589 157.587 L498.589 1254.52 L533.824 1254.52 L533.824 157.587 L498.589 157.587 L498.589 157.587  Z" fill="#009af9" fill-rule="evenodd" fill-opacity="1"/>
<polyline clip-path="url(#clip192)" style="stroke:#000000; stroke-linecap:round; stroke-linejoin:round; stroke-width:4; stroke-opacity:1; fill:none" points="498.589,157.587 498.589,1254.52 533.824,1254.52 533.824,157.587 498.589,157.587 "/>
<path clip-path="url(#clip192)" d="M533.824 313.364 L533.824 1254.52 L569.059 1254.52 L569.059 313.364 L533.824 313.364 L533.824 313.364  Z" fill="#009af9" fill-rule="evenodd" fill-opacity="1"/>
<polyline clip-path="url(#clip192)" style="stroke:#000000; stroke-linecap:round; stroke-linejoin:round; stroke-width:4; stroke-opacity:1; fill:none" points="533.824,313.364 533.824,1254.52 569.059,1254.52 569.059,313.364 533.824,313.364 "/>
<path clip-path="url(#clip192)" d="M569.059 423.706 L569.059 1254.52 L604.294 1254.52 L604.294 423.706 L569.059 423.706 L569.059 423.706  Z" fill="#009af9" fill-rule="evenodd" fill-opacity="1"/>
<polyline clip-path="url(#clip192)" style="stroke:#000000; stroke-linecap:round; stroke-linejoin:round; stroke-width:4; stroke-opacity:1; fill:none" points="569.059,423.706 569.059,1254.52 604.294,1254.52 604.294,423.706 569.059,423.706 "/>
<path clip-path="url(#clip192)" d="M604.294 579.484 L604.294 1254.52 L639.53 1254.52 L639.53 579.484 L604.294 579.484 L604.294 579.484  Z" fill="#009af9" fill-rule="evenodd" fill-opacity="1"/>
<polyline clip-path="url(#clip192)" style="stroke:#000000; stroke-linecap:round; stroke-linejoin:round; stroke-width:4; stroke-opacity:1; fill:none" points="604.294,579.484 604.294,1254.52 639.53,1254.52 639.53,579.484 604.294,579.484 "/>
<path clip-path="url(#clip192)" d="M639.53 644.391 L639.53 1254.52 L674.765 1254.52 L674.765 644.391 L639.53 644.391 L639.53 644.391  Z" fill="#009af9" fill-rule="evenodd" fill-opacity="1"/>
<polyline clip-path="url(#clip192)" style="stroke:#000000; stroke-linecap:round; stroke-linejoin:round; stroke-width:4; stroke-opacity:1; fill:none" points="639.53,644.391 639.53,1254.52 674.765,1254.52 674.765,644.391 639.53,644.391 "/>
<path clip-path="url(#clip192)" d="M674.765 793.678 L674.765 1254.52 L710 1254.52 L710 793.678 L674.765 793.678 L674.765 793.678  Z" fill="#009af9" fill-rule="evenodd" fill-opacity="1"/>
<polyline clip-path="url(#clip192)" style="stroke:#000000; stroke-linecap:round; stroke-linejoin:round; stroke-width:4; stroke-opacity:1; fill:none" points="674.765,793.678 674.765,1254.52 710,1254.52 710,793.678 674.765,793.678 "/>
<path clip-path="url(#clip192)" d="M710 845.604 L710 1254.52 L745.235 1254.52 L745.235 845.604 L710 845.604 L710 845.604  Z" fill="#009af9" fill-rule="evenodd" fill-opacity="1"/>
<polyline clip-path="url(#clip192)" style="stroke:#000000; stroke-linecap:round; stroke-linejoin:round; stroke-width:4; stroke-opacity:1; fill:none" points="710,845.604 710,1254.52 745.235,1254.52 745.235,845.604 710,845.604 "/>
<path clip-path="url(#clip192)" d="M745.235 917.002 L745.235 1254.52 L780.47 1254.52 L780.47 917.002 L745.235 917.002 L745.235 917.002  Z" fill="#009af9" fill-rule="evenodd" fill-opacity="1"/>
<polyline clip-path="url(#clip192)" style="stroke:#000000; stroke-linecap:round; stroke-linejoin:round; stroke-width:4; stroke-opacity:1; fill:none" points="745.235,917.002 745.235,1254.52 780.47,1254.52 780.47,917.002 745.235,917.002 "/>
<path clip-path="url(#clip192)" d="M780.47 897.53 L780.47 1254.52 L815.705 1254.52 L815.705 897.53 L780.47 897.53 L780.47 897.53  Z" fill="#009af9" fill-rule="evenodd" fill-opacity="1"/>
<polyline clip-path="url(#clip192)" style="stroke:#000000; stroke-linecap:round; stroke-linejoin:round; stroke-width:4; stroke-opacity:1; fill:none" points="780.47,897.53 780.47,1254.52 815.705,1254.52 815.705,897.53 780.47,897.53 "/>
<path clip-path="url(#clip192)" d="M815.705 994.891 L815.705 1254.52 L850.94 1254.52 L850.94 994.891 L815.705 994.891 L815.705 994.891  Z" fill="#009af9" fill-rule="evenodd" fill-opacity="1"/>
<polyline clip-path="url(#clip192)" style="stroke:#000000; stroke-linecap:round; stroke-linejoin:round; stroke-width:4; stroke-opacity:1; fill:none" points="815.705,994.891 815.705,1254.52 850.94,1254.52 850.94,994.891 815.705,994.891 "/>
<path clip-path="url(#clip192)" d="M850.94 1098.74 L850.94 1254.52 L886.175 1254.52 L886.175 1098.74 L850.94 1098.74 L850.94 1098.74  Z" fill="#009af9" fill-rule="evenodd" fill-opacity="1"/>
<polyline clip-path="url(#clip192)" style="stroke:#000000; stroke-linecap:round; stroke-linejoin:round; stroke-width:4; stroke-opacity:1; fill:none" points="850.94,1098.74 850.94,1254.52 886.175,1254.52 886.175,1098.74 850.94,1098.74 "/>
<path clip-path="url(#clip192)" d="M886.175 1040.33 L886.175 1254.52 L921.41 1254.52 L921.41 1040.33 L886.175 1040.33 L886.175 1040.33  Z" fill="#009af9" fill-rule="evenodd" fill-opacity="1"/>
<polyline clip-path="url(#clip192)" style="stroke:#000000; stroke-linecap:round; stroke-linejoin:round; stroke-width:4; stroke-opacity:1; fill:none" points="886.175,1040.33 886.175,1254.52 921.41,1254.52 921.41,1040.33 886.175,1040.33 "/>
<path clip-path="url(#clip192)" d="M921.41 1124.71 L921.41 1254.52 L956.645 1254.52 L956.645 1124.71 L921.41 1124.71 L921.41 1124.71  Z" fill="#009af9" fill-rule="evenodd" fill-opacity="1"/>
<polyline clip-path="url(#clip192)" style="stroke:#000000; stroke-linecap:round; stroke-linejoin:round; stroke-width:4; stroke-opacity:1; fill:none" points="921.41,1124.71 921.41,1254.52 956.645,1254.52 956.645,1124.71 921.41,1124.71 "/>
<path clip-path="url(#clip192)" d="M956.645 1150.67 L956.645 1254.52 L991.88 1254.52 L991.88 1150.67 L956.645 1150.67 L956.645 1150.67  Z" fill="#009af9" fill-rule="evenodd" fill-opacity="1"/>
<polyline clip-path="url(#clip192)" style="stroke:#000000; stroke-linecap:round; stroke-linejoin:round; stroke-width:4; stroke-opacity:1; fill:none" points="956.645,1150.67 956.645,1254.52 991.88,1254.52 991.88,1150.67 956.645,1150.67 "/>
<path clip-path="url(#clip192)" d="M991.88 1170.14 L991.88 1254.52 L1027.11 1254.52 L1027.11 1170.14 L991.88 1170.14 L991.88 1170.14  Z" fill="#009af9" fill-rule="evenodd" fill-opacity="1"/>
<polyline clip-path="url(#clip192)" style="stroke:#000000; stroke-linecap:round; stroke-linejoin:round; stroke-width:4; stroke-opacity:1; fill:none" points="991.88,1170.14 991.88,1254.52 1027.11,1254.52 1027.11,1170.14 991.88,1170.14 "/>
<path clip-path="url(#clip192)" d="M1027.11 1189.61 L1027.11 1254.52 L1062.35 1254.52 L1062.35 1189.61 L1027.11 1189.61 L1027.11 1189.61  Z" fill="#009af9" fill-rule="evenodd" fill-opacity="1"/>
<polyline clip-path="url(#clip192)" style="stroke:#000000; stroke-linecap:round; stroke-linejoin:round; stroke-width:4; stroke-opacity:1; fill:none" points="1027.11,1189.61 1027.11,1254.52 1062.35,1254.52 1062.35,1189.61 1027.11,1189.61 "/>
<path clip-path="url(#clip192)" d="M1062.35 1202.59 L1062.35 1254.52 L1097.59 1254.52 L1097.59 1202.59 L1062.35 1202.59 L1062.35 1202.59  Z" fill="#009af9" fill-rule="evenodd" fill-opacity="1"/>
<polyline clip-path="url(#clip192)" style="stroke:#000000; stroke-linecap:round; stroke-linejoin:round; stroke-width:4; stroke-opacity:1; fill:none" points="1062.35,1202.59 1062.35,1254.52 1097.59,1254.52 1097.59,1202.59 1062.35,1202.59 "/>
<path clip-path="url(#clip192)" d="M1097.59 1222.07 L1097.59 1254.52 L1132.82 1254.52 L1132.82 1222.07 L1097.59 1222.07 L1097.59 1222.07  Z" fill="#009af9" fill-rule="evenodd" fill-opacity="1"/>
<polyline clip-path="url(#clip192)" style="stroke:#000000; stroke-linecap:round; stroke-linejoin:round; stroke-width:4; stroke-opacity:1; fill:none" points="1097.59,1222.07 1097.59,1254.52 1132.82,1254.52 1132.82,1222.07 1097.59,1222.07 "/>
<path clip-path="url(#clip192)" d="M1132.82 1222.07 L1132.82 1254.52 L1168.06 1254.52 L1168.06 1222.07 L1132.82 1222.07 L1132.82 1222.07  Z" fill="#009af9" fill-rule="evenodd" fill-opacity="1"/>
<polyline clip-path="url(#clip192)" style="stroke:#000000; stroke-linecap:round; stroke-linejoin:round; stroke-width:4; stroke-opacity:1; fill:none" points="1132.82,1222.07 1132.82,1254.52 1168.06,1254.52 1168.06,1222.07 1132.82,1222.07 "/>
<path clip-path="url(#clip192)" d="M1168.06 1228.56 L1168.06 1254.52 L1203.29 1254.52 L1203.29 1228.56 L1168.06 1228.56 L1168.06 1228.56  Z" fill="#009af9" fill-rule="evenodd" fill-opacity="1"/>
<polyline clip-path="url(#clip192)" style="stroke:#000000; stroke-linecap:round; stroke-linejoin:round; stroke-width:4; stroke-opacity:1; fill:none" points="1168.06,1228.56 1168.06,1254.52 1203.29,1254.52 1203.29,1228.56 1168.06,1228.56 "/>
<path clip-path="url(#clip192)" d="M1203.29 1235.05 L1203.29 1254.52 L1238.53 1254.52 L1238.53 1235.05 L1203.29 1235.05 L1203.29 1235.05  Z" fill="#009af9" fill-rule="evenodd" fill-opacity="1"/>
<polyline clip-path="url(#clip192)" style="stroke:#000000; stroke-linecap:round; stroke-linejoin:round; stroke-width:4; stroke-opacity:1; fill:none" points="1203.29,1235.05 1203.29,1254.52 1238.53,1254.52 1238.53,1235.05 1203.29,1235.05 "/>
<path clip-path="url(#clip192)" d="M1238.53 1235.05 L1238.53 1254.52 L1273.76 1254.52 L1273.76 1235.05 L1238.53 1235.05 L1238.53 1235.05  Z" fill="#009af9" fill-rule="evenodd" fill-opacity="1"/>
<polyline clip-path="url(#clip192)" style="stroke:#000000; stroke-linecap:round; stroke-linejoin:round; stroke-width:4; stroke-opacity:1; fill:none" points="1238.53,1235.05 1238.53,1254.52 1273.76,1254.52 1273.76,1235.05 1238.53,1235.05 "/>
<path clip-path="url(#clip192)" d="M1273.76 1235.05 L1273.76 1254.52 L1309 1254.52 L1309 1235.05 L1273.76 1235.05 L1273.76 1235.05  Z" fill="#009af9" fill-rule="evenodd" fill-opacity="1"/>
<polyline clip-path="url(#clip192)" style="stroke:#000000; stroke-linecap:round; stroke-linejoin:round; stroke-width:4; stroke-opacity:1; fill:none" points="1273.76,1235.05 1273.76,1254.52 1309,1254.52 1309,1235.05 1273.76,1235.05 "/>
<path clip-path="url(#clip192)" d="M1309 1235.05 L1309 1254.52 L1344.23 1254.52 L1344.23 1235.05 L1309 1235.05 L1309 1235.05  Z" fill="#009af9" fill-rule="evenodd" fill-opacity="1"/>
<polyline clip-path="url(#clip192)" style="stroke:#000000; stroke-linecap:round; stroke-linejoin:round; stroke-width:4; stroke-opacity:1; fill:none" points="1309,1235.05 1309,1254.52 1344.23,1254.52 1344.23,1235.05 1309,1235.05 "/>
<path clip-path="url(#clip192)" d="M1344.23 1248.03 L1344.23 1254.52 L1379.47 1254.52 L1379.47 1248.03 L1344.23 1248.03 L1344.23 1248.03  Z" fill="#009af9" fill-rule="evenodd" fill-opacity="1"/>
<polyline clip-path="url(#clip192)" style="stroke:#000000; stroke-linecap:round; stroke-linejoin:round; stroke-width:4; stroke-opacity:1; fill:none" points="1344.23,1248.03 1344.23,1254.52 1379.47,1254.52 1379.47,1248.03 1344.23,1248.03 "/>
<path clip-path="url(#clip192)" d="M1379.47 1254.52 L1379.47 1254.52 L1414.7 1254.52 L1414.7 1254.52 L1379.47 1254.52 L1379.47 1254.52  Z" fill="#009af9" fill-rule="evenodd" fill-opacity="1"/>
<polyline clip-path="url(#clip192)" style="stroke:#000000; stroke-linecap:round; stroke-linejoin:round; stroke-width:4; stroke-opacity:1; fill:none" points="1379.47,1254.52 1379.47,1254.52 1414.7,1254.52 1379.47,1254.52 "/>
<path clip-path="url(#clip192)" d="M1414.7 1235.05 L1414.7 1254.52 L1449.94 1254.52 L1449.94 1235.05 L1414.7 1235.05 L1414.7 1235.05  Z" fill="#009af9" fill-rule="evenodd" fill-opacity="1"/>
<polyline clip-path="url(#clip192)" style="stroke:#000000; stroke-linecap:round; stroke-linejoin:round; stroke-width:4; stroke-opacity:1; fill:none" points="1414.7,1235.05 1414.7,1254.52 1449.94,1254.52 1449.94,1235.05 1414.7,1235.05 "/>
<path clip-path="url(#clip192)" d="M1449.94 1254.52 L1449.94 1254.52 L1485.17 1254.52 L1485.17 1254.52 L1449.94 1254.52 L1449.94 1254.52  Z" fill="#009af9" fill-rule="evenodd" fill-opacity="1"/>
<polyline clip-path="url(#clip192)" style="stroke:#000000; stroke-linecap:round; stroke-linejoin:round; stroke-width:4; stroke-opacity:1; fill:none" points="1449.94,1254.52 1449.94,1254.52 1485.17,1254.52 1449.94,1254.52 "/>
<path clip-path="url(#clip192)" d="M1485.17 1254.52 L1485.17 1254.52 L1520.41 1254.52 L1520.41 1254.52 L1485.17 1254.52 L1485.17 1254.52  Z" fill="#009af9" fill-rule="evenodd" fill-opacity="1"/>
<polyline clip-path="url(#clip192)" style="stroke:#000000; stroke-linecap:round; stroke-linejoin:round; stroke-width:4; stroke-opacity:1; fill:none" points="1485.17,1254.52 1485.17,1254.52 1520.41,1254.52 1485.17,1254.52 "/>
<path clip-path="url(#clip192)" d="M1520.41 1254.52 L1520.41 1254.52 L1555.64 1254.52 L1555.64 1254.52 L1520.41 1254.52 L1520.41 1254.52  Z" fill="#009af9" fill-rule="evenodd" fill-opacity="1"/>
<polyline clip-path="url(#clip192)" style="stroke:#000000; stroke-linecap:round; stroke-linejoin:round; stroke-width:4; stroke-opacity:1; fill:none" points="1520.41,1254.52 1520.41,1254.52 1555.64,1254.52 1520.41,1254.52 "/>
<path clip-path="url(#clip192)" d="M1555.64 1248.03 L1555.64 1254.52 L1590.88 1254.52 L1590.88 1248.03 L1555.64 1248.03 L1555.64 1248.03  Z" fill="#009af9" fill-rule="evenodd" fill-opacity="1"/>
<polyline clip-path="url(#clip192)" style="stroke:#000000; stroke-linecap:round; stroke-linejoin:round; stroke-width:4; stroke-opacity:1; fill:none" points="1555.64,1248.03 1555.64,1254.52 1590.88,1254.52 1590.88,1248.03 1555.64,1248.03 "/>
<path clip-path="url(#clip192)" d="M1590.88 1254.52 L1590.88 1254.52 L1626.11 1254.52 L1626.11 1254.52 L1590.88 1254.52 L1590.88 1254.52  Z" fill="#009af9" fill-rule="evenodd" fill-opacity="1"/>
<polyline clip-path="url(#clip192)" style="stroke:#000000; stroke-linecap:round; stroke-linejoin:round; stroke-width:4; stroke-opacity:1; fill:none" points="1590.88,1254.52 1590.88,1254.52 1626.11,1254.52 1590.88,1254.52 "/>
<path clip-path="url(#clip192)" d="M1626.11 1254.52 L1626.11 1254.52 L1661.35 1254.52 L1661.35 1254.52 L1626.11 1254.52 L1626.11 1254.52  Z" fill="#009af9" fill-rule="evenodd" fill-opacity="1"/>
<polyline clip-path="url(#clip192)" style="stroke:#000000; stroke-linecap:round; stroke-linejoin:round; stroke-width:4; stroke-opacity:1; fill:none" points="1626.11,1254.52 1626.11,1254.52 1661.35,1254.52 1626.11,1254.52 "/>
<path clip-path="url(#clip192)" d="M1661.35 1254.52 L1661.35 1254.52 L1696.58 1254.52 L1696.58 1254.52 L1661.35 1254.52 L1661.35 1254.52  Z" fill="#009af9" fill-rule="evenodd" fill-opacity="1"/>
<polyline clip-path="url(#clip192)" style="stroke:#000000; stroke-linecap:round; stroke-linejoin:round; stroke-width:4; stroke-opacity:1; fill:none" points="1661.35,1254.52 1661.35,1254.52 1696.58,1254.52 1661.35,1254.52 "/>
<path clip-path="url(#clip192)" d="M1696.58 1248.03 L1696.58 1254.52 L1731.82 1254.52 L1731.82 1248.03 L1696.58 1248.03 L1696.58 1248.03  Z" fill="#009af9" fill-rule="evenodd" fill-opacity="1"/>
<polyline clip-path="url(#clip192)" style="stroke:#000000; stroke-linecap:round; stroke-linejoin:round; stroke-width:4; stroke-opacity:1; fill:none" points="1696.58,1248.03 1696.58,1254.52 1731.82,1254.52 1731.82,1248.03 1696.58,1248.03 "/>
<path clip-path="url(#clip192)" d="M1731.82 1254.52 L1731.82 1254.52 L1767.05 1254.52 L1767.05 1254.52 L1731.82 1254.52 L1731.82 1254.52  Z" fill="#009af9" fill-rule="evenodd" fill-opacity="1"/>
<polyline clip-path="url(#clip192)" style="stroke:#000000; stroke-linecap:round; stroke-linejoin:round; stroke-width:4; stroke-opacity:1; fill:none" points="1731.82,1254.52 1731.82,1254.52 1767.05,1254.52 1731.82,1254.52 "/>
<path clip-path="url(#clip192)" d="M1767.05 1248.03 L1767.05 1254.52 L1802.29 1254.52 L1802.29 1248.03 L1767.05 1248.03 L1767.05 1248.03  Z" fill="#009af9" fill-rule="evenodd" fill-opacity="1"/>
<polyline clip-path="url(#clip192)" style="stroke:#000000; stroke-linecap:round; stroke-linejoin:round; stroke-width:4; stroke-opacity:1; fill:none" points="1767.05,1248.03 1767.05,1254.52 1802.29,1254.52 1802.29,1248.03 1767.05,1248.03 "/>
<circle clip-path="url(#clip192)" style="fill:#009af9; stroke:none; fill-opacity:0" cx="199.092" cy="1235.05" r="2"/>
<circle clip-path="url(#clip192)" style="fill:#009af9; stroke:none; fill-opacity:0" cx="234.327" cy="1183.12" r="2"/>
<circle clip-path="url(#clip192)" style="fill:#009af9; stroke:none; fill-opacity:0" cx="269.562" cy="955.946" r="2"/>
<circle clip-path="url(#clip192)" style="fill:#009af9; stroke:none; fill-opacity:0" cx="304.797" cy="774.206" r="2"/>
<circle clip-path="url(#clip192)" style="fill:#009af9; stroke:none; fill-opacity:0" cx="340.032" cy="462.651" r="2"/>
<circle clip-path="url(#clip192)" style="fill:#009af9; stroke:none; fill-opacity:0" cx="375.267" cy="306.873" r="2"/>
<circle clip-path="url(#clip192)" style="fill:#009af9; stroke:none; fill-opacity:0" cx="410.502" cy="138.114" r="2"/>
<circle clip-path="url(#clip192)" style="fill:#009af9; stroke:none; fill-opacity:0" cx="445.737" cy="203.022" r="2"/>
<circle clip-path="url(#clip192)" style="fill:#009af9; stroke:none; fill-opacity:0" cx="480.972" cy="47.2441" r="2"/>
<circle clip-path="url(#clip192)" style="fill:#009af9; stroke:none; fill-opacity:0" cx="516.207" cy="157.587" r="2"/>
<circle clip-path="url(#clip192)" style="fill:#009af9; stroke:none; fill-opacity:0" cx="551.442" cy="313.364" r="2"/>
<circle clip-path="url(#clip192)" style="fill:#009af9; stroke:none; fill-opacity:0" cx="586.677" cy="423.706" r="2"/>
<circle clip-path="url(#clip192)" style="fill:#009af9; stroke:none; fill-opacity:0" cx="621.912" cy="579.484" r="2"/>
<circle clip-path="url(#clip192)" style="fill:#009af9; stroke:none; fill-opacity:0" cx="657.147" cy="644.391" r="2"/>
<circle clip-path="url(#clip192)" style="fill:#009af9; stroke:none; fill-opacity:0" cx="692.382" cy="793.678" r="2"/>
<circle clip-path="url(#clip192)" style="fill:#009af9; stroke:none; fill-opacity:0" cx="727.617" cy="845.604" r="2"/>
<circle clip-path="url(#clip192)" style="fill:#009af9; stroke:none; fill-opacity:0" cx="762.852" cy="917.002" r="2"/>
<circle clip-path="url(#clip192)" style="fill:#009af9; stroke:none; fill-opacity:0" cx="798.087" cy="897.53" r="2"/>
<circle clip-path="url(#clip192)" style="fill:#009af9; stroke:none; fill-opacity:0" cx="833.322" cy="994.891" r="2"/>
<circle clip-path="url(#clip192)" style="fill:#009af9; stroke:none; fill-opacity:0" cx="868.557" cy="1098.74" r="2"/>
<circle clip-path="url(#clip192)" style="fill:#009af9; stroke:none; fill-opacity:0" cx="903.792" cy="1040.33" r="2"/>
<circle clip-path="url(#clip192)" style="fill:#009af9; stroke:none; fill-opacity:0" cx="939.027" cy="1124.71" r="2"/>
<circle clip-path="url(#clip192)" style="fill:#009af9; stroke:none; fill-opacity:0" cx="974.262" cy="1150.67" r="2"/>
<circle clip-path="url(#clip192)" style="fill:#009af9; stroke:none; fill-opacity:0" cx="1009.5" cy="1170.14" r="2"/>
<circle clip-path="url(#clip192)" style="fill:#009af9; stroke:none; fill-opacity:0" cx="1044.73" cy="1189.61" r="2"/>
<circle clip-path="url(#clip192)" style="fill:#009af9; stroke:none; fill-opacity:0" cx="1079.97" cy="1202.59" r="2"/>
<circle clip-path="url(#clip192)" style="fill:#009af9; stroke:none; fill-opacity:0" cx="1115.2" cy="1222.07" r="2"/>
<circle clip-path="url(#clip192)" style="fill:#009af9; stroke:none; fill-opacity:0" cx="1150.44" cy="1222.07" r="2"/>
<circle clip-path="url(#clip192)" style="fill:#009af9; stroke:none; fill-opacity:0" cx="1185.67" cy="1228.56" r="2"/>
<circle clip-path="url(#clip192)" style="fill:#009af9; stroke:none; fill-opacity:0" cx="1220.91" cy="1235.05" r="2"/>
<circle clip-path="url(#clip192)" style="fill:#009af9; stroke:none; fill-opacity:0" cx="1256.14" cy="1235.05" r="2"/>
<circle clip-path="url(#clip192)" style="fill:#009af9; stroke:none; fill-opacity:0" cx="1291.38" cy="1235.05" r="2"/>
<circle clip-path="url(#clip192)" style="fill:#009af9; stroke:none; fill-opacity:0" cx="1326.61" cy="1235.05" r="2"/>
<circle clip-path="url(#clip192)" style="fill:#009af9; stroke:none; fill-opacity:0" cx="1361.85" cy="1248.03" r="2"/>
<circle clip-path="url(#clip192)" style="fill:#009af9; stroke:none; fill-opacity:0" cx="1397.08" cy="1254.52" r="2"/>
<circle clip-path="url(#clip192)" style="fill:#009af9; stroke:none; fill-opacity:0" cx="1432.32" cy="1235.05" r="2"/>
<circle clip-path="url(#clip192)" style="fill:#009af9; stroke:none; fill-opacity:0" cx="1467.55" cy="1254.52" r="2"/>
<circle clip-path="url(#clip192)" style="fill:#009af9; stroke:none; fill-opacity:0" cx="1502.79" cy="1254.52" r="2"/>
<circle clip-path="url(#clip192)" style="fill:#009af9; stroke:none; fill-opacity:0" cx="1538.02" cy="1254.52" r="2"/>
<circle clip-path="url(#clip192)" style="fill:#009af9; stroke:none; fill-opacity:0" cx="1573.26" cy="1248.03" r="2"/>
<circle clip-path="url(#clip192)" style="fill:#009af9; stroke:none; fill-opacity:0" cx="1608.49" cy="1254.52" r="2"/>
<circle clip-path="url(#clip192)" style="fill:#009af9; stroke:none; fill-opacity:0" cx="1643.73" cy="1254.52" r="2"/>
<circle clip-path="url(#clip192)" style="fill:#009af9; stroke:none; fill-opacity:0" cx="1678.96" cy="1254.52" r="2"/>
<circle clip-path="url(#clip192)" style="fill:#009af9; stroke:none; fill-opacity:0" cx="1714.2" cy="1248.03" r="2"/>
<circle clip-path="url(#clip192)" style="fill:#009af9; stroke:none; fill-opacity:0" cx="1749.43" cy="1254.52" r="2"/>
<circle clip-path="url(#clip192)" style="fill:#009af9; stroke:none; fill-opacity:0" cx="1784.67" cy="1248.03" r="2"/>
<polyline clip-path="url(#clip192)" style="stroke:#e26f46; stroke-linecap:round; stroke-linejoin:round; stroke-width:8; stroke-opacity:1; fill:none" points="71.6233,1254.52 80.9955,1254.51 90.3678,1254.5 99.74,1254.47 109.112,1254.4 118.484,1254.24 127.857,1253.92 137.229,1253.32 146.601,1252.24 155.973,1250.38 165.346,1247.37 174.718,1242.67 184.09,1235.65 193.462,1225.56 202.835,1211.56 212.207,1192.83 221.579,1168.68 230.951,1138.63 240.324,1102.53 249.696,1060.62 259.068,1013.47 268.44,961.914 277.813,906.891 287.185,849.367 296.557,790.254 305.929,730.388 315.302,670.509 324.674,611.252 334.046,553.147 343.418,496.647 352.791,442.216 362.163,390.435 371.535,342.09 380.907,298.147 390.28,259.604 399.652,227.222 409.024,201.272 418.396,181.405 427.769,166.739 437.141,156.153 446.513,148.675 455.885,143.79 465.258,141.55 474.63,142.441 484.002,147.106 493.374,156.041 502.746,169.41 512.119,186.997 521.491,208.286 530.863,232.6 540.235,259.248 549.608,287.654 558.98,317.445 568.352,348.489 577.724,380.831 587.097,414.554 596.469,449.586 605.841,485.549 615.213,521.743 624.586,557.283 633.958,591.362 643.33,623.49 652.702,653.596 662.075,681.942 671.447,708.895 680.819,734.687 690.191,759.286 699.564,782.438 708.936,803.821 718.308,823.231 727.68,840.677 737.053,856.36 746.425,870.583 755.797,883.66 765.169,895.901 774.542,907.653 783.914,919.35 793.286,931.485 802.658,944.509 812.031,958.671 821.403,973.898 830.775,989.776 840.147,1005.64 849.52,1020.77 858.892,1034.57 868.264,1046.72 877.636,1057.3 887.008,1066.69 896.381,1075.47 905.753,1084.22 915.125,1093.34 924.497,1102.91 933.87,1112.75 943.242,1122.45 952.614,1131.55 961.986,1139.7 971.359,1146.69 980.731,1152.52 990.103,1157.39 999.475,1161.62 1008.85,1165.55 1018.22,1169.53 1027.59,1173.77 1036.96,1178.33 1046.34,1183.16 1055.71,1188.15 1065.08,1193.14 1074.45,1198.02 1083.83,1202.71 1093.2,1207.16 1102.57,1211.29 1111.94,1215 1121.31,1218.19 1130.69,1220.79 1140.06,1222.84 1149.43,1224.42 1158.8,1225.68 1168.18,1226.81 1177.55,1227.91 1186.92,1229.06 1196.29,1230.24 1205.66,1231.39 1215.04,1232.44 1224.41,1233.32 1233.78,1233.97 1243.15,1234.4 1252.53,1234.6 1261.9,1234.64 1271.27,1234.61 1280.64,1234.65 1290.01,1234.91 1299.39,1235.51 1308.76,1236.52 1318.13,1237.93 1327.5,1239.61 1336.88,1241.38 1346.25,1243.05 1355.62,1244.43 1364.99,1245.39 1374.37,1245.89 1383.74,1245.99 1393.11,1245.84 1402.48,1245.63 1411.85,1245.58 1421.23,1245.84 1430.6,1246.51 1439.97,1247.54 1449.34,1248.8 1458.72,1250.12 1468.09,1251.33 1477.46,1252.32 1486.83,1253.01 1496.2,1253.41 1505.58,1253.53 1514.95,1253.42 1524.32,1253.16 1533.69,1252.79 1543.07,1252.42 1552.44,1252.11 1561.81,1251.94 1571.18,1251.94 1580.55,1252.12 1589.93,1252.44 1599.3,1252.84 1608.67,1253.24 1618.04,1253.6 1627.42,1253.86 1636.79,1254 1646.16,1254.01 1655.53,1253.9 1664.9,1253.66 1674.28,1253.32 1683.65,1252.91 1693.02,1252.49 1702.39,1252.11 1711.77,1251.84 1721.14,1251.68 1730.51,1251.65 1739.88,1251.69 1749.25,1251.74 1758.63,1251.76 1768,1251.73 1777.37,1251.67 1786.74,1251.64 1796.12,1251.69 1805.49,1251.86 1814.86,1252.15 1824.23,1252.55 1833.61,1252.98 1842.98,1253.4 1852.35,1253.76 1861.72,1254.04 1871.09,1254.23 1880.47,1254.36 1889.84,1254.44 1899.21,1254.48 1908.58,1254.5 1917.96,1254.51 1927.33,1254.52 1936.7,1254.52 "/>
</svg>
