<?xml version="1.0" encoding="utf-8"?>
<svg xmlns="http://www.w3.org/2000/svg" xmlns:xlink="http://www.w3.org/1999/xlink" width="480" height="360" viewBox="0 0 1920 1440">
<defs>
  <clipPath id="clip430">
    <rect x="0" y="0" width="1920" height="1440"/>
  </clipPath>
</defs>
<path clip-path="url(#clip430)" d="M0 1440 L1920 1440 L1920 0 L0 0  Z" fill="#ffffff" fill-rule="evenodd" fill-opacity="1"/>
<defs>
  <clipPath id="clip431">
    <rect x="384" y="0" width="1345" height="1345"/>
  </clipPath>
</defs>
<path clip-path="url(#clip430)" d="M250.682 1254.52 L1872.76 1254.52 L1872.76 47.2441 L250.682 47.2441  Z" fill="#ffffff" fill-rule="evenodd" fill-opacity="1"/>
<defs>
  <clipPath id="clip432">
    <rect x="250" y="47" width="1623" height="1208"/>
  </clipPath>
</defs>
<polyline clip-path="url(#clip432)" style="stroke:#000000; stroke-linecap:round; stroke-linejoin:round; stroke-width:2; stroke-opacity:0.1; fill:none" points="250.682,1254.52 250.682,47.2441 "/>
<polyline clip-path="url(#clip432)" style="stroke:#000000; stroke-linecap:round; stroke-linejoin:round; stroke-width:2; stroke-opacity:0.1; fill:none" points="742.22,1254.52 742.22,47.2441 "/>
<polyline clip-path="url(#clip432)" style="stroke:#000000; stroke-linecap:round; stroke-linejoin:round; stroke-width:2; stroke-opacity:0.1; fill:none" points="1233.76,1254.52 1233.76,47.2441 "/>
<polyline clip-path="url(#clip432)" style="stroke:#000000; stroke-linecap:round; stroke-linejoin:round; stroke-width:2; stroke-opacity:0.1; fill:none" points="1725.29,1254.52 1725.29,47.2441 "/>
<polyline clip-path="url(#clip432)" style="stroke:#000000; stroke-linecap:round; stroke-linejoin:round; stroke-width:2; stroke-opacity:0.1; fill:none" points="250.682,1144.77 1872.76,1144.77 "/>
<polyline clip-path="url(#clip432)" style="stroke:#000000; stroke-linecap:round; stroke-linejoin:round; stroke-width:2; stroke-opacity:0.1; fill:none" points="250.682,870.387 1872.76,870.387 "/>
<polyline clip-path="url(#clip432)" style="stroke:#000000; stroke-linecap:round; stroke-linejoin:round; stroke-width:2; stroke-opacity:0.1; fill:none" points="250.682,596.006 1872.76,596.006 "/>
<polyline clip-path="url(#clip432)" style="stroke:#000000; stroke-linecap:round; stroke-linejoin:round; stroke-width:2; stroke-opacity:0.1; fill:none" points="250.682,321.625 1872.76,321.625 "/>
<polyline clip-path="url(#clip432)" style="stroke:#000000; stroke-linecap:round; stroke-linejoin:round; stroke-width:2; stroke-opacity:0.1; fill:none" points="250.682,47.2441 1872.76,47.2441 "/>
<polyline clip-path="url(#clip430)" style="stroke:#000000; stroke-linecap:round; stroke-linejoin:round; stroke-width:4; stroke-opacity:1; fill:none" points="250.682,1254.52 1872.76,1254.52 "/>
<polyline clip-path="url(#clip430)" style="stroke:#000000; stroke-linecap:round; stroke-linejoin:round; stroke-width:4; stroke-opacity:1; fill:none" points="250.682,1254.52 250.682,1235.62 "/>
<polyline clip-path="url(#clip430)" style="stroke:#000000; stroke-linecap:round; stroke-linejoin:round; stroke-width:4; stroke-opacity:1; fill:none" points="742.22,1254.52 742.22,1235.62 "/>
<polyline clip-path="url(#clip430)" style="stroke:#000000; stroke-linecap:round; stroke-linejoin:round; stroke-width:4; stroke-opacity:1; fill:none" points="1233.76,1254.52 1233.76,1235.62 "/>
<polyline clip-path="url(#clip430)" style="stroke:#000000; stroke-linecap:round; stroke-linejoin:round; stroke-width:4; stroke-opacity:1; fill:none" points="1725.29,1254.52 1725.29,1235.62 "/>
<path clip-path="url(#clip430)" d="M250.682 1281.6 Q247.071 1281.6 245.242 1285.16 Q243.437 1288.7 243.437 1295.83 Q243.437 1302.94 245.242 1306.51 Q247.071 1310.05 250.682 1310.05 Q254.316 1310.05 256.122 1306.51 Q257.951 1302.94 257.951 1295.83 Q257.951 1288.7 256.122 1285.16 Q254.316 1281.6 250.682 1281.6 M250.682 1277.89 Q256.492 1277.89 259.548 1282.5 Q262.626 1287.08 262.626 1295.83 Q262.626 1304.56 259.548 1309.17 Q256.492 1313.75 250.682 1313.75 Q244.872 1313.75 241.793 1309.17 Q238.738 1304.56 238.738 1295.83 Q238.738 1287.08 241.793 1282.5 Q244.872 1277.89 250.682 1277.89 Z" fill="#000000" fill-rule="nonzero" fill-opacity="1" /><path clip-path="url(#clip430)" d="M716.907 1309.14 L724.546 1309.14 L724.546 1282.78 L716.236 1284.45 L716.236 1280.19 L724.5 1278.52 L729.176 1278.52 L729.176 1309.14 L736.815 1309.14 L736.815 1313.08 L716.907 1313.08 L716.907 1309.14 Z" fill="#000000" fill-rule="nonzero" fill-opacity="1" /><path clip-path="url(#clip430)" d="M756.259 1281.6 Q752.648 1281.6 750.819 1285.16 Q749.014 1288.7 749.014 1295.83 Q749.014 1302.94 750.819 1306.51 Q752.648 1310.05 756.259 1310.05 Q759.893 1310.05 761.699 1306.51 Q763.527 1302.94 763.527 1295.83 Q763.527 1288.7 761.699 1285.16 Q759.893 1281.6 756.259 1281.6 M756.259 1277.89 Q762.069 1277.89 765.125 1282.5 Q768.203 1287.08 768.203 1295.83 Q768.203 1304.56 765.125 1309.17 Q762.069 1313.75 756.259 1313.75 Q750.449 1313.75 747.37 1309.17 Q744.314 1304.56 744.314 1295.83 Q744.314 1287.08 747.37 1282.5 Q750.449 1277.89 756.259 1277.89 Z" fill="#000000" fill-rule="nonzero" fill-opacity="1" /><path clip-path="url(#clip430)" d="M1212.53 1309.14 L1228.85 1309.14 L1228.85 1313.08 L1206.91 1313.08 L1206.91 1309.14 Q1209.57 1306.39 1214.15 1301.76 Q1218.76 1297.11 1219.94 1295.77 Q1222.18 1293.24 1223.06 1291.51 Q1223.97 1289.75 1223.97 1288.06 Q1223.97 1285.3 1222.02 1283.57 Q1220.1 1281.83 1217 1281.83 Q1214.8 1281.83 1212.35 1282.59 Q1209.91 1283.36 1207.14 1284.91 L1207.14 1280.19 Q1209.96 1279.05 1212.41 1278.47 Q1214.87 1277.89 1216.91 1277.89 Q1222.28 1277.89 1225.47 1280.58 Q1228.66 1283.27 1228.66 1287.76 Q1228.66 1289.89 1227.85 1291.81 Q1227.07 1293.7 1224.96 1296.3 Q1224.38 1296.97 1221.28 1300.19 Q1218.18 1303.38 1212.53 1309.14 Z" fill="#000000" fill-rule="nonzero" fill-opacity="1" /><path clip-path="url(#clip430)" d="M1248.66 1281.6 Q1245.05 1281.6 1243.22 1285.16 Q1241.42 1288.7 1241.42 1295.83 Q1241.42 1302.94 1243.22 1306.51 Q1245.05 1310.05 1248.66 1310.05 Q1252.3 1310.05 1254.1 1306.51 Q1255.93 1302.94 1255.93 1295.83 Q1255.93 1288.7 1254.1 1285.16 Q1252.3 1281.6 1248.66 1281.6 M1248.66 1277.89 Q1254.47 1277.89 1257.53 1282.5 Q1260.61 1287.08 1260.61 1295.83 Q1260.61 1304.56 1257.53 1309.17 Q1254.47 1313.75 1248.66 1313.75 Q1242.85 1313.75 1239.78 1309.17 Q1236.72 1304.56 1236.72 1295.83 Q1236.72 1287.08 1239.78 1282.5 Q1242.85 1277.89 1248.66 1277.89 Z" fill="#000000" fill-rule="nonzero" fill-opacity="1" /><path clip-path="url(#clip430)" d="M1714.14 1294.45 Q1717.49 1295.16 1719.37 1297.43 Q1721.27 1299.7 1721.27 1303.03 Q1721.27 1308.15 1717.75 1310.95 Q1714.23 1313.75 1707.75 1313.75 Q1705.57 1313.75 1703.26 1313.31 Q1700.97 1312.89 1698.51 1312.04 L1698.51 1307.52 Q1700.46 1308.66 1702.77 1309.24 Q1705.09 1309.82 1707.61 1309.82 Q1712.01 1309.82 1714.3 1308.08 Q1716.61 1306.34 1716.61 1303.03 Q1716.61 1299.98 1714.46 1298.27 Q1712.33 1296.53 1708.51 1296.53 L1704.48 1296.53 L1704.48 1292.69 L1708.7 1292.69 Q1712.15 1292.69 1713.98 1291.32 Q1715.8 1289.93 1715.8 1287.34 Q1715.8 1284.68 1713.91 1283.27 Q1712.03 1281.83 1708.51 1281.83 Q1706.59 1281.83 1704.39 1282.25 Q1702.19 1282.66 1699.55 1283.54 L1699.55 1279.38 Q1702.22 1278.64 1704.53 1278.27 Q1706.87 1277.89 1708.93 1277.89 Q1714.25 1277.89 1717.35 1280.33 Q1720.46 1282.73 1720.46 1286.85 Q1720.46 1289.72 1718.81 1291.71 Q1717.17 1293.68 1714.14 1294.45 Z" fill="#000000" fill-rule="nonzero" fill-opacity="1" /><path clip-path="url(#clip430)" d="M1740.13 1281.6 Q1736.52 1281.6 1734.69 1285.16 Q1732.89 1288.7 1732.89 1295.83 Q1732.89 1302.94 1734.69 1306.51 Q1736.52 1310.05 1740.13 1310.05 Q1743.77 1310.05 1745.57 1306.51 Q1747.4 1302.94 1747.4 1295.83 Q1747.4 1288.7 1745.57 1285.16 Q1743.77 1281.6 1740.13 1281.6 M1740.13 1277.89 Q1745.94 1277.89 1749 1282.5 Q1752.08 1287.08 1752.08 1295.83 Q1752.08 1304.56 1749 1309.17 Q1745.94 1313.75 1740.13 1313.75 Q1734.32 1313.75 1731.24 1309.17 Q1728.19 1304.56 1728.19 1295.83 Q1728.19 1287.08 1731.24 1282.5 Q1734.32 1277.89 1740.13 1277.89 Z" fill="#000000" fill-rule="nonzero" fill-opacity="1" /><path clip-path="url(#clip430)" d="M1018.03 1342.66 L1023.89 1342.66 L1023.89 1392.18 L1018.03 1392.18 L1018.03 1342.66 Z" fill="#000000" fill-rule="nonzero" fill-opacity="1" /><path clip-path="url(#clip430)" d="M1052.35 1374.26 Q1045.25 1374.26 1042.51 1375.89 Q1039.77 1377.51 1039.77 1381.43 Q1039.77 1384.54 1041.81 1386.39 Q1043.88 1388.21 1047.41 1388.21 Q1052.28 1388.21 1055.21 1384.77 Q1058.17 1381.3 1058.17 1375.57 L1058.17 1374.26 L1052.35 1374.26 M1064.03 1371.85 L1064.03 1392.18 L1058.17 1392.18 L1058.17 1386.77 Q1056.16 1390.02 1053.17 1391.58 Q1050.18 1393.11 1045.85 1393.11 Q1040.38 1393.11 1037.13 1390.05 Q1033.92 1386.96 1033.92 1381.81 Q1033.92 1375.79 1037.93 1372.74 Q1041.97 1369.68 1049.96 1369.68 L1058.17 1369.68 L1058.17 1369.11 Q1058.17 1365.07 1055.5 1362.87 Q1052.85 1360.64 1048.05 1360.64 Q1044.99 1360.64 1042.1 1361.37 Q1039.2 1362.11 1036.53 1363.57 L1036.53 1358.16 Q1039.74 1356.92 1042.77 1356.31 Q1045.79 1355.68 1048.65 1355.68 Q1056.39 1355.68 1060.21 1359.69 Q1064.03 1363.7 1064.03 1371.85 Z" fill="#000000" fill-rule="nonzero" fill-opacity="1" /><path clip-path="url(#clip430)" d="M1099.55 1373.95 Q1099.55 1367.58 1096.91 1364.08 Q1094.3 1360.58 1089.55 1360.58 Q1084.84 1360.58 1082.2 1364.08 Q1079.59 1367.58 1079.59 1373.95 Q1079.59 1380.28 1082.2 1383.78 Q1084.84 1387.28 1089.55 1387.28 Q1094.3 1387.28 1096.91 1383.78 Q1099.55 1380.28 1099.55 1373.95 M1105.4 1387.76 Q1105.4 1396.86 1101.36 1401.29 Q1097.32 1405.74 1088.98 1405.74 Q1085.89 1405.74 1083.16 1405.27 Q1080.42 1404.82 1077.84 1403.86 L1077.84 1398.17 Q1080.42 1399.57 1082.93 1400.24 Q1085.45 1400.9 1088.06 1400.9 Q1093.82 1400.9 1096.68 1397.88 Q1099.55 1394.89 1099.55 1388.81 L1099.55 1385.91 Q1097.73 1389.06 1094.9 1390.62 Q1092.07 1392.18 1088.12 1392.18 Q1081.56 1392.18 1077.55 1387.19 Q1073.54 1382.19 1073.54 1373.95 Q1073.54 1365.67 1077.55 1360.67 Q1081.56 1355.68 1088.12 1355.68 Q1092.07 1355.68 1094.9 1357.24 Q1097.73 1358.8 1099.55 1361.95 L1099.55 1356.54 L1105.4 1356.54 L1105.4 1387.76 Z" fill="#000000" fill-rule="nonzero" fill-opacity="1" /><polyline clip-path="url(#clip430)" style="stroke:#000000; stroke-linecap:round; stroke-linejoin:round; stroke-width:4; stroke-opacity:1; fill:none" points="250.682,1254.52 250.682,47.2441 "/>
<polyline clip-path="url(#clip430)" style="stroke:#000000; stroke-linecap:round; stroke-linejoin:round; stroke-width:4; stroke-opacity:1; fill:none" points="250.682,1144.77 269.58,1144.77 "/>
<polyline clip-path="url(#clip430)" style="stroke:#000000; stroke-linecap:round; stroke-linejoin:round; stroke-width:4; stroke-opacity:1; fill:none" points="250.682,870.387 269.58,870.387 "/>
<polyline clip-path="url(#clip430)" style="stroke:#000000; stroke-linecap:round; stroke-linejoin:round; stroke-width:4; stroke-opacity:1; fill:none" points="250.682,596.006 269.58,596.006 "/>
<polyline clip-path="url(#clip430)" style="stroke:#000000; stroke-linecap:round; stroke-linejoin:round; stroke-width:4; stroke-opacity:1; fill:none" points="250.682,321.625 269.58,321.625 "/>
<polyline clip-path="url(#clip430)" style="stroke:#000000; stroke-linecap:round; stroke-linejoin:round; stroke-width:4; stroke-opacity:1; fill:none" points="250.682,47.2441 269.58,47.2441 "/>
<path clip-path="url(#clip430)" d="M134.545 1130.57 Q130.933 1130.57 129.105 1134.13 Q127.299 1137.67 127.299 1144.8 Q127.299 1151.91 129.105 1155.47 Q130.933 1159.02 134.545 1159.02 Q138.179 1159.02 139.984 1155.47 Q141.813 1151.91 141.813 1144.8 Q141.813 1137.67 139.984 1134.13 Q138.179 1130.57 134.545 1130.57 M134.545 1126.86 Q140.355 1126.86 143.41 1131.47 Q146.489 1136.05 146.489 1144.8 Q146.489 1153.53 143.41 1158.14 Q140.355 1162.72 134.545 1162.72 Q128.734 1162.72 125.656 1158.14 Q122.6 1153.53 122.6 1144.8 Q122.6 1136.05 125.656 1131.47 Q128.734 1126.86 134.545 1126.86 Z" fill="#000000" fill-rule="nonzero" fill-opacity="1" /><path clip-path="url(#clip430)" d="M154.706 1156.17 L159.591 1156.17 L159.591 1162.05 L154.706 1162.05 L154.706 1156.17 Z" fill="#000000" fill-rule="nonzero" fill-opacity="1" /><path clip-path="url(#clip430)" d="M179.776 1130.57 Q176.165 1130.57 174.336 1134.13 Q172.53 1137.67 172.53 1144.8 Q172.53 1151.91 174.336 1155.47 Q176.165 1159.02 179.776 1159.02 Q183.41 1159.02 185.216 1155.47 Q187.044 1151.91 187.044 1144.8 Q187.044 1137.67 185.216 1134.13 Q183.41 1130.57 179.776 1130.57 M179.776 1126.86 Q185.586 1126.86 188.641 1131.47 Q191.72 1136.05 191.72 1144.8 Q191.72 1153.53 188.641 1158.14 Q185.586 1162.72 179.776 1162.72 Q173.966 1162.72 170.887 1158.14 Q167.831 1153.53 167.831 1144.8 Q167.831 1136.05 170.887 1131.47 Q173.966 1126.86 179.776 1126.86 Z" fill="#000000" fill-rule="nonzero" fill-opacity="1" /><path clip-path="url(#clip430)" d="M209.938 1130.57 Q206.327 1130.57 204.498 1134.13 Q202.692 1137.67 202.692 1144.8 Q202.692 1151.91 204.498 1155.47 Q206.327 1159.02 209.938 1159.02 Q213.572 1159.02 215.377 1155.47 Q217.206 1151.91 217.206 1144.8 Q217.206 1137.67 215.377 1134.13 Q213.572 1130.57 209.938 1130.57 M209.938 1126.86 Q215.748 1126.86 218.803 1131.47 Q221.882 1136.05 221.882 1144.8 Q221.882 1153.53 218.803 1158.14 Q215.748 1162.72 209.938 1162.72 Q204.127 1162.72 201.049 1158.14 Q197.993 1153.53 197.993 1144.8 Q197.993 1136.05 201.049 1131.47 Q204.127 1126.86 209.938 1126.86 Z" fill="#000000" fill-rule="nonzero" fill-opacity="1" /><path clip-path="url(#clip430)" d="M135.54 856.185 Q131.929 856.185 130.1 859.75 Q128.295 863.292 128.295 870.421 Q128.295 877.528 130.1 881.093 Q131.929 884.634 135.54 884.634 Q139.174 884.634 140.98 881.093 Q142.808 877.528 142.808 870.421 Q142.808 863.292 140.98 859.75 Q139.174 856.185 135.54 856.185 M135.54 852.482 Q141.35 852.482 144.406 857.088 Q147.484 861.671 147.484 870.421 Q147.484 879.148 144.406 883.755 Q141.35 888.338 135.54 888.338 Q129.73 888.338 126.651 883.755 Q123.596 879.148 123.596 870.421 Q123.596 861.671 126.651 857.088 Q129.73 852.482 135.54 852.482 Z" fill="#000000" fill-rule="nonzero" fill-opacity="1" /><path clip-path="url(#clip430)" d="M155.702 881.787 L160.586 881.787 L160.586 887.667 L155.702 887.667 L155.702 881.787 Z" fill="#000000" fill-rule="nonzero" fill-opacity="1" /><path clip-path="url(#clip430)" d="M174.799 883.731 L191.118 883.731 L191.118 887.667 L169.174 887.667 L169.174 883.731 Q171.836 880.977 176.419 876.347 Q181.026 871.695 182.206 870.352 Q184.452 867.829 185.331 866.093 Q186.234 864.333 186.234 862.644 Q186.234 859.889 184.29 858.153 Q182.368 856.417 179.267 856.417 Q177.067 856.417 174.614 857.181 Q172.183 857.945 169.405 859.496 L169.405 854.773 Q172.23 853.639 174.683 853.06 Q177.137 852.482 179.174 852.482 Q184.544 852.482 187.739 855.167 Q190.933 857.852 190.933 862.343 Q190.933 864.472 190.123 866.394 Q189.336 868.292 187.229 870.884 Q186.651 871.556 183.549 874.773 Q180.447 877.968 174.799 883.731 Z" fill="#000000" fill-rule="nonzero" fill-opacity="1" /><path clip-path="url(#clip430)" d="M200.979 853.107 L219.336 853.107 L219.336 857.042 L205.262 857.042 L205.262 865.514 Q206.28 865.167 207.299 865.005 Q208.317 864.82 209.336 864.82 Q215.123 864.82 218.502 867.991 Q221.882 871.162 221.882 876.579 Q221.882 882.157 218.41 885.259 Q214.938 888.338 208.618 888.338 Q206.442 888.338 204.174 887.968 Q201.928 887.597 199.521 886.856 L199.521 882.157 Q201.604 883.292 203.827 883.847 Q206.049 884.403 208.526 884.403 Q212.53 884.403 214.868 882.296 Q217.206 880.19 217.206 876.579 Q217.206 872.968 214.868 870.861 Q212.53 868.755 208.526 868.755 Q206.651 868.755 204.776 869.171 Q202.924 869.588 200.979 870.468 L200.979 853.107 Z" fill="#000000" fill-rule="nonzero" fill-opacity="1" /><path clip-path="url(#clip430)" d="M134.545 581.804 Q130.933 581.804 129.105 585.369 Q127.299 588.911 127.299 596.041 Q127.299 603.147 129.105 606.712 Q130.933 610.253 134.545 610.253 Q138.179 610.253 139.984 606.712 Q141.813 603.147 141.813 596.041 Q141.813 588.911 139.984 585.369 Q138.179 581.804 134.545 581.804 M134.545 578.101 Q140.355 578.101 143.41 582.707 Q146.489 587.291 146.489 596.041 Q146.489 604.767 143.41 609.374 Q140.355 613.957 134.545 613.957 Q128.734 613.957 125.656 609.374 Q122.6 604.767 122.6 596.041 Q122.6 587.291 125.656 582.707 Q128.734 578.101 134.545 578.101 Z" fill="#000000" fill-rule="nonzero" fill-opacity="1" /><path clip-path="url(#clip430)" d="M154.706 607.406 L159.591 607.406 L159.591 613.286 L154.706 613.286 L154.706 607.406 Z" fill="#000000" fill-rule="nonzero" fill-opacity="1" /><path clip-path="url(#clip430)" d="M169.822 578.726 L188.179 578.726 L188.179 582.661 L174.105 582.661 L174.105 591.133 Q175.123 590.786 176.142 590.624 Q177.16 590.439 178.179 590.439 Q183.966 590.439 187.345 593.61 Q190.725 596.781 190.725 602.198 Q190.725 607.777 187.253 610.878 Q183.78 613.957 177.461 613.957 Q175.285 613.957 173.017 613.587 Q170.771 613.216 168.364 612.476 L168.364 607.777 Q170.447 608.911 172.669 609.466 Q174.892 610.022 177.368 610.022 Q181.373 610.022 183.711 607.915 Q186.049 605.809 186.049 602.198 Q186.049 598.587 183.711 596.48 Q181.373 594.374 177.368 594.374 Q175.493 594.374 173.618 594.791 Q171.767 595.207 169.822 596.087 L169.822 578.726 Z" fill="#000000" fill-rule="nonzero" fill-opacity="1" /><path clip-path="url(#clip430)" d="M209.938 581.804 Q206.327 581.804 204.498 585.369 Q202.692 588.911 202.692 596.041 Q202.692 603.147 204.498 606.712 Q206.327 610.253 209.938 610.253 Q213.572 610.253 215.377 606.712 Q217.206 603.147 217.206 596.041 Q217.206 588.911 215.377 585.369 Q213.572 581.804 209.938 581.804 M209.938 578.101 Q215.748 578.101 218.803 582.707 Q221.882 587.291 221.882 596.041 Q221.882 604.767 218.803 609.374 Q215.748 613.957 209.938 613.957 Q204.127 613.957 201.049 609.374 Q197.993 604.767 197.993 596.041 Q197.993 587.291 201.049 582.707 Q204.127 578.101 209.938 578.101 Z" fill="#000000" fill-rule="nonzero" fill-opacity="1" /><path clip-path="url(#clip430)" d="M135.54 307.424 Q131.929 307.424 130.1 310.988 Q128.295 314.53 128.295 321.66 Q128.295 328.766 130.1 332.331 Q131.929 335.873 135.54 335.873 Q139.174 335.873 140.98 332.331 Q142.808 328.766 142.808 321.66 Q142.808 314.53 140.98 310.988 Q139.174 307.424 135.54 307.424 M135.54 303.72 Q141.35 303.72 144.406 308.326 Q147.484 312.91 147.484 321.66 Q147.484 330.386 144.406 334.993 Q141.35 339.576 135.54 339.576 Q129.73 339.576 126.651 334.993 Q123.596 330.386 123.596 321.66 Q123.596 312.91 126.651 308.326 Q129.73 303.72 135.54 303.72 Z" fill="#000000" fill-rule="nonzero" fill-opacity="1" /><path clip-path="url(#clip430)" d="M155.702 333.025 L160.586 333.025 L160.586 338.905 L155.702 338.905 L155.702 333.025 Z" fill="#000000" fill-rule="nonzero" fill-opacity="1" /><path clip-path="url(#clip430)" d="M169.591 304.345 L191.813 304.345 L191.813 306.336 L179.267 338.905 L174.382 338.905 L186.188 308.28 L169.591 308.28 L169.591 304.345 Z" fill="#000000" fill-rule="nonzero" fill-opacity="1" /><path clip-path="url(#clip430)" d="M200.979 304.345 L219.336 304.345 L219.336 308.28 L205.262 308.28 L205.262 316.752 Q206.28 316.405 207.299 316.243 Q208.317 316.058 209.336 316.058 Q215.123 316.058 218.502 319.229 Q221.882 322.4 221.882 327.817 Q221.882 333.396 218.41 336.498 Q214.938 339.576 208.618 339.576 Q206.442 339.576 204.174 339.206 Q201.928 338.836 199.521 338.095 L199.521 333.396 Q201.604 334.53 203.827 335.086 Q206.049 335.641 208.526 335.641 Q212.53 335.641 214.868 333.535 Q217.206 331.428 217.206 327.817 Q217.206 324.206 214.868 322.099 Q212.53 319.993 208.526 319.993 Q206.651 319.993 204.776 320.41 Q202.924 320.826 200.979 321.706 L200.979 304.345 Z" fill="#000000" fill-rule="nonzero" fill-opacity="1" /><path clip-path="url(#clip430)" d="M125.355 60.5889 L132.994 60.5889 L132.994 34.2233 L124.683 35.89 L124.683 31.6308 L132.947 29.9641 L137.623 29.9641 L137.623 60.5889 L145.262 60.5889 L145.262 64.5241 L125.355 64.5241 L125.355 60.5889 Z" fill="#000000" fill-rule="nonzero" fill-opacity="1" /><path clip-path="url(#clip430)" d="M154.706 58.6445 L159.591 58.6445 L159.591 64.5241 L154.706 64.5241 L154.706 58.6445 Z" fill="#000000" fill-rule="nonzero" fill-opacity="1" /><path clip-path="url(#clip430)" d="M179.776 33.0428 Q176.165 33.0428 174.336 36.6076 Q172.53 40.1492 172.53 47.2788 Q172.53 54.3853 174.336 57.9501 Q176.165 61.4917 179.776 61.4917 Q183.41 61.4917 185.216 57.9501 Q187.044 54.3853 187.044 47.2788 Q187.044 40.1492 185.216 36.6076 Q183.41 33.0428 179.776 33.0428 M179.776 29.3391 Q185.586 29.3391 188.641 33.9456 Q191.72 38.5289 191.72 47.2788 Q191.72 56.0056 188.641 60.6121 Q185.586 65.1954 179.776 65.1954 Q173.966 65.1954 170.887 60.6121 Q167.831 56.0056 167.831 47.2788 Q167.831 38.5289 170.887 33.9456 Q173.966 29.3391 179.776 29.3391 Z" fill="#000000" fill-rule="nonzero" fill-opacity="1" /><path clip-path="url(#clip430)" d="M209.938 33.0428 Q206.327 33.0428 204.498 36.6076 Q202.692 40.1492 202.692 47.2788 Q202.692 54.3853 204.498 57.9501 Q206.327 61.4917 209.938 61.4917 Q213.572 61.4917 215.377 57.9501 Q217.206 54.3853 217.206 47.2788 Q217.206 40.1492 215.377 36.6076 Q213.572 33.0428 209.938 33.0428 M209.938 29.3391 Q215.748 29.3391 218.803 33.9456 Q221.882 38.5289 221.882 47.2788 Q221.882 56.0056 218.803 60.6121 Q215.748 65.1954 209.938 65.1954 Q204.127 65.1954 201.049 60.6121 Q197.993 56.0056 197.993 47.2788 Q197.993 38.5289 201.049 33.9456 Q204.127 29.3391 209.938 29.3391 Z" fill="#000000" fill-rule="nonzero" fill-opacity="1" /><path clip-path="url(#clip430)" d="M38.358 690.19 L62.0066 698.911 L62.0066 681.437 L38.358 690.19 M32.0242 693.819 L32.0242 686.53 L79.5442 668.419 L79.5442 675.103 L67.3538 679.432 L67.3538 700.853 L79.5442 705.181 L79.5442 711.961 L32.0242 693.819 Z" fill="#000000" fill-rule="nonzero" fill-opacity="1" /><path clip-path="url(#clip430)" d="M35.6844 627.042 L42.4639 627.042 Q39.4402 630.289 37.9443 633.981 Q36.4483 637.641 36.4483 641.779 Q36.4483 649.927 41.4454 654.256 Q46.4107 658.584 55.8319 658.584 Q65.2213 658.584 70.2184 654.256 Q75.1836 649.927 75.1836 641.779 Q75.1836 637.641 73.6877 633.981 Q72.1918 630.289 69.1681 627.042 L75.8839 627.042 Q78.1755 630.416 79.3214 634.204 Q80.4672 637.96 80.4672 642.161 Q80.4672 652.951 73.8787 659.157 Q67.2583 665.364 55.8319 665.364 Q44.3736 665.364 37.7851 659.157 Q31.1648 652.951 31.1648 642.161 Q31.1648 637.896 32.3106 634.14 Q33.4246 630.353 35.6844 627.042 Z" fill="#000000" fill-rule="nonzero" fill-opacity="1" /><path clip-path="url(#clip430)" d="M32.0242 617.112 L32.0242 589.803 L37.435 589.803 L37.435 610.683 L51.4396 610.683 L51.4396 591.84 L56.8504 591.84 L56.8504 610.683 L79.5442 610.683 L79.5442 617.112 L32.0242 617.112 Z" fill="#000000" fill-rule="nonzero" fill-opacity="1" /><polyline clip-path="url(#clip432)" style="stroke:#009af9; stroke-linecap:round; stroke-linejoin:round; stroke-width:4; stroke-opacity:1; fill:none" points="299.836,47.2441 348.99,976.114 398.143,1105.25 447.297,1117.24 496.451,1124.7 545.605,1131.72 594.758,1099.17 643.912,1136.57 693.066,1103.98 742.22,1096.64 791.373,1139.36 840.527,1151.49 889.681,1096.03 938.835,1151.54 987.988,1121.65 1037.14,1174.14 1086.3,1147.9 1135.45,1112.25 1184.6,1153.04 1233.76,1151.15 1282.91,1167.98 1332.06,1176.28 1381.22,1167.29 1430.37,1157.71 1479.53,1177.64 1528.68,1155.36 1577.83,1139.8 1626.99,1190.63 1676.14,1142.01 1725.29,1125.06 1774.45,1121.16 1823.6,1126.16 1872.76,1167.72 1921.91,1130.28 "/>
<polyline clip-path="url(#clip432)" style="stroke:#e26f46; stroke-linecap:round; stroke-linejoin:round; stroke-width:4; stroke-opacity:1; fill:none" points="299.836,47.2441 348.99,938.485 398.143,1101.77 447.297,1070.04 496.451,1082.56 545.605,1085.9 594.758,1135.26 643.912,1135.83 693.066,1126.18 742.22,1134.49 791.373,1156.61 840.527,1097.82 889.681,1076.79 938.835,1151 987.988,1153.56 1037.14,1179.57 1086.3,1158.16 1135.45,1132.2 1184.6,1137.79 1233.76,1119.51 1282.91,1088.41 1332.06,1104.33 1381.22,1113.95 1430.37,1116.43 1479.53,1104.98 1528.68,1140.2 1577.83,1150.76 1626.99,1172.23 1676.14,1150.82 1725.29,1121.73 1774.45,1147.56 1823.6,1125.27 1872.76,1106.88 1921.91,1165.37 "/>
<polyline clip-path="url(#clip432)" style="stroke:#3da44d; stroke-linecap:round; stroke-linejoin:round; stroke-width:4; stroke-opacity:1; fill:none" points="299.836,47.2441 348.99,751.976 398.143,887.953 447.297,1001.41 496.451,989.812 545.605,1037.21 594.758,1073.55 643.912,1116.28 693.066,1099.19 742.22,1083.88 791.373,1087.95 840.527,1117.41 889.681,1134.51 938.835,1104.42 987.988,1111.65 1037.14,1142.53 1086.3,1148.66 1135.45,1149.24 1184.6,1127.32 1233.76,1147.35 1282.91,1166.23 1332.06,1165.37 1381.22,1148.51 1430.37,1148.98 1479.53,1108.44 1528.68,1168.05 1577.83,1139.5 1626.99,1140.73 1676.14,1105.29 1725.29,1128.31 1774.45,1109.99 1823.6,1115.92 1872.76,1147.26 1921.91,1139.13 "/>
<polyline clip-path="url(#clip432)" style="stroke:#000000; stroke-linecap:round; stroke-linejoin:round; stroke-width:4; stroke-opacity:1; fill:none" stroke-dasharray="16, 10" points="-1371.39,1144.77 3494.83,1144.77 "/>
<path clip-path="url(#clip430)" d="M1478.63 294.847 L1818.69 294.847 L1818.69 87.4866 L1478.63 87.4866  Z" fill="#ffffff" fill-rule="evenodd" fill-opacity="1"/>
<polyline clip-path="url(#clip430)" style="stroke:#000000; stroke-linecap:round; stroke-linejoin:round; stroke-width:4; stroke-opacity:1; fill:none" points="1478.63,294.847 1818.69,294.847 1818.69,87.4866 1478.63,87.4866 1478.63,294.847 "/>
<polyline clip-path="url(#clip430)" style="stroke:#009af9; stroke-linecap:round; stroke-linejoin:round; stroke-width:4; stroke-opacity:1; fill:none" points="1496.66,139.327 1604.79,139.327 "/>
<path clip-path="url(#clip430)" d="M1643.33 131.676 L1643.33 135.658 Q1641.52 134.662 1639.69 134.176 Q1637.89 133.667 1636.03 133.667 Q1631.89 133.667 1629.6 136.306 Q1627.31 138.922 1627.31 143.667 Q1627.31 148.412 1629.6 151.051 Q1631.89 153.667 1636.03 153.667 Q1637.89 153.667 1639.69 153.181 Q1641.52 152.671 1643.33 151.676 L1643.33 155.611 Q1641.54 156.445 1639.62 156.861 Q1637.72 157.278 1635.57 157.278 Q1629.72 157.278 1626.27 153.597 Q1622.82 149.917 1622.82 143.667 Q1622.82 137.324 1626.29 133.69 Q1629.79 130.056 1635.85 130.056 Q1637.82 130.056 1639.69 130.473 Q1641.57 130.866 1643.33 131.676 Z" fill="#000000" fill-rule="nonzero" fill-opacity="1" /><path clip-path="url(#clip430)" d="M1662.52 143.574 Q1657.35 143.574 1655.36 144.755 Q1653.37 145.935 1653.37 148.783 Q1653.37 151.051 1654.85 152.394 Q1656.36 153.713 1658.93 153.713 Q1662.47 153.713 1664.6 151.213 Q1666.75 148.69 1666.75 144.523 L1666.75 143.574 L1662.52 143.574 M1671.01 141.815 L1671.01 156.607 L1666.75 156.607 L1666.75 152.671 Q1665.29 155.033 1663.12 156.167 Q1660.94 157.278 1657.79 157.278 Q1653.81 157.278 1651.45 155.056 Q1649.11 152.81 1649.11 149.06 Q1649.11 144.685 1652.03 142.463 Q1654.97 140.241 1660.78 140.241 L1666.75 140.241 L1666.75 139.824 Q1666.75 136.885 1664.81 135.287 Q1662.89 133.667 1659.39 133.667 Q1657.17 133.667 1655.06 134.199 Q1652.96 134.732 1651.01 135.797 L1651.01 131.861 Q1653.35 130.959 1655.55 130.519 Q1657.75 130.056 1659.83 130.056 Q1665.46 130.056 1668.23 132.972 Q1671.01 135.889 1671.01 141.815 Z" fill="#000000" fill-rule="nonzero" fill-opacity="1" /><path clip-path="url(#clip430)" d="M1679.34 146.375 L1679.34 130.681 L1683.6 130.681 L1683.6 146.213 Q1683.6 149.894 1685.04 151.746 Q1686.47 153.574 1689.34 153.574 Q1692.79 153.574 1694.78 151.375 Q1696.8 149.176 1696.8 145.38 L1696.8 130.681 L1701.06 130.681 L1701.06 156.607 L1696.8 156.607 L1696.8 152.625 Q1695.25 154.986 1693.19 156.144 Q1691.15 157.278 1688.44 157.278 Q1683.97 157.278 1681.66 154.5 Q1679.34 151.722 1679.34 146.375 M1690.06 130.056 L1690.06 130.056 Z" fill="#000000" fill-rule="nonzero" fill-opacity="1" /><path clip-path="url(#clip430)" d="M1726.36 131.445 L1726.36 135.472 Q1724.55 134.547 1722.61 134.084 Q1720.66 133.621 1718.58 133.621 Q1715.41 133.621 1713.81 134.593 Q1712.24 135.565 1712.24 137.509 Q1712.24 138.991 1713.37 139.847 Q1714.51 140.681 1717.93 141.445 L1719.39 141.769 Q1723.93 142.741 1725.83 144.523 Q1727.75 146.283 1727.75 149.454 Q1727.75 153.065 1724.88 155.171 Q1722.03 157.278 1717.03 157.278 Q1714.95 157.278 1712.68 156.861 Q1710.43 156.468 1707.93 155.658 L1707.93 151.259 Q1710.29 152.486 1712.59 153.111 Q1714.88 153.713 1717.12 153.713 Q1720.13 153.713 1721.75 152.695 Q1723.37 151.653 1723.37 149.778 Q1723.37 148.042 1722.19 147.116 Q1721.03 146.19 1717.08 145.334 L1715.59 144.986 Q1711.64 144.153 1709.88 142.44 Q1708.12 140.704 1708.12 137.695 Q1708.12 134.037 1710.71 132.047 Q1713.3 130.056 1718.07 130.056 Q1720.43 130.056 1722.52 130.403 Q1724.6 130.75 1726.36 131.445 Z" fill="#000000" fill-rule="nonzero" fill-opacity="1" /><path clip-path="url(#clip430)" d="M1756.71 142.579 L1756.71 144.662 L1737.12 144.662 Q1737.4 149.06 1739.76 151.375 Q1742.15 153.667 1746.38 153.667 Q1748.84 153.667 1751.13 153.065 Q1753.44 152.463 1755.71 151.259 L1755.71 155.287 Q1753.42 156.259 1751.01 156.769 Q1748.6 157.278 1746.13 157.278 Q1739.92 157.278 1736.29 153.667 Q1732.68 150.056 1732.68 143.898 Q1732.68 137.533 1736.1 133.806 Q1739.55 130.056 1745.39 130.056 Q1750.62 130.056 1753.65 133.435 Q1756.71 136.792 1756.71 142.579 M1752.45 141.329 Q1752.4 137.834 1750.48 135.75 Q1748.58 133.667 1745.43 133.667 Q1741.87 133.667 1739.71 135.681 Q1737.59 137.695 1737.26 141.352 L1752.45 141.329 Z" fill="#000000" fill-rule="nonzero" fill-opacity="1" /><path clip-path="url(#clip430)" d="M1780.18 152.671 L1787.82 152.671 L1787.82 126.306 L1779.51 127.973 L1779.51 123.713 L1787.77 122.047 L1792.45 122.047 L1792.45 152.671 L1800.09 152.671 L1800.09 156.607 L1780.18 156.607 L1780.18 152.671 Z" fill="#000000" fill-rule="nonzero" fill-opacity="1" /><polyline clip-path="url(#clip430)" style="stroke:#e26f46; stroke-linecap:round; stroke-linejoin:round; stroke-width:4; stroke-opacity:1; fill:none" points="1496.66,191.167 1604.79,191.167 "/>
<path clip-path="url(#clip430)" d="M1643.33 183.516 L1643.33 187.498 Q1641.52 186.502 1639.69 186.016 Q1637.89 185.507 1636.03 185.507 Q1631.89 185.507 1629.6 188.146 Q1627.31 190.762 1627.31 195.507 Q1627.31 200.252 1629.6 202.891 Q1631.89 205.507 1636.03 205.507 Q1637.89 205.507 1639.69 205.021 Q1641.52 204.511 1643.33 203.516 L1643.33 207.451 Q1641.54 208.285 1639.62 208.701 Q1637.72 209.118 1635.57 209.118 Q1629.72 209.118 1626.27 205.437 Q1622.82 201.757 1622.82 195.507 Q1622.82 189.164 1626.29 185.53 Q1629.79 181.896 1635.85 181.896 Q1637.82 181.896 1639.69 182.313 Q1641.57 182.706 1643.33 183.516 Z" fill="#000000" fill-rule="nonzero" fill-opacity="1" /><path clip-path="url(#clip430)" d="M1662.52 195.414 Q1657.35 195.414 1655.36 196.595 Q1653.37 197.775 1653.37 200.623 Q1653.37 202.891 1654.85 204.234 Q1656.36 205.553 1658.93 205.553 Q1662.47 205.553 1664.6 203.053 Q1666.75 200.53 1666.75 196.363 L1666.75 195.414 L1662.52 195.414 M1671.01 193.655 L1671.01 208.447 L1666.75 208.447 L1666.75 204.511 Q1665.29 206.873 1663.12 208.007 Q1660.94 209.118 1657.79 209.118 Q1653.81 209.118 1651.45 206.896 Q1649.11 204.65 1649.11 200.9 Q1649.11 196.525 1652.03 194.303 Q1654.97 192.081 1660.78 192.081 L1666.75 192.081 L1666.75 191.664 Q1666.75 188.725 1664.81 187.127 Q1662.89 185.507 1659.39 185.507 Q1657.17 185.507 1655.06 186.039 Q1652.96 186.572 1651.01 187.637 L1651.01 183.701 Q1653.35 182.799 1655.55 182.359 Q1657.75 181.896 1659.83 181.896 Q1665.46 181.896 1668.23 184.812 Q1671.01 187.729 1671.01 193.655 Z" fill="#000000" fill-rule="nonzero" fill-opacity="1" /><path clip-path="url(#clip430)" d="M1679.34 198.215 L1679.34 182.521 L1683.6 182.521 L1683.6 198.053 Q1683.6 201.734 1685.04 203.586 Q1686.47 205.414 1689.34 205.414 Q1692.79 205.414 1694.78 203.215 Q1696.8 201.016 1696.8 197.22 L1696.8 182.521 L1701.06 182.521 L1701.06 208.447 L1696.8 208.447 L1696.8 204.465 Q1695.25 206.826 1693.19 207.984 Q1691.15 209.118 1688.44 209.118 Q1683.97 209.118 1681.66 206.34 Q1679.34 203.562 1679.34 198.215 M1690.06 181.896 L1690.06 181.896 Z" fill="#000000" fill-rule="nonzero" fill-opacity="1" /><path clip-path="url(#clip430)" d="M1726.36 183.285 L1726.36 187.312 Q1724.55 186.387 1722.61 185.924 Q1720.66 185.461 1718.58 185.461 Q1715.41 185.461 1713.81 186.433 Q1712.24 187.405 1712.24 189.349 Q1712.24 190.831 1713.37 191.687 Q1714.51 192.521 1717.93 193.285 L1719.39 193.609 Q1723.93 194.581 1725.83 196.363 Q1727.75 198.123 1727.75 201.294 Q1727.75 204.905 1724.88 207.011 Q1722.03 209.118 1717.03 209.118 Q1714.95 209.118 1712.68 208.701 Q1710.43 208.308 1707.93 207.498 L1707.93 203.099 Q1710.29 204.326 1712.59 204.951 Q1714.88 205.553 1717.12 205.553 Q1720.13 205.553 1721.75 204.535 Q1723.37 203.493 1723.37 201.618 Q1723.37 199.882 1722.19 198.956 Q1721.03 198.03 1717.08 197.174 L1715.59 196.826 Q1711.64 195.993 1709.88 194.28 Q1708.12 192.544 1708.12 189.535 Q1708.12 185.877 1710.71 183.887 Q1713.3 181.896 1718.07 181.896 Q1720.43 181.896 1722.52 182.243 Q1724.6 182.59 1726.36 183.285 Z" fill="#000000" fill-rule="nonzero" fill-opacity="1" /><path clip-path="url(#clip430)" d="M1756.71 194.419 L1756.71 196.502 L1737.12 196.502 Q1737.4 200.9 1739.76 203.215 Q1742.15 205.507 1746.38 205.507 Q1748.84 205.507 1751.13 204.905 Q1753.44 204.303 1755.71 203.099 L1755.71 207.127 Q1753.42 208.099 1751.01 208.609 Q1748.6 209.118 1746.13 209.118 Q1739.92 209.118 1736.29 205.507 Q1732.68 201.896 1732.68 195.738 Q1732.68 189.373 1736.1 185.646 Q1739.55 181.896 1745.39 181.896 Q1750.62 181.896 1753.65 185.275 Q1756.71 188.632 1756.71 194.419 M1752.45 193.169 Q1752.4 189.674 1750.48 187.59 Q1748.58 185.507 1745.43 185.507 Q1741.87 185.507 1739.71 187.521 Q1737.59 189.535 1737.26 193.192 L1752.45 193.169 Z" fill="#000000" fill-rule="nonzero" fill-opacity="1" /><path clip-path="url(#clip430)" d="M1783.4 204.511 L1799.71 204.511 L1799.71 208.447 L1777.77 208.447 L1777.77 204.511 Q1780.43 201.757 1785.02 197.127 Q1789.62 192.474 1790.8 191.132 Q1793.05 188.609 1793.93 186.873 Q1794.83 185.113 1794.83 183.424 Q1794.83 180.669 1792.89 178.933 Q1790.96 177.197 1787.86 177.197 Q1785.66 177.197 1783.21 177.961 Q1780.78 178.725 1778 180.275 L1778 175.553 Q1780.83 174.419 1783.28 173.84 Q1785.73 173.262 1787.77 173.262 Q1793.14 173.262 1796.34 175.947 Q1799.53 178.632 1799.53 183.123 Q1799.53 185.252 1798.72 187.174 Q1797.93 189.072 1795.83 191.664 Q1795.25 192.336 1792.15 195.553 Q1789.04 198.748 1783.4 204.511 Z" fill="#000000" fill-rule="nonzero" fill-opacity="1" /><polyline clip-path="url(#clip430)" style="stroke:#3da44d; stroke-linecap:round; stroke-linejoin:round; stroke-width:4; stroke-opacity:1; fill:none" points="1496.66,243.007 1604.79,243.007 "/>
<path clip-path="url(#clip430)" d="M1643.33 235.356 L1643.33 239.338 Q1641.52 238.342 1639.69 237.856 Q1637.89 237.347 1636.03 237.347 Q1631.89 237.347 1629.6 239.986 Q1627.31 242.602 1627.31 247.347 Q1627.31 252.092 1629.6 254.731 Q1631.89 257.347 1636.03 257.347 Q1637.89 257.347 1639.69 256.861 Q1641.52 256.351 1643.33 255.356 L1643.33 259.291 Q1641.54 260.125 1639.62 260.541 Q1637.72 260.958 1635.57 260.958 Q1629.72 260.958 1626.27 257.277 Q1622.82 253.597 1622.82 247.347 Q1622.82 241.004 1626.29 237.37 Q1629.79 233.736 1635.85 233.736 Q1637.82 233.736 1639.69 234.153 Q1641.57 234.546 1643.33 235.356 Z" fill="#000000" fill-rule="nonzero" fill-opacity="1" /><path clip-path="url(#clip430)" d="M1662.52 247.254 Q1657.35 247.254 1655.36 248.435 Q1653.37 249.615 1653.37 252.463 Q1653.37 254.731 1654.85 256.074 Q1656.36 257.393 1658.93 257.393 Q1662.47 257.393 1664.6 254.893 Q1666.75 252.37 1666.75 248.203 L1666.75 247.254 L1662.52 247.254 M1671.01 245.495 L1671.01 260.287 L1666.75 260.287 L1666.75 256.351 Q1665.29 258.713 1663.12 259.847 Q1660.94 260.958 1657.79 260.958 Q1653.81 260.958 1651.45 258.736 Q1649.11 256.49 1649.11 252.74 Q1649.11 248.365 1652.03 246.143 Q1654.97 243.921 1660.78 243.921 L1666.75 243.921 L1666.75 243.504 Q1666.75 240.565 1664.81 238.967 Q1662.89 237.347 1659.39 237.347 Q1657.17 237.347 1655.06 237.879 Q1652.96 238.412 1651.01 239.477 L1651.01 235.541 Q1653.35 234.639 1655.55 234.199 Q1657.75 233.736 1659.83 233.736 Q1665.46 233.736 1668.23 236.652 Q1671.01 239.569 1671.01 245.495 Z" fill="#000000" fill-rule="nonzero" fill-opacity="1" /><path clip-path="url(#clip430)" d="M1679.34 250.055 L1679.34 234.361 L1683.6 234.361 L1683.6 249.893 Q1683.6 253.574 1685.04 255.426 Q1686.47 257.254 1689.34 257.254 Q1692.79 257.254 1694.78 255.055 Q1696.8 252.856 1696.8 249.06 L1696.8 234.361 L1701.06 234.361 L1701.06 260.287 L1696.8 260.287 L1696.8 256.305 Q1695.25 258.666 1693.19 259.824 Q1691.15 260.958 1688.44 260.958 Q1683.97 260.958 1681.66 258.18 Q1679.34 255.402 1679.34 250.055 M1690.06 233.736 L1690.06 233.736 Z" fill="#000000" fill-rule="nonzero" fill-opacity="1" /><path clip-path="url(#clip430)" d="M1726.36 235.125 L1726.36 239.152 Q1724.55 238.227 1722.61 237.764 Q1720.66 237.301 1718.58 237.301 Q1715.41 237.301 1713.81 238.273 Q1712.24 239.245 1712.24 241.189 Q1712.24 242.671 1713.37 243.527 Q1714.51 244.361 1717.93 245.125 L1719.39 245.449 Q1723.93 246.421 1725.83 248.203 Q1727.75 249.963 1727.75 253.134 Q1727.75 256.745 1724.88 258.851 Q1722.03 260.958 1717.03 260.958 Q1714.95 260.958 1712.68 260.541 Q1710.43 260.148 1707.93 259.338 L1707.93 254.939 Q1710.29 256.166 1712.59 256.791 Q1714.88 257.393 1717.12 257.393 Q1720.13 257.393 1721.75 256.375 Q1723.37 255.333 1723.37 253.458 Q1723.37 251.722 1722.19 250.796 Q1721.03 249.87 1717.08 249.014 L1715.59 248.666 Q1711.64 247.833 1709.88 246.12 Q1708.12 244.384 1708.12 241.375 Q1708.12 237.717 1710.71 235.727 Q1713.3 233.736 1718.07 233.736 Q1720.43 233.736 1722.52 234.083 Q1724.6 234.43 1726.36 235.125 Z" fill="#000000" fill-rule="nonzero" fill-opacity="1" /><path clip-path="url(#clip430)" d="M1756.71 246.259 L1756.71 248.342 L1737.12 248.342 Q1737.4 252.74 1739.76 255.055 Q1742.15 257.347 1746.38 257.347 Q1748.84 257.347 1751.13 256.745 Q1753.44 256.143 1755.71 254.939 L1755.71 258.967 Q1753.42 259.939 1751.01 260.449 Q1748.6 260.958 1746.13 260.958 Q1739.92 260.958 1736.29 257.347 Q1732.68 253.736 1732.68 247.578 Q1732.68 241.213 1736.1 237.486 Q1739.55 233.736 1745.39 233.736 Q1750.62 233.736 1753.65 237.115 Q1756.71 240.472 1756.71 246.259 M1752.45 245.009 Q1752.4 241.514 1750.48 239.43 Q1748.58 237.347 1745.43 237.347 Q1741.87 237.347 1739.71 239.361 Q1737.59 241.375 1737.26 245.032 L1752.45 245.009 Z" fill="#000000" fill-rule="nonzero" fill-opacity="1" /><path clip-path="url(#clip430)" d="M1793.53 241.652 Q1796.89 242.37 1798.77 244.639 Q1800.66 246.907 1800.66 250.24 Q1800.66 255.356 1797.15 258.157 Q1793.63 260.958 1787.15 260.958 Q1784.97 260.958 1782.65 260.518 Q1780.36 260.101 1777.91 259.245 L1777.91 254.731 Q1779.85 255.865 1782.17 256.444 Q1784.48 257.023 1787.01 257.023 Q1791.4 257.023 1793.7 255.287 Q1796.01 253.551 1796.01 250.24 Q1796.01 247.185 1793.86 245.472 Q1791.73 243.736 1787.91 243.736 L1783.88 243.736 L1783.88 239.893 L1788.09 239.893 Q1791.54 239.893 1793.37 238.527 Q1795.2 237.139 1795.2 234.546 Q1795.2 231.884 1793.3 230.472 Q1791.43 229.037 1787.91 229.037 Q1785.99 229.037 1783.79 229.453 Q1781.59 229.87 1778.95 230.75 L1778.95 226.583 Q1781.61 225.842 1783.93 225.472 Q1786.27 225.102 1788.33 225.102 Q1793.65 225.102 1796.75 227.532 Q1799.85 229.94 1799.85 234.06 Q1799.85 236.93 1798.21 238.921 Q1796.57 240.889 1793.53 241.652 Z" fill="#000000" fill-rule="nonzero" fill-opacity="1" /></svg>
