<?xml version="1.0" encoding="utf-8"?>
<svg xmlns="http://www.w3.org/2000/svg" xmlns:xlink="http://www.w3.org/1999/xlink" width="480" height="360" viewBox="0 0 1920 1440">
<defs>
  <clipPath id="clip310">
    <rect x="0" y="0" width="1920" height="1440"/>
  </clipPath>
</defs>
<path clip-path="url(#clip310)" d="M0 1440 L1920 1440 L1920 0 L0 0  Z" fill="#ffffff" fill-rule="evenodd" fill-opacity="1"/>
<defs>
  <clipPath id="clip311">
    <rect x="384" y="0" width="1345" height="1345"/>
  </clipPath>
</defs>
<path clip-path="url(#clip310)" d="M251.168 1254.52 L1872.76 1254.52 L1872.76 47.2441 L251.168 47.2441  Z" fill="#ffffff" fill-rule="evenodd" fill-opacity="1"/>
<defs>
  <clipPath id="clip312">
    <rect x="251" y="47" width="1623" height="1208"/>
  </clipPath>
</defs>
<polyline clip-path="url(#clip312)" style="stroke:#000000; stroke-linecap:round; stroke-linejoin:round; stroke-width:2; stroke-opacity:0.1; fill:none" points="251.168,1254.52 251.168,47.2441 "/>
<polyline clip-path="url(#clip312)" style="stroke:#000000; stroke-linecap:round; stroke-linejoin:round; stroke-width:2; stroke-opacity:0.1; fill:none" points="656.565,1254.52 656.565,47.2441 "/>
<polyline clip-path="url(#clip312)" style="stroke:#000000; stroke-linecap:round; stroke-linejoin:round; stroke-width:2; stroke-opacity:0.1; fill:none" points="1061.96,1254.52 1061.96,47.2441 "/>
<polyline clip-path="url(#clip312)" style="stroke:#000000; stroke-linecap:round; stroke-linejoin:round; stroke-width:2; stroke-opacity:0.1; fill:none" points="1467.36,1254.52 1467.36,47.2441 "/>
<polyline clip-path="url(#clip312)" style="stroke:#000000; stroke-linecap:round; stroke-linejoin:round; stroke-width:2; stroke-opacity:0.1; fill:none" points="1872.76,1254.52 1872.76,47.2441 "/>
<polyline clip-path="url(#clip312)" style="stroke:#000000; stroke-linecap:round; stroke-linejoin:round; stroke-width:2; stroke-opacity:0.1; fill:none" points="251.168,1133.79 1872.76,1133.79 "/>
<polyline clip-path="url(#clip312)" style="stroke:#000000; stroke-linecap:round; stroke-linejoin:round; stroke-width:2; stroke-opacity:0.1; fill:none" points="251.168,892.337 1872.76,892.337 "/>
<polyline clip-path="url(#clip312)" style="stroke:#000000; stroke-linecap:round; stroke-linejoin:round; stroke-width:2; stroke-opacity:0.1; fill:none" points="251.168,650.882 1872.76,650.882 "/>
<polyline clip-path="url(#clip312)" style="stroke:#000000; stroke-linecap:round; stroke-linejoin:round; stroke-width:2; stroke-opacity:0.1; fill:none" points="251.168,409.427 1872.76,409.427 "/>
<polyline clip-path="url(#clip312)" style="stroke:#000000; stroke-linecap:round; stroke-linejoin:round; stroke-width:2; stroke-opacity:0.1; fill:none" points="251.168,167.972 1872.76,167.972 "/>
<polyline clip-path="url(#clip310)" style="stroke:#000000; stroke-linecap:round; stroke-linejoin:round; stroke-width:4; stroke-opacity:1; fill:none" points="251.168,1254.52 1872.76,1254.52 "/>
<polyline clip-path="url(#clip310)" style="stroke:#000000; stroke-linecap:round; stroke-linejoin:round; stroke-width:4; stroke-opacity:1; fill:none" points="251.168,1254.52 251.168,1235.62 "/>
<polyline clip-path="url(#clip310)" style="stroke:#000000; stroke-linecap:round; stroke-linejoin:round; stroke-width:4; stroke-opacity:1; fill:none" points="656.565,1254.52 656.565,1235.62 "/>
<polyline clip-path="url(#clip310)" style="stroke:#000000; stroke-linecap:round; stroke-linejoin:round; stroke-width:4; stroke-opacity:1; fill:none" points="1061.96,1254.52 1061.96,1235.62 "/>
<polyline clip-path="url(#clip310)" style="stroke:#000000; stroke-linecap:round; stroke-linejoin:round; stroke-width:4; stroke-opacity:1; fill:none" points="1467.36,1254.52 1467.36,1235.62 "/>
<polyline clip-path="url(#clip310)" style="stroke:#000000; stroke-linecap:round; stroke-linejoin:round; stroke-width:4; stroke-opacity:1; fill:none" points="1872.76,1254.52 1872.76,1235.62 "/>
<path clip-path="url(#clip310)" d="M251.168 1281.6 Q247.557 1281.6 245.728 1285.16 Q243.923 1288.7 243.923 1295.83 Q243.923 1302.94 245.728 1306.51 Q247.557 1310.05 251.168 1310.05 Q254.802 1310.05 256.608 1306.51 Q258.437 1302.94 258.437 1295.83 Q258.437 1288.7 256.608 1285.16 Q254.802 1281.6 251.168 1281.6 M251.168 1277.89 Q256.978 1277.89 260.034 1282.5 Q263.113 1287.08 263.113 1295.83 Q263.113 1304.56 260.034 1309.17 Q256.978 1313.75 251.168 1313.75 Q245.358 1313.75 242.279 1309.17 Q239.224 1304.56 239.224 1295.83 Q239.224 1287.08 242.279 1282.5 Q245.358 1277.89 251.168 1277.89 Z" fill="#ffffff" fill-rule="nonzero" fill-opacity="1" /><path clip-path="url(#clip310)" d="M616.183 1278.52 L634.54 1278.52 L634.54 1282.46 L620.466 1282.46 L620.466 1290.93 Q621.484 1290.58 622.503 1290.42 Q623.521 1290.23 624.54 1290.23 Q630.327 1290.23 633.706 1293.4 Q637.086 1296.58 637.086 1301.99 Q637.086 1307.57 633.614 1310.67 Q630.142 1313.75 623.822 1313.75 Q621.646 1313.75 619.378 1313.38 Q617.132 1313.01 614.725 1312.27 L614.725 1307.57 Q616.808 1308.7 619.031 1309.26 Q621.253 1309.82 623.73 1309.82 Q627.734 1309.82 630.072 1307.71 Q632.41 1305.6 632.41 1301.99 Q632.41 1298.38 630.072 1296.27 Q627.734 1294.17 623.73 1294.17 Q621.855 1294.17 619.98 1294.58 Q618.128 1295 616.183 1295.88 L616.183 1278.52 Z" fill="#ffffff" fill-rule="nonzero" fill-opacity="1" /><path clip-path="url(#clip310)" d="M656.299 1281.6 Q652.688 1281.6 650.859 1285.16 Q649.054 1288.7 649.054 1295.83 Q649.054 1302.94 650.859 1306.51 Q652.688 1310.05 656.299 1310.05 Q659.933 1310.05 661.739 1306.51 Q663.567 1302.94 663.567 1295.83 Q663.567 1288.7 661.739 1285.16 Q659.933 1281.6 656.299 1281.6 M656.299 1277.89 Q662.109 1277.89 665.165 1282.5 Q668.243 1287.08 668.243 1295.83 Q668.243 1304.56 665.165 1309.17 Q662.109 1313.75 656.299 1313.75 Q650.489 1313.75 647.41 1309.17 Q644.354 1304.56 644.354 1295.83 Q644.354 1287.08 647.41 1282.5 Q650.489 1277.89 656.299 1277.89 Z" fill="#ffffff" fill-rule="nonzero" fill-opacity="1" /><path clip-path="url(#clip310)" d="M686.461 1281.6 Q682.85 1281.6 681.021 1285.16 Q679.215 1288.7 679.215 1295.83 Q679.215 1302.94 681.021 1306.51 Q682.85 1310.05 686.461 1310.05 Q690.095 1310.05 691.901 1306.51 Q693.729 1302.94 693.729 1295.83 Q693.729 1288.7 691.901 1285.16 Q690.095 1281.6 686.461 1281.6 M686.461 1277.89 Q692.271 1277.89 695.326 1282.5 Q698.405 1287.08 698.405 1295.83 Q698.405 1304.56 695.326 1309.17 Q692.271 1313.75 686.461 1313.75 Q680.651 1313.75 677.572 1309.17 Q674.516 1304.56 674.516 1295.83 Q674.516 1287.08 677.572 1282.5 Q680.651 1277.89 686.461 1277.89 Z" fill="#ffffff" fill-rule="nonzero" fill-opacity="1" /><path clip-path="url(#clip310)" d="M1006.49 1309.14 L1014.13 1309.14 L1014.13 1282.78 L1005.82 1284.45 L1005.82 1280.19 L1014.08 1278.52 L1018.76 1278.52 L1018.76 1309.14 L1026.4 1309.14 L1026.4 1313.08 L1006.49 1313.08 L1006.49 1309.14 Z" fill="#ffffff" fill-rule="nonzero" fill-opacity="1" /><path clip-path="url(#clip310)" d="M1045.84 1281.6 Q1042.23 1281.6 1040.4 1285.16 Q1038.59 1288.7 1038.59 1295.83 Q1038.59 1302.94 1040.4 1306.51 Q1042.23 1310.05 1045.84 1310.05 Q1049.47 1310.05 1051.28 1306.51 Q1053.11 1302.94 1053.11 1295.83 Q1053.11 1288.7 1051.28 1285.16 Q1049.47 1281.6 1045.84 1281.6 M1045.84 1277.89 Q1051.65 1277.89 1054.71 1282.5 Q1057.78 1287.08 1057.78 1295.83 Q1057.78 1304.56 1054.71 1309.17 Q1051.65 1313.75 1045.84 1313.75 Q1040.03 1313.75 1036.95 1309.17 Q1033.9 1304.56 1033.9 1295.83 Q1033.9 1287.08 1036.95 1282.5 Q1040.03 1277.89 1045.84 1277.89 Z" fill="#ffffff" fill-rule="nonzero" fill-opacity="1" /><path clip-path="url(#clip310)" d="M1076 1281.6 Q1072.39 1281.6 1070.56 1285.16 Q1068.76 1288.7 1068.76 1295.83 Q1068.76 1302.94 1070.56 1306.51 Q1072.39 1310.05 1076 1310.05 Q1079.64 1310.05 1081.44 1306.51 Q1083.27 1302.94 1083.27 1295.83 Q1083.27 1288.7 1081.44 1285.16 Q1079.64 1281.6 1076 1281.6 M1076 1277.89 Q1081.81 1277.89 1084.87 1282.5 Q1087.95 1287.08 1087.95 1295.83 Q1087.95 1304.56 1084.87 1309.17 Q1081.81 1313.75 1076 1313.75 Q1070.19 1313.75 1067.11 1309.17 Q1064.06 1304.56 1064.06 1295.83 Q1064.06 1287.08 1067.11 1282.5 Q1070.19 1277.89 1076 1277.89 Z" fill="#ffffff" fill-rule="nonzero" fill-opacity="1" /><path clip-path="url(#clip310)" d="M1106.16 1281.6 Q1102.55 1281.6 1100.72 1285.16 Q1098.92 1288.7 1098.92 1295.83 Q1098.92 1302.94 1100.72 1306.51 Q1102.55 1310.05 1106.16 1310.05 Q1109.8 1310.05 1111.6 1306.51 Q1113.43 1302.94 1113.43 1295.83 Q1113.43 1288.7 1111.6 1285.16 Q1109.8 1281.6 1106.16 1281.6 M1106.16 1277.89 Q1111.97 1277.89 1115.03 1282.5 Q1118.11 1287.08 1118.11 1295.83 Q1118.11 1304.56 1115.03 1309.17 Q1111.97 1313.75 1106.16 1313.75 Q1100.35 1313.75 1097.27 1309.17 Q1094.22 1304.56 1094.22 1295.83 Q1094.22 1287.08 1097.27 1282.5 Q1100.35 1277.89 1106.16 1277.89 Z" fill="#ffffff" fill-rule="nonzero" fill-opacity="1" /><path clip-path="url(#clip310)" d="M1411.88 1309.14 L1419.52 1309.14 L1419.52 1282.78 L1411.21 1284.45 L1411.21 1280.19 L1419.48 1278.52 L1424.15 1278.52 L1424.15 1309.14 L1431.79 1309.14 L1431.79 1313.08 L1411.88 1313.08 L1411.88 1309.14 Z" fill="#ffffff" fill-rule="nonzero" fill-opacity="1" /><path clip-path="url(#clip310)" d="M1441.28 1278.52 L1459.64 1278.52 L1459.64 1282.46 L1445.57 1282.46 L1445.57 1290.93 Q1446.58 1290.58 1447.6 1290.42 Q1448.62 1290.23 1449.64 1290.23 Q1455.43 1290.23 1458.81 1293.4 Q1462.19 1296.58 1462.19 1301.99 Q1462.19 1307.57 1458.71 1310.67 Q1455.24 1313.75 1448.92 1313.75 Q1446.75 1313.75 1444.48 1313.38 Q1442.23 1313.01 1439.82 1312.27 L1439.82 1307.57 Q1441.91 1308.7 1444.13 1309.26 Q1446.35 1309.82 1448.83 1309.82 Q1452.83 1309.82 1455.17 1307.71 Q1457.51 1305.6 1457.51 1301.99 Q1457.51 1298.38 1455.17 1296.27 Q1452.83 1294.17 1448.83 1294.17 Q1446.95 1294.17 1445.08 1294.58 Q1443.23 1295 1441.28 1295.88 L1441.28 1278.52 Z" fill="#ffffff" fill-rule="nonzero" fill-opacity="1" /><path clip-path="url(#clip310)" d="M1481.4 1281.6 Q1477.79 1281.6 1475.96 1285.16 Q1474.15 1288.7 1474.15 1295.83 Q1474.15 1302.94 1475.96 1306.51 Q1477.79 1310.05 1481.4 1310.05 Q1485.03 1310.05 1486.84 1306.51 Q1488.67 1302.94 1488.67 1295.83 Q1488.67 1288.7 1486.84 1285.16 Q1485.03 1281.6 1481.4 1281.6 M1481.4 1277.89 Q1487.21 1277.89 1490.26 1282.5 Q1493.34 1287.08 1493.34 1295.83 Q1493.34 1304.56 1490.26 1309.17 Q1487.21 1313.75 1481.4 1313.75 Q1475.59 1313.75 1472.51 1309.17 Q1469.45 1304.56 1469.45 1295.83 Q1469.45 1287.08 1472.51 1282.5 Q1475.59 1277.89 1481.4 1277.89 Z" fill="#ffffff" fill-rule="nonzero" fill-opacity="1" /><path clip-path="url(#clip310)" d="M1511.56 1281.6 Q1507.95 1281.6 1506.12 1285.16 Q1504.31 1288.7 1504.31 1295.83 Q1504.31 1302.94 1506.12 1306.51 Q1507.95 1310.05 1511.56 1310.05 Q1515.19 1310.05 1517 1306.51 Q1518.83 1302.94 1518.83 1295.83 Q1518.83 1288.7 1517 1285.16 Q1515.19 1281.6 1511.56 1281.6 M1511.56 1277.89 Q1517.37 1277.89 1520.43 1282.5 Q1523.5 1287.08 1523.5 1295.83 Q1523.5 1304.56 1520.43 1309.17 Q1517.37 1313.75 1511.56 1313.75 Q1505.75 1313.75 1502.67 1309.17 Q1499.62 1304.56 1499.62 1295.83 Q1499.62 1287.08 1502.67 1282.5 Q1505.75 1277.89 1511.56 1277.89 Z" fill="#ffffff" fill-rule="nonzero" fill-opacity="1" /><path clip-path="url(#clip310)" d="M1821.37 1309.14 L1837.69 1309.14 L1837.69 1313.08 L1815.74 1313.08 L1815.74 1309.14 Q1818.4 1306.39 1822.99 1301.76 Q1827.59 1297.11 1828.77 1295.77 Q1831.02 1293.24 1831.9 1291.51 Q1832.8 1289.75 1832.8 1288.06 Q1832.8 1285.3 1830.86 1283.57 Q1828.94 1281.83 1825.83 1281.83 Q1823.64 1281.83 1821.18 1282.59 Q1818.75 1283.36 1815.97 1284.91 L1815.97 1280.19 Q1818.8 1279.05 1821.25 1278.47 Q1823.71 1277.89 1825.74 1277.89 Q1831.11 1277.89 1834.31 1280.58 Q1837.5 1283.27 1837.5 1287.76 Q1837.5 1289.89 1836.69 1291.81 Q1835.9 1293.7 1833.8 1296.3 Q1833.22 1296.97 1830.12 1300.19 Q1827.02 1303.38 1821.37 1309.14 Z" fill="#ffffff" fill-rule="nonzero" fill-opacity="1" /><path clip-path="url(#clip310)" d="M1857.5 1281.6 Q1853.89 1281.6 1852.06 1285.16 Q1850.26 1288.7 1850.26 1295.83 Q1850.26 1302.94 1852.06 1306.51 Q1853.89 1310.05 1857.5 1310.05 Q1861.14 1310.05 1862.94 1306.51 Q1864.77 1302.94 1864.77 1295.83 Q1864.77 1288.7 1862.94 1285.16 Q1861.14 1281.6 1857.5 1281.6 M1857.5 1277.89 Q1863.31 1277.89 1866.37 1282.5 Q1869.45 1287.08 1869.45 1295.83 Q1869.45 1304.56 1866.37 1309.17 Q1863.31 1313.75 1857.5 1313.75 Q1851.69 1313.75 1848.61 1309.17 Q1845.56 1304.56 1845.56 1295.83 Q1845.56 1287.08 1848.61 1282.5 Q1851.69 1277.89 1857.5 1277.89 Z" fill="#ffffff" fill-rule="nonzero" fill-opacity="1" /><path clip-path="url(#clip310)" d="M1887.66 1281.6 Q1884.05 1281.6 1882.22 1285.16 Q1880.42 1288.7 1880.42 1295.83 Q1880.42 1302.94 1882.22 1306.51 Q1884.05 1310.05 1887.66 1310.05 Q1891.3 1310.05 1893.1 1306.51 Q1894.93 1302.94 1894.93 1295.83 Q1894.93 1288.7 1893.1 1285.16 Q1891.3 1281.6 1887.66 1281.6 M1887.66 1277.89 Q1893.47 1277.89 1896.53 1282.5 Q1899.61 1287.08 1899.61 1295.83 Q1899.61 1304.56 1896.53 1309.17 Q1893.47 1313.75 1887.66 1313.75 Q1881.85 1313.75 1878.77 1309.17 Q1875.72 1304.56 1875.72 1295.83 Q1875.72 1287.08 1878.77 1282.5 Q1881.85 1277.89 1887.66 1277.89 Z" fill="#ffffff" fill-rule="nonzero" fill-opacity="1" /><path clip-path="url(#clip310)" d="M1917.83 1281.6 Q1914.21 1281.6 1912.39 1285.16 Q1910.58 1288.7 1910.58 1295.83 Q1910.58 1302.94 1912.39 1306.51 Q1914.21 1310.05 1917.83 1310.05 Q1921.46 1310.05 1923.26 1306.51 Q1925.09 1302.94 1925.09 1295.83 Q1925.09 1288.7 1923.26 1285.16 Q1921.46 1281.6 1917.83 1281.6 M1917.83 1277.89 Q1923.64 1277.89 1926.69 1282.5 Q1929.77 1287.08 1929.77 1295.83 Q1929.77 1304.56 1926.69 1309.17 Q1923.64 1313.75 1917.83 1313.75 Q1912.01 1313.75 1908.94 1309.17 Q1905.88 1304.56 1905.88 1295.83 Q1905.88 1287.08 1908.94 1282.5 Q1912.01 1277.89 1917.83 1277.89 Z" fill="#ffffff" fill-rule="nonzero" fill-opacity="1" /><path clip-path="url(#clip310)" d="M955.177 1357.59 L955.177 1363.12 Q952.695 1361.85 950.021 1361.21 Q947.347 1360.58 944.483 1360.58 Q940.122 1360.58 937.926 1361.91 Q935.762 1363.25 935.762 1365.93 Q935.762 1367.96 937.321 1369.14 Q938.881 1370.29 943.592 1371.34 L945.597 1371.78 Q951.835 1373.12 954.445 1375.57 Q957.087 1377.99 957.087 1382.35 Q957.087 1387.31 953.14 1390.21 Q949.225 1393.11 942.35 1393.11 Q939.486 1393.11 936.367 1392.53 Q933.279 1391.99 929.842 1390.88 L929.842 1384.83 Q933.088 1386.52 936.239 1387.38 Q939.39 1388.21 942.478 1388.21 Q946.615 1388.21 948.843 1386.8 Q951.071 1385.37 951.071 1382.79 Q951.071 1380.41 949.448 1379.13 Q947.857 1377.86 942.414 1376.68 L940.377 1376.21 Q934.934 1375.06 932.515 1372.7 Q930.096 1370.32 930.096 1366.18 Q930.096 1361.15 933.661 1358.41 Q937.226 1355.68 943.783 1355.68 Q947.029 1355.68 949.894 1356.15 Q952.758 1356.63 955.177 1357.59 Z" fill="#000000" fill-rule="nonzero" fill-opacity="1" /><path clip-path="url(#clip310)" d="M982.613 1374.26 Q975.516 1374.26 972.778 1375.89 Q970.041 1377.51 970.041 1381.43 Q970.041 1384.54 972.078 1386.39 Q974.147 1388.21 977.68 1388.21 Q982.55 1388.21 985.478 1384.77 Q988.438 1381.3 988.438 1375.57 L988.438 1374.26 L982.613 1374.26 M994.295 1371.85 L994.295 1392.18 L988.438 1392.18 L988.438 1386.77 Q986.433 1390.02 983.441 1391.58 Q980.449 1393.11 976.12 1393.11 Q970.646 1393.11 967.399 1390.05 Q964.185 1386.96 964.185 1381.81 Q964.185 1375.79 968.195 1372.74 Q972.237 1369.68 980.226 1369.68 L988.438 1369.68 L988.438 1369.11 Q988.438 1365.07 985.765 1362.87 Q983.123 1360.64 978.317 1360.64 Q975.261 1360.64 972.365 1361.37 Q969.468 1362.11 966.795 1363.57 L966.795 1358.16 Q970.009 1356.92 973.033 1356.31 Q976.057 1355.68 978.921 1355.68 Q986.656 1355.68 990.475 1359.69 Q994.295 1363.7 994.295 1371.85 Z" fill="#000000" fill-rule="nonzero" fill-opacity="1" /><path clip-path="url(#clip310)" d="M1034.11 1363.38 Q1036.31 1359.43 1039.36 1357.55 Q1042.42 1355.68 1046.56 1355.68 Q1052.13 1355.68 1055.15 1359.59 Q1058.17 1363.47 1058.17 1370.67 L1058.17 1392.18 L1052.29 1392.18 L1052.29 1370.86 Q1052.29 1365.73 1050.47 1363.25 Q1048.66 1360.77 1044.93 1360.77 Q1040.38 1360.77 1037.74 1363.79 Q1035.1 1366.82 1035.1 1372.04 L1035.1 1392.18 L1029.21 1392.18 L1029.21 1370.86 Q1029.21 1365.7 1027.4 1363.25 Q1025.58 1360.77 1021.79 1360.77 Q1017.31 1360.77 1014.66 1363.82 Q1012.02 1366.85 1012.02 1372.04 L1012.02 1392.18 L1006.13 1392.18 L1006.13 1356.54 L1012.02 1356.54 L1012.02 1362.07 Q1014.03 1358.8 1016.83 1357.24 Q1019.63 1355.68 1023.48 1355.68 Q1027.36 1355.68 1030.07 1357.65 Q1032.81 1359.62 1034.11 1363.38 Z" fill="#000000" fill-rule="nonzero" fill-opacity="1" /><path clip-path="url(#clip310)" d="M1075.52 1386.84 L1075.52 1405.74 L1069.63 1405.74 L1069.63 1356.54 L1075.52 1356.54 L1075.52 1361.95 Q1077.37 1358.76 1080.17 1357.24 Q1083 1355.68 1086.92 1355.68 Q1093.41 1355.68 1097.45 1360.83 Q1101.52 1365.99 1101.52 1374.39 Q1101.52 1382.79 1097.45 1387.95 Q1093.41 1393.11 1086.92 1393.11 Q1083 1393.11 1080.17 1391.58 Q1077.37 1390.02 1075.52 1386.84 M1095.45 1374.39 Q1095.45 1367.93 1092.77 1364.27 Q1090.13 1360.58 1085.48 1360.58 Q1080.84 1360.58 1078.16 1364.27 Q1075.52 1367.93 1075.52 1374.39 Q1075.52 1380.85 1078.16 1384.54 Q1080.84 1388.21 1085.48 1388.21 Q1090.13 1388.21 1092.77 1384.54 Q1095.45 1380.85 1095.45 1374.39 Z" fill="#000000" fill-rule="nonzero" fill-opacity="1" /><path clip-path="url(#clip310)" d="M1111.23 1342.66 L1117.09 1342.66 L1117.09 1392.18 L1111.23 1392.18 L1111.23 1342.66 Z" fill="#000000" fill-rule="nonzero" fill-opacity="1" /><path clip-path="url(#clip310)" d="M1159.83 1372.9 L1159.83 1375.76 L1132.91 1375.76 Q1133.29 1381.81 1136.54 1384.99 Q1139.81 1388.14 1145.64 1388.14 Q1149.01 1388.14 1152.16 1387.31 Q1155.35 1386.49 1158.47 1384.83 L1158.47 1390.37 Q1155.32 1391.71 1152 1392.41 Q1148.69 1393.11 1145.29 1393.11 Q1136.76 1393.11 1131.76 1388.14 Q1126.8 1383.18 1126.8 1374.71 Q1126.8 1365.96 1131.51 1360.83 Q1136.25 1355.68 1144.27 1355.68 Q1151.46 1355.68 1155.63 1360.32 Q1159.83 1364.94 1159.83 1372.9 M1153.98 1371.18 Q1153.91 1366.37 1151.27 1363.51 Q1148.66 1360.64 1144.33 1360.64 Q1139.43 1360.64 1136.47 1363.41 Q1133.54 1366.18 1133.1 1371.21 L1153.98 1371.18 Z" fill="#000000" fill-rule="nonzero" fill-opacity="1" /><path clip-path="url(#clip310)" d="M1192.17 1357.59 L1192.17 1363.12 Q1189.69 1361.85 1187.02 1361.21 Q1184.34 1360.58 1181.48 1360.58 Q1177.12 1360.58 1174.92 1361.91 Q1172.76 1363.25 1172.76 1365.93 Q1172.76 1367.96 1174.32 1369.14 Q1175.88 1370.29 1180.59 1371.34 L1182.59 1371.78 Q1188.83 1373.12 1191.44 1375.57 Q1194.08 1377.99 1194.08 1382.35 Q1194.08 1387.31 1190.14 1390.21 Q1186.22 1393.11 1179.35 1393.11 Q1176.48 1393.11 1173.36 1392.53 Q1170.27 1391.99 1166.84 1390.88 L1166.84 1384.83 Q1170.08 1386.52 1173.23 1387.38 Q1176.39 1388.21 1179.47 1388.21 Q1183.61 1388.21 1185.84 1386.8 Q1188.07 1385.37 1188.07 1382.79 Q1188.07 1380.41 1186.44 1379.13 Q1184.85 1377.86 1179.41 1376.68 L1177.37 1376.21 Q1171.93 1375.06 1169.51 1372.7 Q1167.09 1370.32 1167.09 1366.18 Q1167.09 1361.15 1170.66 1358.41 Q1174.22 1355.68 1180.78 1355.68 Q1184.02 1355.68 1186.89 1356.15 Q1189.75 1356.63 1192.17 1357.59 Z" fill="#000000" fill-rule="nonzero" fill-opacity="1" /><polyline clip-path="url(#clip310)" style="stroke:#000000; stroke-linecap:round; stroke-linejoin:round; stroke-width:4; stroke-opacity:1; fill:none" points="251.168,1254.52 251.168,47.2441 "/>
<polyline clip-path="url(#clip310)" style="stroke:#000000; stroke-linecap:round; stroke-linejoin:round; stroke-width:4; stroke-opacity:1; fill:none" points="251.168,1133.79 270.066,1133.79 "/>
<polyline clip-path="url(#clip310)" style="stroke:#000000; stroke-linecap:round; stroke-linejoin:round; stroke-width:4; stroke-opacity:1; fill:none" points="251.168,892.337 270.066,892.337 "/>
<polyline clip-path="url(#clip310)" style="stroke:#000000; stroke-linecap:round; stroke-linejoin:round; stroke-width:4; stroke-opacity:1; fill:none" points="251.168,650.882 270.066,650.882 "/>
<polyline clip-path="url(#clip310)" style="stroke:#000000; stroke-linecap:round; stroke-linejoin:round; stroke-width:4; stroke-opacity:1; fill:none" points="251.168,409.427 270.066,409.427 "/>
<polyline clip-path="url(#clip310)" style="stroke:#000000; stroke-linecap:round; stroke-linejoin:round; stroke-width:4; stroke-opacity:1; fill:none" points="251.168,167.972 270.066,167.972 "/>
<path clip-path="url(#clip310)" d="M135.123 1119.59 Q131.512 1119.59 129.683 1123.16 Q127.878 1126.7 127.878 1133.83 Q127.878 1140.93 129.683 1144.5 Q131.512 1148.04 135.123 1148.04 Q138.757 1148.04 140.563 1144.5 Q142.392 1140.93 142.392 1133.83 Q142.392 1126.7 140.563 1123.16 Q138.757 1119.59 135.123 1119.59 M135.123 1115.89 Q140.933 1115.89 143.989 1120.49 Q147.068 1125.08 147.068 1133.83 Q147.068 1142.55 143.989 1147.16 Q140.933 1151.74 135.123 1151.74 Q129.313 1151.74 126.234 1147.16 Q123.179 1142.55 123.179 1133.83 Q123.179 1125.08 126.234 1120.49 Q129.313 1115.89 135.123 1115.89 Z" fill="#000000" fill-rule="nonzero" fill-opacity="1" /><path clip-path="url(#clip310)" d="M155.285 1145.19 L160.169 1145.19 L160.169 1151.07 L155.285 1151.07 L155.285 1145.19 Z" fill="#000000" fill-rule="nonzero" fill-opacity="1" /><path clip-path="url(#clip310)" d="M183.202 1120.59 L171.396 1139.04 L183.202 1139.04 L183.202 1120.59 M181.975 1116.51 L187.854 1116.51 L187.854 1139.04 L192.785 1139.04 L192.785 1142.92 L187.854 1142.92 L187.854 1151.07 L183.202 1151.07 L183.202 1142.92 L167.6 1142.92 L167.6 1138.41 L181.975 1116.51 Z" fill="#000000" fill-rule="nonzero" fill-opacity="1" /><path clip-path="url(#clip310)" d="M210.516 1134.66 Q207.183 1134.66 205.262 1136.44 Q203.364 1138.23 203.364 1141.35 Q203.364 1144.48 205.262 1146.26 Q207.183 1148.04 210.516 1148.04 Q213.85 1148.04 215.771 1146.26 Q217.692 1144.45 217.692 1141.35 Q217.692 1138.23 215.771 1136.44 Q213.873 1134.66 210.516 1134.66 M205.84 1132.67 Q202.831 1131.93 201.141 1129.87 Q199.475 1127.81 199.475 1124.85 Q199.475 1120.7 202.415 1118.29 Q205.377 1115.89 210.516 1115.89 Q215.678 1115.89 218.618 1118.29 Q221.558 1120.7 221.558 1124.85 Q221.558 1127.81 219.868 1129.87 Q218.201 1131.93 215.215 1132.67 Q218.595 1133.46 220.47 1135.75 Q222.368 1138.04 222.368 1141.35 Q222.368 1146.37 219.289 1149.06 Q216.234 1151.74 210.516 1151.74 Q204.799 1151.74 201.72 1149.06 Q198.665 1146.37 198.665 1141.35 Q198.665 1138.04 200.563 1135.75 Q202.461 1133.46 205.84 1132.67 M204.127 1125.29 Q204.127 1127.97 205.794 1129.48 Q207.484 1130.98 210.516 1130.98 Q213.526 1130.98 215.215 1129.48 Q216.928 1127.97 216.928 1125.29 Q216.928 1122.6 215.215 1121.1 Q213.526 1119.59 210.516 1119.59 Q207.484 1119.59 205.794 1121.1 Q204.127 1122.6 204.127 1125.29 Z" fill="#000000" fill-rule="nonzero" fill-opacity="1" /><path clip-path="url(#clip310)" d="M135.031 878.136 Q131.42 878.136 129.591 881.701 Q127.785 885.242 127.785 892.372 Q127.785 899.478 129.591 903.043 Q131.42 906.585 135.031 906.585 Q138.665 906.585 140.47 903.043 Q142.299 899.478 142.299 892.372 Q142.299 885.242 140.47 881.701 Q138.665 878.136 135.031 878.136 M135.031 874.432 Q140.841 874.432 143.896 879.039 Q146.975 883.622 146.975 892.372 Q146.975 901.099 143.896 905.705 Q140.841 910.288 135.031 910.288 Q129.22 910.288 126.142 905.705 Q123.086 901.099 123.086 892.372 Q123.086 883.622 126.142 879.039 Q129.22 874.432 135.031 874.432 Z" fill="#000000" fill-rule="nonzero" fill-opacity="1" /><path clip-path="url(#clip310)" d="M155.193 903.738 L160.077 903.738 L160.077 909.617 L155.193 909.617 L155.193 903.738 Z" fill="#000000" fill-rule="nonzero" fill-opacity="1" /><path clip-path="url(#clip310)" d="M170.308 875.057 L188.665 875.057 L188.665 878.992 L174.591 878.992 L174.591 887.464 Q175.609 887.117 176.628 886.955 Q177.646 886.77 178.665 886.77 Q184.452 886.77 187.831 889.941 Q191.211 893.113 191.211 898.529 Q191.211 904.108 187.739 907.21 Q184.266 910.288 177.947 910.288 Q175.771 910.288 173.503 909.918 Q171.257 909.548 168.85 908.807 L168.85 904.108 Q170.933 905.242 173.155 905.798 Q175.378 906.353 177.854 906.353 Q181.859 906.353 184.197 904.247 Q186.535 902.14 186.535 898.529 Q186.535 894.918 184.197 892.812 Q181.859 890.705 177.854 890.705 Q175.98 890.705 174.105 891.122 Q172.253 891.539 170.308 892.418 L170.308 875.057 Z" fill="#000000" fill-rule="nonzero" fill-opacity="1" /><path clip-path="url(#clip310)" d="M210.424 878.136 Q206.813 878.136 204.984 881.701 Q203.178 885.242 203.178 892.372 Q203.178 899.478 204.984 903.043 Q206.813 906.585 210.424 906.585 Q214.058 906.585 215.864 903.043 Q217.692 899.478 217.692 892.372 Q217.692 885.242 215.864 881.701 Q214.058 878.136 210.424 878.136 M210.424 874.432 Q216.234 874.432 219.289 879.039 Q222.368 883.622 222.368 892.372 Q222.368 901.099 219.289 905.705 Q216.234 910.288 210.424 910.288 Q204.614 910.288 201.535 905.705 Q198.479 901.099 198.479 892.372 Q198.479 883.622 201.535 879.039 Q204.614 874.432 210.424 874.432 Z" fill="#000000" fill-rule="nonzero" fill-opacity="1" /><path clip-path="url(#clip310)" d="M136.628 636.681 Q133.017 636.681 131.188 640.245 Q129.383 643.787 129.383 650.917 Q129.383 658.023 131.188 661.588 Q133.017 665.13 136.628 665.13 Q140.262 665.13 142.068 661.588 Q143.896 658.023 143.896 650.917 Q143.896 643.787 142.068 640.245 Q140.262 636.681 136.628 636.681 M136.628 632.977 Q142.438 632.977 145.494 637.583 Q148.572 642.167 148.572 650.917 Q148.572 659.643 145.494 664.25 Q142.438 668.833 136.628 668.833 Q130.818 668.833 127.739 664.25 Q124.683 659.643 124.683 650.917 Q124.683 642.167 127.739 637.583 Q130.818 632.977 136.628 632.977 Z" fill="#000000" fill-rule="nonzero" fill-opacity="1" /><path clip-path="url(#clip310)" d="M156.79 662.282 L161.674 662.282 L161.674 668.162 L156.79 668.162 L156.79 662.282 Z" fill="#000000" fill-rule="nonzero" fill-opacity="1" /><path clip-path="url(#clip310)" d="M171.905 633.602 L190.262 633.602 L190.262 637.537 L176.188 637.537 L176.188 646.009 Q177.206 645.662 178.225 645.5 Q179.243 645.315 180.262 645.315 Q186.049 645.315 189.429 648.486 Q192.808 651.657 192.808 657.074 Q192.808 662.653 189.336 665.755 Q185.864 668.833 179.544 668.833 Q177.368 668.833 175.1 668.463 Q172.855 668.093 170.447 667.352 L170.447 662.653 Q172.53 663.787 174.753 664.343 Q176.975 664.898 179.452 664.898 Q183.456 664.898 185.794 662.792 Q188.132 660.685 188.132 657.074 Q188.132 653.463 185.794 651.357 Q183.456 649.25 179.452 649.25 Q177.577 649.25 175.702 649.667 Q173.85 650.083 171.905 650.963 L171.905 633.602 Z" fill="#000000" fill-rule="nonzero" fill-opacity="1" /><path clip-path="url(#clip310)" d="M206.049 664.227 L222.368 664.227 L222.368 668.162 L200.424 668.162 L200.424 664.227 Q203.086 661.472 207.669 656.843 Q212.276 652.19 213.456 650.847 Q215.702 648.324 216.581 646.588 Q217.484 644.829 217.484 643.139 Q217.484 640.384 215.539 638.648 Q213.618 636.912 210.516 636.912 Q208.317 636.912 205.864 637.676 Q203.433 638.44 200.655 639.991 L200.655 635.269 Q203.479 634.134 205.933 633.556 Q208.387 632.977 210.424 632.977 Q215.794 632.977 218.989 635.662 Q222.183 638.347 222.183 642.838 Q222.183 644.968 221.373 646.889 Q220.586 648.787 218.479 651.38 Q217.901 652.051 214.799 655.269 Q211.697 658.463 206.049 664.227 Z" fill="#000000" fill-rule="nonzero" fill-opacity="1" /><path clip-path="url(#clip310)" d="M134.545 395.226 Q130.933 395.226 129.105 398.79 Q127.299 402.332 127.299 409.462 Q127.299 416.568 129.105 420.133 Q130.933 423.674 134.545 423.674 Q138.179 423.674 139.984 420.133 Q141.813 416.568 141.813 409.462 Q141.813 402.332 139.984 398.79 Q138.179 395.226 134.545 395.226 M134.545 391.522 Q140.355 391.522 143.41 396.128 Q146.489 400.712 146.489 409.462 Q146.489 418.188 143.41 422.795 Q140.355 427.378 134.545 427.378 Q128.734 427.378 125.656 422.795 Q122.6 418.188 122.6 409.462 Q122.6 400.712 125.656 396.128 Q128.734 391.522 134.545 391.522 Z" fill="#000000" fill-rule="nonzero" fill-opacity="1" /><path clip-path="url(#clip310)" d="M154.706 420.827 L159.591 420.827 L159.591 426.707 L154.706 426.707 L154.706 420.827 Z" fill="#000000" fill-rule="nonzero" fill-opacity="1" /><path clip-path="url(#clip310)" d="M169.822 392.147 L188.179 392.147 L188.179 396.082 L174.105 396.082 L174.105 404.554 Q175.123 404.207 176.142 404.045 Q177.16 403.86 178.179 403.86 Q183.966 403.86 187.345 407.031 Q190.725 410.202 190.725 415.619 Q190.725 421.198 187.253 424.299 Q183.78 427.378 177.461 427.378 Q175.285 427.378 173.017 427.008 Q170.771 426.637 168.364 425.897 L168.364 421.198 Q170.447 422.332 172.669 422.887 Q174.892 423.443 177.368 423.443 Q181.373 423.443 183.711 421.336 Q186.049 419.23 186.049 415.619 Q186.049 412.008 183.711 409.901 Q181.373 407.795 177.368 407.795 Q175.493 407.795 173.618 408.212 Q171.767 408.628 169.822 409.508 L169.822 392.147 Z" fill="#000000" fill-rule="nonzero" fill-opacity="1" /><path clip-path="url(#clip310)" d="M212.785 396.221 L200.979 414.67 L212.785 414.67 L212.785 396.221 M211.558 392.147 L217.438 392.147 L217.438 414.67 L222.368 414.67 L222.368 418.559 L217.438 418.559 L217.438 426.707 L212.785 426.707 L212.785 418.559 L197.183 418.559 L197.183 414.045 L211.558 392.147 Z" fill="#000000" fill-rule="nonzero" fill-opacity="1" /><path clip-path="url(#clip310)" d="M134.869 153.77 Q131.258 153.77 129.429 157.335 Q127.623 160.877 127.623 168.006 Q127.623 175.113 129.429 178.678 Q131.258 182.219 134.869 182.219 Q138.503 182.219 140.308 178.678 Q142.137 175.113 142.137 168.006 Q142.137 160.877 140.308 157.335 Q138.503 153.77 134.869 153.77 M134.869 150.067 Q140.679 150.067 143.734 154.673 Q146.813 159.256 146.813 168.006 Q146.813 176.733 143.734 181.34 Q140.679 185.923 134.869 185.923 Q129.058 185.923 125.98 181.34 Q122.924 176.733 122.924 168.006 Q122.924 159.256 125.98 154.673 Q129.058 150.067 134.869 150.067 Z" fill="#000000" fill-rule="nonzero" fill-opacity="1" /><path clip-path="url(#clip310)" d="M155.031 179.372 L159.915 179.372 L159.915 185.252 L155.031 185.252 L155.031 179.372 Z" fill="#000000" fill-rule="nonzero" fill-opacity="1" /><path clip-path="url(#clip310)" d="M170.146 150.692 L188.503 150.692 L188.503 154.627 L174.429 154.627 L174.429 163.099 Q175.447 162.752 176.466 162.59 Q177.484 162.405 178.503 162.405 Q184.29 162.405 187.669 165.576 Q191.049 168.747 191.049 174.164 Q191.049 179.742 187.577 182.844 Q184.104 185.923 177.785 185.923 Q175.609 185.923 173.341 185.553 Q171.095 185.182 168.688 184.441 L168.688 179.742 Q170.771 180.877 172.993 181.432 Q175.216 181.988 177.692 181.988 Q181.697 181.988 184.035 179.881 Q186.373 177.775 186.373 174.164 Q186.373 170.553 184.035 168.446 Q181.697 166.34 177.692 166.34 Q175.817 166.34 173.942 166.756 Q172.091 167.173 170.146 168.053 L170.146 150.692 Z" fill="#000000" fill-rule="nonzero" fill-opacity="1" /><path clip-path="url(#clip310)" d="M210.84 166.108 Q207.692 166.108 205.84 168.261 Q204.012 170.414 204.012 174.164 Q204.012 177.891 205.84 180.067 Q207.692 182.219 210.84 182.219 Q213.989 182.219 215.817 180.067 Q217.669 177.891 217.669 174.164 Q217.669 170.414 215.817 168.261 Q213.989 166.108 210.84 166.108 M220.123 151.456 L220.123 155.715 Q218.364 154.881 216.558 154.442 Q214.776 154.002 213.016 154.002 Q208.387 154.002 205.933 157.127 Q203.503 160.252 203.155 166.571 Q204.521 164.557 206.581 163.493 Q208.641 162.405 211.118 162.405 Q216.327 162.405 219.336 165.576 Q222.368 168.724 222.368 174.164 Q222.368 179.488 219.22 182.705 Q216.072 185.923 210.84 185.923 Q204.845 185.923 201.674 181.34 Q198.503 176.733 198.503 168.006 Q198.503 159.812 202.391 154.951 Q206.28 150.067 212.831 150.067 Q214.59 150.067 216.373 150.414 Q218.178 150.761 220.123 151.456 Z" fill="#000000" fill-rule="nonzero" fill-opacity="1" /><path clip-path="url(#clip310)" d="M35.7905 670.595 L50.2187 674.17 Q51.0883 674.363 51.3137 674.524 Q51.5391 674.685 51.5391 675.136 Q51.5391 675.491 51.3781 675.716 Q51.2171 675.909 51.056 675.909 L50.895 675.941 Q50.7984 675.941 50.3153 675.877 Q49.8 675.813 48.9627 675.748 Q48.1253 675.684 47.1913 675.684 Q41.9096 675.684 39.4619 678.26 Q36.9821 680.805 36.9821 685.185 Q36.9821 688.212 38.5924 690.917 Q40.2027 693.623 42.7469 695.168 Q45.259 696.714 47.8999 696.714 Q50.3153 696.714 51.8612 695.49 Q53.4071 694.267 53.9224 692.689 L55.114 688.276 Q56.3056 683.639 56.8209 682.318 Q57.304 680.998 58.399 679.903 Q61.4263 676.65 66.1284 676.65 Q70.1863 676.65 74.1154 678.937 Q78.0124 681.223 80.5566 685.152 Q83.0687 689.081 83.0687 693.429 Q83.0687 701.062 78.3344 704.573 L82.0703 707.793 Q82.7788 708.405 82.9076 708.598 Q83.0687 708.759 83.0687 708.985 Q83.0687 709.275 82.8754 709.5 Q82.7144 709.725 82.4246 709.725 Q82.1991 709.725 74.6307 707.825 Q67.0624 705.925 66.9013 705.764 Q66.6437 705.506 66.6437 705.088 Q66.6437 704.315 67.3844 704.315 Q67.5777 704.379 67.8353 704.444 Q70.1541 704.83 71.4101 704.83 Q73.7612 704.83 75.5647 704.025 Q77.336 703.22 78.3666 702.028 Q79.365 700.804 80.0091 699.162 Q80.621 697.519 80.8465 696.135 Q81.0397 694.75 81.0397 693.3 Q81.0397 690.176 79.2362 687.407 Q77.4326 684.605 74.6307 683.027 Q71.8288 681.416 68.8981 681.416 Q67.3522 681.416 66.1606 681.835 Q64.9368 682.254 64.2604 682.834 Q63.5841 683.381 63.0688 684.315 Q62.5535 685.249 62.3603 685.893 Q62.1349 686.505 61.9094 687.471 L60.0415 694.524 Q59.2041 697.358 56.7887 699.387 Q54.3732 701.384 50.6696 701.384 Q46.7727 701.384 43.1656 699.098 Q39.5263 696.779 37.3363 693.011 Q35.1141 689.21 35.1141 685.12 Q35.1141 681.9 36.3702 679.42 Q37.594 676.94 39.8806 675.684 L36.1125 672.495 Q35.3718 671.851 35.243 671.723 Q35.1141 671.562 35.1141 671.336 Q35.1141 670.95 35.3396 670.789 Q35.565 670.595 35.7905 670.595 Z" fill="#000000" fill-rule="nonzero" fill-opacity="1" /><path clip-path="url(#clip310)" d="M65.13 663.095 Q53.9868 663.095 45.0013 658.94 Q41.2333 657.169 38.0771 654.689 Q34.9209 652.209 33.5361 650.567 Q32.1512 648.924 32.1512 648.473 Q32.1512 647.829 32.7953 647.797 Q33.1174 647.797 33.9225 648.667 Q44.7437 659.294 65.13 659.262 Q85.5807 659.262 95.9832 648.924 Q97.1104 647.797 97.4647 647.797 Q98.1088 647.797 98.1088 648.473 Q98.1088 648.924 96.7884 650.502 Q95.4679 652.08 92.4406 654.528 Q89.4132 656.976 85.7096 658.747 Q76.7241 663.095 65.13 663.095 Z" fill="#000000" fill-rule="nonzero" fill-opacity="1" /><path clip-path="url(#clip310)" d="M53.9224 622.527 Q54.8241 622.527 55.0496 622.946 Q55.2428 623.364 55.2428 624.524 L55.2428 630.707 L74.6951 635.603 Q76.4021 635.989 77.8513 635.989 Q79.4616 635.989 80.1701 635.506 Q80.8787 634.991 80.8787 633.928 Q80.8787 631.835 78.9785 629.58 Q77.0784 627.294 72.4407 625.361 Q71.8288 625.104 71.7 624.975 Q71.539 624.814 71.539 624.395 Q71.539 623.59 72.1831 623.59 Q72.4085 623.59 73.4391 624.041 Q74.4697 624.459 75.9834 625.393 Q77.4971 626.295 78.9141 627.487 Q80.3312 628.646 81.3618 630.417 Q82.3601 632.189 82.3601 634.089 Q82.3601 636.762 80.6532 638.469 Q78.9463 640.144 76.2732 640.144 Q75.4037 640.144 72.634 639.467 Q69.8321 638.791 55.2428 635.12 L55.2428 640.949 Q55.2428 641.754 55.2106 642.076 Q55.1784 642.366 55.0174 642.591 Q54.8241 642.785 54.4377 642.785 Q53.8257 642.785 53.5681 642.527 Q53.2782 642.269 53.246 641.947 Q53.1816 641.593 53.1816 640.788 L53.1816 634.604 L42.7147 632.028 Q41.6841 631.77 41.1044 631.126 Q40.4925 630.45 40.4281 630.063 Q40.3315 629.677 40.3315 629.387 Q40.3315 628.517 40.8146 628.002 Q41.2655 627.487 42.1028 627.487 Q42.5537 627.487 53.1816 630.192 L53.1816 624.395 Q53.1816 623.654 53.2138 623.364 Q53.246 623.042 53.4071 622.785 Q53.5681 622.527 53.9224 622.527 Z" fill="#000000" fill-rule="nonzero" fill-opacity="1" /><path clip-path="url(#clip310)" d="M97.4647 617.365 Q97.1426 617.365 96.3375 616.527 Q85.5163 605.899 65.13 605.899 Q44.6793 605.899 34.3412 616.109 Q33.1496 617.365 32.7953 617.365 Q32.1512 617.365 32.1512 616.721 Q32.1512 616.27 33.4716 614.692 Q34.7921 613.081 37.8194 610.666 Q40.8468 608.218 44.5505 606.415 Q53.5359 602.067 65.13 602.067 Q76.2732 602.067 85.2587 606.221 Q89.0268 607.993 92.1829 610.473 Q95.3391 612.952 96.724 614.595 Q98.1088 616.237 98.1088 616.721 Q98.1088 617.365 97.4647 617.365 Z" fill="#000000" fill-rule="nonzero" fill-opacity="1" /><polyline clip-path="url(#clip312)" style="stroke:#009af9; stroke-linecap:round; stroke-linejoin:round; stroke-width:4; stroke-opacity:1; fill:none" points="251.979,581.788 252.79,1026.34 253.601,509.106 254.411,651.881 255.222,678.098 256.033,724.763 256.844,828.595 257.654,582.88 258.465,567.115 259.276,431.144 260.087,681.259 260.898,658.894 261.708,623.357 262.519,444.457 263.33,905.894 264.141,595.694 264.952,477.56 265.762,813.484 266.573,714.025 267.384,631.377 268.195,1011.5 269.006,762.612 269.816,677.317 270.627,667.594 271.438,704.702 272.249,577.168 273.06,510.657 273.87,725.268 274.681,512.826 275.492,765.826 276.303,740.188 277.114,836.045 277.924,662.823 278.735,815.079 279.546,460.101 280.357,659.354 281.168,852.488 281.978,739.6 282.789,799.051 283.6,762.773 284.411,697.09 285.221,463.82 286.032,632.19 286.843,547.318 287.654,525.193 288.465,874.689 289.275,563.024 290.086,737.792 290.897,704.421 291.708,669.78 292.519,903.11 293.329,734.91 294.14,608.656 294.951,647.768 295.762,775.16 296.573,668.823 297.383,1020.63 298.194,814.632 299.005,738.416 299.816,219.903 300.627,844.497 301.437,809.977 302.248,681.061 303.059,999.091 303.87,763.093 304.681,719.82 305.491,692.436 306.302,470.189 307.113,843.848 307.924,657.891 308.735,641.531 309.545,541.442 310.356,733.779 311.167,621.008 311.978,436.5 312.788,589.381 313.599,655.32 314.41,603.916 315.221,670.603 316.032,676.638 316.842,467.421 317.653,711.105 318.464,858.967 319.275,736.155 320.086,886.989 320.896,513.302 321.707,684.204 322.518,438.279 323.329,505.137 324.14,922.65 324.95,665.352 325.761,765.696 326.572,880.972 327.383,515.708 328.194,807.427 329.004,567.985 329.815,701.115 330.626,717.81 331.437,458.137 332.248,560.569 333.058,683.227 333.869,727.585 334.68,640.633 335.491,676.888 336.301,818.226 337.112,728.772 337.923,417.692 338.734,520.404 339.545,768.348 340.355,678.593 341.166,652.332 341.977,425.423 342.788,832.766 343.599,920.242 344.409,761.281 345.22,897.843 346.031,803.621 346.842,1008.25 347.653,541.922 348.463,371.267 349.274,762.19 350.085,776.639 350.896,889.683 351.707,628.967 352.517,760.665 353.328,745.75 354.139,486.252 354.95,449.74 355.761,525.082 356.571,728.64 357.382,658.087 358.193,990.196 359.004,388.156 359.815,654.15 360.625,696.129 361.436,758.998 362.247,454.101 363.058,643.189 363.868,696.967 364.679,764.504 365.49,574.491 366.301,666.855 367.112,308.826 367.922,561.279 368.733,653.834 369.544,577.343 370.355,701.228 371.166,495.201 371.976,608.933 372.787,617.658 373.598,666.047 374.409,664.013 375.22,867.953 376.03,756.602 376.841,544.658 377.652,677.331 378.463,649.201 379.274,671.797 380.084,673.864 380.895,877.943 381.706,602.661 382.517,670.401 383.328,893.641 384.138,765.624 384.949,903.207 385.76,734.201 386.571,741.657 387.382,771.621 388.192,525.96 389.003,515.034 389.814,673.433 390.625,713.013 391.435,1051.63 392.246,623.313 393.057,823.263 393.868,654.582 394.679,707.229 395.489,502.011 396.3,620.889 397.111,588.307 397.922,825.503 398.733,1007.14 399.543,536.673 400.354,866.547 401.165,504.056 401.976,711.067 402.787,479.423 403.597,646.673 404.408,531.555 405.219,641.626 406.03,692.63 406.841,440.247 407.651,514.794 408.462,540.42 409.273,475.943 410.084,706.226 410.895,579.012 411.705,531.263 412.516,638.832 413.327,511.246 414.138,649.775 414.949,889.83 415.759,629.209 416.57,978.185 417.381,696.626 418.192,643.001 419.002,657.901 419.813,517.76 420.624,704.186 421.435,961.37 422.246,655.662 423.056,810.539 423.867,604.056 424.678,666.55 425.489,577.384 426.3,718.152 427.11,677.179 427.921,708.367 428.732,556.203 429.543,663.687 430.354,661.655 431.164,632.861 431.975,776.463 432.786,806.722 433.597,601.527 434.408,764.233 435.218,640.014 436.029,578.784 436.84,991.171 437.651,643.008 438.462,508.169 439.272,517.802 440.083,758.657 440.894,642.238 441.705,498.228 442.515,530.14 443.326,706.572 444.137,300.016 444.948,741.149 445.759,746.311 446.569,547.059 447.38,555.539 448.191,514.135 449.002,675.057 449.813,693.271 450.623,613.651 451.434,423.956 452.245,559.027 453.056,539.363 453.867,798.744 454.677,658.639 455.488,825.223 456.299,815.351 457.11,874.62 457.921,651.127 458.731,583.062 459.542,957.002 460.353,933.265 461.164,673.949 461.975,827.26 462.785,801.505 463.596,606.596 464.407,886.182 465.218,835.551 466.029,867.889 466.839,843.427 467.65,819.346 468.461,756.739 469.272,670.154 470.082,855.276 470.893,843.937 471.704,743.165 472.515,573.106 473.326,531.219 474.136,640.008 474.947,806.156 475.758,516.573 476.569,604.11 477.38,619.926 478.19,607.752 479.001,477.167 479.812,775.671 480.623,764.626 481.434,941.723 482.244,803.17 483.055,415.456 483.866,501.229 484.677,845.697 485.488,588.839 486.298,544.711 487.109,779.986 487.92,500.312 488.731,748.114 489.542,295.465 490.352,789.933 491.163,905.129 491.974,558.697 492.785,846.9 493.596,1052.9 494.406,915.121 495.217,610.087 496.028,690.163 496.839,621.135 497.649,924.327 498.46,784.991 499.271,705.746 500.082,685.765 500.893,1046.96 501.703,862.899 502.514,824.92 503.325,916.839 504.136,744.982 504.947,666.94 505.757,622.119 506.568,365.292 507.379,655.627 508.19,674.427 509.001,823.335 509.811,412.623 510.622,516.514 511.433,455.555 512.244,645.189 513.055,605.625 513.865,688.516 514.676,465.516 515.487,756.616 516.298,708.697 517.109,684.288 517.919,746.1 518.73,693.4 519.541,832.889 520.352,512.313 521.163,674.737 521.973,441.441 522.784,617.546 523.595,360.829 524.406,772.503 525.216,690.354 526.027,640.347 526.838,956.923 527.649,625.592 528.46,396.212 529.27,483.51 530.081,657.371 530.892,764.838 531.703,888.844 532.514,756.409 533.324,673.359 534.135,778.902 534.946,441.62 535.757,644.895 536.568,711.166 537.378,580.554 538.189,427.783 539,759.451 539.811,578.028 540.622,761.7 541.432,535.661 542.243,638.74 543.054,651.299 543.865,816.737 544.676,852.977 545.486,649.809 546.297,650.892 547.108,553.736 547.919,784.542 548.729,757.748 549.54,855.105 550.351,642.74 551.162,713.409 551.973,587.422 552.783,806.776 553.594,755.395 554.405,513.161 555.216,489.44 556.027,596.827 556.837,470.386 557.648,814.681 558.459,547.127 559.27,431.671 560.081,723.264 560.891,896.503 561.702,443.728 562.513,564.579 563.324,619.399 564.135,756.588 564.945,561.284 565.756,349.053 566.567,658.31 567.378,965.576 568.189,727.436 568.999,701 569.81,792.236 570.621,704.493 571.432,563.606 572.243,1005.49 573.053,435.708 573.864,491.039 574.675,735.73 575.486,770.483 576.296,868.422 577.107,521.983 577.918,490.871 578.729,882.224 579.54,512.142 580.35,350.649 581.161,535.323 581.972,656.04 582.783,614.576 583.594,718.086 584.404,534.302 585.215,768.901 586.026,639.21 586.837,632.005 587.648,588.651 588.458,633.872 589.269,722.804 590.08,320.057 590.891,471.91 591.702,736.395 592.512,537.007 593.323,462.534 594.134,599.254 594.945,620.368 595.756,863.521 596.566,558.191 597.377,630.871 598.188,624.925 598.999,707.384 599.81,732.053 600.62,606.149 601.431,449.58 602.242,321.154 603.053,471.039 603.863,728.304 604.674,734.716 605.485,689.558 606.296,896.555 607.107,505.726 607.917,668.471 608.728,583.736 609.539,789.393 610.35,668.882 611.161,668.926 611.971,607.85 612.782,688.703 613.593,619.237 614.404,761.644 615.215,984.809 616.025,699.533 616.836,619.811 617.647,776.829 618.458,919.604 619.269,760.886 620.079,831.444 620.89,642.546 621.701,682.351 622.512,769.771 623.323,584.993 624.133,672.303 624.944,634.706 625.755,524.896 626.566,647.476 627.377,589.918 628.187,770.527 628.998,920.938 629.809,650.075 630.62,830.363 631.43,631.563 632.241,910.268 633.052,774.091 633.863,769.491 634.674,1015.58 635.484,492.855 636.295,501.841 637.106,892.08 637.917,725.887 638.728,683.863 639.538,786.023 640.349,585.818 641.16,808.09 641.971,436.938 642.782,552.29 643.592,609.327 644.403,686.223 645.214,638.747 646.025,848.791 646.836,474.048 647.646,722.967 648.457,924.321 649.268,632.533 650.079,454.362 650.89,896.1 651.7,807.398 652.511,685.982 653.322,773.232 654.133,918.42 654.943,619.431 655.754,498.333 656.565,621.692 657.376,500.978 658.187,816.311 658.997,747.585 659.808,647.362 660.619,467.681 661.43,576.968 662.241,706.482 663.051,863.248 663.862,789.345 664.673,518.818 665.484,757.747 666.295,709.482 667.105,1018.03 667.916,793.068 668.727,661.362 669.538,770.806 670.349,746.899 671.159,728.746 671.97,712.441 672.781,457.122 673.592,575.083 674.403,760.69 675.213,839.108 676.024,631.369 676.835,767.38 677.646,666.759 678.457,664.085 679.267,258.815 680.078,479.974 680.889,823.621 681.7,688.221 682.51,589.823 683.321,875.636 684.132,586.194 684.943,740.808 685.754,978.97 686.564,971.324 687.375,608.796 688.186,534.022 688.997,732.561 689.808,622.204 690.618,1010.33 691.429,522.997 692.24,730.98 693.051,610.047 693.862,676.054 694.672,664.1 695.483,678.853 696.294,580.252 697.105,629.525 697.916,1079.83 698.726,895.535 699.537,683.713 700.348,744.626 701.159,859.262 701.97,691.512 702.78,770.041 703.591,847.647 704.402,783.038 705.213,845.637 706.024,748.144 706.834,423.989 707.645,666.506 708.456,588.621 709.267,821.536 710.077,815.749 710.888,782.923 711.699,628.735 712.51,791.679 713.321,594.517 714.131,741.82 714.942,716.719 715.753,792.5 716.564,723.369 717.375,593.159 718.185,351.349 718.996,808.789 719.807,636.243 720.618,605.895 721.429,586.613 722.239,541.071 723.05,735.29 723.861,701.525 724.672,712.576 725.483,812.35 726.293,365.935 727.104,722.365 727.915,667.854 728.726,718.715 729.537,463.88 730.347,432.467 731.158,601.2 731.969,509.283 732.78,624.515 733.591,703.848 734.401,800.799 735.212,668.242 736.023,932.349 736.834,771.43 737.644,743.494 738.455,872.257 739.266,660.019 740.077,700.024 740.888,641.407 741.698,561.08 742.509,770.444 743.32,741.043 744.131,543.448 744.942,498.514 745.752,590.832 746.563,854.853 747.374,746.457 748.185,661.105 748.996,484.866 749.806,660.374 750.617,615.619 751.428,725.809 752.239,754.25 753.05,681.235 753.86,754.756 754.671,473.791 755.482,823.273 756.293,585.782 757.104,890.614 757.914,968.079 758.725,830.891 759.536,506.868 760.347,749.326 761.157,597.285 761.968,712.726 762.779,757.668 763.59,928.089 764.401,764.93 765.211,778.441 766.022,752.563 766.833,595.106 767.644,664.138 768.455,897.151 769.265,565.194 770.076,649.32 770.887,658.458 771.698,672.534 772.509,547.319 773.319,749.141 774.13,861.36 774.941,765.06 775.752,723.009 776.563,787.022 777.373,999.685 778.184,842.5 778.995,545.547 779.806,562.115 780.617,723.611 781.427,592.386 782.238,897.539 783.049,673.204 783.86,877.739 784.671,598.581 785.481,599.771 786.292,852.308 787.103,887.893 787.914,741.185 788.724,897.374 789.535,656.304 790.346,618.275 791.157,827.674 791.968,716.388 792.778,620.491 793.589,669.967 794.4,801.518 795.211,615.394 796.022,870.026 796.832,495.675 797.643,620.871 798.454,743.427 799.265,840.926 800.076,830.933 800.886,603.301 801.697,574.495 802.508,606.842 803.319,424.41 804.13,498.85 804.94,537.539 805.751,814.841 806.562,833.173 807.373,572.208 808.184,572.252 808.994,793.788 809.805,549.203 810.616,543.167 811.427,742.998 812.238,705.603 813.048,633.218 813.859,652.067 814.67,626.335 815.481,485.232 816.291,510.146 817.102,464.536 817.913,606.787 818.724,543.374 819.535,685.839 820.345,536.062 821.156,781.222 821.967,489.705 822.778,689.347 823.589,574.906 824.399,653.751 825.21,542.659 826.021,812.251 826.832,783.118 827.643,922.703 828.453,952.244 829.264,991.853 830.075,1087.64 830.886,897.175 831.697,978.938 832.507,964.679 833.318,772.776 834.129,919.03 834.94,960.008 835.751,927.108 836.561,876.958 837.372,822.438 838.183,756.211 838.994,805.451 839.804,837.098 840.615,700.978 841.426,678.867 842.237,671.499 843.048,767.344 843.858,664.677 844.669,830.823 845.48,691.318 846.291,504.032 847.102,855.349 847.912,674.318 848.723,778.949 849.534,736.206 850.345,631.679 851.156,690.634 851.966,629.002 852.777,527.001 853.588,781.214 854.399,624.391 855.21,482.307 856.02,654.367 856.831,695.039 857.642,710.279 858.453,639.476 859.264,583.505 860.074,730.959 860.885,860.698 861.696,992.23 862.507,676.456 863.318,647.475 864.128,605.578 864.939,763.022 865.75,888.496 866.561,553.787 867.371,555.443 868.182,701.645 868.993,672.23 869.804,726.551 870.615,769.992 871.425,956.146 872.236,808.097 873.047,957.674 873.858,623.823 874.669,766.338 875.479,660.364 876.29,687.66 877.101,546.19 877.912,709.698 878.723,1085.66 879.533,841.883 880.344,724.109 881.155,857.901 881.966,893.751 882.777,678.489 883.587,965.811 884.398,693.616 885.209,395.363 886.02,600.246 886.831,855.93 887.641,772.297 888.452,664.699 889.263,849.587 890.074,635.866 890.885,783.792 891.695,795.284 892.506,937.556 893.317,654.007 894.128,559.765 894.938,700.97 895.749,938.517 896.56,815.935 897.371,656.588 898.182,773.546 898.992,740.527 899.803,832.488 900.614,840.692 901.425,665.271 902.236,701.81 903.046,576.158 903.857,493.67 904.668,599.394 905.479,751.689 906.29,816.858 907.1,802.292 907.911,822.782 908.722,772.545 909.533,726.667 910.344,879.865 911.154,844.635 911.965,635.492 912.776,653.395 913.587,454.562 914.398,721.991 915.208,648.47 916.019,816.696 916.83,787.629 917.641,607.821 918.452,629.96 919.262,899.798 920.073,909.937 920.884,370.375 921.695,497.494 922.505,684.395 923.316,828.167 924.127,636.206 924.938,716.439 925.749,1033.09 926.559,814.649 927.37,853.953 928.181,846.952 928.992,939.328 929.803,932.075 930.613,984.765 931.424,785.598 932.235,646.765 933.046,563.512 933.857,786.624 934.667,877.694 935.478,432.464 936.289,782.914 937.1,563.054 937.911,839.906 938.721,494.83 939.532,659.549 940.343,798.507 941.154,778.933 941.965,665.023 942.775,762.128 943.586,505.409 944.397,997.303 945.208,832.777 946.018,841.531 946.829,902.018 947.64,704.329 948.451,833.001 949.262,875.888 950.072,763.37 950.883,796.091 951.694,602.388 952.505,620.852 953.316,720.824 954.126,629.922 954.937,741.045 955.748,879.887 956.559,748.376 957.37,967.298 958.18,736.089 958.991,761.692 959.802,814.367 960.613,719.146 961.424,593.199 962.234,631.397 963.045,900.128 963.856,848.978 964.667,645.495 965.478,517.414 966.288,644.589 967.099,629.693 967.91,713.852 968.721,635.722 969.532,810.574 970.342,535.22 971.153,541.035 971.964,861.554 972.775,761.267 973.585,595.683 974.396,870.343 975.207,788.211 976.018,743.967 976.829,692.328 977.639,805.429 978.45,862.583 979.261,874.637 980.072,784.205 980.883,570.764 981.693,909.355 982.504,847.932 983.315,689.916 984.126,683.871 984.937,808.444 985.747,833.584 986.558,710.741 987.369,803.114 988.18,682.304 988.991,902.446 989.801,767.87 990.612,731.221 991.423,825.239 992.234,673.033 993.045,761.012 993.855,675.429 994.666,517.858 995.477,417.671 996.288,741.674 997.099,824.72 997.909,762.807 998.72,797.61 999.531,860.319 1000.34,660.279 1001.15,651.255 1001.96,963.686 1002.77,656.455 1003.58,665.449 1004.4,779.063 1005.21,479.792 1006.02,719.858 1006.83,711.641 1007.64,618.267 1008.45,551.942 1009.26,476.154 1010.07,619.159 1010.88,687.41 1011.69,675.545 1012.5,494.737 1013.31,531.784 1014.13,521.206 1014.94,577.344 1015.75,691.551 1016.56,620.784 1017.37,704.034 1018.18,915.817 1018.99,628.853 1019.8,702.767 1020.61,973.002 1021.42,755.374 1022.23,773.583 1023.04,1062.56 1023.85,550.449 1024.67,774.445 1025.48,869.697 1026.29,862.397 1027.1,853.768 1027.91,790.103 1028.72,497.722 1029.53,700.817 1030.34,624.003 1031.15,354.112 1031.96,604.975 1032.77,502.388 1033.58,667.167 1034.4,401.92 1035.21,589.269 1036.02,643.313 1036.83,577.022 1037.64,715.53 1038.45,647.369 1039.26,767.394 1040.07,743.749 1040.88,946.479 1041.69,953.752 1042.5,717.023 1043.31,691.389 1044.12,720.012 1044.94,695.552 1045.75,590.621 1046.56,715.339 1047.37,735.162 1048.18,601.045 1048.99,806.966 1049.8,709.06 1050.61,911.485 1051.42,937.463 1052.23,445.527 1053.04,692.457 1053.85,373.967 1054.66,763.942 1055.48,597.96 1056.29,678.59 1057.1,591.754 1057.91,690.504 1058.72,623.253 1059.53,807.325 1060.34,723.447 1061.15,848.58 1061.96,768.278 1062.77,670.311 1063.58,820.384 1064.39,644.581 1065.21,563.278 1066.02,779.925 1066.83,704.765 1067.64,732.181 1068.45,749.56 1069.26,738.908 1070.07,697.821 1070.88,503.468 1071.69,590.65 1072.5,585.983 1073.31,434.157 1074.12,835.951 1074.93,812.035 1075.75,642.335 1076.56,582.372 1077.37,757.655 1078.18,745.776 1078.99,580.489 1079.8,493.356 1080.61,658.937 1081.42,710.54 1082.23,584.232 1083.04,656.02 1083.85,645.952 1084.66,787.715 1085.48,570.694 1086.29,554.85 1087.1,636.026 1087.91,842.324 1088.72,733.677 1089.53,616.238 1090.34,535.446 1091.15,490.394 1091.96,610.942 1092.77,510.824 1093.58,545.043 1094.39,803.098 1095.2,700.819 1096.02,711.498 1096.83,528.716 1097.64,766.824 1098.45,739.493 1099.26,831.486 1100.07,654.697 1100.88,504.096 1101.69,644.798 1102.5,901.089 1103.31,724.816 1104.12,808.052 1104.93,765.995 1105.74,475.082 1106.56,547.081 1107.37,773.52 1108.18,274.277 1108.99,581.102 1109.8,531.81 1110.61,699.747 1111.42,389.109 1112.23,471.513 1113.04,586.397 1113.85,778.706 1114.66,701.926 1115.47,711.826 1116.29,617.564 1117.1,484.618 1117.91,574.414 1118.72,499.239 1119.53,744.326 1120.34,490.931 1121.15,669.956 1121.96,567.041 1122.77,631.641 1123.58,556.198 1124.39,833.466 1125.2,873.403 1126.01,904.441 1126.83,800.373 1127.64,829.006 1128.45,866.581 1129.26,525.252 1130.07,637.733 1130.88,807.728 1131.69,615.723 1132.5,614.23 1133.31,810.146 1134.12,762.054 1134.93,491.109 1135.74,670.335 1136.56,754.243 1137.37,769.029 1138.18,649.452 1138.99,612.537 1139.8,723.187 1140.61,625.573 1141.42,843.796 1142.23,716.93 1143.04,672.295 1143.85,591.08 1144.66,577.844 1145.47,619.497 1146.28,422.147 1147.1,564.117 1147.91,426.472 1148.72,556.845 1149.53,594.815 1150.34,436.848 1151.15,641.706 1151.96,681.14 1152.77,672.178 1153.58,851.75 1154.39,286.155 1155.2,539.695 1156.01,402.157 1156.82,734.504 1157.64,673.155 1158.45,751.056 1159.26,536.55 1160.07,653.665 1160.88,713.759 1161.69,630.829 1162.5,783.35 1163.31,583.625 1164.12,595.234 1164.93,722.041 1165.74,492.637 1166.55,577.663 1167.37,413.437 1168.18,821.858 1168.99,531.853 1169.8,676.722 1170.61,592.168 1171.42,523.959 1172.23,608.518 1173.04,718.113 1173.85,587.749 1174.66,668.21 1175.47,650.75 1176.28,694.306 1177.09,725.783 1177.91,557.886 1178.72,684.435 1179.53,721.95 1180.34,739.305 1181.15,721.262 1181.96,692.115 1182.77,761.05 1183.58,740.067 1184.39,693.926 1185.2,735.666 1186.01,689.271 1186.82,609.044 1187.64,796.911 1188.45,697.069 1189.26,783.237 1190.07,968.228 1190.88,618.88 1191.69,941.139 1192.5,768.678 1193.31,919.926 1194.12,716.181 1194.93,797.858 1195.74,657.993 1196.55,671.091 1197.36,751.698 1198.18,1006.06 1198.99,613.417 1199.8,683.915 1200.61,582.826 1201.42,821.369 1202.23,628.949 1203.04,937.955 1203.85,915.29 1204.66,746.8 1205.47,627.348 1206.28,800.55 1207.09,699.538 1207.9,728.133 1208.72,825.722 1209.53,895.787 1210.34,860.849 1211.15,722.484 1211.96,735.332 1212.77,691.101 1213.58,617.055 1214.39,713.13 1215.2,856.774 1216.01,642.649 1216.82,734.842 1217.63,745.173 1218.45,638.213 1219.26,707.912 1220.07,680.172 1220.88,864.385 1221.69,887.589 1222.5,504.677 1223.31,610.647 1224.12,566.551 1224.93,706.331 1225.74,399.429 1226.55,379.962 1227.36,301.871 1228.17,319.84 1228.99,627.726 1229.8,659.779 1230.61,671.978 1231.42,662.159 1232.23,447.978 1233.04,859.146 1233.85,811.763 1234.66,618.104 1235.47,857.051 1236.28,543.345 1237.09,601.616 1237.9,540.957 1238.72,712.082 1239.53,643.331 1240.34,660.903 1241.15,833.189 1241.96,872.61 1242.77,547.007 1243.58,835.174 1244.39,768.555 1245.2,799.207 1246.01,882.432 1246.82,711.613 1247.63,615.963 1248.44,872.207 1249.26,1071.32 1250.07,640.715 1250.88,973.761 1251.69,960.143 1252.5,796.703 1253.31,356.756 1254.12,729.309 1254.93,940.654 1255.74,834.261 1256.55,779.033 1257.36,518.317 1258.17,519.389 1258.98,851.859 1259.8,654.611 1260.61,819.509 1261.42,804.906 1262.23,984.127 1263.04,635.676 1263.85,1085.9 1264.66,884.567 1265.47,766.265 1266.28,751.22 1267.09,658.056 1267.9,634.192 1268.71,692.149 1269.53,565.004 1270.34,758.279 1271.15,615.529 1271.96,672.051 1272.77,948.852 1273.58,660.158 1274.39,688.723 1275.2,679.03 1276.01,741.058 1276.82,943.024 1277.63,502.017 1278.44,651.597 1279.25,920.773 1280.07,704.257 1280.88,726.027 1281.69,577.85 1282.5,786.845 1283.31,634.043 1284.12,625.84 1284.93,730.31 1285.74,623.904 1286.55,619.99 1287.36,655.914 1288.17,576.411 1288.98,674.198 1289.8,603.234 1290.61,630.835 1291.42,527.759 1292.23,787.627 1293.04,821.662 1293.85,393.94 1294.66,722.122 1295.47,420.219 1296.28,630.506 1297.09,660.769 1297.9,308.344 1298.71,529.022 1299.52,903.501 1300.34,682.557 1301.15,560.875 1301.96,567.719 1302.77,808.766 1303.58,844.075 1304.39,442.403 1305.2,626.353 1306.01,425.488 1306.82,412.919 1307.63,672.163 1308.44,917.719 1309.25,695.064 1310.06,301.397 1310.88,432.663 1311.69,807.77 1312.5,531.929 1313.31,809.659 1314.12,624.468 1314.93,429.172 1315.74,837.265 1316.55,627.206 1317.36,806.288 1318.17,500.574 1318.98,851.181 1319.79,803.478 1320.61,585.25 1321.42,589.632 1322.23,700.138 1323.04,715.4 1323.85,635.852 1324.66,846.56 1325.47,762.677 1326.28,410.447 1327.09,538.719 1327.9,605.651 1328.71,776.433 1329.52,640.817 1330.33,657.6 1331.15,659.664 1331.96,613.904 1332.77,631.809 1333.58,629.333 1334.39,527.242 1335.2,486.301 1336.01,761.338 1336.82,814.405 1337.63,763.602 1338.44,609.404 1339.25,872.399 1340.06,592.075 1340.88,780.123 1341.69,651.292 1342.5,645.963 1343.31,645.667 1344.12,748.605 1344.93,509.96 1345.74,545.922 1346.55,639.355 1347.36,844.269 1348.17,738.472 1348.98,482.77 1349.79,761.012 1350.6,581.686 1351.42,559.364 1352.23,671.351 1353.04,747.336 1353.85,740.919 1354.66,915.431 1355.47,781.222 1356.28,492.629 1357.09,510.087 1357.9,725.464 1358.71,631.371 1359.52,636.253 1360.33,545.982 1361.14,536.851 1361.96,541.631 1362.77,555.487 1363.58,691.313 1364.39,495.712 1365.2,518.216 1366.01,546.512 1366.82,664.45 1367.63,635.098 1368.44,856.167 1369.25,524.672 1370.06,829.81 1370.87,866.24 1371.69,825.813 1372.5,961.455 1373.31,773.193 1374.12,750.679 1374.93,694.177 1375.74,644.898 1376.55,704.03 1377.36,607.49 1378.17,776.103 1378.98,703.442 1379.79,641.786 1380.6,598.885 1381.41,540.287 1382.23,614.513 1383.04,861.736 1383.85,481.381 1384.66,626.622 1385.47,653.332 1386.28,693.644 1387.09,885.249 1387.9,928.188 1388.71,687.7 1389.52,710.099 1390.33,682.065 1391.14,727.143 1391.96,584.484 1392.77,631.974 1393.58,883.097 1394.39,771.926 1395.2,852.393 1396.01,663.961 1396.82,563.858 1397.63,356.757 1398.44,693.216 1399.25,794.242 1400.06,1032.45 1400.87,866.371 1401.68,883.395 1402.5,669.146 1403.31,827.385 1404.12,385.534 1404.93,724.707 1405.74,640.471 1406.55,834.825 1407.36,403.101 1408.17,570.349 1408.98,733.356 1409.79,887.83 1410.6,837.032 1411.41,701.075 1412.22,977.626 1413.04,736.197 1413.85,837.911 1414.66,803.005 1415.47,668.461 1416.28,733.798 1417.09,644.946 1417.9,474.083 1418.71,575.943 1419.52,685.375 1420.33,479.036 1421.14,655.714 1421.95,715.066 1422.77,651.032 1423.58,556.273 1424.39,698.213 1425.2,813.364 1426.01,824.652 1426.82,831.088 1427.63,837.175 1428.44,852.633 1429.25,838.5 1430.06,613.261 1430.87,541.652 1431.68,659.606 1432.49,311.274 1433.31,799.524 1434.12,407.63 1434.93,850.743 1435.74,736.582 1436.55,975.275 1437.36,710.471 1438.17,609.045 1438.98,509.203 1439.79,551.855 1440.6,611.366 1441.41,735.825 1442.22,466.117 1443.04,793.942 1443.85,831.028 1444.66,658.245 1445.47,568.083 1446.28,870.899 1447.09,568.054 1447.9,739.692 1448.71,560.751 1449.52,635.152 1450.33,817.064 1451.14,654.427 1451.95,700 1452.76,831.7 1453.58,555.536 1454.39,760.028 1455.2,806.57 1456.01,737.712 1456.82,687.555 1457.63,882.818 1458.44,385.745 1459.25,423.644 1460.06,726.307 1460.87,599.159 1461.68,512.164 1462.49,613.469 1463.3,696.65 1464.12,741.781 1464.93,800.4 1465.74,385.96 1466.55,895.472 1467.36,729.522 1468.17,765.853 1468.98,756.796 1469.79,650.606 1470.6,790.808 1471.41,669.456 1472.22,752.814 1473.03,532.927 1473.85,573.872 1474.66,962.921 1475.47,495.772 1476.28,674.368 1477.09,579.424 1477.9,776.542 1478.71,676.679 1479.52,639.719 1480.33,559.255 1481.14,1103.93 1481.95,726.393 1482.76,686.838 1483.57,569.655 1484.39,867.639 1485.2,821.01 1486.01,686.513 1486.82,755.835 1487.63,525.425 1488.44,291.994 1489.25,670.141 1490.06,573.221 1490.87,591.705 1491.68,617.766 1492.49,609.367 1493.3,877.542 1494.12,749.686 1494.93,862.136 1495.74,497.794 1496.55,350.177 1497.36,551.295 1498.17,851.391 1498.98,901.306 1499.79,754.341 1500.6,574.224 1501.41,725.823 1502.22,640.476 1503.03,772.672 1503.84,572.404 1504.66,649.436 1505.47,844.811 1506.28,448.805 1507.09,952.962 1507.9,728.273 1508.71,734.78 1509.52,814.609 1510.33,583.277 1511.14,760.987 1511.95,441.584 1512.76,741.782 1513.57,673.659 1514.39,447.175 1515.2,903.267 1516.01,676.203 1516.82,681.235 1517.63,519.87 1518.44,819.585 1519.25,637.997 1520.06,882.748 1520.87,507.537 1521.68,791.006 1522.49,804.035 1523.3,924.003 1524.11,685.421 1524.93,656.832 1525.74,423.2 1526.55,729.645 1527.36,666.769 1528.17,798.593 1528.98,611.184 1529.79,604.584 1530.6,688.853 1531.41,743.684 1532.22,541.759 1533.03,720.273 1533.84,766.556 1534.65,474.434 1535.47,833.765 1536.28,692.909 1537.09,650.12 1537.9,664.025 1538.71,753.408 1539.52,462.225 1540.33,578.413 1541.14,634.265 1541.95,810.142 1542.76,829.3 1543.57,634.451 1544.38,661.552 1545.2,594.138 1546.01,637.289 1546.82,582.99 1547.63,661.086 1548.44,1123.59 1549.25,894.084 1550.06,570.23 1550.87,668.911 1551.68,499.911 1552.49,725.854 1553.3,585.332 1554.11,434.258 1554.92,582.506 1555.74,398.755 1556.55,836.78 1557.36,629.468 1558.17,588.021 1558.98,520.162 1559.79,810.296 1560.6,612.235 1561.41,623.992 1562.22,581.101 1563.03,771.849 1563.84,642.278 1564.65,987.403 1565.47,587.4 1566.28,808.475 1567.09,514.725 1567.9,609.96 1568.71,529.768 1569.52,757.306 1570.33,690.275 1571.14,646.156 1571.95,760.907 1572.76,762.331 1573.57,760.618 1574.38,870.363 1575.19,825.217 1576.01,544.46 1576.82,790.331 1577.63,606.478 1578.44,694.781 1579.25,841.8 1580.06,924.713 1580.87,693.961 1581.68,727.243 1582.49,504.841 1583.3,858.93 1584.11,787.571 1584.92,663.719 1585.73,511.731 1586.55,538.754 1587.36,493.597 1588.17,793.166 1588.98,758.486 1589.79,835.84 1590.6,620.319 1591.41,640.651 1592.22,540.969 1593.03,539.296 1593.84,787.972 1594.65,363.936 1595.46,616.413 1596.28,725.992 1597.09,760.158 1597.9,720.124 1598.71,497.967 1599.52,717.72 1600.33,659.783 1601.14,622.835 1601.95,576.031 1602.76,844.841 1603.57,702.462 1604.38,645.83 1605.19,701.973 1606,659.18 1606.82,680.558 1607.63,714.615 1608.44,747.084 1609.25,833.368 1610.06,704.579 1610.87,740.139 1611.68,690.778 1612.49,682.323 1613.3,777.22 1614.11,658.474 1614.92,787.948 1615.73,762.374 1616.55,857.455 1617.36,729.36 1618.17,641.947 1618.98,721.737 1619.79,688.446 1620.6,365.159 1621.41,544.725 1622.22,522.872 1623.03,645.887 1623.84,786.458 1624.65,512.163 1625.46,610.174 1626.27,798.26 1627.09,556.198 1627.9,546.946 1628.71,330.411 1629.52,429.807 1630.33,514.704 1631.14,670.33 1631.95,571.562 1632.76,577.66 1633.57,817.323 1634.38,785.165 1635.19,592.258 1636,621.308 1636.81,565.424 1637.63,477.557 1638.44,456.724 1639.25,660.769 1640.06,741.308 1640.87,452.969 1641.68,750.103 1642.49,734.322 1643.3,582.62 1644.11,537.836 1644.92,535.982 1645.73,528.487 1646.54,788.613 1647.36,762.241 1648.17,653.385 1648.98,494.792 1649.79,640.663 1650.6,934.141 1651.41,945.651 1652.22,742.654 1653.03,812.763 1653.84,544.432 1654.65,727.61 1655.46,643.424 1656.27,720.986 1657.08,829.111 1657.9,820.735 1658.71,678.8 1659.52,748.801 1660.33,747.138 1661.14,576.273 1661.95,748.17 1662.76,698.611 1663.57,611.128 1664.38,628.938 1665.19,639.307 1666,772.575 1666.81,729.81 1667.63,760.197 1668.44,897.959 1669.25,803.378 1670.06,687.548 1670.87,567.842 1671.68,642.83 1672.49,397.033 1673.3,669.828 1674.11,576.216 1674.92,688.31 1675.73,844.136 1676.54,787.407 1677.35,745.259 1678.17,552.978 1678.98,619.477 1679.79,743.177 1680.6,965.45 1681.41,664.762 1682.22,618.636 1683.03,842.253 1683.84,558.974 1684.65,530.67 1685.46,675.493 1686.27,856.95 1687.08,635.331 1687.89,506.785 1688.71,545.686 1689.52,841.486 1690.33,814.882 1691.14,680.6 1691.95,467.428 1692.76,539.444 1693.57,588.89 1694.38,578.392 1695.19,818.049 1696,697.857 1696.81,738.142 1697.62,788.96 1698.44,485.447 1699.25,619.464 1700.06,574.977 1700.87,749.323 1701.68,720.092 1702.49,616.528 1703.3,806.733 1704.11,454.896 1704.92,805.452 1705.73,787.194 1706.54,715.97 1707.35,619.501 1708.16,617.36 1708.98,339.034 1709.79,800.691 1710.6,747.986 1711.41,717.596 1712.22,647.221 1713.03,625.837 1713.84,758.213 1714.65,801.339 1715.46,545.759 1716.27,483.461 1717.08,819.637 1717.89,775.619 1718.71,866.884 1719.52,823.656 1720.33,647.746 1721.14,766.575 1721.95,609.907 1722.76,519.626 1723.57,810.841 1724.38,597.066 1725.19,91.289 1726,530.796 1726.81,675.292 1727.62,561.81 1728.43,536.298 1729.25,568.774 1730.06,715.641 1730.87,655.477 1731.68,837.024 1732.49,760.492 1733.3,686.167 1734.11,846.583 1734.92,747.684 1735.73,431.663 1736.54,770.298 1737.35,671.321 1738.16,1007.34 1738.97,624.037 1739.79,678.629 1740.6,688.15 1741.41,656.159 1742.22,588.589 1743.03,611.6 1743.84,626.412 1744.65,466.992 1745.46,458.686 1746.27,588.715 1747.08,539.367 1747.89,618.135 1748.7,760.961 1749.52,763.354 1750.33,650.554 1751.14,555.779 1751.95,624.915 1752.76,630.029 1753.57,849.356 1754.38,436.25 1755.19,421.53 1756,803.185 1756.81,702.535 1757.62,712.757 1758.43,740.353 1759.24,858.84 1760.06,912.46 1760.87,785.306 1761.68,804.559 1762.49,732.282 1763.3,631.148 1764.11,988.166 1764.92,730.512 1765.73,610.692 1766.54,614.123 1767.35,697.853 1768.16,653.216 1768.97,757.637 1769.79,789.028 1770.6,700.166 1771.41,648.628 1772.22,782.672 1773.03,716.621 1773.84,961.042 1774.65,835.595 1775.46,614.095 1776.27,704.41 1777.08,784.58 1777.89,694.181 1778.7,675.368 1779.51,843.361 1780.33,544.912 1781.14,566.395 1781.95,463.365 1782.76,737.139 1783.57,904.956 1784.38,783.431 1785.19,669.155 1786,566.633 1786.81,772.793 1787.62,812.763 1788.43,539.934 1789.24,727.1 1790.05,974.502 1790.87,693.069 1791.68,626.248 1792.49,693.804 1793.3,752.25 1794.11,772.32 1794.92,642.625 1795.73,562.19 1796.54,762.823 1797.35,634.389 1798.16,732.124 1798.97,636.683 1799.78,793.441 1800.6,718.744 1801.41,722.95 1802.22,491.86 1803.03,336.37 1803.84,684.7 1804.65,604.948 1805.46,559.998 1806.27,667.743 1807.08,590.332 1807.89,700.308 1808.7,574.991 1809.51,761.63 1810.32,610.547 1811.14,852.995 1811.95,617.789 1812.76,678.433 1813.57,507.96 1814.38,655.416 1815.19,776.464 1816,271.473 1816.81,497.988 1817.62,663.082 1818.43,797.189 1819.24,518.401 1820.05,592.575 1820.87,663.177 1821.68,704.982 1822.49,459.975 1823.3,616.11 1824.11,450.844 1824.92,448.332 1825.73,679.735 1826.54,879.853 1827.35,721.832 1828.16,490.076 1828.97,698.727 1829.78,590.978 1830.59,700.49 1831.41,726.052 1832.22,687.409 1833.03,801.101 1833.84,637.293 1834.65,628.019 1835.46,525.108 1836.27,656.434 1837.08,587.495 1837.89,540.148 1838.7,705.883 1839.51,620.412 1840.32,584.92 1841.13,775.176 1841.95,663.183 1842.76,447.909 1843.57,691.175 1844.38,783.475 1845.19,566.427 1846,228.379 1846.81,611.898 1847.62,897.009 1848.43,573.443 1849.24,911.262 1850.05,501.812 1850.86,613.597 1851.68,615.948 1852.49,930.21 1853.3,607.809 1854.11,721.562 1854.92,781.618 1855.73,571.118 1856.54,594.483 1857.35,828.269 1858.16,770.812 1858.97,737.309 1859.78,579.01 1860.59,298.165 1861.4,497.999 1862.22,708.927 1863.03,779.635 1863.84,575.705 1864.65,681.215 1865.46,731.894 1866.27,717.749 1867.08,595.352 1867.89,637.211 1868.7,760.62 1869.51,720.559 1870.32,687.746 1871.13,811.385 1871.95,876.845 1872.76,542.168 "/>
</svg>
