<?xml version="1.0" encoding="utf-8"?>
<svg xmlns="http://www.w3.org/2000/svg" xmlns:xlink="http://www.w3.org/1999/xlink" width="480" height="360" viewBox="0 0 1920 1440">
<defs>
  <clipPath id="clip110">
    <rect x="0" y="0" width="1920" height="1440"/>
  </clipPath>
</defs>
<path clip-path="url(#clip110)" d="M0 1440 L1920 1440 L1920 0 L0 0  Z" fill="#ffffff" fill-rule="evenodd" fill-opacity="1"/>
<defs>
  <clipPath id="clip111">
    <rect x="384" y="0" width="1345" height="1345"/>
  </clipPath>
</defs>
<path clip-path="url(#clip110)" d="M181.96 1254.52 L1872.76 1254.52 L1872.76 47.2441 L181.96 47.2441  Z" fill="#ffffff" fill-rule="evenodd" fill-opacity="1"/>
<defs>
  <clipPath id="clip112">
    <rect x="181" y="47" width="1692" height="1208"/>
  </clipPath>
</defs>
<polyline clip-path="url(#clip112)" style="stroke:#000000; stroke-linecap:round; stroke-linejoin:round; stroke-width:2; stroke-opacity:0.1; fill:none" points="181.96,1254.52 181.96,47.2441 "/>
<polyline clip-path="url(#clip112)" style="stroke:#000000; stroke-linecap:round; stroke-linejoin:round; stroke-width:2; stroke-opacity:0.1; fill:none" points="520.119,1254.52 520.119,47.2441 "/>
<polyline clip-path="url(#clip112)" style="stroke:#000000; stroke-linecap:round; stroke-linejoin:round; stroke-width:2; stroke-opacity:0.1; fill:none" points="858.278,1254.52 858.278,47.2441 "/>
<polyline clip-path="url(#clip112)" style="stroke:#000000; stroke-linecap:round; stroke-linejoin:round; stroke-width:2; stroke-opacity:0.1; fill:none" points="1196.44,1254.52 1196.44,47.2441 "/>
<polyline clip-path="url(#clip112)" style="stroke:#000000; stroke-linecap:round; stroke-linejoin:round; stroke-width:2; stroke-opacity:0.1; fill:none" points="1534.6,1254.52 1534.6,47.2441 "/>
<polyline clip-path="url(#clip112)" style="stroke:#000000; stroke-linecap:round; stroke-linejoin:round; stroke-width:2; stroke-opacity:0.1; fill:none" points="1872.76,1254.52 1872.76,47.2441 "/>
<polyline clip-path="url(#clip112)" style="stroke:#000000; stroke-linecap:round; stroke-linejoin:round; stroke-width:2; stroke-opacity:0.1; fill:none" points="181.96,1254.52 1872.76,1254.52 "/>
<polyline clip-path="url(#clip112)" style="stroke:#000000; stroke-linecap:round; stroke-linejoin:round; stroke-width:2; stroke-opacity:0.1; fill:none" points="181.96,1074.42 1872.76,1074.42 "/>
<polyline clip-path="url(#clip112)" style="stroke:#000000; stroke-linecap:round; stroke-linejoin:round; stroke-width:2; stroke-opacity:0.1; fill:none" points="181.96,894.319 1872.76,894.319 "/>
<polyline clip-path="url(#clip112)" style="stroke:#000000; stroke-linecap:round; stroke-linejoin:round; stroke-width:2; stroke-opacity:0.1; fill:none" points="181.96,714.219 1872.76,714.219 "/>
<polyline clip-path="url(#clip112)" style="stroke:#000000; stroke-linecap:round; stroke-linejoin:round; stroke-width:2; stroke-opacity:0.1; fill:none" points="181.96,534.119 1872.76,534.119 "/>
<polyline clip-path="url(#clip112)" style="stroke:#000000; stroke-linecap:round; stroke-linejoin:round; stroke-width:2; stroke-opacity:0.1; fill:none" points="181.96,354.018 1872.76,354.018 "/>
<polyline clip-path="url(#clip112)" style="stroke:#000000; stroke-linecap:round; stroke-linejoin:round; stroke-width:2; stroke-opacity:0.1; fill:none" points="181.96,173.918 1872.76,173.918 "/>
<polyline clip-path="url(#clip110)" style="stroke:#000000; stroke-linecap:round; stroke-linejoin:round; stroke-width:4; stroke-opacity:1; fill:none" points="181.96,1254.52 1872.76,1254.52 "/>
<polyline clip-path="url(#clip110)" style="stroke:#000000; stroke-linecap:round; stroke-linejoin:round; stroke-width:4; stroke-opacity:1; fill:none" points="181.96,1254.52 181.96,1235.62 "/>
<polyline clip-path="url(#clip110)" style="stroke:#000000; stroke-linecap:round; stroke-linejoin:round; stroke-width:4; stroke-opacity:1; fill:none" points="520.119,1254.52 520.119,1235.62 "/>
<polyline clip-path="url(#clip110)" style="stroke:#000000; stroke-linecap:round; stroke-linejoin:round; stroke-width:4; stroke-opacity:1; fill:none" points="858.278,1254.52 858.278,1235.62 "/>
<polyline clip-path="url(#clip110)" style="stroke:#000000; stroke-linecap:round; stroke-linejoin:round; stroke-width:4; stroke-opacity:1; fill:none" points="1196.44,1254.52 1196.44,1235.62 "/>
<polyline clip-path="url(#clip110)" style="stroke:#000000; stroke-linecap:round; stroke-linejoin:round; stroke-width:4; stroke-opacity:1; fill:none" points="1534.6,1254.52 1534.6,1235.62 "/>
<polyline clip-path="url(#clip110)" style="stroke:#000000; stroke-linecap:round; stroke-linejoin:round; stroke-width:4; stroke-opacity:1; fill:none" points="1872.76,1254.52 1872.76,1235.62 "/>
<path clip-path="url(#clip110)" d="M181.96 1281.6 Q178.349 1281.6 176.52 1285.16 Q174.715 1288.7 174.715 1295.83 Q174.715 1302.94 176.52 1306.51 Q178.349 1310.05 181.96 1310.05 Q185.594 1310.05 187.4 1306.51 Q189.229 1302.94 189.229 1295.83 Q189.229 1288.7 187.4 1285.16 Q185.594 1281.6 181.96 1281.6 M181.96 1277.89 Q187.77 1277.89 190.826 1282.5 Q193.904 1287.08 193.904 1295.83 Q193.904 1304.56 190.826 1309.17 Q187.77 1313.75 181.96 1313.75 Q176.15 1313.75 173.071 1309.17 Q170.016 1304.56 170.016 1295.83 Q170.016 1287.08 173.071 1282.5 Q176.15 1277.89 181.96 1277.89 Z" fill="#000000" fill-rule="nonzero" fill-opacity="1" /><path clip-path="url(#clip110)" d="M494.807 1309.14 L502.446 1309.14 L502.446 1282.78 L494.136 1284.45 L494.136 1280.19 L502.399 1278.52 L507.075 1278.52 L507.075 1309.14 L514.714 1309.14 L514.714 1313.08 L494.807 1313.08 L494.807 1309.14 Z" fill="#000000" fill-rule="nonzero" fill-opacity="1" /><path clip-path="url(#clip110)" d="M534.159 1281.6 Q530.547 1281.6 528.719 1285.16 Q526.913 1288.7 526.913 1295.83 Q526.913 1302.94 528.719 1306.51 Q530.547 1310.05 534.159 1310.05 Q537.793 1310.05 539.598 1306.51 Q541.427 1302.94 541.427 1295.83 Q541.427 1288.7 539.598 1285.16 Q537.793 1281.6 534.159 1281.6 M534.159 1277.89 Q539.969 1277.89 543.024 1282.5 Q546.103 1287.08 546.103 1295.83 Q546.103 1304.56 543.024 1309.17 Q539.969 1313.75 534.159 1313.75 Q528.348 1313.75 525.27 1309.17 Q522.214 1304.56 522.214 1295.83 Q522.214 1287.08 525.27 1282.5 Q528.348 1277.89 534.159 1277.89 Z" fill="#000000" fill-rule="nonzero" fill-opacity="1" /><path clip-path="url(#clip110)" d="M837.052 1309.14 L853.371 1309.14 L853.371 1313.08 L831.427 1313.08 L831.427 1309.14 Q834.089 1306.39 838.672 1301.76 Q843.279 1297.11 844.459 1295.77 Q846.704 1293.24 847.584 1291.51 Q848.487 1289.75 848.487 1288.06 Q848.487 1285.3 846.542 1283.57 Q844.621 1281.83 841.519 1281.83 Q839.32 1281.83 836.867 1282.59 Q834.436 1283.36 831.658 1284.91 L831.658 1280.19 Q834.482 1279.05 836.936 1278.47 Q839.39 1277.89 841.427 1277.89 Q846.797 1277.89 849.991 1280.58 Q853.186 1283.27 853.186 1287.76 Q853.186 1289.89 852.376 1291.81 Q851.589 1293.7 849.482 1296.3 Q848.903 1296.97 845.802 1300.19 Q842.7 1303.38 837.052 1309.14 Z" fill="#000000" fill-rule="nonzero" fill-opacity="1" /><path clip-path="url(#clip110)" d="M873.186 1281.6 Q869.575 1281.6 867.746 1285.16 Q865.94 1288.7 865.94 1295.83 Q865.94 1302.94 867.746 1306.51 Q869.575 1310.05 873.186 1310.05 Q876.82 1310.05 878.626 1306.51 Q880.454 1302.94 880.454 1295.83 Q880.454 1288.7 878.626 1285.16 Q876.82 1281.6 873.186 1281.6 M873.186 1277.89 Q878.996 1277.89 882.051 1282.5 Q885.13 1287.08 885.13 1295.83 Q885.13 1304.56 882.051 1309.17 Q878.996 1313.75 873.186 1313.75 Q867.376 1313.75 864.297 1309.17 Q861.241 1304.56 861.241 1295.83 Q861.241 1287.08 864.297 1282.5 Q867.376 1277.89 873.186 1277.89 Z" fill="#000000" fill-rule="nonzero" fill-opacity="1" /><path clip-path="url(#clip110)" d="M1185.28 1294.45 Q1188.64 1295.16 1190.51 1297.43 Q1192.41 1299.7 1192.41 1303.03 Q1192.41 1308.15 1188.89 1310.95 Q1185.37 1313.75 1178.89 1313.75 Q1176.72 1313.75 1174.4 1313.31 Q1172.11 1312.89 1169.66 1312.04 L1169.66 1307.52 Q1171.6 1308.66 1173.91 1309.24 Q1176.23 1309.82 1178.75 1309.82 Q1183.15 1309.82 1185.44 1308.08 Q1187.76 1306.34 1187.76 1303.03 Q1187.76 1299.98 1185.6 1298.27 Q1183.47 1296.53 1179.66 1296.53 L1175.63 1296.53 L1175.63 1292.69 L1179.84 1292.69 Q1183.29 1292.69 1185.12 1291.32 Q1186.95 1289.93 1186.95 1287.34 Q1186.95 1284.68 1185.05 1283.27 Q1183.17 1281.83 1179.66 1281.83 Q1177.73 1281.83 1175.53 1282.25 Q1173.34 1282.66 1170.7 1283.54 L1170.7 1279.38 Q1173.36 1278.64 1175.67 1278.27 Q1178.01 1277.89 1180.07 1277.89 Q1185.4 1277.89 1188.5 1280.33 Q1191.6 1282.73 1191.6 1286.85 Q1191.6 1289.72 1189.96 1291.71 Q1188.31 1293.68 1185.28 1294.45 Z" fill="#000000" fill-rule="nonzero" fill-opacity="1" /><path clip-path="url(#clip110)" d="M1211.28 1281.6 Q1207.66 1281.6 1205.84 1285.16 Q1204.03 1288.7 1204.03 1295.83 Q1204.03 1302.94 1205.84 1306.51 Q1207.66 1310.05 1211.28 1310.05 Q1214.91 1310.05 1216.72 1306.51 Q1218.54 1302.94 1218.54 1295.83 Q1218.54 1288.7 1216.72 1285.16 Q1214.91 1281.6 1211.28 1281.6 M1211.28 1277.89 Q1217.09 1277.89 1220.14 1282.5 Q1223.22 1287.08 1223.22 1295.83 Q1223.22 1304.56 1220.14 1309.17 Q1217.09 1313.75 1211.28 1313.75 Q1205.47 1313.75 1202.39 1309.17 Q1199.33 1304.56 1199.33 1295.83 Q1199.33 1287.08 1202.39 1282.5 Q1205.47 1277.89 1211.28 1277.89 Z" fill="#000000" fill-rule="nonzero" fill-opacity="1" /><path clip-path="url(#clip110)" d="M1522.77 1282.59 L1510.96 1301.04 L1522.77 1301.04 L1522.77 1282.59 M1521.54 1278.52 L1527.42 1278.52 L1527.42 1301.04 L1532.35 1301.04 L1532.35 1304.93 L1527.42 1304.93 L1527.42 1313.08 L1522.77 1313.08 L1522.77 1304.93 L1507.17 1304.93 L1507.17 1300.42 L1521.54 1278.52 Z" fill="#000000" fill-rule="nonzero" fill-opacity="1" /><path clip-path="url(#clip110)" d="M1550.08 1281.6 Q1546.47 1281.6 1544.64 1285.16 Q1542.84 1288.7 1542.84 1295.83 Q1542.84 1302.94 1544.64 1306.51 Q1546.47 1310.05 1550.08 1310.05 Q1553.72 1310.05 1555.52 1306.51 Q1557.35 1302.94 1557.35 1295.83 Q1557.35 1288.7 1555.52 1285.16 Q1553.72 1281.6 1550.08 1281.6 M1550.08 1277.89 Q1555.89 1277.89 1558.95 1282.5 Q1562.03 1287.08 1562.03 1295.83 Q1562.03 1304.56 1558.95 1309.17 Q1555.89 1313.75 1550.08 1313.75 Q1544.27 1313.75 1541.19 1309.17 Q1538.14 1304.56 1538.14 1295.83 Q1538.14 1287.08 1541.19 1282.5 Q1544.27 1277.89 1550.08 1277.89 Z" fill="#000000" fill-rule="nonzero" fill-opacity="1" /><path clip-path="url(#clip110)" d="M1847.46 1278.52 L1865.81 1278.52 L1865.81 1282.46 L1851.74 1282.46 L1851.74 1290.93 Q1852.76 1290.58 1853.77 1290.42 Q1854.79 1290.23 1855.81 1290.23 Q1861.6 1290.23 1864.98 1293.4 Q1868.36 1296.58 1868.36 1301.99 Q1868.36 1307.57 1864.89 1310.67 Q1861.41 1313.75 1855.09 1313.75 Q1852.92 1313.75 1850.65 1313.38 Q1848.4 1313.01 1846 1312.27 L1846 1307.57 Q1848.08 1308.7 1850.3 1309.26 Q1852.52 1309.82 1855 1309.82 Q1859.01 1309.82 1861.34 1307.71 Q1863.68 1305.6 1863.68 1301.99 Q1863.68 1298.38 1861.34 1296.27 Q1859.01 1294.17 1855 1294.17 Q1853.13 1294.17 1851.25 1294.58 Q1849.4 1295 1847.46 1295.88 L1847.46 1278.52 Z" fill="#000000" fill-rule="nonzero" fill-opacity="1" /><path clip-path="url(#clip110)" d="M1887.57 1281.6 Q1883.96 1281.6 1882.13 1285.16 Q1880.33 1288.7 1880.33 1295.83 Q1880.33 1302.94 1882.13 1306.51 Q1883.96 1310.05 1887.57 1310.05 Q1891.2 1310.05 1893.01 1306.51 Q1894.84 1302.94 1894.84 1295.83 Q1894.84 1288.7 1893.01 1285.16 Q1891.2 1281.6 1887.57 1281.6 M1887.57 1277.89 Q1893.38 1277.89 1896.44 1282.5 Q1899.52 1287.08 1899.52 1295.83 Q1899.52 1304.56 1896.44 1309.17 Q1893.38 1313.75 1887.57 1313.75 Q1881.76 1313.75 1878.68 1309.17 Q1875.63 1304.56 1875.63 1295.83 Q1875.63 1287.08 1878.68 1282.5 Q1881.76 1277.89 1887.57 1277.89 Z" fill="#000000" fill-rule="nonzero" fill-opacity="1" /><path clip-path="url(#clip110)" d="M1040.2 1360.97 Q1040.2 1362.81 1039.07 1363.9 Q1037.97 1365 1036.59 1365 Q1035.36 1365 1034.72 1364.29 Q1034.08 1363.58 1034.08 1362.68 Q1034.08 1362.29 1034.24 1361.81 Q1034.4 1361.3 1034.75 1360.68 Q1035.14 1360.07 1035.94 1359.62 Q1036.75 1359.17 1037.84 1359.11 Q1037.62 1358.88 1037.55 1358.85 Q1037.07 1358.46 1036.17 1358.33 Q1036.04 1358.27 1035.59 1358.27 Q1033.37 1358.27 1031.11 1359.91 Q1028.89 1361.52 1026.15 1364.58 Q1022.71 1368.16 1020.49 1369.48 Q1030.24 1370.76 1030.24 1376.4 Q1030.24 1377.33 1029.99 1378.46 Q1029.47 1380.59 1029.47 1382.13 Q1029.47 1385.22 1031.56 1385.22 Q1033.59 1385.22 1034.88 1383.16 Q1036.2 1381.1 1037.3 1377.08 Q1037.46 1376.34 1037.62 1376.11 Q1037.78 1375.89 1038.23 1375.89 Q1039.04 1375.89 1039.04 1376.53 Q1038.3 1380.3 1036.65 1383.2 Q1034.56 1386.71 1031.44 1386.71 Q1028.83 1386.71 1027.09 1384.9 Q1025.38 1383.07 1025.38 1380.17 Q1025.38 1379.46 1025.64 1377.85 Q1025.83 1377.21 1025.83 1376.46 Q1025.83 1374.95 1024.99 1373.82 Q1024.16 1372.66 1022.8 1372.08 Q1021.45 1371.51 1020.32 1371.25 Q1019.23 1370.96 1018.17 1370.86 Q1014.95 1384.48 1014.5 1385.32 Q1014.21 1385.9 1013.56 1386.29 Q1012.92 1386.71 1012.24 1386.71 Q1011.6 1386.71 1010.95 1386.26 Q1010.34 1385.84 1010.34 1384.84 Q1010.34 1384.32 1010.6 1383.39 L1020.16 1345.39 L1020.36 1344.1 Q1020.36 1343.71 1020.2 1343.52 Q1020.07 1343.29 1019.29 1343.13 Q1018.55 1342.97 1017.07 1342.97 Q1016.46 1342.97 1016.17 1342.94 Q1015.91 1342.91 1015.69 1342.75 Q1015.46 1342.55 1015.46 1342.17 Q1015.46 1341.62 1015.69 1341.33 Q1015.94 1341.01 1016.14 1340.94 Q1016.33 1340.88 1016.72 1340.85 Q1017.27 1340.81 1019.1 1340.65 Q1020.94 1340.46 1022.51 1340.33 Q1024.09 1340.2 1024.77 1340.2 Q1025.16 1340.2 1025.35 1340.39 Q1025.57 1340.56 1025.61 1340.75 L1025.64 1340.91 L1018.78 1368.74 Q1021.61 1367.61 1026.09 1362.62 Q1031.27 1356.82 1035.72 1356.82 Q1037.81 1356.82 1039 1358.11 Q1040.2 1359.36 1040.2 1360.97 Z" fill="#000000" fill-rule="nonzero" fill-opacity="1" /><polyline clip-path="url(#clip110)" style="stroke:#000000; stroke-linecap:round; stroke-linejoin:round; stroke-width:4; stroke-opacity:1; fill:none" points="181.96,1254.52 181.96,47.2441 "/>
<polyline clip-path="url(#clip110)" style="stroke:#000000; stroke-linecap:round; stroke-linejoin:round; stroke-width:4; stroke-opacity:1; fill:none" points="181.96,1254.52 200.858,1254.52 "/>
<polyline clip-path="url(#clip110)" style="stroke:#000000; stroke-linecap:round; stroke-linejoin:round; stroke-width:4; stroke-opacity:1; fill:none" points="181.96,1074.42 200.858,1074.42 "/>
<polyline clip-path="url(#clip110)" style="stroke:#000000; stroke-linecap:round; stroke-linejoin:round; stroke-width:4; stroke-opacity:1; fill:none" points="181.96,894.319 200.858,894.319 "/>
<polyline clip-path="url(#clip110)" style="stroke:#000000; stroke-linecap:round; stroke-linejoin:round; stroke-width:4; stroke-opacity:1; fill:none" points="181.96,714.219 200.858,714.219 "/>
<polyline clip-path="url(#clip110)" style="stroke:#000000; stroke-linecap:round; stroke-linejoin:round; stroke-width:4; stroke-opacity:1; fill:none" points="181.96,534.119 200.858,534.119 "/>
<polyline clip-path="url(#clip110)" style="stroke:#000000; stroke-linecap:round; stroke-linejoin:round; stroke-width:4; stroke-opacity:1; fill:none" points="181.96,354.018 200.858,354.018 "/>
<polyline clip-path="url(#clip110)" style="stroke:#000000; stroke-linecap:round; stroke-linejoin:round; stroke-width:4; stroke-opacity:1; fill:none" points="181.96,173.918 200.858,173.918 "/>
<path clip-path="url(#clip110)" d="M65.8226 1240.32 Q62.2115 1240.32 60.3828 1243.88 Q58.5773 1247.42 58.5773 1254.55 Q58.5773 1261.66 60.3828 1265.23 Q62.2115 1268.77 65.8226 1268.77 Q69.4569 1268.77 71.2624 1265.23 Q73.0911 1261.66 73.0911 1254.55 Q73.0911 1247.42 71.2624 1243.88 Q69.4569 1240.32 65.8226 1240.32 M65.8226 1236.61 Q71.6328 1236.61 74.6883 1241.22 Q77.767 1245.8 77.767 1254.55 Q77.767 1263.28 74.6883 1267.89 Q71.6328 1272.47 65.8226 1272.47 Q60.0125 1272.47 56.9338 1267.89 Q53.8782 1263.28 53.8782 1254.55 Q53.8782 1245.8 56.9338 1241.22 Q60.0125 1236.61 65.8226 1236.61 Z" fill="#000000" fill-rule="nonzero" fill-opacity="1" /><path clip-path="url(#clip110)" d="M85.9845 1265.92 L90.8688 1265.92 L90.8688 1271.8 L85.9845 1271.8 L85.9845 1265.92 Z" fill="#000000" fill-rule="nonzero" fill-opacity="1" /><path clip-path="url(#clip110)" d="M111.054 1240.32 Q107.443 1240.32 105.614 1243.88 Q103.809 1247.42 103.809 1254.55 Q103.809 1261.66 105.614 1265.23 Q107.443 1268.77 111.054 1268.77 Q114.688 1268.77 116.494 1265.23 Q118.322 1261.66 118.322 1254.55 Q118.322 1247.42 116.494 1243.88 Q114.688 1240.32 111.054 1240.32 M111.054 1236.61 Q116.864 1236.61 119.92 1241.22 Q122.998 1245.8 122.998 1254.55 Q122.998 1263.28 119.92 1267.89 Q116.864 1272.47 111.054 1272.47 Q105.244 1272.47 102.165 1267.89 Q99.1095 1263.28 99.1095 1254.55 Q99.1095 1245.8 102.165 1241.22 Q105.244 1236.61 111.054 1236.61 Z" fill="#000000" fill-rule="nonzero" fill-opacity="1" /><path clip-path="url(#clip110)" d="M141.216 1240.32 Q137.605 1240.32 135.776 1243.88 Q133.97 1247.42 133.97 1254.55 Q133.97 1261.66 135.776 1265.23 Q137.605 1268.77 141.216 1268.77 Q144.85 1268.77 146.656 1265.23 Q148.484 1261.66 148.484 1254.55 Q148.484 1247.42 146.656 1243.88 Q144.85 1240.32 141.216 1240.32 M141.216 1236.61 Q147.026 1236.61 150.081 1241.22 Q153.16 1245.8 153.16 1254.55 Q153.16 1263.28 150.081 1267.89 Q147.026 1272.47 141.216 1272.47 Q135.406 1272.47 132.327 1267.89 Q129.271 1263.28 129.271 1254.55 Q129.271 1245.8 132.327 1241.22 Q135.406 1236.61 141.216 1236.61 Z" fill="#000000" fill-rule="nonzero" fill-opacity="1" /><path clip-path="url(#clip110)" d="M67.0495 1060.22 Q63.4384 1060.22 61.6097 1063.78 Q59.8041 1067.32 59.8041 1074.45 Q59.8041 1081.56 61.6097 1085.13 Q63.4384 1088.67 67.0495 1088.67 Q70.6837 1088.67 72.4892 1085.13 Q74.3179 1081.56 74.3179 1074.45 Q74.3179 1067.32 72.4892 1063.78 Q70.6837 1060.22 67.0495 1060.22 M67.0495 1056.51 Q72.8596 1056.51 75.9152 1061.12 Q78.9938 1065.7 78.9938 1074.45 Q78.9938 1083.18 75.9152 1087.79 Q72.8596 1092.37 67.0495 1092.37 Q61.2393 1092.37 58.1606 1087.79 Q55.1051 1083.18 55.1051 1074.45 Q55.1051 1065.7 58.1606 1061.12 Q61.2393 1056.51 67.0495 1056.51 Z" fill="#000000" fill-rule="nonzero" fill-opacity="1" /><path clip-path="url(#clip110)" d="M87.2114 1085.82 L92.0956 1085.82 L92.0956 1091.7 L87.2114 1091.7 L87.2114 1085.82 Z" fill="#000000" fill-rule="nonzero" fill-opacity="1" /><path clip-path="url(#clip110)" d="M112.281 1060.22 Q108.67 1060.22 106.841 1063.78 Q105.035 1067.32 105.035 1074.45 Q105.035 1081.56 106.841 1085.13 Q108.67 1088.67 112.281 1088.67 Q115.915 1088.67 117.72 1085.13 Q119.549 1081.56 119.549 1074.45 Q119.549 1067.32 117.72 1063.78 Q115.915 1060.22 112.281 1060.22 M112.281 1056.51 Q118.091 1056.51 121.146 1061.12 Q124.225 1065.7 124.225 1074.45 Q124.225 1083.18 121.146 1087.79 Q118.091 1092.37 112.281 1092.37 Q106.471 1092.37 103.392 1087.79 Q100.336 1083.18 100.336 1074.45 Q100.336 1065.7 103.392 1061.12 Q106.471 1056.51 112.281 1056.51 Z" fill="#000000" fill-rule="nonzero" fill-opacity="1" /><path clip-path="url(#clip110)" d="M133.253 1087.76 L140.892 1087.76 L140.892 1061.4 L132.582 1063.07 L132.582 1058.81 L140.845 1057.14 L145.521 1057.14 L145.521 1087.76 L153.16 1087.76 L153.16 1091.7 L133.253 1091.7 L133.253 1087.76 Z" fill="#000000" fill-rule="nonzero" fill-opacity="1" /><path clip-path="url(#clip110)" d="M67.4198 880.118 Q63.8087 880.118 61.98 883.683 Q60.1745 887.224 60.1745 894.354 Q60.1745 901.46 61.98 905.025 Q63.8087 908.567 67.4198 908.567 Q71.0541 908.567 72.8596 905.025 Q74.6883 901.46 74.6883 894.354 Q74.6883 887.224 72.8596 883.683 Q71.0541 880.118 67.4198 880.118 M67.4198 876.414 Q73.23 876.414 76.2855 881.021 Q79.3642 885.604 79.3642 894.354 Q79.3642 903.081 76.2855 907.687 Q73.23 912.271 67.4198 912.271 Q61.6097 912.271 58.531 907.687 Q55.4754 903.081 55.4754 894.354 Q55.4754 885.604 58.531 881.021 Q61.6097 876.414 67.4198 876.414 Z" fill="#000000" fill-rule="nonzero" fill-opacity="1" /><path clip-path="url(#clip110)" d="M87.5818 905.72 L92.466 905.72 L92.466 911.599 L87.5818 911.599 L87.5818 905.72 Z" fill="#000000" fill-rule="nonzero" fill-opacity="1" /><path clip-path="url(#clip110)" d="M112.651 880.118 Q109.04 880.118 107.211 883.683 Q105.406 887.224 105.406 894.354 Q105.406 901.46 107.211 905.025 Q109.04 908.567 112.651 908.567 Q116.285 908.567 118.091 905.025 Q119.92 901.46 119.92 894.354 Q119.92 887.224 118.091 883.683 Q116.285 880.118 112.651 880.118 M112.651 876.414 Q118.461 876.414 121.517 881.021 Q124.595 885.604 124.595 894.354 Q124.595 903.081 121.517 907.687 Q118.461 912.271 112.651 912.271 Q106.841 912.271 103.762 907.687 Q100.707 903.081 100.707 894.354 Q100.707 885.604 103.762 881.021 Q106.841 876.414 112.651 876.414 Z" fill="#000000" fill-rule="nonzero" fill-opacity="1" /><path clip-path="url(#clip110)" d="M136.841 907.664 L153.16 907.664 L153.16 911.599 L131.216 911.599 L131.216 907.664 Q133.878 904.909 138.461 900.28 Q143.068 895.627 144.248 894.284 Q146.493 891.761 147.373 890.025 Q148.276 888.266 148.276 886.576 Q148.276 883.822 146.331 882.085 Q144.41 880.349 141.308 880.349 Q139.109 880.349 136.656 881.113 Q134.225 881.877 131.447 883.428 L131.447 878.706 Q134.271 877.572 136.725 876.993 Q139.179 876.414 141.216 876.414 Q146.586 876.414 149.78 879.099 Q152.975 881.785 152.975 886.275 Q152.975 888.405 152.165 890.326 Q151.378 892.224 149.271 894.817 Q148.693 895.488 145.591 898.706 Q142.489 901.9 136.841 907.664 Z" fill="#000000" fill-rule="nonzero" fill-opacity="1" /><path clip-path="url(#clip110)" d="M66.4708 700.018 Q62.8597 700.018 61.031 703.582 Q59.2254 707.124 59.2254 714.254 Q59.2254 721.36 61.031 724.925 Q62.8597 728.467 66.4708 728.467 Q70.105 728.467 71.9105 724.925 Q73.7392 721.36 73.7392 714.254 Q73.7392 707.124 71.9105 703.582 Q70.105 700.018 66.4708 700.018 M66.4708 696.314 Q72.2809 696.314 75.3365 700.92 Q78.4151 705.504 78.4151 714.254 Q78.4151 722.98 75.3365 727.587 Q72.2809 732.17 66.4708 732.17 Q60.6606 732.17 57.5819 727.587 Q54.5264 722.98 54.5264 714.254 Q54.5264 705.504 57.5819 700.92 Q60.6606 696.314 66.4708 696.314 Z" fill="#000000" fill-rule="nonzero" fill-opacity="1" /><path clip-path="url(#clip110)" d="M86.6327 725.619 L91.5169 725.619 L91.5169 731.499 L86.6327 731.499 L86.6327 725.619 Z" fill="#000000" fill-rule="nonzero" fill-opacity="1" /><path clip-path="url(#clip110)" d="M111.702 700.018 Q108.091 700.018 106.262 703.582 Q104.457 707.124 104.457 714.254 Q104.457 721.36 106.262 724.925 Q108.091 728.467 111.702 728.467 Q115.336 728.467 117.142 724.925 Q118.97 721.36 118.97 714.254 Q118.97 707.124 117.142 703.582 Q115.336 700.018 111.702 700.018 M111.702 696.314 Q117.512 696.314 120.568 700.92 Q123.646 705.504 123.646 714.254 Q123.646 722.98 120.568 727.587 Q117.512 732.17 111.702 732.17 Q105.892 732.17 102.813 727.587 Q99.7576 722.98 99.7576 714.254 Q99.7576 705.504 102.813 700.92 Q105.892 696.314 111.702 696.314 Z" fill="#000000" fill-rule="nonzero" fill-opacity="1" /><path clip-path="url(#clip110)" d="M146.031 712.865 Q149.387 713.582 151.262 715.851 Q153.16 718.119 153.16 721.453 Q153.16 726.568 149.642 729.369 Q146.123 732.17 139.642 732.17 Q137.466 732.17 135.151 731.73 Q132.859 731.314 130.406 730.457 L130.406 725.943 Q132.35 727.078 134.665 727.656 Q136.98 728.235 139.503 728.235 Q143.901 728.235 146.193 726.499 Q148.507 724.763 148.507 721.453 Q148.507 718.397 146.355 716.684 Q144.225 714.948 140.406 714.948 L136.378 714.948 L136.378 711.105 L140.591 711.105 Q144.04 711.105 145.868 709.74 Q147.697 708.351 147.697 705.758 Q147.697 703.096 145.799 701.684 Q143.924 700.249 140.406 700.249 Q138.484 700.249 136.285 700.666 Q134.086 701.082 131.447 701.962 L131.447 697.795 Q134.109 697.055 136.424 696.684 Q138.762 696.314 140.822 696.314 Q146.146 696.314 149.248 698.744 Q152.35 701.152 152.35 705.272 Q152.35 708.143 150.706 710.133 Q149.063 712.101 146.031 712.865 Z" fill="#000000" fill-rule="nonzero" fill-opacity="1" /><path clip-path="url(#clip110)" d="M65.3365 519.917 Q61.7254 519.917 59.8967 523.482 Q58.0912 527.024 58.0912 534.153 Q58.0912 541.26 59.8967 544.825 Q61.7254 548.366 65.3365 548.366 Q68.9707 548.366 70.7763 544.825 Q72.605 541.26 72.605 534.153 Q72.605 527.024 70.7763 523.482 Q68.9707 519.917 65.3365 519.917 M65.3365 516.214 Q71.1467 516.214 74.2022 520.82 Q77.2809 525.403 77.2809 534.153 Q77.2809 542.88 74.2022 547.487 Q71.1467 552.07 65.3365 552.07 Q59.5264 552.07 56.4477 547.487 Q53.3921 542.88 53.3921 534.153 Q53.3921 525.403 56.4477 520.82 Q59.5264 516.214 65.3365 516.214 Z" fill="#000000" fill-rule="nonzero" fill-opacity="1" /><path clip-path="url(#clip110)" d="M85.4984 545.519 L90.3827 545.519 L90.3827 551.399 L85.4984 551.399 L85.4984 545.519 Z" fill="#000000" fill-rule="nonzero" fill-opacity="1" /><path clip-path="url(#clip110)" d="M110.568 519.917 Q106.957 519.917 105.128 523.482 Q103.322 527.024 103.322 534.153 Q103.322 541.26 105.128 544.825 Q106.957 548.366 110.568 548.366 Q114.202 548.366 116.008 544.825 Q117.836 541.26 117.836 534.153 Q117.836 527.024 116.008 523.482 Q114.202 519.917 110.568 519.917 M110.568 516.214 Q116.378 516.214 119.433 520.82 Q122.512 525.403 122.512 534.153 Q122.512 542.88 119.433 547.487 Q116.378 552.07 110.568 552.07 Q104.758 552.07 101.679 547.487 Q98.6234 542.88 98.6234 534.153 Q98.6234 525.403 101.679 520.82 Q104.758 516.214 110.568 516.214 Z" fill="#000000" fill-rule="nonzero" fill-opacity="1" /><path clip-path="url(#clip110)" d="M143.577 520.913 L131.771 539.362 L143.577 539.362 L143.577 520.913 M142.35 516.839 L148.23 516.839 L148.23 539.362 L153.16 539.362 L153.16 543.25 L148.23 543.25 L148.23 551.399 L143.577 551.399 L143.577 543.25 L127.975 543.25 L127.975 538.737 L142.35 516.839 Z" fill="#000000" fill-rule="nonzero" fill-opacity="1" /><path clip-path="url(#clip110)" d="M66.818 339.817 Q63.2069 339.817 61.3782 343.382 Q59.5726 346.923 59.5726 354.053 Q59.5726 361.159 61.3782 364.724 Q63.2069 368.266 66.818 368.266 Q70.4522 368.266 72.2578 364.724 Q74.0865 361.159 74.0865 354.053 Q74.0865 346.923 72.2578 343.382 Q70.4522 339.817 66.818 339.817 M66.818 336.113 Q72.6281 336.113 75.6837 340.72 Q78.7624 345.303 78.7624 354.053 Q78.7624 362.78 75.6837 367.386 Q72.6281 371.97 66.818 371.97 Q61.0078 371.97 57.9291 367.386 Q54.8736 362.78 54.8736 354.053 Q54.8736 345.303 57.9291 340.72 Q61.0078 336.113 66.818 336.113 Z" fill="#000000" fill-rule="nonzero" fill-opacity="1" /><path clip-path="url(#clip110)" d="M86.9799 365.419 L91.8641 365.419 L91.8641 371.298 L86.9799 371.298 L86.9799 365.419 Z" fill="#000000" fill-rule="nonzero" fill-opacity="1" /><path clip-path="url(#clip110)" d="M112.049 339.817 Q108.438 339.817 106.609 343.382 Q104.804 346.923 104.804 354.053 Q104.804 361.159 106.609 364.724 Q108.438 368.266 112.049 368.266 Q115.683 368.266 117.489 364.724 Q119.318 361.159 119.318 354.053 Q119.318 346.923 117.489 343.382 Q115.683 339.817 112.049 339.817 M112.049 336.113 Q117.859 336.113 120.915 340.72 Q123.994 345.303 123.994 354.053 Q123.994 362.78 120.915 367.386 Q117.859 371.97 112.049 371.97 Q106.239 371.97 103.16 367.386 Q100.105 362.78 100.105 354.053 Q100.105 345.303 103.16 340.72 Q106.239 336.113 112.049 336.113 Z" fill="#000000" fill-rule="nonzero" fill-opacity="1" /><path clip-path="url(#clip110)" d="M132.257 336.738 L150.614 336.738 L150.614 340.673 L136.54 340.673 L136.54 349.146 Q137.558 348.798 138.577 348.636 Q139.595 348.451 140.614 348.451 Q146.401 348.451 149.78 351.622 Q153.16 354.794 153.16 360.21 Q153.16 365.789 149.688 368.891 Q146.216 371.97 139.896 371.97 Q137.72 371.97 135.452 371.599 Q133.207 371.229 130.799 370.488 L130.799 365.789 Q132.882 366.923 135.105 367.479 Q137.327 368.034 139.804 368.034 Q143.808 368.034 146.146 365.928 Q148.484 363.821 148.484 360.21 Q148.484 356.599 146.146 354.493 Q143.808 352.386 139.804 352.386 Q137.929 352.386 136.054 352.803 Q134.202 353.22 132.257 354.099 L132.257 336.738 Z" fill="#000000" fill-rule="nonzero" fill-opacity="1" /><path clip-path="url(#clip110)" d="M65.6606 159.717 Q62.0495 159.717 60.2208 163.281 Q58.4152 166.823 58.4152 173.953 Q58.4152 181.059 60.2208 184.624 Q62.0495 188.166 65.6606 188.166 Q69.2948 188.166 71.1004 184.624 Q72.9291 181.059 72.9291 173.953 Q72.9291 166.823 71.1004 163.281 Q69.2948 159.717 65.6606 159.717 M65.6606 156.013 Q71.4707 156.013 74.5263 160.619 Q77.605 165.203 77.605 173.953 Q77.605 182.679 74.5263 187.286 Q71.4707 191.869 65.6606 191.869 Q59.8504 191.869 56.7717 187.286 Q53.7162 182.679 53.7162 173.953 Q53.7162 165.203 56.7717 160.619 Q59.8504 156.013 65.6606 156.013 Z" fill="#000000" fill-rule="nonzero" fill-opacity="1" /><path clip-path="url(#clip110)" d="M85.8225 185.318 L90.7067 185.318 L90.7067 191.198 L85.8225 191.198 L85.8225 185.318 Z" fill="#000000" fill-rule="nonzero" fill-opacity="1" /><path clip-path="url(#clip110)" d="M110.892 159.717 Q107.281 159.717 105.452 163.281 Q103.646 166.823 103.646 173.953 Q103.646 181.059 105.452 184.624 Q107.281 188.166 110.892 188.166 Q114.526 188.166 116.332 184.624 Q118.16 181.059 118.16 173.953 Q118.16 166.823 116.332 163.281 Q114.526 159.717 110.892 159.717 M110.892 156.013 Q116.702 156.013 119.758 160.619 Q122.836 165.203 122.836 173.953 Q122.836 182.679 119.758 187.286 Q116.702 191.869 110.892 191.869 Q105.082 191.869 102.003 187.286 Q98.9474 182.679 98.9474 173.953 Q98.9474 165.203 102.003 160.619 Q105.082 156.013 110.892 156.013 Z" fill="#000000" fill-rule="nonzero" fill-opacity="1" /><path clip-path="url(#clip110)" d="M141.632 172.055 Q138.484 172.055 136.632 174.207 Q134.804 176.36 134.804 180.11 Q134.804 183.837 136.632 186.013 Q138.484 188.166 141.632 188.166 Q144.781 188.166 146.609 186.013 Q148.461 183.837 148.461 180.11 Q148.461 176.36 146.609 174.207 Q144.781 172.055 141.632 172.055 M150.915 157.402 L150.915 161.661 Q149.156 160.828 147.35 160.388 Q145.568 159.948 143.808 159.948 Q139.179 159.948 136.725 163.073 Q134.294 166.198 133.947 172.517 Q135.313 170.504 137.373 169.439 Q139.433 168.351 141.91 168.351 Q147.118 168.351 150.128 171.522 Q153.16 174.67 153.16 180.11 Q153.16 185.434 150.012 188.652 Q146.864 191.869 141.632 191.869 Q135.637 191.869 132.466 187.286 Q129.294 182.679 129.294 173.953 Q129.294 165.758 133.183 160.897 Q137.072 156.013 143.623 156.013 Q145.382 156.013 147.165 156.36 Q148.97 156.707 150.915 157.402 Z" fill="#000000" fill-rule="nonzero" fill-opacity="1" /><path clip-path="url(#clip112)" d="M215.776 1254.52 L215.776 1254.52 L249.592 1254.52 L249.592 1254.52 L215.776 1254.52 L215.776 1254.52  Z" fill="#009af9" fill-rule="evenodd" fill-opacity="1"/>
<polyline clip-path="url(#clip112)" style="stroke:#000000; stroke-linecap:round; stroke-linejoin:round; stroke-width:4; stroke-opacity:1; fill:none" points="215.776,1254.52 215.776,1254.52 249.592,1254.52 215.776,1254.52 "/>
<path clip-path="url(#clip112)" d="M249.592 1254.52 L249.592 1254.52 L283.408 1254.52 L283.408 1254.52 L249.592 1254.52 L249.592 1254.52  Z" fill="#009af9" fill-rule="evenodd" fill-opacity="1"/>
<polyline clip-path="url(#clip112)" style="stroke:#000000; stroke-linecap:round; stroke-linejoin:round; stroke-width:4; stroke-opacity:1; fill:none" points="249.592,1254.52 249.592,1254.52 283.408,1254.52 249.592,1254.52 "/>
<path clip-path="url(#clip112)" d="M283.408 1254.52 L283.408 1254.52 L317.224 1254.52 L317.224 1254.52 L283.408 1254.52 L283.408 1254.52  Z" fill="#009af9" fill-rule="evenodd" fill-opacity="1"/>
<polyline clip-path="url(#clip112)" style="stroke:#000000; stroke-linecap:round; stroke-linejoin:round; stroke-width:4; stroke-opacity:1; fill:none" points="283.408,1254.52 283.408,1254.52 317.224,1254.52 283.408,1254.52 "/>
<path clip-path="url(#clip112)" d="M317.224 1254.52 L317.224 1254.52 L351.04 1254.52 L351.04 1254.52 L317.224 1254.52 L317.224 1254.52  Z" fill="#009af9" fill-rule="evenodd" fill-opacity="1"/>
<polyline clip-path="url(#clip112)" style="stroke:#000000; stroke-linecap:round; stroke-linejoin:round; stroke-width:4; stroke-opacity:1; fill:none" points="317.224,1254.52 317.224,1254.52 351.04,1254.52 317.224,1254.52 "/>
<path clip-path="url(#clip112)" d="M351.04 1227.49 L351.04 1254.52 L384.856 1254.52 L384.856 1227.49 L351.04 1227.49 L351.04 1227.49  Z" fill="#009af9" fill-rule="evenodd" fill-opacity="1"/>
<polyline clip-path="url(#clip112)" style="stroke:#000000; stroke-linecap:round; stroke-linejoin:round; stroke-width:4; stroke-opacity:1; fill:none" points="351.04,1227.49 351.04,1254.52 384.856,1254.52 384.856,1227.49 351.04,1227.49 "/>
<path clip-path="url(#clip112)" d="M384.856 1191.45 L384.856 1254.52 L418.672 1254.52 L418.672 1191.45 L384.856 1191.45 L384.856 1191.45  Z" fill="#009af9" fill-rule="evenodd" fill-opacity="1"/>
<polyline clip-path="url(#clip112)" style="stroke:#000000; stroke-linecap:round; stroke-linejoin:round; stroke-width:4; stroke-opacity:1; fill:none" points="384.856,1191.45 384.856,1254.52 418.672,1254.52 418.672,1191.45 384.856,1191.45 "/>
<path clip-path="url(#clip112)" d="M418.672 1164.42 L418.672 1254.52 L452.487 1254.52 L452.487 1164.42 L418.672 1164.42 L418.672 1164.42  Z" fill="#009af9" fill-rule="evenodd" fill-opacity="1"/>
<polyline clip-path="url(#clip112)" style="stroke:#000000; stroke-linecap:round; stroke-linejoin:round; stroke-width:4; stroke-opacity:1; fill:none" points="418.672,1164.42 418.672,1254.52 452.487,1254.52 452.487,1164.42 418.672,1164.42 "/>
<path clip-path="url(#clip112)" d="M452.487 1002.25 L452.487 1254.52 L486.303 1254.52 L486.303 1002.25 L452.487 1002.25 L452.487 1002.25  Z" fill="#009af9" fill-rule="evenodd" fill-opacity="1"/>
<polyline clip-path="url(#clip112)" style="stroke:#000000; stroke-linecap:round; stroke-linejoin:round; stroke-width:4; stroke-opacity:1; fill:none" points="452.487,1002.25 452.487,1254.52 486.303,1254.52 486.303,1002.25 452.487,1002.25 "/>
<path clip-path="url(#clip112)" d="M486.303 948.196 L486.303 1254.52 L520.119 1254.52 L520.119 948.196 L486.303 948.196 L486.303 948.196  Z" fill="#009af9" fill-rule="evenodd" fill-opacity="1"/>
<polyline clip-path="url(#clip112)" style="stroke:#000000; stroke-linecap:round; stroke-linejoin:round; stroke-width:4; stroke-opacity:1; fill:none" points="486.303,948.196 486.303,1254.52 520.119,1254.52 520.119,948.196 486.303,948.196 "/>
<path clip-path="url(#clip112)" d="M520.119 713.949 L520.119 1254.52 L553.935 1254.52 L553.935 713.949 L520.119 713.949 L520.119 713.949  Z" fill="#009af9" fill-rule="evenodd" fill-opacity="1"/>
<polyline clip-path="url(#clip112)" style="stroke:#000000; stroke-linecap:round; stroke-linejoin:round; stroke-width:4; stroke-opacity:1; fill:none" points="520.119,713.949 520.119,1254.52 553.935,1254.52 553.935,713.949 520.119,713.949 "/>
<path clip-path="url(#clip112)" d="M553.935 677.911 L553.935 1254.52 L587.751 1254.52 L587.751 677.911 L553.935 677.911 L553.935 677.911  Z" fill="#009af9" fill-rule="evenodd" fill-opacity="1"/>
<polyline clip-path="url(#clip112)" style="stroke:#000000; stroke-linecap:round; stroke-linejoin:round; stroke-width:4; stroke-opacity:1; fill:none" points="553.935,677.911 553.935,1254.52 587.751,1254.52 587.751,677.911 553.935,677.911 "/>
<path clip-path="url(#clip112)" d="M587.751 425.644 L587.751 1254.52 L621.567 1254.52 L621.567 425.644 L587.751 425.644 L587.751 425.644  Z" fill="#009af9" fill-rule="evenodd" fill-opacity="1"/>
<polyline clip-path="url(#clip112)" style="stroke:#000000; stroke-linecap:round; stroke-linejoin:round; stroke-width:4; stroke-opacity:1; fill:none" points="587.751,425.644 587.751,1254.52 621.567,1254.52 621.567,425.644 587.751,425.644 "/>
<path clip-path="url(#clip112)" d="M621.567 326.539 L621.567 1254.52 L655.383 1254.52 L655.383 326.539 L621.567 326.539 L621.567 326.539  Z" fill="#009af9" fill-rule="evenodd" fill-opacity="1"/>
<polyline clip-path="url(#clip112)" style="stroke:#000000; stroke-linecap:round; stroke-linejoin:round; stroke-width:4; stroke-opacity:1; fill:none" points="621.567,326.539 621.567,1254.52 655.383,1254.52 655.383,326.539 621.567,326.539 "/>
<path clip-path="url(#clip112)" d="M655.383 227.435 L655.383 1254.52 L689.199 1254.52 L689.199 227.435 L655.383 227.435 L655.383 227.435  Z" fill="#009af9" fill-rule="evenodd" fill-opacity="1"/>
<polyline clip-path="url(#clip112)" style="stroke:#000000; stroke-linecap:round; stroke-linejoin:round; stroke-width:4; stroke-opacity:1; fill:none" points="655.383,227.435 655.383,1254.52 689.199,1254.52 689.199,227.435 655.383,227.435 "/>
<path clip-path="url(#clip112)" d="M689.199 119.32 L689.199 1254.52 L723.015 1254.52 L723.015 119.32 L689.199 119.32 L689.199 119.32  Z" fill="#009af9" fill-rule="evenodd" fill-opacity="1"/>
<polyline clip-path="url(#clip112)" style="stroke:#000000; stroke-linecap:round; stroke-linejoin:round; stroke-width:4; stroke-opacity:1; fill:none" points="689.199,119.32 689.199,1254.52 723.015,1254.52 723.015,119.32 689.199,119.32 "/>
<path clip-path="url(#clip112)" d="M723.015 47.2441 L723.015 1254.52 L756.831 1254.52 L756.831 47.2441 L723.015 47.2441 L723.015 47.2441  Z" fill="#009af9" fill-rule="evenodd" fill-opacity="1"/>
<polyline clip-path="url(#clip112)" style="stroke:#000000; stroke-linecap:round; stroke-linejoin:round; stroke-width:4; stroke-opacity:1; fill:none" points="723.015,47.2441 723.015,1254.52 756.831,1254.52 756.831,47.2441 723.015,47.2441 "/>
<path clip-path="url(#clip112)" d="M756.831 56.2536 L756.831 1254.52 L790.647 1254.52 L790.647 56.2536 L756.831 56.2536 L756.831 56.2536  Z" fill="#009af9" fill-rule="evenodd" fill-opacity="1"/>
<polyline clip-path="url(#clip112)" style="stroke:#000000; stroke-linecap:round; stroke-linejoin:round; stroke-width:4; stroke-opacity:1; fill:none" points="756.831,56.2536 756.831,1254.52 790.647,1254.52 790.647,56.2536 756.831,56.2536 "/>
<path clip-path="url(#clip112)" d="M790.647 119.32 L790.647 1254.52 L824.463 1254.52 L824.463 119.32 L790.647 119.32 L790.647 119.32  Z" fill="#009af9" fill-rule="evenodd" fill-opacity="1"/>
<polyline clip-path="url(#clip112)" style="stroke:#000000; stroke-linecap:round; stroke-linejoin:round; stroke-width:4; stroke-opacity:1; fill:none" points="790.647,119.32 790.647,1254.52 824.463,1254.52 824.463,119.32 790.647,119.32 "/>
<path clip-path="url(#clip112)" d="M824.463 290.501 L824.463 1254.52 L858.278 1254.52 L858.278 290.501 L824.463 290.501 L824.463 290.501  Z" fill="#009af9" fill-rule="evenodd" fill-opacity="1"/>
<polyline clip-path="url(#clip112)" style="stroke:#000000; stroke-linecap:round; stroke-linejoin:round; stroke-width:4; stroke-opacity:1; fill:none" points="824.463,290.501 824.463,1254.52 858.278,1254.52 858.278,290.501 824.463,290.501 "/>
<path clip-path="url(#clip112)" d="M858.278 263.473 L858.278 1254.52 L892.094 1254.52 L892.094 263.473 L858.278 263.473 L858.278 263.473  Z" fill="#009af9" fill-rule="evenodd" fill-opacity="1"/>
<polyline clip-path="url(#clip112)" style="stroke:#000000; stroke-linecap:round; stroke-linejoin:round; stroke-width:4; stroke-opacity:1; fill:none" points="858.278,263.473 858.278,1254.52 892.094,1254.52 892.094,263.473 858.278,263.473 "/>
<path clip-path="url(#clip112)" d="M892.094 344.558 L892.094 1254.52 L925.91 1254.52 L925.91 344.558 L892.094 344.558 L892.094 344.558  Z" fill="#009af9" fill-rule="evenodd" fill-opacity="1"/>
<polyline clip-path="url(#clip112)" style="stroke:#000000; stroke-linecap:round; stroke-linejoin:round; stroke-width:4; stroke-opacity:1; fill:none" points="892.094,344.558 892.094,1254.52 925.91,1254.52 925.91,344.558 892.094,344.558 "/>
<path clip-path="url(#clip112)" d="M925.91 317.53 L925.91 1254.52 L959.726 1254.52 L959.726 317.53 L925.91 317.53 L925.91 317.53  Z" fill="#009af9" fill-rule="evenodd" fill-opacity="1"/>
<polyline clip-path="url(#clip112)" style="stroke:#000000; stroke-linecap:round; stroke-linejoin:round; stroke-width:4; stroke-opacity:1; fill:none" points="925.91,317.53 925.91,1254.52 959.726,1254.52 959.726,317.53 925.91,317.53 "/>
<path clip-path="url(#clip112)" d="M959.726 506.73 L959.726 1254.52 L993.542 1254.52 L993.542 506.73 L959.726 506.73 L959.726 506.73  Z" fill="#009af9" fill-rule="evenodd" fill-opacity="1"/>
<polyline clip-path="url(#clip112)" style="stroke:#000000; stroke-linecap:round; stroke-linejoin:round; stroke-width:4; stroke-opacity:1; fill:none" points="959.726,506.73 959.726,1254.52 993.542,1254.52 993.542,506.73 959.726,506.73 "/>
<path clip-path="url(#clip112)" d="M993.542 560.787 L993.542 1254.52 L1027.36 1254.52 L1027.36 560.787 L993.542 560.787 L993.542 560.787  Z" fill="#009af9" fill-rule="evenodd" fill-opacity="1"/>
<polyline clip-path="url(#clip112)" style="stroke:#000000; stroke-linecap:round; stroke-linejoin:round; stroke-width:4; stroke-opacity:1; fill:none" points="993.542,560.787 993.542,1254.52 1027.36,1254.52 1027.36,560.787 993.542,560.787 "/>
<path clip-path="url(#clip112)" d="M1027.36 578.806 L1027.36 1254.52 L1061.17 1254.52 L1061.17 578.806 L1027.36 578.806 L1027.36 578.806  Z" fill="#009af9" fill-rule="evenodd" fill-opacity="1"/>
<polyline clip-path="url(#clip112)" style="stroke:#000000; stroke-linecap:round; stroke-linejoin:round; stroke-width:4; stroke-opacity:1; fill:none" points="1027.36,578.806 1027.36,1254.52 1061.17,1254.52 1061.17,578.806 1027.36,578.806 "/>
<path clip-path="url(#clip112)" d="M1061.17 912.158 L1061.17 1254.52 L1094.99 1254.52 L1094.99 912.158 L1061.17 912.158 L1061.17 912.158  Z" fill="#009af9" fill-rule="evenodd" fill-opacity="1"/>
<polyline clip-path="url(#clip112)" style="stroke:#000000; stroke-linecap:round; stroke-linejoin:round; stroke-width:4; stroke-opacity:1; fill:none" points="1061.17,912.158 1061.17,1254.52 1094.99,1254.52 1094.99,912.158 1061.17,912.158 "/>
<path clip-path="url(#clip112)" d="M1094.99 795.034 L1094.99 1254.52 L1128.81 1254.52 L1128.81 795.034 L1094.99 795.034 L1094.99 795.034  Z" fill="#009af9" fill-rule="evenodd" fill-opacity="1"/>
<polyline clip-path="url(#clip112)" style="stroke:#000000; stroke-linecap:round; stroke-linejoin:round; stroke-width:4; stroke-opacity:1; fill:none" points="1094.99,795.034 1094.99,1254.52 1128.81,1254.52 1128.81,795.034 1094.99,795.034 "/>
<path clip-path="url(#clip112)" d="M1128.81 912.158 L1128.81 1254.52 L1162.62 1254.52 L1162.62 912.158 L1128.81 912.158 L1128.81 912.158  Z" fill="#009af9" fill-rule="evenodd" fill-opacity="1"/>
<polyline clip-path="url(#clip112)" style="stroke:#000000; stroke-linecap:round; stroke-linejoin:round; stroke-width:4; stroke-opacity:1; fill:none" points="1128.81,912.158 1128.81,1254.52 1162.62,1254.52 1162.62,912.158 1128.81,912.158 "/>
<path clip-path="url(#clip112)" d="M1162.62 939.187 L1162.62 1254.52 L1196.44 1254.52 L1196.44 939.187 L1162.62 939.187 L1162.62 939.187  Z" fill="#009af9" fill-rule="evenodd" fill-opacity="1"/>
<polyline clip-path="url(#clip112)" style="stroke:#000000; stroke-linecap:round; stroke-linejoin:round; stroke-width:4; stroke-opacity:1; fill:none" points="1162.62,939.187 1162.62,1254.52 1196.44,1254.52 1196.44,939.187 1162.62,939.187 "/>
<path clip-path="url(#clip112)" d="M1196.44 1047.3 L1196.44 1254.52 L1230.25 1254.52 L1230.25 1047.3 L1196.44 1047.3 L1196.44 1047.3  Z" fill="#009af9" fill-rule="evenodd" fill-opacity="1"/>
<polyline clip-path="url(#clip112)" style="stroke:#000000; stroke-linecap:round; stroke-linejoin:round; stroke-width:4; stroke-opacity:1; fill:none" points="1196.44,1047.3 1196.44,1254.52 1230.25,1254.52 1230.25,1047.3 1196.44,1047.3 "/>
<path clip-path="url(#clip112)" d="M1230.25 948.196 L1230.25 1254.52 L1264.07 1254.52 L1264.07 948.196 L1230.25 948.196 L1230.25 948.196  Z" fill="#009af9" fill-rule="evenodd" fill-opacity="1"/>
<polyline clip-path="url(#clip112)" style="stroke:#000000; stroke-linecap:round; stroke-linejoin:round; stroke-width:4; stroke-opacity:1; fill:none" points="1230.25,948.196 1230.25,1254.52 1264.07,1254.52 1264.07,948.196 1230.25,948.196 "/>
<path clip-path="url(#clip112)" d="M1264.07 1128.39 L1264.07 1254.52 L1297.89 1254.52 L1297.89 1128.39 L1264.07 1128.39 L1264.07 1128.39  Z" fill="#009af9" fill-rule="evenodd" fill-opacity="1"/>
<polyline clip-path="url(#clip112)" style="stroke:#000000; stroke-linecap:round; stroke-linejoin:round; stroke-width:4; stroke-opacity:1; fill:none" points="1264.07,1128.39 1264.07,1254.52 1297.89,1254.52 1297.89,1128.39 1264.07,1128.39 "/>
<path clip-path="url(#clip112)" d="M1297.89 1119.38 L1297.89 1254.52 L1331.7 1254.52 L1331.7 1119.38 L1297.89 1119.38 L1297.89 1119.38  Z" fill="#009af9" fill-rule="evenodd" fill-opacity="1"/>
<polyline clip-path="url(#clip112)" style="stroke:#000000; stroke-linecap:round; stroke-linejoin:round; stroke-width:4; stroke-opacity:1; fill:none" points="1297.89,1119.38 1297.89,1254.52 1331.7,1254.52 1331.7,1119.38 1297.89,1119.38 "/>
<path clip-path="url(#clip112)" d="M1331.7 1128.39 L1331.7 1254.52 L1365.52 1254.52 L1365.52 1128.39 L1331.7 1128.39 L1331.7 1128.39  Z" fill="#009af9" fill-rule="evenodd" fill-opacity="1"/>
<polyline clip-path="url(#clip112)" style="stroke:#000000; stroke-linecap:round; stroke-linejoin:round; stroke-width:4; stroke-opacity:1; fill:none" points="1331.7,1128.39 1331.7,1254.52 1365.52,1254.52 1365.52,1128.39 1331.7,1128.39 "/>
<path clip-path="url(#clip112)" d="M1365.52 1119.38 L1365.52 1254.52 L1399.33 1254.52 L1399.33 1119.38 L1365.52 1119.38 L1365.52 1119.38  Z" fill="#009af9" fill-rule="evenodd" fill-opacity="1"/>
<polyline clip-path="url(#clip112)" style="stroke:#000000; stroke-linecap:round; stroke-linejoin:round; stroke-width:4; stroke-opacity:1; fill:none" points="1365.52,1119.38 1365.52,1254.52 1399.33,1254.52 1399.33,1119.38 1365.52,1119.38 "/>
<path clip-path="url(#clip112)" d="M1399.33 1146.41 L1399.33 1254.52 L1433.15 1254.52 L1433.15 1146.41 L1399.33 1146.41 L1399.33 1146.41  Z" fill="#009af9" fill-rule="evenodd" fill-opacity="1"/>
<polyline clip-path="url(#clip112)" style="stroke:#000000; stroke-linecap:round; stroke-linejoin:round; stroke-width:4; stroke-opacity:1; fill:none" points="1399.33,1146.41 1399.33,1254.52 1433.15,1254.52 1433.15,1146.41 1399.33,1146.41 "/>
<path clip-path="url(#clip112)" d="M1433.15 1236.5 L1433.15 1254.52 L1466.96 1254.52 L1466.96 1236.5 L1433.15 1236.5 L1433.15 1236.5  Z" fill="#009af9" fill-rule="evenodd" fill-opacity="1"/>
<polyline clip-path="url(#clip112)" style="stroke:#000000; stroke-linecap:round; stroke-linejoin:round; stroke-width:4; stroke-opacity:1; fill:none" points="1433.15,1236.5 1433.15,1254.52 1466.96,1254.52 1466.96,1236.5 1433.15,1236.5 "/>
<path clip-path="url(#clip112)" d="M1466.96 1209.47 L1466.96 1254.52 L1500.78 1254.52 L1500.78 1209.47 L1466.96 1209.47 L1466.96 1209.47  Z" fill="#009af9" fill-rule="evenodd" fill-opacity="1"/>
<polyline clip-path="url(#clip112)" style="stroke:#000000; stroke-linecap:round; stroke-linejoin:round; stroke-width:4; stroke-opacity:1; fill:none" points="1466.96,1209.47 1466.96,1254.52 1500.78,1254.52 1500.78,1209.47 1466.96,1209.47 "/>
<path clip-path="url(#clip112)" d="M1500.78 1227.49 L1500.78 1254.52 L1534.6 1254.52 L1534.6 1227.49 L1500.78 1227.49 L1500.78 1227.49  Z" fill="#009af9" fill-rule="evenodd" fill-opacity="1"/>
<polyline clip-path="url(#clip112)" style="stroke:#000000; stroke-linecap:round; stroke-linejoin:round; stroke-width:4; stroke-opacity:1; fill:none" points="1500.78,1227.49 1500.78,1254.52 1534.6,1254.52 1534.6,1227.49 1500.78,1227.49 "/>
<path clip-path="url(#clip112)" d="M1534.6 1236.5 L1534.6 1254.52 L1568.41 1254.52 L1568.41 1236.5 L1534.6 1236.5 L1534.6 1236.5  Z" fill="#009af9" fill-rule="evenodd" fill-opacity="1"/>
<polyline clip-path="url(#clip112)" style="stroke:#000000; stroke-linecap:round; stroke-linejoin:round; stroke-width:4; stroke-opacity:1; fill:none" points="1534.6,1236.5 1534.6,1254.52 1568.41,1254.52 1568.41,1236.5 1534.6,1236.5 "/>
<path clip-path="url(#clip112)" d="M1568.41 1227.49 L1568.41 1254.52 L1602.23 1254.52 L1602.23 1227.49 L1568.41 1227.49 L1568.41 1227.49  Z" fill="#009af9" fill-rule="evenodd" fill-opacity="1"/>
<polyline clip-path="url(#clip112)" style="stroke:#000000; stroke-linecap:round; stroke-linejoin:round; stroke-width:4; stroke-opacity:1; fill:none" points="1568.41,1227.49 1568.41,1254.52 1602.23,1254.52 1602.23,1227.49 1568.41,1227.49 "/>
<path clip-path="url(#clip112)" d="M1602.23 1254.52 L1602.23 1254.52 L1636.04 1254.52 L1636.04 1254.52 L1602.23 1254.52 L1602.23 1254.52  Z" fill="#009af9" fill-rule="evenodd" fill-opacity="1"/>
<polyline clip-path="url(#clip112)" style="stroke:#000000; stroke-linecap:round; stroke-linejoin:round; stroke-width:4; stroke-opacity:1; fill:none" points="1602.23,1254.52 1602.23,1254.52 1636.04,1254.52 1602.23,1254.52 "/>
<path clip-path="url(#clip112)" d="M1636.04 1236.5 L1636.04 1254.52 L1669.86 1254.52 L1669.86 1236.5 L1636.04 1236.5 L1636.04 1236.5  Z" fill="#009af9" fill-rule="evenodd" fill-opacity="1"/>
<polyline clip-path="url(#clip112)" style="stroke:#000000; stroke-linecap:round; stroke-linejoin:round; stroke-width:4; stroke-opacity:1; fill:none" points="1636.04,1236.5 1636.04,1254.52 1669.86,1254.52 1669.86,1236.5 1636.04,1236.5 "/>
<path clip-path="url(#clip112)" d="M1669.86 1254.52 L1669.86 1254.52 L1703.68 1254.52 L1703.68 1254.52 L1669.86 1254.52 L1669.86 1254.52  Z" fill="#009af9" fill-rule="evenodd" fill-opacity="1"/>
<polyline clip-path="url(#clip112)" style="stroke:#000000; stroke-linecap:round; stroke-linejoin:round; stroke-width:4; stroke-opacity:1; fill:none" points="1669.86,1254.52 1669.86,1254.52 1703.68,1254.52 1669.86,1254.52 "/>
<path clip-path="url(#clip112)" d="M1703.68 1236.5 L1703.68 1254.52 L1737.49 1254.52 L1737.49 1236.5 L1703.68 1236.5 L1703.68 1236.5  Z" fill="#009af9" fill-rule="evenodd" fill-opacity="1"/>
<polyline clip-path="url(#clip112)" style="stroke:#000000; stroke-linecap:round; stroke-linejoin:round; stroke-width:4; stroke-opacity:1; fill:none" points="1703.68,1236.5 1703.68,1254.52 1737.49,1254.52 1737.49,1236.5 1703.68,1236.5 "/>
<path clip-path="url(#clip112)" d="M1737.49 1254.52 L1737.49 1254.52 L1771.31 1254.52 L1771.31 1254.52 L1737.49 1254.52 L1737.49 1254.52  Z" fill="#009af9" fill-rule="evenodd" fill-opacity="1"/>
<polyline clip-path="url(#clip112)" style="stroke:#000000; stroke-linecap:round; stroke-linejoin:round; stroke-width:4; stroke-opacity:1; fill:none" points="1737.49,1254.52 1737.49,1254.52 1771.31,1254.52 1737.49,1254.52 "/>
<path clip-path="url(#clip112)" d="M1771.31 1254.52 L1771.31 1254.52 L1805.12 1254.52 L1805.12 1254.52 L1771.31 1254.52 L1771.31 1254.52  Z" fill="#009af9" fill-rule="evenodd" fill-opacity="1"/>
<polyline clip-path="url(#clip112)" style="stroke:#000000; stroke-linecap:round; stroke-linejoin:round; stroke-width:4; stroke-opacity:1; fill:none" points="1771.31,1254.52 1771.31,1254.52 1805.12,1254.52 1771.31,1254.52 "/>
<path clip-path="url(#clip112)" d="M1805.12 1254.52 L1805.12 1254.52 L1838.94 1254.52 L1838.94 1254.52 L1805.12 1254.52 L1805.12 1254.52  Z" fill="#009af9" fill-rule="evenodd" fill-opacity="1"/>
<polyline clip-path="url(#clip112)" style="stroke:#000000; stroke-linecap:round; stroke-linejoin:round; stroke-width:4; stroke-opacity:1; fill:none" points="1805.12,1254.52 1805.12,1254.52 1838.94,1254.52 1805.12,1254.52 "/>
<path clip-path="url(#clip112)" d="M1838.94 1254.52 L1838.94 1254.52 L1872.76 1254.52 L1872.76 1254.52 L1838.94 1254.52 L1838.94 1254.52  Z" fill="#009af9" fill-rule="evenodd" fill-opacity="1"/>
<polyline clip-path="url(#clip112)" style="stroke:#000000; stroke-linecap:round; stroke-linejoin:round; stroke-width:4; stroke-opacity:1; fill:none" points="1838.94,1254.52 1838.94,1254.52 1872.76,1254.52 1838.94,1254.52 "/>
<circle clip-path="url(#clip112)" style="fill:#009af9; stroke:none; fill-opacity:0" cx="232.684" cy="1254.52" r="2"/>
<circle clip-path="url(#clip112)" style="fill:#009af9; stroke:none; fill-opacity:0" cx="266.5" cy="1254.52" r="2"/>
<circle clip-path="url(#clip112)" style="fill:#009af9; stroke:none; fill-opacity:0" cx="300.316" cy="1254.52" r="2"/>
<circle clip-path="url(#clip112)" style="fill:#009af9; stroke:none; fill-opacity:0" cx="334.132" cy="1254.52" r="2"/>
<circle clip-path="url(#clip112)" style="fill:#009af9; stroke:none; fill-opacity:0" cx="367.948" cy="1227.49" r="2"/>
<circle clip-path="url(#clip112)" style="fill:#009af9; stroke:none; fill-opacity:0" cx="401.764" cy="1191.45" r="2"/>
<circle clip-path="url(#clip112)" style="fill:#009af9; stroke:none; fill-opacity:0" cx="435.579" cy="1164.42" r="2"/>
<circle clip-path="url(#clip112)" style="fill:#009af9; stroke:none; fill-opacity:0" cx="469.395" cy="1002.25" r="2"/>
<circle clip-path="url(#clip112)" style="fill:#009af9; stroke:none; fill-opacity:0" cx="503.211" cy="948.196" r="2"/>
<circle clip-path="url(#clip112)" style="fill:#009af9; stroke:none; fill-opacity:0" cx="537.027" cy="713.949" r="2"/>
<circle clip-path="url(#clip112)" style="fill:#009af9; stroke:none; fill-opacity:0" cx="570.843" cy="677.911" r="2"/>
<circle clip-path="url(#clip112)" style="fill:#009af9; stroke:none; fill-opacity:0" cx="604.659" cy="425.644" r="2"/>
<circle clip-path="url(#clip112)" style="fill:#009af9; stroke:none; fill-opacity:0" cx="638.475" cy="326.539" r="2"/>
<circle clip-path="url(#clip112)" style="fill:#009af9; stroke:none; fill-opacity:0" cx="672.291" cy="227.435" r="2"/>
<circle clip-path="url(#clip112)" style="fill:#009af9; stroke:none; fill-opacity:0" cx="706.107" cy="119.32" r="2"/>
<circle clip-path="url(#clip112)" style="fill:#009af9; stroke:none; fill-opacity:0" cx="739.923" cy="47.2441" r="2"/>
<circle clip-path="url(#clip112)" style="fill:#009af9; stroke:none; fill-opacity:0" cx="773.739" cy="56.2536" r="2"/>
<circle clip-path="url(#clip112)" style="fill:#009af9; stroke:none; fill-opacity:0" cx="807.555" cy="119.32" r="2"/>
<circle clip-path="url(#clip112)" style="fill:#009af9; stroke:none; fill-opacity:0" cx="841.37" cy="290.501" r="2"/>
<circle clip-path="url(#clip112)" style="fill:#009af9; stroke:none; fill-opacity:0" cx="875.186" cy="263.473" r="2"/>
<circle clip-path="url(#clip112)" style="fill:#009af9; stroke:none; fill-opacity:0" cx="909.002" cy="344.558" r="2"/>
<circle clip-path="url(#clip112)" style="fill:#009af9; stroke:none; fill-opacity:0" cx="942.818" cy="317.53" r="2"/>
<circle clip-path="url(#clip112)" style="fill:#009af9; stroke:none; fill-opacity:0" cx="976.634" cy="506.73" r="2"/>
<circle clip-path="url(#clip112)" style="fill:#009af9; stroke:none; fill-opacity:0" cx="1010.45" cy="560.787" r="2"/>
<circle clip-path="url(#clip112)" style="fill:#009af9; stroke:none; fill-opacity:0" cx="1044.27" cy="578.806" r="2"/>
<circle clip-path="url(#clip112)" style="fill:#009af9; stroke:none; fill-opacity:0" cx="1078.08" cy="912.158" r="2"/>
<circle clip-path="url(#clip112)" style="fill:#009af9; stroke:none; fill-opacity:0" cx="1111.9" cy="795.034" r="2"/>
<circle clip-path="url(#clip112)" style="fill:#009af9; stroke:none; fill-opacity:0" cx="1145.71" cy="912.158" r="2"/>
<circle clip-path="url(#clip112)" style="fill:#009af9; stroke:none; fill-opacity:0" cx="1179.53" cy="939.187" r="2"/>
<circle clip-path="url(#clip112)" style="fill:#009af9; stroke:none; fill-opacity:0" cx="1213.35" cy="1047.3" r="2"/>
<circle clip-path="url(#clip112)" style="fill:#009af9; stroke:none; fill-opacity:0" cx="1247.16" cy="948.196" r="2"/>
<circle clip-path="url(#clip112)" style="fill:#009af9; stroke:none; fill-opacity:0" cx="1280.98" cy="1128.39" r="2"/>
<circle clip-path="url(#clip112)" style="fill:#009af9; stroke:none; fill-opacity:0" cx="1314.79" cy="1119.38" r="2"/>
<circle clip-path="url(#clip112)" style="fill:#009af9; stroke:none; fill-opacity:0" cx="1348.61" cy="1128.39" r="2"/>
<circle clip-path="url(#clip112)" style="fill:#009af9; stroke:none; fill-opacity:0" cx="1382.43" cy="1119.38" r="2"/>
<circle clip-path="url(#clip112)" style="fill:#009af9; stroke:none; fill-opacity:0" cx="1416.24" cy="1146.41" r="2"/>
<circle clip-path="url(#clip112)" style="fill:#009af9; stroke:none; fill-opacity:0" cx="1450.06" cy="1236.5" r="2"/>
<circle clip-path="url(#clip112)" style="fill:#009af9; stroke:none; fill-opacity:0" cx="1483.87" cy="1209.47" r="2"/>
<circle clip-path="url(#clip112)" style="fill:#009af9; stroke:none; fill-opacity:0" cx="1517.69" cy="1227.49" r="2"/>
<circle clip-path="url(#clip112)" style="fill:#009af9; stroke:none; fill-opacity:0" cx="1551.5" cy="1236.5" r="2"/>
<circle clip-path="url(#clip112)" style="fill:#009af9; stroke:none; fill-opacity:0" cx="1585.32" cy="1227.49" r="2"/>
<circle clip-path="url(#clip112)" style="fill:#009af9; stroke:none; fill-opacity:0" cx="1619.14" cy="1254.52" r="2"/>
<circle clip-path="url(#clip112)" style="fill:#009af9; stroke:none; fill-opacity:0" cx="1652.95" cy="1236.5" r="2"/>
<circle clip-path="url(#clip112)" style="fill:#009af9; stroke:none; fill-opacity:0" cx="1686.77" cy="1254.52" r="2"/>
<circle clip-path="url(#clip112)" style="fill:#009af9; stroke:none; fill-opacity:0" cx="1720.58" cy="1236.5" r="2"/>
<circle clip-path="url(#clip112)" style="fill:#009af9; stroke:none; fill-opacity:0" cx="1754.4" cy="1254.52" r="2"/>
<circle clip-path="url(#clip112)" style="fill:#009af9; stroke:none; fill-opacity:0" cx="1788.22" cy="1254.52" r="2"/>
<circle clip-path="url(#clip112)" style="fill:#009af9; stroke:none; fill-opacity:0" cx="1822.03" cy="1254.52" r="2"/>
<circle clip-path="url(#clip112)" style="fill:#009af9; stroke:none; fill-opacity:0" cx="1855.85" cy="1254.52" r="2"/>
</svg>
