<?xml version="1.0" encoding="utf-8"?>
<svg xmlns="http://www.w3.org/2000/svg" xmlns:xlink="http://www.w3.org/1999/xlink" width="480" height="360" viewBox="0 0 1920 1440">
<defs>
  <clipPath id="clip270">
    <rect x="0" y="0" width="1920" height="1440"/>
  </clipPath>
</defs>
<path clip-path="url(#clip270)" d="M0 1440 L1920 1440 L1920 0 L0 0  Z" fill="#ffffff" fill-rule="evenodd" fill-opacity="1"/>
<defs>
  <clipPath id="clip271">
    <rect x="384" y="0" width="1345" height="1345"/>
  </clipPath>
</defs>
<path clip-path="url(#clip270)" d="M151.798 1254.52 L1872.76 1254.52 L1872.76 47.2441 L151.798 47.2441  Z" fill="#ffffff" fill-rule="evenodd" fill-opacity="1"/>
<defs>
  <clipPath id="clip272">
    <rect x="151" y="47" width="1722" height="1208"/>
  </clipPath>
</defs>
<polyline clip-path="url(#clip272)" style="stroke:#000000; stroke-linecap:round; stroke-linejoin:round; stroke-width:2; stroke-opacity:0.1; fill:none" points="151.798,1254.52 151.798,47.2441 "/>
<polyline clip-path="url(#clip272)" style="stroke:#000000; stroke-linecap:round; stroke-linejoin:round; stroke-width:2; stroke-opacity:0.1; fill:none" points="397.649,1254.52 397.649,47.2441 "/>
<polyline clip-path="url(#clip272)" style="stroke:#000000; stroke-linecap:round; stroke-linejoin:round; stroke-width:2; stroke-opacity:0.1; fill:none" points="643.5,1254.52 643.5,47.2441 "/>
<polyline clip-path="url(#clip272)" style="stroke:#000000; stroke-linecap:round; stroke-linejoin:round; stroke-width:2; stroke-opacity:0.1; fill:none" points="889.352,1254.52 889.352,47.2441 "/>
<polyline clip-path="url(#clip272)" style="stroke:#000000; stroke-linecap:round; stroke-linejoin:round; stroke-width:2; stroke-opacity:0.1; fill:none" points="1135.2,1254.52 1135.2,47.2441 "/>
<polyline clip-path="url(#clip272)" style="stroke:#000000; stroke-linecap:round; stroke-linejoin:round; stroke-width:2; stroke-opacity:0.1; fill:none" points="1381.05,1254.52 1381.05,47.2441 "/>
<polyline clip-path="url(#clip272)" style="stroke:#000000; stroke-linecap:round; stroke-linejoin:round; stroke-width:2; stroke-opacity:0.1; fill:none" points="1626.9,1254.52 1626.9,47.2441 "/>
<polyline clip-path="url(#clip272)" style="stroke:#000000; stroke-linecap:round; stroke-linejoin:round; stroke-width:2; stroke-opacity:0.1; fill:none" points="1872.76,1254.52 1872.76,47.2441 "/>
<polyline clip-path="url(#clip272)" style="stroke:#000000; stroke-linecap:round; stroke-linejoin:round; stroke-width:2; stroke-opacity:0.1; fill:none" points="151.798,1254.52 1872.76,1254.52 "/>
<polyline clip-path="url(#clip272)" style="stroke:#000000; stroke-linecap:round; stroke-linejoin:round; stroke-width:2; stroke-opacity:0.1; fill:none" points="151.798,1051.62 1872.76,1051.62 "/>
<polyline clip-path="url(#clip272)" style="stroke:#000000; stroke-linecap:round; stroke-linejoin:round; stroke-width:2; stroke-opacity:0.1; fill:none" points="151.798,848.713 1872.76,848.713 "/>
<polyline clip-path="url(#clip272)" style="stroke:#000000; stroke-linecap:round; stroke-linejoin:round; stroke-width:2; stroke-opacity:0.1; fill:none" points="151.798,645.809 1872.76,645.809 "/>
<polyline clip-path="url(#clip272)" style="stroke:#000000; stroke-linecap:round; stroke-linejoin:round; stroke-width:2; stroke-opacity:0.1; fill:none" points="151.798,442.906 1872.76,442.906 "/>
<polyline clip-path="url(#clip272)" style="stroke:#000000; stroke-linecap:round; stroke-linejoin:round; stroke-width:2; stroke-opacity:0.1; fill:none" points="151.798,240.002 1872.76,240.002 "/>
<polyline clip-path="url(#clip270)" style="stroke:#000000; stroke-linecap:round; stroke-linejoin:round; stroke-width:4; stroke-opacity:1; fill:none" points="151.798,1254.52 1872.76,1254.52 "/>
<polyline clip-path="url(#clip270)" style="stroke:#000000; stroke-linecap:round; stroke-linejoin:round; stroke-width:4; stroke-opacity:1; fill:none" points="151.798,1254.52 151.798,1235.62 "/>
<polyline clip-path="url(#clip270)" style="stroke:#000000; stroke-linecap:round; stroke-linejoin:round; stroke-width:4; stroke-opacity:1; fill:none" points="397.649,1254.52 397.649,1235.62 "/>
<polyline clip-path="url(#clip270)" style="stroke:#000000; stroke-linecap:round; stroke-linejoin:round; stroke-width:4; stroke-opacity:1; fill:none" points="643.5,1254.52 643.5,1235.62 "/>
<polyline clip-path="url(#clip270)" style="stroke:#000000; stroke-linecap:round; stroke-linejoin:round; stroke-width:4; stroke-opacity:1; fill:none" points="889.352,1254.52 889.352,1235.62 "/>
<polyline clip-path="url(#clip270)" style="stroke:#000000; stroke-linecap:round; stroke-linejoin:round; stroke-width:4; stroke-opacity:1; fill:none" points="1135.2,1254.52 1135.2,1235.62 "/>
<polyline clip-path="url(#clip270)" style="stroke:#000000; stroke-linecap:round; stroke-linejoin:round; stroke-width:4; stroke-opacity:1; fill:none" points="1381.05,1254.52 1381.05,1235.62 "/>
<polyline clip-path="url(#clip270)" style="stroke:#000000; stroke-linecap:round; stroke-linejoin:round; stroke-width:4; stroke-opacity:1; fill:none" points="1626.9,1254.52 1626.9,1235.62 "/>
<polyline clip-path="url(#clip270)" style="stroke:#000000; stroke-linecap:round; stroke-linejoin:round; stroke-width:4; stroke-opacity:1; fill:none" points="1872.76,1254.52 1872.76,1235.62 "/>
<path clip-path="url(#clip270)" d="M121.266 1296.25 L150.942 1296.25 L150.942 1300.19 L121.266 1300.19 L121.266 1296.25 Z" fill="#000000" fill-rule="nonzero" fill-opacity="1" /><path clip-path="url(#clip270)" d="M175.201 1294.45 Q178.557 1295.16 180.432 1297.43 Q182.33 1299.7 182.33 1303.03 Q182.33 1308.15 178.812 1310.95 Q175.293 1313.75 168.812 1313.75 Q166.636 1313.75 164.321 1313.31 Q162.03 1312.89 159.576 1312.04 L159.576 1307.52 Q161.52 1308.66 163.835 1309.24 Q166.15 1309.82 168.673 1309.82 Q173.071 1309.82 175.363 1308.08 Q177.678 1306.34 177.678 1303.03 Q177.678 1299.98 175.525 1298.27 Q173.395 1296.53 169.576 1296.53 L165.548 1296.53 L165.548 1292.69 L169.761 1292.69 Q173.21 1292.69 175.039 1291.32 Q176.868 1289.93 176.868 1287.34 Q176.868 1284.68 174.969 1283.27 Q173.094 1281.83 169.576 1281.83 Q167.655 1281.83 165.456 1282.25 Q163.257 1282.66 160.618 1283.54 L160.618 1279.38 Q163.28 1278.64 165.594 1278.27 Q167.932 1277.89 169.993 1277.89 Q175.317 1277.89 178.418 1280.33 Q181.52 1282.73 181.52 1286.85 Q181.52 1289.72 179.877 1291.71 Q178.233 1293.68 175.201 1294.45 Z" fill="#000000" fill-rule="nonzero" fill-opacity="1" /><path clip-path="url(#clip270)" d="M367.592 1296.25 L397.267 1296.25 L397.267 1300.19 L367.592 1300.19 L367.592 1296.25 Z" fill="#000000" fill-rule="nonzero" fill-opacity="1" /><path clip-path="url(#clip270)" d="M411.388 1309.14 L427.707 1309.14 L427.707 1313.08 L405.763 1313.08 L405.763 1309.14 Q408.425 1306.39 413.008 1301.76 Q417.615 1297.11 418.795 1295.77 Q421.04 1293.24 421.92 1291.51 Q422.823 1289.75 422.823 1288.06 Q422.823 1285.3 420.878 1283.57 Q418.957 1281.83 415.855 1281.83 Q413.656 1281.83 411.202 1282.59 Q408.772 1283.36 405.994 1284.91 L405.994 1280.19 Q408.818 1279.05 411.272 1278.47 Q413.726 1277.89 415.763 1277.89 Q421.133 1277.89 424.327 1280.58 Q427.522 1283.27 427.522 1287.76 Q427.522 1289.89 426.712 1291.81 Q425.925 1293.7 423.818 1296.3 Q423.239 1296.97 420.138 1300.19 Q417.036 1303.38 411.388 1309.14 Z" fill="#000000" fill-rule="nonzero" fill-opacity="1" /><path clip-path="url(#clip270)" d="M613.258 1296.25 L642.933 1296.25 L642.933 1300.19 L613.258 1300.19 L613.258 1296.25 Z" fill="#000000" fill-rule="nonzero" fill-opacity="1" /><path clip-path="url(#clip270)" d="M653.836 1309.14 L661.475 1309.14 L661.475 1282.78 L653.165 1284.45 L653.165 1280.19 L661.429 1278.52 L666.104 1278.52 L666.104 1309.14 L673.743 1309.14 L673.743 1313.08 L653.836 1313.08 L653.836 1309.14 Z" fill="#000000" fill-rule="nonzero" fill-opacity="1" /><path clip-path="url(#clip270)" d="M889.352 1281.6 Q885.74 1281.6 883.912 1285.16 Q882.106 1288.7 882.106 1295.83 Q882.106 1302.94 883.912 1306.51 Q885.74 1310.05 889.352 1310.05 Q892.986 1310.05 894.791 1306.51 Q896.62 1302.94 896.62 1295.83 Q896.62 1288.7 894.791 1285.16 Q892.986 1281.6 889.352 1281.6 M889.352 1277.89 Q895.162 1277.89 898.217 1282.5 Q901.296 1287.08 901.296 1295.83 Q901.296 1304.56 898.217 1309.17 Q895.162 1313.75 889.352 1313.75 Q883.541 1313.75 880.463 1309.17 Q877.407 1304.56 877.407 1295.83 Q877.407 1287.08 880.463 1282.5 Q883.541 1277.89 889.352 1277.89 Z" fill="#000000" fill-rule="nonzero" fill-opacity="1" /><path clip-path="url(#clip270)" d="M1125.58 1309.14 L1133.22 1309.14 L1133.22 1282.78 L1124.91 1284.45 L1124.91 1280.19 L1133.18 1278.52 L1137.85 1278.52 L1137.85 1309.14 L1145.49 1309.14 L1145.49 1313.08 L1125.58 1313.08 L1125.58 1309.14 Z" fill="#000000" fill-rule="nonzero" fill-opacity="1" /><path clip-path="url(#clip270)" d="M1375.71 1309.14 L1392.03 1309.14 L1392.03 1313.08 L1370.08 1313.08 L1370.08 1309.14 Q1372.74 1306.39 1377.33 1301.76 Q1381.93 1297.11 1383.11 1295.77 Q1385.36 1293.24 1386.24 1291.51 Q1387.14 1289.75 1387.14 1288.06 Q1387.14 1285.3 1385.2 1283.57 Q1383.28 1281.83 1380.17 1281.83 Q1377.98 1281.83 1375.52 1282.59 Q1373.09 1283.36 1370.31 1284.91 L1370.31 1280.19 Q1373.14 1279.05 1375.59 1278.47 Q1378.04 1277.89 1380.08 1277.89 Q1385.45 1277.89 1388.65 1280.58 Q1391.84 1283.27 1391.84 1287.76 Q1391.84 1289.89 1391.03 1291.81 Q1390.24 1293.7 1388.14 1296.3 Q1387.56 1296.97 1384.46 1300.19 Q1381.35 1303.38 1375.71 1309.14 Z" fill="#000000" fill-rule="nonzero" fill-opacity="1" /><path clip-path="url(#clip270)" d="M1631.15 1294.45 Q1634.51 1295.16 1636.38 1297.43 Q1638.28 1299.7 1638.28 1303.03 Q1638.28 1308.15 1634.76 1310.95 Q1631.25 1313.75 1624.76 1313.75 Q1622.59 1313.75 1620.27 1313.31 Q1617.98 1312.89 1615.53 1312.04 L1615.53 1307.52 Q1617.47 1308.66 1619.79 1309.24 Q1622.1 1309.82 1624.62 1309.82 Q1629.02 1309.82 1631.31 1308.08 Q1633.63 1306.34 1633.63 1303.03 Q1633.63 1299.98 1631.48 1298.27 Q1629.35 1296.53 1625.53 1296.53 L1621.5 1296.53 L1621.5 1292.69 L1625.71 1292.69 Q1629.16 1292.69 1630.99 1291.32 Q1632.82 1289.93 1632.82 1287.34 Q1632.82 1284.68 1630.92 1283.27 Q1629.05 1281.83 1625.53 1281.83 Q1623.61 1281.83 1621.41 1282.25 Q1619.21 1282.66 1616.57 1283.54 L1616.57 1279.38 Q1619.23 1278.64 1621.55 1278.27 Q1623.88 1277.89 1625.94 1277.89 Q1631.27 1277.89 1634.37 1280.33 Q1637.47 1282.73 1637.47 1286.85 Q1637.47 1289.72 1635.83 1291.71 Q1634.18 1293.68 1631.15 1294.45 Z" fill="#000000" fill-rule="nonzero" fill-opacity="1" /><path clip-path="url(#clip270)" d="M1875.77 1282.59 L1863.96 1301.04 L1875.77 1301.04 L1875.77 1282.59 M1874.54 1278.52 L1880.42 1278.52 L1880.42 1301.04 L1885.35 1301.04 L1885.35 1304.93 L1880.42 1304.93 L1880.42 1313.08 L1875.77 1313.08 L1875.77 1304.93 L1860.16 1304.93 L1860.16 1300.42 L1874.54 1278.52 Z" fill="#000000" fill-rule="nonzero" fill-opacity="1" /><path clip-path="url(#clip270)" d="M927.548 1380 L927.548 1377.97 Q931.059 1377.97 931.864 1377.56 Q932.669 1377.1 932.669 1374.98 L932.669 1340.68 Q932.669 1338.23 931.799 1337.62 Q930.962 1337.01 927.548 1337.01 L927.548 1334.95 L937.017 1334.24 L937.017 1374.98 Q937.017 1377.1 937.854 1377.56 Q938.691 1377.97 942.17 1377.97 L942.17 1380 Q941.365 1380 939.69 1379.94 Q938.015 1379.87 936.791 1379.84 Q935.567 1379.81 934.859 1379.81 Q934.086 1379.81 927.548 1380 Z" fill="#000000" fill-rule="nonzero" fill-opacity="1" /><path clip-path="url(#clip270)" d="M952.094 1376.46 Q947.746 1372.14 947.746 1365.9 Q947.746 1359.62 951.997 1355.04 Q956.28 1350.44 962.399 1350.44 Q968.39 1350.44 972.673 1355.01 Q976.989 1359.55 976.989 1365.9 Q976.989 1372.11 972.641 1376.43 Q968.325 1380.74 962.335 1380.74 Q956.474 1380.74 952.094 1376.46 M953.221 1365.35 Q953.221 1371.76 954.895 1374.66 Q957.472 1379.07 962.399 1379.07 Q964.847 1379.07 966.876 1377.75 Q968.937 1376.43 970.064 1374.21 Q971.514 1371.31 971.514 1365.35 Q971.514 1359 969.775 1356.2 Q967.198 1351.92 962.335 1351.92 Q960.209 1351.92 958.116 1353.05 Q956.055 1354.14 954.799 1356.33 Q953.221 1359.23 953.221 1365.35 Z" fill="#000000" fill-rule="nonzero" fill-opacity="1" /><path clip-path="url(#clip270)" d="M978.032 1385.22 Q978.032 1383.09 979.643 1381.26 Q981.285 1379.42 984.119 1378.62 Q981.221 1376.78 981.221 1372.76 Q981.221 1369.67 983.25 1367.28 Q980.158 1364.71 980.158 1360.49 Q980.158 1356.59 983.25 1353.72 Q986.341 1350.86 990.85 1350.86 Q994.812 1350.86 997.839 1353.24 Q1001 1350.15 1004.83 1350.12 Q1006.53 1350.12 1007.34 1351.18 Q1008.18 1352.24 1008.18 1353.37 Q1008.18 1354.37 1007.53 1354.85 Q1006.92 1355.33 1006.28 1355.33 Q1005.47 1355.33 1004.89 1354.82 Q1004.34 1354.27 1004.34 1353.43 Q1004.34 1352.05 1005.41 1351.63 Q1005.21 1351.57 1004.76 1351.57 Q1001.54 1351.57 998.805 1354.14 Q1001.51 1356.65 1001.51 1360.55 Q1001.51 1364.45 998.419 1367.31 Q995.327 1370.18 990.85 1370.18 Q987.147 1370.18 984.312 1368.12 Q983.185 1369.44 983.185 1371.24 Q983.185 1372.89 984.184 1374.17 Q985.182 1375.46 986.696 1375.66 Q987.147 1375.72 991.623 1375.72 Q994.264 1375.72 995.713 1375.78 Q997.163 1375.85 999.224 1376.3 Q1001.32 1376.72 1002.96 1377.56 Q1007.24 1379.94 1007.28 1385.09 Q1007.28 1388.86 1002.93 1391.21 Q998.612 1393.59 992.622 1393.59 Q986.567 1393.59 982.283 1391.18 Q978.032 1388.8 978.032 1385.22 M981.478 1385.22 Q981.478 1387.93 984.667 1389.99 Q987.855 1392.08 992.686 1392.08 Q997.42 1392.08 1000.61 1390.02 Q1003.83 1387.99 1003.83 1385.22 Q1003.83 1383.26 1002.7 1382 Q1001.57 1380.74 999.256 1380.23 Q996.969 1379.75 995.359 1379.65 Q993.749 1379.55 990.786 1379.55 L986.889 1379.55 Q984.634 1379.68 983.056 1381.32 Q981.478 1382.97 981.478 1385.22 M985.085 1360.55 Q985.085 1368.67 990.85 1368.67 Q993.749 1368.67 995.52 1366.03 Q996.583 1364.25 996.583 1360.49 Q996.583 1352.37 990.85 1352.37 Q987.952 1352.37 986.148 1355.01 Q985.085 1356.78 985.085 1360.55 Z" fill="#000000" fill-rule="nonzero" fill-opacity="1" /><path clip-path="url(#clip270)" d="M1018.54 1363.51 Q1018.54 1352.37 1022.69 1343.39 Q1024.46 1339.62 1026.94 1336.46 Q1029.42 1333.3 1031.07 1331.92 Q1032.71 1330.53 1033.16 1330.53 Q1033.8 1330.53 1033.84 1331.18 Q1033.84 1331.5 1032.97 1332.31 Q1022.34 1343.13 1022.37 1363.51 Q1022.37 1383.96 1032.71 1394.37 Q1033.84 1395.49 1033.84 1395.85 Q1033.84 1396.49 1033.16 1396.49 Q1032.71 1396.49 1031.13 1395.17 Q1029.55 1393.85 1027.1 1390.82 Q1024.66 1387.8 1022.89 1384.09 Q1018.54 1375.11 1018.54 1363.51 Z" fill="#000000" fill-rule="nonzero" fill-opacity="1" /><path clip-path="url(#clip270)" d="M1073.47 1352.24 Q1073.47 1352.5 1072.21 1354.75 Q1070.12 1358.91 1067.45 1365.25 Q1064.77 1371.6 1063.26 1376.3 Q1062.94 1377.43 1062.71 1378.88 Q1062.13 1383.32 1060.26 1390.21 Q1059.62 1392.37 1059.2 1393.27 Q1058.78 1394.17 1058.17 1394.17 Q1057.3 1394.17 1057.3 1392.98 Q1057.3 1391.79 1058.4 1387.35 Q1059.52 1382.9 1060.75 1378.81 Q1061.52 1376.56 1061.52 1372.34 Q1061.52 1370.99 1061.46 1369.76 Q1061.39 1368.54 1061.13 1366.77 Q1060.88 1365 1060.46 1363.55 Q1060.04 1362.1 1059.23 1360.58 Q1058.43 1359.04 1057.33 1358.01 Q1056.24 1356.94 1054.56 1356.27 Q1052.92 1355.59 1050.86 1355.59 Q1050.35 1355.59 1049.7 1355.66 Q1049.09 1355.69 1047.61 1356.11 Q1046.16 1356.53 1044.93 1357.27 Q1043.71 1357.97 1042.39 1359.55 Q1041.07 1361.13 1040.36 1363.26 L1040.1 1363.58 Q1039.68 1363.58 1039.46 1363.58 Q1039.27 1363.55 1039.04 1363.38 Q1038.85 1363.22 1038.85 1362.93 Q1038.85 1362.26 1039.36 1360.91 Q1039.91 1359.55 1041.01 1357.81 Q1042.13 1356.07 1043.58 1354.53 Q1045.06 1352.98 1047.22 1351.92 Q1049.38 1350.86 1051.7 1350.86 Q1057.66 1350.86 1060.49 1358.1 Q1062.97 1364.25 1063.2 1371.57 Q1068.35 1358.59 1071.89 1352.05 Q1072.08 1351.57 1072.66 1351.57 Q1073.47 1351.6 1073.47 1352.24 Z" fill="#000000" fill-rule="nonzero" fill-opacity="1" /><path clip-path="url(#clip270)" d="M1079.52 1395.85 Q1079.52 1395.53 1080.36 1394.72 Q1090.99 1383.9 1090.99 1363.51 Q1090.99 1343.06 1080.78 1332.72 Q1079.52 1331.53 1079.52 1331.18 Q1079.52 1330.53 1080.17 1330.53 Q1080.62 1330.53 1082.2 1331.86 Q1083.81 1333.18 1086.22 1336.2 Q1088.67 1339.23 1090.47 1342.93 Q1094.82 1351.92 1094.82 1363.51 Q1094.82 1374.66 1090.67 1383.64 Q1088.89 1387.41 1086.41 1390.57 Q1083.93 1393.72 1082.29 1395.11 Q1080.65 1396.49 1080.17 1396.49 Q1079.52 1396.49 1079.52 1395.85 Z" fill="#000000" fill-rule="nonzero" fill-opacity="1" /><polyline clip-path="url(#clip270)" style="stroke:#000000; stroke-linecap:round; stroke-linejoin:round; stroke-width:4; stroke-opacity:1; fill:none" points="151.798,1254.52 151.798,47.2441 "/>
<polyline clip-path="url(#clip270)" style="stroke:#000000; stroke-linecap:round; stroke-linejoin:round; stroke-width:4; stroke-opacity:1; fill:none" points="151.798,1254.52 170.696,1254.52 "/>
<polyline clip-path="url(#clip270)" style="stroke:#000000; stroke-linecap:round; stroke-linejoin:round; stroke-width:4; stroke-opacity:1; fill:none" points="151.798,1051.62 170.696,1051.62 "/>
<polyline clip-path="url(#clip270)" style="stroke:#000000; stroke-linecap:round; stroke-linejoin:round; stroke-width:4; stroke-opacity:1; fill:none" points="151.798,848.713 170.696,848.713 "/>
<polyline clip-path="url(#clip270)" style="stroke:#000000; stroke-linecap:round; stroke-linejoin:round; stroke-width:4; stroke-opacity:1; fill:none" points="151.798,645.809 170.696,645.809 "/>
<polyline clip-path="url(#clip270)" style="stroke:#000000; stroke-linecap:round; stroke-linejoin:round; stroke-width:4; stroke-opacity:1; fill:none" points="151.798,442.906 170.696,442.906 "/>
<polyline clip-path="url(#clip270)" style="stroke:#000000; stroke-linecap:round; stroke-linejoin:round; stroke-width:4; stroke-opacity:1; fill:none" points="151.798,240.002 170.696,240.002 "/>
<path clip-path="url(#clip270)" d="M65.8226 1240.32 Q62.2115 1240.32 60.3828 1243.88 Q58.5773 1247.42 58.5773 1254.55 Q58.5773 1261.66 60.3828 1265.23 Q62.2115 1268.77 65.8226 1268.77 Q69.4569 1268.77 71.2624 1265.23 Q73.0911 1261.66 73.0911 1254.55 Q73.0911 1247.42 71.2624 1243.88 Q69.4569 1240.32 65.8226 1240.32 M65.8226 1236.61 Q71.6328 1236.61 74.6883 1241.22 Q77.767 1245.8 77.767 1254.55 Q77.767 1263.28 74.6883 1267.89 Q71.6328 1272.47 65.8226 1272.47 Q60.0125 1272.47 56.9338 1267.89 Q53.8782 1263.28 53.8782 1254.55 Q53.8782 1245.8 56.9338 1241.22 Q60.0125 1236.61 65.8226 1236.61 Z" fill="#000000" fill-rule="nonzero" fill-opacity="1" /><path clip-path="url(#clip270)" d="M85.9845 1265.92 L90.8688 1265.92 L90.8688 1271.8 L85.9845 1271.8 L85.9845 1265.92 Z" fill="#000000" fill-rule="nonzero" fill-opacity="1" /><path clip-path="url(#clip270)" d="M111.054 1240.32 Q107.443 1240.32 105.614 1243.88 Q103.809 1247.42 103.809 1254.55 Q103.809 1261.66 105.614 1265.23 Q107.443 1268.77 111.054 1268.77 Q114.688 1268.77 116.494 1265.23 Q118.322 1261.66 118.322 1254.55 Q118.322 1247.42 116.494 1243.88 Q114.688 1240.32 111.054 1240.32 M111.054 1236.61 Q116.864 1236.61 119.92 1241.22 Q122.998 1245.8 122.998 1254.55 Q122.998 1263.28 119.92 1267.89 Q116.864 1272.47 111.054 1272.47 Q105.244 1272.47 102.165 1267.89 Q99.1095 1263.28 99.1095 1254.55 Q99.1095 1245.8 102.165 1241.22 Q105.244 1236.61 111.054 1236.61 Z" fill="#000000" fill-rule="nonzero" fill-opacity="1" /><path clip-path="url(#clip270)" d="M67.0495 1037.42 Q63.4384 1037.42 61.6097 1040.98 Q59.8041 1044.52 59.8041 1051.65 Q59.8041 1058.76 61.6097 1062.32 Q63.4384 1065.86 67.0495 1065.86 Q70.6837 1065.86 72.4892 1062.32 Q74.3179 1058.76 74.3179 1051.65 Q74.3179 1044.52 72.4892 1040.98 Q70.6837 1037.42 67.0495 1037.42 M67.0495 1033.71 Q72.8596 1033.71 75.9152 1038.32 Q78.9938 1042.9 78.9938 1051.65 Q78.9938 1060.38 75.9152 1064.98 Q72.8596 1069.57 67.0495 1069.57 Q61.2393 1069.57 58.1606 1064.98 Q55.1051 1060.38 55.1051 1051.65 Q55.1051 1042.9 58.1606 1038.32 Q61.2393 1033.71 67.0495 1033.71 Z" fill="#000000" fill-rule="nonzero" fill-opacity="1" /><path clip-path="url(#clip270)" d="M87.2114 1063.02 L92.0956 1063.02 L92.0956 1068.9 L87.2114 1068.9 L87.2114 1063.02 Z" fill="#000000" fill-rule="nonzero" fill-opacity="1" /><path clip-path="url(#clip270)" d="M103.091 1064.96 L110.73 1064.96 L110.73 1038.6 L102.42 1040.26 L102.42 1036 L110.683 1034.34 L115.359 1034.34 L115.359 1064.96 L122.998 1064.96 L122.998 1068.9 L103.091 1068.9 L103.091 1064.96 Z" fill="#000000" fill-rule="nonzero" fill-opacity="1" /><path clip-path="url(#clip270)" d="M67.4198 834.512 Q63.8087 834.512 61.98 838.076 Q60.1745 841.618 60.1745 848.748 Q60.1745 855.854 61.98 859.419 Q63.8087 862.96 67.4198 862.96 Q71.0541 862.96 72.8596 859.419 Q74.6883 855.854 74.6883 848.748 Q74.6883 841.618 72.8596 838.076 Q71.0541 834.512 67.4198 834.512 M67.4198 830.808 Q73.23 830.808 76.2855 835.414 Q79.3642 839.998 79.3642 848.748 Q79.3642 857.474 76.2855 862.081 Q73.23 866.664 67.4198 866.664 Q61.6097 866.664 58.531 862.081 Q55.4754 857.474 55.4754 848.748 Q55.4754 839.998 58.531 835.414 Q61.6097 830.808 67.4198 830.808 Z" fill="#000000" fill-rule="nonzero" fill-opacity="1" /><path clip-path="url(#clip270)" d="M87.5818 860.113 L92.466 860.113 L92.466 865.993 L87.5818 865.993 L87.5818 860.113 Z" fill="#000000" fill-rule="nonzero" fill-opacity="1" /><path clip-path="url(#clip270)" d="M106.679 862.058 L122.998 862.058 L122.998 865.993 L101.054 865.993 L101.054 862.058 Q103.716 859.303 108.299 854.673 Q112.906 850.021 114.086 848.678 Q116.332 846.155 117.211 844.419 Q118.114 842.66 118.114 840.97 Q118.114 838.215 116.17 836.479 Q114.248 834.743 111.146 834.743 Q108.947 834.743 106.494 835.507 Q104.063 836.271 101.285 837.822 L101.285 833.1 Q104.109 831.965 106.563 831.387 Q109.017 830.808 111.054 830.808 Q116.424 830.808 119.619 833.493 Q122.813 836.178 122.813 840.669 Q122.813 842.799 122.003 844.72 Q121.216 846.618 119.109 849.211 Q118.531 849.882 115.429 853.099 Q112.327 856.294 106.679 862.058 Z" fill="#000000" fill-rule="nonzero" fill-opacity="1" /><path clip-path="url(#clip270)" d="M66.4708 631.608 Q62.8597 631.608 61.031 635.173 Q59.2254 638.715 59.2254 645.844 Q59.2254 652.951 61.031 656.515 Q62.8597 660.057 66.4708 660.057 Q70.105 660.057 71.9105 656.515 Q73.7392 652.951 73.7392 645.844 Q73.7392 638.715 71.9105 635.173 Q70.105 631.608 66.4708 631.608 M66.4708 627.904 Q72.2809 627.904 75.3365 632.511 Q78.4151 637.094 78.4151 645.844 Q78.4151 654.571 75.3365 659.177 Q72.2809 663.761 66.4708 663.761 Q60.6606 663.761 57.5819 659.177 Q54.5264 654.571 54.5264 645.844 Q54.5264 637.094 57.5819 632.511 Q60.6606 627.904 66.4708 627.904 Z" fill="#000000" fill-rule="nonzero" fill-opacity="1" /><path clip-path="url(#clip270)" d="M86.6327 657.21 L91.5169 657.21 L91.5169 663.089 L86.6327 663.089 L86.6327 657.21 Z" fill="#000000" fill-rule="nonzero" fill-opacity="1" /><path clip-path="url(#clip270)" d="M115.869 644.455 Q119.225 645.173 121.1 647.441 Q122.998 649.71 122.998 653.043 Q122.998 658.159 119.48 660.96 Q115.961 663.761 109.48 663.761 Q107.304 663.761 104.989 663.321 Q102.697 662.904 100.244 662.048 L100.244 657.534 Q102.188 658.668 104.503 659.247 Q106.818 659.826 109.341 659.826 Q113.739 659.826 116.031 658.089 Q118.345 656.353 118.345 653.043 Q118.345 649.988 116.193 648.275 Q114.063 646.539 110.244 646.539 L106.216 646.539 L106.216 642.696 L110.429 642.696 Q113.878 642.696 115.707 641.33 Q117.535 639.941 117.535 637.349 Q117.535 634.687 115.637 633.275 Q113.762 631.84 110.244 631.84 Q108.322 631.84 106.123 632.256 Q103.924 632.673 101.285 633.553 L101.285 629.386 Q103.947 628.645 106.262 628.275 Q108.6 627.904 110.66 627.904 Q115.984 627.904 119.086 630.335 Q122.188 632.742 122.188 636.863 Q122.188 639.733 120.545 641.724 Q118.901 643.691 115.869 644.455 Z" fill="#000000" fill-rule="nonzero" fill-opacity="1" /><path clip-path="url(#clip270)" d="M65.3365 428.705 Q61.7254 428.705 59.8967 432.269 Q58.0912 435.811 58.0912 442.941 Q58.0912 450.047 59.8967 453.612 Q61.7254 457.154 65.3365 457.154 Q68.9707 457.154 70.7763 453.612 Q72.605 450.047 72.605 442.941 Q72.605 435.811 70.7763 432.269 Q68.9707 428.705 65.3365 428.705 M65.3365 425.001 Q71.1467 425.001 74.2022 429.607 Q77.2809 434.191 77.2809 442.941 Q77.2809 451.667 74.2022 456.274 Q71.1467 460.857 65.3365 460.857 Q59.5264 460.857 56.4477 456.274 Q53.3921 451.667 53.3921 442.941 Q53.3921 434.191 56.4477 429.607 Q59.5264 425.001 65.3365 425.001 Z" fill="#000000" fill-rule="nonzero" fill-opacity="1" /><path clip-path="url(#clip270)" d="M85.4984 454.306 L90.3827 454.306 L90.3827 460.186 L85.4984 460.186 L85.4984 454.306 Z" fill="#000000" fill-rule="nonzero" fill-opacity="1" /><path clip-path="url(#clip270)" d="M113.415 429.7 L101.609 448.149 L113.415 448.149 L113.415 429.7 M112.188 425.626 L118.068 425.626 L118.068 448.149 L122.998 448.149 L122.998 452.038 L118.068 452.038 L118.068 460.186 L113.415 460.186 L113.415 452.038 L97.8132 452.038 L97.8132 447.524 L112.188 425.626 Z" fill="#000000" fill-rule="nonzero" fill-opacity="1" /><path clip-path="url(#clip270)" d="M66.818 225.801 Q63.2069 225.801 61.3782 229.366 Q59.5726 232.908 59.5726 240.037 Q59.5726 247.144 61.3782 250.708 Q63.2069 254.25 66.818 254.25 Q70.4522 254.25 72.2578 250.708 Q74.0865 247.144 74.0865 240.037 Q74.0865 232.908 72.2578 229.366 Q70.4522 225.801 66.818 225.801 M66.818 222.097 Q72.6281 222.097 75.6837 226.704 Q78.7624 231.287 78.7624 240.037 Q78.7624 248.764 75.6837 253.37 Q72.6281 257.954 66.818 257.954 Q61.0078 257.954 57.9291 253.37 Q54.8736 248.764 54.8736 240.037 Q54.8736 231.287 57.9291 226.704 Q61.0078 222.097 66.818 222.097 Z" fill="#000000" fill-rule="nonzero" fill-opacity="1" /><path clip-path="url(#clip270)" d="M86.9799 251.403 L91.8641 251.403 L91.8641 257.282 L86.9799 257.282 L86.9799 251.403 Z" fill="#000000" fill-rule="nonzero" fill-opacity="1" /><path clip-path="url(#clip270)" d="M102.096 222.722 L120.452 222.722 L120.452 226.658 L106.378 226.658 L106.378 235.13 Q107.396 234.783 108.415 234.62 Q109.433 234.435 110.452 234.435 Q116.239 234.435 119.619 237.607 Q122.998 240.778 122.998 246.195 Q122.998 251.773 119.526 254.875 Q116.054 257.954 109.734 257.954 Q107.559 257.954 105.29 257.583 Q103.045 257.213 100.637 256.472 L100.637 251.773 Q102.721 252.907 104.943 253.463 Q107.165 254.019 109.642 254.019 Q113.646 254.019 115.984 251.912 Q118.322 249.806 118.322 246.195 Q118.322 242.583 115.984 240.477 Q113.646 238.37 109.642 238.37 Q107.767 238.37 105.892 238.787 Q104.04 239.204 102.096 240.083 L102.096 222.722 Z" fill="#000000" fill-rule="nonzero" fill-opacity="1" /><path clip-path="url(#clip272)" d="M250.139 1249.45 L250.139 1254.52 L299.309 1254.52 L299.309 1249.45 L250.139 1249.45 L250.139 1249.45  Z" fill="#009af9" fill-rule="evenodd" fill-opacity="1"/>
<polyline clip-path="url(#clip272)" style="stroke:#000000; stroke-linecap:round; stroke-linejoin:round; stroke-width:4; stroke-opacity:1; fill:none" points="250.139,1249.45 250.139,1254.52 299.309,1254.52 299.309,1249.45 250.139,1249.45 "/>
<path clip-path="url(#clip272)" d="M299.309 1229.16 L299.309 1254.52 L348.479 1254.52 L348.479 1229.16 L299.309 1229.16 L299.309 1229.16  Z" fill="#009af9" fill-rule="evenodd" fill-opacity="1"/>
<polyline clip-path="url(#clip272)" style="stroke:#000000; stroke-linecap:round; stroke-linejoin:round; stroke-width:4; stroke-opacity:1; fill:none" points="299.309,1229.16 299.309,1254.52 348.479,1254.52 348.479,1229.16 299.309,1229.16 "/>
<path clip-path="url(#clip272)" d="M348.479 1173.36 L348.479 1254.52 L397.649 1254.52 L397.649 1173.36 L348.479 1173.36 L348.479 1173.36  Z" fill="#009af9" fill-rule="evenodd" fill-opacity="1"/>
<polyline clip-path="url(#clip272)" style="stroke:#000000; stroke-linecap:round; stroke-linejoin:round; stroke-width:4; stroke-opacity:1; fill:none" points="348.479,1173.36 348.479,1254.52 397.649,1254.52 397.649,1173.36 348.479,1173.36 "/>
<path clip-path="url(#clip272)" d="M397.649 1066.83 L397.649 1254.52 L446.82 1254.52 L446.82 1066.83 L397.649 1066.83 L397.649 1066.83  Z" fill="#009af9" fill-rule="evenodd" fill-opacity="1"/>
<polyline clip-path="url(#clip272)" style="stroke:#000000; stroke-linecap:round; stroke-linejoin:round; stroke-width:4; stroke-opacity:1; fill:none" points="397.649,1066.83 397.649,1254.52 446.82,1254.52 446.82,1066.83 397.649,1066.83 "/>
<path clip-path="url(#clip272)" d="M446.82 919.729 L446.82 1254.52 L495.99 1254.52 L495.99 919.729 L446.82 919.729 L446.82 919.729  Z" fill="#009af9" fill-rule="evenodd" fill-opacity="1"/>
<polyline clip-path="url(#clip272)" style="stroke:#000000; stroke-linecap:round; stroke-linejoin:round; stroke-width:4; stroke-opacity:1; fill:none" points="446.82,919.729 446.82,1254.52 495.99,1254.52 495.99,919.729 446.82,919.729 "/>
<path clip-path="url(#clip272)" d="M495.99 737.116 L495.99 1254.52 L545.16 1254.52 L545.16 737.116 L495.99 737.116 L495.99 737.116  Z" fill="#009af9" fill-rule="evenodd" fill-opacity="1"/>
<polyline clip-path="url(#clip272)" style="stroke:#000000; stroke-linecap:round; stroke-linejoin:round; stroke-width:4; stroke-opacity:1; fill:none" points="495.99,737.116 495.99,1254.52 545.16,1254.52 545.16,737.116 495.99,737.116 "/>
<path clip-path="url(#clip272)" d="M545.16 463.196 L545.16 1254.52 L594.33 1254.52 L594.33 463.196 L545.16 463.196 L545.16 463.196  Z" fill="#009af9" fill-rule="evenodd" fill-opacity="1"/>
<polyline clip-path="url(#clip272)" style="stroke:#000000; stroke-linecap:round; stroke-linejoin:round; stroke-width:4; stroke-opacity:1; fill:none" points="545.16,463.196 545.16,1254.52 594.33,1254.52 594.33,463.196 545.16,463.196 "/>
<path clip-path="url(#clip272)" d="M594.33 199.422 L594.33 1254.52 L643.5 1254.52 L643.5 199.422 L594.33 199.422 L594.33 199.422  Z" fill="#009af9" fill-rule="evenodd" fill-opacity="1"/>
<polyline clip-path="url(#clip272)" style="stroke:#000000; stroke-linecap:round; stroke-linejoin:round; stroke-width:4; stroke-opacity:1; fill:none" points="594.33,199.422 594.33,1254.52 643.5,1254.52 643.5,199.422 594.33,199.422 "/>
<path clip-path="url(#clip272)" d="M643.5 62.4619 L643.5 1254.52 L692.671 1254.52 L692.671 62.4619 L643.5 62.4619 L643.5 62.4619  Z" fill="#009af9" fill-rule="evenodd" fill-opacity="1"/>
<polyline clip-path="url(#clip272)" style="stroke:#000000; stroke-linecap:round; stroke-linejoin:round; stroke-width:4; stroke-opacity:1; fill:none" points="643.5,62.4619 643.5,1254.52 692.671,1254.52 692.671,62.4619 643.5,62.4619 "/>
<path clip-path="url(#clip272)" d="M692.671 47.2441 L692.671 1254.52 L741.841 1254.52 L741.841 47.2441 L692.671 47.2441 L692.671 47.2441  Z" fill="#009af9" fill-rule="evenodd" fill-opacity="1"/>
<polyline clip-path="url(#clip272)" style="stroke:#000000; stroke-linecap:round; stroke-linejoin:round; stroke-width:4; stroke-opacity:1; fill:none" points="692.671,47.2441 692.671,1254.52 741.841,1254.52 741.841,47.2441 692.671,47.2441 "/>
<path clip-path="url(#clip272)" d="M741.841 158.841 L741.841 1254.52 L791.011 1254.52 L791.011 158.841 L741.841 158.841 L741.841 158.841  Z" fill="#009af9" fill-rule="evenodd" fill-opacity="1"/>
<polyline clip-path="url(#clip272)" style="stroke:#000000; stroke-linecap:round; stroke-linejoin:round; stroke-width:4; stroke-opacity:1; fill:none" points="741.841,158.841 741.841,1254.52 791.011,1254.52 791.011,158.841 741.841,158.841 "/>
<path clip-path="url(#clip272)" d="M791.011 331.309 L791.011 1254.52 L840.181 1254.52 L840.181 331.309 L791.011 331.309 L791.011 331.309  Z" fill="#009af9" fill-rule="evenodd" fill-opacity="1"/>
<polyline clip-path="url(#clip272)" style="stroke:#000000; stroke-linecap:round; stroke-linejoin:round; stroke-width:4; stroke-opacity:1; fill:none" points="791.011,331.309 791.011,1254.52 840.181,1254.52 840.181,331.309 791.011,331.309 "/>
<path clip-path="url(#clip272)" d="M840.181 498.704 L840.181 1254.52 L889.352 1254.52 L889.352 498.704 L840.181 498.704 L840.181 498.704  Z" fill="#009af9" fill-rule="evenodd" fill-opacity="1"/>
<polyline clip-path="url(#clip272)" style="stroke:#000000; stroke-linecap:round; stroke-linejoin:round; stroke-width:4; stroke-opacity:1; fill:none" points="840.181,498.704 840.181,1254.52 889.352,1254.52 889.352,498.704 840.181,498.704 "/>
<path clip-path="url(#clip272)" d="M889.352 645.809 L889.352 1254.52 L938.522 1254.52 L938.522 645.809 L889.352 645.809 L889.352 645.809  Z" fill="#009af9" fill-rule="evenodd" fill-opacity="1"/>
<polyline clip-path="url(#clip272)" style="stroke:#000000; stroke-linecap:round; stroke-linejoin:round; stroke-width:4; stroke-opacity:1; fill:none" points="889.352,645.809 889.352,1254.52 938.522,1254.52 938.522,645.809 889.352,645.809 "/>
<path clip-path="url(#clip272)" d="M938.522 884.221 L938.522 1254.52 L987.692 1254.52 L987.692 884.221 L938.522 884.221 L938.522 884.221  Z" fill="#009af9" fill-rule="evenodd" fill-opacity="1"/>
<polyline clip-path="url(#clip272)" style="stroke:#000000; stroke-linecap:round; stroke-linejoin:round; stroke-width:4; stroke-opacity:1; fill:none" points="938.522,884.221 938.522,1254.52 987.692,1254.52 987.692,884.221 938.522,884.221 "/>
<path clip-path="url(#clip272)" d="M987.692 950.165 L987.692 1254.52 L1036.86 1254.52 L1036.86 950.165 L987.692 950.165 L987.692 950.165  Z" fill="#009af9" fill-rule="evenodd" fill-opacity="1"/>
<polyline clip-path="url(#clip272)" style="stroke:#000000; stroke-linecap:round; stroke-linejoin:round; stroke-width:4; stroke-opacity:1; fill:none" points="987.692,950.165 987.692,1254.52 1036.86,1254.52 1036.86,950.165 987.692,950.165 "/>
<path clip-path="url(#clip272)" d="M1036.86 1087.12 L1036.86 1254.52 L1086.03 1254.52 L1086.03 1087.12 L1036.86 1087.12 L1036.86 1087.12  Z" fill="#009af9" fill-rule="evenodd" fill-opacity="1"/>
<polyline clip-path="url(#clip272)" style="stroke:#000000; stroke-linecap:round; stroke-linejoin:round; stroke-width:4; stroke-opacity:1; fill:none" points="1036.86,1087.12 1036.86,1254.52 1086.03,1254.52 1086.03,1087.12 1036.86,1087.12 "/>
<path clip-path="url(#clip272)" d="M1086.03 1092.2 L1086.03 1254.52 L1135.2 1254.52 L1135.2 1092.2 L1086.03 1092.2 L1086.03 1092.2  Z" fill="#009af9" fill-rule="evenodd" fill-opacity="1"/>
<polyline clip-path="url(#clip272)" style="stroke:#000000; stroke-linecap:round; stroke-linejoin:round; stroke-width:4; stroke-opacity:1; fill:none" points="1086.03,1092.2 1086.03,1254.52 1135.2,1254.52 1135.2,1092.2 1086.03,1092.2 "/>
<path clip-path="url(#clip272)" d="M1135.2 1153.07 L1135.2 1254.52 L1184.37 1254.52 L1184.37 1153.07 L1135.2 1153.07 L1135.2 1153.07  Z" fill="#009af9" fill-rule="evenodd" fill-opacity="1"/>
<polyline clip-path="url(#clip272)" style="stroke:#000000; stroke-linecap:round; stroke-linejoin:round; stroke-width:4; stroke-opacity:1; fill:none" points="1135.2,1153.07 1135.2,1254.52 1184.37,1254.52 1184.37,1153.07 1135.2,1153.07 "/>
<path clip-path="url(#clip272)" d="M1184.37 1183.5 L1184.37 1254.52 L1233.54 1254.52 L1233.54 1183.5 L1184.37 1183.5 L1184.37 1183.5  Z" fill="#009af9" fill-rule="evenodd" fill-opacity="1"/>
<polyline clip-path="url(#clip272)" style="stroke:#000000; stroke-linecap:round; stroke-linejoin:round; stroke-width:4; stroke-opacity:1; fill:none" points="1184.37,1183.5 1184.37,1254.52 1233.54,1254.52 1233.54,1183.5 1184.37,1183.5 "/>
<path clip-path="url(#clip272)" d="M1233.54 1193.65 L1233.54 1254.52 L1282.71 1254.52 L1282.71 1193.65 L1233.54 1193.65 L1233.54 1193.65  Z" fill="#009af9" fill-rule="evenodd" fill-opacity="1"/>
<polyline clip-path="url(#clip272)" style="stroke:#000000; stroke-linecap:round; stroke-linejoin:round; stroke-width:4; stroke-opacity:1; fill:none" points="1233.54,1193.65 1233.54,1254.52 1282.71,1254.52 1282.71,1193.65 1233.54,1193.65 "/>
<path clip-path="url(#clip272)" d="M1282.71 1213.94 L1282.71 1254.52 L1331.88 1254.52 L1331.88 1213.94 L1282.71 1213.94 L1282.71 1213.94  Z" fill="#009af9" fill-rule="evenodd" fill-opacity="1"/>
<polyline clip-path="url(#clip272)" style="stroke:#000000; stroke-linecap:round; stroke-linejoin:round; stroke-width:4; stroke-opacity:1; fill:none" points="1282.71,1213.94 1282.71,1254.52 1331.88,1254.52 1331.88,1213.94 1282.71,1213.94 "/>
<path clip-path="url(#clip272)" d="M1331.88 1219.01 L1331.88 1254.52 L1381.05 1254.52 L1381.05 1219.01 L1331.88 1219.01 L1331.88 1219.01  Z" fill="#009af9" fill-rule="evenodd" fill-opacity="1"/>
<polyline clip-path="url(#clip272)" style="stroke:#000000; stroke-linecap:round; stroke-linejoin:round; stroke-width:4; stroke-opacity:1; fill:none" points="1331.88,1219.01 1331.88,1254.52 1381.05,1254.52 1381.05,1219.01 1331.88,1219.01 "/>
<path clip-path="url(#clip272)" d="M1381.05 1244.37 L1381.05 1254.52 L1430.22 1254.52 L1430.22 1244.37 L1381.05 1244.37 L1381.05 1244.37  Z" fill="#009af9" fill-rule="evenodd" fill-opacity="1"/>
<polyline clip-path="url(#clip272)" style="stroke:#000000; stroke-linecap:round; stroke-linejoin:round; stroke-width:4; stroke-opacity:1; fill:none" points="1381.05,1244.37 1381.05,1254.52 1430.22,1254.52 1430.22,1244.37 1381.05,1244.37 "/>
<path clip-path="url(#clip272)" d="M1430.22 1234.23 L1430.22 1254.52 L1479.39 1254.52 L1479.39 1234.23 L1430.22 1234.23 L1430.22 1234.23  Z" fill="#009af9" fill-rule="evenodd" fill-opacity="1"/>
<polyline clip-path="url(#clip272)" style="stroke:#000000; stroke-linecap:round; stroke-linejoin:round; stroke-width:4; stroke-opacity:1; fill:none" points="1430.22,1234.23 1430.22,1254.52 1479.39,1254.52 1479.39,1234.23 1430.22,1234.23 "/>
<path clip-path="url(#clip272)" d="M1479.39 1249.45 L1479.39 1254.52 L1528.56 1254.52 L1528.56 1249.45 L1479.39 1249.45 L1479.39 1249.45  Z" fill="#009af9" fill-rule="evenodd" fill-opacity="1"/>
<polyline clip-path="url(#clip272)" style="stroke:#000000; stroke-linecap:round; stroke-linejoin:round; stroke-width:4; stroke-opacity:1; fill:none" points="1479.39,1249.45 1479.39,1254.52 1528.56,1254.52 1528.56,1249.45 1479.39,1249.45 "/>
<path clip-path="url(#clip272)" d="M1528.56 1244.37 L1528.56 1254.52 L1577.73 1254.52 L1577.73 1244.37 L1528.56 1244.37 L1528.56 1244.37  Z" fill="#009af9" fill-rule="evenodd" fill-opacity="1"/>
<polyline clip-path="url(#clip272)" style="stroke:#000000; stroke-linecap:round; stroke-linejoin:round; stroke-width:4; stroke-opacity:1; fill:none" points="1528.56,1244.37 1528.56,1254.52 1577.73,1254.52 1577.73,1244.37 1528.56,1244.37 "/>
<path clip-path="url(#clip272)" d="M1577.73 1254.52 L1577.73 1254.52 L1626.9 1254.52 L1626.9 1254.52 L1577.73 1254.52 L1577.73 1254.52  Z" fill="#009af9" fill-rule="evenodd" fill-opacity="1"/>
<polyline clip-path="url(#clip272)" style="stroke:#000000; stroke-linecap:round; stroke-linejoin:round; stroke-width:4; stroke-opacity:1; fill:none" points="1577.73,1254.52 1577.73,1254.52 1626.9,1254.52 1577.73,1254.52 "/>
<path clip-path="url(#clip272)" d="M1626.9 1249.45 L1626.9 1254.52 L1676.08 1254.52 L1676.08 1249.45 L1626.9 1249.45 L1626.9 1249.45  Z" fill="#009af9" fill-rule="evenodd" fill-opacity="1"/>
<polyline clip-path="url(#clip272)" style="stroke:#000000; stroke-linecap:round; stroke-linejoin:round; stroke-width:4; stroke-opacity:1; fill:none" points="1626.9,1249.45 1626.9,1254.52 1676.08,1254.52 1676.08,1249.45 1626.9,1249.45 "/>
<circle clip-path="url(#clip272)" style="fill:#009af9; stroke:none; fill-opacity:0" cx="274.724" cy="1249.45" r="2"/>
<circle clip-path="url(#clip272)" style="fill:#009af9; stroke:none; fill-opacity:0" cx="323.894" cy="1229.16" r="2"/>
<circle clip-path="url(#clip272)" style="fill:#009af9; stroke:none; fill-opacity:0" cx="373.064" cy="1173.36" r="2"/>
<circle clip-path="url(#clip272)" style="fill:#009af9; stroke:none; fill-opacity:0" cx="422.234" cy="1066.83" r="2"/>
<circle clip-path="url(#clip272)" style="fill:#009af9; stroke:none; fill-opacity:0" cx="471.405" cy="919.729" r="2"/>
<circle clip-path="url(#clip272)" style="fill:#009af9; stroke:none; fill-opacity:0" cx="520.575" cy="737.116" r="2"/>
<circle clip-path="url(#clip272)" style="fill:#009af9; stroke:none; fill-opacity:0" cx="569.745" cy="463.196" r="2"/>
<circle clip-path="url(#clip272)" style="fill:#009af9; stroke:none; fill-opacity:0" cx="618.915" cy="199.422" r="2"/>
<circle clip-path="url(#clip272)" style="fill:#009af9; stroke:none; fill-opacity:0" cx="668.086" cy="62.4619" r="2"/>
<circle clip-path="url(#clip272)" style="fill:#009af9; stroke:none; fill-opacity:0" cx="766.426" cy="158.841" r="2"/>
<circle clip-path="url(#clip272)" style="fill:#009af9; stroke:none; fill-opacity:0" cx="815.596" cy="331.309" r="2"/>
<circle clip-path="url(#clip272)" style="fill:#009af9; stroke:none; fill-opacity:0" cx="864.766" cy="498.704" r="2"/>
<circle clip-path="url(#clip272)" style="fill:#009af9; stroke:none; fill-opacity:0" cx="913.937" cy="645.809" r="2"/>
<circle clip-path="url(#clip272)" style="fill:#009af9; stroke:none; fill-opacity:0" cx="963.107" cy="884.221" r="2"/>
<circle clip-path="url(#clip272)" style="fill:#009af9; stroke:none; fill-opacity:0" cx="1012.28" cy="950.165" r="2"/>
<circle clip-path="url(#clip272)" style="fill:#009af9; stroke:none; fill-opacity:0" cx="1061.45" cy="1087.12" r="2"/>
<circle clip-path="url(#clip272)" style="fill:#009af9; stroke:none; fill-opacity:0" cx="1110.62" cy="1092.2" r="2"/>
<circle clip-path="url(#clip272)" style="fill:#009af9; stroke:none; fill-opacity:0" cx="1159.79" cy="1153.07" r="2"/>
<circle clip-path="url(#clip272)" style="fill:#009af9; stroke:none; fill-opacity:0" cx="1208.96" cy="1183.5" r="2"/>
<circle clip-path="url(#clip272)" style="fill:#009af9; stroke:none; fill-opacity:0" cx="1258.13" cy="1193.65" r="2"/>
<circle clip-path="url(#clip272)" style="fill:#009af9; stroke:none; fill-opacity:0" cx="1307.3" cy="1213.94" r="2"/>
<circle clip-path="url(#clip272)" style="fill:#009af9; stroke:none; fill-opacity:0" cx="1356.47" cy="1219.01" r="2"/>
<circle clip-path="url(#clip272)" style="fill:#009af9; stroke:none; fill-opacity:0" cx="1405.64" cy="1244.37" r="2"/>
<circle clip-path="url(#clip272)" style="fill:#009af9; stroke:none; fill-opacity:0" cx="1454.81" cy="1234.23" r="2"/>
<circle clip-path="url(#clip272)" style="fill:#009af9; stroke:none; fill-opacity:0" cx="1503.98" cy="1249.45" r="2"/>
<circle clip-path="url(#clip272)" style="fill:#009af9; stroke:none; fill-opacity:0" cx="1553.15" cy="1244.37" r="2"/>
<circle clip-path="url(#clip272)" style="fill:#009af9; stroke:none; fill-opacity:0" cx="1602.32" cy="1254.52" r="2"/>
<circle clip-path="url(#clip272)" style="fill:#009af9; stroke:none; fill-opacity:0" cx="1651.49" cy="1249.45" r="2"/>
<polyline clip-path="url(#clip272)" style="stroke:#e26f46; stroke-linecap:round; stroke-linejoin:round; stroke-width:8; stroke-opacity:1; fill:none" points="120.373,1254.52 128.835,1254.52 137.298,1254.51 145.761,1254.5 154.224,1254.48 162.686,1254.45 171.149,1254.38 179.612,1254.27 188.075,1254.09 196.537,1253.84 205,1253.5 213.463,1253.08 221.926,1252.6 230.388,1252.1 238.851,1251.59 247.314,1251.1 255.777,1250.58 264.24,1249.93 272.702,1248.99 281.165,1247.57 289.628,1245.43 298.091,1242.39 306.553,1238.27 315.016,1232.99 323.479,1226.53 331.942,1218.91 340.404,1210.19 348.867,1200.43 357.33,1189.68 365.793,1177.92 374.255,1165.08 382.718,1150.95 391.181,1135.26 399.644,1117.68 408.106,1097.91 416.569,1075.74 425.032,1051.16 433.495,1024.33 441.958,995.626 450.42,965.562 458.883,934.769 467.346,903.916 475.809,873.624 484.271,844.355 492.734,816.263 501.197,789.069 509.66,762.006 518.122,733.874 526.585,703.255 535.048,668.822 543.511,629.689 551.973,585.666 560.436,537.364 568.899,486.09 577.362,433.588 585.824,381.71 594.287,332.117 602.75,286.092 611.213,244.479 619.676,207.715 628.138,175.913 636.601,148.942 645.064,126.517 653.527,108.278 661.989,93.8859 670.452,83.1108 678.915,75.8858 687.378,72.291 695.84,72.4629 704.303,76.4616 712.766,84.1544 721.229,95.1771 729.691,108.994 738.154,125.024 746.617,142.76 755.08,161.816 763.542,181.883 772.005,202.65 780.468,223.761 788.931,244.879 797.394,265.836 805.856,286.784 814.319,308.246 822.782,330.996 831.245,355.805 839.707,383.147 848.17,413.008 856.633,444.871 865.096,477.889 873.558,511.173 882.021,544.078 890.484,576.366 898.947,608.214 907.409,640.052 915.872,672.321 924.335,705.228 932.798,738.583 941.26,771.793 949.723,803.989 958.186,834.262 966.649,861.921 975.112,886.672 983.574,908.682 992.037,928.479 1000.5,946.762 1008.96,964.174 1017.43,981.126 1025.89,997.716 1034.35,1013.76 1042.81,1028.9 1051.28,1042.77 1059.74,1055.12 1068.2,1065.91 1076.66,1075.38 1085.13,1083.91 1093.59,1091.99 1102.05,1100 1110.52,1108.11 1118.98,1116.29 1127.44,1124.29 1135.9,1131.84 1144.37,1138.7 1152.83,1144.81 1161.29,1150.23 1169.76,1155.12 1178.22,1159.63 1186.68,1163.89 1195.14,1167.91 1203.61,1171.71 1212.07,1175.31 1220.53,1178.77 1228.99,1182.21 1237.46,1185.73 1245.92,1189.38 1254.38,1193.16 1262.85,1196.95 1271.31,1200.58 1279.77,1203.91 1288.23,1206.82 1296.7,1209.3 1305.16,1211.41 1313.62,1213.3 1322.08,1215.13 1330.55,1217.05 1339.01,1219.15 1347.47,1221.45 1355.94,1223.91 1364.4,1226.49 1372.86,1229.1 1381.32,1231.67 1389.79,1234.13 1398.25,1236.4 1406.71,1238.39 1415.18,1240 1423.64,1241.18 1432.1,1241.91 1440.56,1242.23 1449.03,1242.25 1457.49,1242.08 1465.95,1241.87 1474.41,1241.7 1482.88,1241.62 1491.34,1241.64 1499.8,1241.76 1508.27,1242 1516.73,1242.39 1525.19,1242.99 1533.65,1243.85 1542.12,1244.99 1550.58,1246.35 1559.04,1247.83 1567.5,1249.32 1575.97,1250.66 1584.43,1251.77 1592.89,1252.59 1601.36,1253.1 1609.82,1253.32 1618.28,1253.3 1626.74,1253.08 1635.21,1252.73 1643.67,1252.33 1652.13,1251.96 1660.6,1251.68 1669.06,1251.56 1677.52,1251.62 1685.98,1251.86 1694.45,1252.22 1702.91,1252.66 1711.37,1253.1 1719.83,1253.51 1728.3,1253.84 1736.76,1254.09 1745.22,1254.27 1753.69,1254.38 1762.15,1254.45 1770.61,1254.48 1779.07,1254.5 1787.54,1254.51 1796,1254.52 1804.46,1254.52 "/>
</svg>
