<?xml version="1.0" encoding="utf-8"?>
<svg xmlns="http://www.w3.org/2000/svg" xmlns:xlink="http://www.w3.org/1999/xlink" width="480" height="360" viewBox="0 0 1920 1440">
<defs>
  <clipPath id="clip530">
    <rect x="0" y="0" width="1920" height="1440"/>
  </clipPath>
</defs>
<path clip-path="url(#clip530)" d="M0 1440 L1920 1440 L1920 0 L0 0  Z" fill="#ffffff" fill-rule="evenodd" fill-opacity="1"/>
<defs>
  <clipPath id="clip531">
    <rect x="384" y="0" width="1345" height="1345"/>
  </clipPath>
</defs>
<path clip-path="url(#clip530)" d="M221.006 1254.52 L1872.76 1254.52 L1872.76 47.2441 L221.006 47.2441  Z" fill="#ffffff" fill-rule="evenodd" fill-opacity="1"/>
<defs>
  <clipPath id="clip532">
    <rect x="221" y="47" width="1653" height="1208"/>
  </clipPath>
</defs>
<polyline clip-path="url(#clip532)" style="stroke:#000000; stroke-linecap:round; stroke-linejoin:round; stroke-width:2; stroke-opacity:0.1; fill:none" points="221.006,1254.52 221.006,47.2441 "/>
<polyline clip-path="url(#clip532)" style="stroke:#000000; stroke-linecap:round; stroke-linejoin:round; stroke-width:2; stroke-opacity:0.1; fill:none" points="609.653,1254.52 609.653,47.2441 "/>
<polyline clip-path="url(#clip532)" style="stroke:#000000; stroke-linecap:round; stroke-linejoin:round; stroke-width:2; stroke-opacity:0.1; fill:none" points="998.3,1254.52 998.3,47.2441 "/>
<polyline clip-path="url(#clip532)" style="stroke:#000000; stroke-linecap:round; stroke-linejoin:round; stroke-width:2; stroke-opacity:0.1; fill:none" points="1386.95,1254.52 1386.95,47.2441 "/>
<polyline clip-path="url(#clip532)" style="stroke:#000000; stroke-linecap:round; stroke-linejoin:round; stroke-width:2; stroke-opacity:0.1; fill:none" points="1775.59,1254.52 1775.59,47.2441 "/>
<polyline clip-path="url(#clip532)" style="stroke:#000000; stroke-linecap:round; stroke-linejoin:round; stroke-width:2; stroke-opacity:0.1; fill:none" points="221.006,1254.52 1872.76,1254.52 "/>
<polyline clip-path="url(#clip532)" style="stroke:#000000; stroke-linecap:round; stroke-linejoin:round; stroke-width:2; stroke-opacity:0.1; fill:none" points="221.006,1013.06 1872.76,1013.06 "/>
<polyline clip-path="url(#clip532)" style="stroke:#000000; stroke-linecap:round; stroke-linejoin:round; stroke-width:2; stroke-opacity:0.1; fill:none" points="221.006,771.61 1872.76,771.61 "/>
<polyline clip-path="url(#clip532)" style="stroke:#000000; stroke-linecap:round; stroke-linejoin:round; stroke-width:2; stroke-opacity:0.1; fill:none" points="221.006,530.154 1872.76,530.154 "/>
<polyline clip-path="url(#clip532)" style="stroke:#000000; stroke-linecap:round; stroke-linejoin:round; stroke-width:2; stroke-opacity:0.1; fill:none" points="221.006,288.699 1872.76,288.699 "/>
<polyline clip-path="url(#clip532)" style="stroke:#000000; stroke-linecap:round; stroke-linejoin:round; stroke-width:2; stroke-opacity:0.1; fill:none" points="221.006,47.2441 1872.76,47.2441 "/>
<polyline clip-path="url(#clip530)" style="stroke:#000000; stroke-linecap:round; stroke-linejoin:round; stroke-width:4; stroke-opacity:1; fill:none" points="221.006,1254.52 1872.76,1254.52 "/>
<polyline clip-path="url(#clip530)" style="stroke:#000000; stroke-linecap:round; stroke-linejoin:round; stroke-width:4; stroke-opacity:1; fill:none" points="221.006,1254.52 221.006,1235.62 "/>
<polyline clip-path="url(#clip530)" style="stroke:#000000; stroke-linecap:round; stroke-linejoin:round; stroke-width:4; stroke-opacity:1; fill:none" points="609.653,1254.52 609.653,1235.62 "/>
<polyline clip-path="url(#clip530)" style="stroke:#000000; stroke-linecap:round; stroke-linejoin:round; stroke-width:4; stroke-opacity:1; fill:none" points="998.3,1254.52 998.3,1235.62 "/>
<polyline clip-path="url(#clip530)" style="stroke:#000000; stroke-linecap:round; stroke-linejoin:round; stroke-width:4; stroke-opacity:1; fill:none" points="1386.95,1254.52 1386.95,1235.62 "/>
<polyline clip-path="url(#clip530)" style="stroke:#000000; stroke-linecap:round; stroke-linejoin:round; stroke-width:4; stroke-opacity:1; fill:none" points="1775.59,1254.52 1775.59,1235.62 "/>
<path clip-path="url(#clip530)" d="M221.006 1281.6 Q217.395 1281.6 215.566 1285.16 Q213.761 1288.7 213.761 1295.83 Q213.761 1302.94 215.566 1306.51 Q217.395 1310.05 221.006 1310.05 Q224.641 1310.05 226.446 1306.51 Q228.275 1302.94 228.275 1295.83 Q228.275 1288.7 226.446 1285.16 Q224.641 1281.6 221.006 1281.6 M221.006 1277.89 Q226.816 1277.89 229.872 1282.5 Q232.951 1287.08 232.951 1295.83 Q232.951 1304.56 229.872 1309.17 Q226.816 1313.75 221.006 1313.75 Q215.196 1313.75 212.117 1309.17 Q209.062 1304.56 209.062 1295.83 Q209.062 1287.08 212.117 1282.5 Q215.196 1277.89 221.006 1277.89 Z" fill="#000000" fill-rule="nonzero" fill-opacity="1" /><path clip-path="url(#clip530)" d="M604.306 1309.14 L620.625 1309.14 L620.625 1313.08 L598.681 1313.08 L598.681 1309.14 Q601.343 1306.39 605.926 1301.76 Q610.533 1297.11 611.713 1295.77 Q613.959 1293.24 614.838 1291.51 Q615.741 1289.75 615.741 1288.06 Q615.741 1285.3 613.797 1283.57 Q611.875 1281.83 608.774 1281.83 Q606.575 1281.83 604.121 1282.59 Q601.69 1283.36 598.913 1284.91 L598.913 1280.19 Q601.737 1279.05 604.19 1278.47 Q606.644 1277.89 608.681 1277.89 Q614.051 1277.89 617.246 1280.58 Q620.44 1283.27 620.44 1287.76 Q620.44 1289.89 619.63 1291.81 Q618.843 1293.7 616.737 1296.3 Q616.158 1296.97 613.056 1300.19 Q609.954 1303.38 604.306 1309.14 Z" fill="#000000" fill-rule="nonzero" fill-opacity="1" /><path clip-path="url(#clip530)" d="M1001.31 1282.59 L989.504 1301.04 L1001.31 1301.04 L1001.31 1282.59 M1000.08 1278.52 L1005.96 1278.52 L1005.96 1301.04 L1010.89 1301.04 L1010.89 1304.93 L1005.96 1304.93 L1005.96 1313.08 L1001.31 1313.08 L1001.31 1304.93 L985.708 1304.93 L985.708 1300.42 L1000.08 1278.52 Z" fill="#000000" fill-rule="nonzero" fill-opacity="1" /><path clip-path="url(#clip530)" d="M1387.35 1293.94 Q1384.2 1293.94 1382.35 1296.09 Q1380.52 1298.24 1380.52 1301.99 Q1380.52 1305.72 1382.35 1307.89 Q1384.2 1310.05 1387.35 1310.05 Q1390.5 1310.05 1392.33 1307.89 Q1394.18 1305.72 1394.18 1301.99 Q1394.18 1298.24 1392.33 1296.09 Q1390.5 1293.94 1387.35 1293.94 M1396.63 1279.28 L1396.63 1283.54 Q1394.88 1282.71 1393.07 1282.27 Q1391.29 1281.83 1389.53 1281.83 Q1384.9 1281.83 1382.44 1284.95 Q1380.01 1288.08 1379.67 1294.4 Q1381.03 1292.39 1383.09 1291.32 Q1385.15 1290.23 1387.63 1290.23 Q1392.84 1290.23 1395.85 1293.4 Q1398.88 1296.55 1398.88 1301.99 Q1398.88 1307.32 1395.73 1310.53 Q1392.58 1313.75 1387.35 1313.75 Q1381.36 1313.75 1378.19 1309.17 Q1375.01 1304.56 1375.01 1295.83 Q1375.01 1287.64 1378.9 1282.78 Q1382.79 1277.89 1389.34 1277.89 Q1391.1 1277.89 1392.88 1278.24 Q1394.69 1278.59 1396.63 1279.28 Z" fill="#000000" fill-rule="nonzero" fill-opacity="1" /><path clip-path="url(#clip530)" d="M1775.59 1296.67 Q1772.26 1296.67 1770.34 1298.45 Q1768.44 1300.23 1768.44 1303.36 Q1768.44 1306.48 1770.34 1308.27 Q1772.26 1310.05 1775.59 1310.05 Q1778.93 1310.05 1780.85 1308.27 Q1782.77 1306.46 1782.77 1303.36 Q1782.77 1300.23 1780.85 1298.45 Q1778.95 1296.67 1775.59 1296.67 M1770.92 1294.68 Q1767.91 1293.94 1766.22 1291.88 Q1764.55 1289.82 1764.55 1286.85 Q1764.55 1282.71 1767.49 1280.3 Q1770.46 1277.89 1775.59 1277.89 Q1780.76 1277.89 1783.7 1280.3 Q1786.64 1282.71 1786.64 1286.85 Q1786.64 1289.82 1784.95 1291.88 Q1783.28 1293.94 1780.29 1294.68 Q1783.67 1295.46 1785.55 1297.76 Q1787.45 1300.05 1787.45 1303.36 Q1787.45 1308.38 1784.37 1311.07 Q1781.31 1313.75 1775.59 1313.75 Q1769.88 1313.75 1766.8 1311.07 Q1763.74 1308.38 1763.74 1303.36 Q1763.74 1300.05 1765.64 1297.76 Q1767.54 1295.46 1770.92 1294.68 M1769.21 1287.29 Q1769.21 1289.98 1770.87 1291.48 Q1772.56 1292.99 1775.59 1292.99 Q1778.6 1292.99 1780.29 1291.48 Q1782.01 1289.98 1782.01 1287.29 Q1782.01 1284.61 1780.29 1283.1 Q1778.6 1281.6 1775.59 1281.6 Q1772.56 1281.6 1770.87 1283.1 Q1769.21 1284.61 1769.21 1287.29 Z" fill="#000000" fill-rule="nonzero" fill-opacity="1" /><path clip-path="url(#clip530)" d="M932.67 1356.05 Q932.67 1356.95 932.251 1357.18 Q931.832 1357.37 930.673 1357.37 L924.489 1357.37 L919.594 1376.82 Q919.208 1378.53 919.208 1379.98 Q919.208 1381.59 919.691 1382.3 Q920.206 1383.01 921.269 1383.01 Q923.362 1383.01 925.616 1381.11 Q927.903 1379.21 929.835 1374.57 Q930.093 1373.96 930.222 1373.83 Q930.383 1373.67 930.802 1373.67 Q931.607 1373.67 931.607 1374.31 Q931.607 1374.54 931.156 1375.57 Q930.737 1376.6 929.803 1378.11 Q928.901 1379.62 927.71 1381.04 Q926.55 1382.46 924.779 1383.49 Q923.008 1384.49 921.108 1384.49 Q918.435 1384.49 916.728 1382.78 Q915.053 1381.07 915.053 1378.4 Q915.053 1377.53 915.729 1374.76 Q916.406 1371.96 920.077 1357.37 L914.248 1357.37 Q913.443 1357.37 913.121 1357.34 Q912.831 1357.31 912.605 1357.14 Q912.412 1356.95 912.412 1356.57 Q912.412 1355.95 912.67 1355.7 Q912.927 1355.41 913.249 1355.37 Q913.604 1355.31 914.409 1355.31 L920.592 1355.31 L923.169 1344.84 Q923.426 1343.81 924.071 1343.23 Q924.747 1342.62 925.133 1342.56 Q925.52 1342.46 925.81 1342.46 Q926.679 1342.46 927.195 1342.94 Q927.71 1343.39 927.71 1344.23 Q927.71 1344.68 925.005 1355.31 L930.802 1355.31 Q931.542 1355.31 931.832 1355.34 Q932.154 1355.37 932.412 1355.53 Q932.67 1355.7 932.67 1356.05 Z" fill="#000000" fill-rule="nonzero" fill-opacity="1" /><path clip-path="url(#clip530)" d="M976.915 1334.29 Q972.65 1341.61 970.582 1348.77 Q968.513 1355.93 968.513 1363.28 Q968.513 1370.63 970.582 1377.86 Q972.682 1385.05 976.915 1392.34 L971.823 1392.34 Q967.049 1384.86 964.661 1377.64 Q962.306 1370.41 962.306 1363.28 Q962.306 1356.18 964.661 1348.99 Q967.017 1341.8 971.823 1334.29 L976.915 1334.29 Z" fill="#000000" fill-rule="nonzero" fill-opacity="1" /><path clip-path="url(#clip530)" d="M1003.11 1387.06 Q1000.63 1393.42 998.272 1395.36 Q995.917 1397.31 991.97 1397.31 L987.292 1397.31 L987.292 1392.4 L990.729 1392.4 Q993.148 1392.4 994.485 1391.26 Q995.822 1390.11 997.445 1385.85 L998.495 1383.17 L984.077 1348.1 L990.283 1348.1 L1001.42 1375.98 L1012.56 1348.1 L1018.77 1348.1 L1003.11 1387.06 Z" fill="#000000" fill-rule="nonzero" fill-opacity="1" /><path clip-path="url(#clip530)" d="M1057.35 1364.46 L1057.35 1367.32 L1030.42 1367.32 Q1030.8 1373.37 1034.05 1376.55 Q1037.33 1379.7 1043.15 1379.7 Q1046.52 1379.7 1049.68 1378.88 Q1052.86 1378.05 1055.98 1376.39 L1055.98 1381.93 Q1052.83 1383.27 1049.52 1383.97 Q1046.21 1384.67 1042.8 1384.67 Q1034.27 1384.67 1029.27 1379.7 Q1024.31 1374.74 1024.31 1366.27 Q1024.31 1357.52 1029.02 1352.4 Q1033.76 1347.24 1041.78 1347.24 Q1048.98 1347.24 1053.14 1351.89 Q1057.35 1356.5 1057.35 1364.46 M1051.49 1362.74 Q1051.43 1357.93 1048.78 1355.07 Q1046.17 1352.2 1041.85 1352.2 Q1036.94 1352.2 1033.98 1354.97 Q1031.06 1357.74 1030.61 1362.77 L1051.49 1362.74 Z" fill="#000000" fill-rule="nonzero" fill-opacity="1" /><path clip-path="url(#clip530)" d="M1083.16 1365.83 Q1076.06 1365.83 1073.32 1367.45 Q1070.59 1369.07 1070.59 1372.99 Q1070.59 1376.11 1072.62 1377.95 Q1074.69 1379.77 1078.23 1379.77 Q1083.1 1379.77 1086.02 1376.33 Q1088.98 1372.86 1088.98 1367.13 L1088.98 1365.83 L1083.16 1365.83 M1094.84 1363.41 L1094.84 1383.75 L1088.98 1383.75 L1088.98 1378.34 Q1086.98 1381.58 1083.99 1383.14 Q1080.99 1384.67 1076.67 1384.67 Q1071.19 1384.67 1067.95 1381.61 Q1064.73 1378.53 1064.73 1373.37 Q1064.73 1367.36 1068.74 1364.3 Q1072.78 1361.24 1080.77 1361.24 L1088.98 1361.24 L1088.98 1360.67 Q1088.98 1356.63 1086.31 1354.43 Q1083.67 1352.2 1078.86 1352.2 Q1075.81 1352.2 1072.91 1352.94 Q1070.01 1353.67 1067.34 1355.13 L1067.34 1349.72 Q1070.55 1348.48 1073.58 1347.88 Q1076.6 1347.24 1079.47 1347.24 Q1087.2 1347.24 1091.02 1351.25 Q1094.84 1355.26 1094.84 1363.41 Z" fill="#000000" fill-rule="nonzero" fill-opacity="1" /><path clip-path="url(#clip530)" d="M1127.56 1353.57 Q1126.57 1353 1125.4 1352.75 Q1124.25 1352.46 1122.85 1352.46 Q1117.88 1352.46 1115.21 1355.71 Q1112.57 1358.92 1112.57 1364.97 L1112.57 1383.75 L1106.68 1383.75 L1106.68 1348.1 L1112.57 1348.1 L1112.57 1353.64 Q1114.41 1350.39 1117.37 1348.83 Q1120.33 1347.24 1124.57 1347.24 Q1125.17 1347.24 1125.9 1347.34 Q1126.64 1347.4 1127.53 1347.56 L1127.56 1353.57 Z" fill="#000000" fill-rule="nonzero" fill-opacity="1" /><path clip-path="url(#clip530)" d="M1156.43 1349.15 L1156.43 1354.69 Q1153.95 1353.41 1151.27 1352.78 Q1148.6 1352.14 1145.73 1352.14 Q1141.37 1352.14 1139.18 1353.48 Q1137.01 1354.81 1137.01 1357.49 Q1137.01 1359.53 1138.57 1360.7 Q1140.13 1361.85 1144.84 1362.9 L1146.85 1363.34 Q1153.09 1364.68 1155.7 1367.13 Q1158.34 1369.55 1158.34 1373.91 Q1158.34 1378.88 1154.39 1381.77 Q1150.48 1384.67 1143.6 1384.67 Q1140.74 1384.67 1137.62 1384.1 Q1134.53 1383.56 1131.09 1382.44 L1131.09 1376.39 Q1134.34 1378.08 1137.49 1378.94 Q1140.64 1379.77 1143.73 1379.77 Q1147.87 1379.77 1150.09 1378.37 Q1152.32 1376.94 1152.32 1374.36 Q1152.32 1371.97 1150.7 1370.7 Q1149.11 1369.42 1143.67 1368.25 L1141.63 1367.77 Q1136.19 1366.62 1133.77 1364.27 Q1131.35 1361.88 1131.35 1357.74 Q1131.35 1352.71 1134.91 1349.98 Q1138.48 1347.24 1145.03 1347.24 Q1148.28 1347.24 1151.14 1347.72 Q1154.01 1348.19 1156.43 1349.15 Z" fill="#000000" fill-rule="nonzero" fill-opacity="1" /><path clip-path="url(#clip530)" d="M1166.74 1334.29 L1171.83 1334.29 Q1176.61 1341.8 1178.96 1348.99 Q1181.35 1356.18 1181.35 1363.28 Q1181.35 1370.41 1178.96 1377.64 Q1176.61 1384.86 1171.83 1392.34 L1166.74 1392.34 Q1170.97 1385.05 1173.04 1377.86 Q1175.14 1370.63 1175.14 1363.28 Q1175.14 1355.93 1173.04 1348.77 Q1170.97 1341.61 1166.74 1334.29 Z" fill="#000000" fill-rule="nonzero" fill-opacity="1" /><polyline clip-path="url(#clip530)" style="stroke:#000000; stroke-linecap:round; stroke-linejoin:round; stroke-width:4; stroke-opacity:1; fill:none" points="221.006,1254.52 221.006,47.2441 "/>
<polyline clip-path="url(#clip530)" style="stroke:#000000; stroke-linecap:round; stroke-linejoin:round; stroke-width:4; stroke-opacity:1; fill:none" points="221.006,1254.52 239.904,1254.52 "/>
<polyline clip-path="url(#clip530)" style="stroke:#000000; stroke-linecap:round; stroke-linejoin:round; stroke-width:4; stroke-opacity:1; fill:none" points="221.006,1013.06 239.904,1013.06 "/>
<polyline clip-path="url(#clip530)" style="stroke:#000000; stroke-linecap:round; stroke-linejoin:round; stroke-width:4; stroke-opacity:1; fill:none" points="221.006,771.61 239.904,771.61 "/>
<polyline clip-path="url(#clip530)" style="stroke:#000000; stroke-linecap:round; stroke-linejoin:round; stroke-width:4; stroke-opacity:1; fill:none" points="221.006,530.154 239.904,530.154 "/>
<polyline clip-path="url(#clip530)" style="stroke:#000000; stroke-linecap:round; stroke-linejoin:round; stroke-width:4; stroke-opacity:1; fill:none" points="221.006,288.699 239.904,288.699 "/>
<polyline clip-path="url(#clip530)" style="stroke:#000000; stroke-linecap:round; stroke-linejoin:round; stroke-width:4; stroke-opacity:1; fill:none" points="221.006,47.2441 239.904,47.2441 "/>
<path clip-path="url(#clip530)" d="M135.031 1240.32 Q131.42 1240.32 129.591 1243.88 Q127.785 1247.42 127.785 1254.55 Q127.785 1261.66 129.591 1265.23 Q131.42 1268.77 135.031 1268.77 Q138.665 1268.77 140.47 1265.23 Q142.299 1261.66 142.299 1254.55 Q142.299 1247.42 140.47 1243.88 Q138.665 1240.32 135.031 1240.32 M135.031 1236.61 Q140.841 1236.61 143.896 1241.22 Q146.975 1245.8 146.975 1254.55 Q146.975 1263.28 143.896 1267.89 Q140.841 1272.47 135.031 1272.47 Q129.22 1272.47 126.142 1267.89 Q123.086 1263.28 123.086 1254.55 Q123.086 1245.8 126.142 1241.22 Q129.22 1236.61 135.031 1236.61 Z" fill="#000000" fill-rule="nonzero" fill-opacity="1" /><path clip-path="url(#clip530)" d="M155.193 1265.92 L160.077 1265.92 L160.077 1271.8 L155.193 1271.8 L155.193 1265.92 Z" fill="#000000" fill-rule="nonzero" fill-opacity="1" /><path clip-path="url(#clip530)" d="M180.262 1240.32 Q176.651 1240.32 174.822 1243.88 Q173.017 1247.42 173.017 1254.55 Q173.017 1261.66 174.822 1265.23 Q176.651 1268.77 180.262 1268.77 Q183.896 1268.77 185.702 1265.23 Q187.53 1261.66 187.53 1254.55 Q187.53 1247.42 185.702 1243.88 Q183.896 1240.32 180.262 1240.32 M180.262 1236.61 Q186.072 1236.61 189.128 1241.22 Q192.206 1245.8 192.206 1254.55 Q192.206 1263.28 189.128 1267.89 Q186.072 1272.47 180.262 1272.47 Q174.452 1272.47 171.373 1267.89 Q168.318 1263.28 168.318 1254.55 Q168.318 1245.8 171.373 1241.22 Q174.452 1236.61 180.262 1236.61 Z" fill="#000000" fill-rule="nonzero" fill-opacity="1" /><path clip-path="url(#clip530)" d="M136.628 998.863 Q133.017 998.863 131.188 1002.43 Q129.383 1005.97 129.383 1013.1 Q129.383 1020.21 131.188 1023.77 Q133.017 1027.31 136.628 1027.31 Q140.262 1027.31 142.068 1023.77 Q143.896 1020.21 143.896 1013.1 Q143.896 1005.97 142.068 1002.43 Q140.262 998.863 136.628 998.863 M136.628 995.16 Q142.438 995.16 145.494 999.766 Q148.572 1004.35 148.572 1013.1 Q148.572 1021.83 145.494 1026.43 Q142.438 1031.02 136.628 1031.02 Q130.818 1031.02 127.739 1026.43 Q124.683 1021.83 124.683 1013.1 Q124.683 1004.35 127.739 999.766 Q130.818 995.16 136.628 995.16 Z" fill="#000000" fill-rule="nonzero" fill-opacity="1" /><path clip-path="url(#clip530)" d="M156.79 1024.47 L161.674 1024.47 L161.674 1030.34 L156.79 1030.34 L156.79 1024.47 Z" fill="#000000" fill-rule="nonzero" fill-opacity="1" /><path clip-path="url(#clip530)" d="M175.887 1026.41 L192.206 1026.41 L192.206 1030.34 L170.262 1030.34 L170.262 1026.41 Q172.924 1023.65 177.507 1019.03 Q182.114 1014.37 183.294 1013.03 Q185.54 1010.51 186.419 1008.77 Q187.322 1007.01 187.322 1005.32 Q187.322 1002.57 185.378 1000.83 Q183.456 999.095 180.354 999.095 Q178.155 999.095 175.702 999.859 Q173.271 1000.62 170.493 1002.17 L170.493 997.451 Q173.317 996.317 175.771 995.738 Q178.225 995.16 180.262 995.16 Q185.632 995.16 188.827 997.845 Q192.021 1000.53 192.021 1005.02 Q192.021 1007.15 191.211 1009.07 Q190.424 1010.97 188.317 1013.56 Q187.739 1014.23 184.637 1017.45 Q181.535 1020.65 175.887 1026.41 Z" fill="#000000" fill-rule="nonzero" fill-opacity="1" /><path clip-path="url(#clip530)" d="M134.545 757.408 Q130.933 757.408 129.105 760.973 Q127.299 764.515 127.299 771.644 Q127.299 778.751 129.105 782.316 Q130.933 785.857 134.545 785.857 Q138.179 785.857 139.984 782.316 Q141.813 778.751 141.813 771.644 Q141.813 764.515 139.984 760.973 Q138.179 757.408 134.545 757.408 M134.545 753.705 Q140.355 753.705 143.41 758.311 Q146.489 762.894 146.489 771.644 Q146.489 780.371 143.41 784.978 Q140.355 789.561 134.545 789.561 Q128.734 789.561 125.656 784.978 Q122.6 780.371 122.6 771.644 Q122.6 762.894 125.656 758.311 Q128.734 753.705 134.545 753.705 Z" fill="#000000" fill-rule="nonzero" fill-opacity="1" /><path clip-path="url(#clip530)" d="M154.706 783.01 L159.591 783.01 L159.591 788.89 L154.706 788.89 L154.706 783.01 Z" fill="#000000" fill-rule="nonzero" fill-opacity="1" /><path clip-path="url(#clip530)" d="M182.623 758.404 L170.817 776.853 L182.623 776.853 L182.623 758.404 M181.396 754.33 L187.276 754.33 L187.276 776.853 L192.206 776.853 L192.206 780.741 L187.276 780.741 L187.276 788.89 L182.623 788.89 L182.623 780.741 L167.021 780.741 L167.021 776.228 L181.396 754.33 Z" fill="#000000" fill-rule="nonzero" fill-opacity="1" /><path clip-path="url(#clip530)" d="M134.869 515.953 Q131.258 515.953 129.429 519.518 Q127.623 523.06 127.623 530.189 Q127.623 537.296 129.429 540.86 Q131.258 544.402 134.869 544.402 Q138.503 544.402 140.308 540.86 Q142.137 537.296 142.137 530.189 Q142.137 523.06 140.308 519.518 Q138.503 515.953 134.869 515.953 M134.869 512.249 Q140.679 512.249 143.734 516.856 Q146.813 521.439 146.813 530.189 Q146.813 538.916 143.734 543.522 Q140.679 548.106 134.869 548.106 Q129.058 548.106 125.98 543.522 Q122.924 538.916 122.924 530.189 Q122.924 521.439 125.98 516.856 Q129.058 512.249 134.869 512.249 Z" fill="#000000" fill-rule="nonzero" fill-opacity="1" /><path clip-path="url(#clip530)" d="M155.031 541.555 L159.915 541.555 L159.915 547.434 L155.031 547.434 L155.031 541.555 Z" fill="#000000" fill-rule="nonzero" fill-opacity="1" /><path clip-path="url(#clip530)" d="M180.679 528.291 Q177.53 528.291 175.679 530.444 Q173.85 532.597 173.85 536.346 Q173.85 540.073 175.679 542.249 Q177.53 544.402 180.679 544.402 Q183.827 544.402 185.655 542.249 Q187.507 540.073 187.507 536.346 Q187.507 532.597 185.655 530.444 Q183.827 528.291 180.679 528.291 M189.961 513.638 L189.961 517.898 Q188.202 517.064 186.396 516.624 Q184.614 516.185 182.854 516.185 Q178.225 516.185 175.771 519.31 Q173.341 522.435 172.993 528.754 Q174.359 526.74 176.419 525.675 Q178.479 524.587 180.956 524.587 Q186.165 524.587 189.174 527.759 Q192.206 530.907 192.206 536.346 Q192.206 541.671 189.058 544.888 Q185.91 548.106 180.679 548.106 Q174.683 548.106 171.512 543.522 Q168.341 538.916 168.341 530.189 Q168.341 521.995 172.23 517.134 Q176.118 512.249 182.669 512.249 Q184.429 512.249 186.211 512.597 Q188.016 512.944 189.961 513.638 Z" fill="#000000" fill-rule="nonzero" fill-opacity="1" /><path clip-path="url(#clip530)" d="M135.123 274.498 Q131.512 274.498 129.683 278.063 Q127.878 281.604 127.878 288.734 Q127.878 295.84 129.683 299.405 Q131.512 302.947 135.123 302.947 Q138.757 302.947 140.563 299.405 Q142.392 295.84 142.392 288.734 Q142.392 281.604 140.563 278.063 Q138.757 274.498 135.123 274.498 M135.123 270.794 Q140.933 270.794 143.989 275.401 Q147.068 279.984 147.068 288.734 Q147.068 297.461 143.989 302.067 Q140.933 306.651 135.123 306.651 Q129.313 306.651 126.234 302.067 Q123.179 297.461 123.179 288.734 Q123.179 279.984 126.234 275.401 Q129.313 270.794 135.123 270.794 Z" fill="#000000" fill-rule="nonzero" fill-opacity="1" /><path clip-path="url(#clip530)" d="M155.285 300.1 L160.169 300.1 L160.169 305.979 L155.285 305.979 L155.285 300.1 Z" fill="#000000" fill-rule="nonzero" fill-opacity="1" /><path clip-path="url(#clip530)" d="M180.354 289.567 Q177.021 289.567 175.1 291.35 Q173.202 293.132 173.202 296.257 Q173.202 299.382 175.1 301.164 Q177.021 302.947 180.354 302.947 Q183.688 302.947 185.609 301.164 Q187.53 299.359 187.53 296.257 Q187.53 293.132 185.609 291.35 Q183.711 289.567 180.354 289.567 M175.679 287.577 Q172.669 286.836 170.98 284.776 Q169.313 282.715 169.313 279.753 Q169.313 275.609 172.253 273.202 Q175.216 270.794 180.354 270.794 Q185.516 270.794 188.456 273.202 Q191.396 275.609 191.396 279.753 Q191.396 282.715 189.706 284.776 Q188.04 286.836 185.054 287.577 Q188.433 288.364 190.308 290.655 Q192.206 292.947 192.206 296.257 Q192.206 301.28 189.128 303.965 Q186.072 306.651 180.354 306.651 Q174.637 306.651 171.558 303.965 Q168.503 301.28 168.503 296.257 Q168.503 292.947 170.401 290.655 Q172.299 288.364 175.679 287.577 M173.966 280.192 Q173.966 282.878 175.632 284.382 Q177.322 285.887 180.354 285.887 Q183.364 285.887 185.054 284.382 Q186.766 282.878 186.766 280.192 Q186.766 277.507 185.054 276.003 Q183.364 274.498 180.354 274.498 Q177.322 274.498 175.632 276.003 Q173.966 277.507 173.966 280.192 Z" fill="#000000" fill-rule="nonzero" fill-opacity="1" /><path clip-path="url(#clip530)" d="M125.841 60.5889 L133.48 60.5889 L133.48 34.2233 L125.17 35.89 L125.17 31.6308 L133.433 29.9641 L138.109 29.9641 L138.109 60.5889 L145.748 60.5889 L145.748 64.5241 L125.841 64.5241 L125.841 60.5889 Z" fill="#000000" fill-rule="nonzero" fill-opacity="1" /><path clip-path="url(#clip530)" d="M155.193 58.6445 L160.077 58.6445 L160.077 64.5241 L155.193 64.5241 L155.193 58.6445 Z" fill="#000000" fill-rule="nonzero" fill-opacity="1" /><path clip-path="url(#clip530)" d="M180.262 33.0428 Q176.651 33.0428 174.822 36.6076 Q173.017 40.1492 173.017 47.2788 Q173.017 54.3853 174.822 57.9501 Q176.651 61.4917 180.262 61.4917 Q183.896 61.4917 185.702 57.9501 Q187.53 54.3853 187.53 47.2788 Q187.53 40.1492 185.702 36.6076 Q183.896 33.0428 180.262 33.0428 M180.262 29.3391 Q186.072 29.3391 189.128 33.9456 Q192.206 38.5289 192.206 47.2788 Q192.206 56.0056 189.128 60.6121 Q186.072 65.1954 180.262 65.1954 Q174.452 65.1954 171.373 60.6121 Q168.318 56.0056 168.318 47.2788 Q168.318 38.5289 171.373 33.9456 Q174.452 29.3391 180.262 29.3391 Z" fill="#000000" fill-rule="nonzero" fill-opacity="1" /><path clip-path="url(#clip530)" d="M35.7905 670.595 L50.2187 674.17 Q51.0883 674.363 51.3137 674.524 Q51.5391 674.685 51.5391 675.136 Q51.5391 675.491 51.3781 675.716 Q51.2171 675.909 51.056 675.909 L50.895 675.941 Q50.7984 675.941 50.3153 675.877 Q49.8 675.813 48.9627 675.748 Q48.1253 675.684 47.1913 675.684 Q41.9096 675.684 39.4619 678.26 Q36.9821 680.805 36.9821 685.185 Q36.9821 688.212 38.5924 690.917 Q40.2027 693.623 42.7469 695.168 Q45.259 696.714 47.8999 696.714 Q50.3153 696.714 51.8612 695.49 Q53.4071 694.267 53.9224 692.689 L55.114 688.276 Q56.3056 683.639 56.8209 682.318 Q57.304 680.998 58.399 679.903 Q61.4263 676.65 66.1284 676.65 Q70.1863 676.65 74.1154 678.937 Q78.0124 681.223 80.5566 685.152 Q83.0687 689.081 83.0687 693.429 Q83.0687 701.062 78.3344 704.573 L82.0703 707.793 Q82.7788 708.405 82.9076 708.598 Q83.0687 708.759 83.0687 708.985 Q83.0687 709.275 82.8754 709.5 Q82.7144 709.725 82.4246 709.725 Q82.1991 709.725 74.6307 707.825 Q67.0624 705.925 66.9013 705.764 Q66.6437 705.506 66.6437 705.088 Q66.6437 704.315 67.3844 704.315 Q67.5777 704.379 67.8353 704.444 Q70.1541 704.83 71.4101 704.83 Q73.7612 704.83 75.5647 704.025 Q77.336 703.22 78.3666 702.028 Q79.365 700.804 80.0091 699.162 Q80.621 697.519 80.8465 696.135 Q81.0397 694.75 81.0397 693.3 Q81.0397 690.176 79.2362 687.407 Q77.4326 684.605 74.6307 683.027 Q71.8288 681.416 68.8981 681.416 Q67.3522 681.416 66.1606 681.835 Q64.9368 682.254 64.2604 682.834 Q63.5841 683.381 63.0688 684.315 Q62.5535 685.249 62.3603 685.893 Q62.1349 686.505 61.9094 687.471 L60.0415 694.524 Q59.2041 697.358 56.7887 699.387 Q54.3732 701.384 50.6696 701.384 Q46.7727 701.384 43.1656 699.098 Q39.5263 696.779 37.3363 693.011 Q35.1141 689.21 35.1141 685.12 Q35.1141 681.9 36.3702 679.42 Q37.594 676.94 39.8806 675.684 L36.1125 672.495 Q35.3718 671.851 35.243 671.723 Q35.1141 671.562 35.1141 671.336 Q35.1141 670.95 35.3396 670.789 Q35.565 670.595 35.7905 670.595 Z" fill="#000000" fill-rule="nonzero" fill-opacity="1" /><path clip-path="url(#clip530)" d="M65.13 663.095 Q53.9868 663.095 45.0013 658.94 Q41.2333 657.169 38.0771 654.689 Q34.9209 652.209 33.5361 650.567 Q32.1512 648.924 32.1512 648.473 Q32.1512 647.829 32.7953 647.797 Q33.1174 647.797 33.9225 648.667 Q44.7437 659.294 65.13 659.262 Q85.5807 659.262 95.9832 648.924 Q97.1104 647.797 97.4647 647.797 Q98.1088 647.797 98.1088 648.473 Q98.1088 648.924 96.7884 650.502 Q95.4679 652.08 92.4406 654.528 Q89.4132 656.976 85.7096 658.747 Q76.7241 663.095 65.13 663.095 Z" fill="#000000" fill-rule="nonzero" fill-opacity="1" /><path clip-path="url(#clip530)" d="M53.9224 622.527 Q54.8241 622.527 55.0496 622.946 Q55.2428 623.364 55.2428 624.524 L55.2428 630.707 L74.6951 635.603 Q76.4021 635.989 77.8513 635.989 Q79.4616 635.989 80.1701 635.506 Q80.8787 634.991 80.8787 633.928 Q80.8787 631.835 78.9785 629.58 Q77.0784 627.294 72.4407 625.361 Q71.8288 625.104 71.7 624.975 Q71.539 624.814 71.539 624.395 Q71.539 623.59 72.1831 623.59 Q72.4085 623.59 73.4391 624.041 Q74.4697 624.459 75.9834 625.393 Q77.4971 626.295 78.9141 627.487 Q80.3312 628.646 81.3618 630.417 Q82.3601 632.189 82.3601 634.089 Q82.3601 636.762 80.6532 638.469 Q78.9463 640.144 76.2732 640.144 Q75.4037 640.144 72.634 639.467 Q69.8321 638.791 55.2428 635.12 L55.2428 640.949 Q55.2428 641.754 55.2106 642.076 Q55.1784 642.366 55.0174 642.591 Q54.8241 642.785 54.4377 642.785 Q53.8257 642.785 53.5681 642.527 Q53.2782 642.269 53.246 641.947 Q53.1816 641.593 53.1816 640.788 L53.1816 634.604 L42.7147 632.028 Q41.6841 631.77 41.1044 631.126 Q40.4925 630.45 40.4281 630.063 Q40.3315 629.677 40.3315 629.387 Q40.3315 628.517 40.8146 628.002 Q41.2655 627.487 42.1028 627.487 Q42.5537 627.487 53.1816 630.192 L53.1816 624.395 Q53.1816 623.654 53.2138 623.364 Q53.246 623.042 53.4071 622.785 Q53.5681 622.527 53.9224 622.527 Z" fill="#000000" fill-rule="nonzero" fill-opacity="1" /><path clip-path="url(#clip530)" d="M97.4647 617.365 Q97.1426 617.365 96.3375 616.527 Q85.5163 605.899 65.13 605.899 Q44.6793 605.899 34.3412 616.109 Q33.1496 617.365 32.7953 617.365 Q32.1512 617.365 32.1512 616.721 Q32.1512 616.27 33.4716 614.692 Q34.7921 613.081 37.8194 610.666 Q40.8468 608.218 44.5505 606.415 Q53.5359 602.067 65.13 602.067 Q76.2732 602.067 85.2587 606.221 Q89.0268 607.993 92.1829 610.473 Q95.3391 612.952 96.724 614.595 Q98.1088 616.237 98.1088 616.721 Q98.1088 617.365 97.4647 617.365 Z" fill="#000000" fill-rule="nonzero" fill-opacity="1" /><polyline clip-path="url(#clip532)" style="stroke:#009af9; stroke-linecap:round; stroke-linejoin:round; stroke-width:4; stroke-opacity:1; fill:none" points="221.006,47.2441 230.722,49.1643 240.439,51.8762 250.155,54.5876 259.871,57.3028 269.587,60.0441 279.303,62.8724 289.019,65.8339 298.736,69.0635 308.452,72.7832 318.168,77.5549 327.884,83.4728 337.6,89.4269 347.317,95.325 357.033,101.164 366.749,106.946 376.465,112.679 386.181,118.353 395.897,123.964 405.614,129.52 415.33,135.028 425.046,140.485 434.762,145.893 444.478,151.261 454.194,156.59 463.911,161.876 473.627,167.125 483.343,172.334 493.059,177.508 502.775,182.654 512.491,187.774 522.208,192.873 531.924,197.956 541.64,203.047 551.356,208.2 561.072,213.435 570.789,218.66 580.505,223.861 590.221,229.035 599.937,234.191 609.653,239.345 619.369,244.51 629.086,249.669 638.802,254.816 648.518,259.94 658.234,265.028 667.95,270.074 677.666,275.071 687.383,280.017 697.099,284.906 706.815,289.743 716.531,294.528 726.247,299.261 735.964,303.952 745.68,308.597 755.396,313.193 765.112,317.741 774.828,322.242 784.544,326.699 794.261,331.108 803.977,335.47 813.693,339.787 823.409,344.058 833.125,348.283 842.841,352.468 852.558,356.612 862.274,360.716 871.99,364.779 881.706,368.803 891.422,372.786 901.138,376.736 910.855,380.649 920.571,384.526 930.287,388.368 940.003,392.176 949.719,395.951 959.436,399.697 969.152,403.416 978.868,407.117 988.584,410.795 998.3,414.45 1008.02,418.084 1017.73,421.701 1027.45,425.3 1037.16,428.878 1046.88,432.422 1056.6,435.936 1066.31,439.415 1076.03,442.861 1085.75,446.275 1095.46,449.657 1105.18,453.007 1114.89,456.326 1124.61,459.616 1134.33,462.875 1144.04,466.104 1153.76,469.302 1163.48,472.473 1173.19,475.616 1182.91,478.733 1192.62,481.827 1202.34,484.895 1212.06,487.943 1221.77,490.966 1231.49,493.968 1241.2,496.95 1250.92,499.917 1260.64,502.867 1270.35,505.791 1280.07,508.695 1289.79,511.581 1299.5,514.453 1309.22,517.315 1318.93,520.174 1328.65,523.015 1338.37,525.832 1348.08,528.625 1357.8,531.392 1367.51,534.132 1377.23,536.849 1386.95,539.542 1396.66,542.209 1406.38,544.856 1416.1,547.481 1425.81,550.084 1435.53,552.665 1445.24,555.226 1454.96,557.765 1464.68,560.284 1474.39,562.784 1484.11,565.265 1493.83,567.726 1503.54,570.169 1513.26,572.593 1522.97,574.997 1532.69,577.384 1542.41,579.753 1552.12,582.105 1561.84,584.44 1571.55,586.761 1581.27,589.066 1590.99,591.357 1600.7,593.633 1610.42,595.895 1620.14,598.14 1629.85,600.371 1639.57,602.59 1649.28,604.799 1659,606.997 1668.72,609.189 1678.43,611.372 1688.15,613.547 1697.86,615.714 1707.58,617.877 1717.3,620.027 1727.01,622.166 1736.73,624.293 1746.45,626.414 1756.16,628.533 1765.88,630.646 1775.59,632.755 1785.31,634.864 1795.03,636.976 1804.74,639.102 1814.46,641.239 1824.18,643.403 1833.89,645.582 1843.61,647.789 1853.32,650.003 1863.04,652.227 1872.76,654.467 1882.47,656.727 1892.19,659.007 1901.9,661.32 1911.62,663.634 1921.34,665.931 1931.05,668.209 1940.77,670.466 1950.49,672.703 1960.2,674.923 1969.92,677.127 1979.63,679.313 1989.35,681.483 1999.07,683.639 2008.78,685.778 2018.5,687.899 2028.21,690.004 2037.93,692.093 2047.65,694.167 2057.36,696.229 2067.08,698.277 2076.8,700.308 2086.51,702.322 2096.23,704.319 2105.94,706.299 2115.66,708.263 2125.38,710.211 2135.09,712.145 2144.81,714.064 2154.52,715.968 2164.24,717.858 2173.96,719.734 2183.67,721.597 2193.39,723.447 2203.11,725.283 2212.82,727.107 2222.54,728.92 2232.25,730.719 2241.97,732.506 2251.69,734.284 2261.4,736.05 2271.12,737.806 2280.84,739.551 2290.55,741.286 2300.27,743.012 2309.98,744.73 2319.7,746.439 2329.42,748.14 2339.13,749.833 2348.85,751.52 2358.56,753.199 2368.28,754.87 2378,756.536 2387.71,758.197 2397.43,759.852 2407.15,761.5 2416.86,763.14 2426.58,764.779 2436.29,766.417 2446.01,768.052 2455.73,769.684 2465.44,771.31 2475.16,772.937 2484.87,774.568 2494.59,776.198 2504.31,777.83 2514.02,779.462 2523.74,781.092 2533.46,782.719 2543.17,784.345 2552.89,785.974 "/>
<polyline clip-path="url(#clip532)" style="stroke:#3da44d; stroke-linecap:round; stroke-linejoin:round; stroke-width:4; stroke-opacity:1; fill:none" points="221.006,47.2441 230.722,55.5765 240.439,63.9089 250.155,63.9089 259.871,63.9089 269.587,63.9089 279.303,72.3 289.019,72.3 298.736,72.3 308.452,72.3 318.168,72.3 327.884,80.6625 337.6,97.3877 347.317,114.098 357.033,114.098 366.749,114.098 376.465,122.431 386.181,130.735 395.897,130.735 405.614,130.735 415.33,139.01 425.046,139.01 434.762,147.255 444.478,147.255 454.194,155.47 463.911,155.47 473.627,163.686 483.343,171.872 493.059,171.872 502.775,180.058 512.491,180.058 522.208,180.058 531.924,180.058 541.64,180.058 551.356,180.058 561.072,196.43 570.789,196.43 580.505,212.802 590.221,212.802 599.937,212.802 609.653,220.957 619.369,220.957 629.086,229.112 638.802,237.267 648.518,245.422 658.234,253.577 667.95,269.792 677.666,277.852 687.383,293.875 697.099,293.875 706.815,293.875 716.531,293.875 726.247,293.875 735.964,301.839 745.68,317.767 755.396,317.767 765.112,317.767 774.828,317.767 784.544,333.63 794.261,349.428 803.977,349.428 813.693,349.428 823.409,349.428 833.125,349.428 842.841,357.326 852.558,357.326 862.274,357.326 871.99,357.326 881.706,365.192 891.422,373.057 901.138,380.889 910.855,380.889 920.571,388.687 930.287,388.687 940.003,388.687 949.719,388.687 959.436,388.687 969.152,388.687 978.868,388.687 988.584,404.217 998.3,404.217 1008.02,404.217 1017.73,404.217 1027.45,412.053 1037.16,428.028 1046.88,436.018 1056.6,444.012 1066.31,452.008 1076.03,452.008 1085.75,460.046 1095.46,460.046 1105.18,460.046 1114.89,468.479 1124.61,476.963 1134.33,476.963 1144.04,485.59 1153.76,485.59 1163.48,485.59 1173.19,485.59 1182.91,485.59 1192.62,485.59 1202.34,485.59 1212.06,495.147 1221.77,495.147 1231.49,495.147 1241.2,495.147 1250.92,505.285 1260.64,505.285 1270.35,505.285 1280.07,505.285 1289.79,505.285 1299.5,505.285 1309.22,505.285 1318.93,528.269 1328.65,528.269 1338.37,539.856 1348.08,563.329 1357.8,563.329 1367.51,563.329 1377.23,563.329 1386.95,563.329 1396.66,563.329 1406.38,563.329 1416.1,563.329 1425.81,576.005 1435.53,576.005 1445.24,576.005 1454.96,576.005 1464.68,576.005 1474.39,576.005 1484.11,576.005 1493.83,589.193 1503.54,589.193 1513.26,589.193 1522.97,589.193 1532.69,589.193 1542.41,603.096 1552.12,603.096 1561.84,603.096 1571.55,603.096 1581.27,603.096 1590.99,617.976 1600.7,617.976 1610.42,617.976 1620.14,617.976 1629.85,617.976 1639.57,617.976 1649.28,617.976 1659,617.976 1668.72,617.976 1678.43,617.976 1688.15,617.976 1697.86,617.976 1707.58,633.816 1717.3,633.816 1727.01,633.816 1736.73,633.816 1746.45,633.816 1756.16,633.816 1765.88,633.816 1775.59,633.816 1785.31,633.816 1795.03,633.816 1804.74,633.816 1814.46,633.816 1824.18,633.816 1833.89,633.816 1843.61,650.988 1853.32,650.988 1863.04,650.988 1872.76,650.988 1882.47,650.988 1892.19,650.988 1901.9,670.093 1911.62,670.093 1921.34,689.527 1931.05,689.527 1940.77,689.527 1950.49,689.527 1960.2,689.527 1969.92,689.527 1979.63,689.527 1989.35,689.527 1999.07,713.593 2008.78,713.593 2018.5,713.593 2028.21,713.593 2037.93,713.593 2047.65,713.593 2057.36,713.593 2067.08,742.238 2076.8,742.238 2086.51,742.238 2096.23,742.238 2105.94,742.238 2115.66,742.238 2125.38,742.238 2135.09,742.238 2144.81,742.238 2154.52,742.238 2164.24,742.238 2173.96,742.238 2183.67,742.238 2193.39,742.238 2203.11,742.238 2212.82,742.238 2222.54,742.238 2232.25,742.238 2241.97,742.238 2251.69,742.238 2261.4,742.238 2271.12,742.238 2280.84,742.238 2290.55,742.238 2300.27,742.238 2309.98,742.238 2319.7,742.238 2329.42,742.238 2339.13,742.238 2348.85,742.238 2358.56,742.238 2368.28,742.238 2378,742.238 2387.71,742.238 2397.43,742.238 2407.15,742.238 2416.86,742.238 2426.58,742.238 2436.29,742.238 2446.01,742.238 2455.73,742.238 2465.44,742.238 2475.16,742.238 2484.87,742.238 2494.59,742.238 2504.31,742.238 2514.02,742.238 2523.74,742.238 2533.46,742.238 2543.17,742.238 2552.89,742.238 "/>
<path clip-path="url(#clip532)" d="M221.006 47.2441 L230.722 52.9981 L240.439 60.0263 L250.155 67.2043 L259.871 74.4993 L269.587 81.7419 L279.303 88.8868 L289.019 96 L298.736 103.033 L308.452 110.13 L318.168 117.005 L327.884 123.702 L337.6 130.351 L347.317 137.372 L357.033 144.245 L366.749 150.794 L376.465 157.212 L386.181 163.666 L395.897 170.893 L405.614 177.815 L415.33 184.949 L425.046 192.857 L434.762 199.43 L444.478 205.863 L454.194 212.192 L463.911 218.66 L473.627 226.528 L483.343 233.258 L493.059 240.236 L502.775 247.536 L512.491 254.077 L522.208 260.571 L531.924 267.496 L541.64 274.617 L551.356 280.735 L561.072 287.291 L570.789 294.336 L580.505 300.296 L590.221 306.671 L599.937 312.81 L609.653 319.708 L619.369 327.406 L629.086 334.297 L638.802 341.234 L648.518 347.876 L658.234 354.136 L667.95 360.297 L677.666 366.358 L687.383 372.278 L697.099 378.288 L706.815 384.046 L716.531 389.916 L726.247 395.921 L735.964 401.409 L745.68 406.678 L755.396 411.867 L765.112 417.193 L774.828 422.612 L784.544 427.672 L794.261 432.724 L803.977 437.743 L813.693 442.646 L823.409 447.334 L833.125 452.286 L842.841 457.211 L852.558 461.953 L862.274 466.713 L871.99 471.402 L881.706 475.895 L891.422 480.594 L901.138 484.916 L910.855 489.336 L920.571 493.075 L930.287 497.879 L940.003 502.159 L949.719 506.886 L959.436 511.709 L969.152 515.68 L978.868 519.689 L988.584 523.585 L998.3 527.445 L1008.02 531.574 L1017.73 536.279 L1027.45 540.769 L1037.16 544.755 L1046.88 548.605 L1056.6 552.514 L1066.31 556.101 L1076.03 559.245 L1085.75 563.247 L1095.46 567.181 L1105.18 571.056 L1114.89 575.397 L1124.61 579.11 L1134.33 582.141 L1144.04 584.885 L1153.76 588.384 L1163.48 591.844 L1173.19 595.267 L1182.91 598.821 L1192.62 602.642 L1202.34 606.36 L1212.06 610.007 L1221.77 613.076 L1231.49 616.983 L1241.2 620.237 L1250.92 623.541 L1260.64 627.031 L1270.35 630.473 L1280.07 633.673 L1289.79 636.595 L1299.5 639.711 L1309.22 642.288 L1318.93 645.69 L1328.65 648.758 L1338.37 651.721 L1348.08 654.343 L1357.8 657.359 L1367.51 659.548 L1377.23 662.844 L1386.95 665.157 L1396.66 668.185 L1406.38 671.185 L1416.1 673.748 L1425.81 676.508 L1435.53 679.213 L1445.24 682.347 L1454.96 685.518 L1464.68 688.236 L1474.39 691.275 L1484.11 693.881 L1493.83 696.569 L1503.54 699.5 L1513.26 702.812 L1522.97 705.221 L1532.69 707.571 L1542.41 710.912 L1552.12 713.238 L1561.84 715.201 L1571.55 717.861 L1581.27 719.91 L1590.99 722.124 L1600.7 724.619 L1610.42 727.083 L1620.14 729.678 L1629.85 732.66 L1639.57 735.625 L1649.28 738.571 L1659 741.26 L1668.72 743.989 L1678.43 747.05 L1688.15 749.887 L1697.86 751.752 L1707.58 754.581 L1717.3 757.695 L1727.01 759.968 L1736.73 761.709 L1746.45 764.182 L1756.16 766.14 L1765.88 768.242 L1775.59 770.891 L1785.31 773.388 L1795.03 775.949 L1804.74 778.478 L1814.46 780.83 L1824.18 783.478 L1833.89 786.218 L1843.61 788.443 L1853.32 790.877 L1863.04 792.86 L1872.76 795.709 L1882.47 798.454 L1892.19 802.107 L1901.9 804.197 L1911.62 807.531 L1921.34 809.662 L1931.05 811.498 L1940.77 814.579 L1950.49 816.973 L1960.2 818.792 L1969.92 821.866 L1979.63 824.959 L1989.35 827.531 L1999.07 829.252 L2008.78 831.328 L2018.5 834.58 L2028.21 838.343 L2037.93 840.611 L2047.65 842.843 L2057.36 845.246 L2067.08 847.913 L2076.8 850.543 L2086.51 853.144 L2096.23 856.663 L2105.94 858.369 L2115.66 861.6 L2125.38 863.17 L2135.09 865.579 L2144.81 867.398 L2154.52 870.349 L2164.24 872.497 L2173.96 874.977 L2183.67 877.298 L2193.39 879.523 L2203.11 881.724 L2212.82 884.301 L2222.54 886.23 L2232.25 889.028 L2241.97 890.801 L2251.69 892.598 L2261.4 894.567 L2271.12 897.462 L2280.84 900.446 L2290.55 903.278 L2300.27 905.935 L2309.98 908.394 L2319.7 910.343 L2329.42 912.034 L2339.13 913.713 L2348.85 915.796 L2358.56 918.01 L2368.28 920.198 L2378 922.659 L2387.71 924.795 L2397.43 926.972 L2407.15 929.309 L2416.86 931.615 L2426.58 933.895 L2436.29 935.211 L2446.01 937.341 L2455.73 938.847 L2465.44 941.553 L2475.16 943.836 L2484.87 946.728 L2494.59 949.153 L2504.31 951.24 L2514.02 953.294 L2523.74 955.326 L2533.46 957.155 L2543.17 959.681 L2552.89 961.767 L2552.89 611.226 L2543.17 610.118 L2533.46 609.446 L2523.74 608.832 L2514.02 607.147 L2504.31 605.55 L2494.59 604.402 L2484.87 603.532 L2475.16 602.358 L2465.44 601.267 L2455.73 600.027 L2446.01 598.5 L2436.29 596.975 L2426.58 595.627 L2416.86 594.852 L2407.15 593.621 L2397.43 592.382 L2387.71 591.134 L2378 589.893 L2368.28 588.629 L2358.56 587.371 L2348.85 585.849 L2339.13 584.016 L2329.42 582.978 L2319.7 582.23 L2309.98 580.934 L2300.27 580.11 L2290.55 579.152 L2280.84 578.17 L2271.12 576.558 L2261.4 575.261 L2251.69 573.953 L2241.97 572.635 L2232.25 571.307 L2222.54 569.687 L2212.82 567.997 L2203.11 566.894 L2193.39 565.776 L2183.67 564.313 L2173.96 562.413 L2164.24 560.863 L2154.52 559.402 L2144.81 557.317 L2135.09 555.84 L2125.38 554.588 L2115.66 553.613 L2105.94 552.63 L2096.23 551.561 L2086.51 550.017 L2076.8 547.473 L2067.08 546.392 L2057.36 544.938 L2047.65 543.122 L2037.93 542.037 L2028.21 540.89 L2018.5 539.913 L2008.78 537.657 L1999.07 536.058 L1989.35 534.208 L1979.63 532.777 L1969.92 531.135 L1960.2 528.907 L1950.49 527.744 L1940.77 525.809 L1931.05 523.756 L1921.34 521.695 L1911.62 519.246 L1901.9 517.299 L1892.19 515.021 L1882.47 513.352 L1872.76 511.251 L1863.04 509.163 L1853.32 507.546 L1843.61 506.005 L1833.89 504.453 L1824.18 501.619 L1814.46 499.687 L1804.74 496.925 L1795.03 495.259 L1785.31 493.88 L1775.59 491.931 L1765.88 490.002 L1756.16 488.065 L1746.45 486.683 L1736.73 484.793 L1727.01 482.469 L1717.3 480.652 L1707.58 478.983 L1697.86 477.863 L1688.15 475.516 L1678.43 473.798 L1668.72 471.746 L1659 469.7 L1649.28 467.611 L1639.57 466.251 L1629.85 465.142 L1620.14 464.022 L1610.42 462.882 L1600.7 461.626 L1590.99 459.217 L1581.27 457.026 L1571.55 455.993 L1561.84 454.476 L1552.12 453.084 L1542.41 451.75 L1532.69 450.133 L1522.97 447.923 L1513.26 445.578 L1503.54 444.013 L1493.83 441.676 L1484.11 439.005 L1474.39 436.206 L1464.68 433.301 L1454.96 432.062 L1445.24 430.826 L1435.53 429.573 L1425.81 427.612 L1416.1 424.93 L1406.38 422.249 L1396.66 420.432 L1386.95 418.866 L1377.23 416.768 L1367.51 414.542 L1357.8 412.206 L1348.08 409.822 L1338.37 407.452 L1328.65 405.121 L1318.93 402.506 L1309.22 400.069 L1299.5 396.312 L1289.79 393.842 L1280.07 392.31 L1270.35 389.748 L1260.64 387.532 L1250.92 384.606 L1241.2 382.477 L1231.49 379.979 L1221.77 377.586 L1212.06 374.782 L1202.34 372.152 L1192.62 369.506 L1182.91 366.843 L1173.19 364.178 L1163.48 361.48 L1153.76 359.126 L1144.04 356.455 L1134.33 353.61 L1124.61 351.147 L1114.89 347.908 L1105.18 344.958 L1095.46 341.984 L1085.75 339.135 L1076.03 336.446 L1066.31 333.563 L1056.6 329.438 L1046.88 326.266 L1037.16 323.317 L1027.45 320.975 L1017.73 318.307 L1008.02 315.94 L998.3 312.304 L988.584 309.263 L978.868 306.813 L969.152 303.791 L959.436 301.011 L949.719 298.403 L940.003 295.045 L930.287 291.906 L920.571 288.612 L910.855 284.945 L901.138 281.72 L891.422 278.795 L881.706 275.475 L871.99 272.145 L862.274 268.648 L852.558 265.316 L842.841 261.962 L833.125 258.585 L823.409 255.185 L813.693 251.762 L803.977 247.346 L794.261 244.012 L784.544 240.272 L774.828 236.862 L765.112 233.574 L755.396 230.168 L745.68 226.575 L735.964 223.035 L726.247 219.224 L716.531 215.211 L706.815 212.101 L697.099 208.532 L687.383 204.765 L677.666 201.052 L667.95 196.933 L658.234 192.032 L648.518 187.304 L638.802 182.899 L629.086 179.328 L619.369 174.596 L609.653 170.161 L599.937 166.01 L590.221 161.558 L580.505 157.666 L570.789 153.785 L561.072 150.377 L551.356 146.637 L541.64 142.297 L531.924 139.2 L522.208 135.429 L512.491 132.168 L502.775 128.83 L493.059 125.142 L483.343 121.642 L473.627 118.169 L463.911 115.061 L454.194 111.685 L444.478 108.338 L434.762 104.82 L425.046 101.307 L415.33 98.1028 L405.614 94.577 L395.897 90.9006 L386.181 87.0008 L376.465 82.7813 L366.749 78.4895 L357.033 74.1376 L347.317 69.6509 L337.6 64.8429 L327.884 59.7483 L318.168 54.2858 L308.452 52.2662 L298.736 51.39 L289.019 50.7678 L279.303 50.219 L269.587 49.653 L259.871 49.1033 L250.155 48.5964 L240.439 48.0795 L230.722 47.562 L221.006 47.2441  Z" fill="#009af9" fill-rule="evenodd" fill-opacity="0.3"/>
<polyline clip-path="url(#clip532)" style="stroke:#009af9; stroke-linecap:round; stroke-linejoin:round; stroke-width:4; stroke-opacity:0; fill:none" points="221.006,47.2441 230.722,52.9981 240.439,60.0263 250.155,67.2043 259.871,74.4993 269.587,81.7419 279.303,88.8868 289.019,96 298.736,103.033 308.452,110.13 318.168,117.005 327.884,123.702 337.6,130.351 347.317,137.372 357.033,144.245 366.749,150.794 376.465,157.212 386.181,163.666 395.897,170.893 405.614,177.815 415.33,184.949 425.046,192.857 434.762,199.43 444.478,205.863 454.194,212.192 463.911,218.66 473.627,226.528 483.343,233.258 493.059,240.236 502.775,247.536 512.491,254.077 522.208,260.571 531.924,267.496 541.64,274.617 551.356,280.735 561.072,287.291 570.789,294.336 580.505,300.296 590.221,306.671 599.937,312.81 609.653,319.708 619.369,327.406 629.086,334.297 638.802,341.234 648.518,347.876 658.234,354.136 667.95,360.297 677.666,366.358 687.383,372.278 697.099,378.288 706.815,384.046 716.531,389.916 726.247,395.921 735.964,401.409 745.68,406.678 755.396,411.867 765.112,417.193 774.828,422.612 784.544,427.672 794.261,432.724 803.977,437.743 813.693,442.646 823.409,447.334 833.125,452.286 842.841,457.211 852.558,461.953 862.274,466.713 871.99,471.402 881.706,475.895 891.422,480.594 901.138,484.916 910.855,489.336 920.571,493.075 930.287,497.879 940.003,502.159 949.719,506.886 959.436,511.709 969.152,515.68 978.868,519.689 988.584,523.585 998.3,527.445 1008.02,531.574 1017.73,536.279 1027.45,540.769 1037.16,544.755 1046.88,548.605 1056.6,552.514 1066.31,556.101 1076.03,559.245 1085.75,563.247 1095.46,567.181 1105.18,571.056 1114.89,575.397 1124.61,579.11 1134.33,582.141 1144.04,584.885 1153.76,588.384 1163.48,591.844 1173.19,595.267 1182.91,598.821 1192.62,602.642 1202.34,606.36 1212.06,610.007 1221.77,613.076 1231.49,616.983 1241.2,620.237 1250.92,623.541 1260.64,627.031 1270.35,630.473 1280.07,633.673 1289.79,636.595 1299.5,639.711 1309.22,642.288 1318.93,645.69 1328.65,648.758 1338.37,651.721 1348.08,654.343 1357.8,657.359 1367.51,659.548 1377.23,662.844 1386.95,665.157 1396.66,668.185 1406.38,671.185 1416.1,673.748 1425.81,676.508 1435.53,679.213 1445.24,682.347 1454.96,685.518 1464.68,688.236 1474.39,691.275 1484.11,693.881 1493.83,696.569 1503.54,699.5 1513.26,702.812 1522.97,705.221 1532.69,707.571 1542.41,710.912 1552.12,713.238 1561.84,715.201 1571.55,717.861 1581.27,719.91 1590.99,722.124 1600.7,724.619 1610.42,727.083 1620.14,729.678 1629.85,732.66 1639.57,735.625 1649.28,738.571 1659,741.26 1668.72,743.989 1678.43,747.05 1688.15,749.887 1697.86,751.752 1707.58,754.581 1717.3,757.695 1727.01,759.968 1736.73,761.709 1746.45,764.182 1756.16,766.14 1765.88,768.242 1775.59,770.891 1785.31,773.388 1795.03,775.949 1804.74,778.478 1814.46,780.83 1824.18,783.478 1833.89,786.218 1843.61,788.443 1853.32,790.877 1863.04,792.86 1872.76,795.709 1882.47,798.454 1892.19,802.107 1901.9,804.197 1911.62,807.531 1921.34,809.662 1931.05,811.498 1940.77,814.579 1950.49,816.973 1960.2,818.792 1969.92,821.866 1979.63,824.959 1989.35,827.531 1999.07,829.252 2008.78,831.328 2018.5,834.58 2028.21,838.343 2037.93,840.611 2047.65,842.843 2057.36,845.246 2067.08,847.913 2076.8,850.543 2086.51,853.144 2096.23,856.663 2105.94,858.369 2115.66,861.6 2125.38,863.17 2135.09,865.579 2144.81,867.398 2154.52,870.349 2164.24,872.497 2173.96,874.977 2183.67,877.298 2193.39,879.523 2203.11,881.724 2212.82,884.301 2222.54,886.23 2232.25,889.028 2241.97,890.801 2251.69,892.598 2261.4,894.567 2271.12,897.462 2280.84,900.446 2290.55,903.278 2300.27,905.935 2309.98,908.394 2319.7,910.343 2329.42,912.034 2339.13,913.713 2348.85,915.796 2358.56,918.01 2368.28,920.198 2378,922.659 2387.71,924.795 2397.43,926.972 2407.15,929.309 2416.86,931.615 2426.58,933.895 2436.29,935.211 2446.01,937.341 2455.73,938.847 2465.44,941.553 2475.16,943.836 2484.87,946.728 2494.59,949.153 2504.31,951.24 2514.02,953.294 2523.74,955.326 2533.46,957.155 2543.17,959.681 2552.89,961.767 "/>
<path clip-path="url(#clip530)" d="M1346.51 243.007 L1817.7 243.007 L1817.7 87.4866 L1346.51 87.4866  Z" fill="#ffffff" fill-rule="evenodd" fill-opacity="1"/>
<polyline clip-path="url(#clip530)" style="stroke:#000000; stroke-linecap:round; stroke-linejoin:round; stroke-width:4; stroke-opacity:1; fill:none" points="1346.51,243.007 1817.7,243.007 1817.7,87.4866 1346.51,87.4866 1346.51,243.007 "/>
<polyline clip-path="url(#clip530)" style="stroke:#009af9; stroke-linecap:round; stroke-linejoin:round; stroke-width:4; stroke-opacity:1; fill:none" points="1364.86,139.327 1474.98,139.327 "/>
<path clip-path="url(#clip530)" d="M1497.61 152.718 L1497.61 166.468 L1493.33 166.468 L1493.33 130.681 L1497.61 130.681 L1497.61 134.616 Q1498.95 132.301 1500.99 131.19 Q1503.05 130.056 1505.9 130.056 Q1510.62 130.056 1513.56 133.806 Q1516.52 137.556 1516.52 143.667 Q1516.52 149.778 1513.56 153.528 Q1510.62 157.278 1505.9 157.278 Q1503.05 157.278 1500.99 156.167 Q1498.95 155.033 1497.61 152.718 M1512.1 143.667 Q1512.1 138.968 1510.16 136.306 Q1508.24 133.621 1504.86 133.621 Q1501.48 133.621 1499.53 136.306 Q1497.61 138.968 1497.61 143.667 Q1497.61 148.366 1499.53 151.051 Q1501.48 153.713 1504.86 153.713 Q1508.24 153.713 1510.16 151.051 Q1512.1 148.366 1512.1 143.667 Z" fill="#000000" fill-rule="nonzero" fill-opacity="1" /><path clip-path="url(#clip530)" d="M1533.63 133.667 Q1530.2 133.667 1528.21 136.352 Q1526.22 139.014 1526.22 143.667 Q1526.22 148.32 1528.19 151.005 Q1530.18 153.667 1533.63 153.667 Q1537.03 153.667 1539.02 150.982 Q1541.01 148.296 1541.01 143.667 Q1541.01 139.06 1539.02 136.375 Q1537.03 133.667 1533.63 133.667 M1533.63 130.056 Q1539.18 130.056 1542.36 133.667 Q1545.53 137.278 1545.53 143.667 Q1545.53 150.033 1542.36 153.667 Q1539.18 157.278 1533.63 157.278 Q1528.05 157.278 1524.88 153.667 Q1521.73 150.033 1521.73 143.667 Q1521.73 137.278 1524.88 133.667 Q1528.05 130.056 1533.63 130.056 Z" fill="#000000" fill-rule="nonzero" fill-opacity="1" /><path clip-path="url(#clip530)" d="M1569.11 131.445 L1569.11 135.472 Q1567.31 134.547 1565.36 134.084 Q1563.42 133.621 1561.34 133.621 Q1558.17 133.621 1556.57 134.593 Q1554.99 135.565 1554.99 137.509 Q1554.99 138.991 1556.13 139.847 Q1557.26 140.681 1560.69 141.445 L1562.15 141.769 Q1566.68 142.741 1568.58 144.523 Q1570.5 146.283 1570.5 149.454 Q1570.5 153.065 1567.63 155.171 Q1564.79 157.278 1559.79 157.278 Q1557.7 157.278 1555.43 156.861 Q1553.19 156.468 1550.69 155.658 L1550.69 151.259 Q1553.05 152.486 1555.34 153.111 Q1557.63 153.713 1559.88 153.713 Q1562.89 153.713 1564.51 152.695 Q1566.13 151.653 1566.13 149.778 Q1566.13 148.042 1564.95 147.116 Q1563.79 146.19 1559.83 145.334 L1558.35 144.986 Q1554.39 144.153 1552.63 142.44 Q1550.87 140.704 1550.87 137.695 Q1550.87 134.037 1553.47 132.047 Q1556.06 130.056 1560.83 130.056 Q1563.19 130.056 1565.27 130.403 Q1567.36 130.75 1569.11 131.445 Z" fill="#000000" fill-rule="nonzero" fill-opacity="1" /><path clip-path="url(#clip530)" d="M1581.5 123.32 L1581.5 130.681 L1590.27 130.681 L1590.27 133.991 L1581.5 133.991 L1581.5 148.065 Q1581.5 151.236 1582.36 152.139 Q1583.23 153.042 1585.9 153.042 L1590.27 153.042 L1590.27 156.607 L1585.9 156.607 Q1580.97 156.607 1579.09 154.778 Q1577.22 152.926 1577.22 148.065 L1577.22 133.991 L1574.09 133.991 L1574.09 130.681 L1577.22 130.681 L1577.22 123.32 L1581.5 123.32 Z" fill="#000000" fill-rule="nonzero" fill-opacity="1" /><path clip-path="url(#clip530)" d="M1618.05 142.579 L1618.05 144.662 L1598.47 144.662 Q1598.74 149.06 1601.11 151.375 Q1603.49 153.667 1607.73 153.667 Q1610.18 153.667 1612.47 153.065 Q1614.79 152.463 1617.05 151.259 L1617.05 155.287 Q1614.76 156.259 1612.36 156.769 Q1609.95 157.278 1607.47 157.278 Q1601.27 157.278 1597.63 153.667 Q1594.02 150.056 1594.02 143.898 Q1594.02 137.533 1597.45 133.806 Q1600.9 130.056 1606.73 130.056 Q1611.96 130.056 1614.99 133.435 Q1618.05 136.792 1618.05 142.579 M1613.79 141.329 Q1613.74 137.834 1611.82 135.75 Q1609.92 133.667 1606.78 133.667 Q1603.21 133.667 1601.06 135.681 Q1598.93 137.695 1598.61 141.352 L1613.79 141.329 Z" fill="#000000" fill-rule="nonzero" fill-opacity="1" /><path clip-path="url(#clip530)" d="M1640.06 134.662 Q1639.35 134.246 1638.49 134.06 Q1637.66 133.852 1636.64 133.852 Q1633.03 133.852 1631.08 136.213 Q1629.16 138.551 1629.16 142.949 L1629.16 156.607 L1624.88 156.607 L1624.88 130.681 L1629.16 130.681 L1629.16 134.709 Q1630.5 132.347 1632.66 131.213 Q1634.81 130.056 1637.89 130.056 Q1638.33 130.056 1638.86 130.125 Q1639.39 130.172 1640.04 130.287 L1640.06 134.662 Z" fill="#000000" fill-rule="nonzero" fill-opacity="1" /><path clip-path="url(#clip530)" d="M1644.53 130.681 L1648.79 130.681 L1648.79 156.607 L1644.53 156.607 L1644.53 130.681 M1644.53 120.588 L1648.79 120.588 L1648.79 125.982 L1644.53 125.982 L1644.53 120.588 Z" fill="#000000" fill-rule="nonzero" fill-opacity="1" /><path clip-path="url(#clip530)" d="M1667.75 133.667 Q1664.32 133.667 1662.33 136.352 Q1660.34 139.014 1660.34 143.667 Q1660.34 148.32 1662.31 151.005 Q1664.3 153.667 1667.75 153.667 Q1671.15 153.667 1673.14 150.982 Q1675.13 148.296 1675.13 143.667 Q1675.13 139.06 1673.14 136.375 Q1671.15 133.667 1667.75 133.667 M1667.75 130.056 Q1673.3 130.056 1676.48 133.667 Q1679.65 137.278 1679.65 143.667 Q1679.65 150.033 1676.48 153.667 Q1673.3 157.278 1667.75 157.278 Q1662.17 157.278 1659 153.667 Q1655.85 150.033 1655.85 143.667 Q1655.85 137.278 1659 133.667 Q1662.17 130.056 1667.75 130.056 Z" fill="#000000" fill-rule="nonzero" fill-opacity="1" /><path clip-path="url(#clip530)" d="M1701.73 134.662 Q1701.01 134.246 1700.16 134.06 Q1699.32 133.852 1698.3 133.852 Q1694.69 133.852 1692.75 136.213 Q1690.83 138.551 1690.83 142.949 L1690.83 156.607 L1686.54 156.607 L1686.54 130.681 L1690.83 130.681 L1690.83 134.709 Q1692.17 132.347 1694.32 131.213 Q1696.47 130.056 1699.55 130.056 Q1699.99 130.056 1700.53 130.125 Q1701.06 130.172 1701.71 130.287 L1701.73 134.662 Z" fill="#000000" fill-rule="nonzero" fill-opacity="1" /><polyline clip-path="url(#clip530)" style="stroke:#3da44d; stroke-linecap:round; stroke-linejoin:round; stroke-width:4; stroke-opacity:1; fill:none" points="1364.86,191.167 1474.98,191.167 "/>
<path clip-path="url(#clip530)" d="M1493.33 173.887 L1498 173.887 L1498 188.493 L1513.51 173.887 L1519.53 173.887 L1502.38 189.998 L1520.76 208.447 L1514.6 208.447 L1498 191.803 L1498 208.447 L1493.33 208.447 L1493.33 173.887 Z" fill="#000000" fill-rule="nonzero" fill-opacity="1" /><path clip-path="url(#clip530)" d="M1535.18 195.414 Q1530.02 195.414 1528.03 196.595 Q1526.04 197.775 1526.04 200.623 Q1526.04 202.891 1527.52 204.234 Q1529.02 205.553 1531.59 205.553 Q1535.13 205.553 1537.26 203.053 Q1539.42 200.53 1539.42 196.363 L1539.42 195.414 L1535.18 195.414 M1543.67 193.655 L1543.67 208.447 L1539.42 208.447 L1539.42 204.511 Q1537.96 206.873 1535.78 208.007 Q1533.61 209.118 1530.46 209.118 Q1526.48 209.118 1524.11 206.896 Q1521.78 204.65 1521.78 200.9 Q1521.78 196.525 1524.69 194.303 Q1527.63 192.081 1533.44 192.081 L1539.42 192.081 L1539.42 191.664 Q1539.42 188.725 1537.47 187.127 Q1535.55 185.507 1532.05 185.507 Q1529.83 185.507 1527.73 186.039 Q1525.62 186.572 1523.67 187.637 L1523.67 183.701 Q1526.01 182.799 1528.21 182.359 Q1530.41 181.896 1532.49 181.896 Q1538.12 181.896 1540.9 184.812 Q1543.67 187.729 1543.67 193.655 Z" fill="#000000" fill-rule="nonzero" fill-opacity="1" /><path clip-path="url(#clip530)" d="M1556.57 204.558 L1556.57 218.308 L1552.29 218.308 L1552.29 182.521 L1556.57 182.521 L1556.57 186.456 Q1557.91 184.141 1559.95 183.03 Q1562.01 181.896 1564.86 181.896 Q1569.58 181.896 1572.52 185.646 Q1575.48 189.396 1575.48 195.507 Q1575.48 201.618 1572.52 205.368 Q1569.58 209.118 1564.86 209.118 Q1562.01 209.118 1559.95 208.007 Q1557.91 206.873 1556.57 204.558 M1571.06 195.507 Q1571.06 190.808 1569.11 188.146 Q1567.19 185.461 1563.81 185.461 Q1560.43 185.461 1558.49 188.146 Q1556.57 190.808 1556.57 195.507 Q1556.57 200.206 1558.49 202.891 Q1560.43 205.553 1563.81 205.553 Q1567.19 205.553 1569.11 202.891 Q1571.06 200.206 1571.06 195.507 Z" fill="#000000" fill-rule="nonzero" fill-opacity="1" /><path clip-path="url(#clip530)" d="M1582.54 172.428 L1586.8 172.428 L1586.8 208.447 L1582.54 208.447 L1582.54 172.428 Z" fill="#000000" fill-rule="nonzero" fill-opacity="1" /><path clip-path="url(#clip530)" d="M1607.49 195.414 Q1602.33 195.414 1600.34 196.595 Q1598.35 197.775 1598.35 200.623 Q1598.35 202.891 1599.83 204.234 Q1601.34 205.553 1603.91 205.553 Q1607.45 205.553 1609.58 203.053 Q1611.73 200.53 1611.73 196.363 L1611.73 195.414 L1607.49 195.414 M1615.99 193.655 L1615.99 208.447 L1611.73 208.447 L1611.73 204.511 Q1610.27 206.873 1608.1 208.007 Q1605.92 209.118 1602.77 209.118 Q1598.79 209.118 1596.43 206.896 Q1594.09 204.65 1594.09 200.9 Q1594.09 196.525 1597.01 194.303 Q1599.95 192.081 1605.76 192.081 L1611.73 192.081 L1611.73 191.664 Q1611.73 188.725 1609.79 187.127 Q1607.86 185.507 1604.37 185.507 Q1602.15 185.507 1600.04 186.039 Q1597.93 186.572 1595.99 187.637 L1595.99 183.701 Q1598.33 182.799 1600.53 182.359 Q1602.73 181.896 1604.81 181.896 Q1610.43 181.896 1613.21 184.812 Q1615.99 187.729 1615.99 193.655 Z" fill="#000000" fill-rule="nonzero" fill-opacity="1" /><path clip-path="url(#clip530)" d="M1646.31 192.799 L1646.31 208.447 L1642.05 208.447 L1642.05 192.937 Q1642.05 189.257 1640.62 187.428 Q1639.18 185.6 1636.31 185.6 Q1632.86 185.6 1630.87 187.799 Q1628.88 189.998 1628.88 193.794 L1628.88 208.447 L1624.6 208.447 L1624.6 182.521 L1628.88 182.521 L1628.88 186.549 Q1630.41 184.211 1632.47 183.053 Q1634.55 181.896 1637.26 181.896 Q1641.73 181.896 1644.02 184.674 Q1646.31 187.428 1646.31 192.799 Z" fill="#000000" fill-rule="nonzero" fill-opacity="1" /><path clip-path="url(#clip530)" d="M1652.66 193.562 L1665.13 193.562 L1665.13 197.359 L1652.66 197.359 L1652.66 193.562 Z" fill="#000000" fill-rule="nonzero" fill-opacity="1" /><path clip-path="url(#clip530)" d="M1672.1 173.887 L1679.07 173.887 L1687.89 197.405 L1696.75 173.887 L1703.72 173.887 L1703.72 208.447 L1699.16 208.447 L1699.16 178.1 L1690.25 201.803 L1685.55 201.803 L1676.64 178.1 L1676.64 208.447 L1672.1 208.447 L1672.1 173.887 Z" fill="#000000" fill-rule="nonzero" fill-opacity="1" /><path clip-path="url(#clip530)" d="M1734.99 194.419 L1734.99 196.502 L1715.41 196.502 Q1715.69 200.9 1718.05 203.215 Q1720.43 205.507 1724.67 205.507 Q1727.12 205.507 1729.41 204.905 Q1731.73 204.303 1734 203.099 L1734 207.127 Q1731.71 208.099 1729.3 208.609 Q1726.89 209.118 1724.41 209.118 Q1718.21 209.118 1714.58 205.507 Q1710.97 201.896 1710.97 195.738 Q1710.97 189.373 1714.39 185.646 Q1717.84 181.896 1723.67 181.896 Q1728.91 181.896 1731.94 185.275 Q1734.99 188.632 1734.99 194.419 M1730.73 193.169 Q1730.69 189.674 1728.77 187.59 Q1726.87 185.507 1723.72 185.507 Q1720.16 185.507 1718 187.521 Q1715.87 189.535 1715.55 193.192 L1730.73 193.169 Z" fill="#000000" fill-rule="nonzero" fill-opacity="1" /><path clip-path="url(#clip530)" d="M1741.98 182.521 L1746.24 182.521 L1746.24 208.447 L1741.98 208.447 L1741.98 182.521 M1741.98 172.428 L1746.24 172.428 L1746.24 177.822 L1741.98 177.822 L1741.98 172.428 Z" fill="#000000" fill-rule="nonzero" fill-opacity="1" /><path clip-path="url(#clip530)" d="M1777.33 194.419 L1777.33 196.502 L1757.75 196.502 Q1758.03 200.9 1760.39 203.215 Q1762.77 205.507 1767.01 205.507 Q1769.46 205.507 1771.75 204.905 Q1774.07 204.303 1776.34 203.099 L1776.34 207.127 Q1774.04 208.099 1771.64 208.609 Q1769.23 209.118 1766.75 209.118 Q1760.55 209.118 1756.91 205.507 Q1753.3 201.896 1753.3 195.738 Q1753.3 189.373 1756.73 185.646 Q1760.18 181.896 1766.01 181.896 Q1771.24 181.896 1774.28 185.275 Q1777.33 188.632 1777.33 194.419 M1773.07 193.169 Q1773.03 189.674 1771.1 187.59 Q1769.21 185.507 1766.06 185.507 Q1762.49 185.507 1760.34 187.521 Q1758.21 189.535 1757.89 193.192 L1773.07 193.169 Z" fill="#000000" fill-rule="nonzero" fill-opacity="1" /><path clip-path="url(#clip530)" d="M1799.34 186.502 Q1798.63 186.086 1797.77 185.9 Q1796.94 185.692 1795.92 185.692 Q1792.31 185.692 1790.36 188.053 Q1788.44 190.391 1788.44 194.789 L1788.44 208.447 L1784.16 208.447 L1784.16 182.521 L1788.44 182.521 L1788.44 186.549 Q1789.78 184.187 1791.94 183.053 Q1794.09 181.896 1797.17 181.896 Q1797.61 181.896 1798.14 181.965 Q1798.67 182.012 1799.32 182.127 L1799.34 186.502 Z" fill="#000000" fill-rule="nonzero" fill-opacity="1" /></svg>
