<?xml version="1.0" encoding="utf-8"?>
<svg xmlns="http://www.w3.org/2000/svg" xmlns:xlink="http://www.w3.org/1999/xlink" width="480" height="360" viewBox="0 0 1920 1440">
<defs>
  <clipPath id="clip370">
    <rect x="0" y="0" width="1920" height="1440"/>
  </clipPath>
</defs>
<path clip-path="url(#clip370)" d="M0 1440 L1920 1440 L1920 0 L0 0  Z" fill="#ffffff" fill-rule="evenodd" fill-opacity="1"/>
<defs>
  <clipPath id="clip371">
    <rect x="384" y="0" width="1345" height="1345"/>
  </clipPath>
</defs>
<path clip-path="url(#clip370)" d="M107.377 1254.52 L1872.76 1254.52 L1872.76 47.2441 L107.377 47.2441  Z" fill="#ffffff" fill-rule="evenodd" fill-opacity="1"/>
<defs>
  <clipPath id="clip372">
    <rect x="107" y="47" width="1766" height="1208"/>
  </clipPath>
</defs>
<polyline clip-path="url(#clip372)" style="stroke:#000000; stroke-linecap:round; stroke-linejoin:round; stroke-width:2; stroke-opacity:0.1; fill:none" points="107.377,1254.52 107.377,47.2441 "/>
<polyline clip-path="url(#clip372)" style="stroke:#000000; stroke-linecap:round; stroke-linejoin:round; stroke-width:2; stroke-opacity:0.1; fill:none" points="548.722,1254.52 548.722,47.2441 "/>
<polyline clip-path="url(#clip372)" style="stroke:#000000; stroke-linecap:round; stroke-linejoin:round; stroke-width:2; stroke-opacity:0.1; fill:none" points="990.067,1254.52 990.067,47.2441 "/>
<polyline clip-path="url(#clip372)" style="stroke:#000000; stroke-linecap:round; stroke-linejoin:round; stroke-width:2; stroke-opacity:0.1; fill:none" points="1431.41,1254.52 1431.41,47.2441 "/>
<polyline clip-path="url(#clip372)" style="stroke:#000000; stroke-linecap:round; stroke-linejoin:round; stroke-width:2; stroke-opacity:0.1; fill:none" points="1872.76,1254.52 1872.76,47.2441 "/>
<polyline clip-path="url(#clip372)" style="stroke:#000000; stroke-linecap:round; stroke-linejoin:round; stroke-width:2; stroke-opacity:0.1; fill:none" points="107.377,1254.52 1872.76,1254.52 "/>
<polyline clip-path="url(#clip372)" style="stroke:#000000; stroke-linecap:round; stroke-linejoin:round; stroke-width:2; stroke-opacity:0.1; fill:none" points="107.377,981.689 1872.76,981.689 "/>
<polyline clip-path="url(#clip372)" style="stroke:#000000; stroke-linecap:round; stroke-linejoin:round; stroke-width:2; stroke-opacity:0.1; fill:none" points="107.377,708.858 1872.76,708.858 "/>
<polyline clip-path="url(#clip372)" style="stroke:#000000; stroke-linecap:round; stroke-linejoin:round; stroke-width:2; stroke-opacity:0.1; fill:none" points="107.377,436.028 1872.76,436.028 "/>
<polyline clip-path="url(#clip372)" style="stroke:#000000; stroke-linecap:round; stroke-linejoin:round; stroke-width:2; stroke-opacity:0.1; fill:none" points="107.377,163.197 1872.76,163.197 "/>
<polyline clip-path="url(#clip370)" style="stroke:#000000; stroke-linecap:round; stroke-linejoin:round; stroke-width:4; stroke-opacity:1; fill:none" points="107.377,1254.52 1872.76,1254.52 "/>
<polyline clip-path="url(#clip370)" style="stroke:#000000; stroke-linecap:round; stroke-linejoin:round; stroke-width:4; stroke-opacity:1; fill:none" points="107.377,1254.52 107.377,1235.62 "/>
<polyline clip-path="url(#clip370)" style="stroke:#000000; stroke-linecap:round; stroke-linejoin:round; stroke-width:4; stroke-opacity:1; fill:none" points="548.722,1254.52 548.722,1235.62 "/>
<polyline clip-path="url(#clip370)" style="stroke:#000000; stroke-linecap:round; stroke-linejoin:round; stroke-width:4; stroke-opacity:1; fill:none" points="990.067,1254.52 990.067,1235.62 "/>
<polyline clip-path="url(#clip370)" style="stroke:#000000; stroke-linecap:round; stroke-linejoin:round; stroke-width:4; stroke-opacity:1; fill:none" points="1431.41,1254.52 1431.41,1235.62 "/>
<polyline clip-path="url(#clip370)" style="stroke:#000000; stroke-linecap:round; stroke-linejoin:round; stroke-width:4; stroke-opacity:1; fill:none" points="1872.76,1254.52 1872.76,1235.62 "/>
<path clip-path="url(#clip370)" d="M84.7616 1281.6 Q81.1505 1281.6 79.3218 1285.16 Q77.5162 1288.7 77.5162 1295.83 Q77.5162 1302.94 79.3218 1306.51 Q81.1505 1310.05 84.7616 1310.05 Q88.3958 1310.05 90.2013 1306.51 Q92.03 1302.94 92.03 1295.83 Q92.03 1288.7 90.2013 1285.16 Q88.3958 1281.6 84.7616 1281.6 M84.7616 1277.89 Q90.5717 1277.89 93.6272 1282.5 Q96.7059 1287.08 96.7059 1295.83 Q96.7059 1304.56 93.6272 1309.17 Q90.5717 1313.75 84.7616 1313.75 Q78.9514 1313.75 75.8727 1309.17 Q72.8172 1304.56 72.8172 1295.83 Q72.8172 1287.08 75.8727 1282.5 Q78.9514 1277.89 84.7616 1277.89 Z" fill="#000000" fill-rule="nonzero" fill-opacity="1" /><path clip-path="url(#clip370)" d="M104.923 1307.2 L109.808 1307.2 L109.808 1313.08 L104.923 1313.08 L104.923 1307.2 Z" fill="#000000" fill-rule="nonzero" fill-opacity="1" /><path clip-path="url(#clip370)" d="M129.993 1281.6 Q126.382 1281.6 124.553 1285.16 Q122.747 1288.7 122.747 1295.83 Q122.747 1302.94 124.553 1306.51 Q126.382 1310.05 129.993 1310.05 Q133.627 1310.05 135.433 1306.51 Q137.261 1302.94 137.261 1295.83 Q137.261 1288.7 135.433 1285.16 Q133.627 1281.6 129.993 1281.6 M129.993 1277.89 Q135.803 1277.89 138.858 1282.5 Q141.937 1287.08 141.937 1295.83 Q141.937 1304.56 138.858 1309.17 Q135.803 1313.75 129.993 1313.75 Q124.183 1313.75 121.104 1309.17 Q118.048 1304.56 118.048 1295.83 Q118.048 1287.08 121.104 1282.5 Q124.183 1277.89 129.993 1277.89 Z" fill="#000000" fill-rule="nonzero" fill-opacity="1" /><path clip-path="url(#clip370)" d="M526.72 1281.6 Q523.109 1281.6 521.28 1285.16 Q519.474 1288.7 519.474 1295.83 Q519.474 1302.94 521.28 1306.51 Q523.109 1310.05 526.72 1310.05 Q530.354 1310.05 532.159 1306.51 Q533.988 1302.94 533.988 1295.83 Q533.988 1288.7 532.159 1285.16 Q530.354 1281.6 526.72 1281.6 M526.72 1277.89 Q532.53 1277.89 535.585 1282.5 Q538.664 1287.08 538.664 1295.83 Q538.664 1304.56 535.585 1309.17 Q532.53 1313.75 526.72 1313.75 Q520.91 1313.75 517.831 1309.17 Q514.775 1304.56 514.775 1295.83 Q514.775 1287.08 517.831 1282.5 Q520.91 1277.89 526.72 1277.89 Z" fill="#000000" fill-rule="nonzero" fill-opacity="1" /><path clip-path="url(#clip370)" d="M546.882 1307.2 L551.766 1307.2 L551.766 1313.08 L546.882 1313.08 L546.882 1307.2 Z" fill="#000000" fill-rule="nonzero" fill-opacity="1" /><path clip-path="url(#clip370)" d="M562.761 1309.14 L570.4 1309.14 L570.4 1282.78 L562.09 1284.45 L562.09 1280.19 L570.354 1278.52 L575.03 1278.52 L575.03 1309.14 L582.668 1309.14 L582.668 1313.08 L562.761 1313.08 L562.761 1309.14 Z" fill="#000000" fill-rule="nonzero" fill-opacity="1" /><path clip-path="url(#clip370)" d="M968.25 1281.6 Q964.638 1281.6 962.81 1285.16 Q961.004 1288.7 961.004 1295.83 Q961.004 1302.94 962.81 1306.51 Q964.638 1310.05 968.25 1310.05 Q971.884 1310.05 973.689 1306.51 Q975.518 1302.94 975.518 1295.83 Q975.518 1288.7 973.689 1285.16 Q971.884 1281.6 968.25 1281.6 M968.25 1277.89 Q974.06 1277.89 977.115 1282.5 Q980.194 1287.08 980.194 1295.83 Q980.194 1304.56 977.115 1309.17 Q974.06 1313.75 968.25 1313.75 Q962.439 1313.75 959.361 1309.17 Q956.305 1304.56 956.305 1295.83 Q956.305 1287.08 959.361 1282.5 Q962.439 1277.89 968.25 1277.89 Z" fill="#000000" fill-rule="nonzero" fill-opacity="1" /><path clip-path="url(#clip370)" d="M988.411 1307.2 L993.296 1307.2 L993.296 1313.08 L988.411 1313.08 L988.411 1307.2 Z" fill="#000000" fill-rule="nonzero" fill-opacity="1" /><path clip-path="url(#clip370)" d="M1007.51 1309.14 L1023.83 1309.14 L1023.83 1313.08 L1001.88 1313.08 L1001.88 1309.14 Q1004.55 1306.39 1009.13 1301.76 Q1013.74 1297.11 1014.92 1295.77 Q1017.16 1293.24 1018.04 1291.51 Q1018.94 1289.75 1018.94 1288.06 Q1018.94 1285.3 1017 1283.57 Q1015.08 1281.83 1011.98 1281.83 Q1009.78 1281.83 1007.32 1282.59 Q1004.89 1283.36 1002.12 1284.91 L1002.12 1280.19 Q1004.94 1279.05 1007.39 1278.47 Q1009.85 1277.89 1011.88 1277.89 Q1017.25 1277.89 1020.45 1280.58 Q1023.64 1283.27 1023.64 1287.76 Q1023.64 1289.89 1022.83 1291.81 Q1022.05 1293.7 1019.94 1296.3 Q1019.36 1296.97 1016.26 1300.19 Q1013.16 1303.38 1007.51 1309.14 Z" fill="#000000" fill-rule="nonzero" fill-opacity="1" /><path clip-path="url(#clip370)" d="M1409.12 1281.6 Q1405.51 1281.6 1403.68 1285.16 Q1401.87 1288.7 1401.87 1295.83 Q1401.87 1302.94 1403.68 1306.51 Q1405.51 1310.05 1409.12 1310.05 Q1412.75 1310.05 1414.56 1306.51 Q1416.39 1302.94 1416.39 1295.83 Q1416.39 1288.7 1414.56 1285.16 Q1412.75 1281.6 1409.12 1281.6 M1409.12 1277.89 Q1414.93 1277.89 1417.99 1282.5 Q1421.06 1287.08 1421.06 1295.83 Q1421.06 1304.56 1417.99 1309.17 Q1414.93 1313.75 1409.12 1313.75 Q1403.31 1313.75 1400.23 1309.17 Q1397.18 1304.56 1397.18 1295.83 Q1397.18 1287.08 1400.23 1282.5 Q1403.31 1277.89 1409.12 1277.89 Z" fill="#000000" fill-rule="nonzero" fill-opacity="1" /><path clip-path="url(#clip370)" d="M1429.28 1307.2 L1434.17 1307.2 L1434.17 1313.08 L1429.28 1313.08 L1429.28 1307.2 Z" fill="#000000" fill-rule="nonzero" fill-opacity="1" /><path clip-path="url(#clip370)" d="M1458.52 1294.45 Q1461.87 1295.16 1463.75 1297.43 Q1465.65 1299.7 1465.65 1303.03 Q1465.65 1308.15 1462.13 1310.95 Q1458.61 1313.75 1452.13 1313.75 Q1449.95 1313.75 1447.64 1313.31 Q1445.35 1312.89 1442.89 1312.04 L1442.89 1307.52 Q1444.84 1308.66 1447.15 1309.24 Q1449.47 1309.82 1451.99 1309.82 Q1456.39 1309.82 1458.68 1308.08 Q1460.99 1306.34 1460.99 1303.03 Q1460.99 1299.98 1458.84 1298.27 Q1456.71 1296.53 1452.89 1296.53 L1448.86 1296.53 L1448.86 1292.69 L1453.08 1292.69 Q1456.53 1292.69 1458.36 1291.32 Q1460.18 1289.93 1460.18 1287.34 Q1460.18 1284.68 1458.29 1283.27 Q1456.41 1281.83 1452.89 1281.83 Q1450.97 1281.83 1448.77 1282.25 Q1446.57 1282.66 1443.93 1283.54 L1443.93 1279.38 Q1446.6 1278.64 1448.91 1278.27 Q1451.25 1277.89 1453.31 1277.89 Q1458.63 1277.89 1461.74 1280.33 Q1464.84 1282.73 1464.84 1286.85 Q1464.84 1289.72 1463.19 1291.71 Q1461.55 1293.68 1458.52 1294.45 Z" fill="#000000" fill-rule="nonzero" fill-opacity="1" /><path clip-path="url(#clip370)" d="M1849.9 1281.6 Q1846.29 1281.6 1844.46 1285.16 Q1842.65 1288.7 1842.65 1295.83 Q1842.65 1302.94 1844.46 1306.51 Q1846.29 1310.05 1849.9 1310.05 Q1853.53 1310.05 1855.34 1306.51 Q1857.17 1302.94 1857.17 1295.83 Q1857.17 1288.7 1855.34 1285.16 Q1853.53 1281.6 1849.9 1281.6 M1849.9 1277.89 Q1855.71 1277.89 1858.76 1282.5 Q1861.84 1287.08 1861.84 1295.83 Q1861.84 1304.56 1858.76 1309.17 Q1855.71 1313.75 1849.9 1313.75 Q1844.09 1313.75 1841.01 1309.17 Q1837.95 1304.56 1837.95 1295.83 Q1837.95 1287.08 1841.01 1282.5 Q1844.09 1277.89 1849.9 1277.89 Z" fill="#000000" fill-rule="nonzero" fill-opacity="1" /><path clip-path="url(#clip370)" d="M1870.06 1307.2 L1874.94 1307.2 L1874.94 1313.08 L1870.06 1313.08 L1870.06 1307.2 Z" fill="#000000" fill-rule="nonzero" fill-opacity="1" /><path clip-path="url(#clip370)" d="M1897.98 1282.59 L1886.17 1301.04 L1897.98 1301.04 L1897.98 1282.59 M1896.75 1278.52 L1902.63 1278.52 L1902.63 1301.04 L1907.56 1301.04 L1907.56 1304.93 L1902.63 1304.93 L1902.63 1313.08 L1897.98 1313.08 L1897.98 1304.93 L1882.37 1304.93 L1882.37 1300.42 L1896.75 1278.52 Z" fill="#000000" fill-rule="nonzero" fill-opacity="1" /><path clip-path="url(#clip370)" d="M1002 1353.36 Q1002 1358.77 1000.26 1364.85 Q998.556 1370.91 995.851 1375.8 Q993.146 1380.67 989.603 1383.89 Q986.06 1387.08 982.679 1387.08 Q980.521 1387.08 978.911 1385.88 Q977.332 1384.66 976.463 1382.63 Q975.593 1380.57 975.175 1378.32 Q974.756 1376.03 974.756 1373.55 Q974.756 1369.84 975.561 1365.82 Q976.366 1361.76 977.719 1358.09 Q979.072 1354.39 980.972 1351.04 Q982.872 1347.66 984.965 1345.21 Q987.091 1342.73 989.474 1341.28 Q991.857 1339.83 994.08 1339.83 Q995.69 1339.83 996.978 1340.54 Q998.298 1341.21 999.136 1342.41 Q999.973 1343.56 1000.55 1344.95 Q1001.16 1346.33 1001.45 1347.94 Q1001.74 1349.52 1001.87 1350.84 Q1002 1352.13 1002 1353.36 M997.654 1349.27 Q997.654 1347.62 997.526 1346.4 Q997.397 1345.14 997.042 1343.89 Q996.688 1342.63 995.915 1341.95 Q995.175 1341.28 994.015 1341.28 Q990.633 1341.28 986.833 1348.2 Q985.609 1350.36 984.514 1353.29 Q983.419 1356.22 983.033 1357.61 Q982.646 1358.99 981.745 1362.41 L995.529 1362.41 Q997.654 1353.61 997.654 1349.27 M994.949 1364.5 L981.229 1364.5 Q979.104 1372.55 979.104 1377.57 Q979.104 1381.95 980.006 1383.79 Q980.94 1385.59 982.679 1385.59 Q984.675 1385.59 986.543 1383.6 Q988.411 1381.57 990.311 1377.9 Q992.823 1373.13 994.949 1364.5 Z" fill="#000000" fill-rule="nonzero" fill-opacity="1" /><polyline clip-path="url(#clip370)" style="stroke:#000000; stroke-linecap:round; stroke-linejoin:round; stroke-width:4; stroke-opacity:1; fill:none" points="107.377,1254.52 107.377,47.2441 "/>
<polyline clip-path="url(#clip370)" style="stroke:#000000; stroke-linecap:round; stroke-linejoin:round; stroke-width:4; stroke-opacity:1; fill:none" points="107.377,1254.52 126.275,1254.52 "/>
<polyline clip-path="url(#clip370)" style="stroke:#000000; stroke-linecap:round; stroke-linejoin:round; stroke-width:4; stroke-opacity:1; fill:none" points="107.377,981.689 126.275,981.689 "/>
<polyline clip-path="url(#clip370)" style="stroke:#000000; stroke-linecap:round; stroke-linejoin:round; stroke-width:4; stroke-opacity:1; fill:none" points="107.377,708.858 126.275,708.858 "/>
<polyline clip-path="url(#clip370)" style="stroke:#000000; stroke-linecap:round; stroke-linejoin:round; stroke-width:4; stroke-opacity:1; fill:none" points="107.377,436.028 126.275,436.028 "/>
<polyline clip-path="url(#clip370)" style="stroke:#000000; stroke-linecap:round; stroke-linejoin:round; stroke-width:4; stroke-opacity:1; fill:none" points="107.377,163.197 126.275,163.197 "/>
<path clip-path="url(#clip370)" d="M66.6328 1240.32 Q63.0217 1240.32 61.193 1243.88 Q59.3875 1247.42 59.3875 1254.55 Q59.3875 1261.66 61.193 1265.23 Q63.0217 1268.77 66.6328 1268.77 Q70.267 1268.77 72.0726 1265.23 Q73.9013 1261.66 73.9013 1254.55 Q73.9013 1247.42 72.0726 1243.88 Q70.267 1240.32 66.6328 1240.32 M66.6328 1236.61 Q72.4429 1236.61 75.4985 1241.22 Q78.5772 1245.8 78.5772 1254.55 Q78.5772 1263.28 75.4985 1267.89 Q72.4429 1272.47 66.6328 1272.47 Q60.8226 1272.47 57.744 1267.89 Q54.6884 1263.28 54.6884 1254.55 Q54.6884 1245.8 57.744 1241.22 Q60.8226 1236.61 66.6328 1236.61 Z" fill="#000000" fill-rule="nonzero" fill-opacity="1" /><path clip-path="url(#clip370)" d="M62.2578 995.034 L78.5772 995.034 L78.5772 998.969 L56.6328 998.969 L56.6328 995.034 Q59.2949 992.279 63.8782 987.65 Q68.4846 982.997 69.6652 981.654 Q71.9105 979.131 72.7902 977.395 Q73.6929 975.636 73.6929 973.946 Q73.6929 971.192 71.7485 969.455 Q69.8272 967.719 66.7254 967.719 Q64.5263 967.719 62.0726 968.483 Q59.6421 969.247 56.8643 970.798 L56.8643 966.076 Q59.6884 964.942 62.1421 964.363 Q64.5958 963.784 66.6328 963.784 Q72.0031 963.784 75.1976 966.469 Q78.392 969.155 78.392 973.645 Q78.392 975.775 77.5818 977.696 Q76.7948 979.594 74.6883 982.187 Q74.1096 982.858 71.0078 986.076 Q67.9059 989.27 62.2578 995.034 Z" fill="#000000" fill-rule="nonzero" fill-opacity="1" /><path clip-path="url(#clip370)" d="M68.9939 695.653 L57.1884 714.102 L68.9939 714.102 L68.9939 695.653 M67.767 691.578 L73.6466 691.578 L73.6466 714.102 L78.5772 714.102 L78.5772 717.99 L73.6466 717.99 L73.6466 726.138 L68.9939 726.138 L68.9939 717.99 L53.3921 717.99 L53.3921 713.477 L67.767 691.578 Z" fill="#000000" fill-rule="nonzero" fill-opacity="1" /><path clip-path="url(#clip370)" d="M67.0495 434.164 Q63.9013 434.164 62.0495 436.317 Q60.2208 438.47 60.2208 442.22 Q60.2208 445.947 62.0495 448.123 Q63.9013 450.275 67.0495 450.275 Q70.1976 450.275 72.0263 448.123 Q73.8781 445.947 73.8781 442.22 Q73.8781 438.47 72.0263 436.317 Q70.1976 434.164 67.0495 434.164 M76.3318 419.512 L76.3318 423.771 Q74.5726 422.938 72.767 422.498 Q70.9846 422.058 69.2254 422.058 Q64.5958 422.058 62.1421 425.183 Q59.7115 428.308 59.3643 434.627 Q60.73 432.613 62.7902 431.549 Q64.8504 430.461 67.3272 430.461 Q72.5355 430.461 75.5448 433.632 Q78.5772 436.78 78.5772 442.22 Q78.5772 447.544 75.429 450.762 Q72.2809 453.979 67.0495 453.979 Q61.0541 453.979 57.8828 449.396 Q54.7116 444.789 54.7116 436.063 Q54.7116 427.868 58.6004 423.007 Q62.4893 418.123 69.0402 418.123 Q70.7994 418.123 72.5818 418.47 Q74.3874 418.817 76.3318 419.512 Z" fill="#000000" fill-rule="nonzero" fill-opacity="1" /><path clip-path="url(#clip370)" d="M66.7254 164.065 Q63.3921 164.065 61.4708 165.848 Q59.5726 167.63 59.5726 170.755 Q59.5726 173.88 61.4708 175.662 Q63.3921 177.445 66.7254 177.445 Q70.0587 177.445 71.98 175.662 Q73.9013 173.857 73.9013 170.755 Q73.9013 167.63 71.98 165.848 Q70.0819 164.065 66.7254 164.065 M62.0495 162.074 Q59.0402 161.334 57.3504 159.274 Q55.6838 157.213 55.6838 154.25 Q55.6838 150.107 58.6236 147.7 Q61.5865 145.292 66.7254 145.292 Q71.8874 145.292 74.8272 147.7 Q77.767 150.107 77.767 154.25 Q77.767 157.213 76.0772 159.274 Q74.4105 161.334 71.4244 162.074 Q74.804 162.861 76.679 165.153 Q78.5772 167.445 78.5772 170.755 Q78.5772 175.778 75.4985 178.463 Q72.4429 181.148 66.7254 181.148 Q61.0078 181.148 57.9291 178.463 Q54.8736 175.778 54.8736 170.755 Q54.8736 167.445 56.7717 165.153 Q58.6699 162.861 62.0495 162.074 M60.3365 154.69 Q60.3365 157.375 62.0032 158.88 Q63.693 160.385 66.7254 160.385 Q69.7346 160.385 71.4244 158.88 Q73.1374 157.375 73.1374 154.69 Q73.1374 152.005 71.4244 150.5 Q69.7346 148.996 66.7254 148.996 Q63.693 148.996 62.0032 150.5 Q60.3365 152.005 60.3365 154.69 Z" fill="#000000" fill-rule="nonzero" fill-opacity="1" /><path clip-path="url(#clip372)" d="M107.377 1165.85 L107.377 1254.52 L151.512 1254.52 L151.512 1165.85 L107.377 1165.85 L107.377 1165.85  Z" fill="#009af9" fill-rule="evenodd" fill-opacity="1"/>
<polyline clip-path="url(#clip372)" style="stroke:#000000; stroke-linecap:round; stroke-linejoin:round; stroke-width:4; stroke-opacity:1; fill:none" points="107.377,1165.85 107.377,1254.52 151.512,1254.52 151.512,1165.85 107.377,1165.85 "/>
<path clip-path="url(#clip372)" d="M151.512 817.991 L151.512 1254.52 L195.646 1254.52 L195.646 817.991 L151.512 817.991 L151.512 817.991  Z" fill="#009af9" fill-rule="evenodd" fill-opacity="1"/>
<polyline clip-path="url(#clip372)" style="stroke:#000000; stroke-linecap:round; stroke-linejoin:round; stroke-width:4; stroke-opacity:1; fill:none" points="151.512,817.991 151.512,1254.52 195.646,1254.52 195.646,817.991 151.512,817.991 "/>
<path clip-path="url(#clip372)" d="M195.646 729.321 L195.646 1254.52 L239.781 1254.52 L239.781 729.321 L195.646 729.321 L195.646 729.321  Z" fill="#009af9" fill-rule="evenodd" fill-opacity="1"/>
<polyline clip-path="url(#clip372)" style="stroke:#000000; stroke-linecap:round; stroke-linejoin:round; stroke-width:4; stroke-opacity:1; fill:none" points="195.646,729.321 195.646,1254.52 239.781,1254.52 239.781,729.321 195.646,729.321 "/>
<path clip-path="url(#clip372)" d="M239.781 354.179 L239.781 1254.52 L283.915 1254.52 L283.915 354.179 L239.781 354.179 L239.781 354.179  Z" fill="#009af9" fill-rule="evenodd" fill-opacity="1"/>
<polyline clip-path="url(#clip372)" style="stroke:#000000; stroke-linecap:round; stroke-linejoin:round; stroke-width:4; stroke-opacity:1; fill:none" points="239.781,354.179 239.781,1254.52 283.915,1254.52 283.915,354.179 239.781,354.179 "/>
<path clip-path="url(#clip372)" d="M283.915 245.046 L283.915 1254.52 L328.05 1254.52 L328.05 245.046 L283.915 245.046 L283.915 245.046  Z" fill="#009af9" fill-rule="evenodd" fill-opacity="1"/>
<polyline clip-path="url(#clip372)" style="stroke:#000000; stroke-linecap:round; stroke-linejoin:round; stroke-width:4; stroke-opacity:1; fill:none" points="283.915,245.046 283.915,1254.52 328.05,1254.52 328.05,245.046 283.915,245.046 "/>
<path clip-path="url(#clip372)" d="M328.05 60.8856 L328.05 1254.52 L372.184 1254.52 L372.184 60.8856 L328.05 60.8856 L328.05 60.8856  Z" fill="#009af9" fill-rule="evenodd" fill-opacity="1"/>
<polyline clip-path="url(#clip372)" style="stroke:#000000; stroke-linecap:round; stroke-linejoin:round; stroke-width:4; stroke-opacity:1; fill:none" points="328.05,60.8856 328.05,1254.52 372.184,1254.52 372.184,60.8856 328.05,60.8856 "/>
<path clip-path="url(#clip372)" d="M372.184 142.735 L372.184 1254.52 L416.318 1254.52 L416.318 142.735 L372.184 142.735 L372.184 142.735  Z" fill="#009af9" fill-rule="evenodd" fill-opacity="1"/>
<polyline clip-path="url(#clip372)" style="stroke:#000000; stroke-linecap:round; stroke-linejoin:round; stroke-width:4; stroke-opacity:1; fill:none" points="372.184,142.735 372.184,1254.52 416.318,1254.52 416.318,142.735 372.184,142.735 "/>
<path clip-path="url(#clip372)" d="M416.318 74.5272 L416.318 1254.52 L460.453 1254.52 L460.453 74.5272 L416.318 74.5272 L416.318 74.5272  Z" fill="#009af9" fill-rule="evenodd" fill-opacity="1"/>
<polyline clip-path="url(#clip372)" style="stroke:#000000; stroke-linecap:round; stroke-linejoin:round; stroke-width:4; stroke-opacity:1; fill:none" points="416.318,74.5272 416.318,1254.52 460.453,1254.52 460.453,74.5272 416.318,74.5272 "/>
<path clip-path="url(#clip372)" d="M460.453 47.2441 L460.453 1254.52 L504.587 1254.52 L504.587 47.2441 L460.453 47.2441 L460.453 47.2441  Z" fill="#009af9" fill-rule="evenodd" fill-opacity="1"/>
<polyline clip-path="url(#clip372)" style="stroke:#000000; stroke-linecap:round; stroke-linejoin:round; stroke-width:4; stroke-opacity:1; fill:none" points="460.453,47.2441 460.453,1254.52 504.587,1254.52 504.587,47.2441 460.453,47.2441 "/>
<path clip-path="url(#clip372)" d="M504.587 374.641 L504.587 1254.52 L548.722 1254.52 L548.722 374.641 L504.587 374.641 L504.587 374.641  Z" fill="#009af9" fill-rule="evenodd" fill-opacity="1"/>
<polyline clip-path="url(#clip372)" style="stroke:#000000; stroke-linecap:round; stroke-linejoin:round; stroke-width:4; stroke-opacity:1; fill:none" points="504.587,374.641 504.587,1254.52 548.722,1254.52 548.722,374.641 504.587,374.641 "/>
<path clip-path="url(#clip372)" d="M548.722 599.726 L548.722 1254.52 L592.856 1254.52 L592.856 599.726 L548.722 599.726 L548.722 599.726  Z" fill="#009af9" fill-rule="evenodd" fill-opacity="1"/>
<polyline clip-path="url(#clip372)" style="stroke:#000000; stroke-linecap:round; stroke-linejoin:round; stroke-width:4; stroke-opacity:1; fill:none" points="548.722,599.726 548.722,1254.52 592.856,1254.52 592.856,599.726 548.722,599.726 "/>
<path clip-path="url(#clip372)" d="M592.856 463.311 L592.856 1254.52 L636.991 1254.52 L636.991 463.311 L592.856 463.311 L592.856 463.311  Z" fill="#009af9" fill-rule="evenodd" fill-opacity="1"/>
<polyline clip-path="url(#clip372)" style="stroke:#000000; stroke-linecap:round; stroke-linejoin:round; stroke-width:4; stroke-opacity:1; fill:none" points="592.856,463.311 592.856,1254.52 636.991,1254.52 636.991,463.311 592.856,463.311 "/>
<path clip-path="url(#clip372)" d="M636.991 558.802 L636.991 1254.52 L681.125 1254.52 L681.125 558.802 L636.991 558.802 L636.991 558.802  Z" fill="#009af9" fill-rule="evenodd" fill-opacity="1"/>
<polyline clip-path="url(#clip372)" style="stroke:#000000; stroke-linecap:round; stroke-linejoin:round; stroke-width:4; stroke-opacity:1; fill:none" points="636.991,558.802 636.991,1254.52 681.125,1254.52 681.125,558.802 636.991,558.802 "/>
<path clip-path="url(#clip372)" d="M681.125 756.604 L681.125 1254.52 L725.26 1254.52 L725.26 756.604 L681.125 756.604 L681.125 756.604  Z" fill="#009af9" fill-rule="evenodd" fill-opacity="1"/>
<polyline clip-path="url(#clip372)" style="stroke:#000000; stroke-linecap:round; stroke-linejoin:round; stroke-width:4; stroke-opacity:1; fill:none" points="681.125,756.604 681.125,1254.52 725.26,1254.52 725.26,756.604 681.125,756.604 "/>
<path clip-path="url(#clip372)" d="M725.26 865.736 L725.26 1254.52 L769.394 1254.52 L769.394 865.736 L725.26 865.736 L725.26 865.736  Z" fill="#009af9" fill-rule="evenodd" fill-opacity="1"/>
<polyline clip-path="url(#clip372)" style="stroke:#000000; stroke-linecap:round; stroke-linejoin:round; stroke-width:4; stroke-opacity:1; fill:none" points="725.26,865.736 725.26,1254.52 769.394,1254.52 769.394,865.736 725.26,865.736 "/>
<path clip-path="url(#clip372)" d="M769.394 811.17 L769.394 1254.52 L813.529 1254.52 L813.529 811.17 L769.394 811.17 L769.394 811.17  Z" fill="#009af9" fill-rule="evenodd" fill-opacity="1"/>
<polyline clip-path="url(#clip372)" style="stroke:#000000; stroke-linecap:round; stroke-linejoin:round; stroke-width:4; stroke-opacity:1; fill:none" points="769.394,811.17 769.394,1254.52 813.529,1254.52 813.529,811.17 769.394,811.17 "/>
<path clip-path="url(#clip372)" d="M813.529 927.123 L813.529 1254.52 L857.663 1254.52 L857.663 927.123 L813.529 927.123 L813.529 927.123  Z" fill="#009af9" fill-rule="evenodd" fill-opacity="1"/>
<polyline clip-path="url(#clip372)" style="stroke:#000000; stroke-linecap:round; stroke-linejoin:round; stroke-width:4; stroke-opacity:1; fill:none" points="813.529,927.123 813.529,1254.52 857.663,1254.52 857.663,927.123 813.529,927.123 "/>
<path clip-path="url(#clip372)" d="M857.663 1015.79 L857.663 1254.52 L901.798 1254.52 L901.798 1015.79 L857.663 1015.79 L857.663 1015.79  Z" fill="#009af9" fill-rule="evenodd" fill-opacity="1"/>
<polyline clip-path="url(#clip372)" style="stroke:#000000; stroke-linecap:round; stroke-linejoin:round; stroke-width:4; stroke-opacity:1; fill:none" points="857.663,1015.79 857.663,1254.52 901.798,1254.52 901.798,1015.79 857.663,1015.79 "/>
<path clip-path="url(#clip372)" d="M901.798 1043.08 L901.798 1254.52 L945.932 1254.52 L945.932 1043.08 L901.798 1043.08 L901.798 1043.08  Z" fill="#009af9" fill-rule="evenodd" fill-opacity="1"/>
<polyline clip-path="url(#clip372)" style="stroke:#000000; stroke-linecap:round; stroke-linejoin:round; stroke-width:4; stroke-opacity:1; fill:none" points="901.798,1043.08 901.798,1254.52 945.932,1254.52 945.932,1043.08 901.798,1043.08 "/>
<path clip-path="url(#clip372)" d="M945.932 1070.36 L945.932 1254.52 L990.067 1254.52 L990.067 1070.36 L945.932 1070.36 L945.932 1070.36  Z" fill="#009af9" fill-rule="evenodd" fill-opacity="1"/>
<polyline clip-path="url(#clip372)" style="stroke:#000000; stroke-linecap:round; stroke-linejoin:round; stroke-width:4; stroke-opacity:1; fill:none" points="945.932,1070.36 945.932,1254.52 990.067,1254.52 990.067,1070.36 945.932,1070.36 "/>
<path clip-path="url(#clip372)" d="M990.067 1070.36 L990.067 1254.52 L1034.2 1254.52 L1034.2 1070.36 L990.067 1070.36 L990.067 1070.36  Z" fill="#009af9" fill-rule="evenodd" fill-opacity="1"/>
<polyline clip-path="url(#clip372)" style="stroke:#000000; stroke-linecap:round; stroke-linejoin:round; stroke-width:4; stroke-opacity:1; fill:none" points="990.067,1070.36 990.067,1254.52 1034.2,1254.52 1034.2,1070.36 990.067,1070.36 "/>
<path clip-path="url(#clip372)" d="M1034.2 1138.57 L1034.2 1254.52 L1078.34 1254.52 L1078.34 1138.57 L1034.2 1138.57 L1034.2 1138.57  Z" fill="#009af9" fill-rule="evenodd" fill-opacity="1"/>
<polyline clip-path="url(#clip372)" style="stroke:#000000; stroke-linecap:round; stroke-linejoin:round; stroke-width:4; stroke-opacity:1; fill:none" points="1034.2,1138.57 1034.2,1254.52 1078.34,1254.52 1078.34,1138.57 1034.2,1138.57 "/>
<path clip-path="url(#clip372)" d="M1078.34 1172.67 L1078.34 1254.52 L1122.47 1254.52 L1122.47 1172.67 L1078.34 1172.67 L1078.34 1172.67  Z" fill="#009af9" fill-rule="evenodd" fill-opacity="1"/>
<polyline clip-path="url(#clip372)" style="stroke:#000000; stroke-linecap:round; stroke-linejoin:round; stroke-width:4; stroke-opacity:1; fill:none" points="1078.34,1172.67 1078.34,1254.52 1122.47,1254.52 1122.47,1172.67 1078.34,1172.67 "/>
<path clip-path="url(#clip372)" d="M1122.47 1186.31 L1122.47 1254.52 L1166.6 1254.52 L1166.6 1186.31 L1122.47 1186.31 L1122.47 1186.31  Z" fill="#009af9" fill-rule="evenodd" fill-opacity="1"/>
<polyline clip-path="url(#clip372)" style="stroke:#000000; stroke-linecap:round; stroke-linejoin:round; stroke-width:4; stroke-opacity:1; fill:none" points="1122.47,1186.31 1122.47,1254.52 1166.6,1254.52 1166.6,1186.31 1122.47,1186.31 "/>
<path clip-path="url(#clip372)" d="M1166.6 1206.77 L1166.6 1254.52 L1210.74 1254.52 L1210.74 1206.77 L1166.6 1206.77 L1166.6 1206.77  Z" fill="#009af9" fill-rule="evenodd" fill-opacity="1"/>
<polyline clip-path="url(#clip372)" style="stroke:#000000; stroke-linecap:round; stroke-linejoin:round; stroke-width:4; stroke-opacity:1; fill:none" points="1166.6,1206.77 1166.6,1254.52 1210.74,1254.52 1210.74,1206.77 1166.6,1206.77 "/>
<path clip-path="url(#clip372)" d="M1210.74 1234.06 L1210.74 1254.52 L1254.87 1254.52 L1254.87 1234.06 L1210.74 1234.06 L1210.74 1234.06  Z" fill="#009af9" fill-rule="evenodd" fill-opacity="1"/>
<polyline clip-path="url(#clip372)" style="stroke:#000000; stroke-linecap:round; stroke-linejoin:round; stroke-width:4; stroke-opacity:1; fill:none" points="1210.74,1234.06 1210.74,1254.52 1254.87,1254.52 1254.87,1234.06 1210.74,1234.06 "/>
<path clip-path="url(#clip372)" d="M1254.87 1247.7 L1254.87 1254.52 L1299.01 1254.52 L1299.01 1247.7 L1254.87 1247.7 L1254.87 1247.7  Z" fill="#009af9" fill-rule="evenodd" fill-opacity="1"/>
<polyline clip-path="url(#clip372)" style="stroke:#000000; stroke-linecap:round; stroke-linejoin:round; stroke-width:4; stroke-opacity:1; fill:none" points="1254.87,1247.7 1254.87,1254.52 1299.01,1254.52 1299.01,1247.7 1254.87,1247.7 "/>
<path clip-path="url(#clip372)" d="M1299.01 1213.6 L1299.01 1254.52 L1343.14 1254.52 L1343.14 1213.6 L1299.01 1213.6 L1299.01 1213.6  Z" fill="#009af9" fill-rule="evenodd" fill-opacity="1"/>
<polyline clip-path="url(#clip372)" style="stroke:#000000; stroke-linecap:round; stroke-linejoin:round; stroke-width:4; stroke-opacity:1; fill:none" points="1299.01,1213.6 1299.01,1254.52 1343.14,1254.52 1343.14,1213.6 1299.01,1213.6 "/>
<path clip-path="url(#clip372)" d="M1343.14 1220.42 L1343.14 1254.52 L1387.28 1254.52 L1387.28 1220.42 L1343.14 1220.42 L1343.14 1220.42  Z" fill="#009af9" fill-rule="evenodd" fill-opacity="1"/>
<polyline clip-path="url(#clip372)" style="stroke:#000000; stroke-linecap:round; stroke-linejoin:round; stroke-width:4; stroke-opacity:1; fill:none" points="1343.14,1220.42 1343.14,1254.52 1387.28,1254.52 1387.28,1220.42 1343.14,1220.42 "/>
<path clip-path="url(#clip372)" d="M1387.28 1240.88 L1387.28 1254.52 L1431.41 1254.52 L1431.41 1240.88 L1387.28 1240.88 L1387.28 1240.88  Z" fill="#009af9" fill-rule="evenodd" fill-opacity="1"/>
<polyline clip-path="url(#clip372)" style="stroke:#000000; stroke-linecap:round; stroke-linejoin:round; stroke-width:4; stroke-opacity:1; fill:none" points="1387.28,1240.88 1387.28,1254.52 1431.41,1254.52 1431.41,1240.88 1387.28,1240.88 "/>
<path clip-path="url(#clip372)" d="M1431.41 1240.88 L1431.41 1254.52 L1475.55 1254.52 L1475.55 1240.88 L1431.41 1240.88 L1431.41 1240.88  Z" fill="#009af9" fill-rule="evenodd" fill-opacity="1"/>
<polyline clip-path="url(#clip372)" style="stroke:#000000; stroke-linecap:round; stroke-linejoin:round; stroke-width:4; stroke-opacity:1; fill:none" points="1431.41,1240.88 1431.41,1254.52 1475.55,1254.52 1475.55,1240.88 1431.41,1240.88 "/>
<path clip-path="url(#clip372)" d="M1475.55 1254.52 L1475.55 1254.52 L1519.68 1254.52 L1519.68 1254.52 L1475.55 1254.52 L1475.55 1254.52  Z" fill="#009af9" fill-rule="evenodd" fill-opacity="1"/>
<polyline clip-path="url(#clip372)" style="stroke:#000000; stroke-linecap:round; stroke-linejoin:round; stroke-width:4; stroke-opacity:1; fill:none" points="1475.55,1254.52 1475.55,1254.52 1519.68,1254.52 1475.55,1254.52 "/>
<path clip-path="url(#clip372)" d="M1519.68 1247.7 L1519.68 1254.52 L1563.81 1254.52 L1563.81 1247.7 L1519.68 1247.7 L1519.68 1247.7  Z" fill="#009af9" fill-rule="evenodd" fill-opacity="1"/>
<polyline clip-path="url(#clip372)" style="stroke:#000000; stroke-linecap:round; stroke-linejoin:round; stroke-width:4; stroke-opacity:1; fill:none" points="1519.68,1247.7 1519.68,1254.52 1563.81,1254.52 1563.81,1247.7 1519.68,1247.7 "/>
<path clip-path="url(#clip372)" d="M1563.81 1254.52 L1563.81 1254.52 L1607.95 1254.52 L1607.95 1254.52 L1563.81 1254.52 L1563.81 1254.52  Z" fill="#009af9" fill-rule="evenodd" fill-opacity="1"/>
<polyline clip-path="url(#clip372)" style="stroke:#000000; stroke-linecap:round; stroke-linejoin:round; stroke-width:4; stroke-opacity:1; fill:none" points="1563.81,1254.52 1563.81,1254.52 1607.95,1254.52 1563.81,1254.52 "/>
<path clip-path="url(#clip372)" d="M1607.95 1247.7 L1607.95 1254.52 L1652.08 1254.52 L1652.08 1247.7 L1607.95 1247.7 L1607.95 1247.7  Z" fill="#009af9" fill-rule="evenodd" fill-opacity="1"/>
<polyline clip-path="url(#clip372)" style="stroke:#000000; stroke-linecap:round; stroke-linejoin:round; stroke-width:4; stroke-opacity:1; fill:none" points="1607.95,1247.7 1607.95,1254.52 1652.08,1254.52 1652.08,1247.7 1607.95,1247.7 "/>
<path clip-path="url(#clip372)" d="M1652.08 1254.52 L1652.08 1254.52 L1696.22 1254.52 L1696.22 1254.52 L1652.08 1254.52 L1652.08 1254.52  Z" fill="#009af9" fill-rule="evenodd" fill-opacity="1"/>
<polyline clip-path="url(#clip372)" style="stroke:#000000; stroke-linecap:round; stroke-linejoin:round; stroke-width:4; stroke-opacity:1; fill:none" points="1652.08,1254.52 1652.08,1254.52 1696.22,1254.52 1652.08,1254.52 "/>
<path clip-path="url(#clip372)" d="M1696.22 1240.88 L1696.22 1254.52 L1740.35 1254.52 L1740.35 1240.88 L1696.22 1240.88 L1696.22 1240.88  Z" fill="#009af9" fill-rule="evenodd" fill-opacity="1"/>
<polyline clip-path="url(#clip372)" style="stroke:#000000; stroke-linecap:round; stroke-linejoin:round; stroke-width:4; stroke-opacity:1; fill:none" points="1696.22,1240.88 1696.22,1254.52 1740.35,1254.52 1740.35,1240.88 1696.22,1240.88 "/>
<path clip-path="url(#clip372)" d="M1740.35 1254.52 L1740.35 1254.52 L1784.49 1254.52 L1784.49 1254.52 L1740.35 1254.52 L1740.35 1254.52  Z" fill="#009af9" fill-rule="evenodd" fill-opacity="1"/>
<polyline clip-path="url(#clip372)" style="stroke:#000000; stroke-linecap:round; stroke-linejoin:round; stroke-width:4; stroke-opacity:1; fill:none" points="1740.35,1254.52 1740.35,1254.52 1784.49,1254.52 1740.35,1254.52 "/>
<path clip-path="url(#clip372)" d="M1784.49 1247.7 L1784.49 1254.52 L1828.62 1254.52 L1828.62 1247.7 L1784.49 1247.7 L1784.49 1247.7  Z" fill="#009af9" fill-rule="evenodd" fill-opacity="1"/>
<polyline clip-path="url(#clip372)" style="stroke:#000000; stroke-linecap:round; stroke-linejoin:round; stroke-width:4; stroke-opacity:1; fill:none" points="1784.49,1247.7 1784.49,1254.52 1828.62,1254.52 1828.62,1247.7 1784.49,1247.7 "/>
<path clip-path="url(#clip372)" d="M1828.62 1254.52 L1828.62 1254.52 L1872.76 1254.52 L1872.76 1254.52 L1828.62 1254.52 L1828.62 1254.52  Z" fill="#009af9" fill-rule="evenodd" fill-opacity="1"/>
<polyline clip-path="url(#clip372)" style="stroke:#000000; stroke-linecap:round; stroke-linejoin:round; stroke-width:4; stroke-opacity:1; fill:none" points="1828.62,1254.52 1828.62,1254.52 1872.76,1254.52 1828.62,1254.52 "/>
<path clip-path="url(#clip372)" d="M1872.76 1254.52 L1872.76 1254.52 L1916.89 1254.52 L1916.89 1254.52 L1872.76 1254.52 L1872.76 1254.52  Z" fill="#009af9" fill-rule="evenodd" fill-opacity="1"/>
<polyline clip-path="url(#clip372)" style="stroke:#000000; stroke-linecap:round; stroke-linejoin:round; stroke-width:4; stroke-opacity:1; fill:none" points="1872.76,1254.52 1872.76,1254.52 1916.89,1254.52 1872.76,1254.52 "/>
<path clip-path="url(#clip372)" d="M1916.89 1254.52 L1916.89 1254.52 L1961.02 1254.52 L1961.02 1254.52 L1916.89 1254.52 L1916.89 1254.52  Z" fill="#009af9" fill-rule="evenodd" fill-opacity="1"/>
<polyline clip-path="url(#clip372)" style="stroke:#000000; stroke-linecap:round; stroke-linejoin:round; stroke-width:4; stroke-opacity:1; fill:none" points="1916.89,1254.52 1916.89,1254.52 1961.02,1254.52 1916.89,1254.52 "/>
<path clip-path="url(#clip372)" d="M1961.02 1254.52 L1961.02 1254.52 L2005.16 1254.52 L2005.16 1254.52 L1961.02 1254.52 L1961.02 1254.52  Z" fill="#009af9" fill-rule="evenodd" fill-opacity="1"/>
<polyline clip-path="url(#clip372)" style="stroke:#000000; stroke-linecap:round; stroke-linejoin:round; stroke-width:4; stroke-opacity:1; fill:none" points="1961.02,1254.52 1961.02,1254.52 2005.16,1254.52 1961.02,1254.52 "/>
<path clip-path="url(#clip372)" d="M2005.16 1254.52 L2005.16 1254.52 L2049.29 1254.52 L2049.29 1254.52 L2005.16 1254.52 L2005.16 1254.52  Z" fill="#009af9" fill-rule="evenodd" fill-opacity="1"/>
<polyline clip-path="url(#clip372)" style="stroke:#000000; stroke-linecap:round; stroke-linejoin:round; stroke-width:4; stroke-opacity:1; fill:none" points="2005.16,1254.52 2005.16,1254.52 2049.29,1254.52 2005.16,1254.52 "/>
<path clip-path="url(#clip372)" d="M2049.29 1254.52 L2049.29 1254.52 L2093.43 1254.52 L2093.43 1254.52 L2049.29 1254.52 L2049.29 1254.52  Z" fill="#009af9" fill-rule="evenodd" fill-opacity="1"/>
<polyline clip-path="url(#clip372)" style="stroke:#000000; stroke-linecap:round; stroke-linejoin:round; stroke-width:4; stroke-opacity:1; fill:none" points="2049.29,1254.52 2049.29,1254.52 2093.43,1254.52 2049.29,1254.52 "/>
<path clip-path="url(#clip372)" d="M2093.43 1254.52 L2093.43 1254.52 L2137.56 1254.52 L2137.56 1254.52 L2093.43 1254.52 L2093.43 1254.52  Z" fill="#009af9" fill-rule="evenodd" fill-opacity="1"/>
<polyline clip-path="url(#clip372)" style="stroke:#000000; stroke-linecap:round; stroke-linejoin:round; stroke-width:4; stroke-opacity:1; fill:none" points="2093.43,1254.52 2093.43,1254.52 2137.56,1254.52 2093.43,1254.52 "/>
<path clip-path="url(#clip372)" d="M2137.56 1254.52 L2137.56 1254.52 L2181.7 1254.52 L2181.7 1254.52 L2137.56 1254.52 L2137.56 1254.52  Z" fill="#009af9" fill-rule="evenodd" fill-opacity="1"/>
<polyline clip-path="url(#clip372)" style="stroke:#000000; stroke-linecap:round; stroke-linejoin:round; stroke-width:4; stroke-opacity:1; fill:none" points="2137.56,1254.52 2137.56,1254.52 2181.7,1254.52 2137.56,1254.52 "/>
<path clip-path="url(#clip372)" d="M2181.7 1247.7 L2181.7 1254.52 L2225.83 1254.52 L2225.83 1247.7 L2181.7 1247.7 L2181.7 1247.7  Z" fill="#009af9" fill-rule="evenodd" fill-opacity="1"/>
<polyline clip-path="url(#clip372)" style="stroke:#000000; stroke-linecap:round; stroke-linejoin:round; stroke-width:4; stroke-opacity:1; fill:none" points="2181.7,1247.7 2181.7,1254.52 2225.83,1254.52 2225.83,1247.7 2181.7,1247.7 "/>
<path clip-path="url(#clip372)" d="M2225.83 1254.52 L2225.83 1254.52 L2269.97 1254.52 L2269.97 1254.52 L2225.83 1254.52 L2225.83 1254.52  Z" fill="#009af9" fill-rule="evenodd" fill-opacity="1"/>
<polyline clip-path="url(#clip372)" style="stroke:#000000; stroke-linecap:round; stroke-linejoin:round; stroke-width:4; stroke-opacity:1; fill:none" points="2225.83,1254.52 2225.83,1254.52 2269.97,1254.52 2225.83,1254.52 "/>
<path clip-path="url(#clip372)" d="M2269.97 1254.52 L2269.97 1254.52 L2314.1 1254.52 L2314.1 1254.52 L2269.97 1254.52 L2269.97 1254.52  Z" fill="#009af9" fill-rule="evenodd" fill-opacity="1"/>
<polyline clip-path="url(#clip372)" style="stroke:#000000; stroke-linecap:round; stroke-linejoin:round; stroke-width:4; stroke-opacity:1; fill:none" points="2269.97,1254.52 2269.97,1254.52 2314.1,1254.52 2269.97,1254.52 "/>
<path clip-path="url(#clip372)" d="M2314.1 1254.52 L2314.1 1254.52 L2358.24 1254.52 L2358.24 1254.52 L2314.1 1254.52 L2314.1 1254.52  Z" fill="#009af9" fill-rule="evenodd" fill-opacity="1"/>
<polyline clip-path="url(#clip372)" style="stroke:#000000; stroke-linecap:round; stroke-linejoin:round; stroke-width:4; stroke-opacity:1; fill:none" points="2314.1,1254.52 2314.1,1254.52 2358.24,1254.52 2314.1,1254.52 "/>
<path clip-path="url(#clip372)" d="M2358.24 1247.7 L2358.24 1254.52 L2402.37 1254.52 L2402.37 1247.7 L2358.24 1247.7 L2358.24 1247.7  Z" fill="#009af9" fill-rule="evenodd" fill-opacity="1"/>
<polyline clip-path="url(#clip372)" style="stroke:#000000; stroke-linecap:round; stroke-linejoin:round; stroke-width:4; stroke-opacity:1; fill:none" points="2358.24,1247.7 2358.24,1254.52 2402.37,1254.52 2402.37,1247.7 2358.24,1247.7 "/>
<circle clip-path="url(#clip372)" style="fill:#009af9; stroke:none; fill-opacity:0" cx="129.444" cy="1165.85" r="2"/>
<circle clip-path="url(#clip372)" style="fill:#009af9; stroke:none; fill-opacity:0" cx="173.579" cy="817.991" r="2"/>
<circle clip-path="url(#clip372)" style="fill:#009af9; stroke:none; fill-opacity:0" cx="217.713" cy="729.321" r="2"/>
<circle clip-path="url(#clip372)" style="fill:#009af9; stroke:none; fill-opacity:0" cx="261.848" cy="354.179" r="2"/>
<circle clip-path="url(#clip372)" style="fill:#009af9; stroke:none; fill-opacity:0" cx="305.982" cy="245.046" r="2"/>
<circle clip-path="url(#clip372)" style="fill:#009af9; stroke:none; fill-opacity:0" cx="350.117" cy="60.8856" r="2"/>
<circle clip-path="url(#clip372)" style="fill:#009af9; stroke:none; fill-opacity:0" cx="394.251" cy="142.735" r="2"/>
<circle clip-path="url(#clip372)" style="fill:#009af9; stroke:none; fill-opacity:0" cx="438.386" cy="74.5272" r="2"/>
<circle clip-path="url(#clip372)" style="fill:#009af9; stroke:none; fill-opacity:0" cx="482.52" cy="47.2441" r="2"/>
<circle clip-path="url(#clip372)" style="fill:#009af9; stroke:none; fill-opacity:0" cx="526.655" cy="374.641" r="2"/>
<circle clip-path="url(#clip372)" style="fill:#009af9; stroke:none; fill-opacity:0" cx="570.789" cy="599.726" r="2"/>
<circle clip-path="url(#clip372)" style="fill:#009af9; stroke:none; fill-opacity:0" cx="614.924" cy="463.311" r="2"/>
<circle clip-path="url(#clip372)" style="fill:#009af9; stroke:none; fill-opacity:0" cx="659.058" cy="558.802" r="2"/>
<circle clip-path="url(#clip372)" style="fill:#009af9; stroke:none; fill-opacity:0" cx="703.192" cy="756.604" r="2"/>
<circle clip-path="url(#clip372)" style="fill:#009af9; stroke:none; fill-opacity:0" cx="747.327" cy="865.736" r="2"/>
<circle clip-path="url(#clip372)" style="fill:#009af9; stroke:none; fill-opacity:0" cx="791.461" cy="811.17" r="2"/>
<circle clip-path="url(#clip372)" style="fill:#009af9; stroke:none; fill-opacity:0" cx="835.596" cy="927.123" r="2"/>
<circle clip-path="url(#clip372)" style="fill:#009af9; stroke:none; fill-opacity:0" cx="879.73" cy="1015.79" r="2"/>
<circle clip-path="url(#clip372)" style="fill:#009af9; stroke:none; fill-opacity:0" cx="923.865" cy="1043.08" r="2"/>
<circle clip-path="url(#clip372)" style="fill:#009af9; stroke:none; fill-opacity:0" cx="967.999" cy="1070.36" r="2"/>
<circle clip-path="url(#clip372)" style="fill:#009af9; stroke:none; fill-opacity:0" cx="1012.13" cy="1070.36" r="2"/>
<circle clip-path="url(#clip372)" style="fill:#009af9; stroke:none; fill-opacity:0" cx="1056.27" cy="1138.57" r="2"/>
<circle clip-path="url(#clip372)" style="fill:#009af9; stroke:none; fill-opacity:0" cx="1100.4" cy="1172.67" r="2"/>
<circle clip-path="url(#clip372)" style="fill:#009af9; stroke:none; fill-opacity:0" cx="1144.54" cy="1186.31" r="2"/>
<circle clip-path="url(#clip372)" style="fill:#009af9; stroke:none; fill-opacity:0" cx="1188.67" cy="1206.77" r="2"/>
<circle clip-path="url(#clip372)" style="fill:#009af9; stroke:none; fill-opacity:0" cx="1232.81" cy="1234.06" r="2"/>
<circle clip-path="url(#clip372)" style="fill:#009af9; stroke:none; fill-opacity:0" cx="1276.94" cy="1247.7" r="2"/>
<circle clip-path="url(#clip372)" style="fill:#009af9; stroke:none; fill-opacity:0" cx="1321.08" cy="1213.6" r="2"/>
<circle clip-path="url(#clip372)" style="fill:#009af9; stroke:none; fill-opacity:0" cx="1365.21" cy="1220.42" r="2"/>
<circle clip-path="url(#clip372)" style="fill:#009af9; stroke:none; fill-opacity:0" cx="1409.34" cy="1240.88" r="2"/>
<circle clip-path="url(#clip372)" style="fill:#009af9; stroke:none; fill-opacity:0" cx="1453.48" cy="1240.88" r="2"/>
<circle clip-path="url(#clip372)" style="fill:#009af9; stroke:none; fill-opacity:0" cx="1497.61" cy="1254.52" r="2"/>
<circle clip-path="url(#clip372)" style="fill:#009af9; stroke:none; fill-opacity:0" cx="1541.75" cy="1247.7" r="2"/>
<circle clip-path="url(#clip372)" style="fill:#009af9; stroke:none; fill-opacity:0" cx="1585.88" cy="1254.52" r="2"/>
<circle clip-path="url(#clip372)" style="fill:#009af9; stroke:none; fill-opacity:0" cx="1630.02" cy="1247.7" r="2"/>
<circle clip-path="url(#clip372)" style="fill:#009af9; stroke:none; fill-opacity:0" cx="1674.15" cy="1254.52" r="2"/>
<circle clip-path="url(#clip372)" style="fill:#009af9; stroke:none; fill-opacity:0" cx="1718.29" cy="1240.88" r="2"/>
<circle clip-path="url(#clip372)" style="fill:#009af9; stroke:none; fill-opacity:0" cx="1762.42" cy="1254.52" r="2"/>
<circle clip-path="url(#clip372)" style="fill:#009af9; stroke:none; fill-opacity:0" cx="1806.55" cy="1247.7" r="2"/>
<circle clip-path="url(#clip372)" style="fill:#009af9; stroke:none; fill-opacity:0" cx="1850.69" cy="1254.52" r="2"/>
<polyline clip-path="url(#clip372)" style="stroke:#e26f46; stroke-linecap:round; stroke-linejoin:round; stroke-width:8; stroke-opacity:1; fill:none" points="-62.298,1254.52 -49.1744,1254.51 -36.0509,1254.48 -22.9273,1254.4 -9.80375,1254.21 3.31981,1253.77 16.4434,1252.81 29.5669,1250.85 42.6905,1247.17 55.814,1240.69 68.9376,1230.02 82.0611,1213.61 95.1847,1189.99 108.308,1158.08 121.432,1117.6 134.555,1069.14 147.679,1014.07 160.802,954.046 173.926,890.515 187.05,824.29 200.173,755.584 213.297,684.452 226.42,611.408 239.544,537.851 252.667,466.055 265.791,398.686 278.914,338.082 292.038,285.651 305.162,241.644 318.285,205.385 331.409,175.774 344.532,151.786 357.656,132.716 370.779,118.13 383.903,107.675 397.026,100.998 410.15,97.8888 423.274,98.565 436.397,103.898 449.521,115.351 462.644,134.571 475.768,162.746 488.891,199.954 502.015,244.782 515.138,294.352 528.262,344.799 541.386,392.071 554.509,432.856 567.633,465.371 580.756,489.779 593.88,508.087 607.003,523.525 620.127,539.604 633.25,559.157 646.374,583.685 659.498,613.161 672.621,646.292 685.745,681.029 698.868,715.136 711.992,746.647 725.115,774.187 738.239,797.159 751.362,815.82 764.486,831.214 777.61,844.933 790.733,858.717 803.857,873.994 816.98,891.511 830.104,911.188 843.227,932.241 856.351,953.505 869.474,973.812 882.598,992.289 895.722,1008.49 908.845,1022.36 921.969,1034.11 935.092,1044.08 948.216,1052.67 961.339,1060.32 974.463,1067.52 987.586,1074.82 1000.71,1082.79 1013.83,1091.88 1026.96,1102.3 1040.08,1113.93 1053.2,1126.25 1066.33,1138.49 1079.45,1149.86 1092.57,1159.82 1105.7,1168.18 1118.82,1175.17 1131.95,1181.26 1145.07,1186.94 1158.19,1192.61 1171.32,1198.46 1184.44,1204.47 1197.56,1210.48 1210.69,1216.2 1223.81,1221.3 1236.93,1225.43 1250.06,1228.31 1263.18,1229.78 1276.3,1229.88 1289.43,1228.89 1302.55,1227.3 1315.68,1225.74 1328.8,1224.82 1341.92,1224.93 1355.05,1226.18 1368.17,1228.37 1381.29,1231.08 1394.42,1233.89 1407.54,1236.47 1420.66,1238.75 1433.79,1240.77 1446.91,1242.66 1460.03,1244.51 1473.16,1246.28 1486.28,1247.88 1499.41,1249.18 1512.53,1250.1 1525.65,1250.66 1538.78,1250.93 1551.9,1251.03 1565.02,1251.05 1578.15,1251.03 1591.27,1250.96 1604.39,1250.81 1617.52,1250.55 1630.64,1250.16 1643.76,1249.69 1656.89,1249.18 1670.01,1248.7 1683.13,1248.34 1696.26,1248.17 1709.38,1248.25 1722.51,1248.58 1735.63,1249.11 1748.75,1249.73 1761.88,1250.31 1775,1250.76 1788.12,1251.06 1801.25,1251.25 1814.37,1251.42 1827.49,1251.65 1840.62,1251.99 1853.74,1252.43 1866.86,1252.91 1879.99,1253.37 1893.11,1253.77 1906.24,1254.06 1919.36,1254.27 1932.48,1254.39 1945.61,1254.46 1958.73,1254.49 1971.85,1254.51 1984.98,1254.52 1998.1,1254.52 2011.22,1254.52 2024.35,1254.52 2037.47,1254.51 2050.59,1254.5 2063.72,1254.47 2076.84,1254.41 2089.97,1254.3 2103.09,1254.12 2116.21,1253.84 2129.34,1253.47 2142.46,1253.03 2155.58,1252.57 2168.71,1252.18 2181.83,1251.93 2194.95,1251.88 2208.08,1252.04 2221.2,1252.38 2234.32,1252.8 2247.45,1253.22 2260.57,1253.55 2273.69,1253.73 2286.82,1253.73 2299.94,1253.56 2313.07,1253.23 2326.19,1252.81 2339.31,1252.39 2352.44,1252.05 2365.56,1251.88 2378.68,1251.92 2391.81,1252.17 2404.93,1252.57 2418.05,1253.03 2431.18,1253.47 2444.3,1253.84 2457.42,1254.11 2470.55,1254.3 2483.67,1254.41 2496.8,1254.47 2509.92,1254.5 2523.04,1254.51 2536.17,1254.52 2549.29,1254.52 "/>
</svg>
