<?xml version="1.0" encoding="utf-8"?>
<svg xmlns="http://www.w3.org/2000/svg" xmlns:xlink="http://www.w3.org/1999/xlink" width="480" height="360" viewBox="0 0 1920 1440">
<defs>
  <clipPath id="clip330">
    <rect x="0" y="0" width="1920" height="1440"/>
  </clipPath>
</defs>
<path clip-path="url(#clip330)" d="M0 1440 L1920 1440 L1920 0 L0 0  Z" fill="#ffffff" fill-rule="evenodd" fill-opacity="1"/>
<defs>
  <clipPath id="clip331">
    <rect x="384" y="0" width="1345" height="1345"/>
  </clipPath>
</defs>
<path clip-path="url(#clip330)" d="M181.474 1254.52 L1872.76 1254.52 L1872.76 47.2441 L181.474 47.2441  Z" fill="#ffffff" fill-rule="evenodd" fill-opacity="1"/>
<defs>
  <clipPath id="clip332">
    <rect x="181" y="47" width="1692" height="1208"/>
  </clipPath>
</defs>
<polyline clip-path="url(#clip332)" style="stroke:#000000; stroke-linecap:round; stroke-linejoin:round; stroke-width:2; stroke-opacity:0.1; fill:none" points="181.474,1254.52 181.474,47.2441 "/>
<polyline clip-path="url(#clip332)" style="stroke:#000000; stroke-linecap:round; stroke-linejoin:round; stroke-width:2; stroke-opacity:0.1; fill:none" points="441.671,1254.52 441.671,47.2441 "/>
<polyline clip-path="url(#clip332)" style="stroke:#000000; stroke-linecap:round; stroke-linejoin:round; stroke-width:2; stroke-opacity:0.1; fill:none" points="701.868,1254.52 701.868,47.2441 "/>
<polyline clip-path="url(#clip332)" style="stroke:#000000; stroke-linecap:round; stroke-linejoin:round; stroke-width:2; stroke-opacity:0.1; fill:none" points="962.066,1254.52 962.066,47.2441 "/>
<polyline clip-path="url(#clip332)" style="stroke:#000000; stroke-linecap:round; stroke-linejoin:round; stroke-width:2; stroke-opacity:0.1; fill:none" points="1222.26,1254.52 1222.26,47.2441 "/>
<polyline clip-path="url(#clip332)" style="stroke:#000000; stroke-linecap:round; stroke-linejoin:round; stroke-width:2; stroke-opacity:0.1; fill:none" points="1482.46,1254.52 1482.46,47.2441 "/>
<polyline clip-path="url(#clip332)" style="stroke:#000000; stroke-linecap:round; stroke-linejoin:round; stroke-width:2; stroke-opacity:0.1; fill:none" points="1742.66,1254.52 1742.66,47.2441 "/>
<polyline clip-path="url(#clip332)" style="stroke:#000000; stroke-linecap:round; stroke-linejoin:round; stroke-width:2; stroke-opacity:0.1; fill:none" points="181.474,1254.52 1872.76,1254.52 "/>
<polyline clip-path="url(#clip332)" style="stroke:#000000; stroke-linecap:round; stroke-linejoin:round; stroke-width:2; stroke-opacity:0.1; fill:none" points="181.474,1015.93 1872.76,1015.93 "/>
<polyline clip-path="url(#clip332)" style="stroke:#000000; stroke-linecap:round; stroke-linejoin:round; stroke-width:2; stroke-opacity:0.1; fill:none" points="181.474,777.347 1872.76,777.347 "/>
<polyline clip-path="url(#clip332)" style="stroke:#000000; stroke-linecap:round; stroke-linejoin:round; stroke-width:2; stroke-opacity:0.1; fill:none" points="181.474,538.761 1872.76,538.761 "/>
<polyline clip-path="url(#clip332)" style="stroke:#000000; stroke-linecap:round; stroke-linejoin:round; stroke-width:2; stroke-opacity:0.1; fill:none" points="181.474,300.174 1872.76,300.174 "/>
<polyline clip-path="url(#clip332)" style="stroke:#000000; stroke-linecap:round; stroke-linejoin:round; stroke-width:2; stroke-opacity:0.1; fill:none" points="181.474,61.588 1872.76,61.588 "/>
<polyline clip-path="url(#clip330)" style="stroke:#000000; stroke-linecap:round; stroke-linejoin:round; stroke-width:4; stroke-opacity:1; fill:none" points="181.474,1254.52 1872.76,1254.52 "/>
<polyline clip-path="url(#clip330)" style="stroke:#000000; stroke-linecap:round; stroke-linejoin:round; stroke-width:4; stroke-opacity:1; fill:none" points="181.474,1254.52 181.474,1235.62 "/>
<polyline clip-path="url(#clip330)" style="stroke:#000000; stroke-linecap:round; stroke-linejoin:round; stroke-width:4; stroke-opacity:1; fill:none" points="441.671,1254.52 441.671,1235.62 "/>
<polyline clip-path="url(#clip330)" style="stroke:#000000; stroke-linecap:round; stroke-linejoin:round; stroke-width:4; stroke-opacity:1; fill:none" points="701.868,1254.52 701.868,1235.62 "/>
<polyline clip-path="url(#clip330)" style="stroke:#000000; stroke-linecap:round; stroke-linejoin:round; stroke-width:4; stroke-opacity:1; fill:none" points="962.066,1254.52 962.066,1235.62 "/>
<polyline clip-path="url(#clip330)" style="stroke:#000000; stroke-linecap:round; stroke-linejoin:round; stroke-width:4; stroke-opacity:1; fill:none" points="1222.26,1254.52 1222.26,1235.62 "/>
<polyline clip-path="url(#clip330)" style="stroke:#000000; stroke-linecap:round; stroke-linejoin:round; stroke-width:4; stroke-opacity:1; fill:none" points="1482.46,1254.52 1482.46,1235.62 "/>
<polyline clip-path="url(#clip330)" style="stroke:#000000; stroke-linecap:round; stroke-linejoin:round; stroke-width:4; stroke-opacity:1; fill:none" points="1742.66,1254.52 1742.66,1235.62 "/>
<path clip-path="url(#clip330)" d="M181.474 1281.6 Q177.863 1281.6 176.034 1285.16 Q174.229 1288.7 174.229 1295.83 Q174.229 1302.94 176.034 1306.51 Q177.863 1310.05 181.474 1310.05 Q185.108 1310.05 186.914 1306.51 Q188.742 1302.94 188.742 1295.83 Q188.742 1288.7 186.914 1285.16 Q185.108 1281.6 181.474 1281.6 M181.474 1277.89 Q187.284 1277.89 190.34 1282.5 Q193.418 1287.08 193.418 1295.83 Q193.418 1304.56 190.34 1309.17 Q187.284 1313.75 181.474 1313.75 Q175.664 1313.75 172.585 1309.17 Q169.53 1304.56 169.53 1295.83 Q169.53 1287.08 172.585 1282.5 Q175.664 1277.89 181.474 1277.89 Z" fill="#000000" fill-rule="nonzero" fill-opacity="1" /><path clip-path="url(#clip330)" d="M436.324 1309.14 L452.643 1309.14 L452.643 1313.08 L430.699 1313.08 L430.699 1309.14 Q433.361 1306.39 437.944 1301.76 Q442.551 1297.11 443.731 1295.77 Q445.977 1293.24 446.856 1291.51 Q447.759 1289.75 447.759 1288.06 Q447.759 1285.3 445.815 1283.57 Q443.893 1281.83 440.792 1281.83 Q438.593 1281.83 436.139 1282.59 Q433.708 1283.36 430.931 1284.91 L430.931 1280.19 Q433.755 1279.05 436.208 1278.47 Q438.662 1277.89 440.699 1277.89 Q446.069 1277.89 449.264 1280.58 Q452.458 1283.27 452.458 1287.76 Q452.458 1289.89 451.648 1291.81 Q450.861 1293.7 448.755 1296.3 Q448.176 1296.97 445.074 1300.19 Q441.972 1303.38 436.324 1309.14 Z" fill="#000000" fill-rule="nonzero" fill-opacity="1" /><path clip-path="url(#clip330)" d="M704.878 1282.59 L693.072 1301.04 L704.878 1301.04 L704.878 1282.59 M703.651 1278.52 L709.53 1278.52 L709.53 1301.04 L714.461 1301.04 L714.461 1304.93 L709.53 1304.93 L709.53 1313.08 L704.878 1313.08 L704.878 1304.93 L689.276 1304.93 L689.276 1300.42 L703.651 1278.52 Z" fill="#000000" fill-rule="nonzero" fill-opacity="1" /><path clip-path="url(#clip330)" d="M962.471 1293.94 Q959.323 1293.94 957.471 1296.09 Q955.642 1298.24 955.642 1301.99 Q955.642 1305.72 957.471 1307.89 Q959.323 1310.05 962.471 1310.05 Q965.619 1310.05 967.448 1307.89 Q969.299 1305.72 969.299 1301.99 Q969.299 1298.24 967.448 1296.09 Q965.619 1293.94 962.471 1293.94 M971.753 1279.28 L971.753 1283.54 Q969.994 1282.71 968.188 1282.27 Q966.406 1281.83 964.647 1281.83 Q960.017 1281.83 957.563 1284.95 Q955.133 1288.08 954.786 1294.4 Q956.151 1292.39 958.212 1291.32 Q960.272 1290.23 962.749 1290.23 Q967.957 1290.23 970.966 1293.4 Q973.998 1296.55 973.998 1301.99 Q973.998 1307.32 970.85 1310.53 Q967.702 1313.75 962.471 1313.75 Q956.475 1313.75 953.304 1309.17 Q950.133 1304.56 950.133 1295.83 Q950.133 1287.64 954.022 1282.78 Q957.911 1277.89 964.461 1277.89 Q966.221 1277.89 968.003 1278.24 Q969.809 1278.59 971.753 1279.28 Z" fill="#000000" fill-rule="nonzero" fill-opacity="1" /><path clip-path="url(#clip330)" d="M1222.26 1296.67 Q1218.93 1296.67 1217.01 1298.45 Q1215.11 1300.23 1215.11 1303.36 Q1215.11 1306.48 1217.01 1308.27 Q1218.93 1310.05 1222.26 1310.05 Q1225.6 1310.05 1227.52 1308.27 Q1229.44 1306.46 1229.44 1303.36 Q1229.44 1300.23 1227.52 1298.45 Q1225.62 1296.67 1222.26 1296.67 M1217.59 1294.68 Q1214.58 1293.94 1212.89 1291.88 Q1211.22 1289.82 1211.22 1286.85 Q1211.22 1282.71 1214.16 1280.3 Q1217.12 1277.89 1222.26 1277.89 Q1227.42 1277.89 1230.36 1280.3 Q1233.3 1282.71 1233.3 1286.85 Q1233.3 1289.82 1231.61 1291.88 Q1229.95 1293.94 1226.96 1294.68 Q1230.34 1295.46 1232.22 1297.76 Q1234.11 1300.05 1234.11 1303.36 Q1234.11 1308.38 1231.04 1311.07 Q1227.98 1313.75 1222.26 1313.75 Q1216.55 1313.75 1213.47 1311.07 Q1210.41 1308.38 1210.41 1303.36 Q1210.41 1300.05 1212.31 1297.76 Q1214.21 1295.46 1217.59 1294.68 M1215.87 1287.29 Q1215.87 1289.98 1217.54 1291.48 Q1219.23 1292.99 1222.26 1292.99 Q1225.27 1292.99 1226.96 1291.48 Q1228.67 1289.98 1228.67 1287.29 Q1228.67 1284.61 1226.96 1283.1 Q1225.27 1281.6 1222.26 1281.6 Q1219.23 1281.6 1217.54 1283.1 Q1215.87 1284.61 1215.87 1287.29 Z" fill="#000000" fill-rule="nonzero" fill-opacity="1" /><path clip-path="url(#clip330)" d="M1457.15 1309.14 L1464.79 1309.14 L1464.79 1282.78 L1456.48 1284.45 L1456.48 1280.19 L1464.74 1278.52 L1469.42 1278.52 L1469.42 1309.14 L1477.06 1309.14 L1477.06 1313.08 L1457.15 1313.08 L1457.15 1309.14 Z" fill="#000000" fill-rule="nonzero" fill-opacity="1" /><path clip-path="url(#clip330)" d="M1496.5 1281.6 Q1492.89 1281.6 1491.06 1285.16 Q1489.25 1288.7 1489.25 1295.83 Q1489.25 1302.94 1491.06 1306.51 Q1492.89 1310.05 1496.5 1310.05 Q1500.13 1310.05 1501.94 1306.51 Q1503.77 1302.94 1503.77 1295.83 Q1503.77 1288.7 1501.94 1285.16 Q1500.13 1281.6 1496.5 1281.6 M1496.5 1277.89 Q1502.31 1277.89 1505.37 1282.5 Q1508.44 1287.08 1508.44 1295.83 Q1508.44 1304.56 1505.37 1309.17 Q1502.31 1313.75 1496.5 1313.75 Q1490.69 1313.75 1487.61 1309.17 Q1484.55 1304.56 1484.55 1295.83 Q1484.55 1287.08 1487.61 1282.5 Q1490.69 1277.89 1496.5 1277.89 Z" fill="#000000" fill-rule="nonzero" fill-opacity="1" /><path clip-path="url(#clip330)" d="M1718.14 1309.14 L1725.78 1309.14 L1725.78 1282.78 L1717.47 1284.45 L1717.47 1280.19 L1725.74 1278.52 L1730.41 1278.52 L1730.41 1309.14 L1738.05 1309.14 L1738.05 1313.08 L1718.14 1313.08 L1718.14 1309.14 Z" fill="#000000" fill-rule="nonzero" fill-opacity="1" /><path clip-path="url(#clip330)" d="M1751.52 1309.14 L1767.84 1309.14 L1767.84 1313.08 L1745.9 1313.08 L1745.9 1309.14 Q1748.56 1306.39 1753.14 1301.76 Q1757.75 1297.11 1758.93 1295.77 Q1761.18 1293.24 1762.06 1291.51 Q1762.96 1289.75 1762.96 1288.06 Q1762.96 1285.3 1761.01 1283.57 Q1759.09 1281.83 1755.99 1281.83 Q1753.79 1281.83 1751.34 1282.59 Q1748.91 1283.36 1746.13 1284.91 L1746.13 1280.19 Q1748.95 1279.05 1751.41 1278.47 Q1753.86 1277.89 1755.9 1277.89 Q1761.27 1277.89 1764.46 1280.58 Q1767.66 1283.27 1767.66 1287.76 Q1767.66 1289.89 1766.85 1291.81 Q1766.06 1293.7 1763.95 1296.3 Q1763.37 1296.97 1760.27 1300.19 Q1757.17 1303.38 1751.52 1309.14 Z" fill="#000000" fill-rule="nonzero" fill-opacity="1" /><path clip-path="url(#clip330)" d="M1039.95 1360.97 Q1039.95 1362.81 1038.83 1363.9 Q1037.73 1365 1036.35 1365 Q1035.12 1365 1034.48 1364.29 Q1033.83 1363.58 1033.83 1362.68 Q1033.83 1362.29 1033.99 1361.81 Q1034.16 1361.3 1034.51 1360.68 Q1034.9 1360.07 1035.7 1359.62 Q1036.51 1359.17 1037.6 1359.11 Q1037.38 1358.88 1037.31 1358.85 Q1036.83 1358.46 1035.93 1358.33 Q1035.8 1358.27 1035.35 1358.27 Q1033.13 1358.27 1030.87 1359.91 Q1028.65 1361.52 1025.91 1364.58 Q1022.46 1368.16 1020.24 1369.48 Q1030 1370.76 1030 1376.4 Q1030 1377.33 1029.74 1378.46 Q1029.23 1380.59 1029.23 1382.13 Q1029.23 1385.22 1031.32 1385.22 Q1033.35 1385.22 1034.64 1383.16 Q1035.96 1381.1 1037.05 1377.08 Q1037.22 1376.34 1037.38 1376.11 Q1037.54 1375.89 1037.99 1375.89 Q1038.79 1375.89 1038.79 1376.53 Q1038.05 1380.3 1036.41 1383.2 Q1034.32 1386.71 1031.19 1386.71 Q1028.58 1386.71 1026.84 1384.9 Q1025.14 1383.07 1025.14 1380.17 Q1025.14 1379.46 1025.4 1377.85 Q1025.59 1377.21 1025.59 1376.46 Q1025.59 1374.95 1024.75 1373.82 Q1023.91 1372.66 1022.56 1372.08 Q1021.21 1371.51 1020.08 1371.25 Q1018.99 1370.96 1017.92 1370.86 Q1014.7 1384.48 1014.25 1385.32 Q1013.96 1385.9 1013.32 1386.29 Q1012.67 1386.71 1012 1386.71 Q1011.35 1386.71 1010.71 1386.26 Q1010.1 1385.84 1010.1 1384.84 Q1010.1 1384.32 1010.36 1383.39 L1019.92 1345.39 L1020.11 1344.1 Q1020.11 1343.71 1019.95 1343.52 Q1019.82 1343.29 1019.05 1343.13 Q1018.31 1342.97 1016.83 1342.97 Q1016.22 1342.97 1015.93 1342.94 Q1015.67 1342.91 1015.44 1342.75 Q1015.22 1342.55 1015.22 1342.17 Q1015.22 1341.62 1015.44 1341.33 Q1015.7 1341.01 1015.89 1340.94 Q1016.09 1340.88 1016.47 1340.85 Q1017.02 1340.81 1018.86 1340.65 Q1020.69 1340.46 1022.27 1340.33 Q1023.85 1340.2 1024.53 1340.2 Q1024.91 1340.2 1025.11 1340.39 Q1025.33 1340.56 1025.36 1340.75 L1025.4 1340.91 L1018.54 1368.74 Q1021.37 1367.61 1025.85 1362.62 Q1031.03 1356.82 1035.48 1356.82 Q1037.57 1356.82 1038.76 1358.11 Q1039.95 1359.36 1039.95 1360.97 Z" fill="#000000" fill-rule="nonzero" fill-opacity="1" /><polyline clip-path="url(#clip330)" style="stroke:#000000; stroke-linecap:round; stroke-linejoin:round; stroke-width:4; stroke-opacity:1; fill:none" points="181.474,1254.52 181.474,47.2441 "/>
<polyline clip-path="url(#clip330)" style="stroke:#000000; stroke-linecap:round; stroke-linejoin:round; stroke-width:4; stroke-opacity:1; fill:none" points="181.474,1254.52 200.372,1254.52 "/>
<polyline clip-path="url(#clip330)" style="stroke:#000000; stroke-linecap:round; stroke-linejoin:round; stroke-width:4; stroke-opacity:1; fill:none" points="181.474,1015.93 200.372,1015.93 "/>
<polyline clip-path="url(#clip330)" style="stroke:#000000; stroke-linecap:round; stroke-linejoin:round; stroke-width:4; stroke-opacity:1; fill:none" points="181.474,777.347 200.372,777.347 "/>
<polyline clip-path="url(#clip330)" style="stroke:#000000; stroke-linecap:round; stroke-linejoin:round; stroke-width:4; stroke-opacity:1; fill:none" points="181.474,538.761 200.372,538.761 "/>
<polyline clip-path="url(#clip330)" style="stroke:#000000; stroke-linecap:round; stroke-linejoin:round; stroke-width:4; stroke-opacity:1; fill:none" points="181.474,300.174 200.372,300.174 "/>
<polyline clip-path="url(#clip330)" style="stroke:#000000; stroke-linecap:round; stroke-linejoin:round; stroke-width:4; stroke-opacity:1; fill:none" points="181.474,61.588 200.372,61.588 "/>
<path clip-path="url(#clip330)" d="M65.3365 1240.32 Q61.7254 1240.32 59.8967 1243.88 Q58.0912 1247.42 58.0912 1254.55 Q58.0912 1261.66 59.8967 1265.23 Q61.7254 1268.77 65.3365 1268.77 Q68.9707 1268.77 70.7763 1265.23 Q72.605 1261.66 72.605 1254.55 Q72.605 1247.42 70.7763 1243.88 Q68.9707 1240.32 65.3365 1240.32 M65.3365 1236.61 Q71.1467 1236.61 74.2022 1241.22 Q77.2809 1245.8 77.2809 1254.55 Q77.2809 1263.28 74.2022 1267.89 Q71.1467 1272.47 65.3365 1272.47 Q59.5264 1272.47 56.4477 1267.89 Q53.3921 1263.28 53.3921 1254.55 Q53.3921 1245.8 56.4477 1241.22 Q59.5264 1236.61 65.3365 1236.61 Z" fill="#000000" fill-rule="nonzero" fill-opacity="1" /><path clip-path="url(#clip330)" d="M85.4984 1265.92 L90.3827 1265.92 L90.3827 1271.8 L85.4984 1271.8 L85.4984 1265.92 Z" fill="#000000" fill-rule="nonzero" fill-opacity="1" /><path clip-path="url(#clip330)" d="M110.568 1240.32 Q106.957 1240.32 105.128 1243.88 Q103.322 1247.42 103.322 1254.55 Q103.322 1261.66 105.128 1265.23 Q106.957 1268.77 110.568 1268.77 Q114.202 1268.77 116.008 1265.23 Q117.836 1261.66 117.836 1254.55 Q117.836 1247.42 116.008 1243.88 Q114.202 1240.32 110.568 1240.32 M110.568 1236.61 Q116.378 1236.61 119.433 1241.22 Q122.512 1245.8 122.512 1254.55 Q122.512 1263.28 119.433 1267.89 Q116.378 1272.47 110.568 1272.47 Q104.758 1272.47 101.679 1267.89 Q98.6234 1263.28 98.6234 1254.55 Q98.6234 1245.8 101.679 1241.22 Q104.758 1236.61 110.568 1236.61 Z" fill="#000000" fill-rule="nonzero" fill-opacity="1" /><path clip-path="url(#clip330)" d="M140.73 1240.32 Q137.119 1240.32 135.29 1243.88 Q133.484 1247.42 133.484 1254.55 Q133.484 1261.66 135.29 1265.23 Q137.119 1268.77 140.73 1268.77 Q144.364 1268.77 146.169 1265.23 Q147.998 1261.66 147.998 1254.55 Q147.998 1247.42 146.169 1243.88 Q144.364 1240.32 140.73 1240.32 M140.73 1236.61 Q146.54 1236.61 149.595 1241.22 Q152.674 1245.8 152.674 1254.55 Q152.674 1263.28 149.595 1267.89 Q146.54 1272.47 140.73 1272.47 Q134.919 1272.47 131.841 1267.89 Q128.785 1263.28 128.785 1254.55 Q128.785 1245.8 131.841 1241.22 Q134.919 1236.61 140.73 1236.61 Z" fill="#000000" fill-rule="nonzero" fill-opacity="1" /><path clip-path="url(#clip330)" d="M66.3319 1001.73 Q62.7208 1001.73 60.8921 1005.3 Q59.0865 1008.84 59.0865 1015.97 Q59.0865 1023.07 60.8921 1026.64 Q62.7208 1030.18 66.3319 1030.18 Q69.9661 1030.18 71.7717 1026.64 Q73.6004 1023.07 73.6004 1015.97 Q73.6004 1008.84 71.7717 1005.3 Q69.9661 1001.73 66.3319 1001.73 M66.3319 998.028 Q72.142 998.028 75.1976 1002.63 Q78.2763 1007.22 78.2763 1015.97 Q78.2763 1024.69 75.1976 1029.3 Q72.142 1033.88 66.3319 1033.88 Q60.5217 1033.88 57.443 1029.3 Q54.3875 1024.69 54.3875 1015.97 Q54.3875 1007.22 57.443 1002.63 Q60.5217 998.028 66.3319 998.028 Z" fill="#000000" fill-rule="nonzero" fill-opacity="1" /><path clip-path="url(#clip330)" d="M86.4938 1027.33 L91.378 1027.33 L91.378 1033.21 L86.4938 1033.21 L86.4938 1027.33 Z" fill="#000000" fill-rule="nonzero" fill-opacity="1" /><path clip-path="url(#clip330)" d="M111.563 1001.73 Q107.952 1001.73 106.123 1005.3 Q104.318 1008.84 104.318 1015.97 Q104.318 1023.07 106.123 1026.64 Q107.952 1030.18 111.563 1030.18 Q115.197 1030.18 117.003 1026.64 Q118.832 1023.07 118.832 1015.97 Q118.832 1008.84 117.003 1005.3 Q115.197 1001.73 111.563 1001.73 M111.563 998.028 Q117.373 998.028 120.429 1002.63 Q123.507 1007.22 123.507 1015.97 Q123.507 1024.69 120.429 1029.3 Q117.373 1033.88 111.563 1033.88 Q105.753 1033.88 102.674 1029.3 Q99.6187 1024.69 99.6187 1015.97 Q99.6187 1007.22 102.674 1002.63 Q105.753 998.028 111.563 998.028 Z" fill="#000000" fill-rule="nonzero" fill-opacity="1" /><path clip-path="url(#clip330)" d="M131.771 998.653 L150.128 998.653 L150.128 1002.59 L136.054 1002.59 L136.054 1011.06 Q137.072 1010.71 138.091 1010.55 Q139.109 1010.37 140.128 1010.37 Q145.915 1010.37 149.294 1013.54 Q152.674 1016.71 152.674 1022.13 Q152.674 1027.7 149.202 1030.81 Q145.73 1033.88 139.41 1033.88 Q137.234 1033.88 134.966 1033.51 Q132.72 1033.14 130.313 1032.4 L130.313 1027.7 Q132.396 1028.84 134.619 1029.39 Q136.841 1029.95 139.318 1029.95 Q143.322 1029.95 145.66 1027.84 Q147.998 1025.74 147.998 1022.13 Q147.998 1018.51 145.66 1016.41 Q143.322 1014.3 139.318 1014.3 Q137.443 1014.3 135.568 1014.72 Q133.716 1015.13 131.771 1016.01 L131.771 998.653 Z" fill="#000000" fill-rule="nonzero" fill-opacity="1" /><path clip-path="url(#clip330)" d="M65.3365 763.146 Q61.7254 763.146 59.8967 766.711 Q58.0912 770.252 58.0912 777.382 Q58.0912 784.488 59.8967 788.053 Q61.7254 791.595 65.3365 791.595 Q68.9707 791.595 70.7763 788.053 Q72.605 784.488 72.605 777.382 Q72.605 770.252 70.7763 766.711 Q68.9707 763.146 65.3365 763.146 M65.3365 759.442 Q71.1467 759.442 74.2022 764.049 Q77.2809 768.632 77.2809 777.382 Q77.2809 786.109 74.2022 790.715 Q71.1467 795.298 65.3365 795.298 Q59.5264 795.298 56.4477 790.715 Q53.3921 786.109 53.3921 777.382 Q53.3921 768.632 56.4477 764.049 Q59.5264 759.442 65.3365 759.442 Z" fill="#000000" fill-rule="nonzero" fill-opacity="1" /><path clip-path="url(#clip330)" d="M85.4984 788.747 L90.3827 788.747 L90.3827 794.627 L85.4984 794.627 L85.4984 788.747 Z" fill="#000000" fill-rule="nonzero" fill-opacity="1" /><path clip-path="url(#clip330)" d="M101.378 790.692 L109.017 790.692 L109.017 764.326 L100.707 765.993 L100.707 761.734 L108.971 760.067 L113.646 760.067 L113.646 790.692 L121.285 790.692 L121.285 794.627 L101.378 794.627 L101.378 790.692 Z" fill="#000000" fill-rule="nonzero" fill-opacity="1" /><path clip-path="url(#clip330)" d="M140.73 763.146 Q137.119 763.146 135.29 766.711 Q133.484 770.252 133.484 777.382 Q133.484 784.488 135.29 788.053 Q137.119 791.595 140.73 791.595 Q144.364 791.595 146.169 788.053 Q147.998 784.488 147.998 777.382 Q147.998 770.252 146.169 766.711 Q144.364 763.146 140.73 763.146 M140.73 759.442 Q146.54 759.442 149.595 764.049 Q152.674 768.632 152.674 777.382 Q152.674 786.109 149.595 790.715 Q146.54 795.298 140.73 795.298 Q134.919 795.298 131.841 790.715 Q128.785 786.109 128.785 777.382 Q128.785 768.632 131.841 764.049 Q134.919 759.442 140.73 759.442 Z" fill="#000000" fill-rule="nonzero" fill-opacity="1" /><path clip-path="url(#clip330)" d="M66.3319 524.559 Q62.7208 524.559 60.8921 528.124 Q59.0865 531.666 59.0865 538.795 Q59.0865 545.902 60.8921 549.467 Q62.7208 553.008 66.3319 553.008 Q69.9661 553.008 71.7717 549.467 Q73.6004 545.902 73.6004 538.795 Q73.6004 531.666 71.7717 528.124 Q69.9661 524.559 66.3319 524.559 M66.3319 520.856 Q72.142 520.856 75.1976 525.462 Q78.2763 530.045 78.2763 538.795 Q78.2763 547.522 75.1976 552.129 Q72.142 556.712 66.3319 556.712 Q60.5217 556.712 57.443 552.129 Q54.3875 547.522 54.3875 538.795 Q54.3875 530.045 57.443 525.462 Q60.5217 520.856 66.3319 520.856 Z" fill="#000000" fill-rule="nonzero" fill-opacity="1" /><path clip-path="url(#clip330)" d="M86.4938 550.161 L91.378 550.161 L91.378 556.041 L86.4938 556.041 L86.4938 550.161 Z" fill="#000000" fill-rule="nonzero" fill-opacity="1" /><path clip-path="url(#clip330)" d="M102.373 552.106 L110.012 552.106 L110.012 525.74 L101.702 527.407 L101.702 523.147 L109.966 521.481 L114.642 521.481 L114.642 552.106 L122.281 552.106 L122.281 556.041 L102.373 556.041 L102.373 552.106 Z" fill="#000000" fill-rule="nonzero" fill-opacity="1" /><path clip-path="url(#clip330)" d="M131.771 521.481 L150.128 521.481 L150.128 525.416 L136.054 525.416 L136.054 533.888 Q137.072 533.541 138.091 533.379 Q139.109 533.194 140.128 533.194 Q145.915 533.194 149.294 536.365 Q152.674 539.536 152.674 544.953 Q152.674 550.531 149.202 553.633 Q145.73 556.712 139.41 556.712 Q137.234 556.712 134.966 556.342 Q132.72 555.971 130.313 555.231 L130.313 550.531 Q132.396 551.666 134.619 552.221 Q136.841 552.777 139.318 552.777 Q143.322 552.777 145.66 550.67 Q147.998 548.564 147.998 544.953 Q147.998 541.342 145.66 539.235 Q143.322 537.129 139.318 537.129 Q137.443 537.129 135.568 537.545 Q133.716 537.962 131.771 538.842 L131.771 521.481 Z" fill="#000000" fill-rule="nonzero" fill-opacity="1" /><path clip-path="url(#clip330)" d="M65.3365 285.973 Q61.7254 285.973 59.8967 289.538 Q58.0912 293.079 58.0912 300.209 Q58.0912 307.316 59.8967 310.88 Q61.7254 314.422 65.3365 314.422 Q68.9707 314.422 70.7763 310.88 Q72.605 307.316 72.605 300.209 Q72.605 293.079 70.7763 289.538 Q68.9707 285.973 65.3365 285.973 M65.3365 282.269 Q71.1467 282.269 74.2022 286.876 Q77.2809 291.459 77.2809 300.209 Q77.2809 308.936 74.2022 313.542 Q71.1467 318.126 65.3365 318.126 Q59.5264 318.126 56.4477 313.542 Q53.3921 308.936 53.3921 300.209 Q53.3921 291.459 56.4477 286.876 Q59.5264 282.269 65.3365 282.269 Z" fill="#000000" fill-rule="nonzero" fill-opacity="1" /><path clip-path="url(#clip330)" d="M85.4984 311.575 L90.3827 311.575 L90.3827 317.454 L85.4984 317.454 L85.4984 311.575 Z" fill="#000000" fill-rule="nonzero" fill-opacity="1" /><path clip-path="url(#clip330)" d="M104.596 313.519 L120.915 313.519 L120.915 317.454 L98.9706 317.454 L98.9706 313.519 Q101.633 310.765 106.216 306.135 Q110.822 301.482 112.003 300.14 Q114.248 297.616 115.128 295.88 Q116.031 294.121 116.031 292.431 Q116.031 289.677 114.086 287.941 Q112.165 286.205 109.063 286.205 Q106.864 286.205 104.41 286.968 Q101.98 287.732 99.2021 289.283 L99.2021 284.561 Q102.026 283.427 104.48 282.848 Q106.934 282.269 108.971 282.269 Q114.341 282.269 117.535 284.955 Q120.73 287.64 120.73 292.13 Q120.73 294.26 119.92 296.181 Q119.133 298.079 117.026 300.672 Q116.447 301.343 113.346 304.561 Q110.244 307.755 104.596 313.519 Z" fill="#000000" fill-rule="nonzero" fill-opacity="1" /><path clip-path="url(#clip330)" d="M140.73 285.973 Q137.119 285.973 135.29 289.538 Q133.484 293.079 133.484 300.209 Q133.484 307.316 135.29 310.88 Q137.119 314.422 140.73 314.422 Q144.364 314.422 146.169 310.88 Q147.998 307.316 147.998 300.209 Q147.998 293.079 146.169 289.538 Q144.364 285.973 140.73 285.973 M140.73 282.269 Q146.54 282.269 149.595 286.876 Q152.674 291.459 152.674 300.209 Q152.674 308.936 149.595 313.542 Q146.54 318.126 140.73 318.126 Q134.919 318.126 131.841 313.542 Q128.785 308.936 128.785 300.209 Q128.785 291.459 131.841 286.876 Q134.919 282.269 140.73 282.269 Z" fill="#000000" fill-rule="nonzero" fill-opacity="1" /><path clip-path="url(#clip330)" d="M66.3319 47.3867 Q62.7208 47.3867 60.8921 50.9514 Q59.0865 54.4931 59.0865 61.6227 Q59.0865 68.7291 60.8921 72.2939 Q62.7208 75.8356 66.3319 75.8356 Q69.9661 75.8356 71.7717 72.2939 Q73.6004 68.7291 73.6004 61.6227 Q73.6004 54.4931 71.7717 50.9514 Q69.9661 47.3867 66.3319 47.3867 M66.3319 43.683 Q72.142 43.683 75.1976 48.2894 Q78.2763 52.8727 78.2763 61.6227 Q78.2763 70.3495 75.1976 74.9559 Q72.142 79.5393 66.3319 79.5393 Q60.5217 79.5393 57.443 74.9559 Q54.3875 70.3495 54.3875 61.6227 Q54.3875 52.8727 57.443 48.2894 Q60.5217 43.683 66.3319 43.683 Z" fill="#000000" fill-rule="nonzero" fill-opacity="1" /><path clip-path="url(#clip330)" d="M86.4938 72.9884 L91.378 72.9884 L91.378 78.868 L86.4938 78.868 L86.4938 72.9884 Z" fill="#000000" fill-rule="nonzero" fill-opacity="1" /><path clip-path="url(#clip330)" d="M105.591 74.9328 L121.91 74.9328 L121.91 78.868 L99.966 78.868 L99.966 74.9328 Q102.628 72.1782 107.211 67.5486 Q111.818 62.8958 112.998 61.5532 Q115.244 59.0301 116.123 57.294 Q117.026 55.5348 117.026 53.845 Q117.026 51.0903 115.082 49.3542 Q113.16 47.6181 110.058 47.6181 Q107.859 47.6181 105.406 48.382 Q102.975 49.1459 100.197 50.6968 L100.197 45.9746 Q103.021 44.8404 105.475 44.2617 Q107.929 43.683 109.966 43.683 Q115.336 43.683 118.531 46.3681 Q121.725 49.0533 121.725 53.544 Q121.725 55.6736 120.915 57.5949 Q120.128 59.4931 118.021 62.0856 Q117.443 62.7569 114.341 65.9745 Q111.239 69.1689 105.591 74.9328 Z" fill="#000000" fill-rule="nonzero" fill-opacity="1" /><path clip-path="url(#clip330)" d="M131.771 44.308 L150.128 44.308 L150.128 48.2431 L136.054 48.2431 L136.054 56.7153 Q137.072 56.3681 138.091 56.206 Q139.109 56.0209 140.128 56.0209 Q145.915 56.0209 149.294 59.1921 Q152.674 62.3634 152.674 67.7801 Q152.674 73.3587 149.202 76.4606 Q145.73 79.5393 139.41 79.5393 Q137.234 79.5393 134.966 79.1689 Q132.72 78.7985 130.313 78.0578 L130.313 73.3587 Q132.396 74.493 134.619 75.0485 Q136.841 75.6041 139.318 75.6041 Q143.322 75.6041 145.66 73.4976 Q147.998 71.3912 147.998 67.7801 Q147.998 64.169 145.66 62.0625 Q143.322 59.956 139.318 59.956 Q137.443 59.956 135.568 60.3727 Q133.716 60.7894 131.771 61.669 L131.771 44.308 Z" fill="#000000" fill-rule="nonzero" fill-opacity="1" /><path clip-path="url(#clip332)" d="M311.573 977.205 L311.573 1254.52 L441.671 1254.52 L441.671 977.205 L311.573 977.205 L311.573 977.205  Z" fill="#009af9" fill-rule="evenodd" fill-opacity="1"/>
<polyline clip-path="url(#clip332)" style="stroke:#000000; stroke-linecap:round; stroke-linejoin:round; stroke-width:4; stroke-opacity:1; fill:none" points="311.573,977.205 311.573,1254.52 441.671,1254.52 441.671,977.205 311.573,977.205 "/>
<path clip-path="url(#clip332)" d="M441.671 465.607 L441.671 1254.52 L571.77 1254.52 L571.77 465.607 L441.671 465.607 L441.671 465.607  Z" fill="#009af9" fill-rule="evenodd" fill-opacity="1"/>
<polyline clip-path="url(#clip332)" style="stroke:#000000; stroke-linecap:round; stroke-linejoin:round; stroke-width:4; stroke-opacity:1; fill:none" points="441.671,465.607 441.671,1254.52 571.77,1254.52 571.77,465.607 441.671,465.607 "/>
<path clip-path="url(#clip332)" d="M571.77 47.2441 L571.77 1254.52 L701.868 1254.52 L701.868 47.2441 L571.77 47.2441 L571.77 47.2441  Z" fill="#009af9" fill-rule="evenodd" fill-opacity="1"/>
<polyline clip-path="url(#clip332)" style="stroke:#000000; stroke-linecap:round; stroke-linejoin:round; stroke-width:4; stroke-opacity:1; fill:none" points="571.77,47.2441 571.77,1254.52 701.868,1254.52 701.868,47.2441 571.77,47.2441 "/>
<path clip-path="url(#clip332)" d="M701.868 269.574 L701.868 1254.52 L831.967 1254.52 L831.967 269.574 L701.868 269.574 L701.868 269.574  Z" fill="#009af9" fill-rule="evenodd" fill-opacity="1"/>
<polyline clip-path="url(#clip332)" style="stroke:#000000; stroke-linecap:round; stroke-linejoin:round; stroke-width:4; stroke-opacity:1; fill:none" points="701.868,269.574 701.868,1254.52 831.967,1254.52 831.967,269.574 701.868,269.574 "/>
<path clip-path="url(#clip332)" d="M831.967 515.811 L831.967 1254.52 L962.066 1254.52 L962.066 515.811 L831.967 515.811 L831.967 515.811  Z" fill="#009af9" fill-rule="evenodd" fill-opacity="1"/>
<polyline clip-path="url(#clip332)" style="stroke:#000000; stroke-linecap:round; stroke-linejoin:round; stroke-width:4; stroke-opacity:1; fill:none" points="831.967,515.811 831.967,1254.52 962.066,1254.52 962.066,515.811 831.967,515.811 "/>
<path clip-path="url(#clip332)" d="M962.066 840.938 L962.066 1254.52 L1092.16 1254.52 L1092.16 840.938 L962.066 840.938 L962.066 840.938  Z" fill="#009af9" fill-rule="evenodd" fill-opacity="1"/>
<polyline clip-path="url(#clip332)" style="stroke:#000000; stroke-linecap:round; stroke-linejoin:round; stroke-width:4; stroke-opacity:1; fill:none" points="962.066,840.938 962.066,1254.52 1092.16,1254.52 1092.16,840.938 962.066,840.938 "/>
<path clip-path="url(#clip332)" d="M1092.16 1068.05 L1092.16 1254.52 L1222.26 1254.52 L1222.26 1068.05 L1092.16 1068.05 L1092.16 1068.05  Z" fill="#009af9" fill-rule="evenodd" fill-opacity="1"/>
<polyline clip-path="url(#clip332)" style="stroke:#000000; stroke-linecap:round; stroke-linejoin:round; stroke-width:4; stroke-opacity:1; fill:none" points="1092.16,1068.05 1092.16,1254.52 1222.26,1254.52 1222.26,1068.05 1092.16,1068.05 "/>
<path clip-path="url(#clip332)" d="M1222.26 1142.16 L1222.26 1254.52 L1352.36 1254.52 L1352.36 1142.16 L1222.26 1142.16 L1222.26 1142.16  Z" fill="#009af9" fill-rule="evenodd" fill-opacity="1"/>
<polyline clip-path="url(#clip332)" style="stroke:#000000; stroke-linecap:round; stroke-linejoin:round; stroke-width:4; stroke-opacity:1; fill:none" points="1222.26,1142.16 1222.26,1254.52 1352.36,1254.52 1352.36,1142.16 1222.26,1142.16 "/>
<path clip-path="url(#clip332)" d="M1352.36 1216.27 L1352.36 1254.52 L1482.46 1254.52 L1482.46 1216.27 L1352.36 1216.27 L1352.36 1216.27  Z" fill="#009af9" fill-rule="evenodd" fill-opacity="1"/>
<polyline clip-path="url(#clip332)" style="stroke:#000000; stroke-linecap:round; stroke-linejoin:round; stroke-width:4; stroke-opacity:1; fill:none" points="1352.36,1216.27 1352.36,1254.52 1482.46,1254.52 1482.46,1216.27 1352.36,1216.27 "/>
<path clip-path="url(#clip332)" d="M1482.46 1230.61 L1482.46 1254.52 L1612.56 1254.52 L1612.56 1230.61 L1482.46 1230.61 L1482.46 1230.61  Z" fill="#009af9" fill-rule="evenodd" fill-opacity="1"/>
<polyline clip-path="url(#clip332)" style="stroke:#000000; stroke-linecap:round; stroke-linejoin:round; stroke-width:4; stroke-opacity:1; fill:none" points="1482.46,1230.61 1482.46,1254.52 1612.56,1254.52 1612.56,1230.61 1482.46,1230.61 "/>
<circle clip-path="url(#clip332)" style="fill:#009af9; stroke:none; fill-opacity:0" cx="376.622" cy="977.205" r="2"/>
<circle clip-path="url(#clip332)" style="fill:#009af9; stroke:none; fill-opacity:0" cx="506.721" cy="465.607" r="2"/>
<circle clip-path="url(#clip332)" style="fill:#009af9; stroke:none; fill-opacity:0" cx="636.819" cy="47.2441" r="2"/>
<circle clip-path="url(#clip332)" style="fill:#009af9; stroke:none; fill-opacity:0" cx="766.918" cy="269.574" r="2"/>
<circle clip-path="url(#clip332)" style="fill:#009af9; stroke:none; fill-opacity:0" cx="897.016" cy="515.811" r="2"/>
<circle clip-path="url(#clip332)" style="fill:#009af9; stroke:none; fill-opacity:0" cx="1027.11" cy="840.938" r="2"/>
<circle clip-path="url(#clip332)" style="fill:#009af9; stroke:none; fill-opacity:0" cx="1157.21" cy="1068.05" r="2"/>
<circle clip-path="url(#clip332)" style="fill:#009af9; stroke:none; fill-opacity:0" cx="1287.31" cy="1142.16" r="2"/>
<circle clip-path="url(#clip332)" style="fill:#009af9; stroke:none; fill-opacity:0" cx="1417.41" cy="1216.27" r="2"/>
<circle clip-path="url(#clip332)" style="fill:#009af9; stroke:none; fill-opacity:0" cx="1547.51" cy="1230.61" r="2"/>
</svg>
