<?xml version="1.0" encoding="utf-8"?>
<svg xmlns="http://www.w3.org/2000/svg" xmlns:xlink="http://www.w3.org/1999/xlink" width="480" height="360" viewBox="0 0 1920 1440">
<defs>
  <clipPath id="clip450">
    <rect x="0" y="0" width="1920" height="1440"/>
  </clipPath>
</defs>
<path clip-path="url(#clip450)" d="M0 1440 L1920 1440 L1920 0 L0 0  Z" fill="#ffffff" fill-rule="evenodd" fill-opacity="1"/>
<defs>
  <clipPath id="clip451">
    <rect x="384" y="0" width="1345" height="1345"/>
  </clipPath>
</defs>
<path clip-path="url(#clip450)" d="M151.312 1254.52 L1872.76 1254.52 L1872.76 47.2441 L151.312 47.2441  Z" fill="#ffffff" fill-rule="evenodd" fill-opacity="1"/>
<defs>
  <clipPath id="clip452">
    <rect x="151" y="47" width="1722" height="1208"/>
  </clipPath>
</defs>
<polyline clip-path="url(#clip452)" style="stroke:#000000; stroke-linecap:round; stroke-linejoin:round; stroke-width:2; stroke-opacity:0.1; fill:none" points="151.312,1254.52 151.312,47.2441 "/>
<polyline clip-path="url(#clip452)" style="stroke:#000000; stroke-linecap:round; stroke-linejoin:round; stroke-width:2; stroke-opacity:0.1; fill:none" points="581.673,1254.52 581.673,47.2441 "/>
<polyline clip-path="url(#clip452)" style="stroke:#000000; stroke-linecap:round; stroke-linejoin:round; stroke-width:2; stroke-opacity:0.1; fill:none" points="1012.03,1254.52 1012.03,47.2441 "/>
<polyline clip-path="url(#clip452)" style="stroke:#000000; stroke-linecap:round; stroke-linejoin:round; stroke-width:2; stroke-opacity:0.1; fill:none" points="1442.39,1254.52 1442.39,47.2441 "/>
<polyline clip-path="url(#clip452)" style="stroke:#000000; stroke-linecap:round; stroke-linejoin:round; stroke-width:2; stroke-opacity:0.1; fill:none" points="1872.76,1254.52 1872.76,47.2441 "/>
<polyline clip-path="url(#clip452)" style="stroke:#000000; stroke-linecap:round; stroke-linejoin:round; stroke-width:2; stroke-opacity:0.1; fill:none" points="151.312,1254.52 1872.76,1254.52 "/>
<polyline clip-path="url(#clip452)" style="stroke:#000000; stroke-linecap:round; stroke-linejoin:round; stroke-width:2; stroke-opacity:0.1; fill:none" points="151.312,928.229 1872.76,928.229 "/>
<polyline clip-path="url(#clip452)" style="stroke:#000000; stroke-linecap:round; stroke-linejoin:round; stroke-width:2; stroke-opacity:0.1; fill:none" points="151.312,601.938 1872.76,601.938 "/>
<polyline clip-path="url(#clip452)" style="stroke:#000000; stroke-linecap:round; stroke-linejoin:round; stroke-width:2; stroke-opacity:0.1; fill:none" points="151.312,275.648 1872.76,275.648 "/>
<polyline clip-path="url(#clip450)" style="stroke:#000000; stroke-linecap:round; stroke-linejoin:round; stroke-width:4; stroke-opacity:1; fill:none" points="151.312,1254.52 1872.76,1254.52 "/>
<polyline clip-path="url(#clip450)" style="stroke:#000000; stroke-linecap:round; stroke-linejoin:round; stroke-width:4; stroke-opacity:1; fill:none" points="151.312,1254.52 151.312,1235.62 "/>
<polyline clip-path="url(#clip450)" style="stroke:#000000; stroke-linecap:round; stroke-linejoin:round; stroke-width:4; stroke-opacity:1; fill:none" points="581.673,1254.52 581.673,1235.62 "/>
<polyline clip-path="url(#clip450)" style="stroke:#000000; stroke-linecap:round; stroke-linejoin:round; stroke-width:4; stroke-opacity:1; fill:none" points="1012.03,1254.52 1012.03,1235.62 "/>
<polyline clip-path="url(#clip450)" style="stroke:#000000; stroke-linecap:round; stroke-linejoin:round; stroke-width:4; stroke-opacity:1; fill:none" points="1442.39,1254.52 1442.39,1235.62 "/>
<polyline clip-path="url(#clip450)" style="stroke:#000000; stroke-linecap:round; stroke-linejoin:round; stroke-width:4; stroke-opacity:1; fill:none" points="1872.76,1254.52 1872.76,1235.62 "/>
<path clip-path="url(#clip450)" d="M98.3379 1296.25 L128.014 1296.25 L128.014 1300.19 L98.3379 1300.19 L98.3379 1296.25 Z" fill="#000000" fill-rule="nonzero" fill-opacity="1" /><path clip-path="url(#clip450)" d="M148.106 1281.6 Q144.495 1281.6 142.666 1285.16 Q140.861 1288.7 140.861 1295.83 Q140.861 1302.94 142.666 1306.51 Q144.495 1310.05 148.106 1310.05 Q151.74 1310.05 153.546 1306.51 Q155.375 1302.94 155.375 1295.83 Q155.375 1288.7 153.546 1285.16 Q151.74 1281.6 148.106 1281.6 M148.106 1277.89 Q153.916 1277.89 156.972 1282.5 Q160.051 1287.08 160.051 1295.83 Q160.051 1304.56 156.972 1309.17 Q153.916 1313.75 148.106 1313.75 Q142.296 1313.75 139.217 1309.17 Q136.162 1304.56 136.162 1295.83 Q136.162 1287.08 139.217 1282.5 Q142.296 1277.89 148.106 1277.89 Z" fill="#000000" fill-rule="nonzero" fill-opacity="1" /><path clip-path="url(#clip450)" d="M168.268 1307.2 L173.152 1307.2 L173.152 1313.08 L168.268 1313.08 L168.268 1307.2 Z" fill="#000000" fill-rule="nonzero" fill-opacity="1" /><path clip-path="url(#clip450)" d="M183.384 1278.52 L201.74 1278.52 L201.74 1282.46 L187.666 1282.46 L187.666 1290.93 Q188.685 1290.58 189.703 1290.42 Q190.722 1290.23 191.74 1290.23 Q197.527 1290.23 200.907 1293.4 Q204.286 1296.58 204.286 1301.99 Q204.286 1307.57 200.814 1310.67 Q197.342 1313.75 191.023 1313.75 Q188.847 1313.75 186.578 1313.38 Q184.333 1313.01 181.925 1312.27 L181.925 1307.57 Q184.009 1308.7 186.231 1309.26 Q188.453 1309.82 190.93 1309.82 Q194.935 1309.82 197.273 1307.71 Q199.61 1305.6 199.61 1301.99 Q199.61 1298.38 197.273 1296.27 Q194.935 1294.17 190.93 1294.17 Q189.055 1294.17 187.18 1294.58 Q185.328 1295 183.384 1295.88 L183.384 1278.52 Z" fill="#000000" fill-rule="nonzero" fill-opacity="1" /><path clip-path="url(#clip450)" d="M559.057 1281.6 Q555.446 1281.6 553.618 1285.16 Q551.812 1288.7 551.812 1295.83 Q551.812 1302.94 553.618 1306.51 Q555.446 1310.05 559.057 1310.05 Q562.692 1310.05 564.497 1306.51 Q566.326 1302.94 566.326 1295.83 Q566.326 1288.7 564.497 1285.16 Q562.692 1281.6 559.057 1281.6 M559.057 1277.89 Q564.868 1277.89 567.923 1282.5 Q571.002 1287.08 571.002 1295.83 Q571.002 1304.56 567.923 1309.17 Q564.868 1313.75 559.057 1313.75 Q553.247 1313.75 550.169 1309.17 Q547.113 1304.56 547.113 1295.83 Q547.113 1287.08 550.169 1282.5 Q553.247 1277.89 559.057 1277.89 Z" fill="#000000" fill-rule="nonzero" fill-opacity="1" /><path clip-path="url(#clip450)" d="M579.219 1307.2 L584.104 1307.2 L584.104 1313.08 L579.219 1313.08 L579.219 1307.2 Z" fill="#000000" fill-rule="nonzero" fill-opacity="1" /><path clip-path="url(#clip450)" d="M604.289 1281.6 Q600.678 1281.6 598.849 1285.16 Q597.043 1288.7 597.043 1295.83 Q597.043 1302.94 598.849 1306.51 Q600.678 1310.05 604.289 1310.05 Q607.923 1310.05 609.728 1306.51 Q611.557 1302.94 611.557 1295.83 Q611.557 1288.7 609.728 1285.16 Q607.923 1281.6 604.289 1281.6 M604.289 1277.89 Q610.099 1277.89 613.154 1282.5 Q616.233 1287.08 616.233 1295.83 Q616.233 1304.56 613.154 1309.17 Q610.099 1313.75 604.289 1313.75 Q598.479 1313.75 595.4 1309.17 Q592.344 1304.56 592.344 1295.83 Q592.344 1287.08 595.4 1282.5 Q598.479 1277.89 604.289 1277.89 Z" fill="#000000" fill-rule="nonzero" fill-opacity="1" /><path clip-path="url(#clip450)" d="M989.916 1281.6 Q986.305 1281.6 984.476 1285.16 Q982.671 1288.7 982.671 1295.83 Q982.671 1302.94 984.476 1306.51 Q986.305 1310.05 989.916 1310.05 Q993.55 1310.05 995.356 1306.51 Q997.185 1302.94 997.185 1295.83 Q997.185 1288.7 995.356 1285.16 Q993.55 1281.6 989.916 1281.6 M989.916 1277.89 Q995.726 1277.89 998.782 1282.5 Q1001.86 1287.08 1001.86 1295.83 Q1001.86 1304.56 998.782 1309.17 Q995.726 1313.75 989.916 1313.75 Q984.106 1313.75 981.027 1309.17 Q977.972 1304.56 977.972 1295.83 Q977.972 1287.08 981.027 1282.5 Q984.106 1277.89 989.916 1277.89 Z" fill="#000000" fill-rule="nonzero" fill-opacity="1" /><path clip-path="url(#clip450)" d="M1010.08 1307.2 L1014.96 1307.2 L1014.96 1313.08 L1010.08 1313.08 L1010.08 1307.2 Z" fill="#000000" fill-rule="nonzero" fill-opacity="1" /><path clip-path="url(#clip450)" d="M1025.19 1278.52 L1043.55 1278.52 L1043.55 1282.46 L1029.48 1282.46 L1029.48 1290.93 Q1030.49 1290.58 1031.51 1290.42 Q1032.53 1290.23 1033.55 1290.23 Q1039.34 1290.23 1042.72 1293.4 Q1046.1 1296.58 1046.1 1301.99 Q1046.1 1307.57 1042.62 1310.67 Q1039.15 1313.75 1032.83 1313.75 Q1030.66 1313.75 1028.39 1313.38 Q1026.14 1313.01 1023.74 1312.27 L1023.74 1307.57 Q1025.82 1308.7 1028.04 1309.26 Q1030.26 1309.82 1032.74 1309.82 Q1036.74 1309.82 1039.08 1307.71 Q1041.42 1305.6 1041.42 1301.99 Q1041.42 1298.38 1039.08 1296.27 Q1036.74 1294.17 1032.74 1294.17 Q1030.86 1294.17 1028.99 1294.58 Q1027.14 1295 1025.19 1295.88 L1025.19 1278.52 Z" fill="#000000" fill-rule="nonzero" fill-opacity="1" /><path clip-path="url(#clip450)" d="M1409.55 1309.14 L1417.19 1309.14 L1417.19 1282.78 L1408.88 1284.45 L1408.88 1280.19 L1417.14 1278.52 L1421.82 1278.52 L1421.82 1309.14 L1429.46 1309.14 L1429.46 1313.08 L1409.55 1313.08 L1409.55 1309.14 Z" fill="#000000" fill-rule="nonzero" fill-opacity="1" /><path clip-path="url(#clip450)" d="M1438.9 1307.2 L1443.78 1307.2 L1443.78 1313.08 L1438.9 1313.08 L1438.9 1307.2 Z" fill="#000000" fill-rule="nonzero" fill-opacity="1" /><path clip-path="url(#clip450)" d="M1463.97 1281.6 Q1460.36 1281.6 1458.53 1285.16 Q1456.72 1288.7 1456.72 1295.83 Q1456.72 1302.94 1458.53 1306.51 Q1460.36 1310.05 1463.97 1310.05 Q1467.6 1310.05 1469.41 1306.51 Q1471.24 1302.94 1471.24 1295.83 Q1471.24 1288.7 1469.41 1285.16 Q1467.6 1281.6 1463.97 1281.6 M1463.97 1277.89 Q1469.78 1277.89 1472.83 1282.5 Q1475.91 1287.08 1475.91 1295.83 Q1475.91 1304.56 1472.83 1309.17 Q1469.78 1313.75 1463.97 1313.75 Q1458.16 1313.75 1455.08 1309.17 Q1452.02 1304.56 1452.02 1295.83 Q1452.02 1287.08 1455.08 1282.5 Q1458.16 1277.89 1463.97 1277.89 Z" fill="#000000" fill-rule="nonzero" fill-opacity="1" /><path clip-path="url(#clip450)" d="M1840.41 1309.14 L1848.05 1309.14 L1848.05 1282.78 L1839.74 1284.45 L1839.74 1280.19 L1848 1278.52 L1852.67 1278.52 L1852.67 1309.14 L1860.31 1309.14 L1860.31 1313.08 L1840.41 1313.08 L1840.41 1309.14 Z" fill="#000000" fill-rule="nonzero" fill-opacity="1" /><path clip-path="url(#clip450)" d="M1869.76 1307.2 L1874.64 1307.2 L1874.64 1313.08 L1869.76 1313.08 L1869.76 1307.2 Z" fill="#000000" fill-rule="nonzero" fill-opacity="1" /><path clip-path="url(#clip450)" d="M1884.87 1278.52 L1903.23 1278.52 L1903.23 1282.46 L1889.16 1282.46 L1889.16 1290.93 Q1890.17 1290.58 1891.19 1290.42 Q1892.21 1290.23 1893.23 1290.23 Q1899.02 1290.23 1902.4 1293.4 Q1905.78 1296.58 1905.78 1301.99 Q1905.78 1307.57 1902.3 1310.67 Q1898.83 1313.75 1892.51 1313.75 Q1890.34 1313.75 1888.07 1313.38 Q1885.82 1313.01 1883.42 1312.27 L1883.42 1307.57 Q1885.5 1308.7 1887.72 1309.26 Q1889.94 1309.82 1892.42 1309.82 Q1896.42 1309.82 1898.76 1307.71 Q1901.1 1305.6 1901.1 1301.99 Q1901.1 1298.38 1898.76 1296.27 Q1896.42 1294.17 1892.42 1294.17 Q1890.55 1294.17 1888.67 1294.58 Q1886.82 1295 1884.87 1295.88 L1884.87 1278.52 Z" fill="#000000" fill-rule="nonzero" fill-opacity="1" /><path clip-path="url(#clip450)" d="M1026.64 1348.96 Q1026.64 1350.76 1026.09 1352.79 L1018.58 1382.65 Q1017.91 1385.29 1015.88 1385.29 Q1015.04 1385.29 1014.53 1384.77 Q1014.04 1384.29 1014.04 1383.52 Q1014.04 1383.26 1014.24 1382.45 L1021.74 1352.12 Q1022.42 1349.35 1022.42 1347.96 Q1022.42 1343.36 1018.84 1343.36 Q1015.69 1343.36 1012.53 1345.67 Q1011.08 1346.83 1009.66 1348.93 Q1008.28 1350.99 1008.02 1351.73 Q1007.73 1353.4 1007.31 1354.69 Q1007.12 1355.59 1006.18 1359.1 L1004.74 1365.06 Q1003.7 1369.51 1003.48 1369.93 Q1003.16 1370.83 1002.45 1371.31 Q1001.74 1371.79 1001.03 1371.79 Q1000.23 1371.79 999.679 1371.31 Q999.132 1370.83 999.132 1369.99 Q999.132 1369.86 999.228 1369.38 Q999.325 1368.9 999.486 1368.22 Q999.647 1367.54 999.711 1367.16 L1003.54 1351.92 Q1004.25 1349.15 1004.41 1348.28 Q1004.61 1347.38 1004.61 1346.38 Q1004.61 1344.64 1004.06 1344 Q1003.51 1343.36 1002.55 1343.36 Q1000.87 1343.36 999.776 1345.35 Q998.681 1347.35 997.747 1351.21 Q997.457 1352.28 997.264 1352.5 Q997.103 1352.73 996.62 1352.73 Q995.814 1352.7 995.814 1352.05 Q995.814 1351.89 996.072 1350.86 Q996.33 1349.8 996.813 1348.25 Q997.328 1346.67 997.876 1345.67 Q998.198 1345 998.487 1344.55 Q998.777 1344.1 999.357 1343.39 Q999.937 1342.68 1000.81 1342.29 Q1001.68 1341.91 1002.74 1341.91 Q1005.09 1341.91 1006.83 1343.42 Q1008.6 1344.93 1008.83 1347.64 Q1009.5 1346.64 1010.37 1345.74 Q1011.27 1344.84 1012.53 1343.94 Q1013.79 1343 1015.49 1342.45 Q1017.2 1341.91 1019.03 1341.91 Q1022.71 1341.91 1024.67 1343.81 Q1026.64 1345.67 1026.64 1348.96 Z" fill="#000000" fill-rule="nonzero" fill-opacity="1" /><polyline clip-path="url(#clip450)" style="stroke:#000000; stroke-linecap:round; stroke-linejoin:round; stroke-width:4; stroke-opacity:1; fill:none" points="151.312,1254.52 151.312,47.2441 "/>
<polyline clip-path="url(#clip450)" style="stroke:#000000; stroke-linecap:round; stroke-linejoin:round; stroke-width:4; stroke-opacity:1; fill:none" points="151.312,1254.52 170.21,1254.52 "/>
<polyline clip-path="url(#clip450)" style="stroke:#000000; stroke-linecap:round; stroke-linejoin:round; stroke-width:4; stroke-opacity:1; fill:none" points="151.312,928.229 170.21,928.229 "/>
<polyline clip-path="url(#clip450)" style="stroke:#000000; stroke-linecap:round; stroke-linejoin:round; stroke-width:4; stroke-opacity:1; fill:none" points="151.312,601.938 170.21,601.938 "/>
<polyline clip-path="url(#clip450)" style="stroke:#000000; stroke-linecap:round; stroke-linejoin:round; stroke-width:4; stroke-opacity:1; fill:none" points="151.312,275.648 170.21,275.648 "/>
<path clip-path="url(#clip450)" d="M65.3365 1240.32 Q61.7254 1240.32 59.8967 1243.88 Q58.0912 1247.42 58.0912 1254.55 Q58.0912 1261.66 59.8967 1265.23 Q61.7254 1268.77 65.3365 1268.77 Q68.9707 1268.77 70.7763 1265.23 Q72.605 1261.66 72.605 1254.55 Q72.605 1247.42 70.7763 1243.88 Q68.9707 1240.32 65.3365 1240.32 M65.3365 1236.61 Q71.1467 1236.61 74.2022 1241.22 Q77.2809 1245.8 77.2809 1254.55 Q77.2809 1263.28 74.2022 1267.89 Q71.1467 1272.47 65.3365 1272.47 Q59.5264 1272.47 56.4477 1267.89 Q53.3921 1263.28 53.3921 1254.55 Q53.3921 1245.8 56.4477 1241.22 Q59.5264 1236.61 65.3365 1236.61 Z" fill="#000000" fill-rule="nonzero" fill-opacity="1" /><path clip-path="url(#clip450)" d="M85.4984 1265.92 L90.3827 1265.92 L90.3827 1271.8 L85.4984 1271.8 L85.4984 1265.92 Z" fill="#000000" fill-rule="nonzero" fill-opacity="1" /><path clip-path="url(#clip450)" d="M110.568 1240.32 Q106.957 1240.32 105.128 1243.88 Q103.322 1247.42 103.322 1254.55 Q103.322 1261.66 105.128 1265.23 Q106.957 1268.77 110.568 1268.77 Q114.202 1268.77 116.008 1265.23 Q117.836 1261.66 117.836 1254.55 Q117.836 1247.42 116.008 1243.88 Q114.202 1240.32 110.568 1240.32 M110.568 1236.61 Q116.378 1236.61 119.433 1241.22 Q122.512 1245.8 122.512 1254.55 Q122.512 1263.28 119.433 1267.89 Q116.378 1272.47 110.568 1272.47 Q104.758 1272.47 101.679 1267.89 Q98.6234 1263.28 98.6234 1254.55 Q98.6234 1245.8 101.679 1241.22 Q104.758 1236.61 110.568 1236.61 Z" fill="#000000" fill-rule="nonzero" fill-opacity="1" /><path clip-path="url(#clip450)" d="M66.3319 914.028 Q62.7208 914.028 60.8921 917.593 Q59.0865 921.134 59.0865 928.264 Q59.0865 935.37 60.8921 938.935 Q62.7208 942.477 66.3319 942.477 Q69.9661 942.477 71.7717 938.935 Q73.6004 935.37 73.6004 928.264 Q73.6004 921.134 71.7717 917.593 Q69.9661 914.028 66.3319 914.028 M66.3319 910.324 Q72.142 910.324 75.1976 914.931 Q78.2763 919.514 78.2763 928.264 Q78.2763 936.991 75.1976 941.597 Q72.142 946.18 66.3319 946.18 Q60.5217 946.18 57.443 941.597 Q54.3875 936.991 54.3875 928.264 Q54.3875 919.514 57.443 914.931 Q60.5217 910.324 66.3319 910.324 Z" fill="#000000" fill-rule="nonzero" fill-opacity="1" /><path clip-path="url(#clip450)" d="M86.4938 939.63 L91.378 939.63 L91.378 945.509 L86.4938 945.509 L86.4938 939.63 Z" fill="#000000" fill-rule="nonzero" fill-opacity="1" /><path clip-path="url(#clip450)" d="M101.609 910.949 L119.966 910.949 L119.966 914.884 L105.892 914.884 L105.892 923.356 Q106.91 923.009 107.929 922.847 Q108.947 922.662 109.966 922.662 Q115.753 922.662 119.133 925.833 Q122.512 929.005 122.512 934.421 Q122.512 940 119.04 943.102 Q115.568 946.18 109.248 946.18 Q107.072 946.18 104.804 945.81 Q102.559 945.44 100.151 944.699 L100.151 940 Q102.234 941.134 104.457 941.69 Q106.679 942.245 109.156 942.245 Q113.16 942.245 115.498 940.139 Q117.836 938.032 117.836 934.421 Q117.836 930.81 115.498 928.704 Q113.16 926.597 109.156 926.597 Q107.281 926.597 105.406 927.014 Q103.554 927.43 101.609 928.31 L101.609 910.949 Z" fill="#000000" fill-rule="nonzero" fill-opacity="1" /><path clip-path="url(#clip450)" d="M56.1467 615.283 L63.7856 615.283 L63.7856 588.918 L55.4754 590.584 L55.4754 586.325 L63.7393 584.658 L68.4152 584.658 L68.4152 615.283 L76.054 615.283 L76.054 619.218 L56.1467 619.218 L56.1467 615.283 Z" fill="#000000" fill-rule="nonzero" fill-opacity="1" /><path clip-path="url(#clip450)" d="M85.4984 613.339 L90.3827 613.339 L90.3827 619.218 L85.4984 619.218 L85.4984 613.339 Z" fill="#000000" fill-rule="nonzero" fill-opacity="1" /><path clip-path="url(#clip450)" d="M110.568 587.737 Q106.957 587.737 105.128 591.302 Q103.322 594.843 103.322 601.973 Q103.322 609.08 105.128 612.644 Q106.957 616.186 110.568 616.186 Q114.202 616.186 116.008 612.644 Q117.836 609.08 117.836 601.973 Q117.836 594.843 116.008 591.302 Q114.202 587.737 110.568 587.737 M110.568 584.033 Q116.378 584.033 119.433 588.64 Q122.512 593.223 122.512 601.973 Q122.512 610.7 119.433 615.306 Q116.378 619.89 110.568 619.89 Q104.758 619.89 101.679 615.306 Q98.6234 610.7 98.6234 601.973 Q98.6234 593.223 101.679 588.64 Q104.758 584.033 110.568 584.033 Z" fill="#000000" fill-rule="nonzero" fill-opacity="1" /><path clip-path="url(#clip450)" d="M57.1421 288.992 L64.781 288.992 L64.781 262.627 L56.4708 264.294 L56.4708 260.034 L64.7347 258.368 L69.4106 258.368 L69.4106 288.992 L77.0494 288.992 L77.0494 292.928 L57.1421 292.928 L57.1421 288.992 Z" fill="#000000" fill-rule="nonzero" fill-opacity="1" /><path clip-path="url(#clip450)" d="M86.4938 287.048 L91.378 287.048 L91.378 292.928 L86.4938 292.928 L86.4938 287.048 Z" fill="#000000" fill-rule="nonzero" fill-opacity="1" /><path clip-path="url(#clip450)" d="M101.609 258.368 L119.966 258.368 L119.966 262.303 L105.892 262.303 L105.892 270.775 Q106.91 270.428 107.929 270.266 Q108.947 270.081 109.966 270.081 Q115.753 270.081 119.133 273.252 Q122.512 276.423 122.512 281.84 Q122.512 287.418 119.04 290.52 Q115.568 293.599 109.248 293.599 Q107.072 293.599 104.804 293.229 Q102.559 292.858 100.151 292.117 L100.151 287.418 Q102.234 288.553 104.457 289.108 Q106.679 289.664 109.156 289.664 Q113.16 289.664 115.498 287.557 Q117.836 285.451 117.836 281.84 Q117.836 278.229 115.498 276.122 Q113.16 274.016 109.156 274.016 Q107.281 274.016 105.406 274.432 Q103.554 274.849 101.609 275.729 L101.609 258.368 Z" fill="#000000" fill-rule="nonzero" fill-opacity="1" /><path clip-path="url(#clip452)" d="M366.493 1247.99 L366.493 1254.52 L409.529 1254.52 L409.529 1247.99 L366.493 1247.99 L366.493 1247.99  Z" fill="#009af9" fill-rule="evenodd" fill-opacity="1"/>
<polyline clip-path="url(#clip452)" style="stroke:#000000; stroke-linecap:round; stroke-linejoin:round; stroke-width:4; stroke-opacity:1; fill:none" points="366.493,1247.99 366.493,1254.52 409.529,1254.52 409.529,1247.99 366.493,1247.99 "/>
<path clip-path="url(#clip452)" d="M409.529 1254.52 L409.529 1254.52 L452.565 1254.52 L452.565 1254.52 L409.529 1254.52 L409.529 1254.52  Z" fill="#009af9" fill-rule="evenodd" fill-opacity="1"/>
<polyline clip-path="url(#clip452)" style="stroke:#000000; stroke-linecap:round; stroke-linejoin:round; stroke-width:4; stroke-opacity:1; fill:none" points="409.529,1254.52 409.529,1254.52 452.565,1254.52 409.529,1254.52 "/>
<path clip-path="url(#clip452)" d="M452.565 1241.47 L452.565 1254.52 L495.601 1254.52 L495.601 1241.47 L452.565 1241.47 L452.565 1241.47  Z" fill="#009af9" fill-rule="evenodd" fill-opacity="1"/>
<polyline clip-path="url(#clip452)" style="stroke:#000000; stroke-linecap:round; stroke-linejoin:round; stroke-width:4; stroke-opacity:1; fill:none" points="452.565,1241.47 452.565,1254.52 495.601,1254.52 495.601,1241.47 452.565,1241.47 "/>
<path clip-path="url(#clip452)" d="M495.601 1234.94 L495.601 1254.52 L538.637 1254.52 L538.637 1234.94 L495.601 1234.94 L495.601 1234.94  Z" fill="#009af9" fill-rule="evenodd" fill-opacity="1"/>
<polyline clip-path="url(#clip452)" style="stroke:#000000; stroke-linecap:round; stroke-linejoin:round; stroke-width:4; stroke-opacity:1; fill:none" points="495.601,1234.94 495.601,1254.52 538.637,1254.52 538.637,1234.94 495.601,1234.94 "/>
<path clip-path="url(#clip452)" d="M538.637 1221.89 L538.637 1254.52 L581.673 1254.52 L581.673 1221.89 L538.637 1221.89 L538.637 1221.89  Z" fill="#009af9" fill-rule="evenodd" fill-opacity="1"/>
<polyline clip-path="url(#clip452)" style="stroke:#000000; stroke-linecap:round; stroke-linejoin:round; stroke-width:4; stroke-opacity:1; fill:none" points="538.637,1221.89 538.637,1254.52 581.673,1254.52 581.673,1221.89 538.637,1221.89 "/>
<path clip-path="url(#clip452)" d="M581.673 1202.31 L581.673 1254.52 L624.709 1254.52 L624.709 1202.31 L581.673 1202.31 L581.673 1202.31  Z" fill="#009af9" fill-rule="evenodd" fill-opacity="1"/>
<polyline clip-path="url(#clip452)" style="stroke:#000000; stroke-linecap:round; stroke-linejoin:round; stroke-width:4; stroke-opacity:1; fill:none" points="581.673,1202.31 581.673,1254.52 624.709,1254.52 624.709,1202.31 581.673,1202.31 "/>
<path clip-path="url(#clip452)" d="M624.709 1228.42 L624.709 1254.52 L667.745 1254.52 L667.745 1228.42 L624.709 1228.42 L624.709 1228.42  Z" fill="#009af9" fill-rule="evenodd" fill-opacity="1"/>
<polyline clip-path="url(#clip452)" style="stroke:#000000; stroke-linecap:round; stroke-linejoin:round; stroke-width:4; stroke-opacity:1; fill:none" points="624.709,1228.42 624.709,1254.52 667.745,1254.52 667.745,1228.42 624.709,1228.42 "/>
<path clip-path="url(#clip452)" d="M667.745 1143.58 L667.745 1254.52 L710.781 1254.52 L710.781 1143.58 L667.745 1143.58 L667.745 1143.58  Z" fill="#009af9" fill-rule="evenodd" fill-opacity="1"/>
<polyline clip-path="url(#clip452)" style="stroke:#000000; stroke-linecap:round; stroke-linejoin:round; stroke-width:4; stroke-opacity:1; fill:none" points="667.745,1143.58 667.745,1254.52 710.781,1254.52 710.781,1143.58 667.745,1143.58 "/>
<path clip-path="url(#clip452)" d="M710.781 1058.75 L710.781 1254.52 L753.817 1254.52 L753.817 1058.75 L710.781 1058.75 L710.781 1058.75  Z" fill="#009af9" fill-rule="evenodd" fill-opacity="1"/>
<polyline clip-path="url(#clip452)" style="stroke:#000000; stroke-linecap:round; stroke-linejoin:round; stroke-width:4; stroke-opacity:1; fill:none" points="710.781,1058.75 710.781,1254.52 753.817,1254.52 753.817,1058.75 710.781,1058.75 "/>
<path clip-path="url(#clip452)" d="M753.817 1032.64 L753.817 1254.52 L796.854 1254.52 L796.854 1032.64 L753.817 1032.64 L753.817 1032.64  Z" fill="#009af9" fill-rule="evenodd" fill-opacity="1"/>
<polyline clip-path="url(#clip452)" style="stroke:#000000; stroke-linecap:round; stroke-linejoin:round; stroke-width:4; stroke-opacity:1; fill:none" points="753.817,1032.64 753.817,1254.52 796.854,1254.52 796.854,1032.64 753.817,1032.64 "/>
<path clip-path="url(#clip452)" d="M796.854 934.755 L796.854 1254.52 L839.89 1254.52 L839.89 934.755 L796.854 934.755 L796.854 934.755  Z" fill="#009af9" fill-rule="evenodd" fill-opacity="1"/>
<polyline clip-path="url(#clip452)" style="stroke:#000000; stroke-linecap:round; stroke-linejoin:round; stroke-width:4; stroke-opacity:1; fill:none" points="796.854,934.755 796.854,1254.52 839.89,1254.52 839.89,934.755 796.854,934.755 "/>
<path clip-path="url(#clip452)" d="M839.89 817.29 L839.89 1254.52 L882.926 1254.52 L882.926 817.29 L839.89 817.29 L839.89 817.29  Z" fill="#009af9" fill-rule="evenodd" fill-opacity="1"/>
<polyline clip-path="url(#clip452)" style="stroke:#000000; stroke-linecap:round; stroke-linejoin:round; stroke-width:4; stroke-opacity:1; fill:none" points="839.89,817.29 839.89,1254.52 882.926,1254.52 882.926,817.29 839.89,817.29 "/>
<path clip-path="url(#clip452)" d="M882.926 621.516 L882.926 1254.52 L925.962 1254.52 L925.962 621.516 L882.926 621.516 L882.926 621.516  Z" fill="#009af9" fill-rule="evenodd" fill-opacity="1"/>
<polyline clip-path="url(#clip452)" style="stroke:#000000; stroke-linecap:round; stroke-linejoin:round; stroke-width:4; stroke-opacity:1; fill:none" points="882.926,621.516 882.926,1254.52 925.962,1254.52 925.962,621.516 882.926,621.516 "/>
<path clip-path="url(#clip452)" d="M925.962 380.061 L925.962 1254.52 L968.998 1254.52 L968.998 380.061 L925.962 380.061 L925.962 380.061  Z" fill="#009af9" fill-rule="evenodd" fill-opacity="1"/>
<polyline clip-path="url(#clip452)" style="stroke:#000000; stroke-linecap:round; stroke-linejoin:round; stroke-width:4; stroke-opacity:1; fill:none" points="925.962,380.061 925.962,1254.52 968.998,1254.52 968.998,380.061 925.962,380.061 "/>
<path clip-path="url(#clip452)" d="M968.998 419.216 L968.998 1254.52 L1012.03 1254.52 L1012.03 419.216 L968.998 419.216 L968.998 419.216  Z" fill="#009af9" fill-rule="evenodd" fill-opacity="1"/>
<polyline clip-path="url(#clip452)" style="stroke:#000000; stroke-linecap:round; stroke-linejoin:round; stroke-width:4; stroke-opacity:1; fill:none" points="968.998,419.216 968.998,1254.52 1012.03,1254.52 1012.03,419.216 968.998,419.216 "/>
<path clip-path="url(#clip452)" d="M1012.03 47.2441 L1012.03 1254.52 L1055.07 1254.52 L1055.07 47.2441 L1012.03 47.2441 L1012.03 47.2441  Z" fill="#009af9" fill-rule="evenodd" fill-opacity="1"/>
<polyline clip-path="url(#clip452)" style="stroke:#000000; stroke-linecap:round; stroke-linejoin:round; stroke-width:4; stroke-opacity:1; fill:none" points="1012.03,47.2441 1012.03,1254.52 1055.07,1254.52 1055.07,47.2441 1012.03,47.2441 "/>
<path clip-path="url(#clip452)" d="M1055.07 223.441 L1055.07 1254.52 L1098.11 1254.52 L1098.11 223.441 L1055.07 223.441 L1055.07 223.441  Z" fill="#009af9" fill-rule="evenodd" fill-opacity="1"/>
<polyline clip-path="url(#clip452)" style="stroke:#000000; stroke-linecap:round; stroke-linejoin:round; stroke-width:4; stroke-opacity:1; fill:none" points="1055.07,223.441 1055.07,1254.52 1098.11,1254.52 1098.11,223.441 1055.07,223.441 "/>
<path clip-path="url(#clip452)" d="M1098.11 288.699 L1098.11 1254.52 L1141.14 1254.52 L1141.14 288.699 L1098.11 288.699 L1098.11 288.699  Z" fill="#009af9" fill-rule="evenodd" fill-opacity="1"/>
<polyline clip-path="url(#clip452)" style="stroke:#000000; stroke-linecap:round; stroke-linejoin:round; stroke-width:4; stroke-opacity:1; fill:none" points="1098.11,288.699 1098.11,1254.52 1141.14,1254.52 1141.14,288.699 1098.11,288.699 "/>
<path clip-path="url(#clip452)" d="M1141.14 66.8215 L1141.14 1254.52 L1184.18 1254.52 L1184.18 66.8215 L1141.14 66.8215 L1141.14 66.8215  Z" fill="#009af9" fill-rule="evenodd" fill-opacity="1"/>
<polyline clip-path="url(#clip452)" style="stroke:#000000; stroke-linecap:round; stroke-linejoin:round; stroke-width:4; stroke-opacity:1; fill:none" points="1141.14,66.8215 1141.14,1254.52 1184.18,1254.52 1184.18,66.8215 1141.14,66.8215 "/>
<path clip-path="url(#clip452)" d="M1184.18 360.483 L1184.18 1254.52 L1227.21 1254.52 L1227.21 360.483 L1184.18 360.483 L1184.18 360.483  Z" fill="#009af9" fill-rule="evenodd" fill-opacity="1"/>
<polyline clip-path="url(#clip452)" style="stroke:#000000; stroke-linecap:round; stroke-linejoin:round; stroke-width:4; stroke-opacity:1; fill:none" points="1184.18,360.483 1184.18,1254.52 1227.21,1254.52 1227.21,360.483 1184.18,360.483 "/>
<path clip-path="url(#clip452)" d="M1227.21 340.906 L1227.21 1254.52 L1270.25 1254.52 L1270.25 340.906 L1227.21 340.906 L1227.21 340.906  Z" fill="#009af9" fill-rule="evenodd" fill-opacity="1"/>
<polyline clip-path="url(#clip452)" style="stroke:#000000; stroke-linecap:round; stroke-linejoin:round; stroke-width:4; stroke-opacity:1; fill:none" points="1227.21,340.906 1227.21,1254.52 1270.25,1254.52 1270.25,340.906 1227.21,340.906 "/>
<path clip-path="url(#clip452)" d="M1270.25 491 L1270.25 1254.52 L1313.29 1254.52 L1313.29 491 L1270.25 491 L1270.25 491  Z" fill="#009af9" fill-rule="evenodd" fill-opacity="1"/>
<polyline clip-path="url(#clip452)" style="stroke:#000000; stroke-linecap:round; stroke-linejoin:round; stroke-width:4; stroke-opacity:1; fill:none" points="1270.25,491 1270.25,1254.52 1313.29,1254.52 1313.29,491 1270.25,491 "/>
<path clip-path="url(#clip452)" d="M1313.29 588.887 L1313.29 1254.52 L1356.32 1254.52 L1356.32 588.887 L1313.29 588.887 L1313.29 588.887  Z" fill="#009af9" fill-rule="evenodd" fill-opacity="1"/>
<polyline clip-path="url(#clip452)" style="stroke:#000000; stroke-linecap:round; stroke-linejoin:round; stroke-width:4; stroke-opacity:1; fill:none" points="1313.29,588.887 1313.29,1254.52 1356.32,1254.52 1356.32,588.887 1313.29,588.887 "/>
<path clip-path="url(#clip452)" d="M1356.32 719.403 L1356.32 1254.52 L1399.36 1254.52 L1399.36 719.403 L1356.32 719.403 L1356.32 719.403  Z" fill="#009af9" fill-rule="evenodd" fill-opacity="1"/>
<polyline clip-path="url(#clip452)" style="stroke:#000000; stroke-linecap:round; stroke-linejoin:round; stroke-width:4; stroke-opacity:1; fill:none" points="1356.32,719.403 1356.32,1254.52 1399.36,1254.52 1399.36,719.403 1356.32,719.403 "/>
<path clip-path="url(#clip452)" d="M1399.36 889.074 L1399.36 1254.52 L1442.39 1254.52 L1442.39 889.074 L1399.36 889.074 L1399.36 889.074  Z" fill="#009af9" fill-rule="evenodd" fill-opacity="1"/>
<polyline clip-path="url(#clip452)" style="stroke:#000000; stroke-linecap:round; stroke-linejoin:round; stroke-width:4; stroke-opacity:1; fill:none" points="1399.36,889.074 1399.36,1254.52 1442.39,1254.52 1442.39,889.074 1399.36,889.074 "/>
<path clip-path="url(#clip452)" d="M1442.39 1026.12 L1442.39 1254.52 L1485.43 1254.52 L1485.43 1026.12 L1442.39 1026.12 L1442.39 1026.12  Z" fill="#009af9" fill-rule="evenodd" fill-opacity="1"/>
<polyline clip-path="url(#clip452)" style="stroke:#000000; stroke-linecap:round; stroke-linejoin:round; stroke-width:4; stroke-opacity:1; fill:none" points="1442.39,1026.12 1442.39,1254.52 1485.43,1254.52 1485.43,1026.12 1442.39,1026.12 "/>
<path clip-path="url(#clip452)" d="M1485.43 1052.22 L1485.43 1254.52 L1528.47 1254.52 L1528.47 1052.22 L1485.43 1052.22 L1485.43 1052.22  Z" fill="#009af9" fill-rule="evenodd" fill-opacity="1"/>
<polyline clip-path="url(#clip452)" style="stroke:#000000; stroke-linecap:round; stroke-linejoin:round; stroke-width:4; stroke-opacity:1; fill:none" points="1485.43,1052.22 1485.43,1254.52 1528.47,1254.52 1528.47,1052.22 1485.43,1052.22 "/>
<path clip-path="url(#clip452)" d="M1528.47 1130.53 L1528.47 1254.52 L1571.5 1254.52 L1571.5 1130.53 L1528.47 1130.53 L1528.47 1130.53  Z" fill="#009af9" fill-rule="evenodd" fill-opacity="1"/>
<polyline clip-path="url(#clip452)" style="stroke:#000000; stroke-linecap:round; stroke-linejoin:round; stroke-width:4; stroke-opacity:1; fill:none" points="1528.47,1130.53 1528.47,1254.52 1571.5,1254.52 1571.5,1130.53 1528.47,1130.53 "/>
<path clip-path="url(#clip452)" d="M1571.5 1189.26 L1571.5 1254.52 L1614.54 1254.52 L1614.54 1189.26 L1571.5 1189.26 L1571.5 1189.26  Z" fill="#009af9" fill-rule="evenodd" fill-opacity="1"/>
<polyline clip-path="url(#clip452)" style="stroke:#000000; stroke-linecap:round; stroke-linejoin:round; stroke-width:4; stroke-opacity:1; fill:none" points="1571.5,1189.26 1571.5,1254.52 1614.54,1254.52 1614.54,1189.26 1571.5,1189.26 "/>
<path clip-path="url(#clip452)" d="M1614.54 1182.74 L1614.54 1254.52 L1657.58 1254.52 L1657.58 1182.74 L1614.54 1182.74 L1614.54 1182.74  Z" fill="#009af9" fill-rule="evenodd" fill-opacity="1"/>
<polyline clip-path="url(#clip452)" style="stroke:#000000; stroke-linecap:round; stroke-linejoin:round; stroke-width:4; stroke-opacity:1; fill:none" points="1614.54,1182.74 1614.54,1254.52 1657.58,1254.52 1657.58,1182.74 1614.54,1182.74 "/>
<path clip-path="url(#clip452)" d="M1657.58 1247.99 L1657.58 1254.52 L1700.61 1254.52 L1700.61 1247.99 L1657.58 1247.99 L1657.58 1247.99  Z" fill="#009af9" fill-rule="evenodd" fill-opacity="1"/>
<polyline clip-path="url(#clip452)" style="stroke:#000000; stroke-linecap:round; stroke-linejoin:round; stroke-width:4; stroke-opacity:1; fill:none" points="1657.58,1247.99 1657.58,1254.52 1700.61,1254.52 1700.61,1247.99 1657.58,1247.99 "/>
<path clip-path="url(#clip452)" d="M1700.61 1234.94 L1700.61 1254.52 L1743.65 1254.52 L1743.65 1234.94 L1700.61 1234.94 L1700.61 1234.94  Z" fill="#009af9" fill-rule="evenodd" fill-opacity="1"/>
<polyline clip-path="url(#clip452)" style="stroke:#000000; stroke-linecap:round; stroke-linejoin:round; stroke-width:4; stroke-opacity:1; fill:none" points="1700.61,1234.94 1700.61,1254.52 1743.65,1254.52 1743.65,1234.94 1700.61,1234.94 "/>
<path clip-path="url(#clip452)" d="M1743.65 1247.99 L1743.65 1254.52 L1786.68 1254.52 L1786.68 1247.99 L1743.65 1247.99 L1743.65 1247.99  Z" fill="#009af9" fill-rule="evenodd" fill-opacity="1"/>
<polyline clip-path="url(#clip452)" style="stroke:#000000; stroke-linecap:round; stroke-linejoin:round; stroke-width:4; stroke-opacity:1; fill:none" points="1743.65,1247.99 1743.65,1254.52 1786.68,1254.52 1786.68,1247.99 1743.65,1247.99 "/>
<path clip-path="url(#clip452)" d="M1786.68 1247.99 L1786.68 1254.52 L1829.72 1254.52 L1829.72 1247.99 L1786.68 1247.99 L1786.68 1247.99  Z" fill="#009af9" fill-rule="evenodd" fill-opacity="1"/>
<polyline clip-path="url(#clip452)" style="stroke:#000000; stroke-linecap:round; stroke-linejoin:round; stroke-width:4; stroke-opacity:1; fill:none" points="1786.68,1247.99 1786.68,1254.52 1829.72,1254.52 1829.72,1247.99 1786.68,1247.99 "/>
<path clip-path="url(#clip452)" d="M1829.72 1247.99 L1829.72 1254.52 L1872.76 1254.52 L1872.76 1247.99 L1829.72 1247.99 L1829.72 1247.99  Z" fill="#009af9" fill-rule="evenodd" fill-opacity="1"/>
<polyline clip-path="url(#clip452)" style="stroke:#000000; stroke-linecap:round; stroke-linejoin:round; stroke-width:4; stroke-opacity:1; fill:none" points="1829.72,1247.99 1829.72,1254.52 1872.76,1254.52 1872.76,1247.99 1829.72,1247.99 "/>
<path clip-path="url(#clip452)" d="M1872.76 1254.52 L1872.76 1254.52 L1915.79 1254.52 L1915.79 1254.52 L1872.76 1254.52 L1872.76 1254.52  Z" fill="#009af9" fill-rule="evenodd" fill-opacity="1"/>
<polyline clip-path="url(#clip452)" style="stroke:#000000; stroke-linecap:round; stroke-linejoin:round; stroke-width:4; stroke-opacity:1; fill:none" points="1872.76,1254.52 1872.76,1254.52 1915.79,1254.52 1872.76,1254.52 "/>
<path clip-path="url(#clip452)" d="M1915.79 1247.99 L1915.79 1254.52 L1958.83 1254.52 L1958.83 1247.99 L1915.79 1247.99 L1915.79 1247.99  Z" fill="#009af9" fill-rule="evenodd" fill-opacity="1"/>
<polyline clip-path="url(#clip452)" style="stroke:#000000; stroke-linecap:round; stroke-linejoin:round; stroke-width:4; stroke-opacity:1; fill:none" points="1915.79,1247.99 1915.79,1254.52 1958.83,1254.52 1958.83,1247.99 1915.79,1247.99 "/>
<circle clip-path="url(#clip452)" style="fill:#009af9; stroke:none; fill-opacity:0" cx="388.011" cy="1247.99" r="2"/>
<circle clip-path="url(#clip452)" style="fill:#009af9; stroke:none; fill-opacity:0" cx="431.047" cy="1254.52" r="2"/>
<circle clip-path="url(#clip452)" style="fill:#009af9; stroke:none; fill-opacity:0" cx="474.083" cy="1241.47" r="2"/>
<circle clip-path="url(#clip452)" style="fill:#009af9; stroke:none; fill-opacity:0" cx="517.119" cy="1234.94" r="2"/>
<circle clip-path="url(#clip452)" style="fill:#009af9; stroke:none; fill-opacity:0" cx="560.155" cy="1221.89" r="2"/>
<circle clip-path="url(#clip452)" style="fill:#009af9; stroke:none; fill-opacity:0" cx="603.191" cy="1202.31" r="2"/>
<circle clip-path="url(#clip452)" style="fill:#009af9; stroke:none; fill-opacity:0" cx="646.227" cy="1228.42" r="2"/>
<circle clip-path="url(#clip452)" style="fill:#009af9; stroke:none; fill-opacity:0" cx="689.263" cy="1143.58" r="2"/>
<circle clip-path="url(#clip452)" style="fill:#009af9; stroke:none; fill-opacity:0" cx="732.299" cy="1058.75" r="2"/>
<circle clip-path="url(#clip452)" style="fill:#009af9; stroke:none; fill-opacity:0" cx="775.335" cy="1032.64" r="2"/>
<circle clip-path="url(#clip452)" style="fill:#009af9; stroke:none; fill-opacity:0" cx="818.372" cy="934.755" r="2"/>
<circle clip-path="url(#clip452)" style="fill:#009af9; stroke:none; fill-opacity:0" cx="861.408" cy="817.29" r="2"/>
<circle clip-path="url(#clip452)" style="fill:#009af9; stroke:none; fill-opacity:0" cx="904.444" cy="621.516" r="2"/>
<circle clip-path="url(#clip452)" style="fill:#009af9; stroke:none; fill-opacity:0" cx="947.48" cy="380.061" r="2"/>
<circle clip-path="url(#clip452)" style="fill:#009af9; stroke:none; fill-opacity:0" cx="990.516" cy="419.216" r="2"/>
<circle clip-path="url(#clip452)" style="fill:#009af9; stroke:none; fill-opacity:0" cx="1033.55" cy="47.2441" r="2"/>
<circle clip-path="url(#clip452)" style="fill:#009af9; stroke:none; fill-opacity:0" cx="1076.59" cy="223.441" r="2"/>
<circle clip-path="url(#clip452)" style="fill:#009af9; stroke:none; fill-opacity:0" cx="1119.62" cy="288.699" r="2"/>
<circle clip-path="url(#clip452)" style="fill:#009af9; stroke:none; fill-opacity:0" cx="1162.66" cy="66.8215" r="2"/>
<circle clip-path="url(#clip452)" style="fill:#009af9; stroke:none; fill-opacity:0" cx="1205.7" cy="360.483" r="2"/>
<circle clip-path="url(#clip452)" style="fill:#009af9; stroke:none; fill-opacity:0" cx="1248.73" cy="340.906" r="2"/>
<circle clip-path="url(#clip452)" style="fill:#009af9; stroke:none; fill-opacity:0" cx="1291.77" cy="491" r="2"/>
<circle clip-path="url(#clip452)" style="fill:#009af9; stroke:none; fill-opacity:0" cx="1334.8" cy="588.887" r="2"/>
<circle clip-path="url(#clip452)" style="fill:#009af9; stroke:none; fill-opacity:0" cx="1377.84" cy="719.403" r="2"/>
<circle clip-path="url(#clip452)" style="fill:#009af9; stroke:none; fill-opacity:0" cx="1420.88" cy="889.074" r="2"/>
<circle clip-path="url(#clip452)" style="fill:#009af9; stroke:none; fill-opacity:0" cx="1463.91" cy="1026.12" r="2"/>
<circle clip-path="url(#clip452)" style="fill:#009af9; stroke:none; fill-opacity:0" cx="1506.95" cy="1052.22" r="2"/>
<circle clip-path="url(#clip452)" style="fill:#009af9; stroke:none; fill-opacity:0" cx="1549.99" cy="1130.53" r="2"/>
<circle clip-path="url(#clip452)" style="fill:#009af9; stroke:none; fill-opacity:0" cx="1593.02" cy="1189.26" r="2"/>
<circle clip-path="url(#clip452)" style="fill:#009af9; stroke:none; fill-opacity:0" cx="1636.06" cy="1182.74" r="2"/>
<circle clip-path="url(#clip452)" style="fill:#009af9; stroke:none; fill-opacity:0" cx="1679.09" cy="1247.99" r="2"/>
<circle clip-path="url(#clip452)" style="fill:#009af9; stroke:none; fill-opacity:0" cx="1722.13" cy="1234.94" r="2"/>
<circle clip-path="url(#clip452)" style="fill:#009af9; stroke:none; fill-opacity:0" cx="1765.17" cy="1247.99" r="2"/>
<circle clip-path="url(#clip452)" style="fill:#009af9; stroke:none; fill-opacity:0" cx="1808.2" cy="1247.99" r="2"/>
<circle clip-path="url(#clip452)" style="fill:#009af9; stroke:none; fill-opacity:0" cx="1851.24" cy="1247.99" r="2"/>
<polyline clip-path="url(#clip452)" style="stroke:#e26f46; stroke-linecap:round; stroke-linejoin:round; stroke-width:8; stroke-opacity:1; fill:none" points="211.406,1254.52 220.862,1254.52 230.317,1254.51 239.772,1254.51 249.227,1254.49 258.683,1254.47 268.138,1254.42 277.593,1254.35 287.049,1254.22 296.504,1254.05 305.959,1253.8 315.415,1253.49 324.87,1253.12 334.325,1252.73 343.781,1252.33 353.236,1251.99 362.691,1251.72 372.147,1251.56 381.602,1251.47 391.057,1251.41 400.513,1251.3 409.968,1251.02 419.423,1250.48 428.878,1249.59 438.334,1248.32 447.789,1246.68 457.244,1244.76 466.7,1242.67 476.155,1240.53 485.61,1238.45 495.066,1236.47 504.521,1234.55 513.976,1232.61 523.432,1230.54 532.887,1228.25 542.342,1225.73 551.798,1223.06 561.253,1220.37 570.708,1217.88 580.164,1215.71 589.619,1213.94 599.074,1212.46 608.53,1211.03 617.985,1209.24 627.44,1206.62 636.895,1202.67 646.351,1196.99 655.806,1189.29 665.261,1179.48 674.717,1167.66 684.172,1154.07 693.627,1139.12 703.083,1123.29 712.538,1107.05 721.993,1090.84 731.449,1074.99 740.904,1059.63 750.359,1044.71 759.815,1029.97 769.27,1015.02 778.725,999.381 788.181,982.586 797.636,964.251 807.091,944.108 816.546,922.012 826.002,897.9 835.457,871.748 844.912,843.517 854.368,813.134 863.823,780.512 873.278,745.606 882.734,708.502 892.189,669.503 901.644,629.182 911.1,588.372 920.555,548.081 930.01,509.328 939.466,472.944 948.921,439.374 958.376,408.566 967.832,379.998 977.287,352.86 986.742,326.369 996.198,300.118 1005.65,274.343 1015.11,249.992 1024.56,228.548 1034.02,211.64 1043.47,200.542 1052.93,195.731 1062.38,196.639 1071.84,201.689 1081.3,208.616 1090.75,214.977 1100.21,218.738 1109.66,218.76 1119.12,215.078 1128.57,208.893 1138.03,202.296 1147.48,197.785 1156.94,197.701 1166.39,203.714 1175.85,216.482 1185.3,235.559 1194.76,259.552 1204.21,286.486 1213.67,314.26 1223.13,341.067 1232.58,365.686 1242.04,387.595 1251.49,406.91 1260.95,424.232 1270.4,440.461 1279.86,456.629 1289.31,473.763 1298.77,492.768 1308.22,514.311 1317.68,538.73 1327.13,565.98 1336.59,595.664 1346.04,627.133 1355.5,659.653 1364.95,692.56 1374.41,725.364 1383.87,757.772 1393.32,789.626 1402.78,820.811 1412.23,851.165 1421.69,880.438 1431.14,908.297 1440.6,934.384 1450.05,958.389 1459.51,980.126 1468.96,999.578 1478.42,1016.91 1487.87,1032.47 1497.33,1046.69 1506.78,1060.06 1516.24,1073 1525.7,1085.84 1535.15,1098.73 1544.61,1111.62 1554.06,1124.34 1563.52,1136.6 1572.97,1148.11 1582.43,1158.63 1591.88,1168.04 1601.34,1176.36 1610.79,1183.76 1620.25,1190.49 1629.7,1196.77 1639.16,1202.8 1648.61,1208.64 1658.07,1214.26 1667.53,1219.55 1676.98,1224.39 1686.44,1228.66 1695.89,1232.32 1705.35,1235.39 1714.8,1237.93 1724.26,1240.03 1733.71,1241.75 1743.17,1243.17 1752.62,1244.33 1762.08,1245.27 1771.53,1246.03 1780.99,1246.66 1790.44,1247.19 1799.9,1247.66 1809.35,1248.1 1818.81,1248.51 1828.27,1248.92 1837.72,1249.31 1847.18,1249.69 1856.63,1250.05 1866.09,1250.37 1875.54,1250.63 1885,1250.83 1894.45,1250.96 1903.91,1251.04 1913.36,1251.1 1922.82,1251.19 1932.27,1251.34 1941.73,1251.57 1951.18,1251.89 1960.64,1252.28 1970.1,1252.69 1979.55,1253.11 1989.01,1253.48 1998.46,1253.8 2007.92,1254.05 2017.37,1254.22 2026.83,1254.34 2036.28,1254.42 2045.74,1254.47 2055.19,1254.49 2064.65,1254.51 2074.1,1254.51 2083.56,1254.52 2093.01,1254.52 "/>
</svg>
