<?xml version="1.0" encoding="utf-8"?>
<svg xmlns="http://www.w3.org/2000/svg" xmlns:xlink="http://www.w3.org/1999/xlink" width="480" height="360" viewBox="0 0 1920 1440">
<defs>
  <clipPath id="clip610">
    <rect x="0" y="0" width="1920" height="1440"/>
  </clipPath>
</defs>
<path clip-path="url(#clip610)" d="M0 1440 L1920 1440 L1920 0 L0 0  Z" fill="#ffffff" fill-rule="evenodd" fill-opacity="1"/>
<defs>
  <clipPath id="clip611">
    <rect x="384" y="0" width="1345" height="1345"/>
  </clipPath>
</defs>
<path clip-path="url(#clip610)" d="M221.006 1254.52 L1872.76 1254.52 L1872.76 47.2441 L221.006 47.2441  Z" fill="#ffffff" fill-rule="evenodd" fill-opacity="1"/>
<defs>
  <clipPath id="clip612">
    <rect x="221" y="47" width="1653" height="1208"/>
  </clipPath>
</defs>
<polyline clip-path="url(#clip612)" style="stroke:#000000; stroke-linecap:round; stroke-linejoin:round; stroke-width:2; stroke-opacity:0.1; fill:none" points="221.006,1254.52 221.006,47.2441 "/>
<polyline clip-path="url(#clip612)" style="stroke:#000000; stroke-linecap:round; stroke-linejoin:round; stroke-width:2; stroke-opacity:0.1; fill:none" points="609.653,1254.52 609.653,47.2441 "/>
<polyline clip-path="url(#clip612)" style="stroke:#000000; stroke-linecap:round; stroke-linejoin:round; stroke-width:2; stroke-opacity:0.1; fill:none" points="998.3,1254.52 998.3,47.2441 "/>
<polyline clip-path="url(#clip612)" style="stroke:#000000; stroke-linecap:round; stroke-linejoin:round; stroke-width:2; stroke-opacity:0.1; fill:none" points="1386.95,1254.52 1386.95,47.2441 "/>
<polyline clip-path="url(#clip612)" style="stroke:#000000; stroke-linecap:round; stroke-linejoin:round; stroke-width:2; stroke-opacity:0.1; fill:none" points="1775.59,1254.52 1775.59,47.2441 "/>
<polyline clip-path="url(#clip612)" style="stroke:#000000; stroke-linecap:round; stroke-linejoin:round; stroke-width:2; stroke-opacity:0.1; fill:none" points="221.006,1254.52 1872.76,1254.52 "/>
<polyline clip-path="url(#clip612)" style="stroke:#000000; stroke-linecap:round; stroke-linejoin:round; stroke-width:2; stroke-opacity:0.1; fill:none" points="221.006,1053.31 1872.76,1053.31 "/>
<polyline clip-path="url(#clip612)" style="stroke:#000000; stroke-linecap:round; stroke-linejoin:round; stroke-width:2; stroke-opacity:0.1; fill:none" points="221.006,852.095 1872.76,852.095 "/>
<polyline clip-path="url(#clip612)" style="stroke:#000000; stroke-linecap:round; stroke-linejoin:round; stroke-width:2; stroke-opacity:0.1; fill:none" points="221.006,650.882 1872.76,650.882 "/>
<polyline clip-path="url(#clip612)" style="stroke:#000000; stroke-linecap:round; stroke-linejoin:round; stroke-width:2; stroke-opacity:0.1; fill:none" points="221.006,449.669 1872.76,449.669 "/>
<polyline clip-path="url(#clip612)" style="stroke:#000000; stroke-linecap:round; stroke-linejoin:round; stroke-width:2; stroke-opacity:0.1; fill:none" points="221.006,248.457 1872.76,248.457 "/>
<polyline clip-path="url(#clip610)" style="stroke:#000000; stroke-linecap:round; stroke-linejoin:round; stroke-width:4; stroke-opacity:1; fill:none" points="221.006,1254.52 1872.76,1254.52 "/>
<polyline clip-path="url(#clip610)" style="stroke:#000000; stroke-linecap:round; stroke-linejoin:round; stroke-width:4; stroke-opacity:1; fill:none" points="221.006,1254.52 221.006,1235.62 "/>
<polyline clip-path="url(#clip610)" style="stroke:#000000; stroke-linecap:round; stroke-linejoin:round; stroke-width:4; stroke-opacity:1; fill:none" points="609.653,1254.52 609.653,1235.62 "/>
<polyline clip-path="url(#clip610)" style="stroke:#000000; stroke-linecap:round; stroke-linejoin:round; stroke-width:4; stroke-opacity:1; fill:none" points="998.3,1254.52 998.3,1235.62 "/>
<polyline clip-path="url(#clip610)" style="stroke:#000000; stroke-linecap:round; stroke-linejoin:round; stroke-width:4; stroke-opacity:1; fill:none" points="1386.95,1254.52 1386.95,1235.62 "/>
<polyline clip-path="url(#clip610)" style="stroke:#000000; stroke-linecap:round; stroke-linejoin:round; stroke-width:4; stroke-opacity:1; fill:none" points="1775.59,1254.52 1775.59,1235.62 "/>
<path clip-path="url(#clip610)" d="M221.006 1281.6 Q217.395 1281.6 215.566 1285.16 Q213.761 1288.7 213.761 1295.83 Q213.761 1302.94 215.566 1306.51 Q217.395 1310.05 221.006 1310.05 Q224.641 1310.05 226.446 1306.51 Q228.275 1302.94 228.275 1295.83 Q228.275 1288.7 226.446 1285.16 Q224.641 1281.6 221.006 1281.6 M221.006 1277.89 Q226.816 1277.89 229.872 1282.5 Q232.951 1287.08 232.951 1295.83 Q232.951 1304.56 229.872 1309.17 Q226.816 1313.75 221.006 1313.75 Q215.196 1313.75 212.117 1309.17 Q209.062 1304.56 209.062 1295.83 Q209.062 1287.08 212.117 1282.5 Q215.196 1277.89 221.006 1277.89 Z" fill="#000000" fill-rule="nonzero" fill-opacity="1" /><path clip-path="url(#clip610)" d="M604.306 1309.14 L620.625 1309.14 L620.625 1313.08 L598.681 1313.08 L598.681 1309.14 Q601.343 1306.39 605.926 1301.76 Q610.533 1297.11 611.713 1295.77 Q613.959 1293.24 614.838 1291.51 Q615.741 1289.75 615.741 1288.06 Q615.741 1285.3 613.797 1283.57 Q611.875 1281.83 608.774 1281.83 Q606.575 1281.83 604.121 1282.59 Q601.69 1283.36 598.913 1284.91 L598.913 1280.19 Q601.737 1279.05 604.19 1278.47 Q606.644 1277.89 608.681 1277.89 Q614.051 1277.89 617.246 1280.58 Q620.44 1283.27 620.44 1287.76 Q620.44 1289.89 619.63 1291.81 Q618.843 1293.7 616.737 1296.3 Q616.158 1296.97 613.056 1300.19 Q609.954 1303.38 604.306 1309.14 Z" fill="#000000" fill-rule="nonzero" fill-opacity="1" /><path clip-path="url(#clip610)" d="M1001.31 1282.59 L989.504 1301.04 L1001.31 1301.04 L1001.31 1282.59 M1000.08 1278.52 L1005.96 1278.52 L1005.96 1301.04 L1010.89 1301.04 L1010.89 1304.93 L1005.96 1304.93 L1005.96 1313.08 L1001.31 1313.08 L1001.31 1304.93 L985.708 1304.93 L985.708 1300.42 L1000.08 1278.52 Z" fill="#000000" fill-rule="nonzero" fill-opacity="1" /><path clip-path="url(#clip610)" d="M1387.35 1293.94 Q1384.2 1293.94 1382.35 1296.09 Q1380.52 1298.24 1380.52 1301.99 Q1380.52 1305.72 1382.35 1307.89 Q1384.2 1310.05 1387.35 1310.05 Q1390.5 1310.05 1392.33 1307.89 Q1394.18 1305.72 1394.18 1301.99 Q1394.18 1298.24 1392.33 1296.09 Q1390.5 1293.94 1387.35 1293.94 M1396.63 1279.28 L1396.63 1283.54 Q1394.88 1282.71 1393.07 1282.27 Q1391.29 1281.83 1389.53 1281.83 Q1384.9 1281.83 1382.44 1284.95 Q1380.01 1288.08 1379.67 1294.4 Q1381.03 1292.39 1383.09 1291.32 Q1385.15 1290.23 1387.63 1290.23 Q1392.84 1290.23 1395.85 1293.4 Q1398.88 1296.55 1398.88 1301.99 Q1398.88 1307.32 1395.73 1310.53 Q1392.58 1313.75 1387.35 1313.75 Q1381.36 1313.75 1378.19 1309.17 Q1375.01 1304.56 1375.01 1295.83 Q1375.01 1287.64 1378.9 1282.78 Q1382.79 1277.89 1389.34 1277.89 Q1391.1 1277.89 1392.88 1278.24 Q1394.69 1278.59 1396.63 1279.28 Z" fill="#000000" fill-rule="nonzero" fill-opacity="1" /><path clip-path="url(#clip610)" d="M1775.59 1296.67 Q1772.26 1296.67 1770.34 1298.45 Q1768.44 1300.23 1768.44 1303.36 Q1768.44 1306.48 1770.34 1308.27 Q1772.26 1310.05 1775.59 1310.05 Q1778.93 1310.05 1780.85 1308.27 Q1782.77 1306.46 1782.77 1303.36 Q1782.77 1300.23 1780.85 1298.45 Q1778.95 1296.67 1775.59 1296.67 M1770.92 1294.68 Q1767.91 1293.94 1766.22 1291.88 Q1764.55 1289.82 1764.55 1286.85 Q1764.55 1282.71 1767.49 1280.3 Q1770.46 1277.89 1775.59 1277.89 Q1780.76 1277.89 1783.7 1280.3 Q1786.64 1282.71 1786.64 1286.85 Q1786.64 1289.82 1784.95 1291.88 Q1783.28 1293.94 1780.29 1294.68 Q1783.67 1295.46 1785.55 1297.76 Q1787.45 1300.05 1787.45 1303.36 Q1787.45 1308.38 1784.37 1311.07 Q1781.31 1313.75 1775.59 1313.75 Q1769.88 1313.75 1766.8 1311.07 Q1763.74 1308.38 1763.74 1303.36 Q1763.74 1300.05 1765.64 1297.76 Q1767.54 1295.46 1770.92 1294.68 M1769.21 1287.29 Q1769.21 1289.98 1770.87 1291.48 Q1772.56 1292.99 1775.59 1292.99 Q1778.6 1292.99 1780.29 1291.48 Q1782.01 1289.98 1782.01 1287.29 Q1782.01 1284.61 1780.29 1283.1 Q1778.6 1281.6 1775.59 1281.6 Q1772.56 1281.6 1770.87 1283.1 Q1769.21 1284.61 1769.21 1287.29 Z" fill="#000000" fill-rule="nonzero" fill-opacity="1" /><path clip-path="url(#clip610)" d="M932.67 1356.05 Q932.67 1356.95 932.251 1357.18 Q931.832 1357.37 930.673 1357.37 L924.489 1357.37 L919.594 1376.82 Q919.208 1378.53 919.208 1379.98 Q919.208 1381.59 919.691 1382.3 Q920.206 1383.01 921.269 1383.01 Q923.362 1383.01 925.616 1381.11 Q927.903 1379.21 929.835 1374.57 Q930.093 1373.96 930.222 1373.83 Q930.383 1373.67 930.802 1373.67 Q931.607 1373.67 931.607 1374.31 Q931.607 1374.54 931.156 1375.57 Q930.737 1376.6 929.803 1378.11 Q928.901 1379.62 927.71 1381.04 Q926.55 1382.46 924.779 1383.49 Q923.008 1384.49 921.108 1384.49 Q918.435 1384.49 916.728 1382.78 Q915.053 1381.07 915.053 1378.4 Q915.053 1377.53 915.729 1374.76 Q916.406 1371.96 920.077 1357.37 L914.248 1357.37 Q913.443 1357.37 913.121 1357.34 Q912.831 1357.31 912.605 1357.14 Q912.412 1356.95 912.412 1356.57 Q912.412 1355.95 912.67 1355.7 Q912.927 1355.41 913.249 1355.37 Q913.604 1355.31 914.409 1355.31 L920.592 1355.31 L923.169 1344.84 Q923.426 1343.81 924.071 1343.23 Q924.747 1342.62 925.133 1342.56 Q925.52 1342.46 925.81 1342.46 Q926.679 1342.46 927.195 1342.94 Q927.71 1343.39 927.71 1344.23 Q927.71 1344.68 925.005 1355.31 L930.802 1355.31 Q931.542 1355.31 931.832 1355.34 Q932.154 1355.37 932.412 1355.53 Q932.67 1355.7 932.67 1356.05 Z" fill="#000000" fill-rule="nonzero" fill-opacity="1" /><path clip-path="url(#clip610)" d="M976.915 1334.29 Q972.65 1341.61 970.582 1348.77 Q968.513 1355.93 968.513 1363.28 Q968.513 1370.63 970.582 1377.86 Q972.682 1385.05 976.915 1392.34 L971.823 1392.34 Q967.049 1384.86 964.661 1377.64 Q962.306 1370.41 962.306 1363.28 Q962.306 1356.18 964.661 1348.99 Q967.017 1341.8 971.823 1334.29 L976.915 1334.29 Z" fill="#000000" fill-rule="nonzero" fill-opacity="1" /><path clip-path="url(#clip610)" d="M1003.11 1387.06 Q1000.63 1393.42 998.272 1395.36 Q995.917 1397.31 991.97 1397.31 L987.292 1397.31 L987.292 1392.4 L990.729 1392.4 Q993.148 1392.4 994.485 1391.26 Q995.822 1390.11 997.445 1385.85 L998.495 1383.17 L984.077 1348.1 L990.283 1348.1 L1001.42 1375.98 L1012.56 1348.1 L1018.77 1348.1 L1003.11 1387.06 Z" fill="#000000" fill-rule="nonzero" fill-opacity="1" /><path clip-path="url(#clip610)" d="M1057.35 1364.46 L1057.35 1367.32 L1030.42 1367.32 Q1030.8 1373.37 1034.05 1376.55 Q1037.33 1379.7 1043.15 1379.7 Q1046.52 1379.7 1049.68 1378.88 Q1052.86 1378.05 1055.98 1376.39 L1055.98 1381.93 Q1052.83 1383.27 1049.52 1383.97 Q1046.21 1384.67 1042.8 1384.67 Q1034.27 1384.67 1029.27 1379.7 Q1024.31 1374.74 1024.31 1366.27 Q1024.31 1357.52 1029.02 1352.4 Q1033.76 1347.24 1041.78 1347.24 Q1048.98 1347.24 1053.14 1351.89 Q1057.35 1356.5 1057.35 1364.46 M1051.49 1362.74 Q1051.43 1357.93 1048.78 1355.07 Q1046.17 1352.2 1041.85 1352.2 Q1036.94 1352.2 1033.98 1354.97 Q1031.06 1357.74 1030.61 1362.77 L1051.49 1362.74 Z" fill="#000000" fill-rule="nonzero" fill-opacity="1" /><path clip-path="url(#clip610)" d="M1083.16 1365.83 Q1076.06 1365.83 1073.32 1367.45 Q1070.59 1369.07 1070.59 1372.99 Q1070.59 1376.11 1072.62 1377.95 Q1074.69 1379.77 1078.23 1379.77 Q1083.1 1379.77 1086.02 1376.33 Q1088.98 1372.86 1088.98 1367.13 L1088.98 1365.83 L1083.16 1365.83 M1094.84 1363.41 L1094.84 1383.75 L1088.98 1383.75 L1088.98 1378.34 Q1086.98 1381.58 1083.99 1383.14 Q1080.99 1384.67 1076.67 1384.67 Q1071.19 1384.67 1067.95 1381.61 Q1064.73 1378.53 1064.73 1373.37 Q1064.73 1367.36 1068.74 1364.3 Q1072.78 1361.24 1080.77 1361.24 L1088.98 1361.24 L1088.98 1360.67 Q1088.98 1356.63 1086.31 1354.43 Q1083.67 1352.2 1078.86 1352.2 Q1075.81 1352.2 1072.91 1352.94 Q1070.01 1353.67 1067.34 1355.13 L1067.34 1349.72 Q1070.55 1348.48 1073.58 1347.88 Q1076.6 1347.24 1079.47 1347.24 Q1087.2 1347.24 1091.02 1351.25 Q1094.84 1355.26 1094.84 1363.41 Z" fill="#000000" fill-rule="nonzero" fill-opacity="1" /><path clip-path="url(#clip610)" d="M1127.56 1353.57 Q1126.57 1353 1125.4 1352.75 Q1124.25 1352.46 1122.85 1352.46 Q1117.88 1352.46 1115.21 1355.71 Q1112.57 1358.92 1112.57 1364.97 L1112.57 1383.75 L1106.68 1383.75 L1106.68 1348.1 L1112.57 1348.1 L1112.57 1353.64 Q1114.41 1350.39 1117.37 1348.83 Q1120.33 1347.24 1124.57 1347.24 Q1125.17 1347.24 1125.9 1347.34 Q1126.64 1347.4 1127.53 1347.56 L1127.56 1353.57 Z" fill="#000000" fill-rule="nonzero" fill-opacity="1" /><path clip-path="url(#clip610)" d="M1156.43 1349.15 L1156.43 1354.69 Q1153.95 1353.41 1151.27 1352.78 Q1148.6 1352.14 1145.73 1352.14 Q1141.37 1352.14 1139.18 1353.48 Q1137.01 1354.81 1137.01 1357.49 Q1137.01 1359.53 1138.57 1360.7 Q1140.13 1361.85 1144.84 1362.9 L1146.85 1363.34 Q1153.09 1364.68 1155.7 1367.13 Q1158.34 1369.55 1158.34 1373.91 Q1158.34 1378.88 1154.39 1381.77 Q1150.48 1384.67 1143.6 1384.67 Q1140.74 1384.67 1137.62 1384.1 Q1134.53 1383.56 1131.09 1382.44 L1131.09 1376.39 Q1134.34 1378.08 1137.49 1378.94 Q1140.64 1379.77 1143.73 1379.77 Q1147.87 1379.77 1150.09 1378.37 Q1152.32 1376.94 1152.32 1374.36 Q1152.32 1371.97 1150.7 1370.7 Q1149.11 1369.42 1143.67 1368.25 L1141.63 1367.77 Q1136.19 1366.62 1133.77 1364.27 Q1131.35 1361.88 1131.35 1357.74 Q1131.35 1352.71 1134.91 1349.98 Q1138.48 1347.24 1145.03 1347.24 Q1148.28 1347.24 1151.14 1347.72 Q1154.01 1348.19 1156.43 1349.15 Z" fill="#000000" fill-rule="nonzero" fill-opacity="1" /><path clip-path="url(#clip610)" d="M1166.74 1334.29 L1171.83 1334.29 Q1176.61 1341.8 1178.96 1348.99 Q1181.35 1356.18 1181.35 1363.28 Q1181.35 1370.41 1178.96 1377.64 Q1176.61 1384.86 1171.83 1392.34 L1166.74 1392.34 Q1170.97 1385.05 1173.04 1377.86 Q1175.14 1370.63 1175.14 1363.28 Q1175.14 1355.93 1173.04 1348.77 Q1170.97 1341.61 1166.74 1334.29 Z" fill="#000000" fill-rule="nonzero" fill-opacity="1" /><polyline clip-path="url(#clip610)" style="stroke:#000000; stroke-linecap:round; stroke-linejoin:round; stroke-width:4; stroke-opacity:1; fill:none" points="221.006,1254.52 221.006,47.2441 "/>
<polyline clip-path="url(#clip610)" style="stroke:#000000; stroke-linecap:round; stroke-linejoin:round; stroke-width:4; stroke-opacity:1; fill:none" points="221.006,1254.52 239.904,1254.52 "/>
<polyline clip-path="url(#clip610)" style="stroke:#000000; stroke-linecap:round; stroke-linejoin:round; stroke-width:4; stroke-opacity:1; fill:none" points="221.006,1053.31 239.904,1053.31 "/>
<polyline clip-path="url(#clip610)" style="stroke:#000000; stroke-linecap:round; stroke-linejoin:round; stroke-width:4; stroke-opacity:1; fill:none" points="221.006,852.095 239.904,852.095 "/>
<polyline clip-path="url(#clip610)" style="stroke:#000000; stroke-linecap:round; stroke-linejoin:round; stroke-width:4; stroke-opacity:1; fill:none" points="221.006,650.882 239.904,650.882 "/>
<polyline clip-path="url(#clip610)" style="stroke:#000000; stroke-linecap:round; stroke-linejoin:round; stroke-width:4; stroke-opacity:1; fill:none" points="221.006,449.669 239.904,449.669 "/>
<polyline clip-path="url(#clip610)" style="stroke:#000000; stroke-linecap:round; stroke-linejoin:round; stroke-width:4; stroke-opacity:1; fill:none" points="221.006,248.457 239.904,248.457 "/>
<path clip-path="url(#clip610)" d="M135.031 1240.32 Q131.42 1240.32 129.591 1243.88 Q127.785 1247.42 127.785 1254.55 Q127.785 1261.66 129.591 1265.23 Q131.42 1268.77 135.031 1268.77 Q138.665 1268.77 140.47 1265.23 Q142.299 1261.66 142.299 1254.55 Q142.299 1247.42 140.47 1243.88 Q138.665 1240.32 135.031 1240.32 M135.031 1236.61 Q140.841 1236.61 143.896 1241.22 Q146.975 1245.8 146.975 1254.55 Q146.975 1263.28 143.896 1267.89 Q140.841 1272.47 135.031 1272.47 Q129.22 1272.47 126.142 1267.89 Q123.086 1263.28 123.086 1254.55 Q123.086 1245.8 126.142 1241.22 Q129.22 1236.61 135.031 1236.61 Z" fill="#000000" fill-rule="nonzero" fill-opacity="1" /><path clip-path="url(#clip610)" d="M155.193 1265.92 L160.077 1265.92 L160.077 1271.8 L155.193 1271.8 L155.193 1265.92 Z" fill="#000000" fill-rule="nonzero" fill-opacity="1" /><path clip-path="url(#clip610)" d="M180.262 1240.32 Q176.651 1240.32 174.822 1243.88 Q173.017 1247.42 173.017 1254.55 Q173.017 1261.66 174.822 1265.23 Q176.651 1268.77 180.262 1268.77 Q183.896 1268.77 185.702 1265.23 Q187.53 1261.66 187.53 1254.55 Q187.53 1247.42 185.702 1243.88 Q183.896 1240.32 180.262 1240.32 M180.262 1236.61 Q186.072 1236.61 189.128 1241.22 Q192.206 1245.8 192.206 1254.55 Q192.206 1263.28 189.128 1267.89 Q186.072 1272.47 180.262 1272.47 Q174.452 1272.47 171.373 1267.89 Q168.318 1263.28 168.318 1254.55 Q168.318 1245.8 171.373 1241.22 Q174.452 1236.61 180.262 1236.61 Z" fill="#000000" fill-rule="nonzero" fill-opacity="1" /><path clip-path="url(#clip610)" d="M136.257 1039.11 Q132.646 1039.11 130.818 1042.67 Q129.012 1046.21 129.012 1053.34 Q129.012 1060.45 130.818 1064.01 Q132.646 1067.55 136.257 1067.55 Q139.892 1067.55 141.697 1064.01 Q143.526 1060.45 143.526 1053.34 Q143.526 1046.21 141.697 1042.67 Q139.892 1039.11 136.257 1039.11 M136.257 1035.4 Q142.068 1035.4 145.123 1040.01 Q148.202 1044.59 148.202 1053.34 Q148.202 1062.07 145.123 1066.68 Q142.068 1071.26 136.257 1071.26 Q130.447 1071.26 127.369 1066.68 Q124.313 1062.07 124.313 1053.34 Q124.313 1044.59 127.369 1040.01 Q130.447 1035.4 136.257 1035.4 Z" fill="#000000" fill-rule="nonzero" fill-opacity="1" /><path clip-path="url(#clip610)" d="M156.419 1064.71 L161.304 1064.71 L161.304 1070.59 L156.419 1070.59 L156.419 1064.71 Z" fill="#000000" fill-rule="nonzero" fill-opacity="1" /><path clip-path="url(#clip610)" d="M172.299 1066.65 L179.938 1066.65 L179.938 1040.29 L171.628 1041.95 L171.628 1037.69 L179.892 1036.03 L184.567 1036.03 L184.567 1066.65 L192.206 1066.65 L192.206 1070.59 L172.299 1070.59 L172.299 1066.65 Z" fill="#000000" fill-rule="nonzero" fill-opacity="1" /><path clip-path="url(#clip610)" d="M136.628 837.893 Q133.017 837.893 131.188 841.458 Q129.383 845 129.383 852.129 Q129.383 859.236 131.188 862.801 Q133.017 866.342 136.628 866.342 Q140.262 866.342 142.068 862.801 Q143.896 859.236 143.896 852.129 Q143.896 845 142.068 841.458 Q140.262 837.893 136.628 837.893 M136.628 834.19 Q142.438 834.19 145.494 838.796 Q148.572 843.379 148.572 852.129 Q148.572 860.856 145.494 865.463 Q142.438 870.046 136.628 870.046 Q130.818 870.046 127.739 865.463 Q124.683 860.856 124.683 852.129 Q124.683 843.379 127.739 838.796 Q130.818 834.19 136.628 834.19 Z" fill="#000000" fill-rule="nonzero" fill-opacity="1" /><path clip-path="url(#clip610)" d="M156.79 863.495 L161.674 863.495 L161.674 869.375 L156.79 869.375 L156.79 863.495 Z" fill="#000000" fill-rule="nonzero" fill-opacity="1" /><path clip-path="url(#clip610)" d="M175.887 865.439 L192.206 865.439 L192.206 869.375 L170.262 869.375 L170.262 865.439 Q172.924 862.685 177.507 858.055 Q182.114 853.402 183.294 852.06 Q185.54 849.537 186.419 847.801 Q187.322 846.041 187.322 844.352 Q187.322 841.597 185.378 839.861 Q183.456 838.125 180.354 838.125 Q178.155 838.125 175.702 838.889 Q173.271 839.653 170.493 841.203 L170.493 836.481 Q173.317 835.347 175.771 834.768 Q178.225 834.19 180.262 834.19 Q185.632 834.19 188.827 836.875 Q192.021 839.56 192.021 844.051 Q192.021 846.18 191.211 848.102 Q190.424 850 188.317 852.592 Q187.739 853.264 184.637 856.481 Q181.535 859.676 175.887 865.439 Z" fill="#000000" fill-rule="nonzero" fill-opacity="1" /><path clip-path="url(#clip610)" d="M135.679 636.681 Q132.068 636.681 130.239 640.245 Q128.433 643.787 128.433 650.917 Q128.433 658.023 130.239 661.588 Q132.068 665.13 135.679 665.13 Q139.313 665.13 141.119 661.588 Q142.947 658.023 142.947 650.917 Q142.947 643.787 141.119 640.245 Q139.313 636.681 135.679 636.681 M135.679 632.977 Q141.489 632.977 144.544 637.583 Q147.623 642.167 147.623 650.917 Q147.623 659.643 144.544 664.25 Q141.489 668.833 135.679 668.833 Q129.869 668.833 126.79 664.25 Q123.734 659.643 123.734 650.917 Q123.734 642.167 126.79 637.583 Q129.869 632.977 135.679 632.977 Z" fill="#000000" fill-rule="nonzero" fill-opacity="1" /><path clip-path="url(#clip610)" d="M155.841 662.282 L160.725 662.282 L160.725 668.162 L155.841 668.162 L155.841 662.282 Z" fill="#000000" fill-rule="nonzero" fill-opacity="1" /><path clip-path="url(#clip610)" d="M185.077 649.528 Q188.433 650.245 190.308 652.514 Q192.206 654.782 192.206 658.116 Q192.206 663.231 188.688 666.032 Q185.169 668.833 178.688 668.833 Q176.512 668.833 174.197 668.393 Q171.905 667.977 169.452 667.12 L169.452 662.606 Q171.396 663.741 173.711 664.319 Q176.026 664.898 178.549 664.898 Q182.947 664.898 185.239 663.162 Q187.554 661.426 187.554 658.116 Q187.554 655.06 185.401 653.347 Q183.271 651.611 179.452 651.611 L175.424 651.611 L175.424 647.769 L179.637 647.769 Q183.086 647.769 184.915 646.403 Q186.743 645.014 186.743 642.421 Q186.743 639.759 184.845 638.347 Q182.97 636.912 179.452 636.912 Q177.53 636.912 175.331 637.329 Q173.132 637.745 170.493 638.625 L170.493 634.458 Q173.155 633.718 175.47 633.347 Q177.808 632.977 179.868 632.977 Q185.192 632.977 188.294 635.408 Q191.396 637.815 191.396 641.935 Q191.396 644.806 189.753 646.796 Q188.109 648.764 185.077 649.528 Z" fill="#000000" fill-rule="nonzero" fill-opacity="1" /><path clip-path="url(#clip610)" d="M134.545 435.468 Q130.933 435.468 129.105 439.033 Q127.299 442.574 127.299 449.704 Q127.299 456.811 129.105 460.375 Q130.933 463.917 134.545 463.917 Q138.179 463.917 139.984 460.375 Q141.813 456.811 141.813 449.704 Q141.813 442.574 139.984 439.033 Q138.179 435.468 134.545 435.468 M134.545 431.764 Q140.355 431.764 143.41 436.371 Q146.489 440.954 146.489 449.704 Q146.489 458.431 143.41 463.037 Q140.355 467.621 134.545 467.621 Q128.734 467.621 125.656 463.037 Q122.6 458.431 122.6 449.704 Q122.6 440.954 125.656 436.371 Q128.734 431.764 134.545 431.764 Z" fill="#000000" fill-rule="nonzero" fill-opacity="1" /><path clip-path="url(#clip610)" d="M154.706 461.07 L159.591 461.07 L159.591 466.949 L154.706 466.949 L154.706 461.07 Z" fill="#000000" fill-rule="nonzero" fill-opacity="1" /><path clip-path="url(#clip610)" d="M182.623 436.463 L170.817 454.912 L182.623 454.912 L182.623 436.463 M181.396 432.389 L187.276 432.389 L187.276 454.912 L192.206 454.912 L192.206 458.801 L187.276 458.801 L187.276 466.949 L182.623 466.949 L182.623 458.801 L167.021 458.801 L167.021 454.287 L181.396 432.389 Z" fill="#000000" fill-rule="nonzero" fill-opacity="1" /><path clip-path="url(#clip610)" d="M136.026 234.255 Q132.415 234.255 130.586 237.82 Q128.781 241.362 128.781 248.491 Q128.781 255.598 130.586 259.163 Q132.415 262.704 136.026 262.704 Q139.66 262.704 141.466 259.163 Q143.294 255.598 143.294 248.491 Q143.294 241.362 141.466 237.82 Q139.66 234.255 136.026 234.255 M136.026 230.552 Q141.836 230.552 144.892 235.158 Q147.97 239.741 147.97 248.491 Q147.97 257.218 144.892 261.825 Q141.836 266.408 136.026 266.408 Q130.216 266.408 127.137 261.825 Q124.082 257.218 124.082 248.491 Q124.082 239.741 127.137 235.158 Q130.216 230.552 136.026 230.552 Z" fill="#000000" fill-rule="nonzero" fill-opacity="1" /><path clip-path="url(#clip610)" d="M156.188 259.857 L161.072 259.857 L161.072 265.737 L156.188 265.737 L156.188 259.857 Z" fill="#000000" fill-rule="nonzero" fill-opacity="1" /><path clip-path="url(#clip610)" d="M171.304 231.177 L189.66 231.177 L189.66 235.112 L175.586 235.112 L175.586 243.584 Q176.604 243.237 177.623 243.075 Q178.642 242.89 179.66 242.89 Q185.447 242.89 188.827 246.061 Q192.206 249.232 192.206 254.649 Q192.206 260.227 188.734 263.329 Q185.262 266.408 178.942 266.408 Q176.767 266.408 174.498 266.038 Q172.253 265.667 169.845 264.927 L169.845 260.227 Q171.929 261.362 174.151 261.917 Q176.373 262.473 178.85 262.473 Q182.854 262.473 185.192 260.366 Q187.53 258.26 187.53 254.649 Q187.53 251.038 185.192 248.931 Q182.854 246.825 178.85 246.825 Q176.975 246.825 175.1 247.241 Q173.248 247.658 171.304 248.538 L171.304 231.177 Z" fill="#000000" fill-rule="nonzero" fill-opacity="1" /><path clip-path="url(#clip610)" d="M36.7058 679.227 L48.1067 680.547 Q49.1373 680.644 49.4593 680.805 Q49.7492 680.966 49.7492 681.481 Q49.7492 682.254 48.9762 682.254 Q48.6542 682.254 47.7846 682.125 Q46.0133 681.932 44.2098 681.932 Q42.1808 681.932 40.9248 682.318 Q39.6365 682.673 38.7026 683.703 Q37.7686 684.734 37.3821 686.634 Q36.9634 688.534 36.9634 691.561 L36.9634 700.257 Q36.9634 702.383 37.3499 702.898 Q37.7364 703.381 39.5399 703.832 L56.287 708.051 L56.287 702.06 Q56.287 697.874 55.0631 696.231 Q53.8393 694.589 49.9424 693.558 Q49.3305 693.397 49.1051 693.333 Q48.8474 693.236 48.7186 693.075 Q48.5576 692.882 48.5576 692.56 Q48.5576 692.27 48.7508 692.077 Q48.9118 691.883 49.1051 691.819 L49.2983 691.755 Q49.6203 691.755 50.3611 691.948 L64.6605 695.587 Q65.6267 695.845 65.8521 696.006 Q66.0453 696.135 66.0453 696.585 Q66.0453 696.908 65.8199 697.133 Q65.5945 697.358 65.2402 697.358 Q64.8537 697.294 64.5317 697.165 Q62.5671 696.714 61.3111 696.714 Q60.5059 696.714 60.0228 696.875 Q59.5398 697.036 59.1211 697.584 Q58.7024 698.131 58.5092 699.259 Q58.3159 700.386 58.3159 702.189 L58.3159 708.566 L74.7409 712.656 L76.2546 712.946 Q76.9309 712.946 77.1886 712.592 Q77.4462 712.205 77.575 710.82 Q77.7361 708.759 77.7361 707.407 Q77.7361 705.732 77.8005 705.539 Q77.9937 705.152 78.509 705.152 Q79.0887 705.152 79.4108 705.41 Q79.7006 705.668 79.7328 705.893 Q79.765 706.118 79.765 706.537 L79.5718 716.36 L79.765 725.055 Q79.765 726.054 78.9599 726.054 Q78.348 726.054 78.0903 725.796 Q77.8005 725.539 77.7683 725.249 Q77.7361 724.959 77.7361 724.218 Q77.7361 722.608 77.6394 721.642 Q77.5428 720.675 77.414 720.064 Q77.253 719.419 76.8021 719.097 Q76.3512 718.743 75.9647 718.582 Q75.5461 718.421 74.6121 718.196 L39.7331 709.5 Q38.5415 709.178 38.1551 709.178 Q37.7364 709.178 37.4787 709.468 Q37.2211 709.725 37.1245 710.434 Q36.9956 711.143 36.9956 711.722 Q36.9634 712.27 36.9634 713.461 Q36.9634 714.234 36.9312 714.556 Q36.899 714.846 36.738 715.072 Q36.577 715.297 36.2227 715.297 Q35.3209 715.297 35.1277 714.911 Q34.9023 714.492 34.9023 713.333 L34.9023 680.998 Q34.9023 679.71 35.1921 679.42 Q35.4498 679.098 36.7058 679.227 Z" fill="#000000" fill-rule="nonzero" fill-opacity="1" /><path clip-path="url(#clip610)" d="M68.4998 653.622 Q68.8379 653.622 69.3339 653.87 Q69.7848 654.095 70.0779 654.569 Q70.3484 655.02 70.3484 655.516 Q70.3484 655.673 70.2582 656.034 Q69.9877 656.643 69.379 657.59 Q68.7703 658.537 68.3871 659.393 Q67.9813 660.227 67.9362 661.152 Q67.9362 661.963 68.2293 662.64 Q68.5674 663.248 69.2888 663.654 Q69.5819 663.834 70.0779 663.834 Q70.7767 663.834 71.7011 663.451 Q72.6254 663.068 73.8202 662.279 Q75.015 661.467 75.8266 660.881 Q76.6157 660.295 77.9232 659.28 Q78.0359 659.19 78.1036 659.145 Q78.1487 659.1 78.2614 659.032 Q78.3516 658.965 78.4192 658.897 Q81.1019 656.756 84.0552 656.214 Q85.0922 656.079 86.1744 656.079 Q88.3386 656.079 90.8861 656.733 Q93.2081 657.297 95.2145 658.491 Q97.1984 659.686 98.506 661.49 Q99.8135 663.271 99.8135 665.21 Q99.8135 667.126 98.9794 668.704 Q98.1227 670.282 96.6574 671.229 Q94.7186 672.514 92.0358 672.514 Q90.5254 672.514 89.2404 672.153 Q87.1888 671.657 85.2951 670.485 Q83.4014 669.313 81.9361 667.622 Q79.7718 665.052 79.1631 662.256 Q76.6833 663.564 74.767 664.33 Q72.8283 665.074 71.1825 665.074 Q69.7397 665.074 68.8154 664.533 Q67.8235 664.06 67.2599 663.09 Q66.7639 662.279 66.5159 661.107 Q66.4257 660.385 66.4257 659.912 Q66.4257 658.311 67.305 654.591 Q67.5304 653.622 68.4998 653.622 M88.023 659.258 Q86.6478 659.258 85.7235 659.483 Q83.4691 659.912 80.358 661.625 L80.1325 661.76 Q80.7638 663.947 82.68 665.728 Q85.0246 667.96 89.4658 669.087 Q91.9457 669.696 93.3434 669.696 Q94.8538 669.696 96.1614 669.132 Q97.3788 668.591 98.0777 667.577 Q98.7765 666.54 98.7765 665.164 Q98.7765 664.127 98.1904 663.226 Q97.5817 662.324 96.5221 661.67 Q95.4625 661.016 94.3128 660.565 Q93.1405 660.092 91.7653 659.731 Q89.9167 659.258 88.023 659.258 Z" fill="#000000" fill-rule="nonzero" fill-opacity="1" /><path clip-path="url(#clip610)" d="M63.2756 646.766 Q52.1324 646.766 43.147 642.612 Q39.3789 640.84 36.2227 638.361 Q33.0665 635.881 31.6817 634.238 Q30.2968 632.596 30.2968 632.145 Q30.2968 631.501 30.9409 631.469 Q31.263 631.469 32.0682 632.338 Q42.8893 642.966 63.2756 642.934 Q83.7264 642.934 94.1288 632.596 Q95.2561 631.469 95.6103 631.469 Q96.2544 631.469 96.2544 632.145 Q96.2544 632.596 94.934 634.174 Q93.6136 635.752 90.5862 638.2 Q87.5589 640.647 83.8552 642.419 Q74.8697 646.766 63.2756 646.766 Z" fill="#000000" fill-rule="nonzero" fill-opacity="1" /><path clip-path="url(#clip610)" d="M52.068 606.199 Q52.9698 606.199 53.1952 606.617 Q53.3884 607.036 53.3884 608.195 L53.3884 614.379 L72.8408 619.274 Q74.5477 619.661 75.9969 619.661 Q77.6072 619.661 78.3158 619.178 Q79.0243 618.662 79.0243 617.6 Q79.0243 615.506 77.1242 613.252 Q75.224 610.965 70.5864 609.033 Q69.9745 608.775 69.8456 608.646 Q69.6846 608.485 69.6846 608.067 Q69.6846 607.261 70.3287 607.261 Q70.5542 607.261 71.5847 607.712 Q72.6153 608.131 74.129 609.065 Q75.6427 609.967 77.0597 611.158 Q78.4768 612.318 79.5074 614.089 Q80.5058 615.86 80.5058 617.761 Q80.5058 620.434 78.7989 622.141 Q77.0919 623.815 74.4189 623.815 Q73.5493 623.815 70.7796 623.139 Q67.9777 622.463 53.3884 618.791 L53.3884 624.62 Q53.3884 625.426 53.3562 625.748 Q53.324 626.037 53.163 626.263 Q52.9698 626.456 52.5833 626.456 Q51.9714 626.456 51.7137 626.199 Q51.4239 625.941 51.3917 625.619 Q51.3273 625.265 51.3273 624.459 L51.3273 618.276 L40.8604 615.699 Q39.8298 615.442 39.2501 614.798 Q38.6381 614.121 38.5737 613.735 Q38.4771 613.348 38.4771 613.059 Q38.4771 612.189 38.9602 611.674 Q39.4111 611.158 40.2484 611.158 Q40.6993 611.158 51.3273 613.864 L51.3273 608.067 Q51.3273 607.326 51.3595 607.036 Q51.3917 606.714 51.5527 606.456 Q51.7137 606.199 52.068 606.199 Z" fill="#000000" fill-rule="nonzero" fill-opacity="1" /><path clip-path="url(#clip610)" d="M95.6103 601.036 Q95.2883 601.036 94.4831 600.199 Q83.6619 589.571 63.2756 589.571 Q42.8249 589.571 32.4868 599.78 Q31.2952 601.036 30.9409 601.036 Q30.2968 601.036 30.2968 600.392 Q30.2968 599.941 31.6173 598.363 Q32.9377 596.753 35.9651 594.337 Q38.9924 591.89 42.6961 590.086 Q51.6815 585.739 63.2756 585.739 Q74.4189 585.739 83.4043 589.893 Q87.1724 591.664 90.3286 594.144 Q93.4847 596.624 94.8696 598.267 Q96.2544 599.909 96.2544 600.392 Q96.2544 601.036 95.6103 601.036 Z" fill="#000000" fill-rule="nonzero" fill-opacity="1" /><polyline clip-path="url(#clip612)" style="stroke:#e26f46; stroke-linecap:round; stroke-linejoin:round; stroke-width:4; stroke-opacity:1; fill:none" points="221.006,1254.52 230.722,1253.27 240.439,1250.76 250.155,1248.25 259.871,1245.7 269.587,1243.1 279.303,1240.36 289.019,1237.35 298.736,1233.88 308.452,1229.57 318.168,1223.45 327.884,1215.77 337.6,1207.85 347.317,1199.98 357.033,1192.2 366.749,1184.48 376.465,1176.84 386.181,1169.26 395.897,1161.77 405.614,1154.35 415.33,1147 425.046,1139.71 434.762,1132.47 444.478,1125.29 454.194,1118.16 463.911,1111.08 473.627,1104.05 483.343,1097.07 493.059,1090.13 502.775,1083.22 512.491,1076.33 522.208,1069.47 531.924,1062.61 541.64,1055.73 551.356,1048.72 561.072,1041.6 570.789,1034.46 580.505,1027.35 590.221,1020.27 599.937,1013.2 609.653,1006.13 619.369,999.026 629.086,991.92 638.802,984.826 648.518,977.762 658.234,970.748 667.95,963.788 677.666,956.894 687.383,950.071 697.099,943.328 706.815,936.66 716.531,930.064 726.247,923.539 735.964,917.076 745.68,910.677 755.396,904.345 765.112,898.083 774.828,891.887 784.544,885.754 794.261,879.687 803.977,873.687 813.693,867.753 823.409,861.883 833.125,856.075 842.841,850.328 852.558,844.639 862.274,839.008 871.99,833.435 881.706,827.919 891.422,822.46 901.138,817.051 910.855,811.694 920.571,806.39 930.287,801.139 940.003,795.936 949.719,790.783 959.436,785.678 969.152,780.615 978.868,775.59 988.584,770.596 998.3,765.637 1008.02,760.705 1017.73,755.801 1027.45,750.923 1037.16,746.077 1046.88,741.276 1056.6,736.52 1066.31,731.812 1076.03,727.15 1085.75,722.532 1095.46,717.959 1105.18,713.431 1114.89,708.947 1124.61,704.504 1134.33,700.105 1144.04,695.75 1153.76,691.437 1163.48,687.165 1173.19,682.931 1182.91,678.736 1192.62,674.579 1202.34,670.459 1212.06,666.375 1221.77,662.325 1231.49,658.307 1241.2,654.315 1250.92,650.345 1260.64,646.403 1270.35,642.497 1280.07,638.618 1289.79,634.766 1299.5,630.936 1309.22,627.113 1318.93,623.3 1328.65,619.513 1338.37,615.761 1348.08,612.043 1357.8,608.362 1367.51,604.716 1377.23,601.105 1386.95,597.527 1396.66,593.984 1406.38,590.47 1416.1,586.987 1425.81,583.536 1435.53,580.114 1445.24,576.722 1454.96,573.359 1464.68,570.025 1474.39,566.719 1484.11,563.441 1493.83,560.19 1503.54,556.967 1513.26,553.77 1522.97,550.603 1532.69,547.462 1542.41,544.349 1552.12,541.263 1561.84,538.203 1571.55,535.169 1581.27,532.159 1590.99,529.173 1600.7,526.21 1610.42,523.273 1620.14,520.361 1629.85,517.474 1639.57,514.611 1649.28,511.771 1659,508.953 1668.72,506.157 1678.43,503.382 1688.15,500.628 1697.86,497.893 1707.58,495.178 1717.3,492.485 1727.01,489.814 1736.73,487.166 1746.45,484.54 1756.16,481.934 1765.88,479.348 1775.59,476.782 1785.31,474.235 1795.03,471.707 1804.74,469.193 1814.46,466.695 1824.18,464.21 1833.89,461.738 1843.61,459.278 1853.32,456.834 1863.04,454.408 1872.76,452 1882.47,449.61 1892.19,447.237 1901.9,444.88 1911.62,442.542 1921.34,440.224 1931.05,437.925 1940.77,435.645 1950.49,433.382 1960.2,431.138 1969.92,428.91 1979.63,426.7 1989.35,424.506 1999.07,422.326 2008.78,420.164 2018.5,418.018 2028.21,415.889 2037.93,413.776 2047.65,411.68 2057.36,409.6 2067.08,407.535 2076.8,405.486 2086.51,403.452 2096.23,401.433 2105.94,399.43 2115.66,397.44 2125.38,395.465 2135.09,393.505 2144.81,391.557 2154.52,389.624 2164.24,387.704 2173.96,385.797 2183.67,383.902 2193.39,382.02 2203.11,380.15 2212.82,378.292 2222.54,376.446 2232.25,374.611 2241.97,372.787 2251.69,370.974 2261.4,369.171 2271.12,367.378 2280.84,365.596 2290.55,363.823 2300.27,362.059 2309.98,360.304 2319.7,358.558 2329.42,356.821 2339.13,355.092 2348.85,353.37 2358.56,351.656 2368.28,349.949 2378,348.249 2387.71,346.555 2397.43,344.868 2407.15,343.186 2416.86,341.509 2426.58,339.838 2436.29,338.17 2446.01,336.507 2455.73,334.848 2465.44,333.192 2475.16,331.539 2484.87,329.888 2494.59,328.239 2504.31,326.592 2514.02,324.945 2523.74,323.299 2533.46,321.652 2543.17,320.005 2552.89,318.357 "/>
<polyline clip-path="url(#clip612)" style="stroke:#3da44d; stroke-linecap:round; stroke-linejoin:round; stroke-width:4; stroke-opacity:1; fill:none" points="221.006,1254.52 230.722,1253.56 240.439,1251.65 250.155,1249.75 259.871,1247.87 269.587,1246 279.303,1244.15 289.019,1242.3 298.736,1240.47 308.452,1238.63 318.168,1236.79 327.884,1234.93 337.6,1233.09 347.317,1231.28 357.033,1229.48 366.749,1227.7 376.465,1225.94 386.181,1224.2 395.897,1222.48 405.614,1220.78 415.33,1219.09 425.046,1217.43 434.762,1215.78 444.478,1214.15 454.194,1212.54 463.911,1210.94 473.627,1209.36 483.343,1207.8 493.059,1206.25 502.775,1204.72 512.491,1203.2 522.208,1201.7 531.924,1200.21 541.64,1198.74 551.356,1197.28 561.072,1195.83 570.789,1194.39 580.505,1192.97 590.221,1191.56 599.937,1190.17 609.653,1188.79 619.369,1187.42 629.086,1186.06 638.802,1184.71 648.518,1183.38 658.234,1182.06 667.95,1180.75 677.666,1179.45 687.383,1178.16 697.099,1176.89 706.815,1175.64 716.531,1174.39 726.247,1173.16 735.964,1171.94 745.68,1170.72 755.396,1169.52 765.112,1168.34 774.828,1167.16 784.544,1165.99 794.261,1164.83 803.977,1163.68 813.693,1162.55 823.409,1161.42 833.125,1160.31 842.841,1159.2 852.558,1158.1 862.274,1157.01 871.99,1155.93 881.706,1154.85 891.422,1153.79 901.138,1152.73 910.855,1151.68 920.571,1150.64 930.287,1149.61 940.003,1148.58 949.719,1147.55 959.436,1146.52 969.152,1145.5 978.868,1144.48 988.584,1143.46 998.3,1142.45 1008.02,1141.44 1017.73,1140.43 1027.45,1139.43 1037.16,1138.43 1046.88,1137.44 1056.6,1136.46 1066.31,1135.48 1076.03,1134.52 1085.75,1133.56 1095.46,1132.61 1105.18,1131.67 1114.89,1130.73 1124.61,1129.8 1134.33,1128.88 1144.04,1127.96 1153.76,1127.06 1163.48,1126.15 1173.19,1125.26 1182.91,1124.36 1192.62,1123.47 1202.34,1122.59 1212.06,1121.7 1221.77,1120.82 1231.49,1119.95 1241.2,1119.08 1250.92,1118.21 1260.64,1117.35 1270.35,1116.49 1280.07,1115.64 1289.79,1114.79 1299.5,1113.95 1309.22,1113.1 1318.93,1112.26 1328.65,1111.43 1338.37,1110.6 1348.08,1109.77 1357.8,1108.95 1367.51,1108.14 1377.23,1107.33 1386.95,1106.53 1396.66,1105.73 1406.38,1104.94 1416.1,1104.16 1425.81,1103.37 1435.53,1102.6 1445.24,1101.83 1454.96,1101.06 1464.68,1100.3 1474.39,1099.54 1484.11,1098.79 1493.83,1098.04 1503.54,1097.29 1513.26,1096.55 1522.97,1095.81 1532.69,1095.08 1542.41,1094.34 1552.12,1093.61 1561.84,1092.88 1571.55,1092.15 1581.27,1091.42 1590.99,1090.69 1600.7,1089.96 1610.42,1089.23 1620.14,1088.51 1629.85,1087.78 1639.57,1087.04 1649.28,1086.31 1659,1085.57 1668.72,1084.82 1678.43,1084.07 1688.15,1083.31 1697.86,1082.54 1707.58,1081.77 1717.3,1080.99 1727.01,1080.21 1736.73,1079.43 1746.45,1078.64 1756.16,1077.83 1765.88,1077.02 1775.59,1076.19 1785.31,1075.35 1795.03,1074.48 1804.74,1073.58 1814.46,1072.66 1824.18,1071.69 1833.89,1070.69 1843.61,1069.64 1853.32,1068.56 1863.04,1067.46 1872.76,1066.31 1882.47,1065.13 1892.19,1063.9 1901.9,1062.61 1911.62,1061.3 1921.34,1060 1931.05,1058.71 1940.77,1057.43 1950.49,1056.17 1960.2,1054.91 1969.92,1053.66 1979.63,1052.43 1989.35,1051.2 1999.07,1049.98 2008.78,1048.78 2018.5,1047.58 2028.21,1046.39 2037.93,1045.21 2047.65,1044.04 2057.36,1042.87 2067.08,1041.71 2076.8,1040.56 2086.51,1039.41 2096.23,1038.28 2105.94,1037.16 2115.66,1036.05 2125.38,1034.95 2135.09,1033.86 2144.81,1032.78 2154.52,1031.7 2164.24,1030.64 2173.96,1029.58 2183.67,1028.53 2193.39,1027.49 2203.11,1026.45 2212.82,1025.43 2222.54,1024.4 2232.25,1023.39 2241.97,1022.38 2251.69,1021.38 2261.4,1020.39 2271.12,1019.39 2280.84,1018.41 2290.55,1017.43 2300.27,1016.45 2309.98,1015.48 2319.7,1014.51 2329.42,1013.55 2339.13,1012.59 2348.85,1011.63 2358.56,1010.68 2368.28,1009.73 2378,1008.78 2387.71,1007.83 2397.43,1006.89 2407.15,1005.94 2416.86,1005 2426.58,1004.05 2436.29,1003.11 2446.01,1002.17 2455.73,1001.22 2465.44,1000.28 2475.16,999.33 2484.87,998.381 2494.59,997.429 2504.31,996.474 2514.02,995.516 2523.74,994.553 2533.46,993.586 2543.17,992.614 2552.89,991.637 "/>
<polyline clip-path="url(#clip612)" style="stroke:#e26f46; stroke-linecap:round; stroke-linejoin:round; stroke-width:4; stroke-opacity:1; fill:none" stroke-dasharray="16, 8, 2, 8" points="221.006,1254.52 230.722,1254.52 240.439,1254.52 250.155,1254.52 259.871,1254.52 269.587,1254.52 279.303,1254.52 289.019,1254.52 298.736,1254.52 308.452,1254.52 318.168,1254.52 327.884,1240.66 337.6,1212.94 347.317,1199.07 357.033,1199.07 366.749,1199.07 376.465,1185.21 386.181,1171.4 395.897,1171.4 405.614,1171.4 415.33,1171.4 425.046,1171.4 434.762,1157.63 444.478,1157.63 454.194,1143.91 463.911,1143.91 473.627,1130.19 483.343,1130.19 493.059,1130.19 502.775,1116.51 512.491,1116.51 522.208,1116.51 531.924,1116.51 541.64,1116.51 551.356,1116.51 561.072,1089.16 570.789,1089.16 580.505,1061.81 590.221,1061.81 599.937,1061.81 609.653,1048.18 619.369,1048.18 629.086,1034.55 638.802,1020.93 648.518,1007.3 658.234,993.673 667.95,980.096 677.666,966.568 687.383,939.663 697.099,939.663 706.815,939.663 716.531,939.663 726.247,939.663 735.964,926.285 745.68,899.528 755.396,899.528 765.112,899.528 774.828,899.528 784.544,872.874 794.261,846.321 803.977,846.321 813.693,846.321 823.409,846.321 833.125,846.321 842.841,833.044 852.558,833.044 862.274,833.044 871.99,833.044 881.706,819.82 891.422,806.596 901.138,793.424 910.855,793.424 920.571,780.304 930.287,780.304 940.003,780.304 949.719,780.304 959.436,780.304 969.152,780.304 978.868,780.304 988.584,767.237 998.3,767.237 1008.02,767.237 1017.73,767.237 1027.45,754.053 1037.16,740.614 1046.88,727.106 1056.6,713.585 1066.31,700.052 1076.03,700.052 1085.75,686.446 1095.46,686.446 1105.18,686.446 1114.89,672.161 1124.61,657.778 1134.33,657.778 1144.04,643.155 1153.76,643.155 1163.48,643.155 1173.19,643.155 1182.91,643.155 1192.62,643.155 1202.34,643.155 1212.06,643.155 1221.77,643.155 1231.49,643.155 1241.2,643.155 1250.92,625.977 1260.64,625.977 1270.35,625.977 1280.07,625.977 1289.79,625.977 1299.5,625.977 1309.22,625.977 1318.93,586.985 1328.65,586.985 1338.37,586.985 1348.08,546.86 1357.8,546.86 1367.51,546.86 1377.23,546.86 1386.95,546.86 1396.66,546.86 1406.38,546.86 1416.1,546.86 1425.81,525.16 1435.53,525.16 1445.24,525.16 1454.96,525.16 1464.68,525.16 1474.39,525.16 1484.11,525.16 1493.83,502.553 1503.54,502.553 1513.26,502.553 1522.97,502.553 1532.69,502.553 1542.41,478.675 1552.12,478.675 1561.84,478.675 1571.55,478.675 1581.27,478.675 1590.99,453.094 1600.7,453.094 1610.42,453.094 1620.14,453.094 1629.85,453.094 1639.57,453.094 1649.28,453.094 1659,453.094 1668.72,453.094 1678.43,453.094 1688.15,453.094 1697.86,453.094 1707.58,425.796 1717.3,425.796 1727.01,425.796 1736.73,425.796 1746.45,425.796 1756.16,425.796 1765.88,425.796 1775.59,425.796 1785.31,425.796 1795.03,425.796 1804.74,425.796 1814.46,425.796 1824.18,425.796 1833.89,425.796 1843.61,396.226 1853.32,396.226 1863.04,396.226 1872.76,396.226 1882.47,396.226 1892.19,396.226 1901.9,396.226 1911.62,396.226 1921.34,396.226 1931.05,396.226 1940.77,396.226 1950.49,396.226 1960.2,396.226 1969.92,396.226 1979.63,396.226 1989.35,396.226 1999.07,354.832 2008.78,354.832 2018.5,354.832 2028.21,354.832 2037.93,354.832 2047.65,354.832 2057.36,354.832 2067.08,354.832 2076.8,354.832 2086.51,354.832 2096.23,354.832 2105.94,354.832 2115.66,354.832 2125.38,354.832 2135.09,354.832 2144.81,354.832 2154.52,354.832 2164.24,354.832 2173.96,354.832 2183.67,354.832 2193.39,354.832 2203.11,354.832 2212.82,354.832 2222.54,354.832 2232.25,354.832 2241.97,354.832 2251.69,354.832 2261.4,354.832 2271.12,354.832 2280.84,354.832 2290.55,354.832 2300.27,354.832 2309.98,354.832 2319.7,354.832 2329.42,354.832 2339.13,354.832 2348.85,354.832 2358.56,354.832 2368.28,354.832 2378,354.832 2387.71,354.832 2397.43,354.832 2407.15,354.832 2416.86,354.832 2426.58,354.832 2436.29,354.832 2446.01,354.832 2455.73,354.832 2465.44,354.832 2475.16,354.832 2484.87,354.832 2494.59,354.832 2504.31,354.832 2514.02,354.832 2523.74,354.832 2533.46,354.832 2543.17,354.832 2552.89,354.832 "/>
<polyline clip-path="url(#clip612)" style="stroke:#3da44d; stroke-linecap:round; stroke-linejoin:round; stroke-width:4; stroke-opacity:1; fill:none" stroke-dasharray="16, 8, 2, 8" points="221.006,1254.52 230.722,1241.67 240.439,1228.82 250.155,1228.82 259.871,1228.82 269.587,1228.82 279.303,1215.88 289.019,1215.88 298.736,1215.88 308.452,1215.88 318.168,1215.88 327.884,1215.88 337.6,1215.88 347.317,1202.98 357.033,1202.98 366.749,1202.98 376.465,1202.98 386.181,1202.98 395.897,1202.98 405.614,1202.98 415.33,1190.11 425.046,1190.11 434.762,1190.11 444.478,1190.11 454.194,1190.11 463.911,1190.11 473.627,1190.11 483.343,1177.27 493.059,1177.27 502.775,1177.27 512.491,1177.27 522.208,1177.27 531.924,1177.27 541.64,1177.27 551.356,1177.27 561.072,1177.27 570.789,1177.27 580.505,1177.27 590.221,1177.27 599.937,1177.27 609.653,1177.27 619.369,1177.27 629.086,1177.27 638.802,1177.27 648.518,1177.27 658.234,1177.27 667.95,1164.43 677.666,1164.43 687.383,1164.43 697.099,1164.43 706.815,1164.43 716.531,1164.43 726.247,1164.43 735.964,1164.43 745.68,1164.43 755.396,1164.43 765.112,1164.43 774.828,1164.43 784.544,1164.43 794.261,1164.43 803.977,1164.43 813.693,1164.43 823.409,1164.43 833.125,1164.43 842.841,1164.43 852.558,1164.43 862.274,1164.43 871.99,1164.43 881.706,1164.43 891.422,1164.43 901.138,1164.43 910.855,1164.43 920.571,1164.43 930.287,1164.43 940.003,1164.43 949.719,1164.43 959.436,1164.43 969.152,1164.43 978.868,1164.43 988.584,1151.63 998.3,1151.63 1008.02,1151.63 1017.73,1151.63 1027.45,1151.63 1037.16,1138.47 1046.88,1138.47 1056.6,1138.47 1066.31,1138.47 1076.03,1138.47 1085.75,1138.47 1095.46,1138.47 1105.18,1138.47 1114.89,1138.47 1124.61,1138.47 1134.33,1138.47 1144.04,1138.47 1153.76,1138.47 1163.48,1138.47 1173.19,1138.47 1182.91,1138.47 1192.62,1138.47 1202.34,1138.47 1212.06,1122.24 1221.77,1122.24 1231.49,1122.24 1241.2,1122.24 1250.92,1122.24 1260.64,1122.24 1270.35,1122.24 1280.07,1122.24 1289.79,1122.24 1299.5,1122.24 1309.22,1122.24 1318.93,1122.24 1328.65,1122.24 1338.37,1102.33 1348.08,1102.33 1357.8,1102.33 1367.51,1102.33 1377.23,1102.33 1386.95,1102.33 1396.66,1102.33 1406.38,1102.33 1416.1,1102.33 1425.81,1102.33 1435.53,1102.33 1445.24,1102.33 1454.96,1102.33 1464.68,1102.33 1474.39,1102.33 1484.11,1102.33 1493.83,1102.33 1503.54,1102.33 1513.26,1102.33 1522.97,1102.33 1532.69,1102.33 1542.41,1102.33 1552.12,1102.33 1561.84,1102.33 1571.55,1102.33 1581.27,1102.33 1590.99,1102.33 1600.7,1102.33 1610.42,1102.33 1620.14,1102.33 1629.85,1102.33 1639.57,1102.33 1649.28,1102.33 1659,1102.33 1668.72,1102.33 1678.43,1102.33 1688.15,1102.33 1697.86,1102.33 1707.58,1102.33 1717.3,1102.33 1727.01,1102.33 1736.73,1102.33 1746.45,1102.33 1756.16,1102.33 1765.88,1102.33 1775.59,1102.33 1785.31,1102.33 1795.03,1102.33 1804.74,1102.33 1814.46,1102.33 1824.18,1102.33 1833.89,1102.33 1843.61,1102.33 1853.32,1102.33 1863.04,1102.33 1872.76,1102.33 1882.47,1102.33 1892.19,1102.33 1901.9,1067.76 1911.62,1067.76 1921.34,1032.49 1931.05,1032.49 1940.77,1032.49 1950.49,1032.49 1960.2,1032.49 1969.92,1032.49 1979.63,1032.49 1989.35,1032.49 1999.07,1032.49 2008.78,1032.49 2018.5,1032.49 2028.21,1032.49 2037.93,1032.49 2047.65,1032.49 2057.36,1032.49 2067.08,979.708 2076.8,979.708 2086.51,979.708 2096.23,979.708 2105.94,979.708 2115.66,979.708 2125.38,979.708 2135.09,979.708 2144.81,979.708 2154.52,979.708 2164.24,979.708 2173.96,979.708 2183.67,979.708 2193.39,979.708 2203.11,979.708 2212.82,979.708 2222.54,979.708 2232.25,979.708 2241.97,979.708 2251.69,979.708 2261.4,979.708 2271.12,979.708 2280.84,979.708 2290.55,979.708 2300.27,979.708 2309.98,979.708 2319.7,979.708 2329.42,979.708 2339.13,979.708 2348.85,979.708 2358.56,979.708 2368.28,979.708 2378,979.708 2387.71,979.708 2397.43,979.708 2407.15,979.708 2416.86,979.708 2426.58,979.708 2436.29,979.708 2446.01,979.708 2455.73,979.708 2465.44,979.708 2475.16,979.708 2484.87,979.708 2494.59,979.708 2504.31,979.708 2514.02,979.708 2523.74,979.708 2533.46,979.708 2543.17,979.708 2552.89,979.708 "/>
<path clip-path="url(#clip612)" d="M221.006 1254.52 L230.722 1254.52 L240.439 1254.52 L250.155 1254.52 L259.871 1254.52 L269.587 1254.52 L279.303 1254.52 L289.019 1254.52 L298.736 1254.52 L308.452 1254.52 L318.168 1253.98 L327.884 1248.87 L337.6 1240.7 L347.317 1234.35 L357.033 1228.65 L366.749 1222.91 L376.465 1217.56 L386.181 1212.91 L395.897 1208.38 L405.614 1204.53 L415.33 1200.86 L425.046 1196.78 L434.762 1193.32 L444.478 1189.3 L454.194 1185.34 L463.911 1181.05 L473.627 1176.62 L483.343 1172.82 L493.059 1169.15 L502.775 1165.51 L512.491 1160.75 L522.208 1157.34 L531.924 1152.03 L541.64 1148.21 L551.356 1141.36 L561.072 1135.68 L570.789 1131.06 L580.505 1122.91 L590.221 1115.6 L599.937 1109.01 L609.653 1103.79 L619.369 1096.72 L629.086 1091.14 L638.802 1084.87 L648.518 1076.93 L658.234 1070.62 L667.95 1064.23 L677.666 1058.88 L687.383 1052.49 L697.099 1046.73 L706.815 1041.42 L716.531 1037.15 L726.247 1029.82 L735.964 1024.02 L745.68 1018.82 L755.396 1012.95 L765.112 1007.39 L774.828 1002.34 L784.544 997.428 L794.261 992.117 L803.977 987.205 L813.693 982.534 L823.409 978.003 L833.125 973.539 L842.841 969.084 L852.558 964.653 L862.274 960.218 L871.99 955.858 L881.706 951.488 L891.422 947.134 L901.138 942.814 L910.855 938.536 L920.571 934.282 L930.287 930.697 L940.003 926.371 L949.719 922.482 L959.436 917.545 L969.152 913.277 L978.868 909.148 L988.584 905.297 L998.3 901.582 L1008.02 897.614 L1017.73 893.616 L1027.45 889.111 L1037.16 885.369 L1046.88 880.898 L1056.6 876.941 L1066.31 872.582 L1076.03 869.061 L1085.75 865.19 L1095.46 860.162 L1105.18 855.621 L1114.89 852.647 L1124.61 849.807 L1134.33 846.075 L1144.04 842.366 L1153.76 838.692 L1163.48 836.313 L1173.19 832.655 L1182.91 829.363 L1192.62 825.705 L1202.34 822.556 L1212.06 819.578 L1221.77 816.041 L1231.49 812.226 L1241.2 808.417 L1250.92 804.697 L1260.64 800.774 L1270.35 796.996 L1280.07 793.306 L1289.79 790.516 L1299.5 787.729 L1309.22 783.573 L1318.93 779.692 L1328.65 776.78 L1338.37 773.877 L1348.08 770.99 L1357.8 767.813 L1367.51 764.007 L1377.23 760.803 L1386.95 757.215 L1396.66 753.643 L1406.38 751.069 L1416.1 748.393 L1425.81 745.963 L1435.53 743.331 L1445.24 738.275 L1454.96 734.621 L1464.68 730.98 L1474.39 727.353 L1484.11 724.394 L1493.83 721.159 L1503.54 718.609 L1513.26 716.067 L1522.97 712.545 L1532.69 710.205 L1542.41 707.98 L1552.12 705.958 L1561.84 703.507 L1571.55 700.591 L1581.27 698.297 L1590.99 696.625 L1600.7 694.533 L1610.42 692.625 L1620.14 690.456 L1629.85 687.203 L1639.57 685.688 L1649.28 683.936 L1659 681.738 L1668.72 679.558 L1678.43 677.386 L1688.15 675.502 L1697.86 673.937 L1707.58 672.167 L1717.3 670.224 L1727.01 668.273 L1736.73 665.368 L1746.45 663.155 L1756.16 661.755 L1765.88 660.374 L1775.59 658.707 L1785.31 657.353 L1795.03 655.433 L1804.74 653.264 L1814.46 651.108 L1824.18 648.964 L1833.89 647.144 L1843.61 645.639 L1853.32 644.161 L1863.04 642.709 L1872.76 641.033 L1882.47 638.615 L1892.19 636.209 L1901.9 634.464 L1911.62 633.643 L1921.34 632.463 L1931.05 630.778 L1940.77 629.176 L1950.49 626.075 L1960.2 623.843 L1969.92 622.586 L1979.63 620.512 L1989.35 617.907 L1999.07 615.474 L2008.78 613.567 L2018.5 612.209 L2028.21 610.632 L2037.93 609.491 L2047.65 608.118 L2057.36 606.734 L2067.08 605.81 L2076.8 604.899 L2086.51 604.559 L2096.23 603.116 L2105.94 602.243 L2115.66 601.377 L2125.38 599.558 L2135.09 597.622 L2144.81 597.001 L2154.52 596.231 L2164.24 594.675 L2173.96 593.221 L2183.67 591.839 L2193.39 590.652 L2203.11 589.637 L2212.82 588.615 L2222.54 586.788 L2232.25 585.302 L2241.97 583.684 L2251.69 582.078 L2261.4 580.825 L2271.12 579.322 L2280.84 578.005 L2290.55 576.671 L2300.27 575.348 L2309.98 573.889 L2319.7 572.086 L2329.42 570.706 L2339.13 569.578 L2348.85 568.874 L2358.56 567.733 L2368.28 566.497 L2378 565.539 L2387.71 564.043 L2397.43 562.496 L2407.15 560.671 L2416.86 559.818 L2426.58 559.27 L2436.29 558.142 L2446.01 556.685 L2455.73 555.284 L2465.44 553.275 L2475.16 551.278 L2484.87 550.82 L2494.59 550.485 L2504.31 549.812 L2514.02 549.007 L2523.74 548.077 L2533.46 546.536 L2543.17 545.332 L2552.89 544.228 L2552.89 36.6475 L2543.17 38.5309 L2533.46 40.9832 L2523.74 42.907 L2514.02 44.8566 L2504.31 46.7964 L2494.59 48.7624 L2484.87 52.7377 L2475.16 54.9532 L2465.44 57.2048 L2455.73 60.8811 L2446.01 64.7015 L2436.29 66.3019 L2426.58 72.4751 L2416.86 74.7382 L2407.15 77.2088 L2397.43 79.4202 L2387.71 81.6455 L2378 83.901 L2368.28 86.1934 L2358.56 88.5006 L2348.85 90.8229 L2339.13 93.6923 L2329.42 96.5814 L2319.7 97.8096 L2309.98 100.148 L2300.27 102.505 L2290.55 104.897 L2280.84 108.123 L2271.12 112.767 L2261.4 114.705 L2251.69 116.659 L2241.97 118.629 L2232.25 120.616 L2222.54 122.619 L2212.82 125.087 L2203.11 127.555 L2193.39 129.664 L2183.67 132.198 L2173.96 134.761 L2164.24 137.34 L2154.52 139.935 L2144.81 142.394 L2135.09 144.205 L2125.38 146.428 L2115.66 149.211 L2105.94 152.136 L2096.23 155.373 L2086.51 157.689 L2076.8 159.808 L2067.08 161.829 L2057.36 164.946 L2047.65 168.525 L2037.93 171.818 L2028.21 173.87 L2018.5 176.004 L2008.78 179.068 L1999.07 183.075 L1989.35 185.724 L1979.63 188.199 L1969.92 191.16 L1960.2 193.178 L1950.49 194.622 L1940.77 197.883 L1931.05 201.15 L1921.34 204.53 L1911.62 207.145 L1901.9 210.544 L1892.19 213.27 L1882.47 216.463 L1872.76 219.26 L1863.04 222.08 L1853.32 224.881 L1843.61 227.796 L1833.89 231.027 L1824.18 234.447 L1814.46 237.901 L1804.74 241.38 L1795.03 244.886 L1785.31 248.419 L1775.59 251.979 L1765.88 255.436 L1756.16 258.715 L1746.45 262.052 L1736.73 265.455 L1727.01 268.892 L1717.3 272.048 L1707.58 275.332 L1697.86 278.834 L1688.15 281.955 L1678.43 285.102 L1668.72 288.278 L1659 291.482 L1649.28 294.373 L1639.57 297.354 L1629.85 300.897 L1620.14 304.596 L1610.42 307.495 L1600.7 310.526 L1590.99 314.167 L1581.27 317.35 L1571.55 320.546 L1561.84 324.208 L1552.12 327.466 L1542.41 331.502 L1532.69 335.388 L1522.97 338.974 L1513.26 342.589 L1503.54 346.259 L1493.83 349.949 L1484.11 353.703 L1474.39 356.652 L1464.68 360.412 L1454.96 364.43 L1445.24 368.476 L1435.53 372.555 L1425.81 376.83 L1416.1 381.474 L1406.38 385.778 L1396.66 389.89 L1386.95 394.176 L1377.23 398.519 L1367.51 402.921 L1357.8 407.381 L1348.08 411.413 L1338.37 416.303 L1328.65 420.963 L1318.93 425.527 L1309.22 430.116 L1299.5 434.747 L1289.79 438.514 L1280.07 443.063 L1270.35 447.811 L1260.64 452.618 L1250.92 457.945 L1241.2 463.358 L1231.49 468.104 L1221.77 472.943 L1212.06 477.239 L1202.34 482.278 L1192.62 486.391 L1182.91 491.594 L1173.19 496.963 L1163.48 502.379 L1153.76 507.843 L1144.04 513.355 L1134.33 518.915 L1124.61 524.262 L1114.89 529.874 L1105.18 535.081 L1095.46 541.066 L1085.75 546.81 L1076.03 552.19 L1066.31 557.661 L1056.6 563.705 L1046.88 569.816 L1037.16 575.876 L1027.45 581.257 L1017.73 585.923 L1008.02 592.704 L998.3 598.489 L988.584 603.542 L978.868 609.364 L969.152 615.677 L959.436 622.06 L949.719 628.357 L940.003 634.776 L930.287 640.778 L920.571 646.862 L910.855 654.521 L901.138 661.485 L891.422 668.469 L881.706 675.557 L871.99 682.581 L862.274 688.986 L852.558 695.169 L842.841 702.47 L833.125 709.487 L823.409 718.016 L813.693 725.045 L803.977 731.691 L794.261 739.774 L784.544 747.345 L774.828 755.36 L765.112 763.49 L755.396 770.68 L745.68 777.786 L735.964 784.313 L726.247 791.431 L716.531 800.322 L706.815 808.125 L697.099 815.93 L687.383 823.71 L677.666 831.948 L667.95 841.21 L658.234 849.431 L648.518 857.706 L638.802 866.512 L629.086 875.46 L619.369 882.906 L609.653 890.653 L599.937 898.792 L590.221 907.367 L580.505 915.974 L570.789 923.963 L561.072 933.576 L551.356 943.194 L541.64 952.576 L531.924 961.504 L522.208 970.919 L512.491 980.058 L502.775 988.289 L493.059 997.877 L483.343 1009.28 L473.627 1018.52 L463.911 1028.06 L454.194 1036.9 L444.478 1045.63 L434.762 1054.9 L425.046 1064.87 L415.33 1073.71 L405.614 1082.33 L395.897 1091.17 L386.181 1100.19 L376.465 1108.53 L366.749 1117.62 L357.033 1126.78 L347.317 1135.93 L337.6 1144.87 L327.884 1153.78 L318.168 1163.13 L308.452 1172.39 L298.736 1181.73 L289.019 1191.14 L279.303 1200.57 L269.587 1210.09 L259.871 1219.74 L250.155 1229.52 L240.439 1239.38 L230.722 1249.45 L221.006 1254.52  Z" fill="#e26f46" fill-rule="evenodd" fill-opacity="0.3"/>
<polyline clip-path="url(#clip612)" style="stroke:#e26f46; stroke-linecap:round; stroke-linejoin:round; stroke-width:4; stroke-opacity:0; fill:none" points="221.006,1254.52 230.722,1254.52 240.439,1254.52 250.155,1254.52 259.871,1254.52 269.587,1254.52 279.303,1254.52 289.019,1254.52 298.736,1254.52 308.452,1254.52 318.168,1253.98 327.884,1248.87 337.6,1240.7 347.317,1234.35 357.033,1228.65 366.749,1222.91 376.465,1217.56 386.181,1212.91 395.897,1208.38 405.614,1204.53 415.33,1200.86 425.046,1196.78 434.762,1193.32 444.478,1189.3 454.194,1185.34 463.911,1181.05 473.627,1176.62 483.343,1172.82 493.059,1169.15 502.775,1165.51 512.491,1160.75 522.208,1157.34 531.924,1152.03 541.64,1148.21 551.356,1141.36 561.072,1135.68 570.789,1131.06 580.505,1122.91 590.221,1115.6 599.937,1109.01 609.653,1103.79 619.369,1096.72 629.086,1091.14 638.802,1084.87 648.518,1076.93 658.234,1070.62 667.95,1064.23 677.666,1058.88 687.383,1052.49 697.099,1046.73 706.815,1041.42 716.531,1037.15 726.247,1029.82 735.964,1024.02 745.68,1018.82 755.396,1012.95 765.112,1007.39 774.828,1002.34 784.544,997.428 794.261,992.117 803.977,987.205 813.693,982.534 823.409,978.003 833.125,973.539 842.841,969.084 852.558,964.653 862.274,960.218 871.99,955.858 881.706,951.488 891.422,947.134 901.138,942.814 910.855,938.536 920.571,934.282 930.287,930.697 940.003,926.371 949.719,922.482 959.436,917.545 969.152,913.277 978.868,909.148 988.584,905.297 998.3,901.582 1008.02,897.614 1017.73,893.616 1027.45,889.111 1037.16,885.369 1046.88,880.898 1056.6,876.941 1066.31,872.582 1076.03,869.061 1085.75,865.19 1095.46,860.162 1105.18,855.621 1114.89,852.647 1124.61,849.807 1134.33,846.075 1144.04,842.366 1153.76,838.692 1163.48,836.313 1173.19,832.655 1182.91,829.363 1192.62,825.705 1202.34,822.556 1212.06,819.578 1221.77,816.041 1231.49,812.226 1241.2,808.417 1250.92,804.697 1260.64,800.774 1270.35,796.996 1280.07,793.306 1289.79,790.516 1299.5,787.729 1309.22,783.573 1318.93,779.692 1328.65,776.78 1338.37,773.877 1348.08,770.99 1357.8,767.813 1367.51,764.007 1377.23,760.803 1386.95,757.215 1396.66,753.643 1406.38,751.069 1416.1,748.393 1425.81,745.963 1435.53,743.331 1445.24,738.275 1454.96,734.621 1464.68,730.98 1474.39,727.353 1484.11,724.394 1493.83,721.159 1503.54,718.609 1513.26,716.067 1522.97,712.545 1532.69,710.205 1542.41,707.98 1552.12,705.958 1561.84,703.507 1571.55,700.591 1581.27,698.297 1590.99,696.625 1600.7,694.533 1610.42,692.625 1620.14,690.456 1629.85,687.203 1639.57,685.688 1649.28,683.936 1659,681.738 1668.72,679.558 1678.43,677.386 1688.15,675.502 1697.86,673.937 1707.58,672.167 1717.3,670.224 1727.01,668.273 1736.73,665.368 1746.45,663.155 1756.16,661.755 1765.88,660.374 1775.59,658.707 1785.31,657.353 1795.03,655.433 1804.74,653.264 1814.46,651.108 1824.18,648.964 1833.89,647.144 1843.61,645.639 1853.32,644.161 1863.04,642.709 1872.76,641.033 1882.47,638.615 1892.19,636.209 1901.9,634.464 1911.62,633.643 1921.34,632.463 1931.05,630.778 1940.77,629.176 1950.49,626.075 1960.2,623.843 1969.92,622.586 1979.63,620.512 1989.35,617.907 1999.07,615.474 2008.78,613.567 2018.5,612.209 2028.21,610.632 2037.93,609.491 2047.65,608.118 2057.36,606.734 2067.08,605.81 2076.8,604.899 2086.51,604.559 2096.23,603.116 2105.94,602.243 2115.66,601.377 2125.38,599.558 2135.09,597.622 2144.81,597.001 2154.52,596.231 2164.24,594.675 2173.96,593.221 2183.67,591.839 2193.39,590.652 2203.11,589.637 2212.82,588.615 2222.54,586.788 2232.25,585.302 2241.97,583.684 2251.69,582.078 2261.4,580.825 2271.12,579.322 2280.84,578.005 2290.55,576.671 2300.27,575.348 2309.98,573.889 2319.7,572.086 2329.42,570.706 2339.13,569.578 2348.85,568.874 2358.56,567.733 2368.28,566.497 2378,565.539 2387.71,564.043 2397.43,562.496 2407.15,560.671 2416.86,559.818 2426.58,559.27 2436.29,558.142 2446.01,556.685 2455.73,555.284 2465.44,553.275 2475.16,551.278 2484.87,550.82 2494.59,550.485 2504.31,549.812 2514.02,549.007 2523.74,548.077 2533.46,546.536 2543.17,545.332 2552.89,544.228 "/>
<path clip-path="url(#clip612)" d="M221.006 1254.52 L230.722 1254.19 L240.439 1253.52 L250.155 1252.84 L259.871 1252.15 L269.587 1251.46 L279.303 1250.77 L289.019 1250 L298.736 1249.13 L308.452 1248.36 L318.168 1247.59 L327.884 1246.63 L337.6 1245.76 L347.317 1244.88 L357.033 1244.05 L366.749 1243.18 L376.465 1242.43 L386.181 1241.61 L395.897 1240.88 L405.614 1240.04 L415.33 1239.25 L425.046 1238.52 L434.762 1237.78 L444.478 1236.96 L454.194 1236.21 L463.911 1235.48 L473.627 1234.71 L483.343 1233.89 L493.059 1233.19 L502.775 1232.49 L512.491 1231.75 L522.208 1231.02 L531.924 1230.29 L541.64 1229.56 L551.356 1228.73 L561.072 1227.81 L570.789 1227.1 L580.505 1226.44 L590.221 1225.69 L599.937 1225.03 L609.653 1224.31 L619.369 1223.68 L629.086 1223.08 L638.802 1222.4 L648.518 1221.68 L658.234 1221.02 L667.95 1220.3 L677.666 1219.73 L687.383 1218.92 L697.099 1218.24 L706.815 1217.55 L716.531 1216.87 L726.247 1216.19 L735.964 1215.51 L745.68 1214.84 L755.396 1214.17 L765.112 1213.51 L774.828 1212.91 L784.544 1212.24 L794.261 1211.57 L803.977 1210.96 L813.693 1210.38 L823.409 1209.81 L833.125 1209.22 L842.841 1208.85 L852.558 1208.38 L862.274 1207.78 L871.99 1207.19 L881.706 1206.56 L891.422 1205.92 L901.138 1205.44 L910.855 1204.72 L920.571 1203.92 L930.287 1203.16 L940.003 1202.48 L949.719 1201.93 L959.436 1201.5 L969.152 1200.93 L978.868 1200.17 L988.584 1198.93 L998.3 1198.43 L1008.02 1197.88 L1017.73 1196.97 L1027.45 1196.4 L1037.16 1195.77 L1046.88 1195.24 L1056.6 1194.77 L1066.31 1194.32 L1076.03 1193.82 L1085.75 1193.32 L1095.46 1192.79 L1105.18 1192.12 L1114.89 1191.42 L1124.61 1190.89 L1134.33 1190.43 L1144.04 1189.95 L1153.76 1189.07 L1163.48 1188.25 L1173.19 1187.61 L1182.91 1187.04 L1192.62 1186.44 L1202.34 1185.94 L1212.06 1185.63 L1221.77 1185.1 L1231.49 1184.66 L1241.2 1184.27 L1250.92 1183.82 L1260.64 1182.75 L1270.35 1182.08 L1280.07 1181.54 L1289.79 1181.01 L1299.5 1180.32 L1309.22 1179.89 L1318.93 1179.24 L1328.65 1178.89 L1338.37 1178.37 L1348.08 1177.75 L1357.8 1177.15 L1367.51 1176.76 L1377.23 1176.29 L1386.95 1175.76 L1396.66 1175.31 L1406.38 1174.86 L1416.1 1174.4 L1425.81 1174.03 L1435.53 1173.58 L1445.24 1173.27 L1454.96 1173.09 L1464.68 1172.42 L1474.39 1171.85 L1484.11 1171.53 L1493.83 1171.02 L1503.54 1170.49 L1513.26 1170.04 L1522.97 1169.43 L1532.69 1168.9 L1542.41 1168.37 L1552.12 1167.58 L1561.84 1167.18 L1571.55 1166.8 L1581.27 1166.38 L1590.99 1165.99 L1600.7 1165.25 L1610.42 1164.56 L1620.14 1163.7 L1629.85 1163.31 L1639.57 1162.98 L1649.28 1162.65 L1659 1162.05 L1668.72 1161.66 L1678.43 1161.16 L1688.15 1160.5 L1697.86 1160.14 L1707.58 1159.52 L1717.3 1158.85 L1727.01 1158.49 L1736.73 1157.93 L1746.45 1157.31 L1756.16 1156.72 L1765.88 1156.2 L1775.59 1155.18 L1785.31 1154.96 L1795.03 1154.75 L1804.74 1153.58 L1814.46 1153.08 L1824.18 1152.69 L1833.89 1152.27 L1843.61 1151.8 L1853.32 1150.78 L1863.04 1150.13 L1872.76 1149.03 L1882.47 1148.47 L1892.19 1148.07 L1901.9 1146.9 L1911.62 1145.88 L1921.34 1144.53 L1931.05 1143.26 L1940.77 1142.73 L1950.49 1141.47 L1960.2 1141.1 L1969.92 1139.32 L1979.63 1138.2 L1989.35 1137.74 L1999.07 1136.84 L2008.78 1135.66 L2018.5 1135.19 L2028.21 1134.77 L2037.93 1133.73 L2047.65 1132.84 L2057.36 1131.99 L2067.08 1131.1 L2076.8 1130.8 L2086.51 1130.5 L2096.23 1129.93 L2105.94 1129.06 L2115.66 1128.19 L2125.38 1127.66 L2135.09 1127.22 L2144.81 1126.51 L2154.52 1125.69 L2164.24 1125.21 L2173.96 1124.58 L2183.67 1124.16 L2193.39 1123.86 L2203.11 1123.44 L2212.82 1122.78 L2222.54 1122.3 L2232.25 1121.96 L2241.97 1121.63 L2251.69 1121.3 L2261.4 1120.86 L2271.12 1120.33 L2280.84 1119.3 L2290.55 1118.93 L2300.27 1118.57 L2309.98 1118.24 L2319.7 1117.94 L2329.42 1117.03 L2339.13 1116.77 L2348.85 1116.57 L2358.56 1116.37 L2368.28 1116.17 L2378 1115.98 L2387.71 1115.79 L2397.43 1115.63 L2407.15 1115.48 L2416.86 1115.24 L2426.58 1115.03 L2436.29 1114.85 L2446.01 1114.62 L2455.73 1114.37 L2465.44 1114.1 L2475.16 1113.02 L2484.87 1112.34 L2494.59 1112.05 L2504.31 1111.85 L2514.02 1111.53 L2523.74 1111.3 L2533.46 1111.08 L2543.17 1110.86 L2552.89 1110.63 L2552.89 791.231 L2543.17 793.63 L2533.46 794.993 L2523.74 796.387 L2514.02 799.773 L2504.31 803.783 L2494.59 804.772 L2484.87 806.687 L2475.16 809.35 L2465.44 811.122 L2455.73 814.513 L2446.01 816.214 L2436.29 817.372 L2426.58 818.542 L2416.86 820.06 L2407.15 823.042 L2397.43 824.812 L2387.71 827.492 L2378 829.544 L2368.28 830.528 L2358.56 832.879 L2348.85 834.287 L2339.13 835.674 L2329.42 839.341 L2319.7 843.016 L2309.98 845.268 L2300.27 846.408 L2290.55 848.694 L2280.84 850.783 L2271.12 852.751 L2261.4 855.223 L2251.69 857.34 L2241.97 860.32 L2232.25 862.594 L2222.54 864.766 L2212.82 866.931 L2203.11 870.45 L2193.39 873.113 L2183.67 874.604 L2173.96 876.638 L2164.24 879.415 L2154.52 882.347 L2144.81 885.245 L2135.09 887.283 L2125.38 889.8 L2115.66 891.552 L2105.94 892.66 L2096.23 893.856 L2086.51 895.18 L2076.8 897.367 L2067.08 901.803 L2057.36 902.965 L2047.65 904.335 L2037.93 905.311 L2028.21 906.296 L2018.5 909.359 L2008.78 910.389 L1999.07 912.172 L1989.35 914.045 L1979.63 916.425 L1969.92 917.403 L1960.2 918.354 L1950.49 921.101 L1940.77 923.603 L1931.05 925.292 L1921.34 926.314 L1911.62 927.567 L1901.9 929.416 L1892.19 931.238 L1882.47 933.337 L1872.76 934.458 L1863.04 935.606 L1853.32 937.214 L1843.61 938.718 L1833.89 940.688 L1824.18 942.717 L1814.46 944.596 L1804.74 946.388 L1795.03 948.813 L1785.31 949.597 L1775.59 950.776 L1765.88 952.788 L1756.16 955.395 L1746.45 957.018 L1736.73 958.518 L1727.01 959.71 L1717.3 960.908 L1707.58 962.114 L1697.86 963.346 L1688.15 964.803 L1678.43 966.348 L1668.72 967.673 L1659 968.801 L1649.28 970.061 L1639.57 971.596 L1629.85 972.562 L1620.14 973.47 L1610.42 974.606 L1600.7 976.059 L1590.99 977.642 L1581.27 978.931 L1571.55 980.154 L1561.84 981.114 L1552.12 982.423 L1542.41 983.769 L1532.69 985.303 L1522.97 986.29 L1513.26 987.796 L1503.54 989.147 L1493.83 990.507 L1484.11 991.874 L1474.39 992.907 L1464.68 993.725 L1454.96 994.554 L1445.24 995.405 L1435.53 996.596 L1425.81 998.151 L1416.1 999.715 L1406.38 1000.58 L1396.66 1001.43 L1386.95 1002.28 L1377.23 1003.17 L1367.51 1004.93 L1357.8 1006.83 L1348.08 1008.75 L1338.37 1010.18 L1328.65 1011.39 L1318.93 1012.77 L1309.22 1014.05 L1299.5 1015.32 L1289.79 1016.6 L1280.07 1017.9 L1270.35 1019.23 L1260.64 1020.56 L1250.92 1021.91 L1241.2 1022.98 L1231.49 1024.07 L1221.77 1025.17 L1212.06 1026.68 L1202.34 1028.36 L1192.62 1030.02 L1182.91 1031.28 L1173.19 1032.06 L1163.48 1033.62 L1153.76 1035.25 L1144.04 1036.89 L1134.33 1038.54 L1124.61 1039.46 L1114.89 1040.89 L1105.18 1042.51 L1095.46 1044.15 L1085.75 1045.81 L1076.03 1047.25 L1066.31 1048.85 L1056.6 1050.25 L1046.88 1052.18 L1037.16 1053.35 L1027.45 1054.43 L1017.73 1055.54 L1008.02 1057.54 L998.3 1059.58 L988.584 1061.67 L978.868 1063.61 L969.152 1065.36 L959.436 1067.13 L949.719 1068.3 L940.003 1069.98 L930.287 1071.17 L920.571 1072.6 L910.855 1074.53 L901.138 1076.48 L891.422 1078.23 L881.706 1079.82 L871.99 1081.21 L862.274 1082.94 L852.558 1084.03 L842.841 1085.47 L833.125 1086.94 L823.409 1088.46 L813.693 1090.15 L803.977 1092.14 L794.261 1094.15 L784.544 1096.18 L774.828 1097.86 L765.112 1099.01 L755.396 1100.5 L745.68 1101.69 L735.964 1103.47 L726.247 1105.57 L716.531 1107.66 L706.815 1109.8 L697.099 1112.22 L687.383 1114.15 L677.666 1116.37 L667.95 1118.17 L658.234 1120.43 L648.518 1122.73 L638.802 1124.92 L629.086 1126.94 L619.369 1129.01 L609.653 1131.64 L599.937 1133.82 L590.221 1136.29 L580.505 1138.67 L570.789 1141.08 L561.072 1143.55 L551.356 1146.06 L541.64 1148.58 L531.924 1151.11 L522.208 1153.7 L512.491 1156.31 L502.775 1159.09 L493.059 1161.97 L483.343 1164.52 L473.627 1167.17 L463.911 1169.98 L454.194 1172.88 L444.478 1175.92 L434.762 1178.99 L425.046 1182.11 L415.33 1185.27 L405.614 1188.44 L395.897 1191.57 L386.181 1194.52 L376.465 1197.78 L366.749 1201.18 L357.033 1204.41 L347.317 1207.53 L337.6 1211.4 L327.884 1214.8 L318.168 1218.39 L308.452 1222.09 L298.736 1225.84 L289.019 1229.56 L279.303 1233.33 L269.587 1237.08 L259.871 1240.76 L250.155 1244.62 L240.439 1248.54 L230.722 1252.52 L221.006 1254.52  Z" fill="#3da44d" fill-rule="evenodd" fill-opacity="0.3"/>
<polyline clip-path="url(#clip612)" style="stroke:#3da44d; stroke-linecap:round; stroke-linejoin:round; stroke-width:4; stroke-opacity:0; fill:none" points="221.006,1254.52 230.722,1254.19 240.439,1253.52 250.155,1252.84 259.871,1252.15 269.587,1251.46 279.303,1250.77 289.019,1250 298.736,1249.13 308.452,1248.36 318.168,1247.59 327.884,1246.63 337.6,1245.76 347.317,1244.88 357.033,1244.05 366.749,1243.18 376.465,1242.43 386.181,1241.61 395.897,1240.88 405.614,1240.04 415.33,1239.25 425.046,1238.52 434.762,1237.78 444.478,1236.96 454.194,1236.21 463.911,1235.48 473.627,1234.71 483.343,1233.89 493.059,1233.19 502.775,1232.49 512.491,1231.75 522.208,1231.02 531.924,1230.29 541.64,1229.56 551.356,1228.73 561.072,1227.81 570.789,1227.1 580.505,1226.44 590.221,1225.69 599.937,1225.03 609.653,1224.31 619.369,1223.68 629.086,1223.08 638.802,1222.4 648.518,1221.68 658.234,1221.02 667.95,1220.3 677.666,1219.73 687.383,1218.92 697.099,1218.24 706.815,1217.55 716.531,1216.87 726.247,1216.19 735.964,1215.51 745.68,1214.84 755.396,1214.17 765.112,1213.51 774.828,1212.91 784.544,1212.24 794.261,1211.57 803.977,1210.96 813.693,1210.38 823.409,1209.81 833.125,1209.22 842.841,1208.85 852.558,1208.38 862.274,1207.78 871.99,1207.19 881.706,1206.56 891.422,1205.92 901.138,1205.44 910.855,1204.72 920.571,1203.92 930.287,1203.16 940.003,1202.48 949.719,1201.93 959.436,1201.5 969.152,1200.93 978.868,1200.17 988.584,1198.93 998.3,1198.43 1008.02,1197.88 1017.73,1196.97 1027.45,1196.4 1037.16,1195.77 1046.88,1195.24 1056.6,1194.77 1066.31,1194.32 1076.03,1193.82 1085.75,1193.32 1095.46,1192.79 1105.18,1192.12 1114.89,1191.42 1124.61,1190.89 1134.33,1190.43 1144.04,1189.95 1153.76,1189.07 1163.48,1188.25 1173.19,1187.61 1182.91,1187.04 1192.62,1186.44 1202.34,1185.94 1212.06,1185.63 1221.77,1185.1 1231.49,1184.66 1241.2,1184.27 1250.92,1183.82 1260.64,1182.75 1270.35,1182.08 1280.07,1181.54 1289.79,1181.01 1299.5,1180.32 1309.22,1179.89 1318.93,1179.24 1328.65,1178.89 1338.37,1178.37 1348.08,1177.75 1357.8,1177.15 1367.51,1176.76 1377.23,1176.29 1386.95,1175.76 1396.66,1175.31 1406.38,1174.86 1416.1,1174.4 1425.81,1174.03 1435.53,1173.58 1445.24,1173.27 1454.96,1173.09 1464.68,1172.42 1474.39,1171.85 1484.11,1171.53 1493.83,1171.02 1503.54,1170.49 1513.26,1170.04 1522.97,1169.43 1532.69,1168.9 1542.41,1168.37 1552.12,1167.58 1561.84,1167.18 1571.55,1166.8 1581.27,1166.38 1590.99,1165.99 1600.7,1165.25 1610.42,1164.56 1620.14,1163.7 1629.85,1163.31 1639.57,1162.98 1649.28,1162.65 1659,1162.05 1668.72,1161.66 1678.43,1161.16 1688.15,1160.5 1697.86,1160.14 1707.58,1159.52 1717.3,1158.85 1727.01,1158.49 1736.73,1157.93 1746.45,1157.31 1756.16,1156.72 1765.88,1156.2 1775.59,1155.18 1785.31,1154.96 1795.03,1154.75 1804.74,1153.58 1814.46,1153.08 1824.18,1152.69 1833.89,1152.27 1843.61,1151.8 1853.32,1150.78 1863.04,1150.13 1872.76,1149.03 1882.47,1148.47 1892.19,1148.07 1901.9,1146.9 1911.62,1145.88 1921.34,1144.53 1931.05,1143.26 1940.77,1142.73 1950.49,1141.47 1960.2,1141.1 1969.92,1139.32 1979.63,1138.2 1989.35,1137.74 1999.07,1136.84 2008.78,1135.66 2018.5,1135.19 2028.21,1134.77 2037.93,1133.73 2047.65,1132.84 2057.36,1131.99 2067.08,1131.1 2076.8,1130.8 2086.51,1130.5 2096.23,1129.93 2105.94,1129.06 2115.66,1128.19 2125.38,1127.66 2135.09,1127.22 2144.81,1126.51 2154.52,1125.69 2164.24,1125.21 2173.96,1124.58 2183.67,1124.16 2193.39,1123.86 2203.11,1123.44 2212.82,1122.78 2222.54,1122.3 2232.25,1121.96 2241.97,1121.63 2251.69,1121.3 2261.4,1120.86 2271.12,1120.33 2280.84,1119.3 2290.55,1118.93 2300.27,1118.57 2309.98,1118.24 2319.7,1117.94 2329.42,1117.03 2339.13,1116.77 2348.85,1116.57 2358.56,1116.37 2368.28,1116.17 2378,1115.98 2387.71,1115.79 2397.43,1115.63 2407.15,1115.48 2416.86,1115.24 2426.58,1115.03 2436.29,1114.85 2446.01,1114.62 2455.73,1114.37 2465.44,1114.1 2475.16,1113.02 2484.87,1112.34 2494.59,1112.05 2504.31,1111.85 2514.02,1111.53 2523.74,1111.3 2533.46,1111.08 2543.17,1110.86 2552.89,1110.63 "/>
<path clip-path="url(#clip610)" d="M276.065 243.007 L684.479 243.007 L684.479 87.4866 L276.065 87.4866  Z" fill="#ffffff" fill-rule="evenodd" fill-opacity="1"/>
<polyline clip-path="url(#clip610)" style="stroke:#000000; stroke-linecap:round; stroke-linejoin:round; stroke-width:4; stroke-opacity:1; fill:none" points="276.065,243.007 684.479,243.007 684.479,87.4866 276.065,87.4866 276.065,243.007 "/>
<polyline clip-path="url(#clip610)" style="stroke:#e26f46; stroke-linecap:round; stroke-linejoin:round; stroke-width:4; stroke-opacity:1; fill:none" points="294.417,139.327 404.534,139.327 "/>
<path clip-path="url(#clip610)" d="M443.234 135.658 Q444.831 132.787 447.053 131.422 Q449.276 130.056 452.285 130.056 Q456.336 130.056 458.535 132.903 Q460.734 135.727 460.734 140.959 L460.734 156.607 L456.451 156.607 L456.451 141.097 Q456.451 137.371 455.132 135.565 Q453.813 133.76 451.104 133.76 Q447.794 133.76 445.873 135.959 Q443.951 138.158 443.951 141.954 L443.951 156.607 L439.669 156.607 L439.669 141.097 Q439.669 137.347 438.35 135.565 Q437.03 133.76 434.276 133.76 Q431.012 133.76 429.09 135.982 Q427.169 138.181 427.169 141.954 L427.169 156.607 L422.887 156.607 L422.887 130.681 L427.169 130.681 L427.169 134.709 Q428.627 132.324 430.665 131.19 Q432.702 130.056 435.502 130.056 Q438.327 130.056 440.294 131.491 Q442.285 132.926 443.234 135.658 Z" fill="#000000" fill-rule="nonzero" fill-opacity="1" /><path clip-path="url(#clip610)" d="M491.405 142.579 L491.405 144.662 L471.822 144.662 Q472.099 149.06 474.461 151.375 Q476.845 153.667 481.081 153.667 Q483.535 153.667 485.826 153.065 Q488.141 152.463 490.41 151.259 L490.41 155.287 Q488.118 156.259 485.711 156.769 Q483.303 157.278 480.826 157.278 Q474.623 157.278 470.988 153.667 Q467.377 150.056 467.377 143.898 Q467.377 137.533 470.803 133.806 Q474.252 130.056 480.086 130.056 Q485.317 130.056 488.349 133.435 Q491.405 136.792 491.405 142.579 M487.146 141.329 Q487.099 137.834 485.178 135.75 Q483.28 133.667 480.132 133.667 Q476.567 133.667 474.414 135.681 Q472.285 137.695 471.961 141.352 L487.146 141.329 Z" fill="#000000" fill-rule="nonzero" fill-opacity="1" /><path clip-path="url(#clip610)" d="M498.396 120.588 L502.655 120.588 L502.655 156.607 L498.396 156.607 L498.396 120.588 Z" fill="#000000" fill-rule="nonzero" fill-opacity="1" /><path clip-path="url(#clip610)" d="M523.349 143.574 Q518.187 143.574 516.196 144.755 Q514.206 145.935 514.206 148.783 Q514.206 151.051 515.687 152.394 Q517.192 153.713 519.761 153.713 Q523.303 153.713 525.433 151.213 Q527.585 148.69 527.585 144.523 L527.585 143.574 L523.349 143.574 M531.845 141.815 L531.845 156.607 L527.585 156.607 L527.585 152.671 Q526.127 155.033 523.951 156.167 Q521.775 157.278 518.627 157.278 Q514.646 157.278 512.284 155.056 Q509.946 152.81 509.946 149.06 Q509.946 144.685 512.863 142.463 Q515.803 140.241 521.613 140.241 L527.585 140.241 L527.585 139.824 Q527.585 136.885 525.641 135.287 Q523.72 133.667 520.224 133.667 Q518.002 133.667 515.896 134.199 Q513.789 134.732 511.845 135.797 L511.845 131.861 Q514.183 130.959 516.382 130.519 Q518.581 130.056 520.664 130.056 Q526.289 130.056 529.067 132.972 Q531.845 135.889 531.845 141.815 Z" fill="#000000" fill-rule="nonzero" fill-opacity="1" /><path clip-path="url(#clip610)" d="M562.168 140.959 L562.168 156.607 L557.909 156.607 L557.909 141.097 Q557.909 137.417 556.474 135.588 Q555.039 133.76 552.168 133.76 Q548.719 133.76 546.729 135.959 Q544.738 138.158 544.738 141.954 L544.738 156.607 L540.456 156.607 L540.456 130.681 L544.738 130.681 L544.738 134.709 Q546.266 132.371 548.326 131.213 Q550.409 130.056 553.118 130.056 Q557.585 130.056 559.877 132.834 Q562.168 135.588 562.168 140.959 Z" fill="#000000" fill-rule="nonzero" fill-opacity="1" /><path clip-path="url(#clip610)" d="M580.71 133.667 Q577.284 133.667 575.293 136.352 Q573.303 139.014 573.303 143.667 Q573.303 148.32 575.27 151.005 Q577.261 153.667 580.71 153.667 Q584.113 153.667 586.103 150.982 Q588.094 148.296 588.094 143.667 Q588.094 139.06 586.103 136.375 Q584.113 133.667 580.71 133.667 M580.71 130.056 Q586.266 130.056 589.437 133.667 Q592.608 137.278 592.608 143.667 Q592.608 150.033 589.437 153.667 Q586.266 157.278 580.71 157.278 Q575.131 157.278 571.96 153.667 Q568.812 150.033 568.812 143.667 Q568.812 137.278 571.96 133.667 Q575.131 130.056 580.71 130.056 Z" fill="#000000" fill-rule="nonzero" fill-opacity="1" /><path clip-path="url(#clip610)" d="M619.853 135.658 Q621.451 132.787 623.673 131.422 Q625.895 130.056 628.904 130.056 Q632.955 130.056 635.154 132.903 Q637.353 135.727 637.353 140.959 L637.353 156.607 L633.071 156.607 L633.071 141.097 Q633.071 137.371 631.751 135.565 Q630.432 133.76 627.724 133.76 Q624.413 133.76 622.492 135.959 Q620.571 138.158 620.571 141.954 L620.571 156.607 L616.289 156.607 L616.289 141.097 Q616.289 137.347 614.969 135.565 Q613.65 133.76 610.895 133.76 Q607.631 133.76 605.71 135.982 Q603.789 138.181 603.789 141.954 L603.789 156.607 L599.506 156.607 L599.506 130.681 L603.789 130.681 L603.789 134.709 Q605.247 132.324 607.284 131.19 Q609.321 130.056 612.122 130.056 Q614.946 130.056 616.914 131.491 Q618.904 132.926 619.853 135.658 Z" fill="#000000" fill-rule="nonzero" fill-opacity="1" /><path clip-path="url(#clip610)" d="M657.631 143.574 Q652.469 143.574 650.478 144.755 Q648.487 145.935 648.487 148.783 Q648.487 151.051 649.969 152.394 Q651.474 153.713 654.043 153.713 Q657.585 153.713 659.714 151.213 Q661.867 148.69 661.867 144.523 L661.867 143.574 L657.631 143.574 M666.126 141.815 L666.126 156.607 L661.867 156.607 L661.867 152.671 Q660.409 155.033 658.233 156.167 Q656.057 157.278 652.909 157.278 Q648.927 157.278 646.566 155.056 Q644.228 152.81 644.228 149.06 Q644.228 144.685 647.145 142.463 Q650.085 140.241 655.895 140.241 L661.867 140.241 L661.867 139.824 Q661.867 136.885 659.923 135.287 Q658.001 133.667 654.506 133.667 Q652.284 133.667 650.177 134.199 Q648.071 134.732 646.126 135.797 L646.126 131.861 Q648.464 130.959 650.663 130.519 Q652.862 130.056 654.946 130.056 Q660.571 130.056 663.348 132.972 Q666.126 135.889 666.126 141.815 Z" fill="#000000" fill-rule="nonzero" fill-opacity="1" /><polyline clip-path="url(#clip610)" style="stroke:#3da44d; stroke-linecap:round; stroke-linejoin:round; stroke-width:4; stroke-opacity:1; fill:none" points="294.417,191.167 404.534,191.167 "/>
<path clip-path="url(#clip610)" d="M434.785 185.507 Q431.359 185.507 429.368 188.192 Q427.377 190.854 427.377 195.507 Q427.377 200.16 429.345 202.845 Q431.336 205.507 434.785 205.507 Q438.188 205.507 440.178 202.822 Q442.169 200.136 442.169 195.507 Q442.169 190.9 440.178 188.215 Q438.188 185.507 434.785 185.507 M434.785 181.896 Q440.34 181.896 443.512 185.507 Q446.683 189.118 446.683 195.507 Q446.683 201.873 443.512 205.507 Q440.34 209.118 434.785 209.118 Q429.206 209.118 426.035 205.507 Q422.887 201.873 422.887 195.507 Q422.887 189.118 426.035 185.507 Q429.206 181.896 434.785 181.896 Z" fill="#000000" fill-rule="nonzero" fill-opacity="1" /><path clip-path="url(#clip610)" d="M457.956 175.16 L457.956 182.521 L466.729 182.521 L466.729 185.831 L457.956 185.831 L457.956 199.905 Q457.956 203.076 458.813 203.979 Q459.692 204.882 462.354 204.882 L466.729 204.882 L466.729 208.447 L462.354 208.447 Q457.424 208.447 455.549 206.618 Q453.674 204.766 453.674 199.905 L453.674 185.831 L450.549 185.831 L450.549 182.521 L453.674 182.521 L453.674 175.16 L457.956 175.16 Z" fill="#000000" fill-rule="nonzero" fill-opacity="1" /><path clip-path="url(#clip610)" d="M493.882 192.799 L493.882 208.447 L489.623 208.447 L489.623 192.937 Q489.623 189.257 488.187 187.428 Q486.752 185.6 483.882 185.6 Q480.433 185.6 478.442 187.799 Q476.451 189.998 476.451 193.794 L476.451 208.447 L472.169 208.447 L472.169 172.428 L476.451 172.428 L476.451 186.549 Q477.979 184.211 480.039 183.053 Q482.123 181.896 484.831 181.896 Q489.298 181.896 491.59 184.674 Q493.882 187.428 493.882 192.799 Z" fill="#000000" fill-rule="nonzero" fill-opacity="1" /><path clip-path="url(#clip610)" d="M524.553 194.419 L524.553 196.502 L504.97 196.502 Q505.247 200.9 507.609 203.215 Q509.993 205.507 514.229 205.507 Q516.683 205.507 518.974 204.905 Q521.289 204.303 523.558 203.099 L523.558 207.127 Q521.266 208.099 518.858 208.609 Q516.451 209.118 513.974 209.118 Q507.771 209.118 504.136 205.507 Q500.525 201.896 500.525 195.738 Q500.525 189.373 503.951 185.646 Q507.4 181.896 513.234 181.896 Q518.465 181.896 521.497 185.275 Q524.553 188.632 524.553 194.419 M520.294 193.169 Q520.247 189.674 518.326 187.59 Q516.428 185.507 513.28 185.507 Q509.715 185.507 507.562 187.521 Q505.433 189.535 505.109 193.192 L520.294 193.169 Z" fill="#000000" fill-rule="nonzero" fill-opacity="1" /><path clip-path="url(#clip610)" d="M546.567 186.502 Q545.849 186.086 544.993 185.9 Q544.159 185.692 543.141 185.692 Q539.53 185.692 537.585 188.053 Q535.664 190.391 535.664 194.789 L535.664 208.447 L531.382 208.447 L531.382 182.521 L535.664 182.521 L535.664 186.549 Q537.007 184.187 539.159 183.053 Q541.312 181.896 544.391 181.896 Q544.831 181.896 545.363 181.965 Q545.895 182.012 546.544 182.127 L546.567 186.502 Z" fill="#000000" fill-rule="nonzero" fill-opacity="1" /><path clip-path="url(#clip610)" d="M567.562 183.285 L567.562 187.312 Q565.756 186.387 563.812 185.924 Q561.868 185.461 559.784 185.461 Q556.613 185.461 555.016 186.433 Q553.442 187.405 553.442 189.349 Q553.442 190.831 554.576 191.687 Q555.71 192.521 559.136 193.285 L560.594 193.609 Q565.131 194.581 567.03 196.363 Q568.951 198.123 568.951 201.294 Q568.951 204.905 566.08 207.011 Q563.233 209.118 558.233 209.118 Q556.15 209.118 553.881 208.701 Q551.636 208.308 549.136 207.498 L549.136 203.099 Q551.497 204.326 553.789 204.951 Q556.081 205.553 558.326 205.553 Q561.335 205.553 562.955 204.535 Q564.576 203.493 564.576 201.618 Q564.576 199.882 563.395 198.956 Q562.238 198.03 558.28 197.174 L556.798 196.826 Q552.84 195.993 551.081 194.28 Q549.321 192.544 549.321 189.535 Q549.321 185.877 551.914 183.887 Q554.506 181.896 559.275 181.896 Q561.636 181.896 563.719 182.243 Q565.803 182.59 567.562 183.285 Z" fill="#000000" fill-rule="nonzero" fill-opacity="1" /></svg>
