<?xml version="1.0" encoding="utf-8"?>
<svg xmlns="http://www.w3.org/2000/svg" xmlns:xlink="http://www.w3.org/1999/xlink" width="480" height="360" viewBox="0 0 1920 1440">
<defs>
  <clipPath id="clip410">
    <rect x="0" y="0" width="1920" height="1440"/>
  </clipPath>
</defs>
<path clip-path="url(#clip410)" d="M0 1440 L1920 1440 L1920 0 L0 0  Z" fill="#ffffff" fill-rule="evenodd" fill-opacity="1"/>
<defs>
  <clipPath id="clip411">
    <rect x="384" y="0" width="1345" height="1345"/>
  </clipPath>
</defs>
<path clip-path="url(#clip410)" d="M151.798 1254.52 L1872.76 1254.52 L1872.76 47.2441 L151.798 47.2441  Z" fill="#ffffff" fill-rule="evenodd" fill-opacity="1"/>
<defs>
  <clipPath id="clip412">
    <rect x="151" y="47" width="1722" height="1208"/>
  </clipPath>
</defs>
<polyline clip-path="url(#clip412)" style="stroke:#000000; stroke-linecap:round; stroke-linejoin:round; stroke-width:2; stroke-opacity:0.1; fill:none" points="151.798,1254.52 151.798,47.2441 "/>
<polyline clip-path="url(#clip412)" style="stroke:#000000; stroke-linecap:round; stroke-linejoin:round; stroke-width:2; stroke-opacity:0.1; fill:none" points="534.233,1254.52 534.233,47.2441 "/>
<polyline clip-path="url(#clip412)" style="stroke:#000000; stroke-linecap:round; stroke-linejoin:round; stroke-width:2; stroke-opacity:0.1; fill:none" points="916.668,1254.52 916.668,47.2441 "/>
<polyline clip-path="url(#clip412)" style="stroke:#000000; stroke-linecap:round; stroke-linejoin:round; stroke-width:2; stroke-opacity:0.1; fill:none" points="1299.1,1254.52 1299.1,47.2441 "/>
<polyline clip-path="url(#clip412)" style="stroke:#000000; stroke-linecap:round; stroke-linejoin:round; stroke-width:2; stroke-opacity:0.1; fill:none" points="1681.54,1254.52 1681.54,47.2441 "/>
<polyline clip-path="url(#clip412)" style="stroke:#000000; stroke-linecap:round; stroke-linejoin:round; stroke-width:2; stroke-opacity:0.1; fill:none" points="151.798,1254.52 1872.76,1254.52 "/>
<polyline clip-path="url(#clip412)" style="stroke:#000000; stroke-linecap:round; stroke-linejoin:round; stroke-width:2; stroke-opacity:0.1; fill:none" points="151.798,1027.8 1872.76,1027.8 "/>
<polyline clip-path="url(#clip412)" style="stroke:#000000; stroke-linecap:round; stroke-linejoin:round; stroke-width:2; stroke-opacity:0.1; fill:none" points="151.798,801.083 1872.76,801.083 "/>
<polyline clip-path="url(#clip412)" style="stroke:#000000; stroke-linecap:round; stroke-linejoin:round; stroke-width:2; stroke-opacity:0.1; fill:none" points="151.798,574.364 1872.76,574.364 "/>
<polyline clip-path="url(#clip412)" style="stroke:#000000; stroke-linecap:round; stroke-linejoin:round; stroke-width:2; stroke-opacity:0.1; fill:none" points="151.798,347.646 1872.76,347.646 "/>
<polyline clip-path="url(#clip412)" style="stroke:#000000; stroke-linecap:round; stroke-linejoin:round; stroke-width:2; stroke-opacity:0.1; fill:none" points="151.798,120.928 1872.76,120.928 "/>
<polyline clip-path="url(#clip410)" style="stroke:#000000; stroke-linecap:round; stroke-linejoin:round; stroke-width:4; stroke-opacity:1; fill:none" points="151.798,1254.52 1872.76,1254.52 "/>
<polyline clip-path="url(#clip410)" style="stroke:#000000; stroke-linecap:round; stroke-linejoin:round; stroke-width:4; stroke-opacity:1; fill:none" points="151.798,1254.52 151.798,1235.62 "/>
<polyline clip-path="url(#clip410)" style="stroke:#000000; stroke-linecap:round; stroke-linejoin:round; stroke-width:4; stroke-opacity:1; fill:none" points="534.233,1254.52 534.233,1235.62 "/>
<polyline clip-path="url(#clip410)" style="stroke:#000000; stroke-linecap:round; stroke-linejoin:round; stroke-width:4; stroke-opacity:1; fill:none" points="916.668,1254.52 916.668,1235.62 "/>
<polyline clip-path="url(#clip410)" style="stroke:#000000; stroke-linecap:round; stroke-linejoin:round; stroke-width:4; stroke-opacity:1; fill:none" points="1299.1,1254.52 1299.1,1235.62 "/>
<polyline clip-path="url(#clip410)" style="stroke:#000000; stroke-linecap:round; stroke-linejoin:round; stroke-width:4; stroke-opacity:1; fill:none" points="1681.54,1254.52 1681.54,1235.62 "/>
<path clip-path="url(#clip410)" d="M120.988 1296.25 L150.664 1296.25 L150.664 1300.19 L120.988 1300.19 L120.988 1296.25 Z" fill="#000000" fill-rule="nonzero" fill-opacity="1" /><path clip-path="url(#clip410)" d="M170.756 1296.67 Q167.423 1296.67 165.502 1298.45 Q163.604 1300.23 163.604 1303.36 Q163.604 1306.48 165.502 1308.27 Q167.423 1310.05 170.756 1310.05 Q174.09 1310.05 176.011 1308.27 Q177.932 1306.46 177.932 1303.36 Q177.932 1300.23 176.011 1298.45 Q174.113 1296.67 170.756 1296.67 M166.081 1294.68 Q163.071 1293.94 161.382 1291.88 Q159.715 1289.82 159.715 1286.85 Q159.715 1282.71 162.655 1280.3 Q165.618 1277.89 170.756 1277.89 Q175.918 1277.89 178.858 1280.3 Q181.798 1282.71 181.798 1286.85 Q181.798 1289.82 180.108 1291.88 Q178.442 1293.94 175.456 1294.68 Q178.835 1295.46 180.71 1297.76 Q182.608 1300.05 182.608 1303.36 Q182.608 1308.38 179.53 1311.07 Q176.474 1313.75 170.756 1313.75 Q165.039 1313.75 161.96 1311.07 Q158.905 1308.38 158.905 1303.36 Q158.905 1300.05 160.803 1297.76 Q162.701 1295.46 166.081 1294.68 M164.368 1287.29 Q164.368 1289.98 166.034 1291.48 Q167.724 1292.99 170.756 1292.99 Q173.766 1292.99 175.456 1291.48 Q177.168 1289.98 177.168 1287.29 Q177.168 1284.61 175.456 1283.1 Q173.766 1281.6 170.756 1281.6 Q167.724 1281.6 166.034 1283.1 Q164.368 1284.61 164.368 1287.29 Z" fill="#000000" fill-rule="nonzero" fill-opacity="1" /><path clip-path="url(#clip410)" d="M503.296 1296.25 L532.972 1296.25 L532.972 1300.19 L503.296 1300.19 L503.296 1296.25 Z" fill="#000000" fill-rule="nonzero" fill-opacity="1" /><path clip-path="url(#clip410)" d="M553.643 1293.94 Q550.495 1293.94 548.643 1296.09 Q546.814 1298.24 546.814 1301.99 Q546.814 1305.72 548.643 1307.89 Q550.495 1310.05 553.643 1310.05 Q556.791 1310.05 558.62 1307.89 Q560.472 1305.72 560.472 1301.99 Q560.472 1298.24 558.62 1296.09 Q556.791 1293.94 553.643 1293.94 M562.925 1279.28 L562.925 1283.54 Q561.166 1282.71 559.36 1282.27 Q557.578 1281.83 555.819 1281.83 Q551.189 1281.83 548.736 1284.95 Q546.305 1288.08 545.958 1294.4 Q547.323 1292.39 549.384 1291.32 Q551.444 1290.23 553.921 1290.23 Q559.129 1290.23 562.138 1293.4 Q565.171 1296.55 565.171 1301.99 Q565.171 1307.32 562.022 1310.53 Q558.874 1313.75 553.643 1313.75 Q547.648 1313.75 544.476 1309.17 Q541.305 1304.56 541.305 1295.83 Q541.305 1287.64 545.194 1282.78 Q549.083 1277.89 555.634 1277.89 Q557.393 1277.89 559.175 1278.24 Q560.981 1278.59 562.925 1279.28 Z" fill="#000000" fill-rule="nonzero" fill-opacity="1" /><path clip-path="url(#clip410)" d="M885.569 1296.25 L915.245 1296.25 L915.245 1300.19 L885.569 1300.19 L885.569 1296.25 Z" fill="#000000" fill-rule="nonzero" fill-opacity="1" /><path clip-path="url(#clip410)" d="M938.184 1282.59 L926.379 1301.04 L938.184 1301.04 L938.184 1282.59 M936.958 1278.52 L942.837 1278.52 L942.837 1301.04 L947.768 1301.04 L947.768 1304.93 L942.837 1304.93 L942.837 1313.08 L938.184 1313.08 L938.184 1304.93 L922.583 1304.93 L922.583 1300.42 L936.958 1278.52 Z" fill="#000000" fill-rule="nonzero" fill-opacity="1" /><path clip-path="url(#clip410)" d="M1269.05 1296.25 L1298.72 1296.25 L1298.72 1300.19 L1269.05 1300.19 L1269.05 1296.25 Z" fill="#000000" fill-rule="nonzero" fill-opacity="1" /><path clip-path="url(#clip410)" d="M1312.84 1309.14 L1329.16 1309.14 L1329.16 1313.08 L1307.22 1313.08 L1307.22 1309.14 Q1309.88 1306.39 1314.46 1301.76 Q1319.07 1297.11 1320.25 1295.77 Q1322.49 1293.24 1323.37 1291.51 Q1324.28 1289.75 1324.28 1288.06 Q1324.28 1285.3 1322.33 1283.57 Q1320.41 1281.83 1317.31 1281.83 Q1315.11 1281.83 1312.66 1282.59 Q1310.23 1283.36 1307.45 1284.91 L1307.45 1280.19 Q1310.27 1279.05 1312.73 1278.47 Q1315.18 1277.89 1317.22 1277.89 Q1322.59 1277.89 1325.78 1280.58 Q1328.98 1283.27 1328.98 1287.76 Q1328.98 1289.89 1328.17 1291.81 Q1327.38 1293.7 1325.27 1296.3 Q1324.69 1296.97 1321.59 1300.19 Q1318.49 1303.38 1312.84 1309.14 Z" fill="#000000" fill-rule="nonzero" fill-opacity="1" /><path clip-path="url(#clip410)" d="M1681.54 1281.6 Q1677.93 1281.6 1676.1 1285.16 Q1674.29 1288.7 1674.29 1295.83 Q1674.29 1302.94 1676.1 1306.51 Q1677.93 1310.05 1681.54 1310.05 Q1685.17 1310.05 1686.98 1306.51 Q1688.81 1302.94 1688.81 1295.83 Q1688.81 1288.7 1686.98 1285.16 Q1685.17 1281.6 1681.54 1281.6 M1681.54 1277.89 Q1687.35 1277.89 1690.4 1282.5 Q1693.48 1287.08 1693.48 1295.83 Q1693.48 1304.56 1690.4 1309.17 Q1687.35 1313.75 1681.54 1313.75 Q1675.73 1313.75 1672.65 1309.17 Q1669.59 1304.56 1669.59 1295.83 Q1669.59 1287.08 1672.65 1282.5 Q1675.73 1277.89 1681.54 1277.89 Z" fill="#000000" fill-rule="nonzero" fill-opacity="1" /><path clip-path="url(#clip410)" d="M928.29 1380 L928.29 1377.97 Q931.801 1377.97 932.606 1377.56 Q933.411 1377.1 933.411 1374.98 L933.411 1340.68 Q933.411 1338.23 932.541 1337.62 Q931.704 1337.01 928.29 1337.01 L928.29 1334.95 L937.759 1334.24 L937.759 1374.98 Q937.759 1377.1 938.596 1377.56 Q939.434 1377.97 942.912 1377.97 L942.912 1380 Q942.107 1380 940.432 1379.94 Q938.757 1379.87 937.533 1379.84 Q936.31 1379.81 935.601 1379.81 Q934.828 1379.81 928.29 1380 Z" fill="#000000" fill-rule="nonzero" fill-opacity="1" /><path clip-path="url(#clip410)" d="M952.836 1376.46 Q948.488 1372.14 948.488 1365.9 Q948.488 1359.62 952.739 1355.04 Q957.022 1350.44 963.142 1350.44 Q969.132 1350.44 973.415 1355.01 Q977.731 1359.55 977.731 1365.9 Q977.731 1372.11 973.383 1376.43 Q969.067 1380.74 963.077 1380.74 Q957.216 1380.74 952.836 1376.46 M953.963 1365.35 Q953.963 1371.76 955.638 1374.66 Q958.214 1379.07 963.142 1379.07 Q965.589 1379.07 967.618 1377.75 Q969.679 1376.43 970.807 1374.21 Q972.256 1371.31 972.256 1365.35 Q972.256 1359 970.517 1356.2 Q967.94 1351.92 963.077 1351.92 Q960.952 1351.92 958.858 1353.05 Q956.797 1354.14 955.541 1356.33 Q953.963 1359.23 953.963 1365.35 Z" fill="#000000" fill-rule="nonzero" fill-opacity="1" /><path clip-path="url(#clip410)" d="M978.774 1385.22 Q978.774 1383.09 980.385 1381.26 Q982.027 1379.42 984.861 1378.62 Q981.963 1376.78 981.963 1372.76 Q981.963 1369.67 983.992 1367.28 Q980.9 1364.71 980.9 1360.49 Q980.9 1356.59 983.992 1353.72 Q987.084 1350.86 991.592 1350.86 Q995.554 1350.86 998.581 1353.24 Q1001.74 1350.15 1005.57 1350.12 Q1007.28 1350.12 1008.08 1351.18 Q1008.92 1352.24 1008.92 1353.37 Q1008.92 1354.37 1008.27 1354.85 Q1007.66 1355.33 1007.02 1355.33 Q1006.21 1355.33 1005.63 1354.82 Q1005.09 1354.27 1005.09 1353.43 Q1005.09 1352.05 1006.15 1351.63 Q1005.96 1351.57 1005.51 1351.57 Q1002.28 1351.57 999.547 1354.14 Q1002.25 1356.65 1002.25 1360.55 Q1002.25 1364.45 999.161 1367.31 Q996.069 1370.18 991.592 1370.18 Q987.889 1370.18 985.055 1368.12 Q983.927 1369.44 983.927 1371.24 Q983.927 1372.89 984.926 1374.17 Q985.924 1375.46 987.438 1375.66 Q987.889 1375.72 992.365 1375.72 Q995.006 1375.72 996.455 1375.78 Q997.905 1375.85 999.966 1376.3 Q1002.06 1376.72 1003.7 1377.56 Q1007.99 1379.94 1008.02 1385.09 Q1008.02 1388.86 1003.67 1391.21 Q999.354 1393.59 993.364 1393.59 Q987.309 1393.59 983.026 1391.18 Q978.774 1388.8 978.774 1385.22 M982.22 1385.22 Q982.22 1387.93 985.409 1389.99 Q988.597 1392.08 993.428 1392.08 Q998.162 1392.08 1001.35 1390.02 Q1004.57 1387.99 1004.57 1385.22 Q1004.57 1383.26 1003.44 1382 Q1002.32 1380.74 999.998 1380.23 Q997.711 1379.75 996.101 1379.65 Q994.491 1379.55 991.528 1379.55 L987.631 1379.55 Q985.377 1379.68 983.799 1381.32 Q982.22 1382.97 982.22 1385.22 M985.827 1360.55 Q985.827 1368.67 991.592 1368.67 Q994.491 1368.67 996.262 1366.03 Q997.325 1364.25 997.325 1360.49 Q997.325 1352.37 991.592 1352.37 Q988.694 1352.37 986.89 1355.01 Q985.827 1356.78 985.827 1360.55 Z" fill="#000000" fill-rule="nonzero" fill-opacity="1" /><path clip-path="url(#clip410)" d="M1019.28 1363.51 Q1019.28 1352.37 1023.43 1343.39 Q1025.21 1339.62 1027.69 1336.46 Q1030.17 1333.3 1031.81 1331.92 Q1033.45 1330.53 1033.9 1330.53 Q1034.55 1330.53 1034.58 1331.18 Q1034.58 1331.5 1033.71 1332.31 Q1023.08 1343.13 1023.11 1363.51 Q1023.11 1383.96 1033.45 1394.37 Q1034.58 1395.49 1034.58 1395.85 Q1034.58 1396.49 1033.9 1396.49 Q1033.45 1396.49 1031.87 1395.17 Q1030.29 1393.85 1027.85 1390.82 Q1025.4 1387.8 1023.63 1384.09 Q1019.28 1375.11 1019.28 1363.51 Z" fill="#000000" fill-rule="nonzero" fill-opacity="1" /><path clip-path="url(#clip410)" d="M1073.28 1370.57 Q1072.47 1374.53 1070.83 1377.3 Q1068.8 1380.74 1065.71 1380.74 Q1063.1 1380.74 1061.36 1378.94 Q1059.62 1377.1 1059.62 1374.21 Q1059.62 1373.34 1059.98 1371.89 Q1060.1 1371.24 1060.1 1370.44 Q1060.1 1365.22 1048.8 1364.83 Q1047.87 1368.54 1047.22 1371.05 Q1046.61 1373.53 1046.42 1374.27 Q1046.22 1375.01 1046.06 1375.62 Q1045.93 1376.24 1045.71 1377.04 Q1045.39 1378.36 1045.16 1379 Q1044.94 1379.65 1044.32 1380.2 Q1043.74 1380.74 1042.81 1380.74 Q1042 1380.74 1041.46 1380.26 Q1040.91 1379.78 1040.91 1378.94 Q1040.91 1378.36 1041.17 1377.43 L1047.22 1353.24 Q1047.38 1352.56 1047.71 1352.08 Q1048.03 1351.6 1048.32 1351.37 Q1048.64 1351.15 1049.03 1351.02 Q1049.41 1350.89 1049.57 1350.89 Q1049.73 1350.86 1049.86 1350.86 Q1050.73 1350.86 1051.25 1351.34 Q1051.8 1351.79 1051.8 1352.63 Q1051.8 1352.76 1051.57 1353.66 Q1051.38 1354.53 1051.05 1355.85 Q1050.73 1357.17 1050.6 1357.78 L1049.28 1362.93 Q1051.12 1362.32 1052.76 1361.23 Q1054.44 1360.13 1057.72 1357.3 Q1059.23 1356.04 1060.14 1355.33 Q1061.07 1354.59 1062.62 1353.59 Q1064.16 1352.56 1065.64 1352.08 Q1067.13 1351.57 1068.54 1351.57 Q1069.64 1351.57 1070.28 1352.08 Q1070.93 1352.56 1071.05 1353.01 Q1071.18 1353.43 1071.18 1353.88 Q1071.18 1355.2 1070.15 1356.33 Q1069.12 1357.46 1067.61 1357.46 Q1066.26 1357.46 1065.68 1356.72 Q1065.1 1355.98 1065.1 1355.14 Q1065.1 1354.5 1065.42 1353.69 Q1063.61 1354.46 1062.07 1355.59 Q1060.52 1356.69 1057.85 1358.97 Q1054.05 1362.23 1051.8 1363.45 Q1053.08 1363.48 1054.05 1363.58 Q1055.05 1363.64 1056.72 1363.87 Q1058.4 1364.09 1059.62 1364.58 Q1060.85 1365.03 1062.04 1365.74 Q1063.26 1366.44 1063.9 1367.6 Q1064.58 1368.76 1064.58 1370.24 Q1064.58 1370.95 1064.26 1372.4 Q1063.71 1374.79 1063.71 1376.11 Q1063.71 1377.78 1064.23 1378.52 Q1064.77 1379.26 1065.84 1379.26 Q1067.87 1379.26 1069.15 1377.17 Q1070.47 1375.04 1071.57 1371.11 Q1071.73 1370.37 1071.89 1370.15 Q1072.05 1369.92 1072.5 1369.92 Q1073.28 1369.92 1073.28 1370.57 Z" fill="#000000" fill-rule="nonzero" fill-opacity="1" /><path clip-path="url(#clip410)" d="M1078.78 1395.85 Q1078.78 1395.53 1079.62 1394.72 Q1090.25 1383.9 1090.25 1363.51 Q1090.25 1343.06 1080.04 1332.72 Q1078.78 1331.53 1078.78 1331.18 Q1078.78 1330.53 1079.42 1330.53 Q1079.88 1330.53 1081.45 1331.86 Q1083.06 1333.18 1085.48 1336.2 Q1087.93 1339.23 1089.73 1342.93 Q1094.08 1351.92 1094.08 1363.51 Q1094.08 1374.66 1089.92 1383.64 Q1088.15 1387.41 1085.67 1390.57 Q1083.19 1393.72 1081.55 1395.11 Q1079.91 1396.49 1079.42 1396.49 Q1078.78 1396.49 1078.78 1395.85 Z" fill="#000000" fill-rule="nonzero" fill-opacity="1" /><polyline clip-path="url(#clip410)" style="stroke:#000000; stroke-linecap:round; stroke-linejoin:round; stroke-width:4; stroke-opacity:1; fill:none" points="151.798,1254.52 151.798,47.2441 "/>
<polyline clip-path="url(#clip410)" style="stroke:#000000; stroke-linecap:round; stroke-linejoin:round; stroke-width:4; stroke-opacity:1; fill:none" points="151.798,1254.52 170.696,1254.52 "/>
<polyline clip-path="url(#clip410)" style="stroke:#000000; stroke-linecap:round; stroke-linejoin:round; stroke-width:4; stroke-opacity:1; fill:none" points="151.798,1027.8 170.696,1027.8 "/>
<polyline clip-path="url(#clip410)" style="stroke:#000000; stroke-linecap:round; stroke-linejoin:round; stroke-width:4; stroke-opacity:1; fill:none" points="151.798,801.083 170.696,801.083 "/>
<polyline clip-path="url(#clip410)" style="stroke:#000000; stroke-linecap:round; stroke-linejoin:round; stroke-width:4; stroke-opacity:1; fill:none" points="151.798,574.364 170.696,574.364 "/>
<polyline clip-path="url(#clip410)" style="stroke:#000000; stroke-linecap:round; stroke-linejoin:round; stroke-width:4; stroke-opacity:1; fill:none" points="151.798,347.646 170.696,347.646 "/>
<polyline clip-path="url(#clip410)" style="stroke:#000000; stroke-linecap:round; stroke-linejoin:round; stroke-width:4; stroke-opacity:1; fill:none" points="151.798,120.928 170.696,120.928 "/>
<path clip-path="url(#clip410)" d="M65.8226 1240.32 Q62.2115 1240.32 60.3828 1243.88 Q58.5773 1247.42 58.5773 1254.55 Q58.5773 1261.66 60.3828 1265.23 Q62.2115 1268.77 65.8226 1268.77 Q69.4569 1268.77 71.2624 1265.23 Q73.0911 1261.66 73.0911 1254.55 Q73.0911 1247.42 71.2624 1243.88 Q69.4569 1240.32 65.8226 1240.32 M65.8226 1236.61 Q71.6328 1236.61 74.6883 1241.22 Q77.767 1245.8 77.767 1254.55 Q77.767 1263.28 74.6883 1267.89 Q71.6328 1272.47 65.8226 1272.47 Q60.0125 1272.47 56.9338 1267.89 Q53.8782 1263.28 53.8782 1254.55 Q53.8782 1245.8 56.9338 1241.22 Q60.0125 1236.61 65.8226 1236.61 Z" fill="#000000" fill-rule="nonzero" fill-opacity="1" /><path clip-path="url(#clip410)" d="M85.9845 1265.92 L90.8688 1265.92 L90.8688 1271.8 L85.9845 1271.8 L85.9845 1265.92 Z" fill="#000000" fill-rule="nonzero" fill-opacity="1" /><path clip-path="url(#clip410)" d="M111.054 1240.32 Q107.443 1240.32 105.614 1243.88 Q103.809 1247.42 103.809 1254.55 Q103.809 1261.66 105.614 1265.23 Q107.443 1268.77 111.054 1268.77 Q114.688 1268.77 116.494 1265.23 Q118.322 1261.66 118.322 1254.55 Q118.322 1247.42 116.494 1243.88 Q114.688 1240.32 111.054 1240.32 M111.054 1236.61 Q116.864 1236.61 119.92 1241.22 Q122.998 1245.8 122.998 1254.55 Q122.998 1263.28 119.92 1267.89 Q116.864 1272.47 111.054 1272.47 Q105.244 1272.47 102.165 1267.89 Q99.1095 1263.28 99.1095 1254.55 Q99.1095 1245.8 102.165 1241.22 Q105.244 1236.61 111.054 1236.61 Z" fill="#000000" fill-rule="nonzero" fill-opacity="1" /><path clip-path="url(#clip410)" d="M67.0495 1013.6 Q63.4384 1013.6 61.6097 1017.16 Q59.8041 1020.71 59.8041 1027.84 Q59.8041 1034.94 61.6097 1038.51 Q63.4384 1042.05 67.0495 1042.05 Q70.6837 1042.05 72.4892 1038.51 Q74.3179 1034.94 74.3179 1027.84 Q74.3179 1020.71 72.4892 1017.16 Q70.6837 1013.6 67.0495 1013.6 M67.0495 1009.9 Q72.8596 1009.9 75.9152 1014.5 Q78.9938 1019.09 78.9938 1027.84 Q78.9938 1036.56 75.9152 1041.17 Q72.8596 1045.75 67.0495 1045.75 Q61.2393 1045.75 58.1606 1041.17 Q55.1051 1036.56 55.1051 1027.84 Q55.1051 1019.09 58.1606 1014.5 Q61.2393 1009.9 67.0495 1009.9 Z" fill="#000000" fill-rule="nonzero" fill-opacity="1" /><path clip-path="url(#clip410)" d="M87.2114 1039.2 L92.0956 1039.2 L92.0956 1045.08 L87.2114 1045.08 L87.2114 1039.2 Z" fill="#000000" fill-rule="nonzero" fill-opacity="1" /><path clip-path="url(#clip410)" d="M103.091 1041.15 L110.73 1041.15 L110.73 1014.78 L102.42 1016.45 L102.42 1012.19 L110.683 1010.52 L115.359 1010.52 L115.359 1041.15 L122.998 1041.15 L122.998 1045.08 L103.091 1045.08 L103.091 1041.15 Z" fill="#000000" fill-rule="nonzero" fill-opacity="1" /><path clip-path="url(#clip410)" d="M67.4198 786.882 Q63.8087 786.882 61.98 790.446 Q60.1745 793.988 60.1745 801.118 Q60.1745 808.224 61.98 811.789 Q63.8087 815.331 67.4198 815.331 Q71.0541 815.331 72.8596 811.789 Q74.6883 808.224 74.6883 801.118 Q74.6883 793.988 72.8596 790.446 Q71.0541 786.882 67.4198 786.882 M67.4198 783.178 Q73.23 783.178 76.2855 787.784 Q79.3642 792.368 79.3642 801.118 Q79.3642 809.844 76.2855 814.451 Q73.23 819.034 67.4198 819.034 Q61.6097 819.034 58.531 814.451 Q55.4754 809.844 55.4754 801.118 Q55.4754 792.368 58.531 787.784 Q61.6097 783.178 67.4198 783.178 Z" fill="#000000" fill-rule="nonzero" fill-opacity="1" /><path clip-path="url(#clip410)" d="M87.5818 812.483 L92.466 812.483 L92.466 818.363 L87.5818 818.363 L87.5818 812.483 Z" fill="#000000" fill-rule="nonzero" fill-opacity="1" /><path clip-path="url(#clip410)" d="M106.679 814.428 L122.998 814.428 L122.998 818.363 L101.054 818.363 L101.054 814.428 Q103.716 811.673 108.299 807.044 Q112.906 802.391 114.086 801.048 Q116.332 798.525 117.211 796.789 Q118.114 795.03 118.114 793.34 Q118.114 790.585 116.17 788.849 Q114.248 787.113 111.146 787.113 Q108.947 787.113 106.494 787.877 Q104.063 788.641 101.285 790.192 L101.285 785.47 Q104.109 784.335 106.563 783.757 Q109.017 783.178 111.054 783.178 Q116.424 783.178 119.619 785.863 Q122.813 788.548 122.813 793.039 Q122.813 795.169 122.003 797.09 Q121.216 798.988 119.109 801.581 Q118.531 802.252 115.429 805.469 Q112.327 808.664 106.679 814.428 Z" fill="#000000" fill-rule="nonzero" fill-opacity="1" /><path clip-path="url(#clip410)" d="M66.4708 560.163 Q62.8597 560.163 61.031 563.728 Q59.2254 567.27 59.2254 574.399 Q59.2254 581.506 61.031 585.07 Q62.8597 588.612 66.4708 588.612 Q70.105 588.612 71.9105 585.07 Q73.7392 581.506 73.7392 574.399 Q73.7392 567.27 71.9105 563.728 Q70.105 560.163 66.4708 560.163 M66.4708 556.459 Q72.2809 556.459 75.3365 561.066 Q78.4151 565.649 78.4151 574.399 Q78.4151 583.126 75.3365 587.732 Q72.2809 592.316 66.4708 592.316 Q60.6606 592.316 57.5819 587.732 Q54.5264 583.126 54.5264 574.399 Q54.5264 565.649 57.5819 561.066 Q60.6606 556.459 66.4708 556.459 Z" fill="#000000" fill-rule="nonzero" fill-opacity="1" /><path clip-path="url(#clip410)" d="M86.6327 585.765 L91.5169 585.765 L91.5169 591.644 L86.6327 591.644 L86.6327 585.765 Z" fill="#000000" fill-rule="nonzero" fill-opacity="1" /><path clip-path="url(#clip410)" d="M115.869 573.01 Q119.225 573.728 121.1 575.996 Q122.998 578.265 122.998 581.598 Q122.998 586.714 119.48 589.515 Q115.961 592.316 109.48 592.316 Q107.304 592.316 104.989 591.876 Q102.697 591.459 100.244 590.603 L100.244 586.089 Q102.188 587.223 104.503 587.802 Q106.818 588.381 109.341 588.381 Q113.739 588.381 116.031 586.645 Q118.345 584.908 118.345 581.598 Q118.345 578.543 116.193 576.83 Q114.063 575.094 110.244 575.094 L106.216 575.094 L106.216 571.251 L110.429 571.251 Q113.878 571.251 115.707 569.885 Q117.535 568.496 117.535 565.904 Q117.535 563.242 115.637 561.83 Q113.762 560.395 110.244 560.395 Q108.322 560.395 106.123 560.811 Q103.924 561.228 101.285 562.108 L101.285 557.941 Q103.947 557.2 106.262 556.83 Q108.6 556.459 110.66 556.459 Q115.984 556.459 119.086 558.89 Q122.188 561.297 122.188 565.418 Q122.188 568.288 120.545 570.279 Q118.901 572.246 115.869 573.01 Z" fill="#000000" fill-rule="nonzero" fill-opacity="1" /><path clip-path="url(#clip410)" d="M65.3365 333.445 Q61.7254 333.445 59.8967 337.01 Q58.0912 340.551 58.0912 347.681 Q58.0912 354.787 59.8967 358.352 Q61.7254 361.894 65.3365 361.894 Q68.9707 361.894 70.7763 358.352 Q72.605 354.787 72.605 347.681 Q72.605 340.551 70.7763 337.01 Q68.9707 333.445 65.3365 333.445 M65.3365 329.741 Q71.1467 329.741 74.2022 334.348 Q77.2809 338.931 77.2809 347.681 Q77.2809 356.408 74.2022 361.014 Q71.1467 365.597 65.3365 365.597 Q59.5264 365.597 56.4477 361.014 Q53.3921 356.408 53.3921 347.681 Q53.3921 338.931 56.4477 334.348 Q59.5264 329.741 65.3365 329.741 Z" fill="#000000" fill-rule="nonzero" fill-opacity="1" /><path clip-path="url(#clip410)" d="M85.4984 359.046 L90.3827 359.046 L90.3827 364.926 L85.4984 364.926 L85.4984 359.046 Z" fill="#000000" fill-rule="nonzero" fill-opacity="1" /><path clip-path="url(#clip410)" d="M113.415 334.44 L101.609 352.889 L113.415 352.889 L113.415 334.44 M112.188 330.366 L118.068 330.366 L118.068 352.889 L122.998 352.889 L122.998 356.778 L118.068 356.778 L118.068 364.926 L113.415 364.926 L113.415 356.778 L97.8132 356.778 L97.8132 352.264 L112.188 330.366 Z" fill="#000000" fill-rule="nonzero" fill-opacity="1" /><path clip-path="url(#clip410)" d="M66.818 106.726 Q63.2069 106.726 61.3782 110.291 Q59.5726 113.833 59.5726 120.962 Q59.5726 128.069 61.3782 131.634 Q63.2069 135.175 66.818 135.175 Q70.4522 135.175 72.2578 131.634 Q74.0865 128.069 74.0865 120.962 Q74.0865 113.833 72.2578 110.291 Q70.4522 106.726 66.818 106.726 M66.818 103.023 Q72.6281 103.023 75.6837 107.629 Q78.7624 112.212 78.7624 120.962 Q78.7624 129.689 75.6837 134.296 Q72.6281 138.879 66.818 138.879 Q61.0078 138.879 57.9291 134.296 Q54.8736 129.689 54.8736 120.962 Q54.8736 112.212 57.9291 107.629 Q61.0078 103.023 66.818 103.023 Z" fill="#000000" fill-rule="nonzero" fill-opacity="1" /><path clip-path="url(#clip410)" d="M86.9799 132.328 L91.8641 132.328 L91.8641 138.208 L86.9799 138.208 L86.9799 132.328 Z" fill="#000000" fill-rule="nonzero" fill-opacity="1" /><path clip-path="url(#clip410)" d="M102.096 103.648 L120.452 103.648 L120.452 107.583 L106.378 107.583 L106.378 116.055 Q107.396 115.708 108.415 115.546 Q109.433 115.36 110.452 115.36 Q116.239 115.36 119.619 118.532 Q122.998 121.703 122.998 127.12 Q122.998 132.698 119.526 135.8 Q116.054 138.879 109.734 138.879 Q107.559 138.879 105.29 138.509 Q103.045 138.138 100.637 137.397 L100.637 132.698 Q102.721 133.833 104.943 134.388 Q107.165 134.944 109.642 134.944 Q113.646 134.944 115.984 132.837 Q118.322 130.731 118.322 127.12 Q118.322 123.509 115.984 121.402 Q113.646 119.296 109.642 119.296 Q107.767 119.296 105.892 119.712 Q104.04 120.129 102.096 121.009 L102.096 103.648 Z" fill="#000000" fill-rule="nonzero" fill-opacity="1" /><path clip-path="url(#clip412)" d="M-345.367 1248.85 L-345.367 1254.52 L-307.124 1254.52 L-307.124 1248.85 L-345.367 1248.85 L-345.367 1248.85  Z" fill="#009af9" fill-rule="evenodd" fill-opacity="1"/>
<polyline clip-path="url(#clip412)" style="stroke:#000000; stroke-linecap:round; stroke-linejoin:round; stroke-width:4; stroke-opacity:1; fill:none" points="-345.367,1248.85 -345.367,1254.52 -307.124,1254.52 -307.124,1248.85 -345.367,1248.85 "/>
<path clip-path="url(#clip412)" d="M-307.124 1254.52 L-307.124 1254.52 L-268.88 1254.52 L-268.88 1254.52 L-307.124 1254.52 L-307.124 1254.52  Z" fill="#009af9" fill-rule="evenodd" fill-opacity="1"/>
<polyline clip-path="url(#clip412)" style="stroke:#000000; stroke-linecap:round; stroke-linejoin:round; stroke-width:4; stroke-opacity:1; fill:none" points="-307.124,1254.52 -307.124,1254.52 -268.88,1254.52 -307.124,1254.52 "/>
<path clip-path="url(#clip412)" d="M-268.88 1254.52 L-268.88 1254.52 L-230.637 1254.52 L-230.637 1254.52 L-268.88 1254.52 L-268.88 1254.52  Z" fill="#009af9" fill-rule="evenodd" fill-opacity="1"/>
<polyline clip-path="url(#clip412)" style="stroke:#000000; stroke-linecap:round; stroke-linejoin:round; stroke-width:4; stroke-opacity:1; fill:none" points="-268.88,1254.52 -268.88,1254.52 -230.637,1254.52 -268.88,1254.52 "/>
<path clip-path="url(#clip412)" d="M-230.637 1254.52 L-230.637 1254.52 L-192.393 1254.52 L-192.393 1254.52 L-230.637 1254.52 L-230.637 1254.52  Z" fill="#009af9" fill-rule="evenodd" fill-opacity="1"/>
<polyline clip-path="url(#clip412)" style="stroke:#000000; stroke-linecap:round; stroke-linejoin:round; stroke-width:4; stroke-opacity:1; fill:none" points="-230.637,1254.52 -230.637,1254.52 -192.393,1254.52 -230.637,1254.52 "/>
<path clip-path="url(#clip412)" d="M-192.393 1248.85 L-192.393 1254.52 L-154.15 1254.52 L-154.15 1248.85 L-192.393 1248.85 L-192.393 1248.85  Z" fill="#009af9" fill-rule="evenodd" fill-opacity="1"/>
<polyline clip-path="url(#clip412)" style="stroke:#000000; stroke-linecap:round; stroke-linejoin:round; stroke-width:4; stroke-opacity:1; fill:none" points="-192.393,1248.85 -192.393,1254.52 -154.15,1254.52 -154.15,1248.85 -192.393,1248.85 "/>
<path clip-path="url(#clip412)" d="M-154.15 1248.85 L-154.15 1254.52 L-115.906 1254.52 L-115.906 1248.85 L-154.15 1248.85 L-154.15 1248.85  Z" fill="#009af9" fill-rule="evenodd" fill-opacity="1"/>
<polyline clip-path="url(#clip412)" style="stroke:#000000; stroke-linecap:round; stroke-linejoin:round; stroke-width:4; stroke-opacity:1; fill:none" points="-154.15,1248.85 -154.15,1254.52 -115.906,1254.52 -115.906,1248.85 -154.15,1248.85 "/>
<path clip-path="url(#clip412)" d="M-115.906 1248.85 L-115.906 1254.52 L-77.6628 1254.52 L-77.6628 1248.85 L-115.906 1248.85 L-115.906 1248.85  Z" fill="#009af9" fill-rule="evenodd" fill-opacity="1"/>
<polyline clip-path="url(#clip412)" style="stroke:#000000; stroke-linecap:round; stroke-linejoin:round; stroke-width:4; stroke-opacity:1; fill:none" points="-115.906,1248.85 -115.906,1254.52 -77.6628,1254.52 -77.6628,1248.85 -115.906,1248.85 "/>
<path clip-path="url(#clip412)" d="M-77.6628 1254.52 L-77.6628 1254.52 L-39.4193 1254.52 L-39.4193 1254.52 L-77.6628 1254.52 L-77.6628 1254.52  Z" fill="#009af9" fill-rule="evenodd" fill-opacity="1"/>
<polyline clip-path="url(#clip412)" style="stroke:#000000; stroke-linecap:round; stroke-linejoin:round; stroke-width:4; stroke-opacity:1; fill:none" points="-77.6628,1254.52 -77.6628,1254.52 -39.4193,1254.52 -77.6628,1254.52 "/>
<path clip-path="url(#clip412)" d="M-39.4193 1248.85 L-39.4193 1254.52 L-1.17578 1254.52 L-1.17578 1248.85 L-39.4193 1248.85 L-39.4193 1248.85  Z" fill="#009af9" fill-rule="evenodd" fill-opacity="1"/>
<polyline clip-path="url(#clip412)" style="stroke:#000000; stroke-linecap:round; stroke-linejoin:round; stroke-width:4; stroke-opacity:1; fill:none" points="-39.4193,1248.85 -39.4193,1254.52 -1.17578,1254.52 -1.17578,1248.85 -39.4193,1248.85 "/>
<path clip-path="url(#clip412)" d="M-1.17578 1254.52 L-1.17578 1254.52 L37.0677 1254.52 L37.0677 1254.52 L-1.17578 1254.52 L-1.17578 1254.52  Z" fill="#009af9" fill-rule="evenodd" fill-opacity="1"/>
<polyline clip-path="url(#clip412)" style="stroke:#000000; stroke-linecap:round; stroke-linejoin:round; stroke-width:4; stroke-opacity:1; fill:none" points="-1.17578,1254.52 -1.17578,1254.52 37.0677,1254.52 -1.17578,1254.52 "/>
<path clip-path="url(#clip412)" d="M37.0677 1248.85 L37.0677 1254.52 L75.3112 1254.52 L75.3112 1248.85 L37.0677 1248.85 L37.0677 1248.85  Z" fill="#009af9" fill-rule="evenodd" fill-opacity="1"/>
<polyline clip-path="url(#clip412)" style="stroke:#000000; stroke-linecap:round; stroke-linejoin:round; stroke-width:4; stroke-opacity:1; fill:none" points="37.0677,1248.85 37.0677,1254.52 75.3112,1254.52 75.3112,1248.85 37.0677,1248.85 "/>
<path clip-path="url(#clip412)" d="M75.3112 1254.52 L75.3112 1254.52 L113.555 1254.52 L113.555 1254.52 L75.3112 1254.52 L75.3112 1254.52  Z" fill="#009af9" fill-rule="evenodd" fill-opacity="1"/>
<polyline clip-path="url(#clip412)" style="stroke:#000000; stroke-linecap:round; stroke-linejoin:round; stroke-width:4; stroke-opacity:1; fill:none" points="75.3112,1254.52 75.3112,1254.52 113.555,1254.52 75.3112,1254.52 "/>
<path clip-path="url(#clip412)" d="M113.555 1248.85 L113.555 1254.52 L151.798 1254.52 L151.798 1248.85 L113.555 1248.85 L113.555 1248.85  Z" fill="#009af9" fill-rule="evenodd" fill-opacity="1"/>
<polyline clip-path="url(#clip412)" style="stroke:#000000; stroke-linecap:round; stroke-linejoin:round; stroke-width:4; stroke-opacity:1; fill:none" points="113.555,1248.85 113.555,1254.52 151.798,1254.52 151.798,1248.85 113.555,1248.85 "/>
<path clip-path="url(#clip412)" d="M151.798 1248.85 L151.798 1254.52 L190.042 1254.52 L190.042 1248.85 L151.798 1248.85 L151.798 1248.85  Z" fill="#009af9" fill-rule="evenodd" fill-opacity="1"/>
<polyline clip-path="url(#clip412)" style="stroke:#000000; stroke-linecap:round; stroke-linejoin:round; stroke-width:4; stroke-opacity:1; fill:none" points="151.798,1248.85 151.798,1254.52 190.042,1254.52 190.042,1248.85 151.798,1248.85 "/>
<path clip-path="url(#clip412)" d="M190.042 1248.85 L190.042 1254.52 L228.285 1254.52 L228.285 1248.85 L190.042 1248.85 L190.042 1248.85  Z" fill="#009af9" fill-rule="evenodd" fill-opacity="1"/>
<polyline clip-path="url(#clip412)" style="stroke:#000000; stroke-linecap:round; stroke-linejoin:round; stroke-width:4; stroke-opacity:1; fill:none" points="190.042,1248.85 190.042,1254.52 228.285,1254.52 228.285,1248.85 190.042,1248.85 "/>
<path clip-path="url(#clip412)" d="M228.285 1220.51 L228.285 1254.52 L266.529 1254.52 L266.529 1220.51 L228.285 1220.51 L228.285 1220.51  Z" fill="#009af9" fill-rule="evenodd" fill-opacity="1"/>
<polyline clip-path="url(#clip412)" style="stroke:#000000; stroke-linecap:round; stroke-linejoin:round; stroke-width:4; stroke-opacity:1; fill:none" points="228.285,1220.51 228.285,1254.52 266.529,1254.52 266.529,1220.51 228.285,1220.51 "/>
<path clip-path="url(#clip412)" d="M266.529 1248.85 L266.529 1254.52 L304.772 1254.52 L304.772 1248.85 L266.529 1248.85 L266.529 1248.85  Z" fill="#009af9" fill-rule="evenodd" fill-opacity="1"/>
<polyline clip-path="url(#clip412)" style="stroke:#000000; stroke-linecap:round; stroke-linejoin:round; stroke-width:4; stroke-opacity:1; fill:none" points="266.529,1248.85 266.529,1254.52 304.772,1254.52 304.772,1248.85 266.529,1248.85 "/>
<path clip-path="url(#clip412)" d="M304.772 1237.52 L304.772 1254.52 L343.016 1254.52 L343.016 1237.52 L304.772 1237.52 L304.772 1237.52  Z" fill="#009af9" fill-rule="evenodd" fill-opacity="1"/>
<polyline clip-path="url(#clip412)" style="stroke:#000000; stroke-linecap:round; stroke-linejoin:round; stroke-width:4; stroke-opacity:1; fill:none" points="304.772,1237.52 304.772,1254.52 343.016,1254.52 343.016,1237.52 304.772,1237.52 "/>
<path clip-path="url(#clip412)" d="M343.016 1243.18 L343.016 1254.52 L381.259 1254.52 L381.259 1243.18 L343.016 1243.18 L343.016 1243.18  Z" fill="#009af9" fill-rule="evenodd" fill-opacity="1"/>
<polyline clip-path="url(#clip412)" style="stroke:#000000; stroke-linecap:round; stroke-linejoin:round; stroke-width:4; stroke-opacity:1; fill:none" points="343.016,1243.18 343.016,1254.52 381.259,1254.52 381.259,1243.18 343.016,1243.18 "/>
<path clip-path="url(#clip412)" d="M381.259 1231.85 L381.259 1254.52 L419.503 1254.52 L419.503 1231.85 L381.259 1231.85 L381.259 1231.85  Z" fill="#009af9" fill-rule="evenodd" fill-opacity="1"/>
<polyline clip-path="url(#clip412)" style="stroke:#000000; stroke-linecap:round; stroke-linejoin:round; stroke-width:4; stroke-opacity:1; fill:none" points="381.259,1231.85 381.259,1254.52 419.503,1254.52 419.503,1231.85 381.259,1231.85 "/>
<path clip-path="url(#clip412)" d="M419.503 1231.85 L419.503 1254.52 L457.746 1254.52 L457.746 1231.85 L419.503 1231.85 L419.503 1231.85  Z" fill="#009af9" fill-rule="evenodd" fill-opacity="1"/>
<polyline clip-path="url(#clip412)" style="stroke:#000000; stroke-linecap:round; stroke-linejoin:round; stroke-width:4; stroke-opacity:1; fill:none" points="419.503,1231.85 419.503,1254.52 457.746,1254.52 457.746,1231.85 419.503,1231.85 "/>
<path clip-path="url(#clip412)" d="M457.746 1237.52 L457.746 1254.52 L495.99 1254.52 L495.99 1237.52 L457.746 1237.52 L457.746 1237.52  Z" fill="#009af9" fill-rule="evenodd" fill-opacity="1"/>
<polyline clip-path="url(#clip412)" style="stroke:#000000; stroke-linecap:round; stroke-linejoin:round; stroke-width:4; stroke-opacity:1; fill:none" points="457.746,1237.52 457.746,1254.52 495.99,1254.52 495.99,1237.52 457.746,1237.52 "/>
<path clip-path="url(#clip412)" d="M495.99 1220.51 L495.99 1254.52 L534.233 1254.52 L534.233 1220.51 L495.99 1220.51 L495.99 1220.51  Z" fill="#009af9" fill-rule="evenodd" fill-opacity="1"/>
<polyline clip-path="url(#clip412)" style="stroke:#000000; stroke-linecap:round; stroke-linejoin:round; stroke-width:4; stroke-opacity:1; fill:none" points="495.99,1220.51 495.99,1254.52 534.233,1254.52 534.233,1220.51 495.99,1220.51 "/>
<path clip-path="url(#clip412)" d="M534.233 1209.18 L534.233 1254.52 L572.477 1254.52 L572.477 1209.18 L534.233 1209.18 L534.233 1209.18  Z" fill="#009af9" fill-rule="evenodd" fill-opacity="1"/>
<polyline clip-path="url(#clip412)" style="stroke:#000000; stroke-linecap:round; stroke-linejoin:round; stroke-width:4; stroke-opacity:1; fill:none" points="534.233,1209.18 534.233,1254.52 572.477,1254.52 572.477,1209.18 534.233,1209.18 "/>
<path clip-path="url(#clip412)" d="M572.477 1209.18 L572.477 1254.52 L610.72 1254.52 L610.72 1209.18 L572.477 1209.18 L572.477 1209.18  Z" fill="#009af9" fill-rule="evenodd" fill-opacity="1"/>
<polyline clip-path="url(#clip412)" style="stroke:#000000; stroke-linecap:round; stroke-linejoin:round; stroke-width:4; stroke-opacity:1; fill:none" points="572.477,1209.18 572.477,1254.52 610.72,1254.52 610.72,1209.18 572.477,1209.18 "/>
<path clip-path="url(#clip412)" d="M610.72 1186.5 L610.72 1254.52 L648.964 1254.52 L648.964 1186.5 L610.72 1186.5 L610.72 1186.5  Z" fill="#009af9" fill-rule="evenodd" fill-opacity="1"/>
<polyline clip-path="url(#clip412)" style="stroke:#000000; stroke-linecap:round; stroke-linejoin:round; stroke-width:4; stroke-opacity:1; fill:none" points="610.72,1186.5 610.72,1254.52 648.964,1254.52 648.964,1186.5 610.72,1186.5 "/>
<path clip-path="url(#clip412)" d="M648.964 1214.84 L648.964 1254.52 L687.207 1254.52 L687.207 1214.84 L648.964 1214.84 L648.964 1214.84  Z" fill="#009af9" fill-rule="evenodd" fill-opacity="1"/>
<polyline clip-path="url(#clip412)" style="stroke:#000000; stroke-linecap:round; stroke-linejoin:round; stroke-width:4; stroke-opacity:1; fill:none" points="648.964,1214.84 648.964,1254.52 687.207,1254.52 687.207,1214.84 648.964,1214.84 "/>
<path clip-path="url(#clip412)" d="M687.207 1158.16 L687.207 1254.52 L725.451 1254.52 L725.451 1158.16 L687.207 1158.16 L687.207 1158.16  Z" fill="#009af9" fill-rule="evenodd" fill-opacity="1"/>
<polyline clip-path="url(#clip412)" style="stroke:#000000; stroke-linecap:round; stroke-linejoin:round; stroke-width:4; stroke-opacity:1; fill:none" points="687.207,1158.16 687.207,1254.52 725.451,1254.52 725.451,1158.16 687.207,1158.16 "/>
<path clip-path="url(#clip412)" d="M725.451 1197.84 L725.451 1254.52 L763.694 1254.52 L763.694 1197.84 L725.451 1197.84 L725.451 1197.84  Z" fill="#009af9" fill-rule="evenodd" fill-opacity="1"/>
<polyline clip-path="url(#clip412)" style="stroke:#000000; stroke-linecap:round; stroke-linejoin:round; stroke-width:4; stroke-opacity:1; fill:none" points="725.451,1197.84 725.451,1254.52 763.694,1254.52 763.694,1197.84 725.451,1197.84 "/>
<path clip-path="url(#clip412)" d="M763.694 1175.17 L763.694 1254.52 L801.938 1254.52 L801.938 1175.17 L763.694 1175.17 L763.694 1175.17  Z" fill="#009af9" fill-rule="evenodd" fill-opacity="1"/>
<polyline clip-path="url(#clip412)" style="stroke:#000000; stroke-linecap:round; stroke-linejoin:round; stroke-width:4; stroke-opacity:1; fill:none" points="763.694,1175.17 763.694,1254.52 801.938,1254.52 801.938,1175.17 763.694,1175.17 "/>
<path clip-path="url(#clip412)" d="M801.938 1180.84 L801.938 1254.52 L840.181 1254.52 L840.181 1180.84 L801.938 1180.84 L801.938 1180.84  Z" fill="#009af9" fill-rule="evenodd" fill-opacity="1"/>
<polyline clip-path="url(#clip412)" style="stroke:#000000; stroke-linecap:round; stroke-linejoin:round; stroke-width:4; stroke-opacity:1; fill:none" points="801.938,1180.84 801.938,1254.52 840.181,1254.52 840.181,1180.84 801.938,1180.84 "/>
<path clip-path="url(#clip412)" d="M840.181 1056.14 L840.181 1254.52 L878.425 1254.52 L878.425 1056.14 L840.181 1056.14 L840.181 1056.14  Z" fill="#009af9" fill-rule="evenodd" fill-opacity="1"/>
<polyline clip-path="url(#clip412)" style="stroke:#000000; stroke-linecap:round; stroke-linejoin:round; stroke-width:4; stroke-opacity:1; fill:none" points="840.181,1056.14 840.181,1254.52 878.425,1254.52 878.425,1056.14 840.181,1056.14 "/>
<path clip-path="url(#clip412)" d="M878.425 1124.16 L878.425 1254.52 L916.668 1254.52 L916.668 1124.16 L878.425 1124.16 L878.425 1124.16  Z" fill="#009af9" fill-rule="evenodd" fill-opacity="1"/>
<polyline clip-path="url(#clip412)" style="stroke:#000000; stroke-linecap:round; stroke-linejoin:round; stroke-width:4; stroke-opacity:1; fill:none" points="878.425,1124.16 878.425,1254.52 916.668,1254.52 916.668,1124.16 878.425,1124.16 "/>
<path clip-path="url(#clip412)" d="M916.668 1044.81 L916.668 1254.52 L954.912 1254.52 L954.912 1044.81 L916.668 1044.81 L916.668 1044.81  Z" fill="#009af9" fill-rule="evenodd" fill-opacity="1"/>
<polyline clip-path="url(#clip412)" style="stroke:#000000; stroke-linecap:round; stroke-linejoin:round; stroke-width:4; stroke-opacity:1; fill:none" points="916.668,1044.81 916.668,1254.52 954.912,1254.52 954.912,1044.81 916.668,1044.81 "/>
<path clip-path="url(#clip412)" d="M954.912 971.122 L954.912 1254.52 L993.155 1254.52 L993.155 971.122 L954.912 971.122 L954.912 971.122  Z" fill="#009af9" fill-rule="evenodd" fill-opacity="1"/>
<polyline clip-path="url(#clip412)" style="stroke:#000000; stroke-linecap:round; stroke-linejoin:round; stroke-width:4; stroke-opacity:1; fill:none" points="954.912,971.122 954.912,1254.52 993.155,1254.52 993.155,971.122 954.912,971.122 "/>
<path clip-path="url(#clip412)" d="M993.155 954.118 L993.155 1254.52 L1031.4 1254.52 L1031.4 954.118 L993.155 954.118 L993.155 954.118  Z" fill="#009af9" fill-rule="evenodd" fill-opacity="1"/>
<polyline clip-path="url(#clip412)" style="stroke:#000000; stroke-linecap:round; stroke-linejoin:round; stroke-width:4; stroke-opacity:1; fill:none" points="993.155,954.118 993.155,1254.52 1031.4,1254.52 1031.4,954.118 993.155,954.118 "/>
<path clip-path="url(#clip412)" d="M1031.4 914.442 L1031.4 1254.52 L1069.64 1254.52 L1069.64 914.442 L1031.4 914.442 L1031.4 914.442  Z" fill="#009af9" fill-rule="evenodd" fill-opacity="1"/>
<polyline clip-path="url(#clip412)" style="stroke:#000000; stroke-linecap:round; stroke-linejoin:round; stroke-width:4; stroke-opacity:1; fill:none" points="1031.4,914.442 1031.4,1254.52 1069.64,1254.52 1069.64,914.442 1031.4,914.442 "/>
<path clip-path="url(#clip412)" d="M1069.64 874.766 L1069.64 1254.52 L1107.89 1254.52 L1107.89 874.766 L1069.64 874.766 L1069.64 874.766  Z" fill="#009af9" fill-rule="evenodd" fill-opacity="1"/>
<polyline clip-path="url(#clip412)" style="stroke:#000000; stroke-linecap:round; stroke-linejoin:round; stroke-width:4; stroke-opacity:1; fill:none" points="1069.64,874.766 1069.64,1254.52 1107.89,1254.52 1107.89,874.766 1069.64,874.766 "/>
<path clip-path="url(#clip412)" d="M1107.89 546.025 L1107.89 1254.52 L1146.13 1254.52 L1146.13 546.025 L1107.89 546.025 L1107.89 546.025  Z" fill="#009af9" fill-rule="evenodd" fill-opacity="1"/>
<polyline clip-path="url(#clip412)" style="stroke:#000000; stroke-linecap:round; stroke-linejoin:round; stroke-width:4; stroke-opacity:1; fill:none" points="1107.89,546.025 1107.89,1254.52 1146.13,1254.52 1146.13,546.025 1107.89,546.025 "/>
<path clip-path="url(#clip412)" d="M1146.13 546.025 L1146.13 1254.52 L1184.37 1254.52 L1184.37 546.025 L1146.13 546.025 L1146.13 546.025  Z" fill="#009af9" fill-rule="evenodd" fill-opacity="1"/>
<polyline clip-path="url(#clip412)" style="stroke:#000000; stroke-linecap:round; stroke-linejoin:round; stroke-width:4; stroke-opacity:1; fill:none" points="1146.13,546.025 1146.13,1254.52 1184.37,1254.52 1184.37,546.025 1146.13,546.025 "/>
<path clip-path="url(#clip412)" d="M1184.37 268.295 L1184.37 1254.52 L1222.62 1254.52 L1222.62 268.295 L1184.37 268.295 L1184.37 268.295  Z" fill="#009af9" fill-rule="evenodd" fill-opacity="1"/>
<polyline clip-path="url(#clip412)" style="stroke:#000000; stroke-linecap:round; stroke-linejoin:round; stroke-width:4; stroke-opacity:1; fill:none" points="1184.37,268.295 1184.37,1254.52 1222.62,1254.52 1222.62,268.295 1184.37,268.295 "/>
<path clip-path="url(#clip412)" d="M1222.62 296.634 L1222.62 1254.52 L1260.86 1254.52 L1260.86 296.634 L1222.62 296.634 L1222.62 296.634  Z" fill="#009af9" fill-rule="evenodd" fill-opacity="1"/>
<polyline clip-path="url(#clip412)" style="stroke:#000000; stroke-linecap:round; stroke-linejoin:round; stroke-width:4; stroke-opacity:1; fill:none" points="1222.62,296.634 1222.62,1254.52 1260.86,1254.52 1260.86,296.634 1222.62,296.634 "/>
<path clip-path="url(#clip412)" d="M1260.86 64.248 L1260.86 1254.52 L1299.1 1254.52 L1299.1 64.248 L1260.86 64.248 L1260.86 64.248  Z" fill="#009af9" fill-rule="evenodd" fill-opacity="1"/>
<polyline clip-path="url(#clip412)" style="stroke:#000000; stroke-linecap:round; stroke-linejoin:round; stroke-width:4; stroke-opacity:1; fill:none" points="1260.86,64.248 1260.86,1254.52 1299.1,1254.52 1299.1,64.248 1260.86,64.248 "/>
<path clip-path="url(#clip412)" d="M1299.1 47.2441 L1299.1 1254.52 L1337.35 1254.52 L1337.35 47.2441 L1299.1 47.2441 L1299.1 47.2441  Z" fill="#009af9" fill-rule="evenodd" fill-opacity="1"/>
<polyline clip-path="url(#clip412)" style="stroke:#000000; stroke-linecap:round; stroke-linejoin:round; stroke-width:4; stroke-opacity:1; fill:none" points="1299.1,47.2441 1299.1,1254.52 1337.35,1254.52 1337.35,47.2441 1299.1,47.2441 "/>
<path clip-path="url(#clip412)" d="M1337.35 341.978 L1337.35 1254.52 L1375.59 1254.52 L1375.59 341.978 L1337.35 341.978 L1337.35 341.978  Z" fill="#009af9" fill-rule="evenodd" fill-opacity="1"/>
<polyline clip-path="url(#clip412)" style="stroke:#000000; stroke-linecap:round; stroke-linejoin:round; stroke-width:4; stroke-opacity:1; fill:none" points="1337.35,341.978 1337.35,1254.52 1375.59,1254.52 1375.59,341.978 1337.35,341.978 "/>
<path clip-path="url(#clip412)" d="M1375.59 370.318 L1375.59 1254.52 L1413.83 1254.52 L1413.83 370.318 L1375.59 370.318 L1375.59 370.318  Z" fill="#009af9" fill-rule="evenodd" fill-opacity="1"/>
<polyline clip-path="url(#clip412)" style="stroke:#000000; stroke-linecap:round; stroke-linejoin:round; stroke-width:4; stroke-opacity:1; fill:none" points="1375.59,370.318 1375.59,1254.52 1413.83,1254.52 1413.83,370.318 1375.59,370.318 "/>
<path clip-path="url(#clip412)" d="M1413.83 676.388 L1413.83 1254.52 L1452.08 1254.52 L1452.08 676.388 L1413.83 676.388 L1413.83 676.388  Z" fill="#009af9" fill-rule="evenodd" fill-opacity="1"/>
<polyline clip-path="url(#clip412)" style="stroke:#000000; stroke-linecap:round; stroke-linejoin:round; stroke-width:4; stroke-opacity:1; fill:none" points="1413.83,676.388 1413.83,1254.52 1452.08,1254.52 1452.08,676.388 1413.83,676.388 "/>
<path clip-path="url(#clip412)" d="M1452.08 1005.13 L1452.08 1254.52 L1490.32 1254.52 L1490.32 1005.13 L1452.08 1005.13 L1452.08 1005.13  Z" fill="#009af9" fill-rule="evenodd" fill-opacity="1"/>
<polyline clip-path="url(#clip412)" style="stroke:#000000; stroke-linecap:round; stroke-linejoin:round; stroke-width:4; stroke-opacity:1; fill:none" points="1452.08,1005.13 1452.08,1254.52 1490.32,1254.52 1490.32,1005.13 1452.08,1005.13 "/>
<path clip-path="url(#clip412)" d="M1490.32 1118.49 L1490.32 1254.52 L1528.56 1254.52 L1528.56 1118.49 L1490.32 1118.49 L1490.32 1118.49  Z" fill="#009af9" fill-rule="evenodd" fill-opacity="1"/>
<polyline clip-path="url(#clip412)" style="stroke:#000000; stroke-linecap:round; stroke-linejoin:round; stroke-width:4; stroke-opacity:1; fill:none" points="1490.32,1118.49 1490.32,1254.52 1528.56,1254.52 1528.56,1118.49 1490.32,1118.49 "/>
<path clip-path="url(#clip412)" d="M1528.56 1158.16 L1528.56 1254.52 L1566.81 1254.52 L1566.81 1158.16 L1528.56 1158.16 L1528.56 1158.16  Z" fill="#009af9" fill-rule="evenodd" fill-opacity="1"/>
<polyline clip-path="url(#clip412)" style="stroke:#000000; stroke-linecap:round; stroke-linejoin:round; stroke-width:4; stroke-opacity:1; fill:none" points="1528.56,1158.16 1528.56,1254.52 1566.81,1254.52 1566.81,1158.16 1528.56,1158.16 "/>
<path clip-path="url(#clip412)" d="M1566.81 1180.84 L1566.81 1254.52 L1605.05 1254.52 L1605.05 1180.84 L1566.81 1180.84 L1566.81 1180.84  Z" fill="#009af9" fill-rule="evenodd" fill-opacity="1"/>
<polyline clip-path="url(#clip412)" style="stroke:#000000; stroke-linecap:round; stroke-linejoin:round; stroke-width:4; stroke-opacity:1; fill:none" points="1566.81,1180.84 1566.81,1254.52 1605.05,1254.52 1605.05,1180.84 1566.81,1180.84 "/>
<path clip-path="url(#clip412)" d="M1605.05 1186.5 L1605.05 1254.52 L1643.29 1254.52 L1643.29 1186.5 L1605.05 1186.5 L1605.05 1186.5  Z" fill="#009af9" fill-rule="evenodd" fill-opacity="1"/>
<polyline clip-path="url(#clip412)" style="stroke:#000000; stroke-linecap:round; stroke-linejoin:round; stroke-width:4; stroke-opacity:1; fill:none" points="1605.05,1186.5 1605.05,1254.52 1643.29,1254.52 1643.29,1186.5 1605.05,1186.5 "/>
<path clip-path="url(#clip412)" d="M1643.29 1237.52 L1643.29 1254.52 L1681.54 1254.52 L1681.54 1237.52 L1643.29 1237.52 L1643.29 1237.52  Z" fill="#009af9" fill-rule="evenodd" fill-opacity="1"/>
<polyline clip-path="url(#clip412)" style="stroke:#000000; stroke-linecap:round; stroke-linejoin:round; stroke-width:4; stroke-opacity:1; fill:none" points="1643.29,1237.52 1643.29,1254.52 1681.54,1254.52 1681.54,1237.52 1643.29,1237.52 "/>
<circle clip-path="url(#clip412)" style="fill:#009af9; stroke:none; fill-opacity:0" cx="170.92" cy="1248.85" r="2"/>
<circle clip-path="url(#clip412)" style="fill:#009af9; stroke:none; fill-opacity:0" cx="209.163" cy="1248.85" r="2"/>
<circle clip-path="url(#clip412)" style="fill:#009af9; stroke:none; fill-opacity:0" cx="247.407" cy="1220.51" r="2"/>
<circle clip-path="url(#clip412)" style="fill:#009af9; stroke:none; fill-opacity:0" cx="285.65" cy="1248.85" r="2"/>
<circle clip-path="url(#clip412)" style="fill:#009af9; stroke:none; fill-opacity:0" cx="323.894" cy="1237.52" r="2"/>
<circle clip-path="url(#clip412)" style="fill:#009af9; stroke:none; fill-opacity:0" cx="362.138" cy="1243.18" r="2"/>
<circle clip-path="url(#clip412)" style="fill:#009af9; stroke:none; fill-opacity:0" cx="400.381" cy="1231.85" r="2"/>
<circle clip-path="url(#clip412)" style="fill:#009af9; stroke:none; fill-opacity:0" cx="438.625" cy="1231.85" r="2"/>
<circle clip-path="url(#clip412)" style="fill:#009af9; stroke:none; fill-opacity:0" cx="476.868" cy="1237.52" r="2"/>
<circle clip-path="url(#clip412)" style="fill:#009af9; stroke:none; fill-opacity:0" cx="515.112" cy="1220.51" r="2"/>
<circle clip-path="url(#clip412)" style="fill:#009af9; stroke:none; fill-opacity:0" cx="553.355" cy="1209.18" r="2"/>
<circle clip-path="url(#clip412)" style="fill:#009af9; stroke:none; fill-opacity:0" cx="591.599" cy="1209.18" r="2"/>
<circle clip-path="url(#clip412)" style="fill:#009af9; stroke:none; fill-opacity:0" cx="629.842" cy="1186.5" r="2"/>
<circle clip-path="url(#clip412)" style="fill:#009af9; stroke:none; fill-opacity:0" cx="668.086" cy="1214.84" r="2"/>
<circle clip-path="url(#clip412)" style="fill:#009af9; stroke:none; fill-opacity:0" cx="706.329" cy="1158.16" r="2"/>
<circle clip-path="url(#clip412)" style="fill:#009af9; stroke:none; fill-opacity:0" cx="744.573" cy="1197.84" r="2"/>
<circle clip-path="url(#clip412)" style="fill:#009af9; stroke:none; fill-opacity:0" cx="782.816" cy="1175.17" r="2"/>
<circle clip-path="url(#clip412)" style="fill:#009af9; stroke:none; fill-opacity:0" cx="821.06" cy="1180.84" r="2"/>
<circle clip-path="url(#clip412)" style="fill:#009af9; stroke:none; fill-opacity:0" cx="859.303" cy="1056.14" r="2"/>
<circle clip-path="url(#clip412)" style="fill:#009af9; stroke:none; fill-opacity:0" cx="897.547" cy="1124.16" r="2"/>
<circle clip-path="url(#clip412)" style="fill:#009af9; stroke:none; fill-opacity:0" cx="935.79" cy="1044.81" r="2"/>
<circle clip-path="url(#clip412)" style="fill:#009af9; stroke:none; fill-opacity:0" cx="974.034" cy="971.122" r="2"/>
<circle clip-path="url(#clip412)" style="fill:#009af9; stroke:none; fill-opacity:0" cx="1012.28" cy="954.118" r="2"/>
<circle clip-path="url(#clip412)" style="fill:#009af9; stroke:none; fill-opacity:0" cx="1050.52" cy="914.442" r="2"/>
<circle clip-path="url(#clip412)" style="fill:#009af9; stroke:none; fill-opacity:0" cx="1088.76" cy="874.766" r="2"/>
<circle clip-path="url(#clip412)" style="fill:#009af9; stroke:none; fill-opacity:0" cx="1127.01" cy="546.025" r="2"/>
<circle clip-path="url(#clip412)" style="fill:#009af9; stroke:none; fill-opacity:0" cx="1165.25" cy="546.025" r="2"/>
<circle clip-path="url(#clip412)" style="fill:#009af9; stroke:none; fill-opacity:0" cx="1203.49" cy="268.295" r="2"/>
<circle clip-path="url(#clip412)" style="fill:#009af9; stroke:none; fill-opacity:0" cx="1241.74" cy="296.634" r="2"/>
<circle clip-path="url(#clip412)" style="fill:#009af9; stroke:none; fill-opacity:0" cx="1279.98" cy="64.248" r="2"/>
<circle clip-path="url(#clip412)" style="fill:#009af9; stroke:none; fill-opacity:0" cx="1318.23" cy="47.2441" r="2"/>
<circle clip-path="url(#clip412)" style="fill:#009af9; stroke:none; fill-opacity:0" cx="1356.47" cy="341.978" r="2"/>
<circle clip-path="url(#clip412)" style="fill:#009af9; stroke:none; fill-opacity:0" cx="1394.71" cy="370.318" r="2"/>
<circle clip-path="url(#clip412)" style="fill:#009af9; stroke:none; fill-opacity:0" cx="1432.96" cy="676.388" r="2"/>
<circle clip-path="url(#clip412)" style="fill:#009af9; stroke:none; fill-opacity:0" cx="1471.2" cy="1005.13" r="2"/>
<circle clip-path="url(#clip412)" style="fill:#009af9; stroke:none; fill-opacity:0" cx="1509.44" cy="1118.49" r="2"/>
<circle clip-path="url(#clip412)" style="fill:#009af9; stroke:none; fill-opacity:0" cx="1547.69" cy="1158.16" r="2"/>
<circle clip-path="url(#clip412)" style="fill:#009af9; stroke:none; fill-opacity:0" cx="1585.93" cy="1180.84" r="2"/>
<circle clip-path="url(#clip412)" style="fill:#009af9; stroke:none; fill-opacity:0" cx="1624.17" cy="1186.5" r="2"/>
<circle clip-path="url(#clip412)" style="fill:#009af9; stroke:none; fill-opacity:0" cx="1662.42" cy="1237.52" r="2"/>
<polyline clip-path="url(#clip412)" style="stroke:#e26f46; stroke-linecap:round; stroke-linejoin:round; stroke-width:8; stroke-opacity:1; fill:none" points="-465.606,1254.52 -454.249,1254.52 -442.891,1254.51 -431.533,1254.48 -420.176,1254.42 -408.818,1254.28 -397.461,1254.04 -386.103,1253.65 -374.746,1253.14 -363.388,1252.57 -352.031,1252.1 -340.673,1251.86 -329.315,1251.94 -317.958,1252.3 -306.6,1252.83 -295.243,1253.38 -283.885,1253.82 -272.528,1254.1 -261.17,1254.2 -249.813,1254.12 -238.455,1253.86 -227.097,1253.43 -215.74,1252.86 -204.382,1252.27 -193.025,1251.78 -181.667,1251.46 -170.31,1251.32 -158.952,1251.23 -147.594,1251.08 -136.237,1250.79 -124.879,1250.38 -113.522,1249.96 -102.164,1249.65 -90.8067,1249.51 -79.4491,1249.55 -68.0915,1249.72 -56.734,1249.98 -45.3764,1250.32 -34.0189,1250.77 -22.6613,1251.32 -11.3037,1251.94 0.0538275,1252.52 11.4114,1252.92 22.7689,1253.04 34.1265,1252.86 45.4841,1252.46 56.8416,1252 68.1992,1251.62 79.5568,1251.35 90.9143,1251.14 102.272,1250.81 113.629,1250.26 124.987,1249.52 136.345,1248.75 147.702,1248.16 159.06,1247.86 170.417,1247.73 181.775,1247.49 193.132,1246.79 204.49,1245.38 215.847,1243.25 227.205,1240.72 238.563,1238.36 249.92,1236.78 261.278,1236.34 272.635,1236.96 283.993,1238.19 295.35,1239.44 306.708,1240.28 318.066,1240.53 329.423,1240.24 340.781,1239.59 352.138,1238.75 363.496,1237.87 374.853,1237.04 386.211,1236.3 397.568,1235.67 408.926,1235.16 420.284,1234.75 431.641,1234.38 442.999,1233.9 454.356,1233.11 465.714,1231.81 477.071,1229.85 488.429,1227.19 499.787,1223.98 511.144,1220.49 522.502,1217.08 533.859,1214.04 545.217,1211.53 556.574,1209.47 567.932,1207.69 579.289,1205.97 590.647,1204.3 602.005,1202.83 613.362,1201.79 624.72,1201.2 636.077,1200.76 647.435,1199.81 658.792,1197.73 670.15,1194.26 681.507,1189.81 692.865,1185.29 704.223,1181.78 715.58,1179.92 726.938,1179.68 738.295,1180.43 749.653,1181.31 761.01,1181.56 772.368,1180.63 783.726,1178.03 795.083,1173.17 806.441,1165.42 817.798,1154.57 829.156,1141.31 840.513,1127.31 851.871,1114.71 863.228,1105.1 874.586,1098.61 885.944,1093.76 897.301,1088.15 908.659,1079.63 920.016,1067.16 931.374,1051.09 942.731,1032.88 954.089,1014.35 965.447,997.005 976.804,981.614 988.162,968.223 999.519,956.448 1010.88,945.794 1022.23,935.678 1033.59,925.191 1044.95,912.803 1056.31,896.347 1067.66,873.402 1079.02,842.068 1090.38,801.88 1101.74,754.39 1113.09,702.89 1124.45,651.111 1135.81,601.538 1147.17,554.469 1158.53,508.599 1169.88,462.717 1181.24,417.153 1192.6,373.775 1203.96,334.574 1215.31,299.996 1226.67,268.371 1238.03,236.889 1249.39,203.501 1260.74,168.621 1272.1,135.728 1283.46,110.583 1294.82,99.2779 1306.17,105.818 1317.53,130.24 1328.89,168.308 1340.25,213.239 1351.6,258.833 1362.96,302.316 1374.32,345.257 1385.68,392.066 1397.03,447.212 1408.39,512.912 1419.75,588.394 1431.11,670.534 1442.46,754.984 1453.82,837.088 1465.18,912.478 1476.54,977.6 1487.89,1030.33 1499.25,1070.41 1510.61,1099.46 1521.97,1120.22 1533.32,1135.61 1544.68,1147.94 1556.04,1158.62 1567.4,1168.31 1578.75,1177.24 1590.11,1185.41 1601.47,1192.81 1612.83,1199.56 1624.19,1205.97 1635.54,1212.43 1646.9,1219.16 1658.26,1226.11 1669.62,1232.92 1680.97,1239.13 1692.33,1244.31 1703.69,1248.27 1715.05,1251.02 1726.4,1252.73 1737.76,1253.7 1749.12,1254.18 1760.48,1254.39 1771.83,1254.48 1783.19,1254.51 1794.55,1254.52 "/>
</svg>
