<?xml version="1.0" encoding="utf-8"?>
<svg xmlns="http://www.w3.org/2000/svg" xmlns:xlink="http://www.w3.org/1999/xlink" width="480" height="360" viewBox="0 0 1920 1440">
<defs>
  <clipPath id="clip540">
    <rect x="0" y="0" width="1920" height="1440"/>
  </clipPath>
</defs>
<path clip-path="url(#clip540)" d="M0 1440 L1920 1440 L1920 0 L0 0  Z" fill="#ffffff" fill-rule="evenodd" fill-opacity="1"/>
<defs>
  <clipPath id="clip541">
    <rect x="384" y="0" width="1345" height="1345"/>
  </clipPath>
</defs>
<path clip-path="url(#clip540)" d="M220.52 1254.52 L1872.76 1254.52 L1872.76 47.2441 L220.52 47.2441  Z" fill="#ffffff" fill-rule="evenodd" fill-opacity="1"/>
<defs>
  <clipPath id="clip542">
    <rect x="220" y="47" width="1653" height="1208"/>
  </clipPath>
</defs>
<polyline clip-path="url(#clip542)" style="stroke:#000000; stroke-linecap:round; stroke-linejoin:round; stroke-width:2; stroke-opacity:0.1; fill:none" points="220.52,1254.52 220.52,47.2441 "/>
<polyline clip-path="url(#clip542)" style="stroke:#000000; stroke-linecap:round; stroke-linejoin:round; stroke-width:2; stroke-opacity:0.1; fill:none" points="721.198,1254.52 721.198,47.2441 "/>
<polyline clip-path="url(#clip542)" style="stroke:#000000; stroke-linecap:round; stroke-linejoin:round; stroke-width:2; stroke-opacity:0.1; fill:none" points="1221.88,1254.52 1221.88,47.2441 "/>
<polyline clip-path="url(#clip542)" style="stroke:#000000; stroke-linecap:round; stroke-linejoin:round; stroke-width:2; stroke-opacity:0.1; fill:none" points="1722.55,1254.52 1722.55,47.2441 "/>
<polyline clip-path="url(#clip542)" style="stroke:#000000; stroke-linecap:round; stroke-linejoin:round; stroke-width:2; stroke-opacity:0.1; fill:none" points="220.52,1254.52 1872.76,1254.52 "/>
<polyline clip-path="url(#clip542)" style="stroke:#000000; stroke-linecap:round; stroke-linejoin:round; stroke-width:2; stroke-opacity:0.1; fill:none" points="220.52,877.246 1872.76,877.246 "/>
<polyline clip-path="url(#clip542)" style="stroke:#000000; stroke-linecap:round; stroke-linejoin:round; stroke-width:2; stroke-opacity:0.1; fill:none" points="220.52,499.972 1872.76,499.972 "/>
<polyline clip-path="url(#clip542)" style="stroke:#000000; stroke-linecap:round; stroke-linejoin:round; stroke-width:2; stroke-opacity:0.1; fill:none" points="220.52,122.699 1872.76,122.699 "/>
<polyline clip-path="url(#clip540)" style="stroke:#000000; stroke-linecap:round; stroke-linejoin:round; stroke-width:4; stroke-opacity:1; fill:none" points="220.52,1254.52 1872.76,1254.52 "/>
<polyline clip-path="url(#clip540)" style="stroke:#000000; stroke-linecap:round; stroke-linejoin:round; stroke-width:4; stroke-opacity:1; fill:none" points="220.52,1254.52 220.52,1235.62 "/>
<polyline clip-path="url(#clip540)" style="stroke:#000000; stroke-linecap:round; stroke-linejoin:round; stroke-width:4; stroke-opacity:1; fill:none" points="721.198,1254.52 721.198,1235.62 "/>
<polyline clip-path="url(#clip540)" style="stroke:#000000; stroke-linecap:round; stroke-linejoin:round; stroke-width:4; stroke-opacity:1; fill:none" points="1221.88,1254.52 1221.88,1235.62 "/>
<polyline clip-path="url(#clip540)" style="stroke:#000000; stroke-linecap:round; stroke-linejoin:round; stroke-width:4; stroke-opacity:1; fill:none" points="1722.55,1254.52 1722.55,1235.62 "/>
<path clip-path="url(#clip540)" d="M197.905 1281.6 Q194.293 1281.6 192.465 1285.16 Q190.659 1288.7 190.659 1295.83 Q190.659 1302.94 192.465 1306.51 Q194.293 1310.05 197.905 1310.05 Q201.539 1310.05 203.344 1306.51 Q205.173 1302.94 205.173 1295.83 Q205.173 1288.7 203.344 1285.16 Q201.539 1281.6 197.905 1281.6 M197.905 1277.89 Q203.715 1277.89 206.77 1282.5 Q209.849 1287.08 209.849 1295.83 Q209.849 1304.56 206.77 1309.17 Q203.715 1313.75 197.905 1313.75 Q192.094 1313.75 189.016 1309.17 Q185.96 1304.56 185.96 1295.83 Q185.96 1287.08 189.016 1282.5 Q192.094 1277.89 197.905 1277.89 Z" fill="#000000" fill-rule="nonzero" fill-opacity="1" /><path clip-path="url(#clip540)" d="M218.066 1307.2 L222.951 1307.2 L222.951 1313.08 L218.066 1313.08 L218.066 1307.2 Z" fill="#000000" fill-rule="nonzero" fill-opacity="1" /><path clip-path="url(#clip540)" d="M243.136 1281.6 Q239.525 1281.6 237.696 1285.16 Q235.89 1288.7 235.89 1295.83 Q235.89 1302.94 237.696 1306.51 Q239.525 1310.05 243.136 1310.05 Q246.77 1310.05 248.576 1306.51 Q250.404 1302.94 250.404 1295.83 Q250.404 1288.7 248.576 1285.16 Q246.77 1281.6 243.136 1281.6 M243.136 1277.89 Q248.946 1277.89 252.001 1282.5 Q255.08 1287.08 255.08 1295.83 Q255.08 1304.56 252.001 1309.17 Q248.946 1313.75 243.136 1313.75 Q237.326 1313.75 234.247 1309.17 Q231.191 1304.56 231.191 1295.83 Q231.191 1287.08 234.247 1282.5 Q237.326 1277.89 243.136 1277.89 Z" fill="#000000" fill-rule="nonzero" fill-opacity="1" /><path clip-path="url(#clip540)" d="M699.08 1281.6 Q695.469 1281.6 693.64 1285.16 Q691.834 1288.7 691.834 1295.83 Q691.834 1302.94 693.64 1306.51 Q695.469 1310.05 699.08 1310.05 Q702.714 1310.05 704.52 1306.51 Q706.348 1302.94 706.348 1295.83 Q706.348 1288.7 704.52 1285.16 Q702.714 1281.6 699.08 1281.6 M699.08 1277.89 Q704.89 1277.89 707.945 1282.5 Q711.024 1287.08 711.024 1295.83 Q711.024 1304.56 707.945 1309.17 Q704.89 1313.75 699.08 1313.75 Q693.27 1313.75 690.191 1309.17 Q687.135 1304.56 687.135 1295.83 Q687.135 1287.08 690.191 1282.5 Q693.27 1277.89 699.08 1277.89 Z" fill="#000000" fill-rule="nonzero" fill-opacity="1" /><path clip-path="url(#clip540)" d="M719.242 1307.2 L724.126 1307.2 L724.126 1313.08 L719.242 1313.08 L719.242 1307.2 Z" fill="#000000" fill-rule="nonzero" fill-opacity="1" /><path clip-path="url(#clip540)" d="M734.357 1278.52 L752.714 1278.52 L752.714 1282.46 L738.64 1282.46 L738.64 1290.93 Q739.658 1290.58 740.677 1290.42 Q741.695 1290.23 742.714 1290.23 Q748.501 1290.23 751.88 1293.4 Q755.26 1296.58 755.26 1301.99 Q755.26 1307.57 751.788 1310.67 Q748.316 1313.75 741.996 1313.75 Q739.82 1313.75 737.552 1313.38 Q735.306 1313.01 732.899 1312.27 L732.899 1307.57 Q734.982 1308.7 737.205 1309.26 Q739.427 1309.82 741.904 1309.82 Q745.908 1309.82 748.246 1307.71 Q750.584 1305.6 750.584 1301.99 Q750.584 1298.38 748.246 1296.27 Q745.908 1294.17 741.904 1294.17 Q740.029 1294.17 738.154 1294.58 Q736.302 1295 734.357 1295.88 L734.357 1278.52 Z" fill="#000000" fill-rule="nonzero" fill-opacity="1" /><path clip-path="url(#clip540)" d="M1189.03 1309.14 L1196.67 1309.14 L1196.67 1282.78 L1188.36 1284.45 L1188.36 1280.19 L1196.62 1278.52 L1201.3 1278.52 L1201.3 1309.14 L1208.94 1309.14 L1208.94 1313.08 L1189.03 1313.08 L1189.03 1309.14 Z" fill="#000000" fill-rule="nonzero" fill-opacity="1" /><path clip-path="url(#clip540)" d="M1218.38 1307.2 L1223.26 1307.2 L1223.26 1313.08 L1218.38 1313.08 L1218.38 1307.2 Z" fill="#000000" fill-rule="nonzero" fill-opacity="1" /><path clip-path="url(#clip540)" d="M1243.45 1281.6 Q1239.84 1281.6 1238.01 1285.16 Q1236.2 1288.7 1236.2 1295.83 Q1236.2 1302.94 1238.01 1306.51 Q1239.84 1310.05 1243.45 1310.05 Q1247.08 1310.05 1248.89 1306.51 Q1250.72 1302.94 1250.72 1295.83 Q1250.72 1288.7 1248.89 1285.16 Q1247.08 1281.6 1243.45 1281.6 M1243.45 1277.89 Q1249.26 1277.89 1252.31 1282.5 Q1255.39 1287.08 1255.39 1295.83 Q1255.39 1304.56 1252.31 1309.17 Q1249.26 1313.75 1243.45 1313.75 Q1237.64 1313.75 1234.56 1309.17 Q1231.5 1304.56 1231.5 1295.83 Q1231.5 1287.08 1234.56 1282.5 Q1237.64 1277.89 1243.45 1277.89 Z" fill="#000000" fill-rule="nonzero" fill-opacity="1" /><path clip-path="url(#clip540)" d="M1690.2 1309.14 L1697.84 1309.14 L1697.84 1282.78 L1689.53 1284.45 L1689.53 1280.19 L1697.8 1278.52 L1702.47 1278.52 L1702.47 1309.14 L1710.11 1309.14 L1710.11 1313.08 L1690.2 1313.08 L1690.2 1309.14 Z" fill="#000000" fill-rule="nonzero" fill-opacity="1" /><path clip-path="url(#clip540)" d="M1719.55 1307.2 L1724.44 1307.2 L1724.44 1313.08 L1719.55 1313.08 L1719.55 1307.2 Z" fill="#000000" fill-rule="nonzero" fill-opacity="1" /><path clip-path="url(#clip540)" d="M1734.67 1278.52 L1753.03 1278.52 L1753.03 1282.46 L1738.95 1282.46 L1738.95 1290.93 Q1739.97 1290.58 1740.99 1290.42 Q1742.01 1290.23 1743.03 1290.23 Q1748.81 1290.23 1752.19 1293.4 Q1755.57 1296.58 1755.57 1301.99 Q1755.57 1307.57 1752.1 1310.67 Q1748.63 1313.75 1742.31 1313.75 Q1740.13 1313.75 1737.87 1313.38 Q1735.62 1313.01 1733.21 1312.27 L1733.21 1307.57 Q1735.3 1308.7 1737.52 1309.26 Q1739.74 1309.82 1742.22 1309.82 Q1746.22 1309.82 1748.56 1307.71 Q1750.9 1305.6 1750.9 1301.99 Q1750.9 1298.38 1748.56 1296.27 Q1746.22 1294.17 1742.22 1294.17 Q1740.34 1294.17 1738.47 1294.58 Q1736.62 1295 1734.67 1295.88 L1734.67 1278.52 Z" fill="#000000" fill-rule="nonzero" fill-opacity="1" /><path clip-path="url(#clip540)" d="M1055.11 1356.05 Q1055.11 1356.95 1054.69 1357.18 Q1054.27 1357.37 1053.11 1357.37 L1046.93 1357.37 L1042.03 1376.82 Q1041.65 1378.53 1041.65 1379.98 Q1041.65 1381.59 1042.13 1382.3 Q1042.65 1383.01 1043.71 1383.01 Q1045.8 1383.01 1048.06 1381.11 Q1050.34 1379.21 1052.28 1374.57 Q1052.53 1373.96 1052.66 1373.83 Q1052.82 1373.67 1053.24 1373.67 Q1054.05 1373.67 1054.05 1374.31 Q1054.05 1374.54 1053.6 1375.57 Q1053.18 1376.6 1052.24 1378.11 Q1051.34 1379.62 1050.15 1381.04 Q1048.99 1382.46 1047.22 1383.49 Q1045.45 1384.49 1043.55 1384.49 Q1040.87 1384.49 1039.17 1382.78 Q1037.49 1381.07 1037.49 1378.4 Q1037.49 1377.53 1038.17 1374.76 Q1038.85 1371.96 1042.52 1357.37 L1036.69 1357.37 Q1035.88 1357.37 1035.56 1357.34 Q1035.27 1357.31 1035.05 1357.14 Q1034.85 1356.95 1034.85 1356.57 Q1034.85 1355.95 1035.11 1355.7 Q1035.37 1355.41 1035.69 1355.37 Q1036.04 1355.31 1036.85 1355.31 L1043.03 1355.31 L1045.61 1344.84 Q1045.87 1343.81 1046.51 1343.23 Q1047.19 1342.62 1047.57 1342.56 Q1047.96 1342.46 1048.25 1342.46 Q1049.12 1342.46 1049.63 1342.94 Q1050.15 1343.39 1050.15 1344.23 Q1050.15 1344.68 1047.44 1355.31 L1053.24 1355.31 Q1053.98 1355.31 1054.27 1355.34 Q1054.59 1355.37 1054.85 1355.53 Q1055.11 1355.7 1055.11 1356.05 Z" fill="#000000" fill-rule="nonzero" fill-opacity="1" /><polyline clip-path="url(#clip540)" style="stroke:#000000; stroke-linecap:round; stroke-linejoin:round; stroke-width:4; stroke-opacity:1; fill:none" points="220.52,1254.52 220.52,47.2441 "/>
<polyline clip-path="url(#clip540)" style="stroke:#000000; stroke-linecap:round; stroke-linejoin:round; stroke-width:4; stroke-opacity:1; fill:none" points="220.52,1254.52 239.418,1254.52 "/>
<polyline clip-path="url(#clip540)" style="stroke:#000000; stroke-linecap:round; stroke-linejoin:round; stroke-width:4; stroke-opacity:1; fill:none" points="220.52,877.246 239.418,877.246 "/>
<polyline clip-path="url(#clip540)" style="stroke:#000000; stroke-linecap:round; stroke-linejoin:round; stroke-width:4; stroke-opacity:1; fill:none" points="220.52,499.972 239.418,499.972 "/>
<polyline clip-path="url(#clip540)" style="stroke:#000000; stroke-linecap:round; stroke-linejoin:round; stroke-width:4; stroke-opacity:1; fill:none" points="220.52,122.699 239.418,122.699 "/>
<path clip-path="url(#clip540)" d="M134.545 1240.32 Q130.933 1240.32 129.105 1243.88 Q127.299 1247.42 127.299 1254.55 Q127.299 1261.66 129.105 1265.23 Q130.933 1268.77 134.545 1268.77 Q138.179 1268.77 139.984 1265.23 Q141.813 1261.66 141.813 1254.55 Q141.813 1247.42 139.984 1243.88 Q138.179 1240.32 134.545 1240.32 M134.545 1236.61 Q140.355 1236.61 143.41 1241.22 Q146.489 1245.8 146.489 1254.55 Q146.489 1263.28 143.41 1267.89 Q140.355 1272.47 134.545 1272.47 Q128.734 1272.47 125.656 1267.89 Q122.6 1263.28 122.6 1254.55 Q122.6 1245.8 125.656 1241.22 Q128.734 1236.61 134.545 1236.61 Z" fill="#000000" fill-rule="nonzero" fill-opacity="1" /><path clip-path="url(#clip540)" d="M154.706 1265.92 L159.591 1265.92 L159.591 1271.8 L154.706 1271.8 L154.706 1265.92 Z" fill="#000000" fill-rule="nonzero" fill-opacity="1" /><path clip-path="url(#clip540)" d="M179.776 1240.32 Q176.165 1240.32 174.336 1243.88 Q172.53 1247.42 172.53 1254.55 Q172.53 1261.66 174.336 1265.23 Q176.165 1268.77 179.776 1268.77 Q183.41 1268.77 185.216 1265.23 Q187.044 1261.66 187.044 1254.55 Q187.044 1247.42 185.216 1243.88 Q183.41 1240.32 179.776 1240.32 M179.776 1236.61 Q185.586 1236.61 188.641 1241.22 Q191.72 1245.8 191.72 1254.55 Q191.72 1263.28 188.641 1267.89 Q185.586 1272.47 179.776 1272.47 Q173.966 1272.47 170.887 1267.89 Q167.831 1263.28 167.831 1254.55 Q167.831 1245.8 170.887 1241.22 Q173.966 1236.61 179.776 1236.61 Z" fill="#000000" fill-rule="nonzero" fill-opacity="1" /><path clip-path="url(#clip540)" d="M135.54 863.045 Q131.929 863.045 130.1 866.61 Q128.295 870.151 128.295 877.281 Q128.295 884.387 130.1 887.952 Q131.929 891.494 135.54 891.494 Q139.174 891.494 140.98 887.952 Q142.808 884.387 142.808 877.281 Q142.808 870.151 140.98 866.61 Q139.174 863.045 135.54 863.045 M135.54 859.341 Q141.35 859.341 144.406 863.948 Q147.484 868.531 147.484 877.281 Q147.484 886.008 144.406 890.614 Q141.35 895.197 135.54 895.197 Q129.73 895.197 126.651 890.614 Q123.596 886.008 123.596 877.281 Q123.596 868.531 126.651 863.948 Q129.73 859.341 135.54 859.341 Z" fill="#000000" fill-rule="nonzero" fill-opacity="1" /><path clip-path="url(#clip540)" d="M155.702 888.647 L160.586 888.647 L160.586 894.526 L155.702 894.526 L155.702 888.647 Z" fill="#000000" fill-rule="nonzero" fill-opacity="1" /><path clip-path="url(#clip540)" d="M170.817 859.966 L189.174 859.966 L189.174 863.901 L175.1 863.901 L175.1 872.374 Q176.118 872.026 177.137 871.864 Q178.155 871.679 179.174 871.679 Q184.961 871.679 188.341 874.85 Q191.72 878.022 191.72 883.438 Q191.72 889.017 188.248 892.119 Q184.776 895.197 178.456 895.197 Q176.28 895.197 174.012 894.827 Q171.767 894.457 169.359 893.716 L169.359 889.017 Q171.442 890.151 173.665 890.707 Q175.887 891.262 178.364 891.262 Q182.368 891.262 184.706 889.156 Q187.044 887.049 187.044 883.438 Q187.044 879.827 184.706 877.721 Q182.368 875.614 178.364 875.614 Q176.489 875.614 174.614 876.031 Q172.762 876.448 170.817 877.327 L170.817 859.966 Z" fill="#000000" fill-rule="nonzero" fill-opacity="1" /><path clip-path="url(#clip540)" d="M125.355 513.317 L132.994 513.317 L132.994 486.952 L124.683 488.618 L124.683 484.359 L132.947 482.692 L137.623 482.692 L137.623 513.317 L145.262 513.317 L145.262 517.252 L125.355 517.252 L125.355 513.317 Z" fill="#000000" fill-rule="nonzero" fill-opacity="1" /><path clip-path="url(#clip540)" d="M154.706 511.373 L159.591 511.373 L159.591 517.252 L154.706 517.252 L154.706 511.373 Z" fill="#000000" fill-rule="nonzero" fill-opacity="1" /><path clip-path="url(#clip540)" d="M179.776 485.771 Q176.165 485.771 174.336 489.336 Q172.53 492.878 172.53 500.007 Q172.53 507.114 174.336 510.678 Q176.165 514.22 179.776 514.22 Q183.41 514.22 185.216 510.678 Q187.044 507.114 187.044 500.007 Q187.044 492.878 185.216 489.336 Q183.41 485.771 179.776 485.771 M179.776 482.068 Q185.586 482.068 188.641 486.674 Q191.72 491.257 191.72 500.007 Q191.72 508.734 188.641 513.34 Q185.586 517.924 179.776 517.924 Q173.966 517.924 170.887 513.34 Q167.831 508.734 167.831 500.007 Q167.831 491.257 170.887 486.674 Q173.966 482.068 179.776 482.068 Z" fill="#000000" fill-rule="nonzero" fill-opacity="1" /><path clip-path="url(#clip540)" d="M126.35 136.044 L133.989 136.044 L133.989 109.678 L125.679 111.345 L125.679 107.085 L133.943 105.419 L138.619 105.419 L138.619 136.044 L146.257 136.044 L146.257 139.979 L126.35 139.979 L126.35 136.044 Z" fill="#000000" fill-rule="nonzero" fill-opacity="1" /><path clip-path="url(#clip540)" d="M155.702 134.099 L160.586 134.099 L160.586 139.979 L155.702 139.979 L155.702 134.099 Z" fill="#000000" fill-rule="nonzero" fill-opacity="1" /><path clip-path="url(#clip540)" d="M170.817 105.419 L189.174 105.419 L189.174 109.354 L175.1 109.354 L175.1 117.826 Q176.118 117.479 177.137 117.317 Q178.155 117.132 179.174 117.132 Q184.961 117.132 188.341 120.303 Q191.72 123.474 191.72 128.891 Q191.72 134.47 188.248 137.571 Q184.776 140.65 178.456 140.65 Q176.28 140.65 174.012 140.28 Q171.767 139.909 169.359 139.169 L169.359 134.47 Q171.442 135.604 173.665 136.159 Q175.887 136.715 178.364 136.715 Q182.368 136.715 184.706 134.608 Q187.044 132.502 187.044 128.891 Q187.044 125.28 184.706 123.173 Q182.368 121.067 178.364 121.067 Q176.489 121.067 174.614 121.484 Q172.762 121.9 170.817 122.78 L170.817 105.419 Z" fill="#000000" fill-rule="nonzero" fill-opacity="1" /><path clip-path="url(#clip540)" d="M69.96 686.462 Q70.2176 686.462 71.216 686.752 Q72.2144 687.042 73.7603 687.75 Q75.3061 688.427 76.7232 689.36 Q78.108 690.294 79.1386 691.84 Q80.137 693.354 80.137 695.093 Q80.137 697.412 78.5911 698.958 Q77.0453 700.504 74.7264 700.504 Q74.4044 700.504 74.0823 700.472 Q73.7603 700.439 73.567 700.407 Q73.3416 700.375 72.9873 700.278 Q72.6008 700.149 72.4398 700.117 Q72.2788 700.053 71.7957 699.892 Q71.2804 699.699 71.0872 699.634 Q60.6525 695.544 56.3047 695.544 Q51.6992 695.544 51.6992 699.119 Q51.6992 702.307 54.0181 705.463 Q55.1775 706.913 57.2386 708.298 Q59.2998 709.682 60.0728 709.94 Q61.7475 710.23 63.0357 710.649 Q63.9375 710.842 67.4479 711.776 L73.406 713.225 L78.3979 714.481 Q79.1064 714.739 79.6217 715.447 Q80.137 716.156 80.137 716.929 Q80.137 717.573 79.6861 718.217 Q79.2675 718.829 78.2691 718.829 Q77.7538 718.829 76.8198 718.571 L38.8169 709.006 L37.5287 708.813 Q37.1422 708.813 36.949 708.974 Q36.7235 709.103 36.5625 709.876 Q36.4015 710.616 36.4015 712.098 Q36.4015 712.71 36.3693 713 Q36.337 713.257 36.176 713.483 Q35.9828 713.708 35.5963 713.708 Q35.0488 713.708 34.759 713.483 Q34.4369 713.225 34.3725 713.032 Q34.3081 712.839 34.2759 712.452 Q34.2437 711.905 34.0826 710.069 Q33.8894 708.233 33.7606 706.655 Q33.6318 705.077 33.6318 704.401 Q33.6318 704.014 33.825 703.821 Q33.986 703.595 34.1793 703.563 L34.3403 703.531 L55.3063 708.684 Q50.25 704.594 50.25 698.926 Q50.25 695.254 52.1501 693.29 Q54.0181 691.325 57.3031 691.325 Q61.0711 691.325 71.7957 695.351 Q74.7908 696.542 76.4978 696.542 Q77.625 696.542 78.1403 696.188 Q78.6555 695.802 78.6555 694.964 Q78.6555 693.676 77.9148 692.549 Q77.1419 691.389 75.8858 690.584 Q74.5976 689.779 73.3094 689.232 Q71.9889 688.652 70.5075 688.233 Q69.7023 687.976 69.5091 687.847 Q69.3158 687.686 69.3158 687.235 Q69.3158 686.462 69.96 686.462 Z" fill="#000000" fill-rule="nonzero" fill-opacity="1" /><path clip-path="url(#clip540)" d="M68.8685 660.847 Q69.2067 660.847 69.7027 661.095 Q70.1536 661.32 70.4466 661.794 Q70.7172 662.245 70.7172 662.741 Q70.7172 662.898 70.627 663.259 Q70.3564 663.868 69.7478 664.815 Q69.1391 665.762 68.7558 666.618 Q68.35 667.452 68.3049 668.377 Q68.3049 669.188 68.598 669.865 Q68.9362 670.473 69.6576 670.879 Q69.9507 671.059 70.4466 671.059 Q71.1455 671.059 72.0698 670.676 Q72.9941 670.293 74.1889 669.504 Q75.3838 668.692 76.1954 668.106 Q76.9844 667.52 78.292 666.505 Q78.4047 666.415 78.4723 666.37 Q78.5174 666.325 78.6301 666.257 Q78.7203 666.19 78.7879 666.122 Q81.4707 663.981 84.424 663.439 Q85.461 663.304 86.5431 663.304 Q88.7073 663.304 91.2548 663.958 Q93.5769 664.522 95.5833 665.716 Q97.5672 666.911 98.8747 668.715 Q100.182 670.496 100.182 672.435 Q100.182 674.351 99.3482 675.929 Q98.4915 677.507 97.0261 678.454 Q95.0873 679.739 92.4046 679.739 Q90.8941 679.739 89.6091 679.378 Q87.5576 678.882 85.6639 677.71 Q83.7702 676.538 82.3048 674.847 Q80.1406 672.277 79.5319 669.481 Q77.052 670.789 75.1358 671.555 Q73.197 672.299 71.5513 672.299 Q70.1085 672.299 69.1842 671.758 Q68.1922 671.285 67.6286 670.315 Q67.1326 669.504 66.8847 668.332 Q66.7945 667.61 66.7945 667.137 Q66.7945 665.536 67.6737 661.816 Q67.8991 660.847 68.8685 660.847 M88.3917 666.483 Q87.0165 666.483 86.0922 666.708 Q83.8378 667.137 80.7267 668.85 L80.5013 668.985 Q81.1325 671.172 83.0488 672.953 Q85.3934 675.185 89.8346 676.312 Q92.3144 676.921 93.7121 676.921 Q95.2226 676.921 96.5302 676.357 Q97.7475 675.816 98.4464 674.802 Q99.1453 673.765 99.1453 672.389 Q99.1453 671.352 98.5591 670.451 Q97.9504 669.549 96.8909 668.895 Q95.8313 668.241 94.6815 667.79 Q93.5092 667.317 92.1341 666.956 Q90.2854 666.483 88.3917 666.483 Z" fill="#000000" fill-rule="nonzero" fill-opacity="1" /><path clip-path="url(#clip540)" d="M62.9069 653.991 Q51.7637 653.991 42.7782 649.837 Q39.0101 648.065 35.854 645.586 Q32.6978 643.106 31.3129 641.463 Q29.9281 639.821 29.9281 639.37 Q29.9281 638.726 30.5722 638.694 Q30.8943 638.694 31.6994 639.563 Q42.5206 650.191 62.9069 650.159 Q83.3576 650.159 93.7601 639.821 Q94.8873 638.694 95.2416 638.694 Q95.8857 638.694 95.8857 639.37 Q95.8857 639.821 94.5652 641.399 Q93.2448 642.977 90.2175 645.425 Q87.1901 647.872 83.4864 649.644 Q74.501 653.991 62.9069 653.991 Z" fill="#000000" fill-rule="nonzero" fill-opacity="1" /><path clip-path="url(#clip540)" d="M51.6992 613.424 Q52.601 613.424 52.8264 613.842 Q53.0197 614.261 53.0197 615.42 L53.0197 621.604 L72.472 626.499 Q74.1789 626.886 75.6282 626.886 Q77.2385 626.886 77.947 626.403 Q78.6555 625.887 78.6555 624.825 Q78.6555 622.731 76.7554 620.477 Q74.8553 618.19 70.2176 616.258 Q69.6057 616 69.4769 615.871 Q69.3158 615.71 69.3158 615.292 Q69.3158 614.486 69.96 614.486 Q70.1854 614.486 71.216 614.937 Q72.2466 615.356 73.7603 616.29 Q75.2739 617.192 76.691 618.383 Q78.108 619.543 79.1386 621.314 Q80.137 623.085 80.137 624.986 Q80.137 627.659 78.4301 629.366 Q76.7232 631.04 74.0501 631.04 Q73.1806 631.04 70.4108 630.364 Q67.6089 629.688 53.0197 626.016 L53.0197 631.845 Q53.0197 632.651 52.9875 632.973 Q52.9553 633.262 52.7942 633.488 Q52.601 633.681 52.2145 633.681 Q51.6026 633.681 51.345 633.424 Q51.0551 633.166 51.0229 632.844 Q50.9585 632.49 50.9585 631.684 L50.9585 625.501 L40.4916 622.924 Q39.461 622.667 38.8813 622.023 Q38.2694 621.346 38.205 620.96 Q38.1084 620.573 38.1084 620.284 Q38.1084 619.414 38.5915 618.899 Q39.0423 618.383 39.8797 618.383 Q40.3306 618.383 50.9585 621.089 L50.9585 615.292 Q50.9585 614.551 50.9907 614.261 Q51.0229 613.939 51.1839 613.681 Q51.345 613.424 51.6992 613.424 Z" fill="#000000" fill-rule="nonzero" fill-opacity="1" /><path clip-path="url(#clip540)" d="M95.2416 608.261 Q94.9195 608.261 94.1144 607.424 Q83.2932 596.796 62.9069 596.796 Q42.4562 596.796 32.1181 607.005 Q30.9265 608.261 30.5722 608.261 Q29.9281 608.261 29.9281 607.617 Q29.9281 607.166 31.2485 605.588 Q32.569 603.978 35.5963 601.562 Q38.6237 599.115 42.3273 597.311 Q51.3128 592.964 62.9069 592.964 Q74.0501 592.964 83.0355 597.118 Q86.8036 598.889 89.9598 601.369 Q93.116 603.849 94.5008 605.492 Q95.8857 607.134 95.8857 607.617 Q95.8857 608.261 95.2416 608.261 Z" fill="#000000" fill-rule="nonzero" fill-opacity="1" /><polyline clip-path="url(#clip542)" style="stroke:#009af9; stroke-linecap:round; stroke-linejoin:round; stroke-width:4; stroke-opacity:1; fill:none" points="220.52,1254.52 230.534,1108.01 240.547,1071.46 250.561,1045.09 260.574,1023.68 270.588,1005.34 280.601,989.136 290.615,974.518 300.629,961.144 310.642,948.779 320.656,937.253 330.669,926.442 340.683,916.248 350.696,906.596 360.71,897.426 370.723,888.687 380.737,880.338 390.751,872.345 400.764,864.679 410.778,857.315 420.791,850.231 430.805,843.409 440.818,836.831 450.832,830.484 460.845,824.355 470.859,818.432 480.872,812.706 490.886,807.167 500.9,801.807 510.913,796.618 520.927,791.594 530.94,786.728 540.954,782.016 550.967,777.451 560.981,773.029 570.994,768.747 581.008,764.599 591.022,760.582 601.035,756.693 611.049,752.929 621.062,749.286 631.076,745.763 641.089,742.355 651.103,739.062 661.116,735.881 671.13,732.809 681.143,729.846 691.157,726.988 701.171,724.235 711.184,721.584 721.198,719.035 731.211,716.586 741.225,714.234 751.238,711.981 761.252,709.822 771.265,707.759 781.279,705.79 791.293,703.913 801.306,702.127 811.32,700.433 821.333,698.828 831.347,697.312 841.36,695.884 851.374,694.543 861.387,693.289 871.401,692.121 881.414,691.037 891.428,690.038 901.442,689.122 911.455,688.29 921.469,687.539 931.482,686.87 941.496,686.283 951.509,685.775 961.523,685.348 971.536,684.999 981.55,684.729 991.564,684.538 1001.58,684.423 1011.59,684.386 1021.6,684.424 1031.62,684.539 1041.63,684.728 1051.64,684.992 1061.66,685.33 1071.67,685.742 1081.69,686.226 1091.7,686.783 1101.71,687.411 1111.73,688.11 1121.74,688.88 1131.75,689.719 1141.77,690.628 1151.78,691.606 1161.79,692.651 1171.81,693.764 1181.82,694.943 1191.83,696.189 1201.85,697.5 1211.86,698.875 1221.88,700.315 1231.89,701.709 1241.9,702.945 1251.92,704.014 1261.93,704.91 1271.94,705.626 1281.96,706.154 1291.97,706.487 1301.98,706.617 1312,706.537 1322.01,706.24 1332.02,705.719 1342.04,704.966 1352.05,703.973 1362.06,702.735 1372.08,701.242 1382.09,699.489 1392.11,697.469 1402.12,695.174 1412.13,692.597 1422.15,689.732 1432.16,686.572 1442.17,683.111 1452.19,679.343 1462.2,675.26 1472.21,670.857 1482.23,666.129 1492.24,661.069 1502.25,655.672 1512.27,649.933 1522.28,643.845 1532.3,637.406 1542.31,630.609 1552.32,623.45 1562.34,615.925 1572.35,608.03 1582.36,599.761 1592.38,591.114 1602.39,582.086 1612.4,572.674 1622.42,562.874 1632.43,552.685 1642.44,542.103 1652.46,531.127 1662.47,519.755 1672.48,507.986 1682.5,495.817 1692.51,483.248 1702.53,470.278 1712.54,456.906 1722.55,443.133 1732.57,428.958 1742.58,414.382 1752.59,399.405 1762.61,384.029 1772.62,368.254 1782.63,352.082 1792.65,335.515 1802.66,318.555 1812.67,301.205 1822.69,283.467 1832.7,265.344 1842.72,246.839 1852.73,227.957 1862.74,208.702 1872.76,189.078 1882.77,169.089 1892.78,148.74 1902.8,128.038 1912.81,106.988 1922.82,85.5962 1932.84,63.8691 1942.85,41.8136 1952.86,19.4373 1962.88,-3.25221 1972.89,-26.2466 1982.9,-49.5372 1992.92,-73.115 2002.93,-96.9705 2012.95,-121.094 2022.96,-145.474 2032.97,-170.1 2042.99,-194.961 2053,-220.044 2063.01,-245.337 2073.03,-270.827 2083.04,-296.499 2093.05,-322.341 2103.07,-348.335 2113.08,-374.468 2123.09,-400.722 2133.11,-427.081 2143.12,-453.527 2153.14,-480.041 2163.15,-506.605 2173.16,-533.198 2183.18,-559.8 2193.19,-586.389 2203.2,-612.943 2213.22,-639.439 2223.23,-665.852 "/>
<polyline clip-path="url(#clip542)" style="stroke:#e26f46; stroke-linecap:round; stroke-linejoin:round; stroke-width:4; stroke-opacity:1; fill:none" points="220.52,1254.52 230.534,1157.11 240.547,1136.57 250.561,1120.75 260.574,1107.06 270.588,1094.64 280.601,1083.04 290.615,1072.04 300.629,1061.5 310.642,1051.31 320.656,1041.4 330.669,1031.74 340.683,1022.28 350.696,1012.99 360.71,1003.86 370.723,994.853 380.737,985.97 390.751,977.195 400.764,968.519 410.778,959.935 420.791,951.436 430.805,943.017 440.818,934.674 450.832,926.404 460.845,918.204 470.859,910.072 480.872,902.006 490.886,894.006 500.9,886.069 510.913,878.196 520.927,870.387 530.94,862.64 540.954,854.957 550.967,847.338 560.981,839.784 570.994,832.295 581.008,824.871 591.022,817.515 601.035,810.227 611.049,803.009 621.062,795.861 631.076,788.785 641.089,781.783 651.103,774.856 661.116,768.006 671.13,761.235 681.143,754.544 691.157,747.935 701.171,741.41 711.184,734.971 721.198,728.619 731.211,722.358 741.225,716.188 751.238,710.112 761.252,704.133 771.265,698.251 781.279,692.469 791.293,686.79 801.306,681.215 811.32,675.747 821.333,670.388 831.347,665.139 841.36,660.004 851.374,654.984 861.387,650.082 871.401,645.3 881.414,640.639 891.428,636.103 901.442,631.692 911.455,627.411 921.469,623.259 931.482,619.24 941.496,615.356 951.509,611.609 961.523,608.001 971.536,604.533 981.55,601.208 991.564,598.028 1001.58,594.994 1011.59,592.108 1021.6,589.373 1031.62,586.789 1041.63,584.359 1051.64,582.084 1061.66,579.966 1071.67,578.006 1081.69,576.206 1091.7,574.566 1101.71,573.089 1111.73,571.775 1121.74,570.626 1131.75,569.642 1141.77,568.825 1151.78,568.175 1161.79,567.693 1171.81,567.38 1181.82,567.237 1191.83,567.263 1201.85,567.459 1211.86,567.825 1221.88,568.362 1231.89,568.96 1241.9,569.505 1251.92,569.989 1261.93,570.404 1271.94,570.74 1281.96,570.988 1291.97,571.14 1301.98,571.185 1312,571.115 1322.01,570.919 1332.02,570.588 1342.04,570.112 1352.05,569.479 1362.06,568.681 1372.08,567.707 1382.09,566.546 1392.11,565.189 1402.12,563.624 1412.13,561.841 1422.15,559.83 1432.16,557.581 1442.17,555.083 1452.19,552.326 1462.2,549.3 1472.21,545.995 1482.23,542.402 1492.24,538.51 1502.25,534.31 1512.27,529.792 1522.28,524.948 1532.3,519.769 1542.31,514.245 1552.32,508.369 1562.34,502.133 1572.35,495.527 1582.36,488.546 1592.38,481.18 1602.39,473.424 1612.4,465.271 1622.42,456.713 1632.43,447.746 1642.44,438.363 1652.46,428.558 1662.47,418.328 1672.48,407.666 1682.5,396.569 1692.51,385.033 1702.53,373.054 1712.54,360.628 1722.55,347.753 1732.57,334.426 1742.58,320.645 1752.59,306.408 1762.61,291.714 1772.62,276.562 1782.63,260.95 1792.65,244.879 1802.66,228.349 1812.67,211.359 1822.69,193.911 1832.7,176.007 1842.72,157.647 1852.73,138.833 1862.74,119.568 1872.76,99.854 1882.77,79.6947 1892.78,59.0934 1902.8,38.0538 1912.81,16.5801 1922.82,-5.32293 1932.84,-27.6504 1942.85,-50.3968 1952.86,-73.5563 1962.88,-97.1227 1972.89,-121.089 1982.9,-145.449 1992.92,-170.194 2002.93,-195.316 2012.95,-220.807 2022.96,-246.659 2032.97,-272.86 2042.99,-299.402 2053,-326.274 2063.01,-353.464 2073.03,-380.962 2083.04,-408.754 2093.05,-436.829 2103.07,-465.171 2113.08,-493.769 2123.09,-522.605 2133.11,-551.665 2143.12,-580.933 2153.14,-610.392 2163.15,-640.023 2173.16,-669.808 2183.18,-699.727 2193.19,-729.76 2203.2,-759.885 2213.22,-790.079 2223.23,-820.32 "/>
<polyline clip-path="url(#clip542)" style="stroke:#3da44d; stroke-linecap:round; stroke-linejoin:round; stroke-width:4; stroke-opacity:1; fill:none" points="220.52,1254.52 230.534,1163.73 240.547,1149.03 250.561,1138.58 260.574,1129.87 270.588,1122.08 280.601,1114.81 290.615,1107.87 300.629,1101.12 310.642,1094.47 320.656,1087.88 330.669,1081.31 340.683,1074.72 350.696,1068.1 360.71,1061.42 370.723,1054.68 380.737,1047.86 390.751,1040.96 400.764,1033.98 410.778,1026.9 420.791,1019.73 430.805,1012.46 440.818,1005.09 450.832,997.617 460.845,990.047 470.859,982.377 480.872,974.608 490.886,966.74 500.9,958.775 510.913,950.714 520.927,942.56 530.94,934.314 540.954,925.979 550.967,917.558 560.981,909.053 570.994,900.467 581.008,891.804 591.022,883.068 601.035,874.261 611.049,865.388 621.062,856.452 631.076,847.459 641.089,838.411 651.103,829.315 661.116,820.173 671.13,810.992 681.143,801.775 691.157,792.529 701.171,783.259 711.184,773.969 721.198,764.665 731.211,755.354 741.225,746.04 751.238,736.731 761.252,727.431 771.265,718.147 781.279,708.886 791.293,699.655 801.306,690.459 811.32,681.305 821.333,672.201 831.347,663.153 841.36,654.168 851.374,645.254 861.387,636.419 871.401,627.668 881.414,619.011 891.428,610.454 901.442,602.005 911.455,593.673 921.469,585.465 931.482,577.388 941.496,569.452 951.509,561.663 961.523,554.031 971.536,546.563 981.55,539.267 991.564,532.152 1001.58,525.225 1011.59,518.496 1021.6,511.972 1031.62,505.661 1041.63,499.572 1051.64,493.712 1061.66,488.09 1071.67,482.713 1081.69,477.589 1091.7,472.726 1101.71,468.132 1111.73,463.813 1121.74,459.777 1131.75,456.031 1141.77,452.582 1151.78,449.437 1161.79,446.601 1171.81,444.081 1181.82,441.883 1191.83,440.011 1201.85,438.472 1211.86,437.269 1221.88,436.408 1231.89,435.783 1241.9,435.282 1251.92,434.899 1261.93,434.625 1271.94,434.454 1281.96,434.377 1291.97,434.384 1301.98,434.466 1312,434.611 1322.01,434.809 1332.02,435.047 1342.04,435.314 1352.05,435.596 1362.06,435.88 1372.08,436.152 1382.09,436.397 1392.11,436.601 1402.12,436.748 1412.13,436.822 1422.15,436.808 1432.16,436.689 1442.17,436.45 1452.19,436.072 1462.2,435.54 1472.21,434.836 1482.23,433.944 1492.24,432.846 1502.25,431.526 1512.27,429.967 1522.28,428.152 1532.3,426.064 1542.31,423.688 1552.32,421.006 1562.34,418.004 1572.35,414.666 1582.36,410.977 1592.38,406.922 1602.39,402.488 1612.4,397.659 1622.42,392.424 1632.43,386.769 1642.44,380.683 1652.46,374.153 1662.47,367.169 1672.48,359.721 1682.5,351.799 1692.51,343.394 1702.53,334.497 1712.54,325.101 1722.55,315.198 1732.57,304.783 1742.58,293.85 1752.59,282.394 1762.61,270.41 1772.62,257.894 1782.63,244.844 1792.65,231.258 1802.66,217.133 1812.67,202.469 1822.69,187.265 1832.7,171.522 1842.72,155.24 1852.73,138.421 1862.74,121.068 1872.76,103.181 1882.77,84.7665 1892.78,65.8264 1902.8,46.3657 1912.81,26.3893 1922.82,5.90293 1932.84,-15.0874 1942.85,-36.575 1952.86,-58.5527 1962.88,-81.0128 1972.89,-103.947 1982.9,-127.346 1992.92,-151.202 2002.93,-175.503 2012.95,-200.24 2022.96,-225.401 2032.97,-250.976 2042.99,-276.952 2053,-303.316 2063.01,-330.055 2073.03,-357.156 2083.04,-384.603 2093.05,-412.383 2103.07,-440.478 2113.08,-468.873 2123.09,-497.55 2133.11,-526.493 2143.12,-555.681 2153.14,-585.097 2163.15,-614.719 2173.16,-644.526 2183.18,-674.498 2193.19,-704.611 2203.2,-734.84 2213.22,-765.163 2223.23,-795.552 "/>
<path clip-path="url(#clip540)" d="M275.595 294.847 L618.665 294.847 L618.665 87.4866 L275.595 87.4866  Z" fill="#ffffff" fill-rule="evenodd" fill-opacity="1"/>
<polyline clip-path="url(#clip540)" style="stroke:#000000; stroke-linecap:round; stroke-linejoin:round; stroke-width:4; stroke-opacity:1; fill:none" points="275.595,294.847 618.665,294.847 618.665,87.4866 275.595,87.4866 275.595,294.847 "/>
<polyline clip-path="url(#clip540)" style="stroke:#009af9; stroke-linecap:round; stroke-linejoin:round; stroke-width:4; stroke-opacity:1; fill:none" points="293.953,139.327 404.102,139.327 "/>
<path clip-path="url(#clip540)" d="M442.969 131.676 L442.969 135.658 Q441.164 134.662 439.335 134.176 Q437.529 133.667 435.678 133.667 Q431.534 133.667 429.242 136.306 Q426.951 138.922 426.951 143.667 Q426.951 148.412 429.242 151.051 Q431.534 153.667 435.678 153.667 Q437.529 153.667 439.335 153.181 Q441.164 152.671 442.969 151.676 L442.969 155.611 Q441.187 156.445 439.266 156.861 Q437.367 157.278 435.215 157.278 Q429.358 157.278 425.909 153.597 Q422.46 149.917 422.46 143.667 Q422.46 137.324 425.932 133.69 Q429.428 130.056 435.492 130.056 Q437.46 130.056 439.335 130.473 Q441.21 130.866 442.969 131.676 Z" fill="#000000" fill-rule="nonzero" fill-opacity="1" /><path clip-path="url(#clip540)" d="M462.159 143.574 Q456.997 143.574 455.006 144.755 Q453.015 145.935 453.015 148.783 Q453.015 151.051 454.497 152.394 Q456.002 153.713 458.571 153.713 Q462.113 153.713 464.242 151.213 Q466.395 148.69 466.395 144.523 L466.395 143.574 L462.159 143.574 M470.654 141.815 L470.654 156.607 L466.395 156.607 L466.395 152.671 Q464.937 155.033 462.761 156.167 Q460.585 157.278 457.437 157.278 Q453.455 157.278 451.094 155.056 Q448.756 152.81 448.756 149.06 Q448.756 144.685 451.673 142.463 Q454.613 140.241 460.423 140.241 L466.395 140.241 L466.395 139.824 Q466.395 136.885 464.451 135.287 Q462.529 133.667 459.034 133.667 Q456.812 133.667 454.705 134.199 Q452.599 134.732 450.654 135.797 L450.654 131.861 Q452.992 130.959 455.191 130.519 Q457.39 130.056 459.474 130.056 Q465.099 130.056 467.877 132.972 Q470.654 135.889 470.654 141.815 Z" fill="#000000" fill-rule="nonzero" fill-opacity="1" /><path clip-path="url(#clip540)" d="M478.988 146.375 L478.988 130.681 L483.247 130.681 L483.247 146.213 Q483.247 149.894 484.682 151.746 Q486.117 153.574 488.988 153.574 Q492.437 153.574 494.427 151.375 Q496.441 149.176 496.441 145.38 L496.441 130.681 L500.7 130.681 L500.7 156.607 L496.441 156.607 L496.441 152.625 Q494.89 154.986 492.83 156.144 Q490.793 157.278 488.085 157.278 Q483.617 157.278 481.302 154.5 Q478.988 151.722 478.988 146.375 M489.705 130.056 L489.705 130.056 Z" fill="#000000" fill-rule="nonzero" fill-opacity="1" /><path clip-path="url(#clip540)" d="M526.001 131.445 L526.001 135.472 Q524.196 134.547 522.251 134.084 Q520.307 133.621 518.223 133.621 Q515.052 133.621 513.455 134.593 Q511.881 135.565 511.881 137.509 Q511.881 138.991 513.015 139.847 Q514.149 140.681 517.575 141.445 L519.034 141.769 Q523.571 142.741 525.469 144.523 Q527.39 146.283 527.39 149.454 Q527.39 153.065 524.52 155.171 Q521.673 157.278 516.673 157.278 Q514.589 157.278 512.321 156.861 Q510.075 156.468 507.575 155.658 L507.575 151.259 Q509.936 152.486 512.228 153.111 Q514.52 153.713 516.765 153.713 Q519.774 153.713 521.395 152.695 Q523.015 151.653 523.015 149.778 Q523.015 148.042 521.835 147.116 Q520.677 146.19 516.719 145.334 L515.237 144.986 Q511.279 144.153 509.52 142.44 Q507.761 140.704 507.761 137.695 Q507.761 134.037 510.353 132.047 Q512.946 130.056 517.714 130.056 Q520.075 130.056 522.159 130.403 Q524.242 130.75 526.001 131.445 Z" fill="#000000" fill-rule="nonzero" fill-opacity="1" /><path clip-path="url(#clip540)" d="M556.348 142.579 L556.348 144.662 L536.765 144.662 Q537.043 149.06 539.404 151.375 Q541.788 153.667 546.024 153.667 Q548.478 153.667 550.77 153.065 Q553.084 152.463 555.353 151.259 L555.353 155.287 Q553.061 156.259 550.654 156.769 Q548.246 157.278 545.77 157.278 Q539.566 157.278 535.932 153.667 Q532.321 150.056 532.321 143.898 Q532.321 137.533 535.747 133.806 Q539.196 130.056 545.029 130.056 Q550.26 130.056 553.293 133.435 Q556.348 136.792 556.348 142.579 M552.089 141.329 Q552.043 137.834 550.121 135.75 Q548.223 133.667 545.075 133.667 Q541.51 133.667 539.358 135.681 Q537.228 137.695 536.904 141.352 L552.089 141.329 Z" fill="#000000" fill-rule="nonzero" fill-opacity="1" /><path clip-path="url(#clip540)" d="M579.82 152.671 L587.459 152.671 L587.459 126.306 L579.149 127.973 L579.149 123.713 L587.413 122.047 L592.089 122.047 L592.089 152.671 L599.728 152.671 L599.728 156.607 L579.82 156.607 L579.82 152.671 Z" fill="#000000" fill-rule="nonzero" fill-opacity="1" /><polyline clip-path="url(#clip540)" style="stroke:#e26f46; stroke-linecap:round; stroke-linejoin:round; stroke-width:4; stroke-opacity:1; fill:none" points="293.953,191.167 404.102,191.167 "/>
<path clip-path="url(#clip540)" d="M442.969 183.516 L442.969 187.498 Q441.164 186.502 439.335 186.016 Q437.529 185.507 435.678 185.507 Q431.534 185.507 429.242 188.146 Q426.951 190.762 426.951 195.507 Q426.951 200.252 429.242 202.891 Q431.534 205.507 435.678 205.507 Q437.529 205.507 439.335 205.021 Q441.164 204.511 442.969 203.516 L442.969 207.451 Q441.187 208.285 439.266 208.701 Q437.367 209.118 435.215 209.118 Q429.358 209.118 425.909 205.437 Q422.46 201.757 422.46 195.507 Q422.46 189.164 425.932 185.53 Q429.428 181.896 435.492 181.896 Q437.46 181.896 439.335 182.313 Q441.21 182.706 442.969 183.516 Z" fill="#000000" fill-rule="nonzero" fill-opacity="1" /><path clip-path="url(#clip540)" d="M462.159 195.414 Q456.997 195.414 455.006 196.595 Q453.015 197.775 453.015 200.623 Q453.015 202.891 454.497 204.234 Q456.002 205.553 458.571 205.553 Q462.113 205.553 464.242 203.053 Q466.395 200.53 466.395 196.363 L466.395 195.414 L462.159 195.414 M470.654 193.655 L470.654 208.447 L466.395 208.447 L466.395 204.511 Q464.937 206.873 462.761 208.007 Q460.585 209.118 457.437 209.118 Q453.455 209.118 451.094 206.896 Q448.756 204.65 448.756 200.9 Q448.756 196.525 451.673 194.303 Q454.613 192.081 460.423 192.081 L466.395 192.081 L466.395 191.664 Q466.395 188.725 464.451 187.127 Q462.529 185.507 459.034 185.507 Q456.812 185.507 454.705 186.039 Q452.599 186.572 450.654 187.637 L450.654 183.701 Q452.992 182.799 455.191 182.359 Q457.39 181.896 459.474 181.896 Q465.099 181.896 467.877 184.812 Q470.654 187.729 470.654 193.655 Z" fill="#000000" fill-rule="nonzero" fill-opacity="1" /><path clip-path="url(#clip540)" d="M478.988 198.215 L478.988 182.521 L483.247 182.521 L483.247 198.053 Q483.247 201.734 484.682 203.586 Q486.117 205.414 488.988 205.414 Q492.437 205.414 494.427 203.215 Q496.441 201.016 496.441 197.22 L496.441 182.521 L500.7 182.521 L500.7 208.447 L496.441 208.447 L496.441 204.465 Q494.89 206.826 492.83 207.984 Q490.793 209.118 488.085 209.118 Q483.617 209.118 481.302 206.34 Q478.988 203.562 478.988 198.215 M489.705 181.896 L489.705 181.896 Z" fill="#000000" fill-rule="nonzero" fill-opacity="1" /><path clip-path="url(#clip540)" d="M526.001 183.285 L526.001 187.312 Q524.196 186.387 522.251 185.924 Q520.307 185.461 518.223 185.461 Q515.052 185.461 513.455 186.433 Q511.881 187.405 511.881 189.349 Q511.881 190.831 513.015 191.687 Q514.149 192.521 517.575 193.285 L519.034 193.609 Q523.571 194.581 525.469 196.363 Q527.39 198.123 527.39 201.294 Q527.39 204.905 524.52 207.011 Q521.673 209.118 516.673 209.118 Q514.589 209.118 512.321 208.701 Q510.075 208.308 507.575 207.498 L507.575 203.099 Q509.936 204.326 512.228 204.951 Q514.52 205.553 516.765 205.553 Q519.774 205.553 521.395 204.535 Q523.015 203.493 523.015 201.618 Q523.015 199.882 521.835 198.956 Q520.677 198.03 516.719 197.174 L515.237 196.826 Q511.279 195.993 509.52 194.28 Q507.761 192.544 507.761 189.535 Q507.761 185.877 510.353 183.887 Q512.946 181.896 517.714 181.896 Q520.075 181.896 522.159 182.243 Q524.242 182.59 526.001 183.285 Z" fill="#000000" fill-rule="nonzero" fill-opacity="1" /><path clip-path="url(#clip540)" d="M556.348 194.419 L556.348 196.502 L536.765 196.502 Q537.043 200.9 539.404 203.215 Q541.788 205.507 546.024 205.507 Q548.478 205.507 550.77 204.905 Q553.084 204.303 555.353 203.099 L555.353 207.127 Q553.061 208.099 550.654 208.609 Q548.246 209.118 545.77 209.118 Q539.566 209.118 535.932 205.507 Q532.321 201.896 532.321 195.738 Q532.321 189.373 535.747 185.646 Q539.196 181.896 545.029 181.896 Q550.26 181.896 553.293 185.275 Q556.348 188.632 556.348 194.419 M552.089 193.169 Q552.043 189.674 550.121 187.59 Q548.223 185.507 545.075 185.507 Q541.51 185.507 539.358 187.521 Q537.228 189.535 536.904 193.192 L552.089 193.169 Z" fill="#000000" fill-rule="nonzero" fill-opacity="1" /><path clip-path="url(#clip540)" d="M583.038 204.511 L599.357 204.511 L599.357 208.447 L577.413 208.447 L577.413 204.511 Q580.075 201.757 584.658 197.127 Q589.265 192.474 590.445 191.132 Q592.691 188.609 593.57 186.873 Q594.473 185.113 594.473 183.424 Q594.473 180.669 592.529 178.933 Q590.607 177.197 587.505 177.197 Q585.306 177.197 582.853 177.961 Q580.422 178.725 577.644 180.275 L577.644 175.553 Q580.468 174.419 582.922 173.84 Q585.376 173.262 587.413 173.262 Q592.783 173.262 595.978 175.947 Q599.172 178.632 599.172 183.123 Q599.172 185.252 598.362 187.174 Q597.575 189.072 595.468 191.664 Q594.89 192.336 591.788 195.553 Q588.686 198.748 583.038 204.511 Z" fill="#000000" fill-rule="nonzero" fill-opacity="1" /><polyline clip-path="url(#clip540)" style="stroke:#3da44d; stroke-linecap:round; stroke-linejoin:round; stroke-width:4; stroke-opacity:1; fill:none" points="293.953,243.007 404.102,243.007 "/>
<path clip-path="url(#clip540)" d="M442.969 235.356 L442.969 239.338 Q441.164 238.342 439.335 237.856 Q437.529 237.347 435.678 237.347 Q431.534 237.347 429.242 239.986 Q426.951 242.602 426.951 247.347 Q426.951 252.092 429.242 254.731 Q431.534 257.347 435.678 257.347 Q437.529 257.347 439.335 256.861 Q441.164 256.351 442.969 255.356 L442.969 259.291 Q441.187 260.125 439.266 260.541 Q437.367 260.958 435.215 260.958 Q429.358 260.958 425.909 257.277 Q422.46 253.597 422.46 247.347 Q422.46 241.004 425.932 237.37 Q429.428 233.736 435.492 233.736 Q437.46 233.736 439.335 234.153 Q441.21 234.546 442.969 235.356 Z" fill="#000000" fill-rule="nonzero" fill-opacity="1" /><path clip-path="url(#clip540)" d="M462.159 247.254 Q456.997 247.254 455.006 248.435 Q453.015 249.615 453.015 252.463 Q453.015 254.731 454.497 256.074 Q456.002 257.393 458.571 257.393 Q462.113 257.393 464.242 254.893 Q466.395 252.37 466.395 248.203 L466.395 247.254 L462.159 247.254 M470.654 245.495 L470.654 260.287 L466.395 260.287 L466.395 256.351 Q464.937 258.713 462.761 259.847 Q460.585 260.958 457.437 260.958 Q453.455 260.958 451.094 258.736 Q448.756 256.49 448.756 252.74 Q448.756 248.365 451.673 246.143 Q454.613 243.921 460.423 243.921 L466.395 243.921 L466.395 243.504 Q466.395 240.565 464.451 238.967 Q462.529 237.347 459.034 237.347 Q456.812 237.347 454.705 237.879 Q452.599 238.412 450.654 239.477 L450.654 235.541 Q452.992 234.639 455.191 234.199 Q457.39 233.736 459.474 233.736 Q465.099 233.736 467.877 236.652 Q470.654 239.569 470.654 245.495 Z" fill="#000000" fill-rule="nonzero" fill-opacity="1" /><path clip-path="url(#clip540)" d="M478.988 250.055 L478.988 234.361 L483.247 234.361 L483.247 249.893 Q483.247 253.574 484.682 255.426 Q486.117 257.254 488.988 257.254 Q492.437 257.254 494.427 255.055 Q496.441 252.856 496.441 249.06 L496.441 234.361 L500.7 234.361 L500.7 260.287 L496.441 260.287 L496.441 256.305 Q494.89 258.666 492.83 259.824 Q490.793 260.958 488.085 260.958 Q483.617 260.958 481.302 258.18 Q478.988 255.402 478.988 250.055 M489.705 233.736 L489.705 233.736 Z" fill="#000000" fill-rule="nonzero" fill-opacity="1" /><path clip-path="url(#clip540)" d="M526.001 235.125 L526.001 239.152 Q524.196 238.227 522.251 237.764 Q520.307 237.301 518.223 237.301 Q515.052 237.301 513.455 238.273 Q511.881 239.245 511.881 241.189 Q511.881 242.671 513.015 243.527 Q514.149 244.361 517.575 245.125 L519.034 245.449 Q523.571 246.421 525.469 248.203 Q527.39 249.963 527.39 253.134 Q527.39 256.745 524.52 258.851 Q521.673 260.958 516.673 260.958 Q514.589 260.958 512.321 260.541 Q510.075 260.148 507.575 259.338 L507.575 254.939 Q509.936 256.166 512.228 256.791 Q514.52 257.393 516.765 257.393 Q519.774 257.393 521.395 256.375 Q523.015 255.333 523.015 253.458 Q523.015 251.722 521.835 250.796 Q520.677 249.87 516.719 249.014 L515.237 248.666 Q511.279 247.833 509.52 246.12 Q507.761 244.384 507.761 241.375 Q507.761 237.717 510.353 235.727 Q512.946 233.736 517.714 233.736 Q520.075 233.736 522.159 234.083 Q524.242 234.43 526.001 235.125 Z" fill="#000000" fill-rule="nonzero" fill-opacity="1" /><path clip-path="url(#clip540)" d="M556.348 246.259 L556.348 248.342 L536.765 248.342 Q537.043 252.74 539.404 255.055 Q541.788 257.347 546.024 257.347 Q548.478 257.347 550.77 256.745 Q553.084 256.143 555.353 254.939 L555.353 258.967 Q553.061 259.939 550.654 260.449 Q548.246 260.958 545.77 260.958 Q539.566 260.958 535.932 257.347 Q532.321 253.736 532.321 247.578 Q532.321 241.213 535.747 237.486 Q539.196 233.736 545.029 233.736 Q550.26 233.736 553.293 237.115 Q556.348 240.472 556.348 246.259 M552.089 245.009 Q552.043 241.514 550.121 239.43 Q548.223 237.347 545.075 237.347 Q541.51 237.347 539.358 239.361 Q537.228 241.375 536.904 245.032 L552.089 245.009 Z" fill="#000000" fill-rule="nonzero" fill-opacity="1" /><path clip-path="url(#clip540)" d="M593.177 241.652 Q596.533 242.37 598.408 244.639 Q600.306 246.907 600.306 250.24 Q600.306 255.356 596.788 258.157 Q593.269 260.958 586.788 260.958 Q584.612 260.958 582.297 260.518 Q580.006 260.101 577.552 259.245 L577.552 254.731 Q579.496 255.865 581.811 256.444 Q584.126 257.023 586.649 257.023 Q591.047 257.023 593.339 255.287 Q595.654 253.551 595.654 250.24 Q595.654 247.185 593.501 245.472 Q591.371 243.736 587.552 243.736 L583.524 243.736 L583.524 239.893 L587.737 239.893 Q591.186 239.893 593.015 238.527 Q594.843 237.139 594.843 234.546 Q594.843 231.884 592.945 230.472 Q591.07 229.037 587.552 229.037 Q585.631 229.037 583.431 229.453 Q581.232 229.87 578.594 230.75 L578.594 226.583 Q581.256 225.842 583.57 225.472 Q585.908 225.102 587.968 225.102 Q593.293 225.102 596.394 227.532 Q599.496 229.94 599.496 234.06 Q599.496 236.93 597.853 238.921 Q596.209 240.889 593.177 241.652 Z" fill="#000000" fill-rule="nonzero" fill-opacity="1" /></svg>
