<?xml version="1.0" encoding="utf-8"?>
<svg xmlns="http://www.w3.org/2000/svg" xmlns:xlink="http://www.w3.org/1999/xlink" width="480" height="360" viewBox="0 0 1920 1440">
<defs>
  <clipPath id="clip580">
    <rect x="0" y="0" width="1920" height="1440"/>
  </clipPath>
</defs>
<path clip-path="url(#clip580)" d="M0 1440 L1920 1440 L1920 0 L0 0  Z" fill="#ffffff" fill-rule="evenodd" fill-opacity="1"/>
<defs>
  <clipPath id="clip581">
    <rect x="384" y="0" width="1345" height="1345"/>
  </clipPath>
</defs>
<path clip-path="url(#clip580)" d="M229.381 1254.52 L1872.76 1254.52 L1872.76 47.2441 L229.381 47.2441  Z" fill="#ffffff" fill-rule="evenodd" fill-opacity="1"/>
<defs>
  <clipPath id="clip582">
    <rect x="229" y="47" width="1644" height="1208"/>
  </clipPath>
</defs>
<polyline clip-path="url(#clip582)" style="stroke:#000000; stroke-linecap:round; stroke-linejoin:round; stroke-width:2; stroke-opacity:0.1; fill:none" points="229.381,1254.52 229.381,47.2441 "/>
<polyline clip-path="url(#clip582)" style="stroke:#000000; stroke-linecap:round; stroke-linejoin:round; stroke-width:2; stroke-opacity:0.1; fill:none" points="727.373,1254.52 727.373,47.2441 "/>
<polyline clip-path="url(#clip582)" style="stroke:#000000; stroke-linecap:round; stroke-linejoin:round; stroke-width:2; stroke-opacity:0.1; fill:none" points="1225.37,1254.52 1225.37,47.2441 "/>
<polyline clip-path="url(#clip582)" style="stroke:#000000; stroke-linecap:round; stroke-linejoin:round; stroke-width:2; stroke-opacity:0.1; fill:none" points="1723.36,1254.52 1723.36,47.2441 "/>
<polyline clip-path="url(#clip582)" style="stroke:#000000; stroke-linecap:round; stroke-linejoin:round; stroke-width:2; stroke-opacity:0.1; fill:none" points="229.381,1254.52 1872.76,1254.52 "/>
<polyline clip-path="url(#clip582)" style="stroke:#000000; stroke-linecap:round; stroke-linejoin:round; stroke-width:2; stroke-opacity:0.1; fill:none" points="229.381,1003 1872.76,1003 "/>
<polyline clip-path="url(#clip582)" style="stroke:#000000; stroke-linecap:round; stroke-linejoin:round; stroke-width:2; stroke-opacity:0.1; fill:none" points="229.381,751.488 1872.76,751.488 "/>
<polyline clip-path="url(#clip582)" style="stroke:#000000; stroke-linecap:round; stroke-linejoin:round; stroke-width:2; stroke-opacity:0.1; fill:none" points="229.381,499.972 1872.76,499.972 "/>
<polyline clip-path="url(#clip582)" style="stroke:#000000; stroke-linecap:round; stroke-linejoin:round; stroke-width:2; stroke-opacity:0.1; fill:none" points="229.381,248.457 1872.76,248.457 "/>
<polyline clip-path="url(#clip580)" style="stroke:#000000; stroke-linecap:round; stroke-linejoin:round; stroke-width:4; stroke-opacity:1; fill:none" points="229.381,1254.52 1872.76,1254.52 "/>
<polyline clip-path="url(#clip580)" style="stroke:#000000; stroke-linecap:round; stroke-linejoin:round; stroke-width:4; stroke-opacity:1; fill:none" points="229.381,1254.52 229.381,1235.62 "/>
<polyline clip-path="url(#clip580)" style="stroke:#000000; stroke-linecap:round; stroke-linejoin:round; stroke-width:4; stroke-opacity:1; fill:none" points="727.373,1254.52 727.373,1235.62 "/>
<polyline clip-path="url(#clip580)" style="stroke:#000000; stroke-linecap:round; stroke-linejoin:round; stroke-width:4; stroke-opacity:1; fill:none" points="1225.37,1254.52 1225.37,1235.62 "/>
<polyline clip-path="url(#clip580)" style="stroke:#000000; stroke-linecap:round; stroke-linejoin:round; stroke-width:4; stroke-opacity:1; fill:none" points="1723.36,1254.52 1723.36,1235.62 "/>
<path clip-path="url(#clip580)" d="M206.765 1281.6 Q203.154 1281.6 201.326 1285.16 Q199.52 1288.7 199.52 1295.83 Q199.52 1302.94 201.326 1306.51 Q203.154 1310.05 206.765 1310.05 Q210.4 1310.05 212.205 1306.51 Q214.034 1302.94 214.034 1295.83 Q214.034 1288.7 212.205 1285.16 Q210.4 1281.6 206.765 1281.6 M206.765 1277.89 Q212.575 1277.89 215.631 1282.5 Q218.71 1287.08 218.71 1295.83 Q218.71 1304.56 215.631 1309.17 Q212.575 1313.75 206.765 1313.75 Q200.955 1313.75 197.876 1309.17 Q194.821 1304.56 194.821 1295.83 Q194.821 1287.08 197.876 1282.5 Q200.955 1277.89 206.765 1277.89 Z" fill="#000000" fill-rule="nonzero" fill-opacity="1" /><path clip-path="url(#clip580)" d="M226.927 1307.2 L231.811 1307.2 L231.811 1313.08 L226.927 1313.08 L226.927 1307.2 Z" fill="#000000" fill-rule="nonzero" fill-opacity="1" /><path clip-path="url(#clip580)" d="M251.997 1281.6 Q248.385 1281.6 246.557 1285.16 Q244.751 1288.7 244.751 1295.83 Q244.751 1302.94 246.557 1306.51 Q248.385 1310.05 251.997 1310.05 Q255.631 1310.05 257.436 1306.51 Q259.265 1302.94 259.265 1295.83 Q259.265 1288.7 257.436 1285.16 Q255.631 1281.6 251.997 1281.6 M251.997 1277.89 Q257.807 1277.89 260.862 1282.5 Q263.941 1287.08 263.941 1295.83 Q263.941 1304.56 260.862 1309.17 Q257.807 1313.75 251.997 1313.75 Q246.186 1313.75 243.108 1309.17 Q240.052 1304.56 240.052 1295.83 Q240.052 1287.08 243.108 1282.5 Q246.186 1277.89 251.997 1277.89 Z" fill="#000000" fill-rule="nonzero" fill-opacity="1" /><path clip-path="url(#clip580)" d="M705.255 1281.6 Q701.644 1281.6 699.816 1285.16 Q698.01 1288.7 698.01 1295.83 Q698.01 1302.94 699.816 1306.51 Q701.644 1310.05 705.255 1310.05 Q708.89 1310.05 710.695 1306.51 Q712.524 1302.94 712.524 1295.83 Q712.524 1288.7 710.695 1285.16 Q708.89 1281.6 705.255 1281.6 M705.255 1277.89 Q711.066 1277.89 714.121 1282.5 Q717.2 1287.08 717.2 1295.83 Q717.2 1304.56 714.121 1309.17 Q711.066 1313.75 705.255 1313.75 Q699.445 1313.75 696.367 1309.17 Q693.311 1304.56 693.311 1295.83 Q693.311 1287.08 696.367 1282.5 Q699.445 1277.89 705.255 1277.89 Z" fill="#000000" fill-rule="nonzero" fill-opacity="1" /><path clip-path="url(#clip580)" d="M725.417 1307.2 L730.302 1307.2 L730.302 1313.08 L725.417 1313.08 L725.417 1307.2 Z" fill="#000000" fill-rule="nonzero" fill-opacity="1" /><path clip-path="url(#clip580)" d="M740.533 1278.52 L758.889 1278.52 L758.889 1282.46 L744.815 1282.46 L744.815 1290.93 Q745.834 1290.58 746.852 1290.42 Q747.871 1290.23 748.889 1290.23 Q754.676 1290.23 758.056 1293.4 Q761.436 1296.58 761.436 1301.99 Q761.436 1307.57 757.963 1310.67 Q754.491 1313.75 748.172 1313.75 Q745.996 1313.75 743.727 1313.38 Q741.482 1313.01 739.075 1312.27 L739.075 1307.57 Q741.158 1308.7 743.38 1309.26 Q745.602 1309.82 748.079 1309.82 Q752.084 1309.82 754.422 1307.71 Q756.76 1305.6 756.76 1301.99 Q756.76 1298.38 754.422 1296.27 Q752.084 1294.17 748.079 1294.17 Q746.204 1294.17 744.329 1294.58 Q742.477 1295 740.533 1295.88 L740.533 1278.52 Z" fill="#000000" fill-rule="nonzero" fill-opacity="1" /><path clip-path="url(#clip580)" d="M1192.52 1309.14 L1200.16 1309.14 L1200.16 1282.78 L1191.85 1284.45 L1191.85 1280.19 L1200.11 1278.52 L1204.79 1278.52 L1204.79 1309.14 L1212.43 1309.14 L1212.43 1313.08 L1192.52 1313.08 L1192.52 1309.14 Z" fill="#000000" fill-rule="nonzero" fill-opacity="1" /><path clip-path="url(#clip580)" d="M1221.87 1307.2 L1226.75 1307.2 L1226.75 1313.08 L1221.87 1313.08 L1221.87 1307.2 Z" fill="#000000" fill-rule="nonzero" fill-opacity="1" /><path clip-path="url(#clip580)" d="M1246.94 1281.6 Q1243.33 1281.6 1241.5 1285.16 Q1239.69 1288.7 1239.69 1295.83 Q1239.69 1302.94 1241.5 1306.51 Q1243.33 1310.05 1246.94 1310.05 Q1250.57 1310.05 1252.38 1306.51 Q1254.21 1302.94 1254.21 1295.83 Q1254.21 1288.7 1252.38 1285.16 Q1250.57 1281.6 1246.94 1281.6 M1246.94 1277.89 Q1252.75 1277.89 1255.81 1282.5 Q1258.88 1287.08 1258.88 1295.83 Q1258.88 1304.56 1255.81 1309.17 Q1252.75 1313.75 1246.94 1313.75 Q1241.13 1313.75 1238.05 1309.17 Q1235 1304.56 1235 1295.83 Q1235 1287.08 1238.05 1282.5 Q1241.13 1277.89 1246.94 1277.89 Z" fill="#000000" fill-rule="nonzero" fill-opacity="1" /><path clip-path="url(#clip580)" d="M1691.01 1309.14 L1698.65 1309.14 L1698.65 1282.78 L1690.34 1284.45 L1690.34 1280.19 L1698.6 1278.52 L1703.28 1278.52 L1703.28 1309.14 L1710.92 1309.14 L1710.92 1313.08 L1691.01 1313.08 L1691.01 1309.14 Z" fill="#000000" fill-rule="nonzero" fill-opacity="1" /><path clip-path="url(#clip580)" d="M1720.36 1307.2 L1725.24 1307.2 L1725.24 1313.08 L1720.36 1313.08 L1720.36 1307.2 Z" fill="#000000" fill-rule="nonzero" fill-opacity="1" /><path clip-path="url(#clip580)" d="M1735.48 1278.52 L1753.83 1278.52 L1753.83 1282.46 L1739.76 1282.46 L1739.76 1290.93 Q1740.78 1290.58 1741.8 1290.42 Q1742.81 1290.23 1743.83 1290.23 Q1749.62 1290.23 1753 1293.4 Q1756.38 1296.58 1756.38 1301.99 Q1756.38 1307.57 1752.91 1310.67 Q1749.43 1313.75 1743.12 1313.75 Q1740.94 1313.75 1738.67 1313.38 Q1736.43 1313.01 1734.02 1312.27 L1734.02 1307.57 Q1736.1 1308.7 1738.32 1309.26 Q1740.55 1309.82 1743.02 1309.82 Q1747.03 1309.82 1749.36 1307.71 Q1751.7 1305.6 1751.7 1301.99 Q1751.7 1298.38 1749.36 1296.27 Q1747.03 1294.17 1743.02 1294.17 Q1741.15 1294.17 1739.27 1294.58 Q1737.42 1295 1735.48 1295.88 L1735.48 1278.52 Z" fill="#000000" fill-rule="nonzero" fill-opacity="1" /><path clip-path="url(#clip580)" d="M1059.54 1356.05 Q1059.54 1356.95 1059.12 1357.18 Q1058.7 1357.37 1057.54 1357.37 L1051.36 1357.37 L1046.46 1376.82 Q1046.08 1378.53 1046.08 1379.98 Q1046.08 1381.59 1046.56 1382.3 Q1047.08 1383.01 1048.14 1383.01 Q1050.23 1383.01 1052.49 1381.11 Q1054.77 1379.21 1056.71 1374.57 Q1056.96 1373.96 1057.09 1373.83 Q1057.25 1373.67 1057.67 1373.67 Q1058.48 1373.67 1058.48 1374.31 Q1058.48 1374.54 1058.03 1375.57 Q1057.61 1376.6 1056.67 1378.11 Q1055.77 1379.62 1054.58 1381.04 Q1053.42 1382.46 1051.65 1383.49 Q1049.88 1384.49 1047.98 1384.49 Q1045.3 1384.49 1043.6 1382.78 Q1041.92 1381.07 1041.92 1378.4 Q1041.92 1377.53 1042.6 1374.76 Q1043.28 1371.96 1046.95 1357.37 L1041.12 1357.37 Q1040.31 1357.37 1039.99 1357.34 Q1039.7 1357.31 1039.48 1357.14 Q1039.28 1356.95 1039.28 1356.57 Q1039.28 1355.95 1039.54 1355.7 Q1039.8 1355.41 1040.12 1355.37 Q1040.47 1355.31 1041.28 1355.31 L1047.46 1355.31 L1050.04 1344.84 Q1050.3 1343.81 1050.94 1343.23 Q1051.62 1342.62 1052 1342.56 Q1052.39 1342.46 1052.68 1342.46 Q1053.55 1342.46 1054.06 1342.94 Q1054.58 1343.39 1054.58 1344.23 Q1054.58 1344.68 1051.87 1355.31 L1057.67 1355.31 Q1058.41 1355.31 1058.7 1355.34 Q1059.02 1355.37 1059.28 1355.53 Q1059.54 1355.7 1059.54 1356.05 Z" fill="#000000" fill-rule="nonzero" fill-opacity="1" /><polyline clip-path="url(#clip580)" style="stroke:#000000; stroke-linecap:round; stroke-linejoin:round; stroke-width:4; stroke-opacity:1; fill:none" points="229.381,1254.52 229.381,47.2441 "/>
<polyline clip-path="url(#clip580)" style="stroke:#000000; stroke-linecap:round; stroke-linejoin:round; stroke-width:4; stroke-opacity:1; fill:none" points="229.381,1254.52 248.279,1254.52 "/>
<polyline clip-path="url(#clip580)" style="stroke:#000000; stroke-linecap:round; stroke-linejoin:round; stroke-width:4; stroke-opacity:1; fill:none" points="229.381,1003 248.279,1003 "/>
<polyline clip-path="url(#clip580)" style="stroke:#000000; stroke-linecap:round; stroke-linejoin:round; stroke-width:4; stroke-opacity:1; fill:none" points="229.381,751.488 248.279,751.488 "/>
<polyline clip-path="url(#clip580)" style="stroke:#000000; stroke-linecap:round; stroke-linejoin:round; stroke-width:4; stroke-opacity:1; fill:none" points="229.381,499.972 248.279,499.972 "/>
<polyline clip-path="url(#clip580)" style="stroke:#000000; stroke-linecap:round; stroke-linejoin:round; stroke-width:4; stroke-opacity:1; fill:none" points="229.381,248.457 248.279,248.457 "/>
<path clip-path="url(#clip580)" d="M143.405 1240.32 Q139.794 1240.32 137.966 1243.88 Q136.16 1247.42 136.16 1254.55 Q136.16 1261.66 137.966 1265.23 Q139.794 1268.77 143.405 1268.77 Q147.04 1268.77 148.845 1265.23 Q150.674 1261.66 150.674 1254.55 Q150.674 1247.42 148.845 1243.88 Q147.04 1240.32 143.405 1240.32 M143.405 1236.61 Q149.215 1236.61 152.271 1241.22 Q155.35 1245.8 155.35 1254.55 Q155.35 1263.28 152.271 1267.89 Q149.215 1272.47 143.405 1272.47 Q137.595 1272.47 134.516 1267.89 Q131.461 1263.28 131.461 1254.55 Q131.461 1245.8 134.516 1241.22 Q137.595 1236.61 143.405 1236.61 Z" fill="#000000" fill-rule="nonzero" fill-opacity="1" /><path clip-path="url(#clip580)" d="M163.567 1265.92 L168.451 1265.92 L168.451 1271.8 L163.567 1271.8 L163.567 1265.92 Z" fill="#000000" fill-rule="nonzero" fill-opacity="1" /><path clip-path="url(#clip580)" d="M188.637 1240.32 Q185.025 1240.32 183.197 1243.88 Q181.391 1247.42 181.391 1254.55 Q181.391 1261.66 183.197 1265.23 Q185.025 1268.77 188.637 1268.77 Q192.271 1268.77 194.076 1265.23 Q195.905 1261.66 195.905 1254.55 Q195.905 1247.42 194.076 1243.88 Q192.271 1240.32 188.637 1240.32 M188.637 1236.61 Q194.447 1236.61 197.502 1241.22 Q200.581 1245.8 200.581 1254.55 Q200.581 1263.28 197.502 1267.89 Q194.447 1272.47 188.637 1272.47 Q182.826 1272.47 179.748 1267.89 Q176.692 1263.28 176.692 1254.55 Q176.692 1245.8 179.748 1241.22 Q182.826 1236.61 188.637 1236.61 Z" fill="#000000" fill-rule="nonzero" fill-opacity="1" /><path clip-path="url(#clip580)" d="M144.632 988.803 Q141.021 988.803 139.192 992.368 Q137.387 995.909 137.387 1003.04 Q137.387 1010.15 139.192 1013.71 Q141.021 1017.25 144.632 1017.25 Q148.266 1017.25 150.072 1013.71 Q151.901 1010.15 151.901 1003.04 Q151.901 995.909 150.072 992.368 Q148.266 988.803 144.632 988.803 M144.632 985.099 Q150.442 985.099 153.498 989.706 Q156.577 994.289 156.577 1003.04 Q156.577 1011.77 153.498 1016.37 Q150.442 1020.96 144.632 1020.96 Q138.822 1020.96 135.743 1016.37 Q132.688 1011.77 132.688 1003.04 Q132.688 994.289 135.743 989.706 Q138.822 985.099 144.632 985.099 Z" fill="#000000" fill-rule="nonzero" fill-opacity="1" /><path clip-path="url(#clip580)" d="M164.794 1014.4 L169.678 1014.4 L169.678 1020.28 L164.794 1020.28 L164.794 1014.4 Z" fill="#000000" fill-rule="nonzero" fill-opacity="1" /><path clip-path="url(#clip580)" d="M180.674 1016.35 L188.313 1016.35 L188.313 989.983 L180.002 991.65 L180.002 987.391 L188.266 985.724 L192.942 985.724 L192.942 1016.35 L200.581 1016.35 L200.581 1020.28 L180.674 1020.28 L180.674 1016.35 Z" fill="#000000" fill-rule="nonzero" fill-opacity="1" /><path clip-path="url(#clip580)" d="M145.003 737.287 Q141.391 737.287 139.563 740.852 Q137.757 744.393 137.757 751.523 Q137.757 758.629 139.563 762.194 Q141.391 765.736 145.003 765.736 Q148.637 765.736 150.442 762.194 Q152.271 758.629 152.271 751.523 Q152.271 744.393 150.442 740.852 Q148.637 737.287 145.003 737.287 M145.003 733.583 Q150.813 733.583 153.868 738.19 Q156.947 742.773 156.947 751.523 Q156.947 760.25 153.868 764.856 Q150.813 769.44 145.003 769.44 Q139.192 769.44 136.114 764.856 Q133.058 760.25 133.058 751.523 Q133.058 742.773 136.114 738.19 Q139.192 733.583 145.003 733.583 Z" fill="#000000" fill-rule="nonzero" fill-opacity="1" /><path clip-path="url(#clip580)" d="M165.164 762.889 L170.049 762.889 L170.049 768.768 L165.164 768.768 L165.164 762.889 Z" fill="#000000" fill-rule="nonzero" fill-opacity="1" /><path clip-path="url(#clip580)" d="M184.262 764.833 L200.581 764.833 L200.581 768.768 L178.637 768.768 L178.637 764.833 Q181.299 762.079 185.882 757.449 Q190.488 752.796 191.669 751.454 Q193.914 748.93 194.794 747.194 Q195.697 745.435 195.697 743.745 Q195.697 740.991 193.752 739.255 Q191.831 737.518 188.729 737.518 Q186.53 737.518 184.076 738.282 Q181.646 739.046 178.868 740.597 L178.868 735.875 Q181.692 734.741 184.146 734.162 Q186.6 733.583 188.637 733.583 Q194.007 733.583 197.201 736.268 Q200.396 738.954 200.396 743.444 Q200.396 745.574 199.586 747.495 Q198.799 749.393 196.692 751.986 Q196.113 752.657 193.012 755.875 Q189.91 759.069 184.262 764.833 Z" fill="#000000" fill-rule="nonzero" fill-opacity="1" /><path clip-path="url(#clip580)" d="M144.053 485.771 Q140.442 485.771 138.614 489.336 Q136.808 492.878 136.808 500.007 Q136.808 507.114 138.614 510.678 Q140.442 514.22 144.053 514.22 Q147.688 514.22 149.493 510.678 Q151.322 507.114 151.322 500.007 Q151.322 492.878 149.493 489.336 Q147.688 485.771 144.053 485.771 M144.053 482.068 Q149.864 482.068 152.919 486.674 Q155.998 491.257 155.998 500.007 Q155.998 508.734 152.919 513.34 Q149.864 517.924 144.053 517.924 Q138.243 517.924 135.165 513.34 Q132.109 508.734 132.109 500.007 Q132.109 491.257 135.165 486.674 Q138.243 482.068 144.053 482.068 Z" fill="#000000" fill-rule="nonzero" fill-opacity="1" /><path clip-path="url(#clip580)" d="M164.215 511.373 L169.1 511.373 L169.1 517.252 L164.215 517.252 L164.215 511.373 Z" fill="#000000" fill-rule="nonzero" fill-opacity="1" /><path clip-path="url(#clip580)" d="M193.451 498.618 Q196.808 499.336 198.683 501.604 Q200.581 503.873 200.581 507.206 Q200.581 512.322 197.062 515.123 Q193.544 517.924 187.063 517.924 Q184.887 517.924 182.572 517.484 Q180.28 517.067 177.826 516.211 L177.826 511.697 Q179.771 512.831 182.086 513.41 Q184.4 513.989 186.924 513.989 Q191.322 513.989 193.613 512.253 Q195.928 510.516 195.928 507.206 Q195.928 504.151 193.775 502.438 Q191.646 500.702 187.826 500.702 L183.799 500.702 L183.799 496.859 L188.012 496.859 Q191.461 496.859 193.289 495.493 Q195.118 494.104 195.118 491.512 Q195.118 488.85 193.22 487.438 Q191.345 486.003 187.826 486.003 Q185.905 486.003 183.706 486.419 Q181.507 486.836 178.868 487.716 L178.868 483.549 Q181.53 482.808 183.845 482.438 Q186.183 482.068 188.243 482.068 Q193.567 482.068 196.669 484.498 Q199.771 486.905 199.771 491.026 Q199.771 493.896 198.127 495.887 Q196.484 497.854 193.451 498.618 Z" fill="#000000" fill-rule="nonzero" fill-opacity="1" /><path clip-path="url(#clip580)" d="M142.919 234.255 Q139.308 234.255 137.479 237.82 Q135.674 241.362 135.674 248.491 Q135.674 255.598 137.479 259.163 Q139.308 262.704 142.919 262.704 Q146.553 262.704 148.359 259.163 Q150.188 255.598 150.188 248.491 Q150.188 241.362 148.359 237.82 Q146.553 234.255 142.919 234.255 M142.919 230.552 Q148.729 230.552 151.785 235.158 Q154.864 239.741 154.864 248.491 Q154.864 257.218 151.785 261.825 Q148.729 266.408 142.919 266.408 Q137.109 266.408 134.03 261.825 Q130.975 257.218 130.975 248.491 Q130.975 239.741 134.03 235.158 Q137.109 230.552 142.919 230.552 Z" fill="#000000" fill-rule="nonzero" fill-opacity="1" /><path clip-path="url(#clip580)" d="M163.081 259.857 L167.965 259.857 L167.965 265.737 L163.081 265.737 L163.081 259.857 Z" fill="#000000" fill-rule="nonzero" fill-opacity="1" /><path clip-path="url(#clip580)" d="M190.998 235.251 L179.192 253.7 L190.998 253.7 L190.998 235.251 M189.771 231.177 L195.65 231.177 L195.65 253.7 L200.581 253.7 L200.581 257.589 L195.65 257.589 L195.65 265.737 L190.998 265.737 L190.998 257.589 L175.396 257.589 L175.396 253.075 L189.771 231.177 Z" fill="#000000" fill-rule="nonzero" fill-opacity="1" /><path clip-path="url(#clip580)" d="M35.009 686.203 Q36.7803 686.203 37.8753 687.33 Q38.9703 688.425 38.9703 689.81 Q38.9703 690.808 38.3584 691.549 Q37.7465 692.258 36.6837 692.258 Q35.5887 692.258 34.4293 691.42 Q33.2699 690.583 33.1088 688.683 Q31.9172 689.939 31.9172 691.936 Q31.9172 692.934 32.5613 693.771 Q33.1732 694.576 34.1716 695.027 Q35.2022 695.51 41.0315 696.605 Q42.9316 696.96 44.7674 697.282 Q46.6031 697.604 48.5354 697.99 L48.5354 692.515 Q48.5354 691.807 48.5677 691.517 Q48.5999 691.227 48.7609 691.002 Q48.9219 690.744 49.2762 690.744 Q50.1779 690.744 50.4034 691.163 Q50.5966 691.549 50.5966 692.708 L50.5966 698.377 L71.4982 702.338 Q72.1101 702.435 74.0425 702.853 Q75.9426 703.24 79.0666 704.174 Q82.2228 705.108 84.0907 706.042 Q85.1535 706.557 86.1519 707.233 Q87.1825 707.877 88.2131 708.811 Q89.2437 709.745 89.8556 710.969 Q90.4997 712.193 90.4997 713.481 Q90.4997 715.671 89.2759 717.378 Q88.052 719.085 85.9587 719.085 Q84.1873 719.085 83.0923 717.99 Q81.9973 716.863 81.9973 715.478 Q81.9973 714.48 82.6092 713.771 Q83.2212 713.03 84.284 713.03 Q84.7348 713.03 85.2501 713.191 Q85.7654 713.352 86.3451 713.707 Q86.957 714.061 87.3757 714.834 Q87.7944 715.607 87.8588 716.67 Q89.0504 715.414 89.0504 713.481 Q89.0504 712.869 88.7928 712.322 Q88.5673 711.774 87.9876 711.323 Q87.4079 710.84 86.8282 710.486 Q86.2807 710.132 85.2179 709.778 Q84.1873 709.423 83.4144 709.198 Q82.6415 708.972 81.2566 708.683 Q79.8717 708.361 79.0344 708.2 Q78.2292 708.038 76.6512 707.749 L50.5966 702.821 L50.5966 707.169 Q50.5966 707.942 50.5644 708.264 Q50.5322 708.554 50.3712 708.779 Q50.1779 709.005 49.7915 709.005 Q49.1796 709.005 48.9219 708.747 Q48.6321 708.457 48.5999 708.135 Q48.5354 707.813 48.5354 707.04 L48.5354 702.467 Q40.3874 700.921 38.1974 700.309 Q35.8785 699.601 34.2682 698.506 Q32.6257 697.411 31.8528 696.187 Q31.0799 694.963 30.79 693.965 Q30.468 692.934 30.468 691.936 Q30.468 689.681 31.6918 687.942 Q32.8834 686.203 35.009 686.203 Z" fill="#000000" fill-rule="nonzero" fill-opacity="1" /><path clip-path="url(#clip580)" d="M79.108 660.591 Q79.4461 660.591 79.9421 660.839 Q80.393 661.064 80.6861 661.537 Q80.9566 661.988 80.9566 662.484 Q80.9566 662.642 80.8664 663.003 Q80.5959 663.612 79.9872 664.558 Q79.3785 665.505 78.9953 666.362 Q78.5895 667.196 78.5444 668.12 Q78.5444 668.932 78.8374 669.608 Q79.1756 670.217 79.897 670.623 Q80.1901 670.803 80.6861 670.803 Q81.3849 670.803 82.3092 670.42 Q83.2335 670.037 84.4284 669.248 Q85.6232 668.436 86.4348 667.85 Q87.2239 667.264 88.5314 666.249 Q88.6441 666.159 88.7118 666.114 Q88.7569 666.069 88.8696 666.001 Q88.9597 665.934 89.0274 665.866 Q91.7101 663.724 94.6634 663.183 Q95.7004 663.048 96.7826 663.048 Q98.9468 663.048 101.494 663.702 Q103.816 664.265 105.823 665.46 Q107.807 666.655 109.114 668.459 Q110.422 670.24 110.422 672.178 Q110.422 674.095 109.588 675.673 Q108.731 677.251 107.266 678.198 Q105.327 679.483 102.644 679.483 Q101.134 679.483 99.8486 679.122 Q97.797 678.626 95.9033 677.454 Q94.0096 676.281 92.5443 674.591 Q90.38 672.02 89.7713 669.225 Q87.2915 670.533 85.3752 671.299 Q83.4364 672.043 81.7907 672.043 Q80.3479 672.043 79.4236 671.502 Q78.4317 671.029 77.868 670.059 Q77.3721 669.248 77.1241 668.075 Q77.0339 667.354 77.0339 666.88 Q77.0339 665.28 77.9131 661.56 Q78.1386 660.591 79.108 660.591 M98.6312 666.227 Q97.256 666.227 96.3317 666.452 Q94.0773 666.88 90.9662 668.594 L90.7407 668.729 Q91.372 670.916 93.2882 672.697 Q95.6328 674.929 100.074 676.056 Q102.554 676.665 103.952 676.665 Q105.462 676.665 106.77 676.101 Q107.987 675.56 108.686 674.545 Q109.385 673.508 109.385 672.133 Q109.385 671.096 108.799 670.194 Q108.19 669.293 107.13 668.639 Q106.071 667.985 104.921 667.534 Q103.749 667.061 102.373 666.7 Q100.525 666.227 98.6312 666.227 Z" fill="#000000" fill-rule="nonzero" fill-opacity="1" /><path clip-path="url(#clip580)" d="M60.4838 653.735 Q49.3406 653.735 40.3552 649.581 Q36.5871 647.809 33.4309 645.329 Q30.2747 642.85 28.8899 641.207 Q27.505 639.565 27.505 639.114 Q27.505 638.47 28.1491 638.437 Q28.4712 638.437 29.2763 639.307 Q40.0975 649.935 60.4838 649.903 Q80.9345 649.903 91.337 639.565 Q92.4642 638.437 92.8185 638.437 Q93.4626 638.437 93.4626 639.114 Q93.4626 639.565 92.1422 641.143 Q90.8217 642.721 87.7944 645.168 Q84.767 647.616 81.0634 649.387 Q72.0779 653.735 60.4838 653.735 Z" fill="#000000" fill-rule="nonzero" fill-opacity="1" /><path clip-path="url(#clip580)" d="M49.2762 613.167 Q50.1779 613.167 50.4034 613.586 Q50.5966 614.005 50.5966 615.164 L50.5966 621.348 L70.049 626.243 Q71.7559 626.629 73.2051 626.629 Q74.8154 626.629 75.524 626.146 Q76.2325 625.631 76.2325 624.568 Q76.2325 622.475 74.3323 620.22 Q72.4322 617.934 67.7945 616.002 Q67.1826 615.744 67.0538 615.615 Q66.8928 615.454 66.8928 615.035 Q66.8928 614.23 67.5369 614.23 Q67.7623 614.23 68.7929 614.681 Q69.8235 615.1 71.3372 616.034 Q72.8509 616.935 74.2679 618.127 Q75.685 619.287 76.7156 621.058 Q77.714 622.829 77.714 624.729 Q77.714 627.402 76.007 629.109 Q74.3001 630.784 71.627 630.784 Q70.7575 630.784 67.9878 630.108 Q65.1859 629.431 50.5966 625.76 L50.5966 631.589 Q50.5966 632.394 50.5644 632.716 Q50.5322 633.006 50.3712 633.232 Q50.1779 633.425 49.7915 633.425 Q49.1796 633.425 48.9219 633.167 Q48.6321 632.91 48.5999 632.588 Q48.5354 632.233 48.5354 631.428 L48.5354 625.245 L38.0685 622.668 Q37.038 622.41 36.4582 621.766 Q35.8463 621.09 35.7819 620.704 Q35.6853 620.317 35.6853 620.027 Q35.6853 619.158 36.1684 618.642 Q36.6193 618.127 37.4566 618.127 Q37.9075 618.127 48.5354 620.832 L48.5354 615.035 Q48.5354 614.295 48.5677 614.005 Q48.5999 613.683 48.7609 613.425 Q48.9219 613.167 49.2762 613.167 Z" fill="#000000" fill-rule="nonzero" fill-opacity="1" /><path clip-path="url(#clip580)" d="M92.8185 608.005 Q92.4964 608.005 91.6913 607.168 Q80.8701 596.54 60.4838 596.54 Q40.0331 596.54 29.695 606.749 Q28.5034 608.005 28.1491 608.005 Q27.505 608.005 27.505 607.361 Q27.505 606.91 28.8255 605.332 Q30.1459 603.722 33.1732 601.306 Q36.2006 598.859 39.9043 597.055 Q48.8897 592.707 60.4838 592.707 Q71.627 592.707 80.6125 596.862 Q84.3806 598.633 87.5367 601.113 Q90.6929 603.593 92.0778 605.235 Q93.4626 606.878 93.4626 607.361 Q93.4626 608.005 92.8185 608.005 Z" fill="#000000" fill-rule="nonzero" fill-opacity="1" /><polyline clip-path="url(#clip582)" style="stroke:#009af9; stroke-linecap:round; stroke-linejoin:round; stroke-width:4; stroke-opacity:1; fill:none" points="229.381,1254.52 239.341,767.869 249.301,649.487 259.26,566.282 269.22,500.759 279.18,446.493 289.14,400.291 299.1,360.293 309.06,325.306 319.02,294.504 328.979,267.292 338.939,243.22 348.899,221.937 358.859,203.162 368.819,186.667 378.779,172.26 388.739,159.779 398.698,149.084 408.658,140.055 418.618,132.584 428.578,126.575 438.538,121.942 448.498,118.608 458.457,116.5 468.417,115.552 478.377,115.703 488.337,116.897 498.297,119.078 508.257,122.197 518.217,126.205 528.176,131.057 538.136,136.709 548.096,143.118 558.056,150.246 568.016,158.053 577.976,166.503 587.935,175.558 597.895,185.185 607.855,195.349 617.815,206.018 627.775,217.16 637.735,228.745 647.695,240.741 657.654,253.121 667.614,265.855 677.574,278.916 687.534,292.278 697.494,305.914 707.454,319.799 717.414,333.908 727.373,348.218 737.333,362.705 747.293,377.348 757.253,392.123 767.213,407.01 777.173,421.989 787.132,437.04 797.092,452.144 807.052,467.283 817.012,482.439 826.972,497.595 836.932,512.734 846.892,527.842 856.851,542.903 866.811,557.903 876.771,572.828 886.731,587.666 896.691,602.404 906.651,617.029 916.61,631.533 926.57,645.902 936.53,660.129 946.49,674.204 956.45,688.118 966.41,701.863 976.37,715.432 986.329,728.817 996.289,742.014 1006.25,755.014 1016.21,767.815 1026.17,780.41 1036.13,792.795 1046.09,804.968 1056.05,816.923 1066.01,828.659 1075.97,840.174 1085.93,851.465 1095.89,862.53 1105.85,873.369 1115.81,883.981 1125.77,894.364 1135.73,904.521 1145.69,914.449 1155.65,924.151 1165.61,933.626 1175.57,942.877 1185.53,951.903 1195.49,960.708 1205.45,969.293 1215.41,977.66 1225.37,985.811 1235.33,993.698 1245.29,1001.28 1255.25,1008.56 1265.21,1015.56 1275.17,1022.27 1285.12,1028.72 1295.08,1034.91 1305.04,1040.85 1315,1046.55 1324.96,1052.02 1334.92,1057.27 1344.88,1062.3 1354.84,1067.12 1364.8,1071.75 1374.76,1076.18 1384.72,1080.43 1394.68,1084.51 1404.64,1088.42 1414.6,1092.17 1424.56,1095.77 1434.52,1099.22 1444.48,1102.54 1454.44,1105.72 1464.4,1108.77 1474.36,1111.71 1484.32,1114.54 1494.28,1117.26 1504.24,1119.87 1514.2,1122.4 1524.16,1124.83 1534.12,1127.19 1544.08,1129.46 1554.04,1131.67 1564,1133.81 1573.96,1135.88 1583.92,1137.9 1593.88,1139.87 1603.84,1141.79 1613.8,1143.67 1623.76,1145.51 1633.72,1147.32 1643.68,1149.09 1653.64,1150.84 1663.6,1152.57 1673.56,1154.27 1683.52,1155.96 1693.48,1157.64 1703.44,1159.31 1713.4,1160.97 1723.36,1162.63 1733.32,1164.28 1743.28,1165.93 1753.24,1167.58 1763.2,1169.24 1773.16,1170.9 1783.12,1172.57 1793.08,1174.24 1803.04,1175.92 1813,1177.61 1822.96,1179.3 1832.92,1181.01 1842.88,1182.72 1852.84,1184.44 1862.8,1186.17 1872.76,1187.91 1882.72,1189.65 1892.68,1191.39 1902.64,1193.14 1912.6,1194.89 1922.56,1196.65 1932.51,1198.4 1942.47,1200.15 1952.43,1201.9 1962.39,1203.64 1972.35,1205.37 1982.31,1207.09 1992.27,1208.8 2002.23,1210.49 2012.19,1212.17 2022.15,1213.83 2032.11,1215.47 2042.07,1217.09 2052.03,1218.68 2061.99,1220.25 2071.95,1221.78 2081.91,1223.29 2091.87,1224.76 2101.83,1226.2 2111.79,1227.61 2121.75,1228.97 2131.71,1230.3 2141.67,1231.6 2151.63,1232.85 2161.59,1234.06 2171.55,1235.23 2181.51,1236.35 2191.47,1237.44 2201.43,1238.48 2211.39,1239.48 2221.35,1240.43 "/>
<polyline clip-path="url(#clip582)" style="stroke:#e26f46; stroke-linecap:round; stroke-linejoin:round; stroke-width:4; stroke-opacity:1; fill:none" points="229.381,1254.52 239.341,930.981 249.301,864.667 259.26,814.907 269.22,773.028 279.18,736.047 289.14,702.551 299.1,671.749 309.06,643.153 319.02,616.438 328.979,591.378 338.939,567.808 348.899,545.604 358.859,524.671 368.819,504.935 378.779,486.336 388.739,468.825 398.698,452.36 408.658,436.909 418.618,422.441 428.578,408.93 438.538,396.355 448.498,384.694 458.457,373.928 468.417,364.041 478.377,355.015 488.337,346.836 498.297,339.487 508.257,332.954 518.217,327.222 528.176,322.277 538.136,318.104 548.096,314.688 558.056,312.015 568.016,310.069 577.976,308.835 587.935,308.298 597.895,308.441 607.855,309.248 617.815,310.703 627.775,312.789 637.735,315.488 647.695,318.785 657.654,322.659 667.614,327.094 677.574,332.072 687.534,337.573 697.494,343.58 707.454,350.072 717.414,357.032 727.373,364.439 737.333,372.275 747.293,380.519 757.253,389.153 767.213,398.157 777.173,407.511 787.132,417.196 797.092,427.192 807.052,437.48 817.012,448.041 826.972,458.856 836.932,469.905 846.892,481.17 856.851,492.632 866.811,504.273 876.771,516.076 886.731,528.022 896.691,540.095 906.651,552.277 916.61,564.551 926.57,576.902 936.53,589.314 946.49,601.77 956.45,614.258 966.41,626.761 976.37,639.265 986.329,651.759 996.289,664.227 1006.25,676.659 1016.21,689.041 1026.17,701.362 1036.13,713.611 1046.09,725.779 1056.05,737.854 1066.01,749.827 1075.97,761.69 1085.93,773.434 1095.89,785.051 1105.85,796.534 1115.81,807.876 1125.77,819.07 1135.73,830.11 1145.69,840.992 1155.65,851.711 1165.61,862.26 1175.57,872.638 1185.53,882.84 1195.49,892.863 1205.45,902.704 1215.41,912.361 1225.37,921.833 1235.33,931.065 1245.29,940.012 1255.25,948.679 1265.21,957.073 1275.17,965.2 1285.12,973.066 1295.08,980.677 1305.04,988.039 1315,995.159 1324.96,1002.04 1334.92,1008.7 1344.88,1015.13 1354.84,1021.34 1364.8,1027.34 1374.76,1033.14 1384.72,1038.74 1394.68,1044.14 1404.64,1049.36 1414.6,1054.4 1424.56,1059.26 1434.52,1063.95 1444.48,1068.48 1454.44,1072.86 1464.4,1077.08 1474.36,1081.16 1484.32,1085.1 1494.28,1088.91 1504.24,1092.59 1514.2,1096.14 1524.16,1099.59 1534.12,1102.92 1544.08,1106.14 1554.04,1109.27 1564,1112.3 1573.96,1115.24 1583.92,1118.09 1593.88,1120.87 1603.84,1123.58 1613.8,1126.21 1623.76,1128.78 1633.72,1131.29 1643.68,1133.74 1653.64,1136.14 1663.6,1138.49 1673.56,1140.8 1683.52,1143.07 1693.48,1145.31 1703.44,1147.51 1713.4,1149.68 1723.36,1151.82 1733.32,1153.95 1743.28,1156.05 1753.24,1158.13 1763.2,1160.2 1773.16,1162.25 1783.12,1164.29 1793.08,1166.32 1803.04,1168.35 1813,1170.36 1822.96,1172.37 1832.92,1174.37 1842.88,1176.37 1852.84,1178.36 1862.8,1180.34 1872.76,1182.33 1882.72,1184.3 1892.68,1186.27 1902.64,1188.24 1912.6,1190.2 1922.56,1192.15 1932.51,1194.09 1942.47,1196.02 1952.43,1197.93 1962.39,1199.84 1972.35,1201.73 1982.31,1203.6 1992.27,1205.46 2002.23,1207.29 2012.19,1209.1 2022.15,1210.89 2032.11,1212.66 2042.07,1214.39 2052.03,1216.1 2061.99,1217.78 2071.95,1219.42 2081.91,1221.03 2091.87,1222.6 2101.83,1224.14 2111.79,1225.64 2121.75,1227.09 2131.71,1228.51 2141.67,1229.89 2151.63,1231.22 2161.59,1232.51 2171.55,1233.75 2181.51,1234.95 2191.47,1236.11 2201.43,1237.22 2211.39,1238.28 2221.35,1239.3 "/>
<polyline clip-path="url(#clip582)" style="stroke:#3da44d; stroke-linecap:round; stroke-linejoin:round; stroke-width:4; stroke-opacity:1; fill:none" points="229.381,1254.52 239.341,952.945 249.301,905.87 259.26,873.51 269.22,847.501 279.18,825.037 289.14,804.826 299.1,786.167 309.06,768.64 319.02,751.979 328.979,736.007 338.939,720.604 348.899,705.684 358.859,691.188 368.819,677.077 378.779,663.322 388.739,649.904 398.698,636.812 408.658,624.042 418.618,611.59 428.578,599.46 438.538,587.655 448.498,576.182 458.457,565.048 468.417,554.263 478.377,543.836 488.337,533.777 498.297,524.096 508.257,514.805 518.217,505.914 528.176,497.433 538.136,489.372 548.096,481.742 558.056,474.552 568.016,467.81 577.976,461.525 587.935,455.705 597.895,450.356 607.855,445.485 617.815,441.097 627.775,437.197 637.735,433.788 647.695,430.874 657.654,428.457 667.614,426.538 677.574,425.118 687.534,424.195 697.494,423.77 707.454,423.838 717.414,424.399 727.373,425.446 737.333,426.977 747.293,428.985 757.253,431.464 767.213,434.408 777.173,437.807 787.132,441.654 797.092,445.939 807.052,450.654 817.012,455.786 826.972,461.325 836.932,467.26 846.892,473.578 856.851,480.267 866.811,487.314 876.771,494.705 886.731,502.426 896.691,510.464 906.651,518.804 916.61,527.432 926.57,536.332 936.53,545.49 946.49,554.89 956.45,564.517 966.41,574.357 976.37,584.393 986.329,594.61 996.289,604.994 1006.25,615.529 1016.21,626.2 1026.17,636.993 1036.13,647.892 1046.09,658.884 1056.05,669.953 1066.01,681.087 1075.97,692.27 1085.93,703.491 1095.89,714.736 1105.85,725.993 1115.81,737.248 1125.77,748.49 1135.73,759.707 1145.69,770.889 1155.65,782.024 1165.61,793.102 1175.57,804.114 1185.53,815.049 1195.49,825.899 1205.45,836.655 1215.41,847.31 1225.37,857.854 1235.33,868.231 1245.29,878.387 1255.25,888.322 1265.21,898.038 1275.17,907.535 1285.12,916.814 1295.08,925.876 1305.04,934.722 1315,943.354 1324.96,951.773 1334.92,959.981 1344.88,967.978 1354.84,975.769 1364.8,983.353 1374.76,990.735 1384.72,997.915 1394.68,1004.9 1404.64,1011.68 1414.6,1018.28 1424.56,1024.68 1434.52,1030.9 1444.48,1036.93 1454.44,1042.78 1464.4,1048.46 1474.36,1053.96 1484.32,1059.3 1494.28,1064.47 1504.24,1069.48 1514.2,1074.33 1524.16,1079.03 1534.12,1083.58 1544.08,1087.99 1554.04,1092.26 1564,1096.39 1573.96,1100.4 1583.92,1104.28 1593.88,1108.04 1603.84,1111.68 1613.8,1115.22 1623.76,1118.65 1633.72,1121.97 1643.68,1125.2 1653.64,1128.34 1663.6,1131.39 1673.56,1134.36 1683.52,1137.26 1693.48,1140.08 1703.44,1142.83 1713.4,1145.51 1723.36,1148.14 1733.32,1150.71 1743.28,1153.22 1753.24,1155.69 1763.2,1158.11 1773.16,1160.49 1783.12,1162.83 1793.08,1165.13 1803.04,1167.4 1813,1169.64 1822.96,1171.85 1832.92,1174.04 1842.88,1176.2 1852.84,1178.33 1862.8,1180.44 1872.76,1182.53 1882.72,1184.61 1892.68,1186.66 1902.64,1188.69 1912.6,1190.71 1922.56,1192.7 1932.51,1194.68 1942.47,1196.63 1952.43,1198.57 1962.39,1200.49 1972.35,1202.39 1982.31,1204.26 1992.27,1206.11 2002.23,1207.94 2012.19,1209.74 2022.15,1211.51 2032.11,1213.26 2042.07,1214.97 2052.03,1216.66 2061.99,1218.31 2071.95,1219.93 2081.91,1221.51 2091.87,1223.06 2101.83,1224.57 2111.79,1226.05 2121.75,1227.48 2131.71,1228.87 2141.67,1230.22 2151.63,1231.53 2161.59,1232.8 2171.55,1234.02 2181.51,1235.2 2191.47,1236.34 2201.43,1237.43 2211.39,1238.48 2221.35,1239.48 "/>
<path clip-path="url(#clip580)" d="M1475.79 294.847 L1817.98 294.847 L1817.98 87.4866 L1475.79 87.4866  Z" fill="#ffffff" fill-rule="evenodd" fill-opacity="1"/>
<polyline clip-path="url(#clip580)" style="stroke:#000000; stroke-linecap:round; stroke-linejoin:round; stroke-width:4; stroke-opacity:1; fill:none" points="1475.79,294.847 1817.98,294.847 1817.98,87.4866 1475.79,87.4866 1475.79,294.847 "/>
<polyline clip-path="url(#clip580)" style="stroke:#009af9; stroke-linecap:round; stroke-linejoin:round; stroke-width:4; stroke-opacity:1; fill:none" points="1494.05,139.327 1603.61,139.327 "/>
<path clip-path="url(#clip580)" d="M1642.38 131.676 L1642.38 135.658 Q1640.57 134.662 1638.75 134.176 Q1636.94 133.667 1635.09 133.667 Q1630.94 133.667 1628.65 136.306 Q1626.36 138.922 1626.36 143.667 Q1626.36 148.412 1628.65 151.051 Q1630.94 153.667 1635.09 153.667 Q1636.94 153.667 1638.75 153.181 Q1640.57 152.671 1642.38 151.676 L1642.38 155.611 Q1640.6 156.445 1638.68 156.861 Q1636.78 157.278 1634.63 157.278 Q1628.77 157.278 1625.32 153.597 Q1621.87 149.917 1621.87 143.667 Q1621.87 137.324 1625.34 133.69 Q1628.84 130.056 1634.9 130.056 Q1636.87 130.056 1638.75 130.473 Q1640.62 130.866 1642.38 131.676 Z" fill="#000000" fill-rule="nonzero" fill-opacity="1" /><path clip-path="url(#clip580)" d="M1661.57 143.574 Q1656.41 143.574 1654.42 144.755 Q1652.43 145.935 1652.43 148.783 Q1652.43 151.051 1653.91 152.394 Q1655.41 153.713 1657.98 153.713 Q1661.52 153.713 1663.65 151.213 Q1665.81 148.69 1665.81 144.523 L1665.81 143.574 L1661.57 143.574 M1670.06 141.815 L1670.06 156.607 L1665.81 156.607 L1665.81 152.671 Q1664.35 155.033 1662.17 156.167 Q1660 157.278 1656.85 157.278 Q1652.87 157.278 1650.5 155.056 Q1648.17 152.81 1648.17 149.06 Q1648.17 144.685 1651.08 142.463 Q1654.02 140.241 1659.83 140.241 L1665.81 140.241 L1665.81 139.824 Q1665.81 136.885 1663.86 135.287 Q1661.94 133.667 1658.44 133.667 Q1656.22 133.667 1654.12 134.199 Q1652.01 134.732 1650.07 135.797 L1650.07 131.861 Q1652.4 130.959 1654.6 130.519 Q1656.8 130.056 1658.88 130.056 Q1664.51 130.056 1667.29 132.972 Q1670.06 135.889 1670.06 141.815 Z" fill="#000000" fill-rule="nonzero" fill-opacity="1" /><path clip-path="url(#clip580)" d="M1678.4 146.375 L1678.4 130.681 L1682.66 130.681 L1682.66 146.213 Q1682.66 149.894 1684.09 151.746 Q1685.53 153.574 1688.4 153.574 Q1691.85 153.574 1693.84 151.375 Q1695.85 149.176 1695.85 145.38 L1695.85 130.681 L1700.11 130.681 L1700.11 156.607 L1695.85 156.607 L1695.85 152.625 Q1694.3 154.986 1692.24 156.144 Q1690.2 157.278 1687.5 157.278 Q1683.03 157.278 1680.71 154.5 Q1678.4 151.722 1678.4 146.375 M1689.12 130.056 L1689.12 130.056 Z" fill="#000000" fill-rule="nonzero" fill-opacity="1" /><path clip-path="url(#clip580)" d="M1725.41 131.445 L1725.41 135.472 Q1723.61 134.547 1721.66 134.084 Q1719.72 133.621 1717.63 133.621 Q1714.46 133.621 1712.87 134.593 Q1711.29 135.565 1711.29 137.509 Q1711.29 138.991 1712.43 139.847 Q1713.56 140.681 1716.99 141.445 L1718.44 141.769 Q1722.98 142.741 1724.88 144.523 Q1726.8 146.283 1726.8 149.454 Q1726.8 153.065 1723.93 155.171 Q1721.08 157.278 1716.08 157.278 Q1714 157.278 1711.73 156.861 Q1709.49 156.468 1706.99 155.658 L1706.99 151.259 Q1709.35 152.486 1711.64 153.111 Q1713.93 153.713 1716.18 153.713 Q1719.19 153.713 1720.81 152.695 Q1722.43 151.653 1722.43 149.778 Q1722.43 148.042 1721.25 147.116 Q1720.09 146.19 1716.13 145.334 L1714.65 144.986 Q1710.69 144.153 1708.93 142.44 Q1707.17 140.704 1707.17 137.695 Q1707.17 134.037 1709.76 132.047 Q1712.36 130.056 1717.12 130.056 Q1719.49 130.056 1721.57 130.403 Q1723.65 130.75 1725.41 131.445 Z" fill="#000000" fill-rule="nonzero" fill-opacity="1" /><path clip-path="url(#clip580)" d="M1755.76 142.579 L1755.76 144.662 L1736.18 144.662 Q1736.45 149.06 1738.81 151.375 Q1741.2 153.667 1745.43 153.667 Q1747.89 153.667 1750.18 153.065 Q1752.5 152.463 1754.76 151.259 L1754.76 155.287 Q1752.47 156.259 1750.06 156.769 Q1747.66 157.278 1745.18 157.278 Q1738.98 157.278 1735.34 153.667 Q1731.73 150.056 1731.73 143.898 Q1731.73 137.533 1735.16 133.806 Q1738.61 130.056 1744.44 130.056 Q1749.67 130.056 1752.7 133.435 Q1755.76 136.792 1755.76 142.579 M1751.5 141.329 Q1751.45 137.834 1749.53 135.75 Q1747.63 133.667 1744.49 133.667 Q1740.92 133.667 1738.77 135.681 Q1736.64 137.695 1736.31 141.352 L1751.5 141.329 Z" fill="#000000" fill-rule="nonzero" fill-opacity="1" /><path clip-path="url(#clip580)" d="M1779.23 152.671 L1786.87 152.671 L1786.87 126.306 L1778.56 127.973 L1778.56 123.713 L1786.82 122.047 L1791.5 122.047 L1791.5 152.671 L1799.14 152.671 L1799.14 156.607 L1779.23 156.607 L1779.23 152.671 Z" fill="#000000" fill-rule="nonzero" fill-opacity="1" /><polyline clip-path="url(#clip580)" style="stroke:#e26f46; stroke-linecap:round; stroke-linejoin:round; stroke-width:4; stroke-opacity:1; fill:none" points="1494.05,191.167 1603.61,191.167 "/>
<path clip-path="url(#clip580)" d="M1642.38 183.516 L1642.38 187.498 Q1640.57 186.502 1638.75 186.016 Q1636.94 185.507 1635.09 185.507 Q1630.94 185.507 1628.65 188.146 Q1626.36 190.762 1626.36 195.507 Q1626.36 200.252 1628.65 202.891 Q1630.94 205.507 1635.09 205.507 Q1636.94 205.507 1638.75 205.021 Q1640.57 204.511 1642.38 203.516 L1642.38 207.451 Q1640.6 208.285 1638.68 208.701 Q1636.78 209.118 1634.63 209.118 Q1628.77 209.118 1625.32 205.437 Q1621.87 201.757 1621.87 195.507 Q1621.87 189.164 1625.34 185.53 Q1628.84 181.896 1634.9 181.896 Q1636.87 181.896 1638.75 182.313 Q1640.62 182.706 1642.38 183.516 Z" fill="#000000" fill-rule="nonzero" fill-opacity="1" /><path clip-path="url(#clip580)" d="M1661.57 195.414 Q1656.41 195.414 1654.42 196.595 Q1652.43 197.775 1652.43 200.623 Q1652.43 202.891 1653.91 204.234 Q1655.41 205.553 1657.98 205.553 Q1661.52 205.553 1663.65 203.053 Q1665.81 200.53 1665.81 196.363 L1665.81 195.414 L1661.57 195.414 M1670.06 193.655 L1670.06 208.447 L1665.81 208.447 L1665.81 204.511 Q1664.35 206.873 1662.17 208.007 Q1660 209.118 1656.85 209.118 Q1652.87 209.118 1650.5 206.896 Q1648.17 204.65 1648.17 200.9 Q1648.17 196.525 1651.08 194.303 Q1654.02 192.081 1659.83 192.081 L1665.81 192.081 L1665.81 191.664 Q1665.81 188.725 1663.86 187.127 Q1661.94 185.507 1658.44 185.507 Q1656.22 185.507 1654.12 186.039 Q1652.01 186.572 1650.07 187.637 L1650.07 183.701 Q1652.4 182.799 1654.6 182.359 Q1656.8 181.896 1658.88 181.896 Q1664.51 181.896 1667.29 184.812 Q1670.06 187.729 1670.06 193.655 Z" fill="#000000" fill-rule="nonzero" fill-opacity="1" /><path clip-path="url(#clip580)" d="M1678.4 198.215 L1678.4 182.521 L1682.66 182.521 L1682.66 198.053 Q1682.66 201.734 1684.09 203.586 Q1685.53 205.414 1688.4 205.414 Q1691.85 205.414 1693.84 203.215 Q1695.85 201.016 1695.85 197.22 L1695.85 182.521 L1700.11 182.521 L1700.11 208.447 L1695.85 208.447 L1695.85 204.465 Q1694.3 206.826 1692.24 207.984 Q1690.2 209.118 1687.5 209.118 Q1683.03 209.118 1680.71 206.34 Q1678.4 203.562 1678.4 198.215 M1689.12 181.896 L1689.12 181.896 Z" fill="#000000" fill-rule="nonzero" fill-opacity="1" /><path clip-path="url(#clip580)" d="M1725.41 183.285 L1725.41 187.312 Q1723.61 186.387 1721.66 185.924 Q1719.72 185.461 1717.63 185.461 Q1714.46 185.461 1712.87 186.433 Q1711.29 187.405 1711.29 189.349 Q1711.29 190.831 1712.43 191.687 Q1713.56 192.521 1716.99 193.285 L1718.44 193.609 Q1722.98 194.581 1724.88 196.363 Q1726.8 198.123 1726.8 201.294 Q1726.8 204.905 1723.93 207.011 Q1721.08 209.118 1716.08 209.118 Q1714 209.118 1711.73 208.701 Q1709.49 208.308 1706.99 207.498 L1706.99 203.099 Q1709.35 204.326 1711.64 204.951 Q1713.93 205.553 1716.18 205.553 Q1719.19 205.553 1720.81 204.535 Q1722.43 203.493 1722.43 201.618 Q1722.43 199.882 1721.25 198.956 Q1720.09 198.03 1716.13 197.174 L1714.65 196.826 Q1710.69 195.993 1708.93 194.28 Q1707.17 192.544 1707.17 189.535 Q1707.17 185.877 1709.76 183.887 Q1712.36 181.896 1717.12 181.896 Q1719.49 181.896 1721.57 182.243 Q1723.65 182.59 1725.41 183.285 Z" fill="#000000" fill-rule="nonzero" fill-opacity="1" /><path clip-path="url(#clip580)" d="M1755.76 194.419 L1755.76 196.502 L1736.18 196.502 Q1736.45 200.9 1738.81 203.215 Q1741.2 205.507 1745.43 205.507 Q1747.89 205.507 1750.18 204.905 Q1752.5 204.303 1754.76 203.099 L1754.76 207.127 Q1752.47 208.099 1750.06 208.609 Q1747.66 209.118 1745.18 209.118 Q1738.98 209.118 1735.34 205.507 Q1731.73 201.896 1731.73 195.738 Q1731.73 189.373 1735.16 185.646 Q1738.61 181.896 1744.44 181.896 Q1749.67 181.896 1752.7 185.275 Q1755.76 188.632 1755.76 194.419 M1751.5 193.169 Q1751.45 189.674 1749.53 187.59 Q1747.63 185.507 1744.49 185.507 Q1740.92 185.507 1738.77 187.521 Q1736.64 189.535 1736.31 193.192 L1751.5 193.169 Z" fill="#000000" fill-rule="nonzero" fill-opacity="1" /><path clip-path="url(#clip580)" d="M1782.45 204.511 L1798.77 204.511 L1798.77 208.447 L1776.82 208.447 L1776.82 204.511 Q1779.49 201.757 1784.07 197.127 Q1788.68 192.474 1789.86 191.132 Q1792.1 188.609 1792.98 186.873 Q1793.88 185.113 1793.88 183.424 Q1793.88 180.669 1791.94 178.933 Q1790.02 177.197 1786.92 177.197 Q1784.72 177.197 1782.26 177.961 Q1779.83 178.725 1777.06 180.275 L1777.06 175.553 Q1779.88 174.419 1782.33 173.84 Q1784.79 173.262 1786.82 173.262 Q1792.19 173.262 1795.39 175.947 Q1798.58 178.632 1798.58 183.123 Q1798.58 185.252 1797.77 187.174 Q1796.99 189.072 1794.88 191.664 Q1794.3 192.336 1791.2 195.553 Q1788.1 198.748 1782.45 204.511 Z" fill="#000000" fill-rule="nonzero" fill-opacity="1" /><polyline clip-path="url(#clip580)" style="stroke:#3da44d; stroke-linecap:round; stroke-linejoin:round; stroke-width:4; stroke-opacity:1; fill:none" points="1494.05,243.007 1603.61,243.007 "/>
<path clip-path="url(#clip580)" d="M1642.38 235.356 L1642.38 239.338 Q1640.57 238.342 1638.75 237.856 Q1636.94 237.347 1635.09 237.347 Q1630.94 237.347 1628.65 239.986 Q1626.36 242.602 1626.36 247.347 Q1626.36 252.092 1628.65 254.731 Q1630.94 257.347 1635.09 257.347 Q1636.94 257.347 1638.75 256.861 Q1640.57 256.351 1642.38 255.356 L1642.38 259.291 Q1640.6 260.125 1638.68 260.541 Q1636.78 260.958 1634.63 260.958 Q1628.77 260.958 1625.32 257.277 Q1621.87 253.597 1621.87 247.347 Q1621.87 241.004 1625.34 237.37 Q1628.84 233.736 1634.9 233.736 Q1636.87 233.736 1638.75 234.153 Q1640.62 234.546 1642.38 235.356 Z" fill="#000000" fill-rule="nonzero" fill-opacity="1" /><path clip-path="url(#clip580)" d="M1661.57 247.254 Q1656.41 247.254 1654.42 248.435 Q1652.43 249.615 1652.43 252.463 Q1652.43 254.731 1653.91 256.074 Q1655.41 257.393 1657.98 257.393 Q1661.52 257.393 1663.65 254.893 Q1665.81 252.37 1665.81 248.203 L1665.81 247.254 L1661.57 247.254 M1670.06 245.495 L1670.06 260.287 L1665.81 260.287 L1665.81 256.351 Q1664.35 258.713 1662.17 259.847 Q1660 260.958 1656.85 260.958 Q1652.87 260.958 1650.5 258.736 Q1648.17 256.49 1648.17 252.74 Q1648.17 248.365 1651.08 246.143 Q1654.02 243.921 1659.83 243.921 L1665.81 243.921 L1665.81 243.504 Q1665.81 240.565 1663.86 238.967 Q1661.94 237.347 1658.44 237.347 Q1656.22 237.347 1654.12 237.879 Q1652.01 238.412 1650.07 239.477 L1650.07 235.541 Q1652.4 234.639 1654.6 234.199 Q1656.8 233.736 1658.88 233.736 Q1664.51 233.736 1667.29 236.652 Q1670.06 239.569 1670.06 245.495 Z" fill="#000000" fill-rule="nonzero" fill-opacity="1" /><path clip-path="url(#clip580)" d="M1678.4 250.055 L1678.4 234.361 L1682.66 234.361 L1682.66 249.893 Q1682.66 253.574 1684.09 255.426 Q1685.53 257.254 1688.4 257.254 Q1691.85 257.254 1693.84 255.055 Q1695.85 252.856 1695.85 249.06 L1695.85 234.361 L1700.11 234.361 L1700.11 260.287 L1695.85 260.287 L1695.85 256.305 Q1694.3 258.666 1692.24 259.824 Q1690.2 260.958 1687.5 260.958 Q1683.03 260.958 1680.71 258.18 Q1678.4 255.402 1678.4 250.055 M1689.12 233.736 L1689.12 233.736 Z" fill="#000000" fill-rule="nonzero" fill-opacity="1" /><path clip-path="url(#clip580)" d="M1725.41 235.125 L1725.41 239.152 Q1723.61 238.227 1721.66 237.764 Q1719.72 237.301 1717.63 237.301 Q1714.46 237.301 1712.87 238.273 Q1711.29 239.245 1711.29 241.189 Q1711.29 242.671 1712.43 243.527 Q1713.56 244.361 1716.99 245.125 L1718.44 245.449 Q1722.98 246.421 1724.88 248.203 Q1726.8 249.963 1726.8 253.134 Q1726.8 256.745 1723.93 258.851 Q1721.08 260.958 1716.08 260.958 Q1714 260.958 1711.73 260.541 Q1709.49 260.148 1706.99 259.338 L1706.99 254.939 Q1709.35 256.166 1711.64 256.791 Q1713.93 257.393 1716.18 257.393 Q1719.19 257.393 1720.81 256.375 Q1722.43 255.333 1722.43 253.458 Q1722.43 251.722 1721.25 250.796 Q1720.09 249.87 1716.13 249.014 L1714.65 248.666 Q1710.69 247.833 1708.93 246.12 Q1707.17 244.384 1707.17 241.375 Q1707.17 237.717 1709.76 235.727 Q1712.36 233.736 1717.12 233.736 Q1719.49 233.736 1721.57 234.083 Q1723.65 234.43 1725.41 235.125 Z" fill="#000000" fill-rule="nonzero" fill-opacity="1" /><path clip-path="url(#clip580)" d="M1755.76 246.259 L1755.76 248.342 L1736.18 248.342 Q1736.45 252.74 1738.81 255.055 Q1741.2 257.347 1745.43 257.347 Q1747.89 257.347 1750.18 256.745 Q1752.5 256.143 1754.76 254.939 L1754.76 258.967 Q1752.47 259.939 1750.06 260.449 Q1747.66 260.958 1745.18 260.958 Q1738.98 260.958 1735.34 257.347 Q1731.73 253.736 1731.73 247.578 Q1731.73 241.213 1735.16 237.486 Q1738.61 233.736 1744.44 233.736 Q1749.67 233.736 1752.7 237.115 Q1755.76 240.472 1755.76 246.259 M1751.5 245.009 Q1751.45 241.514 1749.53 239.43 Q1747.63 237.347 1744.49 237.347 Q1740.92 237.347 1738.77 239.361 Q1736.64 241.375 1736.31 245.032 L1751.5 245.009 Z" fill="#000000" fill-rule="nonzero" fill-opacity="1" /><path clip-path="url(#clip580)" d="M1792.59 241.652 Q1795.94 242.37 1797.82 244.639 Q1799.72 246.907 1799.72 250.24 Q1799.72 255.356 1796.2 258.157 Q1792.68 260.958 1786.2 260.958 Q1784.02 260.958 1781.71 260.518 Q1779.42 260.101 1776.96 259.245 L1776.96 254.731 Q1778.91 255.865 1781.22 256.444 Q1783.54 257.023 1786.06 257.023 Q1790.46 257.023 1792.75 255.287 Q1795.06 253.551 1795.06 250.24 Q1795.06 247.185 1792.91 245.472 Q1790.78 243.736 1786.96 243.736 L1782.93 243.736 L1782.93 239.893 L1787.15 239.893 Q1790.6 239.893 1792.43 238.527 Q1794.25 237.139 1794.25 234.546 Q1794.25 231.884 1792.36 230.472 Q1790.48 229.037 1786.96 229.037 Q1785.04 229.037 1782.84 229.453 Q1780.64 229.87 1778 230.75 L1778 226.583 Q1780.67 225.842 1782.98 225.472 Q1785.32 225.102 1787.38 225.102 Q1792.7 225.102 1795.81 227.532 Q1798.91 229.94 1798.91 234.06 Q1798.91 236.93 1797.26 238.921 Q1795.62 240.889 1792.59 241.652 Z" fill="#000000" fill-rule="nonzero" fill-opacity="1" /></svg>
