<?xml version="1.0" encoding="utf-8"?>
<svg xmlns="http://www.w3.org/2000/svg" xmlns:xlink="http://www.w3.org/1999/xlink" width="480" height="360" viewBox="0 0 1920 1440">
<defs>
  <clipPath id="clip690">
    <rect x="0" y="0" width="1920" height="1440"/>
  </clipPath>
</defs>
<path clip-path="url(#clip690)" d="M0 1440 L1920 1440 L1920 0 L0 0  Z" fill="#ffffff" fill-rule="evenodd" fill-opacity="1"/>
<defs>
  <clipPath id="clip691">
    <rect x="384" y="0" width="1345" height="1345"/>
  </clipPath>
</defs>
<path clip-path="url(#clip690)" d="M221.006 1254.52 L1872.76 1254.52 L1872.76 47.2441 L221.006 47.2441  Z" fill="#ffffff" fill-rule="evenodd" fill-opacity="1"/>
<defs>
  <clipPath id="clip692">
    <rect x="221" y="47" width="1653" height="1208"/>
  </clipPath>
</defs>
<polyline clip-path="url(#clip692)" style="stroke:#000000; stroke-linecap:round; stroke-linejoin:round; stroke-width:2; stroke-opacity:0.1; fill:none" points="221.006,1254.52 221.006,47.2441 "/>
<polyline clip-path="url(#clip692)" style="stroke:#000000; stroke-linecap:round; stroke-linejoin:round; stroke-width:2; stroke-opacity:0.1; fill:none" points="521.324,1254.52 521.324,47.2441 "/>
<polyline clip-path="url(#clip692)" style="stroke:#000000; stroke-linecap:round; stroke-linejoin:round; stroke-width:2; stroke-opacity:0.1; fill:none" points="821.642,1254.52 821.642,47.2441 "/>
<polyline clip-path="url(#clip692)" style="stroke:#000000; stroke-linecap:round; stroke-linejoin:round; stroke-width:2; stroke-opacity:0.1; fill:none" points="1121.96,1254.52 1121.96,47.2441 "/>
<polyline clip-path="url(#clip692)" style="stroke:#000000; stroke-linecap:round; stroke-linejoin:round; stroke-width:2; stroke-opacity:0.1; fill:none" points="1422.28,1254.52 1422.28,47.2441 "/>
<polyline clip-path="url(#clip692)" style="stroke:#000000; stroke-linecap:round; stroke-linejoin:round; stroke-width:2; stroke-opacity:0.1; fill:none" points="1722.6,1254.52 1722.6,47.2441 "/>
<polyline clip-path="url(#clip692)" style="stroke:#000000; stroke-linecap:round; stroke-linejoin:round; stroke-width:2; stroke-opacity:0.1; fill:none" points="221.006,1254.52 1872.76,1254.52 "/>
<polyline clip-path="url(#clip692)" style="stroke:#000000; stroke-linecap:round; stroke-linejoin:round; stroke-width:2; stroke-opacity:0.1; fill:none" points="221.006,1068.79 1872.76,1068.79 "/>
<polyline clip-path="url(#clip692)" style="stroke:#000000; stroke-linecap:round; stroke-linejoin:round; stroke-width:2; stroke-opacity:0.1; fill:none" points="221.006,883.05 1872.76,883.05 "/>
<polyline clip-path="url(#clip692)" style="stroke:#000000; stroke-linecap:round; stroke-linejoin:round; stroke-width:2; stroke-opacity:0.1; fill:none" points="221.006,697.316 1872.76,697.316 "/>
<polyline clip-path="url(#clip692)" style="stroke:#000000; stroke-linecap:round; stroke-linejoin:round; stroke-width:2; stroke-opacity:0.1; fill:none" points="221.006,511.581 1872.76,511.581 "/>
<polyline clip-path="url(#clip692)" style="stroke:#000000; stroke-linecap:round; stroke-linejoin:round; stroke-width:2; stroke-opacity:0.1; fill:none" points="221.006,325.846 1872.76,325.846 "/>
<polyline clip-path="url(#clip692)" style="stroke:#000000; stroke-linecap:round; stroke-linejoin:round; stroke-width:2; stroke-opacity:0.1; fill:none" points="221.006,140.111 1872.76,140.111 "/>
<polyline clip-path="url(#clip690)" style="stroke:#000000; stroke-linecap:round; stroke-linejoin:round; stroke-width:4; stroke-opacity:1; fill:none" points="221.006,1254.52 1872.76,1254.52 "/>
<polyline clip-path="url(#clip690)" style="stroke:#000000; stroke-linecap:round; stroke-linejoin:round; stroke-width:4; stroke-opacity:1; fill:none" points="221.006,1254.52 221.006,1235.62 "/>
<polyline clip-path="url(#clip690)" style="stroke:#000000; stroke-linecap:round; stroke-linejoin:round; stroke-width:4; stroke-opacity:1; fill:none" points="521.324,1254.52 521.324,1235.62 "/>
<polyline clip-path="url(#clip690)" style="stroke:#000000; stroke-linecap:round; stroke-linejoin:round; stroke-width:4; stroke-opacity:1; fill:none" points="821.642,1254.52 821.642,1235.62 "/>
<polyline clip-path="url(#clip690)" style="stroke:#000000; stroke-linecap:round; stroke-linejoin:round; stroke-width:4; stroke-opacity:1; fill:none" points="1121.96,1254.52 1121.96,1235.62 "/>
<polyline clip-path="url(#clip690)" style="stroke:#000000; stroke-linecap:round; stroke-linejoin:round; stroke-width:4; stroke-opacity:1; fill:none" points="1422.28,1254.52 1422.28,1235.62 "/>
<polyline clip-path="url(#clip690)" style="stroke:#000000; stroke-linecap:round; stroke-linejoin:round; stroke-width:4; stroke-opacity:1; fill:none" points="1722.6,1254.52 1722.6,1235.62 "/>
<path clip-path="url(#clip690)" d="M221.006 1281.6 Q217.395 1281.6 215.566 1285.16 Q213.761 1288.7 213.761 1295.83 Q213.761 1302.94 215.566 1306.51 Q217.395 1310.05 221.006 1310.05 Q224.641 1310.05 226.446 1306.51 Q228.275 1302.94 228.275 1295.83 Q228.275 1288.7 226.446 1285.16 Q224.641 1281.6 221.006 1281.6 M221.006 1277.89 Q226.816 1277.89 229.872 1282.5 Q232.951 1287.08 232.951 1295.83 Q232.951 1304.56 229.872 1309.17 Q226.816 1313.75 221.006 1313.75 Q215.196 1313.75 212.117 1309.17 Q209.062 1304.56 209.062 1295.83 Q209.062 1287.08 212.117 1282.5 Q215.196 1277.89 221.006 1277.89 Z" fill="#000000" fill-rule="nonzero" fill-opacity="1" /><path clip-path="url(#clip690)" d="M511.706 1309.14 L519.345 1309.14 L519.345 1282.78 L511.035 1284.45 L511.035 1280.19 L519.299 1278.52 L523.975 1278.52 L523.975 1309.14 L531.614 1309.14 L531.614 1313.08 L511.706 1313.08 L511.706 1309.14 Z" fill="#000000" fill-rule="nonzero" fill-opacity="1" /><path clip-path="url(#clip690)" d="M816.295 1309.14 L832.615 1309.14 L832.615 1313.08 L810.67 1313.08 L810.67 1309.14 Q813.332 1306.39 817.916 1301.76 Q822.522 1297.11 823.703 1295.77 Q825.948 1293.24 826.828 1291.51 Q827.73 1289.75 827.73 1288.06 Q827.73 1285.3 825.786 1283.57 Q823.865 1281.83 820.763 1281.83 Q818.564 1281.83 816.11 1282.59 Q813.68 1283.36 810.902 1284.91 L810.902 1280.19 Q813.726 1279.05 816.18 1278.47 Q818.633 1277.89 820.67 1277.89 Q826.041 1277.89 829.235 1280.58 Q832.429 1283.27 832.429 1287.76 Q832.429 1289.89 831.619 1291.81 Q830.832 1293.7 828.726 1296.3 Q828.147 1296.97 825.045 1300.19 Q821.943 1303.38 816.295 1309.14 Z" fill="#000000" fill-rule="nonzero" fill-opacity="1" /><path clip-path="url(#clip690)" d="M1126.21 1294.45 Q1129.56 1295.16 1131.44 1297.43 Q1133.34 1299.7 1133.34 1303.03 Q1133.34 1308.15 1129.82 1310.95 Q1126.3 1313.75 1119.82 1313.75 Q1117.64 1313.75 1115.33 1313.31 Q1113.04 1312.89 1110.58 1312.04 L1110.58 1307.52 Q1112.53 1308.66 1114.84 1309.24 Q1117.16 1309.82 1119.68 1309.82 Q1124.08 1309.82 1126.37 1308.08 Q1128.69 1306.34 1128.69 1303.03 Q1128.69 1299.98 1126.53 1298.27 Q1124.4 1296.53 1120.58 1296.53 L1116.56 1296.53 L1116.56 1292.69 L1120.77 1292.69 Q1124.22 1292.69 1126.05 1291.32 Q1127.87 1289.93 1127.87 1287.34 Q1127.87 1284.68 1125.98 1283.27 Q1124.1 1281.83 1120.58 1281.83 Q1118.66 1281.83 1116.46 1282.25 Q1114.26 1282.66 1111.63 1283.54 L1111.63 1279.38 Q1114.29 1278.64 1116.6 1278.27 Q1118.94 1277.89 1121 1277.89 Q1126.32 1277.89 1129.43 1280.33 Q1132.53 1282.73 1132.53 1286.85 Q1132.53 1289.72 1130.88 1291.71 Q1129.24 1293.68 1126.21 1294.45 Z" fill="#000000" fill-rule="nonzero" fill-opacity="1" /><path clip-path="url(#clip690)" d="M1425.29 1282.59 L1413.48 1301.04 L1425.29 1301.04 L1425.29 1282.59 M1424.06 1278.52 L1429.94 1278.52 L1429.94 1301.04 L1434.87 1301.04 L1434.87 1304.93 L1429.94 1304.93 L1429.94 1313.08 L1425.29 1313.08 L1425.29 1304.93 L1409.69 1304.93 L1409.69 1300.42 L1424.06 1278.52 Z" fill="#000000" fill-rule="nonzero" fill-opacity="1" /><path clip-path="url(#clip690)" d="M1712.87 1278.52 L1731.23 1278.52 L1731.23 1282.46 L1717.16 1282.46 L1717.16 1290.93 Q1718.18 1290.58 1719.19 1290.42 Q1720.21 1290.23 1721.23 1290.23 Q1727.02 1290.23 1730.4 1293.4 Q1733.78 1296.58 1733.78 1301.99 Q1733.78 1307.57 1730.31 1310.67 Q1726.83 1313.75 1720.51 1313.75 Q1718.34 1313.75 1716.07 1313.38 Q1713.82 1313.01 1711.42 1312.27 L1711.42 1307.57 Q1713.5 1308.7 1715.72 1309.26 Q1717.94 1309.82 1720.42 1309.82 Q1724.43 1309.82 1726.76 1307.71 Q1729.1 1305.6 1729.1 1301.99 Q1729.1 1298.38 1726.76 1296.27 Q1724.43 1294.17 1720.42 1294.17 Q1718.55 1294.17 1716.67 1294.58 Q1714.82 1295 1712.87 1295.88 L1712.87 1278.52 Z" fill="#000000" fill-rule="nonzero" fill-opacity="1" /><path clip-path="url(#clip690)" d="M932.67 1356.05 Q932.67 1356.95 932.251 1357.18 Q931.832 1357.37 930.673 1357.37 L924.489 1357.37 L919.594 1376.82 Q919.208 1378.53 919.208 1379.98 Q919.208 1381.59 919.691 1382.3 Q920.206 1383.01 921.269 1383.01 Q923.362 1383.01 925.616 1381.11 Q927.903 1379.21 929.835 1374.57 Q930.093 1373.96 930.222 1373.83 Q930.383 1373.67 930.802 1373.67 Q931.607 1373.67 931.607 1374.31 Q931.607 1374.54 931.156 1375.57 Q930.737 1376.6 929.803 1378.11 Q928.901 1379.62 927.71 1381.04 Q926.55 1382.46 924.779 1383.49 Q923.008 1384.49 921.108 1384.49 Q918.435 1384.49 916.728 1382.78 Q915.053 1381.07 915.053 1378.4 Q915.053 1377.53 915.729 1374.76 Q916.406 1371.96 920.077 1357.37 L914.248 1357.37 Q913.443 1357.37 913.121 1357.34 Q912.831 1357.31 912.605 1357.14 Q912.412 1356.95 912.412 1356.57 Q912.412 1355.95 912.67 1355.7 Q912.927 1355.41 913.249 1355.37 Q913.604 1355.31 914.409 1355.31 L920.592 1355.31 L923.169 1344.84 Q923.426 1343.81 924.071 1343.23 Q924.747 1342.62 925.133 1342.56 Q925.52 1342.46 925.81 1342.46 Q926.679 1342.46 927.195 1342.94 Q927.71 1343.39 927.71 1344.23 Q927.71 1344.68 925.005 1355.31 L930.802 1355.31 Q931.542 1355.31 931.832 1355.34 Q932.154 1355.37 932.412 1355.53 Q932.67 1355.7 932.67 1356.05 Z" fill="#000000" fill-rule="nonzero" fill-opacity="1" /><path clip-path="url(#clip690)" d="M976.915 1334.29 Q972.65 1341.61 970.582 1348.77 Q968.513 1355.93 968.513 1363.28 Q968.513 1370.63 970.582 1377.86 Q972.682 1385.05 976.915 1392.34 L971.823 1392.34 Q967.049 1384.86 964.661 1377.64 Q962.306 1370.41 962.306 1363.28 Q962.306 1356.18 964.661 1348.99 Q967.017 1341.8 971.823 1334.29 L976.915 1334.29 Z" fill="#000000" fill-rule="nonzero" fill-opacity="1" /><path clip-path="url(#clip690)" d="M1003.11 1387.06 Q1000.63 1393.42 998.272 1395.36 Q995.917 1397.31 991.97 1397.31 L987.292 1397.31 L987.292 1392.4 L990.729 1392.4 Q993.148 1392.4 994.485 1391.26 Q995.822 1390.11 997.445 1385.85 L998.495 1383.17 L984.077 1348.1 L990.283 1348.1 L1001.42 1375.98 L1012.56 1348.1 L1018.77 1348.1 L1003.11 1387.06 Z" fill="#000000" fill-rule="nonzero" fill-opacity="1" /><path clip-path="url(#clip690)" d="M1057.35 1364.46 L1057.35 1367.32 L1030.42 1367.32 Q1030.8 1373.37 1034.05 1376.55 Q1037.33 1379.7 1043.15 1379.7 Q1046.52 1379.7 1049.68 1378.88 Q1052.86 1378.05 1055.98 1376.39 L1055.98 1381.93 Q1052.83 1383.27 1049.52 1383.97 Q1046.21 1384.67 1042.8 1384.67 Q1034.27 1384.67 1029.27 1379.7 Q1024.31 1374.74 1024.31 1366.27 Q1024.31 1357.52 1029.02 1352.4 Q1033.76 1347.24 1041.78 1347.24 Q1048.98 1347.24 1053.14 1351.89 Q1057.35 1356.5 1057.35 1364.46 M1051.49 1362.74 Q1051.43 1357.93 1048.78 1355.07 Q1046.17 1352.2 1041.85 1352.2 Q1036.94 1352.2 1033.98 1354.97 Q1031.06 1357.74 1030.61 1362.77 L1051.49 1362.74 Z" fill="#000000" fill-rule="nonzero" fill-opacity="1" /><path clip-path="url(#clip690)" d="M1083.16 1365.83 Q1076.06 1365.83 1073.32 1367.45 Q1070.59 1369.07 1070.59 1372.99 Q1070.59 1376.11 1072.62 1377.95 Q1074.69 1379.77 1078.23 1379.77 Q1083.1 1379.77 1086.02 1376.33 Q1088.98 1372.86 1088.98 1367.13 L1088.98 1365.83 L1083.16 1365.83 M1094.84 1363.41 L1094.84 1383.75 L1088.98 1383.75 L1088.98 1378.34 Q1086.98 1381.58 1083.99 1383.14 Q1080.99 1384.67 1076.67 1384.67 Q1071.19 1384.67 1067.95 1381.61 Q1064.73 1378.53 1064.73 1373.37 Q1064.73 1367.36 1068.74 1364.3 Q1072.78 1361.24 1080.77 1361.24 L1088.98 1361.24 L1088.98 1360.67 Q1088.98 1356.63 1086.31 1354.43 Q1083.67 1352.2 1078.86 1352.2 Q1075.81 1352.2 1072.91 1352.94 Q1070.01 1353.67 1067.34 1355.13 L1067.34 1349.72 Q1070.55 1348.48 1073.58 1347.88 Q1076.6 1347.24 1079.47 1347.24 Q1087.2 1347.24 1091.02 1351.25 Q1094.84 1355.26 1094.84 1363.41 Z" fill="#000000" fill-rule="nonzero" fill-opacity="1" /><path clip-path="url(#clip690)" d="M1127.56 1353.57 Q1126.57 1353 1125.4 1352.75 Q1124.25 1352.46 1122.85 1352.46 Q1117.88 1352.46 1115.21 1355.71 Q1112.57 1358.92 1112.57 1364.97 L1112.57 1383.75 L1106.68 1383.75 L1106.68 1348.1 L1112.57 1348.1 L1112.57 1353.64 Q1114.41 1350.39 1117.37 1348.83 Q1120.33 1347.24 1124.57 1347.24 Q1125.17 1347.24 1125.9 1347.34 Q1126.64 1347.4 1127.53 1347.56 L1127.56 1353.57 Z" fill="#000000" fill-rule="nonzero" fill-opacity="1" /><path clip-path="url(#clip690)" d="M1156.43 1349.15 L1156.43 1354.69 Q1153.95 1353.41 1151.27 1352.78 Q1148.6 1352.14 1145.73 1352.14 Q1141.37 1352.14 1139.18 1353.48 Q1137.01 1354.81 1137.01 1357.49 Q1137.01 1359.53 1138.57 1360.7 Q1140.13 1361.85 1144.84 1362.9 L1146.85 1363.34 Q1153.09 1364.68 1155.7 1367.13 Q1158.34 1369.55 1158.34 1373.91 Q1158.34 1378.88 1154.39 1381.77 Q1150.48 1384.67 1143.6 1384.67 Q1140.74 1384.67 1137.62 1384.1 Q1134.53 1383.56 1131.09 1382.44 L1131.09 1376.39 Q1134.34 1378.08 1137.49 1378.94 Q1140.64 1379.77 1143.73 1379.77 Q1147.87 1379.77 1150.09 1378.37 Q1152.32 1376.94 1152.32 1374.36 Q1152.32 1371.97 1150.7 1370.7 Q1149.11 1369.42 1143.67 1368.25 L1141.63 1367.77 Q1136.19 1366.62 1133.77 1364.27 Q1131.35 1361.88 1131.35 1357.74 Q1131.35 1352.71 1134.91 1349.98 Q1138.48 1347.24 1145.03 1347.24 Q1148.28 1347.24 1151.14 1347.72 Q1154.01 1348.19 1156.43 1349.15 Z" fill="#000000" fill-rule="nonzero" fill-opacity="1" /><path clip-path="url(#clip690)" d="M1166.74 1334.29 L1171.83 1334.29 Q1176.61 1341.8 1178.96 1348.99 Q1181.35 1356.18 1181.35 1363.28 Q1181.35 1370.41 1178.96 1377.64 Q1176.61 1384.86 1171.83 1392.34 L1166.74 1392.34 Q1170.97 1385.05 1173.04 1377.86 Q1175.14 1370.63 1175.14 1363.28 Q1175.14 1355.93 1173.04 1348.77 Q1170.97 1341.61 1166.74 1334.29 Z" fill="#000000" fill-rule="nonzero" fill-opacity="1" /><polyline clip-path="url(#clip690)" style="stroke:#000000; stroke-linecap:round; stroke-linejoin:round; stroke-width:4; stroke-opacity:1; fill:none" points="221.006,1254.52 221.006,47.2441 "/>
<polyline clip-path="url(#clip690)" style="stroke:#000000; stroke-linecap:round; stroke-linejoin:round; stroke-width:4; stroke-opacity:1; fill:none" points="221.006,1254.52 239.904,1254.52 "/>
<polyline clip-path="url(#clip690)" style="stroke:#000000; stroke-linecap:round; stroke-linejoin:round; stroke-width:4; stroke-opacity:1; fill:none" points="221.006,1068.79 239.904,1068.79 "/>
<polyline clip-path="url(#clip690)" style="stroke:#000000; stroke-linecap:round; stroke-linejoin:round; stroke-width:4; stroke-opacity:1; fill:none" points="221.006,883.05 239.904,883.05 "/>
<polyline clip-path="url(#clip690)" style="stroke:#000000; stroke-linecap:round; stroke-linejoin:round; stroke-width:4; stroke-opacity:1; fill:none" points="221.006,697.316 239.904,697.316 "/>
<polyline clip-path="url(#clip690)" style="stroke:#000000; stroke-linecap:round; stroke-linejoin:round; stroke-width:4; stroke-opacity:1; fill:none" points="221.006,511.581 239.904,511.581 "/>
<polyline clip-path="url(#clip690)" style="stroke:#000000; stroke-linecap:round; stroke-linejoin:round; stroke-width:4; stroke-opacity:1; fill:none" points="221.006,325.846 239.904,325.846 "/>
<polyline clip-path="url(#clip690)" style="stroke:#000000; stroke-linecap:round; stroke-linejoin:round; stroke-width:4; stroke-opacity:1; fill:none" points="221.006,140.111 239.904,140.111 "/>
<path clip-path="url(#clip690)" d="M135.031 1240.32 Q131.42 1240.32 129.591 1243.88 Q127.785 1247.42 127.785 1254.55 Q127.785 1261.66 129.591 1265.23 Q131.42 1268.77 135.031 1268.77 Q138.665 1268.77 140.47 1265.23 Q142.299 1261.66 142.299 1254.55 Q142.299 1247.42 140.47 1243.88 Q138.665 1240.32 135.031 1240.32 M135.031 1236.61 Q140.841 1236.61 143.896 1241.22 Q146.975 1245.8 146.975 1254.55 Q146.975 1263.28 143.896 1267.89 Q140.841 1272.47 135.031 1272.47 Q129.22 1272.47 126.142 1267.89 Q123.086 1263.28 123.086 1254.55 Q123.086 1245.8 126.142 1241.22 Q129.22 1236.61 135.031 1236.61 Z" fill="#000000" fill-rule="nonzero" fill-opacity="1" /><path clip-path="url(#clip690)" d="M155.193 1265.92 L160.077 1265.92 L160.077 1271.8 L155.193 1271.8 L155.193 1265.92 Z" fill="#000000" fill-rule="nonzero" fill-opacity="1" /><path clip-path="url(#clip690)" d="M180.262 1240.32 Q176.651 1240.32 174.822 1243.88 Q173.017 1247.42 173.017 1254.55 Q173.017 1261.66 174.822 1265.23 Q176.651 1268.77 180.262 1268.77 Q183.896 1268.77 185.702 1265.23 Q187.53 1261.66 187.53 1254.55 Q187.53 1247.42 185.702 1243.88 Q183.896 1240.32 180.262 1240.32 M180.262 1236.61 Q186.072 1236.61 189.128 1241.22 Q192.206 1245.8 192.206 1254.55 Q192.206 1263.28 189.128 1267.89 Q186.072 1272.47 180.262 1272.47 Q174.452 1272.47 171.373 1267.89 Q168.318 1263.28 168.318 1254.55 Q168.318 1245.8 171.373 1241.22 Q174.452 1236.61 180.262 1236.61 Z" fill="#000000" fill-rule="nonzero" fill-opacity="1" /><path clip-path="url(#clip690)" d="M136.257 1054.58 Q132.646 1054.58 130.818 1058.15 Q129.012 1061.69 129.012 1068.82 Q129.012 1075.93 130.818 1079.49 Q132.646 1083.03 136.257 1083.03 Q139.892 1083.03 141.697 1079.49 Q143.526 1075.93 143.526 1068.82 Q143.526 1061.69 141.697 1058.15 Q139.892 1054.58 136.257 1054.58 M136.257 1050.88 Q142.068 1050.88 145.123 1055.49 Q148.202 1060.07 148.202 1068.82 Q148.202 1077.55 145.123 1082.15 Q142.068 1086.74 136.257 1086.74 Q130.447 1086.74 127.369 1082.15 Q124.313 1077.55 124.313 1068.82 Q124.313 1060.07 127.369 1055.49 Q130.447 1050.88 136.257 1050.88 Z" fill="#000000" fill-rule="nonzero" fill-opacity="1" /><path clip-path="url(#clip690)" d="M156.419 1080.19 L161.304 1080.19 L161.304 1086.07 L156.419 1086.07 L156.419 1080.19 Z" fill="#000000" fill-rule="nonzero" fill-opacity="1" /><path clip-path="url(#clip690)" d="M172.299 1082.13 L179.938 1082.13 L179.938 1055.76 L171.628 1057.43 L171.628 1053.17 L179.892 1051.51 L184.567 1051.51 L184.567 1082.13 L192.206 1082.13 L192.206 1086.07 L172.299 1086.07 L172.299 1082.13 Z" fill="#000000" fill-rule="nonzero" fill-opacity="1" /><path clip-path="url(#clip690)" d="M136.628 868.849 Q133.017 868.849 131.188 872.414 Q129.383 875.956 129.383 883.085 Q129.383 890.192 131.188 893.756 Q133.017 897.298 136.628 897.298 Q140.262 897.298 142.068 893.756 Q143.896 890.192 143.896 883.085 Q143.896 875.956 142.068 872.414 Q140.262 868.849 136.628 868.849 M136.628 865.145 Q142.438 865.145 145.494 869.752 Q148.572 874.335 148.572 883.085 Q148.572 891.812 145.494 896.418 Q142.438 901.002 136.628 901.002 Q130.818 901.002 127.739 896.418 Q124.683 891.812 124.683 883.085 Q124.683 874.335 127.739 869.752 Q130.818 865.145 136.628 865.145 Z" fill="#000000" fill-rule="nonzero" fill-opacity="1" /><path clip-path="url(#clip690)" d="M156.79 894.451 L161.674 894.451 L161.674 900.33 L156.79 900.33 L156.79 894.451 Z" fill="#000000" fill-rule="nonzero" fill-opacity="1" /><path clip-path="url(#clip690)" d="M175.887 896.395 L192.206 896.395 L192.206 900.33 L170.262 900.33 L170.262 896.395 Q172.924 893.641 177.507 889.011 Q182.114 884.358 183.294 883.016 Q185.54 880.493 186.419 878.756 Q187.322 876.997 187.322 875.307 Q187.322 872.553 185.378 870.817 Q183.456 869.081 180.354 869.081 Q178.155 869.081 175.702 869.844 Q173.271 870.608 170.493 872.159 L170.493 867.437 Q173.317 866.303 175.771 865.724 Q178.225 865.145 180.262 865.145 Q185.632 865.145 188.827 867.831 Q192.021 870.516 192.021 875.006 Q192.021 877.136 191.211 879.057 Q190.424 880.955 188.317 883.548 Q187.739 884.219 184.637 887.437 Q181.535 890.631 175.887 896.395 Z" fill="#000000" fill-rule="nonzero" fill-opacity="1" /><path clip-path="url(#clip690)" d="M135.679 683.114 Q132.068 683.114 130.239 686.679 Q128.433 690.221 128.433 697.35 Q128.433 704.457 130.239 708.022 Q132.068 711.563 135.679 711.563 Q139.313 711.563 141.119 708.022 Q142.947 704.457 142.947 697.35 Q142.947 690.221 141.119 686.679 Q139.313 683.114 135.679 683.114 M135.679 679.411 Q141.489 679.411 144.544 684.017 Q147.623 688.6 147.623 697.35 Q147.623 706.077 144.544 710.684 Q141.489 715.267 135.679 715.267 Q129.869 715.267 126.79 710.684 Q123.734 706.077 123.734 697.35 Q123.734 688.6 126.79 684.017 Q129.869 679.411 135.679 679.411 Z" fill="#000000" fill-rule="nonzero" fill-opacity="1" /><path clip-path="url(#clip690)" d="M155.841 708.716 L160.725 708.716 L160.725 714.596 L155.841 714.596 L155.841 708.716 Z" fill="#000000" fill-rule="nonzero" fill-opacity="1" /><path clip-path="url(#clip690)" d="M185.077 695.961 Q188.433 696.679 190.308 698.948 Q192.206 701.216 192.206 704.549 Q192.206 709.665 188.688 712.466 Q185.169 715.267 178.688 715.267 Q176.512 715.267 174.197 714.827 Q171.905 714.41 169.452 713.554 L169.452 709.04 Q171.396 710.174 173.711 710.753 Q176.026 711.332 178.549 711.332 Q182.947 711.332 185.239 709.596 Q187.554 707.86 187.554 704.549 Q187.554 701.494 185.401 699.781 Q183.271 698.045 179.452 698.045 L175.424 698.045 L175.424 694.202 L179.637 694.202 Q183.086 694.202 184.915 692.837 Q186.743 691.448 186.743 688.855 Q186.743 686.193 184.845 684.781 Q182.97 683.346 179.452 683.346 Q177.53 683.346 175.331 683.762 Q173.132 684.179 170.493 685.059 L170.493 680.892 Q173.155 680.151 175.47 679.781 Q177.808 679.411 179.868 679.411 Q185.192 679.411 188.294 681.841 Q191.396 684.249 191.396 688.369 Q191.396 691.239 189.753 693.23 Q188.109 695.198 185.077 695.961 Z" fill="#000000" fill-rule="nonzero" fill-opacity="1" /><path clip-path="url(#clip690)" d="M134.545 497.38 Q130.933 497.38 129.105 500.944 Q127.299 504.486 127.299 511.616 Q127.299 518.722 129.105 522.287 Q130.933 525.829 134.545 525.829 Q138.179 525.829 139.984 522.287 Q141.813 518.722 141.813 511.616 Q141.813 504.486 139.984 500.944 Q138.179 497.38 134.545 497.38 M134.545 493.676 Q140.355 493.676 143.41 498.282 Q146.489 502.866 146.489 511.616 Q146.489 520.342 143.41 524.949 Q140.355 529.532 134.545 529.532 Q128.734 529.532 125.656 524.949 Q122.6 520.342 122.6 511.616 Q122.6 502.866 125.656 498.282 Q128.734 493.676 134.545 493.676 Z" fill="#000000" fill-rule="nonzero" fill-opacity="1" /><path clip-path="url(#clip690)" d="M154.706 522.981 L159.591 522.981 L159.591 528.861 L154.706 528.861 L154.706 522.981 Z" fill="#000000" fill-rule="nonzero" fill-opacity="1" /><path clip-path="url(#clip690)" d="M182.623 498.375 L170.817 516.824 L182.623 516.824 L182.623 498.375 M181.396 494.301 L187.276 494.301 L187.276 516.824 L192.206 516.824 L192.206 520.713 L187.276 520.713 L187.276 528.861 L182.623 528.861 L182.623 520.713 L167.021 520.713 L167.021 516.199 L181.396 494.301 Z" fill="#000000" fill-rule="nonzero" fill-opacity="1" /><path clip-path="url(#clip690)" d="M136.026 311.645 Q132.415 311.645 130.586 315.21 Q128.781 318.751 128.781 325.881 Q128.781 332.987 130.586 336.552 Q132.415 340.094 136.026 340.094 Q139.66 340.094 141.466 336.552 Q143.294 332.987 143.294 325.881 Q143.294 318.751 141.466 315.21 Q139.66 311.645 136.026 311.645 M136.026 307.941 Q141.836 307.941 144.892 312.548 Q147.97 317.131 147.97 325.881 Q147.97 334.608 144.892 339.214 Q141.836 343.797 136.026 343.797 Q130.216 343.797 127.137 339.214 Q124.082 334.608 124.082 325.881 Q124.082 317.131 127.137 312.548 Q130.216 307.941 136.026 307.941 Z" fill="#000000" fill-rule="nonzero" fill-opacity="1" /><path clip-path="url(#clip690)" d="M156.188 337.247 L161.072 337.247 L161.072 343.126 L156.188 343.126 L156.188 337.247 Z" fill="#000000" fill-rule="nonzero" fill-opacity="1" /><path clip-path="url(#clip690)" d="M171.304 308.566 L189.66 308.566 L189.66 312.501 L175.586 312.501 L175.586 320.974 Q176.604 320.626 177.623 320.464 Q178.642 320.279 179.66 320.279 Q185.447 320.279 188.827 323.45 Q192.206 326.622 192.206 332.038 Q192.206 337.617 188.734 340.719 Q185.262 343.797 178.942 343.797 Q176.767 343.797 174.498 343.427 Q172.253 343.057 169.845 342.316 L169.845 337.617 Q171.929 338.751 174.151 339.307 Q176.373 339.862 178.85 339.862 Q182.854 339.862 185.192 337.756 Q187.53 335.649 187.53 332.038 Q187.53 328.427 185.192 326.321 Q182.854 324.214 178.85 324.214 Q176.975 324.214 175.1 324.631 Q173.248 325.048 171.304 325.927 L171.304 308.566 Z" fill="#000000" fill-rule="nonzero" fill-opacity="1" /><path clip-path="url(#clip690)" d="M134.869 125.91 Q131.258 125.91 129.429 129.475 Q127.623 133.017 127.623 140.146 Q127.623 147.253 129.429 150.817 Q131.258 154.359 134.869 154.359 Q138.503 154.359 140.308 150.817 Q142.137 147.253 142.137 140.146 Q142.137 133.017 140.308 129.475 Q138.503 125.91 134.869 125.91 M134.869 122.206 Q140.679 122.206 143.734 126.813 Q146.813 131.396 146.813 140.146 Q146.813 148.873 143.734 153.479 Q140.679 158.063 134.869 158.063 Q129.058 158.063 125.98 153.479 Q122.924 148.873 122.924 140.146 Q122.924 131.396 125.98 126.813 Q129.058 122.206 134.869 122.206 Z" fill="#000000" fill-rule="nonzero" fill-opacity="1" /><path clip-path="url(#clip690)" d="M155.031 151.512 L159.915 151.512 L159.915 157.391 L155.031 157.391 L155.031 151.512 Z" fill="#000000" fill-rule="nonzero" fill-opacity="1" /><path clip-path="url(#clip690)" d="M180.679 138.248 Q177.53 138.248 175.679 140.401 Q173.85 142.554 173.85 146.304 Q173.85 150.03 175.679 152.206 Q177.53 154.359 180.679 154.359 Q183.827 154.359 185.655 152.206 Q187.507 150.03 187.507 146.304 Q187.507 142.554 185.655 140.401 Q183.827 138.248 180.679 138.248 M189.961 123.595 L189.961 127.855 Q188.202 127.021 186.396 126.581 Q184.614 126.142 182.854 126.142 Q178.225 126.142 175.771 129.267 Q173.341 132.392 172.993 138.711 Q174.359 136.697 176.419 135.632 Q178.479 134.544 180.956 134.544 Q186.165 134.544 189.174 137.716 Q192.206 140.864 192.206 146.304 Q192.206 151.628 189.058 154.845 Q185.91 158.063 180.679 158.063 Q174.683 158.063 171.512 153.479 Q168.341 148.873 168.341 140.146 Q168.341 131.952 172.23 127.091 Q176.118 122.206 182.669 122.206 Q184.429 122.206 186.211 122.554 Q188.016 122.901 189.961 123.595 Z" fill="#000000" fill-rule="nonzero" fill-opacity="1" /><path clip-path="url(#clip690)" d="M36.7058 679.227 L48.1067 680.547 Q49.1373 680.644 49.4593 680.805 Q49.7492 680.966 49.7492 681.481 Q49.7492 682.254 48.9762 682.254 Q48.6542 682.254 47.7846 682.125 Q46.0133 681.932 44.2098 681.932 Q42.1808 681.932 40.9248 682.318 Q39.6365 682.673 38.7026 683.703 Q37.7686 684.734 37.3821 686.634 Q36.9634 688.534 36.9634 691.561 L36.9634 700.257 Q36.9634 702.383 37.3499 702.898 Q37.7364 703.381 39.5399 703.832 L56.287 708.051 L56.287 702.06 Q56.287 697.874 55.0631 696.231 Q53.8393 694.589 49.9424 693.558 Q49.3305 693.397 49.1051 693.333 Q48.8474 693.236 48.7186 693.075 Q48.5576 692.882 48.5576 692.56 Q48.5576 692.27 48.7508 692.077 Q48.9118 691.883 49.1051 691.819 L49.2983 691.755 Q49.6203 691.755 50.3611 691.948 L64.6605 695.587 Q65.6267 695.845 65.8521 696.006 Q66.0453 696.135 66.0453 696.585 Q66.0453 696.908 65.8199 697.133 Q65.5945 697.358 65.2402 697.358 Q64.8537 697.294 64.5317 697.165 Q62.5671 696.714 61.3111 696.714 Q60.5059 696.714 60.0228 696.875 Q59.5398 697.036 59.1211 697.584 Q58.7024 698.131 58.5092 699.259 Q58.3159 700.386 58.3159 702.189 L58.3159 708.566 L74.7409 712.656 L76.2546 712.946 Q76.9309 712.946 77.1886 712.592 Q77.4462 712.205 77.575 710.82 Q77.7361 708.759 77.7361 707.407 Q77.7361 705.732 77.8005 705.539 Q77.9937 705.152 78.509 705.152 Q79.0887 705.152 79.4108 705.41 Q79.7006 705.668 79.7328 705.893 Q79.765 706.118 79.765 706.537 L79.5718 716.36 L79.765 725.055 Q79.765 726.054 78.9599 726.054 Q78.348 726.054 78.0903 725.796 Q77.8005 725.539 77.7683 725.249 Q77.7361 724.959 77.7361 724.218 Q77.7361 722.608 77.6394 721.642 Q77.5428 720.675 77.414 720.064 Q77.253 719.419 76.8021 719.097 Q76.3512 718.743 75.9647 718.582 Q75.5461 718.421 74.6121 718.196 L39.7331 709.5 Q38.5415 709.178 38.1551 709.178 Q37.7364 709.178 37.4787 709.468 Q37.2211 709.725 37.1245 710.434 Q36.9956 711.143 36.9956 711.722 Q36.9634 712.27 36.9634 713.461 Q36.9634 714.234 36.9312 714.556 Q36.899 714.846 36.738 715.072 Q36.577 715.297 36.2227 715.297 Q35.3209 715.297 35.1277 714.911 Q34.9023 714.492 34.9023 713.333 L34.9023 680.998 Q34.9023 679.71 35.1921 679.42 Q35.4498 679.098 36.7058 679.227 Z" fill="#000000" fill-rule="nonzero" fill-opacity="1" /><path clip-path="url(#clip690)" d="M68.4998 653.622 Q68.8379 653.622 69.3339 653.87 Q69.7848 654.095 70.0779 654.569 Q70.3484 655.02 70.3484 655.516 Q70.3484 655.673 70.2582 656.034 Q69.9877 656.643 69.379 657.59 Q68.7703 658.537 68.3871 659.393 Q67.9813 660.227 67.9362 661.152 Q67.9362 661.963 68.2293 662.64 Q68.5674 663.248 69.2888 663.654 Q69.5819 663.834 70.0779 663.834 Q70.7767 663.834 71.7011 663.451 Q72.6254 663.068 73.8202 662.279 Q75.015 661.467 75.8266 660.881 Q76.6157 660.295 77.9232 659.28 Q78.0359 659.19 78.1036 659.145 Q78.1487 659.1 78.2614 659.032 Q78.3516 658.965 78.4192 658.897 Q81.1019 656.756 84.0552 656.214 Q85.0922 656.079 86.1744 656.079 Q88.3386 656.079 90.8861 656.733 Q93.2081 657.297 95.2145 658.491 Q97.1984 659.686 98.506 661.49 Q99.8135 663.271 99.8135 665.21 Q99.8135 667.126 98.9794 668.704 Q98.1227 670.282 96.6574 671.229 Q94.7186 672.514 92.0358 672.514 Q90.5254 672.514 89.2404 672.153 Q87.1888 671.657 85.2951 670.485 Q83.4014 669.313 81.9361 667.622 Q79.7718 665.052 79.1631 662.256 Q76.6833 663.564 74.767 664.33 Q72.8283 665.074 71.1825 665.074 Q69.7397 665.074 68.8154 664.533 Q67.8235 664.06 67.2599 663.09 Q66.7639 662.279 66.5159 661.107 Q66.4257 660.385 66.4257 659.912 Q66.4257 658.311 67.305 654.591 Q67.5304 653.622 68.4998 653.622 M88.023 659.258 Q86.6478 659.258 85.7235 659.483 Q83.4691 659.912 80.358 661.625 L80.1325 661.76 Q80.7638 663.947 82.68 665.728 Q85.0246 667.96 89.4658 669.087 Q91.9457 669.696 93.3434 669.696 Q94.8538 669.696 96.1614 669.132 Q97.3788 668.591 98.0777 667.577 Q98.7765 666.54 98.7765 665.164 Q98.7765 664.127 98.1904 663.226 Q97.5817 662.324 96.5221 661.67 Q95.4625 661.016 94.3128 660.565 Q93.1405 660.092 91.7653 659.731 Q89.9167 659.258 88.023 659.258 Z" fill="#000000" fill-rule="nonzero" fill-opacity="1" /><path clip-path="url(#clip690)" d="M63.2756 646.766 Q52.1324 646.766 43.147 642.612 Q39.3789 640.84 36.2227 638.361 Q33.0665 635.881 31.6817 634.238 Q30.2968 632.596 30.2968 632.145 Q30.2968 631.501 30.9409 631.469 Q31.263 631.469 32.0682 632.338 Q42.8893 642.966 63.2756 642.934 Q83.7264 642.934 94.1288 632.596 Q95.2561 631.469 95.6103 631.469 Q96.2544 631.469 96.2544 632.145 Q96.2544 632.596 94.934 634.174 Q93.6136 635.752 90.5862 638.2 Q87.5589 640.647 83.8552 642.419 Q74.8697 646.766 63.2756 646.766 Z" fill="#000000" fill-rule="nonzero" fill-opacity="1" /><path clip-path="url(#clip690)" d="M52.068 606.199 Q52.9698 606.199 53.1952 606.617 Q53.3884 607.036 53.3884 608.195 L53.3884 614.379 L72.8408 619.274 Q74.5477 619.661 75.9969 619.661 Q77.6072 619.661 78.3158 619.178 Q79.0243 618.662 79.0243 617.6 Q79.0243 615.506 77.1242 613.252 Q75.224 610.965 70.5864 609.033 Q69.9745 608.775 69.8456 608.646 Q69.6846 608.485 69.6846 608.067 Q69.6846 607.261 70.3287 607.261 Q70.5542 607.261 71.5847 607.712 Q72.6153 608.131 74.129 609.065 Q75.6427 609.967 77.0597 611.158 Q78.4768 612.318 79.5074 614.089 Q80.5058 615.86 80.5058 617.761 Q80.5058 620.434 78.7989 622.141 Q77.0919 623.815 74.4189 623.815 Q73.5493 623.815 70.7796 623.139 Q67.9777 622.463 53.3884 618.791 L53.3884 624.62 Q53.3884 625.426 53.3562 625.748 Q53.324 626.037 53.163 626.263 Q52.9698 626.456 52.5833 626.456 Q51.9714 626.456 51.7137 626.199 Q51.4239 625.941 51.3917 625.619 Q51.3273 625.265 51.3273 624.459 L51.3273 618.276 L40.8604 615.699 Q39.8298 615.442 39.2501 614.798 Q38.6381 614.121 38.5737 613.735 Q38.4771 613.348 38.4771 613.059 Q38.4771 612.189 38.9602 611.674 Q39.4111 611.158 40.2484 611.158 Q40.6993 611.158 51.3273 613.864 L51.3273 608.067 Q51.3273 607.326 51.3595 607.036 Q51.3917 606.714 51.5527 606.456 Q51.7137 606.199 52.068 606.199 Z" fill="#000000" fill-rule="nonzero" fill-opacity="1" /><path clip-path="url(#clip690)" d="M95.6103 601.036 Q95.2883 601.036 94.4831 600.199 Q83.6619 589.571 63.2756 589.571 Q42.8249 589.571 32.4868 599.78 Q31.2952 601.036 30.9409 601.036 Q30.2968 601.036 30.2968 600.392 Q30.2968 599.941 31.6173 598.363 Q32.9377 596.753 35.9651 594.337 Q38.9924 591.89 42.6961 590.086 Q51.6815 585.739 63.2756 585.739 Q74.4189 585.739 83.4043 589.893 Q87.1724 591.664 90.3286 594.144 Q93.4847 596.624 94.8696 598.267 Q96.2544 599.909 96.2544 600.392 Q96.2544 601.036 95.6103 601.036 Z" fill="#000000" fill-rule="nonzero" fill-opacity="1" /><polyline clip-path="url(#clip692)" style="stroke:#e26f46; stroke-linecap:round; stroke-linejoin:round; stroke-width:4; stroke-opacity:1; fill:none" points="221.006,1254.52 233.019,1207.84 245.032,1121 257.044,1046.07 269.057,981.054 281.07,924.35 293.083,874.658 305.095,830.907 317.108,792.228 329.121,757.904 341.134,727.323 353.146,699.713 365.159,674.685 377.172,652.213 389.184,632.006 401.197,613.775 413.21,597.288 425.223,582.348 437.235,568.781 449.248,556.451 461.261,545.226 473.273,534.973 485.286,525.599 497.299,517.032 509.312,509.193 521.324,502.011 533.337,495.427 545.35,489.383 557.363,483.827 569.375,478.712 581.388,473.992 593.401,469.627 605.413,465.578 617.426,461.789 629.439,458.149 641.452,454.629 653.464,451.25 665.477,447.875 677.49,444.055 689.503,439.625 701.515,435.16 713.528,431.048 725.541,427.269 737.553,423.79 749.566,420.581 761.579,417.619 773.592,414.885 785.604,412.362 797.617,410.032 809.63,407.88 821.642,405.886 833.655,404.031 845.668,402.286 857.681,400.623 869.693,399.007 881.706,397.457 893.719,396.006 905.732,394.636 917.744,393.313 929.757,391.985 941.77,390.521 953.782,388.694 965.795,386.581 977.808,384.445 989.821,382.319 1001.83,380.037 1013.85,377.573 1025.86,375.092 1037.87,372.668 1049.88,370.346 1061.9,368.154 1073.91,366.026 1085.92,363.898 1097.94,361.81 1109.95,359.752 1121.96,357.678 1133.97,355.627 1145.99,353.662 1158,351.778 1170.01,349.954 1182.02,348.203 1194.04,346.497 1206.05,344.853 1218.06,343.314 1230.08,341.875 1242.09,340.532 1254.1,339.271 1266.11,338.092 1278.13,336.997 1290.14,335.974 1302.15,335.016 1314.16,334.112 1326.18,333.256 1338.19,332.437 1350.2,331.644 1362.22,330.861 1374.23,330.067 1386.24,329.23 1398.25,328.293 1410.27,327.232 1422.28,326.142 1434.29,325.115 1446.3,324.159 1458.32,323.264 1470.33,322.416 1482.34,321.603 1494.36,320.815 1506.37,320.043 1518.38,319.292 1530.39,318.563 1542.41,317.832 1554.42,317.074 1566.43,316.281 1578.44,315.422 1590.46,314.486 1602.47,313.551 1614.48,312.666 1626.5,311.817 1638.51,310.995 1650.52,310.185 1662.53,309.366 1674.55,308.508 1686.56,307.592 1698.57,306.582 1710.58,305.4 1722.6,304.072 1734.61,302.747 1746.62,301.491 1758.64,300.297 1770.65,299.17 1782.66,298.116 1794.67,297.133 1806.69,296.214 1818.7,295.354 1830.71,294.544 1842.72,293.776 1854.74,293.044 1866.75,292.35 1878.76,291.703 1890.77,291.101 1902.79,290.537 1914.8,290.009 1926.81,289.515 1938.83,289.051 1950.84,288.613 1962.85,288.201 1974.86,287.811 1986.88,287.44 1998.89,287.085 2010.9,286.745 2022.91,286.42 2034.93,286.106 2046.94,285.8 2058.95,285.497 2070.97,285.189 2082.98,284.869 2094.99,284.523 2107,284.143 2119.02,283.712 2131.03,283.199 2143.04,282.584 2155.05,281.854 2167.07,280.954 2179.08,279.786 2191.09,278.49 2203.11,277.272 2215.12,276.126 2227.13,275.037 2239.14,273.994 2251.16,272.976 2263.17,271.972 2275.18,270.962 2287.19,269.905 2299.21,268.763 2311.22,267.493 2323.23,266.013 2335.25,264.191 2347.26,262.03 2359.27,259.82 2371.28,257.759 2383.3,255.836 2395.31,254.05 2407.32,252.401 2419.33,250.878 2431.35,249.469 2443.36,248.167 2455.37,246.963 2467.39,245.848 2479.4,244.815 2491.41,243.856 2503.42,242.966 2515.44,242.139 2527.45,241.369 2539.46,240.652 2551.47,239.983 2563.49,239.359 2575.5,238.776 2587.51,238.231 2599.53,237.721 2611.54,237.244 2623.55,236.795 2635.56,236.375 2647.58,235.979 2659.59,235.607 2671.6,235.256 2683.61,234.925 2695.63,234.613 2707.64,234.318 2719.65,234.038 2731.67,233.774 2743.68,233.522 2755.69,233.283 2767.7,233.056 2779.72,232.839 2791.73,232.632 2803.74,232.434 2815.75,232.244 2827.77,232.063 2839.78,231.888 2851.79,231.72 2863.81,231.558 2875.82,231.401 2887.83,231.25 2899.84,231.103 2911.86,230.96 2923.87,230.821 2935.88,230.686 2947.89,230.553 2959.91,230.423 2971.92,230.296 2983.93,230.171 2995.95,230.049 3007.96,229.929 3019.97,229.811 3031.98,229.694 3044,229.579 3056.01,229.464 3068.02,229.351 3080.03,229.239 3092.05,229.128 3104.06,229.018 3116.07,228.909 3128.09,228.8 3140.1,228.692 3152.11,228.584 3164.12,228.476 3176.14,228.369 3188.15,228.26 3200.16,228.152 3212.17,228.043 3224.19,227.933 "/>
<polyline clip-path="url(#clip692)" style="stroke:#3da44d; stroke-linecap:round; stroke-linejoin:round; stroke-width:4; stroke-opacity:1; fill:none" points="221.006,1254.52 233.019,1235.9 245.032,1201.24 257.044,1171.31 269.057,1145.28 281.07,1122.49 293.083,1102.45 305.095,1084.75 317.108,1069.06 329.121,1055.12 341.134,1042.7 353.146,1031.58 365.159,1021.58 377.172,1012.6 389.184,1004.51 401.197,997.193 413.21,990.538 425.223,984.456 437.235,978.904 449.248,973.842 461.261,969.215 473.273,964.987 485.286,961.121 497.299,957.589 509.312,954.357 521.324,951.397 533.337,948.679 545.35,946.182 557.363,943.887 569.375,941.77 581.388,939.814 593.401,938.005 605.413,936.333 617.426,934.782 629.439,933.338 641.452,931.994 653.464,930.745 665.477,929.578 677.49,928.461 689.503,927.376 701.515,926.351 713.528,925.403 725.541,924.527 737.553,923.714 749.566,922.96 761.579,922.261 773.592,921.613 785.604,921.012 797.617,920.454 809.63,919.935 821.642,919.452 833.655,919.002 845.668,918.58 857.681,918.185 869.693,917.808 881.706,917.451 893.719,917.115 905.732,916.797 917.744,916.49 929.757,916.185 941.77,915.86 953.782,915.484 965.795,915.057 977.808,914.609 989.821,914.138 1001.83,913.596 1013.85,912.971 1025.86,912.294 1037.87,911.566 1049.88,910.826 1061.9,910.129 1073.91,909.459 1085.92,908.8 1097.94,908.156 1109.95,907.516 1121.96,906.859 1133.97,906.18 1145.99,905.493 1158,904.793 1170.01,904.094 1182.02,903.431 1194.04,902.8 1206.05,902.203 1218.06,901.649 1230.08,901.136 1242.09,900.659 1254.1,900.214 1266.11,899.799 1278.13,899.412 1290.14,899.049 1302.15,898.71 1314.16,898.391 1326.18,898.091 1338.19,897.805 1350.2,897.534 1362.22,897.273 1374.23,897.018 1386.24,896.764 1398.25,896.506 1410.27,896.242 1422.28,895.981 1434.29,895.729 1446.3,895.487 1458.32,895.255 1470.33,895.028 1482.34,894.804 1494.36,894.58 1506.37,894.353 1518.38,894.134 1530.39,893.929 1542.41,893.737 1554.42,893.557 1566.43,893.388 1578.44,893.228 1590.46,893.078 1602.47,892.935 1614.48,892.801 1626.5,892.675 1638.51,892.555 1650.52,892.441 1662.53,892.333 1674.55,892.229 1686.56,892.13 1698.57,892.034 1710.58,891.94 1722.6,891.849 1734.61,891.761 1746.62,891.676 1758.64,891.596 1770.65,891.518 1782.66,891.444 1794.67,891.373 1806.69,891.304 1818.7,891.238 1830.71,891.174 1842.72,891.112 1854.74,891.051 1866.75,890.992 1878.76,890.935 1890.77,890.879 1902.79,890.825 1914.8,890.772 1926.81,890.72 1938.83,890.669 1950.84,890.619 1962.85,890.569 1974.86,890.521 1986.88,890.473 1998.89,890.426 2010.9,890.379 2022.91,890.333 2034.93,890.288 2046.94,890.242 2058.95,890.197 2070.97,890.152 2082.98,890.107 2094.99,890.062 2107,890.017 2119.02,889.971 2131.03,889.924 2143.04,889.876 2155.05,889.826 2167.07,889.776 2179.08,889.722 2191.09,889.667 2203.11,889.612 2215.12,889.557 2227.13,889.502 2239.14,889.447 2251.16,889.392 2263.17,889.337 2275.18,889.281 2287.19,889.224 2299.21,889.165 2311.22,889.102 2323.23,889.037 2335.25,888.968 2347.26,888.892 2359.27,888.814 2371.28,888.737 2383.3,888.661 2395.31,888.586 2407.32,888.513 2419.33,888.44 2431.35,888.368 2443.36,888.297 2455.37,888.226 2467.39,888.156 2479.4,888.086 2491.41,888.017 2503.42,887.947 2515.44,887.878 2527.45,887.809 2539.46,887.74 2551.47,887.671 2563.49,887.602 2575.5,887.532 2587.51,887.463 2599.53,887.393 2611.54,887.323 2623.55,887.253 2635.56,887.183 2647.58,887.113 2659.59,887.042 2671.6,886.971 2683.61,886.9 2695.63,886.829 2707.64,886.758 2719.65,886.687 2731.67,886.615 2743.68,886.543 2755.69,886.471 2767.7,886.398 2779.72,886.325 2791.73,886.252 2803.74,886.179 2815.75,886.105 2827.77,886.031 2839.78,885.957 2851.79,885.882 2863.81,885.807 2875.82,885.731 2887.83,885.655 2899.84,885.578 2911.86,885.5 2923.87,885.422 2935.88,885.343 2947.89,885.263 2959.91,885.182 2971.92,885.101 2983.93,885.019 2995.95,884.936 3007.96,884.853 3019.97,884.769 3031.98,884.684 3044,884.599 3056.01,884.513 3068.02,884.425 3080.03,884.338 3092.05,884.249 3104.06,884.161 3116.07,884.071 3128.09,883.981 3140.1,883.89 3152.11,883.798 3164.12,883.705 3176.14,883.611 3188.15,883.516 3200.16,883.42 3212.17,883.322 3224.19,883.222 "/>
<polyline clip-path="url(#clip692)" style="stroke:#e26f46; stroke-linecap:round; stroke-linejoin:round; stroke-width:4; stroke-opacity:1; fill:none" stroke-dasharray="16, 8, 2, 8" points="221.006,1254.52 233.019,1159.32 245.032,949.695 257.044,879.484 269.057,854.203 281.07,828.806 293.083,818.581 305.095,782.13 317.108,755.932 329.121,729.386 341.134,708.067 353.146,691.826 365.159,637.929 377.172,610.867 389.184,588.974 401.197,555.756 413.21,544.686 425.223,528.038 437.235,511.382 449.248,494.769 461.261,494.769 473.273,483.709 485.286,467.142 497.299,450.619 509.312,434.156 521.324,428.658 533.337,423.131 545.35,423.131 557.363,423.131 569.375,423.131 581.388,423.131 593.401,423.131 605.413,423.131 617.426,423.131 629.439,423.131 641.452,411.424 653.464,411.424 665.477,411.424 677.49,405.395 689.503,399.371 701.515,381.369 713.528,375.365 725.541,369.361 737.553,369.361 749.566,363.315 761.579,357.27 773.592,351.174 785.604,351.174 797.617,351.174 809.63,351.174 821.642,351.174 833.655,351.174 845.668,351.174 857.681,351.174 869.693,344.86 881.706,338.546 893.719,338.546 905.732,338.546 917.744,338.546 929.757,338.546 941.77,338.546 953.782,332.118 965.795,332.118 977.808,325.69 989.821,325.69 1001.83,325.69 1013.85,319.072 1025.86,312.453 1037.87,312.453 1049.88,312.453 1061.9,312.453 1073.91,312.453 1085.92,305.694 1097.94,305.694 1109.95,305.694 1121.96,298.713 1133.97,291.668 1145.99,291.668 1158,291.668 1170.01,291.668 1182.02,291.668 1194.04,291.668 1206.05,284.129 1218.06,276.405 1230.08,276.405 1242.09,276.405 1254.1,268.469 1266.11,268.469 1278.13,268.469 1290.14,268.469 1302.15,268.469 1314.16,268.469 1326.18,268.469 1338.19,268.469 1350.2,268.469 1362.22,268.469 1374.23,268.469 1386.24,268.469 1398.25,268.469 1410.27,260.195 1422.28,251.805 1434.29,251.805 1446.3,251.805 1458.32,251.805 1470.33,251.805 1482.34,251.805 1494.36,251.805 1506.37,251.805 1518.38,251.805 1530.39,251.805 1542.41,251.805 1554.42,251.805 1566.43,251.805 1578.44,251.805 1590.46,242.213 1602.47,242.213 1614.48,242.213 1626.5,242.213 1638.51,242.213 1650.52,242.213 1662.53,242.213 1674.55,242.213 1686.56,242.213 1698.57,242.213 1710.58,242.213 1722.6,231.903 1734.61,231.903 1746.62,231.903 1758.64,231.903 1770.65,220.657 1782.66,220.657 1794.67,220.657 1806.69,220.657 1818.7,220.657 1830.71,220.657 1842.72,220.657 1854.74,220.657 1866.75,209.145 1878.76,209.145 1890.77,209.145 1902.79,209.145 1914.8,209.145 1926.81,209.145 1938.83,209.145 1950.84,209.145 1962.85,209.145 1974.86,209.145 1986.88,209.145 1998.89,209.145 2010.9,209.145 2022.91,209.145 2034.93,209.145 2046.94,209.145 2058.95,209.145 2070.97,209.145 2082.98,209.145 2094.99,209.145 2107,209.145 2119.02,209.145 2131.03,209.145 2143.04,209.145 2155.05,209.145 2167.07,209.145 2179.08,209.145 2191.09,195.399 2203.11,195.399 2215.12,195.399 2227.13,195.399 2239.14,195.399 2251.16,195.399 2263.17,195.399 2275.18,195.399 2287.19,195.399 2299.21,195.399 2311.22,195.399 2323.23,195.399 2335.25,195.399 2347.26,179.353 2359.27,179.353 2371.28,179.353 2383.3,161.431 2395.31,161.431 2407.32,161.431 2419.33,141.951 2431.35,141.951 2443.36,141.951 2455.37,141.951 2467.39,141.951 2479.4,141.951 2491.41,141.951 2503.42,141.951 2515.44,141.951 2527.45,141.951 2539.46,141.951 2551.47,141.951 2563.49,141.951 2575.5,141.951 2587.51,141.951 2599.53,141.951 2611.54,141.951 2623.55,141.951 2635.56,141.951 2647.58,141.951 2659.59,141.951 2671.6,141.951 2683.61,141.951 2695.63,141.951 2707.64,141.951 2719.65,141.951 2731.67,141.951 2743.68,141.951 2755.69,141.951 2767.7,141.951 2779.72,141.951 2791.73,141.951 2803.74,141.951 2815.75,141.951 2827.77,141.951 2839.78,141.951 2851.79,141.951 2863.81,141.951 2875.82,141.951 2887.83,141.951 2899.84,141.951 2911.86,141.951 2923.87,141.951 2935.88,141.951 2947.89,141.951 2959.91,141.951 2971.92,141.951 2983.93,141.951 2995.95,141.951 3007.96,141.951 3019.97,141.951 3031.98,141.951 3044,141.951 3056.01,141.951 3068.02,141.951 3080.03,141.951 3092.05,141.951 3104.06,141.951 3116.07,141.951 3128.09,141.951 3140.1,141.951 3152.11,141.951 3164.12,141.951 3176.14,141.951 3188.15,141.951 3200.16,141.951 3212.17,141.951 3224.19,141.951 "/>
<polyline clip-path="url(#clip692)" style="stroke:#3da44d; stroke-linecap:round; stroke-linejoin:round; stroke-width:4; stroke-opacity:1; fill:none" stroke-dasharray="16, 8, 2, 8" points="221.006,1254.52 233.019,1221.4 245.032,1196.48 257.044,1183.91 269.057,1171.22 281.07,1145.6 293.083,1137.01 305.095,1106.48 317.108,1084.07 329.121,1070.46 341.134,1061.37 353.146,1047.55 365.159,1038.26 377.172,1028.92 389.184,1028.92 401.197,1028.92 413.21,1024.09 425.223,1009.53 437.235,1004.67 449.248,994.947 461.261,994.947 473.273,980.364 485.286,970.636 497.299,970.636 509.312,970.636 521.324,970.636 533.337,965.732 545.35,965.732 557.363,965.732 569.375,965.732 581.388,960.612 593.401,955.41 605.413,955.41 617.426,955.41 629.439,955.41 641.452,950.203 653.464,950.203 665.477,950.203 677.49,950.203 689.503,950.203 701.515,944.827 713.528,944.827 725.541,944.827 737.553,944.827 749.566,939.395 761.579,939.395 773.592,939.395 785.604,939.395 797.617,939.395 809.63,939.395 821.642,939.395 833.655,939.395 845.668,939.395 857.681,939.395 869.693,939.395 881.706,939.395 893.719,939.395 905.732,939.395 917.744,939.395 929.757,939.395 941.77,939.395 953.782,939.395 965.795,939.395 977.808,939.395 989.821,939.395 1001.83,939.395 1013.85,939.395 1025.86,939.395 1037.87,939.395 1049.88,933.398 1061.9,933.398 1073.91,933.398 1085.92,933.398 1097.94,933.398 1109.95,933.398 1121.96,933.398 1133.97,933.398 1145.99,933.398 1158,933.398 1170.01,926.733 1182.02,926.733 1194.04,919.804 1206.05,919.804 1218.06,919.804 1230.08,919.804 1242.09,919.804 1254.1,919.804 1266.11,919.804 1278.13,919.804 1290.14,919.804 1302.15,919.804 1314.16,919.804 1326.18,919.804 1338.19,919.804 1350.2,919.804 1362.22,919.804 1374.23,919.804 1386.24,919.804 1398.25,919.804 1410.27,919.804 1422.28,919.804 1434.29,919.804 1446.3,919.804 1458.32,919.804 1470.33,919.804 1482.34,919.804 1494.36,919.804 1506.37,911.376 1518.38,911.376 1530.39,911.376 1542.41,911.376 1554.42,911.376 1566.43,911.376 1578.44,911.376 1590.46,911.376 1602.47,911.376 1614.48,911.376 1626.5,911.376 1638.51,911.376 1650.52,911.376 1662.53,911.376 1674.55,911.376 1686.56,911.376 1698.57,911.376 1710.58,911.376 1722.6,911.376 1734.61,911.376 1746.62,911.376 1758.64,911.376 1770.65,911.376 1782.66,911.376 1794.67,911.376 1806.69,911.376 1818.7,911.376 1830.71,911.376 1842.72,911.376 1854.74,911.376 1866.75,911.376 1878.76,911.376 1890.77,911.376 1902.79,911.376 1914.8,911.376 1926.81,911.376 1938.83,911.376 1950.84,911.376 1962.85,911.376 1974.86,911.376 1986.88,911.376 1998.89,911.376 2010.9,911.376 2022.91,911.376 2034.93,911.376 2046.94,911.376 2058.95,911.376 2070.97,911.376 2082.98,911.376 2094.99,911.376 2107,911.376 2119.02,911.376 2131.03,911.376 2143.04,911.376 2155.05,911.376 2167.07,911.376 2179.08,911.376 2191.09,911.376 2203.11,911.376 2215.12,911.376 2227.13,911.376 2239.14,911.376 2251.16,911.376 2263.17,911.376 2275.18,911.376 2287.19,911.376 2299.21,911.376 2311.22,911.376 2323.23,911.376 2335.25,911.376 2347.26,911.376 2359.27,911.376 2371.28,911.376 2383.3,911.376 2395.31,911.376 2407.32,911.376 2419.33,911.376 2431.35,911.376 2443.36,911.376 2455.37,911.376 2467.39,911.376 2479.4,911.376 2491.41,911.376 2503.42,911.376 2515.44,911.376 2527.45,911.376 2539.46,911.376 2551.47,911.376 2563.49,911.376 2575.5,911.376 2587.51,911.376 2599.53,911.376 2611.54,911.376 2623.55,911.376 2635.56,911.376 2647.58,911.376 2659.59,911.376 2671.6,911.376 2683.61,911.376 2695.63,911.376 2707.64,911.376 2719.65,911.376 2731.67,911.376 2743.68,911.376 2755.69,911.376 2767.7,911.376 2779.72,911.376 2791.73,911.376 2803.74,911.376 2815.75,911.376 2827.77,911.376 2839.78,911.376 2851.79,911.376 2863.81,911.376 2875.82,911.376 2887.83,911.376 2899.84,911.376 2911.86,911.376 2923.87,911.376 2935.88,911.376 2947.89,911.376 2959.91,911.376 2971.92,911.376 2983.93,911.376 2995.95,911.376 3007.96,911.376 3019.97,911.376 3031.98,911.376 3044,911.376 3056.01,911.376 3068.02,911.376 3080.03,911.376 3092.05,911.376 3104.06,911.376 3116.07,911.376 3128.09,911.376 3140.1,911.376 3152.11,911.376 3164.12,911.376 3176.14,911.376 3188.15,911.376 3200.16,911.376 3212.17,911.376 3224.19,911.376 "/>
<path clip-path="url(#clip692)" d="M221.006 1254.52 L233.019 1217.48 L245.032 1147.57 L257.044 1085.46 L269.057 1030.54 L281.07 981.787 L293.083 937.333 L305.095 898.274 L317.108 862.878 L329.121 831.713 L341.134 804.078 L353.146 777.713 L365.159 753.615 L377.172 733.196 L389.184 713.643 L401.197 695.5 L413.21 679.704 L425.223 666.674 L437.235 653.747 L449.248 642.538 L461.261 631.452 L473.273 620.732 L485.286 612.963 L497.299 605.23 L509.312 598.71 L521.324 592.483 L533.337 586.804 L545.35 581.119 L557.363 577.166 L569.375 573.565 L581.388 568.942 L593.401 565.306 L605.413 562.954 L617.426 558.997 L629.439 555.977 L641.452 553.412 L653.464 550.553 L665.477 547.839 L677.49 543.93 L689.503 537.422 L701.515 530.481 L713.528 524.589 L725.541 521.694 L737.553 518.84 L749.566 515.514 L761.579 511.978 L773.592 507.969 L785.604 505.451 L797.617 504.541 L809.63 502.523 L821.642 500.573 L833.655 498.893 L845.668 497.478 L857.681 495.625 L869.693 494.403 L881.706 493.267 L893.719 490.562 L905.732 489.179 L917.744 488.202 L929.757 486.891 L941.77 485.93 L953.782 484.254 L965.795 482.065 L977.808 479.631 L989.821 477.281 L1001.83 475.135 L1013.85 472.522 L1025.86 469.726 L1037.87 467.111 L1049.88 466.307 L1061.9 464.314 L1073.91 461.407 L1085.92 460.158 L1097.94 458.993 L1109.95 457.684 L1121.96 456.87 L1133.97 454.811 L1145.99 451.956 L1158 450.329 L1170.01 446.33 L1182.02 444.171 L1194.04 442.411 L1206.05 440.235 L1218.06 438.733 L1230.08 436.245 L1242.09 434.769 L1254.1 433.876 L1266.11 432.899 L1278.13 431.449 L1290.14 430.118 L1302.15 428.876 L1314.16 427.738 L1326.18 426.697 L1338.19 424.978 L1350.2 424.104 L1362.22 423.784 L1374.23 422.936 L1386.24 421.765 L1398.25 420.68 L1410.27 419.134 L1422.28 416.885 L1434.29 416.051 L1446.3 415.552 L1458.32 415.093 L1470.33 414.273 L1482.34 413.132 L1494.36 411.636 L1506.37 411.299 L1518.38 410.637 L1530.39 410.327 L1542.41 410.041 L1554.42 409.71 L1566.43 408.526 L1578.44 408.018 L1590.46 407.704 L1602.47 407.295 L1614.48 407.013 L1626.5 405.089 L1638.51 404.71 L1650.52 402.299 L1662.53 400.702 L1674.55 400.398 L1686.56 400.129 L1698.57 399.566 L1710.58 398.232 L1722.6 397.066 L1734.61 395.459 L1746.62 393.885 L1758.64 392.019 L1770.65 390.001 L1782.66 388.18 L1794.67 387.774 L1806.69 387.046 L1818.7 386.084 L1830.71 385.821 L1842.72 384.554 L1854.74 383.839 L1866.75 383.536 L1878.76 382.805 L1890.77 382.116 L1902.79 381.291 L1914.8 380.975 L1926.81 380.369 L1938.83 379.673 L1950.84 379.271 L1962.85 378.825 L1974.86 378.411 L1986.88 378.025 L1998.89 377.666 L2010.9 377.325 L2022.91 377.005 L2034.93 376.706 L2046.94 376.429 L2058.95 376.171 L2070.97 375.931 L2082.98 375.708 L2094.99 375.466 L2107 375.101 L2119.02 374.703 L2131.03 374.325 L2143.04 373.975 L2155.05 373.152 L2167.07 371.512 L2179.08 369.209 L2191.09 368.017 L2203.11 365.697 L2215.12 365.66 L2227.13 363.623 L2239.14 360.939 L2251.16 360.304 L2263.17 360.29 L2275.18 360.03 L2287.19 359.933 L2299.21 359.075 L2311.22 357.865 L2323.23 356.426 L2335.25 353.298 L2347.26 350.291 L2359.27 347.443 L2371.28 344.752 L2383.3 343.067 L2395.31 342.354 L2407.32 340.803 L2419.33 338.206 L2431.35 336.433 L2443.36 336.035 L2455.37 335.643 L2467.39 333.234 L2479.4 331.884 L2491.41 331.39 L2503.42 330.455 L2515.44 329.993 L2527.45 329.435 L2539.46 328.602 L2551.47 327.842 L2563.49 327.31 L2575.5 326.807 L2587.51 326.363 L2599.53 326.15 L2611.54 325.738 L2623.55 325.492 L2635.56 325.193 L2647.58 324.906 L2659.59 324.615 L2671.6 324.254 L2683.61 323.92 L2695.63 323.611 L2707.64 323.439 L2719.65 323.426 L2731.67 323.313 L2743.68 323.137 L2755.69 322.972 L2767.7 322.816 L2779.72 322.669 L2791.73 322.53 L2803.74 322.395 L2815.75 322.265 L2827.77 322.143 L2839.78 322.031 L2851.79 321.985 L2863.81 321.802 L2875.82 321.481 L2887.83 321.256 L2899.84 320.891 L2911.86 320.739 L2923.87 320.67 L2935.88 320.606 L2947.89 320.439 L2959.91 320.391 L2971.92 320.329 L2983.93 320.271 L2995.95 320.217 L3007.96 320.166 L3019.97 320.119 L3031.98 320.075 L3044 320.033 L3056.01 319.995 L3068.02 319.599 L3080.03 319.593 L3092.05 318.406 L3104.06 318.394 L3116.07 318.383 L3128.09 318.372 L3140.1 318.363 L3152.11 318.354 L3164.12 318.347 L3176.14 318.332 L3188.15 318.308 L3200.16 317.934 L3212.17 317.924 L3224.19 317.914 L3224.19 89.5881 L3212.17 89.6008 L3200.16 89.6144 L3188.15 89.629 L3176.14 89.6445 L3164.12 89.661 L3152.11 89.6787 L3140.1 89.6976 L3128.09 89.7523 L3116.07 90.04 L3104.06 90.2648 L3092.05 90.3158 L3080.03 90.37 L3068.02 90.4276 L3056.01 90.4947 L3044 90.656 L3031.98 91.0906 L3019.97 91.2157 L3007.96 91.3496 L2995.95 91.493 L2983.93 91.6033 L2971.92 91.649 L2959.91 91.6986 L2947.89 91.7524 L2935.88 91.8107 L2923.87 91.8739 L2911.86 92.5123 L2899.84 92.5766 L2887.83 92.8622 L2875.82 93.0394 L2863.81 93.9551 L2851.79 94.2827 L2839.78 94.6337 L2827.77 95.01 L2815.75 95.2235 L2803.74 95.2711 L2791.73 95.323 L2779.72 95.3795 L2767.7 95.4411 L2755.69 95.5842 L2743.68 95.9395 L2731.67 97.8634 L2719.65 98.0566 L2707.64 98.2035 L2695.63 98.3612 L2683.61 98.5306 L2671.6 99.1603 L2659.59 100.281 L2647.58 101.275 L2635.56 101.721 L2623.55 102.423 L2611.54 103.033 L2599.53 103.581 L2587.51 104.232 L2575.5 105.481 L2563.49 106.956 L2551.47 108.058 L2539.46 109.286 L2527.45 110.212 L2515.44 111.156 L2503.42 112.153 L2491.41 113.45 L2479.4 115.339 L2467.39 116.531 L2455.37 117.883 L2443.36 119.446 L2431.35 120.601 L2419.33 121.634 L2407.32 124.343 L2395.31 125.117 L2383.3 126.783 L2371.28 128.444 L2359.27 129.843 L2347.26 131.395 L2335.25 133.313 L2323.23 134.756 L2311.22 136.252 L2299.21 138.048 L2287.19 139.728 L2275.18 141.23 L2263.17 142.668 L2251.16 143.679 L2239.14 144.975 L2227.13 145.669 L2215.12 147.71 L2203.11 149.733 L2191.09 151.68 L2179.08 152.441 L2167.07 153.14 L2155.05 154.169 L2143.04 154.465 L2131.03 154.782 L2119.02 155.355 L2107 155.688 L2094.99 156.04 L2082.98 156.412 L2070.97 156.798 L2058.95 157.214 L2046.94 157.809 L2034.93 158.157 L2022.91 158.593 L2010.9 159.097 L1998.89 159.629 L1986.88 160.192 L1974.86 160.577 L1962.85 160.894 L1950.84 161.236 L1938.83 161.608 L1926.81 162.025 L1914.8 162.489 L1902.79 164.218 L1890.77 164.441 L1878.76 165.244 L1866.75 165.379 L1854.74 165.534 L1842.72 166.98 L1830.71 167.821 L1818.7 168.455 L1806.69 169.626 L1794.67 170.062 L1782.66 171.266 L1770.65 173.394 L1758.64 174.204 L1746.62 176.499 L1734.61 178.286 L1722.6 179.606 L1710.58 181.014 L1698.57 182.516 L1686.56 184.015 L1674.55 184.586 L1662.53 185.324 L1650.52 186.394 L1638.51 187.209 L1626.5 187.831 L1614.48 189.152 L1602.47 190.247 L1590.46 191.386 L1578.44 192.169 L1566.43 192.333 L1554.42 193.471 L1542.41 194.282 L1530.39 194.995 L1518.38 195.857 L1506.37 196.835 L1494.36 197.975 L1482.34 198.531 L1470.33 198.79 L1458.32 200.112 L1446.3 201.076 L1434.29 202.292 L1422.28 203.842 L1410.27 204.636 L1398.25 205.55 L1386.24 206.462 L1374.23 207.439 L1362.22 208.733 L1350.2 209.313 L1338.19 209.849 L1326.18 210.843 L1314.16 212.476 L1302.15 213.362 L1290.14 214.258 L1278.13 215.093 L1266.11 216 L1254.1 216.978 L1242.09 218.014 L1230.08 219.12 L1218.06 220.462 L1206.05 222.247 L1194.04 223.295 L1182.02 224.456 L1170.01 227.103 L1158 229.192 L1145.99 232.203 L1133.97 234.989 L1121.96 237.125 L1109.95 239.479 L1097.94 240.885 L1085.92 242.594 L1073.91 245.786 L1061.9 248.063 L1049.88 249.928 L1037.87 251.92 L1025.86 255.281 L1013.85 256.591 L1001.83 258.343 L989.821 260.165 L977.808 262.275 L965.795 262.857 L953.782 265.121 L941.77 267.131 L929.757 268.367 L917.744 269.625 L905.732 270.966 L893.719 272.545 L881.706 273.936 L869.693 275.971 L857.681 278.294 L845.668 280.279 L833.655 282.387 L821.642 284.832 L809.63 287.308 L797.617 290.01 L785.604 292.942 L773.592 295.303 L761.579 298.423 L749.566 301.206 L737.553 304.401 L725.541 307.739 L713.528 311.044 L701.515 314.239 L689.503 317.372 L677.49 320.695 L665.477 324.506 L653.464 330.038 L641.452 333.326 L629.439 337.609 L617.426 341.843 L605.413 345.513 L593.401 350.864 L581.388 355.488 L569.375 359.22 L557.363 364.619 L545.35 370.516 L533.337 377.589 L521.324 386.051 L509.312 392.461 L497.299 401.965 L485.286 411.352 L473.273 420.901 L461.261 431.777 L449.248 443.527 L437.235 457.264 L425.223 472.52 L413.21 488.259 L401.197 505.573 L389.184 524.911 L377.172 545.101 L365.159 569.33 L353.146 596.915 L341.134 627.325 L329.121 660.555 L317.108 698.286 L305.095 740.317 L293.083 790.184 L281.07 847.341 L269.057 913.332 L257.044 990.807 L245.032 1083.48 L233.019 1194.04 L221.006 1254.52  Z" fill="#e26f46" fill-rule="evenodd" fill-opacity="0.3"/>
<polyline clip-path="url(#clip692)" style="stroke:#e26f46; stroke-linecap:round; stroke-linejoin:round; stroke-width:4; stroke-opacity:0; fill:none" points="221.006,1254.52 233.019,1217.48 245.032,1147.57 257.044,1085.46 269.057,1030.54 281.07,981.787 293.083,937.333 305.095,898.274 317.108,862.878 329.121,831.713 341.134,804.078 353.146,777.713 365.159,753.615 377.172,733.196 389.184,713.643 401.197,695.5 413.21,679.704 425.223,666.674 437.235,653.747 449.248,642.538 461.261,631.452 473.273,620.732 485.286,612.963 497.299,605.23 509.312,598.71 521.324,592.483 533.337,586.804 545.35,581.119 557.363,577.166 569.375,573.565 581.388,568.942 593.401,565.306 605.413,562.954 617.426,558.997 629.439,555.977 641.452,553.412 653.464,550.553 665.477,547.839 677.49,543.93 689.503,537.422 701.515,530.481 713.528,524.589 725.541,521.694 737.553,518.84 749.566,515.514 761.579,511.978 773.592,507.969 785.604,505.451 797.617,504.541 809.63,502.523 821.642,500.573 833.655,498.893 845.668,497.478 857.681,495.625 869.693,494.403 881.706,493.267 893.719,490.562 905.732,489.179 917.744,488.202 929.757,486.891 941.77,485.93 953.782,484.254 965.795,482.065 977.808,479.631 989.821,477.281 1001.83,475.135 1013.85,472.522 1025.86,469.726 1037.87,467.111 1049.88,466.307 1061.9,464.314 1073.91,461.407 1085.92,460.158 1097.94,458.993 1109.95,457.684 1121.96,456.87 1133.97,454.811 1145.99,451.956 1158,450.329 1170.01,446.33 1182.02,444.171 1194.04,442.411 1206.05,440.235 1218.06,438.733 1230.08,436.245 1242.09,434.769 1254.1,433.876 1266.11,432.899 1278.13,431.449 1290.14,430.118 1302.15,428.876 1314.16,427.738 1326.18,426.697 1338.19,424.978 1350.2,424.104 1362.22,423.784 1374.23,422.936 1386.24,421.765 1398.25,420.68 1410.27,419.134 1422.28,416.885 1434.29,416.051 1446.3,415.552 1458.32,415.093 1470.33,414.273 1482.34,413.132 1494.36,411.636 1506.37,411.299 1518.38,410.637 1530.39,410.327 1542.41,410.041 1554.42,409.71 1566.43,408.526 1578.44,408.018 1590.46,407.704 1602.47,407.295 1614.48,407.013 1626.5,405.089 1638.51,404.71 1650.52,402.299 1662.53,400.702 1674.55,400.398 1686.56,400.129 1698.57,399.566 1710.58,398.232 1722.6,397.066 1734.61,395.459 1746.62,393.885 1758.64,392.019 1770.65,390.001 1782.66,388.18 1794.67,387.774 1806.69,387.046 1818.7,386.084 1830.71,385.821 1842.72,384.554 1854.74,383.839 1866.75,383.536 1878.76,382.805 1890.77,382.116 1902.79,381.291 1914.8,380.975 1926.81,380.369 1938.83,379.673 1950.84,379.271 1962.85,378.825 1974.86,378.411 1986.88,378.025 1998.89,377.666 2010.9,377.325 2022.91,377.005 2034.93,376.706 2046.94,376.429 2058.95,376.171 2070.97,375.931 2082.98,375.708 2094.99,375.466 2107,375.101 2119.02,374.703 2131.03,374.325 2143.04,373.975 2155.05,373.152 2167.07,371.512 2179.08,369.209 2191.09,368.017 2203.11,365.697 2215.12,365.66 2227.13,363.623 2239.14,360.939 2251.16,360.304 2263.17,360.29 2275.18,360.03 2287.19,359.933 2299.21,359.075 2311.22,357.865 2323.23,356.426 2335.25,353.298 2347.26,350.291 2359.27,347.443 2371.28,344.752 2383.3,343.067 2395.31,342.354 2407.32,340.803 2419.33,338.206 2431.35,336.433 2443.36,336.035 2455.37,335.643 2467.39,333.234 2479.4,331.884 2491.41,331.39 2503.42,330.455 2515.44,329.993 2527.45,329.435 2539.46,328.602 2551.47,327.842 2563.49,327.31 2575.5,326.807 2587.51,326.363 2599.53,326.15 2611.54,325.738 2623.55,325.492 2635.56,325.193 2647.58,324.906 2659.59,324.615 2671.6,324.254 2683.61,323.92 2695.63,323.611 2707.64,323.439 2719.65,323.426 2731.67,323.313 2743.68,323.137 2755.69,322.972 2767.7,322.816 2779.72,322.669 2791.73,322.53 2803.74,322.395 2815.75,322.265 2827.77,322.143 2839.78,322.031 2851.79,321.985 2863.81,321.802 2875.82,321.481 2887.83,321.256 2899.84,320.891 2911.86,320.739 2923.87,320.67 2935.88,320.606 2947.89,320.439 2959.91,320.391 2971.92,320.329 2983.93,320.271 2995.95,320.217 3007.96,320.166 3019.97,320.119 3031.98,320.075 3044,320.033 3056.01,319.995 3068.02,319.599 3080.03,319.593 3092.05,318.406 3104.06,318.394 3116.07,318.383 3128.09,318.372 3140.1,318.363 3152.11,318.354 3164.12,318.347 3176.14,318.332 3188.15,318.308 3200.16,317.934 3212.17,317.924 3224.19,317.914 "/>
<path clip-path="url(#clip692)" d="M221.006 1254.52 L233.019 1240.9 L245.032 1215.34 L257.044 1192.44 L269.057 1172.63 L281.07 1154.2 L293.083 1138.25 L305.095 1123.6 L317.108 1110.62 L329.121 1098.27 L341.134 1087.98 L353.146 1078.48 L365.159 1070.14 L377.172 1062.24 L389.184 1055.34 L401.197 1048.94 L413.21 1043.39 L425.223 1038.07 L437.235 1032.64 L449.248 1028.46 L461.261 1024.39 L473.273 1020.06 L485.286 1016.87 L497.299 1013.59 L509.312 1010.98 L521.324 1008.49 L533.337 1006.28 L545.35 1004.09 L557.363 1001.52 L569.375 999.575 L581.388 997.858 L593.401 996.465 L605.413 995.177 L617.426 993.998 L629.439 992.732 L641.452 991.842 L653.464 990.851 L665.477 989.813 L677.49 988.709 L689.503 987.648 L701.515 986.808 L713.528 986.052 L725.541 985.261 L737.553 984.687 L749.566 984.076 L761.579 983.353 L773.592 982.981 L785.604 982.182 L797.617 981.691 L809.63 981.234 L821.642 980.808 L833.655 980.413 L845.668 980.039 L857.681 979.175 L869.693 978.631 L881.706 978.383 L893.719 978.023 L905.732 977.466 L917.744 976.934 L929.757 976.407 L941.77 976.048 L953.782 975.893 L965.795 975.748 L977.808 975.614 L989.821 975.476 L1001.83 974.711 L1013.85 973.846 L1025.86 973.402 L1037.87 972.524 L1049.88 971.418 L1061.9 969.225 L1073.91 968.925 L1085.92 967.495 L1097.94 967.245 L1109.95 967.13 L1121.96 966.672 L1133.97 966.167 L1145.99 964.812 L1158 964.103 L1170.01 962.801 L1182.02 961.831 L1194.04 961.479 L1206.05 960.993 L1218.06 960.673 L1230.08 959.629 L1242.09 958.752 L1254.1 958.08 L1266.11 957.653 L1278.13 957.395 L1290.14 957.155 L1302.15 956.984 L1314.16 956.741 L1326.18 956.564 L1338.19 956.136 L1350.2 956.016 L1362.22 955.734 L1374.23 955.305 L1386.24 954.978 L1398.25 954.691 L1410.27 954.377 L1422.28 954.082 L1434.29 953.793 L1446.3 953.092 L1458.32 952.263 L1470.33 952.088 L1482.34 952.011 L1494.36 951.94 L1506.37 951.875 L1518.38 951.814 L1530.39 950.988 L1542.41 950.694 L1554.42 950.427 L1566.43 950.386 L1578.44 950.349 L1590.46 950.316 L1602.47 950.208 L1614.48 950.176 L1626.5 950.146 L1638.51 949.994 L1650.52 949.962 L1662.53 949.741 L1674.55 949.691 L1686.56 949.645 L1698.57 949.601 L1710.58 949.556 L1722.6 949.27 L1734.61 949.084 L1746.62 949.025 L1758.64 948.999 L1770.65 948.924 L1782.66 948.793 L1794.67 948.672 L1806.69 948.656 L1818.7 948.642 L1830.71 948.618 L1842.72 948.592 L1854.74 948.583 L1866.75 948.527 L1878.76 948.503 L1890.77 948.482 L1902.79 948.451 L1914.8 948.354 L1926.81 948.288 L1938.83 948.277 L1950.84 948.268 L1962.85 948.259 L1974.86 948.251 L1986.88 948.244 L1998.89 948.237 L2010.9 948.23 L2022.91 948.224 L2034.93 948.219 L2046.94 948.214 L2058.95 948.209 L2070.97 948.205 L2082.98 948.2 L2094.99 947.611 L2107 947.439 L2119.02 947.259 L2131.03 947.231 L2143.04 947.205 L2155.05 947.181 L2167.07 947.16 L2179.08 947.133 L2191.09 946.531 L2203.11 946.365 L2215.12 946.023 L2227.13 945.87 L2239.14 945.645 L2251.16 945.569 L2263.17 945.241 L2275.18 945.237 L2287.19 944.627 L2299.21 943.915 L2311.22 943.78 L2323.23 943.493 L2335.25 942.99 L2347.26 942.769 L2359.27 942.565 L2371.28 942.381 L2383.3 942.207 L2395.31 942.04 L2407.32 941.892 L2419.33 941.751 L2431.35 941.541 L2443.36 941.501 L2455.37 941.389 L2467.39 941.014 L2479.4 940.658 L2491.41 940.637 L2503.42 940.631 L2515.44 940.626 L2527.45 940.621 L2539.46 940.617 L2551.47 940.34 L2563.49 940.241 L2575.5 940.238 L2587.51 940.236 L2599.53 940.232 L2611.54 940.12 L2623.55 940.041 L2635.56 940.039 L2647.58 940.037 L2659.59 940.033 L2671.6 939.735 L2683.61 939.645 L2695.63 939.64 L2707.64 939.635 L2719.65 939.631 L2731.67 939.627 L2743.68 939.624 L2755.69 939.621 L2767.7 939.618 L2779.72 939.615 L2791.73 939.613 L2803.74 939.611 L2815.75 939.609 L2827.77 939.607 L2839.78 939.606 L2851.79 939.604 L2863.81 939.6 L2875.82 939.519 L2887.83 939.518 L2899.84 939.517 L2911.86 939.516 L2923.87 939.515 L2935.88 939.422 L2947.89 939.422 L2959.91 939.421 L2971.92 939.421 L2983.93 939.42 L2995.95 939.257 L3007.96 939.253 L3019.97 939.252 L3031.98 939.252 L3044 939.251 L3056.01 939.234 L3068.02 939.003 L3080.03 939.001 L3092.05 938.998 L3104.06 938.962 L3116.07 938.77 L3128.09 938.673 L3140.1 938.665 L3152.11 938.659 L3164.12 938.652 L3176.14 938.645 L3188.15 938.637 L3200.16 938.63 L3212.17 938.623 L3224.19 938.609 L3224.19 773.006 L3212.17 773.299 L3200.16 773.621 L3188.15 773.804 L3176.14 773.819 L3164.12 774.161 L3152.11 774.163 L3140.1 774.168 L3128.09 774.172 L3116.07 774.257 L3104.06 774.259 L3092.05 774.261 L3080.03 774.858 L3068.02 775.071 L3056.01 775.278 L3044 775.479 L3031.98 775.95 L3019.97 776.581 L3007.96 776.587 L2995.95 776.768 L2983.93 776.822 L2971.92 777.102 L2959.91 777.227 L2947.89 777.82 L2935.88 778.301 L2923.87 778.763 L2911.86 779.263 L2899.84 779.712 L2887.83 779.986 L2875.82 779.995 L2863.81 780.006 L2851.79 780.07 L2839.78 780.565 L2827.77 780.785 L2815.75 780.788 L2803.74 780.79 L2791.73 780.793 L2779.72 780.797 L2767.7 780.888 L2755.69 780.889 L2743.68 780.91 L2731.67 780.991 L2719.65 781.087 L2707.64 781.2 L2695.63 781.266 L2683.61 781.277 L2671.6 781.289 L2659.59 781.308 L2647.58 781.33 L2635.56 781.34 L2623.55 781.428 L2611.54 781.559 L2599.53 781.767 L2587.51 781.997 L2575.5 782.314 L2563.49 782.538 L2551.47 782.836 L2539.46 782.902 L2527.45 783.237 L2515.44 783.299 L2503.42 783.365 L2491.41 783.437 L2479.4 783.514 L2467.39 783.597 L2455.37 783.686 L2443.36 783.783 L2431.35 783.897 L2419.33 784.358 L2407.32 785.501 L2395.31 785.971 L2383.3 786.419 L2371.28 786.438 L2359.27 786.46 L2347.26 786.816 L2335.25 787.817 L2323.23 787.868 L2311.22 787.924 L2299.21 787.983 L2287.19 788.053 L2275.18 788.126 L2263.17 788.204 L2251.16 788.259 L2239.14 788.292 L2227.13 788.428 L2215.12 788.575 L2203.11 788.89 L2191.09 789.347 L2179.08 789.779 L2167.07 790.056 L2155.05 790.785 L2143.04 791.066 L2131.03 791.095 L2119.02 791.126 L2107 791.161 L2094.99 791.198 L2082.98 791.238 L2070.97 791.282 L2058.95 791.33 L2046.94 791.382 L2034.93 791.438 L2022.91 791.499 L2010.9 791.565 L1998.89 791.635 L1986.88 791.657 L1974.86 791.666 L1962.85 791.688 L1950.84 791.712 L1938.83 792.132 L1926.81 792.223 L1914.8 792.233 L1902.79 792.245 L1890.77 792.259 L1878.76 792.274 L1866.75 792.818 L1854.74 792.823 L1842.72 792.829 L1830.71 792.836 L1818.7 792.844 L1806.69 792.854 L1794.67 792.866 L1782.66 792.88 L1770.65 792.897 L1758.64 792.917 L1746.62 792.942 L1734.61 793.025 L1722.6 793.295 L1710.58 793.359 L1698.57 793.524 L1686.56 793.707 L1674.55 794.08 L1662.53 794.104 L1650.52 794.117 L1638.51 794.137 L1626.5 794.642 L1614.48 794.793 L1602.47 794.91 L1590.46 794.992 L1578.44 795.088 L1566.43 795.173 L1554.42 795.757 L1542.41 795.967 L1530.39 796.109 L1518.38 796.728 L1506.37 797.208 L1494.36 797.349 L1482.34 797.517 L1470.33 797.719 L1458.32 797.976 L1446.3 798.282 L1434.29 798.63 L1422.28 799.047 L1410.27 799.567 L1398.25 800.064 L1386.24 800.474 L1374.23 800.91 L1362.22 801.239 L1350.2 801.627 L1338.19 801.978 L1326.18 802.517 L1314.16 802.795 L1302.15 802.991 L1290.14 803.543 L1278.13 803.692 L1266.11 804.958 L1254.1 805.68 L1242.09 806.251 L1230.08 806.635 L1218.06 807.069 L1206.05 808.305 L1194.04 809.046 L1182.02 810.286 L1170.01 811.244 L1158 812.253 L1145.99 813.116 L1133.97 813.875 L1121.96 814.986 L1109.95 815.615 L1097.94 816.549 L1085.92 817.275 L1073.91 818.178 L1061.9 818.618 L1049.88 819.458 L1037.87 820.203 L1025.86 820.823 L1013.85 821.778 L1001.83 822.771 L989.821 823.306 L977.808 823.982 L965.795 824.38 L953.782 824.669 L941.77 824.87 L929.757 825.341 L917.744 825.686 L905.732 826.067 L893.719 826.381 L881.706 826.715 L869.693 827.051 L857.681 827.388 L845.668 827.753 L833.655 828.147 L821.642 828.579 L809.63 829.138 L797.617 829.896 L785.604 830.66 L773.592 831.425 L761.579 832.335 L749.566 833.314 L737.553 834.167 L725.541 835.06 L713.528 836.172 L701.515 837.657 L689.503 839.078 L677.49 840.321 L665.477 841.552 L653.464 842.906 L641.452 844.422 L629.439 845.859 L617.426 847.411 L605.413 849.284 L593.401 851.184 L581.388 853.509 L569.375 855.834 L557.363 858.346 L545.35 861.083 L533.337 864.099 L521.324 867.329 L509.312 870.891 L497.299 874.788 L485.286 878.686 L473.273 883.262 L461.261 888.216 L449.248 893.5 L437.235 899.706 L425.223 906.676 L413.21 913.475 L401.197 921.17 L389.184 930.056 L377.172 940.419 L365.159 950.865 L353.146 963.556 L341.134 976.936 L329.121 991.323 L317.108 1007.53 L305.095 1026.95 L293.083 1049.38 L281.07 1074.72 L269.057 1104.07 L257.044 1138.28 L245.032 1179.15 L233.019 1228.01 L221.006 1254.52  Z" fill="#3da44d" fill-rule="evenodd" fill-opacity="0.3"/>
<polyline clip-path="url(#clip692)" style="stroke:#3da44d; stroke-linecap:round; stroke-linejoin:round; stroke-width:4; stroke-opacity:0; fill:none" points="221.006,1254.52 233.019,1240.9 245.032,1215.34 257.044,1192.44 269.057,1172.63 281.07,1154.2 293.083,1138.25 305.095,1123.6 317.108,1110.62 329.121,1098.27 341.134,1087.98 353.146,1078.48 365.159,1070.14 377.172,1062.24 389.184,1055.34 401.197,1048.94 413.21,1043.39 425.223,1038.07 437.235,1032.64 449.248,1028.46 461.261,1024.39 473.273,1020.06 485.286,1016.87 497.299,1013.59 509.312,1010.98 521.324,1008.49 533.337,1006.28 545.35,1004.09 557.363,1001.52 569.375,999.575 581.388,997.858 593.401,996.465 605.413,995.177 617.426,993.998 629.439,992.732 641.452,991.842 653.464,990.851 665.477,989.813 677.49,988.709 689.503,987.648 701.515,986.808 713.528,986.052 725.541,985.261 737.553,984.687 749.566,984.076 761.579,983.353 773.592,982.981 785.604,982.182 797.617,981.691 809.63,981.234 821.642,980.808 833.655,980.413 845.668,980.039 857.681,979.175 869.693,978.631 881.706,978.383 893.719,978.023 905.732,977.466 917.744,976.934 929.757,976.407 941.77,976.048 953.782,975.893 965.795,975.748 977.808,975.614 989.821,975.476 1001.83,974.711 1013.85,973.846 1025.86,973.402 1037.87,972.524 1049.88,971.418 1061.9,969.225 1073.91,968.925 1085.92,967.495 1097.94,967.245 1109.95,967.13 1121.96,966.672 1133.97,966.167 1145.99,964.812 1158,964.103 1170.01,962.801 1182.02,961.831 1194.04,961.479 1206.05,960.993 1218.06,960.673 1230.08,959.629 1242.09,958.752 1254.1,958.08 1266.11,957.653 1278.13,957.395 1290.14,957.155 1302.15,956.984 1314.16,956.741 1326.18,956.564 1338.19,956.136 1350.2,956.016 1362.22,955.734 1374.23,955.305 1386.24,954.978 1398.25,954.691 1410.27,954.377 1422.28,954.082 1434.29,953.793 1446.3,953.092 1458.32,952.263 1470.33,952.088 1482.34,952.011 1494.36,951.94 1506.37,951.875 1518.38,951.814 1530.39,950.988 1542.41,950.694 1554.42,950.427 1566.43,950.386 1578.44,950.349 1590.46,950.316 1602.47,950.208 1614.48,950.176 1626.5,950.146 1638.51,949.994 1650.52,949.962 1662.53,949.741 1674.55,949.691 1686.56,949.645 1698.57,949.601 1710.58,949.556 1722.6,949.27 1734.61,949.084 1746.62,949.025 1758.64,948.999 1770.65,948.924 1782.66,948.793 1794.67,948.672 1806.69,948.656 1818.7,948.642 1830.71,948.618 1842.72,948.592 1854.74,948.583 1866.75,948.527 1878.76,948.503 1890.77,948.482 1902.79,948.451 1914.8,948.354 1926.81,948.288 1938.83,948.277 1950.84,948.268 1962.85,948.259 1974.86,948.251 1986.88,948.244 1998.89,948.237 2010.9,948.23 2022.91,948.224 2034.93,948.219 2046.94,948.214 2058.95,948.209 2070.97,948.205 2082.98,948.2 2094.99,947.611 2107,947.439 2119.02,947.259 2131.03,947.231 2143.04,947.205 2155.05,947.181 2167.07,947.16 2179.08,947.133 2191.09,946.531 2203.11,946.365 2215.12,946.023 2227.13,945.87 2239.14,945.645 2251.16,945.569 2263.17,945.241 2275.18,945.237 2287.19,944.627 2299.21,943.915 2311.22,943.78 2323.23,943.493 2335.25,942.99 2347.26,942.769 2359.27,942.565 2371.28,942.381 2383.3,942.207 2395.31,942.04 2407.32,941.892 2419.33,941.751 2431.35,941.541 2443.36,941.501 2455.37,941.389 2467.39,941.014 2479.4,940.658 2491.41,940.637 2503.42,940.631 2515.44,940.626 2527.45,940.621 2539.46,940.617 2551.47,940.34 2563.49,940.241 2575.5,940.238 2587.51,940.236 2599.53,940.232 2611.54,940.12 2623.55,940.041 2635.56,940.039 2647.58,940.037 2659.59,940.033 2671.6,939.735 2683.61,939.645 2695.63,939.64 2707.64,939.635 2719.65,939.631 2731.67,939.627 2743.68,939.624 2755.69,939.621 2767.7,939.618 2779.72,939.615 2791.73,939.613 2803.74,939.611 2815.75,939.609 2827.77,939.607 2839.78,939.606 2851.79,939.604 2863.81,939.6 2875.82,939.519 2887.83,939.518 2899.84,939.517 2911.86,939.516 2923.87,939.515 2935.88,939.422 2947.89,939.422 2959.91,939.421 2971.92,939.421 2983.93,939.42 2995.95,939.257 3007.96,939.253 3019.97,939.252 3031.98,939.252 3044,939.251 3056.01,939.234 3068.02,939.003 3080.03,939.001 3092.05,938.998 3104.06,938.962 3116.07,938.77 3128.09,938.673 3140.1,938.665 3152.11,938.659 3164.12,938.652 3176.14,938.645 3188.15,938.637 3200.16,938.63 3212.17,938.623 3224.19,938.609 "/>
<path clip-path="url(#clip690)" d="M276.065 243.007 L762.812 243.007 L762.812 87.4866 L276.065 87.4866  Z" fill="#ffffff" fill-rule="evenodd" fill-opacity="1"/>
<polyline clip-path="url(#clip690)" style="stroke:#000000; stroke-linecap:round; stroke-linejoin:round; stroke-width:4; stroke-opacity:1; fill:none" points="276.065,243.007 762.812,243.007 762.812,87.4866 276.065,87.4866 276.065,243.007 "/>
<polyline clip-path="url(#clip690)" style="stroke:#e26f46; stroke-linecap:round; stroke-linejoin:round; stroke-width:4; stroke-opacity:1; fill:none" points="294.417,139.327 404.534,139.327 "/>
<path clip-path="url(#clip690)" d="M448.442 151.676 L448.442 142.394 L440.803 142.394 L440.803 138.551 L453.072 138.551 L453.072 153.389 Q450.363 155.31 447.1 156.306 Q443.836 157.278 440.132 157.278 Q432.03 157.278 427.447 152.556 Q422.887 147.81 422.887 139.361 Q422.887 130.889 427.447 126.167 Q432.03 121.422 440.132 121.422 Q443.512 121.422 446.544 122.255 Q449.6 123.088 452.169 124.709 L452.169 129.685 Q449.576 127.486 446.66 126.375 Q443.743 125.264 440.526 125.264 Q434.183 125.264 430.989 128.806 Q427.817 132.347 427.817 139.361 Q427.817 146.352 430.989 149.894 Q434.183 153.435 440.526 153.435 Q443.002 153.435 444.947 153.019 Q446.891 152.579 448.442 151.676 Z" fill="#000000" fill-rule="nonzero" fill-opacity="1" /><path clip-path="url(#clip690)" d="M458.373 130.681 L462.887 130.681 L470.988 152.44 L479.09 130.681 L483.604 130.681 L473.882 156.607 L468.095 156.607 L458.373 130.681 Z" fill="#000000" fill-rule="nonzero" fill-opacity="1" /><path clip-path="url(#clip690)" d="M489.669 122.047 L494.345 122.047 L494.345 136.213 L511.335 136.213 L511.335 122.047 L516.011 122.047 L516.011 156.607 L511.335 156.607 L511.335 140.148 L494.345 140.148 L494.345 156.607 L489.669 156.607 L489.669 122.047 Z" fill="#000000" fill-rule="nonzero" fill-opacity="1" /><path clip-path="url(#clip690)" d="M529.993 125.889 L529.993 152.764 L535.641 152.764 Q542.794 152.764 546.104 149.523 Q549.437 146.283 549.437 139.292 Q549.437 132.347 546.104 129.13 Q542.794 125.889 535.641 125.889 L529.993 125.889 M525.317 122.047 L534.923 122.047 Q544.969 122.047 549.669 126.236 Q554.368 130.403 554.368 139.292 Q554.368 148.227 549.645 152.417 Q544.923 156.607 534.923 156.607 L525.317 156.607 L525.317 122.047 Z" fill="#000000" fill-rule="nonzero" fill-opacity="1" /><polyline clip-path="url(#clip690)" style="stroke:#3da44d; stroke-linecap:round; stroke-linejoin:round; stroke-width:4; stroke-opacity:1; fill:none" points="294.417,191.167 404.534,191.167 "/>
<path clip-path="url(#clip690)" d="M441.799 186.456 L441.799 172.428 L446.058 172.428 L446.058 208.447 L441.799 208.447 L441.799 204.558 Q440.456 206.873 438.396 208.007 Q436.359 209.118 433.489 209.118 Q428.79 209.118 425.827 205.368 Q422.887 201.618 422.887 195.507 Q422.887 189.396 425.827 185.646 Q428.79 181.896 433.489 181.896 Q436.359 181.896 438.396 183.03 Q440.456 184.141 441.799 186.456 M427.285 195.507 Q427.285 200.206 429.206 202.891 Q431.151 205.553 434.53 205.553 Q437.91 205.553 439.854 202.891 Q441.799 200.206 441.799 195.507 Q441.799 190.808 439.854 188.146 Q437.91 185.461 434.53 185.461 Q431.151 185.461 429.206 188.146 Q427.285 190.808 427.285 195.507 Z" fill="#000000" fill-rule="nonzero" fill-opacity="1" /><path clip-path="url(#clip690)" d="M477.007 194.419 L477.007 196.502 L457.424 196.502 Q457.701 200.9 460.063 203.215 Q462.447 205.507 466.683 205.507 Q469.137 205.507 471.428 204.905 Q473.743 204.303 476.011 203.099 L476.011 207.127 Q473.72 208.099 471.312 208.609 Q468.905 209.118 466.428 209.118 Q460.225 209.118 456.59 205.507 Q452.979 201.896 452.979 195.738 Q452.979 189.373 456.405 185.646 Q459.854 181.896 465.687 181.896 Q470.919 181.896 473.951 185.275 Q477.007 188.632 477.007 194.419 M472.748 193.169 Q472.701 189.674 470.78 187.59 Q468.882 185.507 465.734 185.507 Q462.169 185.507 460.016 187.521 Q457.887 189.535 457.563 193.192 L472.748 193.169 Z" fill="#000000" fill-rule="nonzero" fill-opacity="1" /><path clip-path="url(#clip690)" d="M495.78 195.414 Q490.618 195.414 488.627 196.595 Q486.636 197.775 486.636 200.623 Q486.636 202.891 488.118 204.234 Q489.623 205.553 492.192 205.553 Q495.734 205.553 497.863 203.053 Q500.016 200.53 500.016 196.363 L500.016 195.414 L495.78 195.414 M504.275 193.655 L504.275 208.447 L500.016 208.447 L500.016 204.511 Q498.558 206.873 496.382 208.007 Q494.206 209.118 491.058 209.118 Q487.076 209.118 484.715 206.896 Q482.377 204.65 482.377 200.9 Q482.377 196.525 485.294 194.303 Q488.234 192.081 494.044 192.081 L500.016 192.081 L500.016 191.664 Q500.016 188.725 498.072 187.127 Q496.15 185.507 492.655 185.507 Q490.433 185.507 488.326 186.039 Q486.22 186.572 484.275 187.637 L484.275 183.701 Q486.613 182.799 488.812 182.359 Q491.011 181.896 493.095 181.896 Q498.72 181.896 501.497 184.812 Q504.275 187.729 504.275 193.655 Z" fill="#000000" fill-rule="nonzero" fill-opacity="1" /><path clip-path="url(#clip690)" d="M517.261 175.16 L517.261 182.521 L526.034 182.521 L526.034 185.831 L517.261 185.831 L517.261 199.905 Q517.261 203.076 518.118 203.979 Q518.997 204.882 521.659 204.882 L526.034 204.882 L526.034 208.447 L521.659 208.447 Q516.729 208.447 514.854 206.618 Q512.979 204.766 512.979 199.905 L512.979 185.831 L509.854 185.831 L509.854 182.521 L512.979 182.521 L512.979 175.16 L517.261 175.16 Z" fill="#000000" fill-rule="nonzero" fill-opacity="1" /><path clip-path="url(#clip690)" d="M553.187 192.799 L553.187 208.447 L548.928 208.447 L548.928 192.937 Q548.928 189.257 547.493 187.428 Q546.057 185.6 543.187 185.6 Q539.738 185.6 537.747 187.799 Q535.757 189.998 535.757 193.794 L535.757 208.447 L531.474 208.447 L531.474 172.428 L535.757 172.428 L535.757 186.549 Q537.284 184.211 539.344 183.053 Q541.428 181.896 544.136 181.896 Q548.604 181.896 550.895 184.674 Q553.187 187.428 553.187 192.799 Z" fill="#000000" fill-rule="nonzero" fill-opacity="1" /><path clip-path="url(#clip690)" d="M569.252 173.887 L573.187 173.887 L561.15 212.845 L557.215 212.845 L569.252 173.887 Z" fill="#000000" fill-rule="nonzero" fill-opacity="1" /><path clip-path="url(#clip690)" d="M592.678 186.502 Q591.96 186.086 591.103 185.9 Q590.27 185.692 589.252 185.692 Q585.641 185.692 583.696 188.053 Q581.775 190.391 581.775 194.789 L581.775 208.447 L577.492 208.447 L577.492 182.521 L581.775 182.521 L581.775 186.549 Q583.117 184.187 585.27 183.053 Q587.423 181.896 590.502 181.896 Q590.941 181.896 591.474 181.965 Q592.006 182.012 592.654 182.127 L592.678 186.502 Z" fill="#000000" fill-rule="nonzero" fill-opacity="1" /><path clip-path="url(#clip690)" d="M618.279 194.419 L618.279 196.502 L598.696 196.502 Q598.974 200.9 601.335 203.215 Q603.719 205.507 607.955 205.507 Q610.409 205.507 612.701 204.905 Q615.015 204.303 617.284 203.099 L617.284 207.127 Q614.992 208.099 612.585 208.609 Q610.177 209.118 607.701 209.118 Q601.497 209.118 597.863 205.507 Q594.252 201.896 594.252 195.738 Q594.252 189.373 597.678 185.646 Q601.127 181.896 606.96 181.896 Q612.191 181.896 615.224 185.275 Q618.279 188.632 618.279 194.419 M614.02 193.169 Q613.974 189.674 612.052 187.59 Q610.154 185.507 607.006 185.507 Q603.441 185.507 601.289 187.521 Q599.159 189.535 598.835 193.192 L614.02 193.169 Z" fill="#000000" fill-rule="nonzero" fill-opacity="1" /><path clip-path="url(#clip690)" d="M625.27 172.428 L629.529 172.428 L629.529 208.447 L625.27 208.447 L625.27 172.428 Z" fill="#000000" fill-rule="nonzero" fill-opacity="1" /><path clip-path="url(#clip690)" d="M650.224 195.414 Q645.062 195.414 643.071 196.595 Q641.08 197.775 641.08 200.623 Q641.08 202.891 642.562 204.234 Q644.066 205.553 646.636 205.553 Q650.177 205.553 652.307 203.053 Q654.46 200.53 654.46 196.363 L654.46 195.414 L650.224 195.414 M658.719 193.655 L658.719 208.447 L654.46 208.447 L654.46 204.511 Q653.001 206.873 650.825 208.007 Q648.649 209.118 645.501 209.118 Q641.52 209.118 639.159 206.896 Q636.821 204.65 636.821 200.9 Q636.821 196.525 639.737 194.303 Q642.677 192.081 648.487 192.081 L654.46 192.081 L654.46 191.664 Q654.46 188.725 652.515 187.127 Q650.594 185.507 647.099 185.507 Q644.876 185.507 642.77 186.039 Q640.663 186.572 638.719 187.637 L638.719 183.701 Q641.057 182.799 643.256 182.359 Q645.455 181.896 647.538 181.896 Q653.163 181.896 655.941 184.812 Q658.719 187.729 658.719 193.655 Z" fill="#000000" fill-rule="nonzero" fill-opacity="1" /><path clip-path="url(#clip690)" d="M671.612 204.558 L671.612 218.308 L667.33 218.308 L667.33 182.521 L671.612 182.521 L671.612 186.456 Q672.955 184.141 674.992 183.03 Q677.052 181.896 679.899 181.896 Q684.621 181.896 687.561 185.646 Q690.524 189.396 690.524 195.507 Q690.524 201.618 687.561 205.368 Q684.621 209.118 679.899 209.118 Q677.052 209.118 674.992 208.007 Q672.955 206.873 671.612 204.558 M686.103 195.507 Q686.103 190.808 684.159 188.146 Q682.237 185.461 678.858 185.461 Q675.478 185.461 673.534 188.146 Q671.612 190.808 671.612 195.507 Q671.612 200.206 673.534 202.891 Q675.478 205.553 678.858 205.553 Q682.237 205.553 684.159 202.891 Q686.103 200.206 686.103 195.507 Z" fill="#000000" fill-rule="nonzero" fill-opacity="1" /><path clip-path="url(#clip690)" d="M714.112 183.285 L714.112 187.312 Q712.307 186.387 710.362 185.924 Q708.418 185.461 706.334 185.461 Q703.163 185.461 701.566 186.433 Q699.992 187.405 699.992 189.349 Q699.992 190.831 701.126 191.687 Q702.26 192.521 705.686 193.285 L707.145 193.609 Q711.682 194.581 713.58 196.363 Q715.501 198.123 715.501 201.294 Q715.501 204.905 712.631 207.011 Q709.783 209.118 704.783 209.118 Q702.7 209.118 700.432 208.701 Q698.186 208.308 695.686 207.498 L695.686 203.099 Q698.047 204.326 700.339 204.951 Q702.631 205.553 704.876 205.553 Q707.885 205.553 709.506 204.535 Q711.126 203.493 711.126 201.618 Q711.126 199.882 709.945 198.956 Q708.788 198.03 704.83 197.174 L703.348 196.826 Q699.39 195.993 697.631 194.28 Q695.871 192.544 695.871 189.535 Q695.871 185.877 698.464 183.887 Q701.057 181.896 705.825 181.896 Q708.186 181.896 710.269 182.243 Q712.353 182.59 714.112 183.285 Z" fill="#000000" fill-rule="nonzero" fill-opacity="1" /><path clip-path="url(#clip690)" d="M744.459 194.419 L744.459 196.502 L724.876 196.502 Q725.154 200.9 727.515 203.215 Q729.899 205.507 734.135 205.507 Q736.589 205.507 738.88 204.905 Q741.195 204.303 743.464 203.099 L743.464 207.127 Q741.172 208.099 738.765 208.609 Q736.357 209.118 733.88 209.118 Q727.677 209.118 724.043 205.507 Q720.431 201.896 720.431 195.738 Q720.431 189.373 723.857 185.646 Q727.306 181.896 733.14 181.896 Q738.371 181.896 741.404 185.275 Q744.459 188.632 744.459 194.419 M740.2 193.169 Q740.154 189.674 738.232 187.59 Q736.334 185.507 733.186 185.507 Q729.621 185.507 727.468 187.521 Q725.339 189.535 725.015 193.192 L740.2 193.169 Z" fill="#000000" fill-rule="nonzero" fill-opacity="1" /></svg>
