<?xml version="1.0" encoding="utf-8"?>
<svg xmlns="http://www.w3.org/2000/svg" xmlns:xlink="http://www.w3.org/1999/xlink" width="480" height="360" viewBox="0 0 1920 1440">
<defs>
  <clipPath id="clip730">
    <rect x="0" y="0" width="1920" height="1440"/>
  </clipPath>
</defs>
<path clip-path="url(#clip730)" d="M0 1440 L1920 1440 L1920 0 L0 0  Z" fill="#ffffff" fill-rule="evenodd" fill-opacity="1"/>
<defs>
  <clipPath id="clip731">
    <rect x="384" y="0" width="1345" height="1345"/>
  </clipPath>
</defs>
<path clip-path="url(#clip730)" d="M223.272 1254.52 L1872.76 1254.52 L1872.76 47.2441 L223.272 47.2441  Z" fill="#ffffff" fill-rule="evenodd" fill-opacity="1"/>
<defs>
  <clipPath id="clip732">
    <rect x="223" y="47" width="1650" height="1208"/>
  </clipPath>
</defs>
<polyline clip-path="url(#clip732)" style="stroke:#000000; stroke-linecap:round; stroke-linejoin:round; stroke-width:2; stroke-opacity:0.1; fill:none" points="223.272,1254.52 223.272,47.2441 "/>
<polyline clip-path="url(#clip732)" style="stroke:#000000; stroke-linecap:round; stroke-linejoin:round; stroke-width:2; stroke-opacity:0.1; fill:none" points="523.178,1254.52 523.178,47.2441 "/>
<polyline clip-path="url(#clip732)" style="stroke:#000000; stroke-linecap:round; stroke-linejoin:round; stroke-width:2; stroke-opacity:0.1; fill:none" points="823.084,1254.52 823.084,47.2441 "/>
<polyline clip-path="url(#clip732)" style="stroke:#000000; stroke-linecap:round; stroke-linejoin:round; stroke-width:2; stroke-opacity:0.1; fill:none" points="1122.99,1254.52 1122.99,47.2441 "/>
<polyline clip-path="url(#clip732)" style="stroke:#000000; stroke-linecap:round; stroke-linejoin:round; stroke-width:2; stroke-opacity:0.1; fill:none" points="1422.9,1254.52 1422.9,47.2441 "/>
<polyline clip-path="url(#clip732)" style="stroke:#000000; stroke-linecap:round; stroke-linejoin:round; stroke-width:2; stroke-opacity:0.1; fill:none" points="1722.8,1254.52 1722.8,47.2441 "/>
<polyline clip-path="url(#clip732)" style="stroke:#000000; stroke-linecap:round; stroke-linejoin:round; stroke-width:2; stroke-opacity:0.1; fill:none" points="223.272,1254.52 1872.76,1254.52 "/>
<polyline clip-path="url(#clip732)" style="stroke:#000000; stroke-linecap:round; stroke-linejoin:round; stroke-width:2; stroke-opacity:0.1; fill:none" points="223.272,1013.06 1872.76,1013.06 "/>
<polyline clip-path="url(#clip732)" style="stroke:#000000; stroke-linecap:round; stroke-linejoin:round; stroke-width:2; stroke-opacity:0.1; fill:none" points="223.272,771.61 1872.76,771.61 "/>
<polyline clip-path="url(#clip732)" style="stroke:#000000; stroke-linecap:round; stroke-linejoin:round; stroke-width:2; stroke-opacity:0.1; fill:none" points="223.272,530.154 1872.76,530.154 "/>
<polyline clip-path="url(#clip732)" style="stroke:#000000; stroke-linecap:round; stroke-linejoin:round; stroke-width:2; stroke-opacity:0.1; fill:none" points="223.272,288.699 1872.76,288.699 "/>
<polyline clip-path="url(#clip732)" style="stroke:#000000; stroke-linecap:round; stroke-linejoin:round; stroke-width:2; stroke-opacity:0.1; fill:none" points="223.272,47.2441 1872.76,47.2441 "/>
<polyline clip-path="url(#clip730)" style="stroke:#000000; stroke-linecap:round; stroke-linejoin:round; stroke-width:4; stroke-opacity:1; fill:none" points="223.272,1254.52 1872.76,1254.52 "/>
<polyline clip-path="url(#clip730)" style="stroke:#000000; stroke-linecap:round; stroke-linejoin:round; stroke-width:4; stroke-opacity:1; fill:none" points="223.272,1254.52 223.272,1235.62 "/>
<polyline clip-path="url(#clip730)" style="stroke:#000000; stroke-linecap:round; stroke-linejoin:round; stroke-width:4; stroke-opacity:1; fill:none" points="523.178,1254.52 523.178,1235.62 "/>
<polyline clip-path="url(#clip730)" style="stroke:#000000; stroke-linecap:round; stroke-linejoin:round; stroke-width:4; stroke-opacity:1; fill:none" points="823.084,1254.52 823.084,1235.62 "/>
<polyline clip-path="url(#clip730)" style="stroke:#000000; stroke-linecap:round; stroke-linejoin:round; stroke-width:4; stroke-opacity:1; fill:none" points="1122.99,1254.52 1122.99,1235.62 "/>
<polyline clip-path="url(#clip730)" style="stroke:#000000; stroke-linecap:round; stroke-linejoin:round; stroke-width:4; stroke-opacity:1; fill:none" points="1422.9,1254.52 1422.9,1235.62 "/>
<polyline clip-path="url(#clip730)" style="stroke:#000000; stroke-linecap:round; stroke-linejoin:round; stroke-width:4; stroke-opacity:1; fill:none" points="1722.8,1254.52 1722.8,1235.62 "/>
<path clip-path="url(#clip730)" d="M223.272 1281.6 Q219.661 1281.6 217.832 1285.16 Q216.027 1288.7 216.027 1295.83 Q216.027 1302.94 217.832 1306.51 Q219.661 1310.05 223.272 1310.05 Q226.906 1310.05 228.712 1306.51 Q230.54 1302.94 230.54 1295.83 Q230.54 1288.7 228.712 1285.16 Q226.906 1281.6 223.272 1281.6 M223.272 1277.89 Q229.082 1277.89 232.138 1282.5 Q235.216 1287.08 235.216 1295.83 Q235.216 1304.56 232.138 1309.17 Q229.082 1313.75 223.272 1313.75 Q217.462 1313.75 214.383 1309.17 Q211.328 1304.56 211.328 1295.83 Q211.328 1287.08 214.383 1282.5 Q217.462 1277.89 223.272 1277.89 Z" fill="#000000" fill-rule="nonzero" fill-opacity="1" /><path clip-path="url(#clip730)" d="M513.56 1309.14 L521.199 1309.14 L521.199 1282.78 L512.889 1284.45 L512.889 1280.19 L521.153 1278.52 L525.829 1278.52 L525.829 1309.14 L533.467 1309.14 L533.467 1313.08 L513.56 1313.08 L513.56 1309.14 Z" fill="#000000" fill-rule="nonzero" fill-opacity="1" /><path clip-path="url(#clip730)" d="M817.737 1309.14 L834.057 1309.14 L834.057 1313.08 L812.112 1313.08 L812.112 1309.14 Q814.774 1306.39 819.358 1301.76 Q823.964 1297.11 825.145 1295.77 Q827.39 1293.24 828.269 1291.51 Q829.172 1289.75 829.172 1288.06 Q829.172 1285.3 827.228 1283.57 Q825.307 1281.83 822.205 1281.83 Q820.006 1281.83 817.552 1282.59 Q815.121 1283.36 812.344 1284.91 L812.344 1280.19 Q815.168 1279.05 817.621 1278.47 Q820.075 1277.89 822.112 1277.89 Q827.482 1277.89 830.677 1280.58 Q833.871 1283.27 833.871 1287.76 Q833.871 1289.89 833.061 1291.81 Q832.274 1293.7 830.168 1296.3 Q829.589 1296.97 826.487 1300.19 Q823.385 1303.38 817.737 1309.14 Z" fill="#000000" fill-rule="nonzero" fill-opacity="1" /><path clip-path="url(#clip730)" d="M1127.24 1294.45 Q1130.59 1295.16 1132.47 1297.43 Q1134.37 1299.7 1134.37 1303.03 Q1134.37 1308.15 1130.85 1310.95 Q1127.33 1313.75 1120.85 1313.75 Q1118.67 1313.75 1116.36 1313.31 Q1114.07 1312.89 1111.61 1312.04 L1111.61 1307.52 Q1113.56 1308.66 1115.87 1309.24 Q1118.19 1309.82 1120.71 1309.82 Q1125.11 1309.82 1127.4 1308.08 Q1129.72 1306.34 1129.72 1303.03 Q1129.72 1299.98 1127.56 1298.27 Q1125.43 1296.53 1121.61 1296.53 L1117.59 1296.53 L1117.59 1292.69 L1121.8 1292.69 Q1125.25 1292.69 1127.08 1291.32 Q1128.9 1289.93 1128.9 1287.34 Q1128.9 1284.68 1127.01 1283.27 Q1125.13 1281.83 1121.61 1281.83 Q1119.69 1281.83 1117.49 1282.25 Q1115.29 1282.66 1112.65 1283.54 L1112.65 1279.38 Q1115.32 1278.64 1117.63 1278.27 Q1119.97 1277.89 1122.03 1277.89 Q1127.35 1277.89 1130.46 1280.33 Q1133.56 1282.73 1133.56 1286.85 Q1133.56 1289.72 1131.91 1291.71 Q1130.27 1293.68 1127.24 1294.45 Z" fill="#000000" fill-rule="nonzero" fill-opacity="1" /><path clip-path="url(#clip730)" d="M1425.91 1282.59 L1414.1 1301.04 L1425.91 1301.04 L1425.91 1282.59 M1424.68 1278.52 L1430.56 1278.52 L1430.56 1301.04 L1435.49 1301.04 L1435.49 1304.93 L1430.56 1304.93 L1430.56 1313.08 L1425.91 1313.08 L1425.91 1304.93 L1410.3 1304.93 L1410.3 1300.42 L1424.68 1278.52 Z" fill="#000000" fill-rule="nonzero" fill-opacity="1" /><path clip-path="url(#clip730)" d="M1713.08 1278.52 L1731.44 1278.52 L1731.44 1282.46 L1717.36 1282.46 L1717.36 1290.93 Q1718.38 1290.58 1719.4 1290.42 Q1720.42 1290.23 1721.44 1290.23 Q1727.22 1290.23 1730.6 1293.4 Q1733.98 1296.58 1733.98 1301.99 Q1733.98 1307.57 1730.51 1310.67 Q1727.04 1313.75 1720.72 1313.75 Q1718.54 1313.75 1716.28 1313.38 Q1714.03 1313.01 1711.62 1312.27 L1711.62 1307.57 Q1713.71 1308.7 1715.93 1309.26 Q1718.15 1309.82 1720.63 1309.82 Q1724.63 1309.82 1726.97 1307.71 Q1729.31 1305.6 1729.31 1301.99 Q1729.31 1298.38 1726.97 1296.27 Q1724.63 1294.17 1720.63 1294.17 Q1718.75 1294.17 1716.88 1294.58 Q1715.03 1295 1713.08 1295.88 L1713.08 1278.52 Z" fill="#000000" fill-rule="nonzero" fill-opacity="1" /><path clip-path="url(#clip730)" d="M933.802 1356.05 Q933.802 1356.95 933.384 1357.18 Q932.965 1357.37 931.806 1357.37 L925.622 1357.37 L920.727 1376.82 Q920.34 1378.53 920.34 1379.98 Q920.34 1381.59 920.823 1382.3 Q921.339 1383.01 922.402 1383.01 Q924.495 1383.01 926.749 1381.11 Q929.036 1379.21 930.968 1374.57 Q931.226 1373.96 931.355 1373.83 Q931.516 1373.67 931.934 1373.67 Q932.74 1373.67 932.74 1374.31 Q932.74 1374.54 932.289 1375.57 Q931.87 1376.6 930.936 1378.11 Q930.034 1379.62 928.843 1381.04 Q927.683 1382.46 925.912 1383.49 Q924.141 1384.49 922.241 1384.49 Q919.567 1384.49 917.861 1382.78 Q916.186 1381.07 916.186 1378.4 Q916.186 1377.53 916.862 1374.76 Q917.538 1371.96 921.21 1357.37 L915.381 1357.37 Q914.576 1357.37 914.253 1357.34 Q913.964 1357.31 913.738 1357.14 Q913.545 1356.95 913.545 1356.57 Q913.545 1355.95 913.803 1355.7 Q914.06 1355.41 914.382 1355.37 Q914.737 1355.31 915.542 1355.31 L921.725 1355.31 L924.302 1344.84 Q924.559 1343.81 925.203 1343.23 Q925.88 1342.62 926.266 1342.56 Q926.653 1342.46 926.943 1342.46 Q927.812 1342.46 928.327 1342.94 Q928.843 1343.39 928.843 1344.23 Q928.843 1344.68 926.137 1355.31 L931.934 1355.31 Q932.675 1355.31 932.965 1355.34 Q933.287 1355.37 933.545 1355.53 Q933.802 1355.7 933.802 1356.05 Z" fill="#000000" fill-rule="nonzero" fill-opacity="1" /><path clip-path="url(#clip730)" d="M978.048 1334.29 Q973.783 1341.61 971.714 1348.77 Q969.646 1355.93 969.646 1363.28 Q969.646 1370.63 971.714 1377.86 Q973.815 1385.05 978.048 1392.34 L972.956 1392.34 Q968.181 1384.86 965.794 1377.64 Q963.439 1370.41 963.439 1363.28 Q963.439 1356.18 965.794 1348.99 Q968.15 1341.8 972.956 1334.29 L978.048 1334.29 Z" fill="#000000" fill-rule="nonzero" fill-opacity="1" /><path clip-path="url(#clip730)" d="M1004.24 1387.06 Q1001.76 1393.42 999.405 1395.36 Q997.05 1397.31 993.103 1397.31 L988.424 1397.31 L988.424 1392.4 L991.862 1392.4 Q994.281 1392.4 995.618 1391.26 Q996.954 1390.11 998.578 1385.85 L999.628 1383.17 L985.21 1348.1 L991.416 1348.1 L1002.56 1375.98 L1013.7 1348.1 L1019.9 1348.1 L1004.24 1387.06 Z" fill="#000000" fill-rule="nonzero" fill-opacity="1" /><path clip-path="url(#clip730)" d="M1058.48 1364.46 L1058.48 1367.32 L1031.55 1367.32 Q1031.93 1373.37 1035.18 1376.55 Q1038.46 1379.7 1044.28 1379.7 Q1047.66 1379.7 1050.81 1378.88 Q1053.99 1378.05 1057.11 1376.39 L1057.11 1381.93 Q1053.96 1383.27 1050.65 1383.97 Q1047.34 1384.67 1043.93 1384.67 Q1035.4 1384.67 1030.41 1379.7 Q1025.44 1374.74 1025.44 1366.27 Q1025.44 1357.52 1030.15 1352.4 Q1034.89 1347.24 1042.91 1347.24 Q1050.11 1347.24 1054.28 1351.89 Q1058.48 1356.5 1058.48 1364.46 M1052.62 1362.74 Q1052.56 1357.93 1049.92 1355.07 Q1047.31 1352.2 1042.98 1352.2 Q1038.08 1352.2 1035.12 1354.97 Q1032.19 1357.74 1031.74 1362.77 L1052.62 1362.74 Z" fill="#000000" fill-rule="nonzero" fill-opacity="1" /><path clip-path="url(#clip730)" d="M1084.29 1365.83 Q1077.19 1365.83 1074.46 1367.45 Q1071.72 1369.07 1071.72 1372.99 Q1071.72 1376.11 1073.76 1377.95 Q1075.83 1379.77 1079.36 1379.77 Q1084.23 1379.77 1087.16 1376.33 Q1090.12 1372.86 1090.12 1367.13 L1090.12 1365.83 L1084.29 1365.83 M1095.97 1363.41 L1095.97 1383.75 L1090.12 1383.75 L1090.12 1378.34 Q1088.11 1381.58 1085.12 1383.14 Q1082.13 1384.67 1077.8 1384.67 Q1072.32 1384.67 1069.08 1381.61 Q1065.86 1378.53 1065.86 1373.37 Q1065.86 1367.36 1069.87 1364.3 Q1073.92 1361.24 1081.9 1361.24 L1090.12 1361.24 L1090.12 1360.67 Q1090.12 1356.63 1087.44 1354.43 Q1084.8 1352.2 1080 1352.2 Q1076.94 1352.2 1074.04 1352.94 Q1071.15 1353.67 1068.47 1355.13 L1068.47 1349.72 Q1071.69 1348.48 1074.71 1347.88 Q1077.74 1347.24 1080.6 1347.24 Q1088.33 1347.24 1092.15 1351.25 Q1095.97 1355.26 1095.97 1363.41 Z" fill="#000000" fill-rule="nonzero" fill-opacity="1" /><path clip-path="url(#clip730)" d="M1128.69 1353.57 Q1127.71 1353 1126.53 1352.75 Q1125.38 1352.46 1123.98 1352.46 Q1119.02 1352.46 1116.34 1355.71 Q1113.7 1358.92 1113.7 1364.97 L1113.7 1383.75 L1107.81 1383.75 L1107.81 1348.1 L1113.7 1348.1 L1113.7 1353.64 Q1115.55 1350.39 1118.51 1348.83 Q1121.47 1347.24 1125.7 1347.24 Q1126.31 1347.24 1127.04 1347.34 Q1127.77 1347.4 1128.66 1347.56 L1128.69 1353.57 Z" fill="#000000" fill-rule="nonzero" fill-opacity="1" /><path clip-path="url(#clip730)" d="M1157.56 1349.15 L1157.56 1354.69 Q1155.08 1353.41 1152.41 1352.78 Q1149.73 1352.14 1146.87 1352.14 Q1142.51 1352.14 1140.31 1353.48 Q1138.15 1354.81 1138.15 1357.49 Q1138.15 1359.53 1139.71 1360.7 Q1141.27 1361.85 1145.98 1362.9 L1147.98 1363.34 Q1154.22 1364.68 1156.83 1367.13 Q1159.47 1369.55 1159.47 1373.91 Q1159.47 1378.88 1155.52 1381.77 Q1151.61 1384.67 1144.73 1384.67 Q1141.87 1384.67 1138.75 1384.1 Q1135.66 1383.56 1132.23 1382.44 L1132.23 1376.39 Q1135.47 1378.08 1138.62 1378.94 Q1141.77 1379.77 1144.86 1379.77 Q1149 1379.77 1151.23 1378.37 Q1153.46 1376.94 1153.46 1374.36 Q1153.46 1371.97 1151.83 1370.7 Q1150.24 1369.42 1144.8 1368.25 L1142.76 1367.77 Q1137.32 1366.62 1134.9 1364.27 Q1132.48 1361.88 1132.48 1357.74 Q1132.48 1352.71 1136.05 1349.98 Q1139.61 1347.24 1146.17 1347.24 Q1149.41 1347.24 1152.28 1347.72 Q1155.14 1348.19 1157.56 1349.15 Z" fill="#000000" fill-rule="nonzero" fill-opacity="1" /><path clip-path="url(#clip730)" d="M1167.87 1334.29 L1172.97 1334.29 Q1177.74 1341.8 1180.1 1348.99 Q1182.48 1356.18 1182.48 1363.28 Q1182.48 1370.41 1180.1 1377.64 Q1177.74 1384.86 1172.97 1392.34 L1167.87 1392.34 Q1172.11 1385.05 1174.18 1377.86 Q1176.28 1370.63 1176.28 1363.28 Q1176.28 1355.93 1174.18 1348.77 Q1172.11 1341.61 1167.87 1334.29 Z" fill="#000000" fill-rule="nonzero" fill-opacity="1" /><polyline clip-path="url(#clip730)" style="stroke:#000000; stroke-linecap:round; stroke-linejoin:round; stroke-width:4; stroke-opacity:1; fill:none" points="223.272,1254.52 223.272,47.2441 "/>
<polyline clip-path="url(#clip730)" style="stroke:#000000; stroke-linecap:round; stroke-linejoin:round; stroke-width:4; stroke-opacity:1; fill:none" points="223.272,1254.52 242.17,1254.52 "/>
<polyline clip-path="url(#clip730)" style="stroke:#000000; stroke-linecap:round; stroke-linejoin:round; stroke-width:4; stroke-opacity:1; fill:none" points="223.272,1013.06 242.17,1013.06 "/>
<polyline clip-path="url(#clip730)" style="stroke:#000000; stroke-linecap:round; stroke-linejoin:round; stroke-width:4; stroke-opacity:1; fill:none" points="223.272,771.61 242.17,771.61 "/>
<polyline clip-path="url(#clip730)" style="stroke:#000000; stroke-linecap:round; stroke-linejoin:round; stroke-width:4; stroke-opacity:1; fill:none" points="223.272,530.154 242.17,530.154 "/>
<polyline clip-path="url(#clip730)" style="stroke:#000000; stroke-linecap:round; stroke-linejoin:round; stroke-width:4; stroke-opacity:1; fill:none" points="223.272,288.699 242.17,288.699 "/>
<polyline clip-path="url(#clip730)" style="stroke:#000000; stroke-linecap:round; stroke-linejoin:round; stroke-width:4; stroke-opacity:1; fill:none" points="223.272,47.2441 242.17,47.2441 "/>
<path clip-path="url(#clip730)" d="M137.296 1240.32 Q133.685 1240.32 131.857 1243.88 Q130.051 1247.42 130.051 1254.55 Q130.051 1261.66 131.857 1265.23 Q133.685 1268.77 137.296 1268.77 Q140.931 1268.77 142.736 1265.23 Q144.565 1261.66 144.565 1254.55 Q144.565 1247.42 142.736 1243.88 Q140.931 1240.32 137.296 1240.32 M137.296 1236.61 Q143.107 1236.61 146.162 1241.22 Q149.241 1245.8 149.241 1254.55 Q149.241 1263.28 146.162 1267.89 Q143.107 1272.47 137.296 1272.47 Q131.486 1272.47 128.408 1267.89 Q125.352 1263.28 125.352 1254.55 Q125.352 1245.8 128.408 1241.22 Q131.486 1236.61 137.296 1236.61 Z" fill="#000000" fill-rule="nonzero" fill-opacity="1" /><path clip-path="url(#clip730)" d="M157.458 1265.92 L162.343 1265.92 L162.343 1271.8 L157.458 1271.8 L157.458 1265.92 Z" fill="#000000" fill-rule="nonzero" fill-opacity="1" /><path clip-path="url(#clip730)" d="M182.528 1240.32 Q178.917 1240.32 177.088 1243.88 Q175.282 1247.42 175.282 1254.55 Q175.282 1261.66 177.088 1265.23 Q178.917 1268.77 182.528 1268.77 Q186.162 1268.77 187.967 1265.23 Q189.796 1261.66 189.796 1254.55 Q189.796 1247.42 187.967 1243.88 Q186.162 1240.32 182.528 1240.32 M182.528 1236.61 Q188.338 1236.61 191.393 1241.22 Q194.472 1245.8 194.472 1254.55 Q194.472 1263.28 191.393 1267.89 Q188.338 1272.47 182.528 1272.47 Q176.717 1272.47 173.639 1267.89 Q170.583 1263.28 170.583 1254.55 Q170.583 1245.8 173.639 1241.22 Q176.717 1236.61 182.528 1236.61 Z" fill="#000000" fill-rule="nonzero" fill-opacity="1" /><path clip-path="url(#clip730)" d="M138.894 998.863 Q135.283 998.863 133.454 1002.43 Q131.648 1005.97 131.648 1013.1 Q131.648 1020.21 133.454 1023.77 Q135.283 1027.31 138.894 1027.31 Q142.528 1027.31 144.333 1023.77 Q146.162 1020.21 146.162 1013.1 Q146.162 1005.97 144.333 1002.43 Q142.528 998.863 138.894 998.863 M138.894 995.16 Q144.704 995.16 147.759 999.766 Q150.838 1004.35 150.838 1013.1 Q150.838 1021.83 147.759 1026.43 Q144.704 1031.02 138.894 1031.02 Q133.083 1031.02 130.005 1026.43 Q126.949 1021.83 126.949 1013.1 Q126.949 1004.35 130.005 999.766 Q133.083 995.16 138.894 995.16 Z" fill="#000000" fill-rule="nonzero" fill-opacity="1" /><path clip-path="url(#clip730)" d="M159.056 1024.47 L163.94 1024.47 L163.94 1030.34 L159.056 1030.34 L159.056 1024.47 Z" fill="#000000" fill-rule="nonzero" fill-opacity="1" /><path clip-path="url(#clip730)" d="M178.153 1026.41 L194.472 1026.41 L194.472 1030.34 L172.528 1030.34 L172.528 1026.41 Q175.19 1023.65 179.773 1019.03 Q184.379 1014.37 185.56 1013.03 Q187.805 1010.51 188.685 1008.77 Q189.588 1007.01 189.588 1005.32 Q189.588 1002.57 187.643 1000.83 Q185.722 999.095 182.62 999.095 Q180.421 999.095 177.967 999.859 Q175.537 1000.62 172.759 1002.17 L172.759 997.451 Q175.583 996.317 178.037 995.738 Q180.491 995.16 182.528 995.16 Q187.898 995.16 191.092 997.845 Q194.287 1000.53 194.287 1005.02 Q194.287 1007.15 193.477 1009.07 Q192.69 1010.97 190.583 1013.56 Q190.004 1014.23 186.903 1017.45 Q183.801 1020.65 178.153 1026.41 Z" fill="#000000" fill-rule="nonzero" fill-opacity="1" /><path clip-path="url(#clip730)" d="M136.81 757.408 Q133.199 757.408 131.371 760.973 Q129.565 764.515 129.565 771.644 Q129.565 778.751 131.371 782.316 Q133.199 785.857 136.81 785.857 Q140.445 785.857 142.25 782.316 Q144.079 778.751 144.079 771.644 Q144.079 764.515 142.25 760.973 Q140.445 757.408 136.81 757.408 M136.81 753.705 Q142.62 753.705 145.676 758.311 Q148.755 762.894 148.755 771.644 Q148.755 780.371 145.676 784.978 Q142.62 789.561 136.81 789.561 Q131 789.561 127.921 784.978 Q124.866 780.371 124.866 771.644 Q124.866 762.894 127.921 758.311 Q131 753.705 136.81 753.705 Z" fill="#000000" fill-rule="nonzero" fill-opacity="1" /><path clip-path="url(#clip730)" d="M156.972 783.01 L161.856 783.01 L161.856 788.89 L156.972 788.89 L156.972 783.01 Z" fill="#000000" fill-rule="nonzero" fill-opacity="1" /><path clip-path="url(#clip730)" d="M184.889 758.404 L173.083 776.853 L184.889 776.853 L184.889 758.404 M183.662 754.33 L189.541 754.33 L189.541 776.853 L194.472 776.853 L194.472 780.741 L189.541 780.741 L189.541 788.89 L184.889 788.89 L184.889 780.741 L169.287 780.741 L169.287 776.228 L183.662 754.33 Z" fill="#000000" fill-rule="nonzero" fill-opacity="1" /><path clip-path="url(#clip730)" d="M137.134 515.953 Q133.523 515.953 131.695 519.518 Q129.889 523.06 129.889 530.189 Q129.889 537.296 131.695 540.86 Q133.523 544.402 137.134 544.402 Q140.769 544.402 142.574 540.86 Q144.403 537.296 144.403 530.189 Q144.403 523.06 142.574 519.518 Q140.769 515.953 137.134 515.953 M137.134 512.249 Q142.945 512.249 146 516.856 Q149.079 521.439 149.079 530.189 Q149.079 538.916 146 543.522 Q142.945 548.106 137.134 548.106 Q131.324 548.106 128.246 543.522 Q125.19 538.916 125.19 530.189 Q125.19 521.439 128.246 516.856 Q131.324 512.249 137.134 512.249 Z" fill="#000000" fill-rule="nonzero" fill-opacity="1" /><path clip-path="url(#clip730)" d="M157.296 541.555 L162.181 541.555 L162.181 547.434 L157.296 547.434 L157.296 541.555 Z" fill="#000000" fill-rule="nonzero" fill-opacity="1" /><path clip-path="url(#clip730)" d="M182.944 528.291 Q179.796 528.291 177.944 530.444 Q176.116 532.597 176.116 536.346 Q176.116 540.073 177.944 542.249 Q179.796 544.402 182.944 544.402 Q186.092 544.402 187.921 542.249 Q189.773 540.073 189.773 536.346 Q189.773 532.597 187.921 530.444 Q186.092 528.291 182.944 528.291 M192.227 513.638 L192.227 517.898 Q190.467 517.064 188.662 516.624 Q186.879 516.185 185.12 516.185 Q180.491 516.185 178.037 519.31 Q175.606 522.435 175.259 528.754 Q176.625 526.74 178.685 525.675 Q180.745 524.587 183.222 524.587 Q188.43 524.587 191.44 527.759 Q194.472 530.907 194.472 536.346 Q194.472 541.671 191.324 544.888 Q188.176 548.106 182.944 548.106 Q176.949 548.106 173.778 543.522 Q170.606 538.916 170.606 530.189 Q170.606 521.995 174.495 517.134 Q178.384 512.249 184.935 512.249 Q186.694 512.249 188.477 512.597 Q190.282 512.944 192.227 513.638 Z" fill="#000000" fill-rule="nonzero" fill-opacity="1" /><path clip-path="url(#clip730)" d="M137.389 274.498 Q133.778 274.498 131.949 278.063 Q130.144 281.604 130.144 288.734 Q130.144 295.84 131.949 299.405 Q133.778 302.947 137.389 302.947 Q141.023 302.947 142.829 299.405 Q144.657 295.84 144.657 288.734 Q144.657 281.604 142.829 278.063 Q141.023 274.498 137.389 274.498 M137.389 270.794 Q143.199 270.794 146.255 275.401 Q149.333 279.984 149.333 288.734 Q149.333 297.461 146.255 302.067 Q143.199 306.651 137.389 306.651 Q131.579 306.651 128.5 302.067 Q125.445 297.461 125.445 288.734 Q125.445 279.984 128.5 275.401 Q131.579 270.794 137.389 270.794 Z" fill="#000000" fill-rule="nonzero" fill-opacity="1" /><path clip-path="url(#clip730)" d="M157.551 300.1 L162.435 300.1 L162.435 305.979 L157.551 305.979 L157.551 300.1 Z" fill="#000000" fill-rule="nonzero" fill-opacity="1" /><path clip-path="url(#clip730)" d="M182.62 289.567 Q179.287 289.567 177.366 291.35 Q175.467 293.132 175.467 296.257 Q175.467 299.382 177.366 301.164 Q179.287 302.947 182.62 302.947 Q185.954 302.947 187.875 301.164 Q189.796 299.359 189.796 296.257 Q189.796 293.132 187.875 291.35 Q185.977 289.567 182.62 289.567 M177.944 287.577 Q174.935 286.836 173.245 284.776 Q171.579 282.715 171.579 279.753 Q171.579 275.609 174.518 273.202 Q177.481 270.794 182.62 270.794 Q187.782 270.794 190.722 273.202 Q193.662 275.609 193.662 279.753 Q193.662 282.715 191.972 284.776 Q190.305 286.836 187.319 287.577 Q190.699 288.364 192.574 290.655 Q194.472 292.947 194.472 296.257 Q194.472 301.28 191.393 303.965 Q188.338 306.651 182.62 306.651 Q176.903 306.651 173.824 303.965 Q170.768 301.28 170.768 296.257 Q170.768 292.947 172.667 290.655 Q174.565 288.364 177.944 287.577 M176.231 280.192 Q176.231 282.878 177.898 284.382 Q179.588 285.887 182.62 285.887 Q185.629 285.887 187.319 284.382 Q189.032 282.878 189.032 280.192 Q189.032 277.507 187.319 276.003 Q185.629 274.498 182.62 274.498 Q179.588 274.498 177.898 276.003 Q176.231 277.507 176.231 280.192 Z" fill="#000000" fill-rule="nonzero" fill-opacity="1" /><path clip-path="url(#clip730)" d="M128.107 60.5889 L135.745 60.5889 L135.745 34.2233 L127.435 35.89 L127.435 31.6308 L135.699 29.9641 L140.375 29.9641 L140.375 60.5889 L148.014 60.5889 L148.014 64.5241 L128.107 64.5241 L128.107 60.5889 Z" fill="#000000" fill-rule="nonzero" fill-opacity="1" /><path clip-path="url(#clip730)" d="M157.458 58.6445 L162.343 58.6445 L162.343 64.5241 L157.458 64.5241 L157.458 58.6445 Z" fill="#000000" fill-rule="nonzero" fill-opacity="1" /><path clip-path="url(#clip730)" d="M182.528 33.0428 Q178.917 33.0428 177.088 36.6076 Q175.282 40.1492 175.282 47.2788 Q175.282 54.3853 177.088 57.9501 Q178.917 61.4917 182.528 61.4917 Q186.162 61.4917 187.967 57.9501 Q189.796 54.3853 189.796 47.2788 Q189.796 40.1492 187.967 36.6076 Q186.162 33.0428 182.528 33.0428 M182.528 29.3391 Q188.338 29.3391 191.393 33.9456 Q194.472 38.5289 194.472 47.2788 Q194.472 56.0056 191.393 60.6121 Q188.338 65.1954 182.528 65.1954 Q176.717 65.1954 173.639 60.6121 Q170.583 56.0056 170.583 47.2788 Q170.583 38.5289 173.639 33.9456 Q176.717 29.3391 182.528 29.3391 Z" fill="#000000" fill-rule="nonzero" fill-opacity="1" /><path clip-path="url(#clip730)" d="M59.58 713.252 Q64.2821 713.252 68.8231 715.635 Q73.3641 717.986 76.166 721.689 Q78.9357 725.393 78.9357 729.161 Q78.9357 731.416 77.7119 732.929 Q76.4559 734.411 74.6846 735.216 Q76.8746 735.828 82.1241 737.148 Q87.3737 738.469 87.889 738.469 Q88.1788 738.469 88.3076 738.404 Q88.4365 738.34 88.5975 738.05 Q88.7907 737.76 88.8551 737.052 Q88.9518 736.343 88.9518 735.152 Q88.9518 734.54 88.9518 734.314 Q88.984 734.057 89.145 733.831 Q89.306 733.573 89.6603 733.573 Q90.9807 733.573 90.9807 734.765 Q90.9807 735.828 90.8841 738.018 Q90.7875 740.208 90.7875 741.303 Q90.7875 742.237 90.8841 744.105 Q90.9807 745.973 90.9807 746.842 Q90.9807 747.712 90.2078 747.712 Q89.7569 747.712 89.4671 747.583 Q89.2094 747.486 89.0806 747.229 Q88.984 746.971 88.9518 746.746 Q88.9518 746.552 88.9518 746.166 Q88.9518 744.684 88.6941 744.04 Q88.4687 743.396 87.9856 743.171 Q87.5347 742.913 86.2465 742.623 L56.8747 735.216 Q54.9102 734.765 53.5253 734.765 Q51.7862 734.765 51.1421 735.313 Q50.498 735.86 50.498 736.826 Q50.498 738.501 52.4947 739.596 Q54.4915 740.691 58.3562 741.625 Q59.419 741.915 59.6444 742.108 Q59.8699 742.269 59.8699 742.752 Q59.8377 743.557 59.1935 743.557 Q59.0325 743.557 58.0019 743.3 Q56.9391 743.042 55.3933 742.559 Q53.8152 742.044 52.8168 741.496 Q52.1405 741.174 51.6896 740.884 Q51.2387 740.594 50.5302 740.015 Q49.8216 739.403 49.4352 738.533 Q49.0487 737.664 49.0487 736.601 Q49.0487 734.54 50.2725 732.833 Q51.4963 731.126 53.9762 730.675 Q51.8184 728.839 50.4336 726.585 Q49.0487 724.33 49.0487 722.044 Q49.0487 718.243 52.0116 715.764 Q54.9424 713.252 59.58 713.252 M56.6815 718.018 Q53.7508 718.018 52.1405 719.145 Q50.498 720.24 50.498 722.237 Q50.498 724.717 53.01 727.583 Q55.3933 730.417 57.6155 730.997 L70.53 734.25 L71.5928 734.443 Q71.786 734.443 72.3657 734.346 Q72.9132 734.218 73.815 733.863 Q74.7168 733.477 75.5219 732.962 Q76.2949 732.414 76.8746 731.448 Q77.4543 730.449 77.4543 729.226 Q77.4543 727.261 75.7152 725.135 Q73.976 722.978 70.691 721.367 Q68.5655 720.369 63.9922 719.21 Q59.3868 718.018 56.6815 718.018 Z" fill="#000000" fill-rule="nonzero" fill-opacity="1" /><path clip-path="url(#clip730)" d="M96.3743 681.523 Q96.5547 681.523 97.2536 681.726 Q97.9524 681.929 99.0345 682.425 Q100.117 682.898 101.109 683.552 Q102.078 684.206 102.799 685.288 Q103.498 686.347 103.498 687.565 Q103.498 689.188 102.416 690.27 Q101.334 691.352 99.7109 691.352 Q98.8091 691.352 97.5692 690.879 Q89.566 687.88 86.8156 687.88 Q83.5918 687.88 83.5918 690.383 Q83.5918 691.623 84.0653 692.795 Q84.5161 693.945 85.1474 694.734 Q85.7786 695.523 86.6578 696.244 Q87.5145 696.943 88.1006 697.304 Q88.6643 697.642 89.2279 697.912 L91.5274 698.499 Q92.1586 698.634 94.6159 699.288 L98.7866 700.302 Q101.898 701.023 102.191 701.181 Q102.822 701.407 103.16 701.903 Q103.498 702.399 103.498 702.895 Q103.498 703.458 103.16 703.842 Q102.822 704.225 102.236 704.225 Q102.146 704.225 101.807 704.157 Q101.469 704.089 100.996 703.977 Q100.522 703.864 100.252 703.819 L89.5886 701.136 Q87.6498 700.64 87.0411 700.528 Q86.4098 700.392 85.711 700.392 Q83.5918 700.392 83.5918 701.835 Q83.5918 703.007 84.9896 703.774 Q86.3873 704.54 89.0926 705.194 Q89.8365 705.397 89.9944 705.532 Q90.1522 705.645 90.1522 705.983 Q90.1296 706.547 89.6787 706.547 Q89.566 706.547 88.8221 706.366 Q88.0781 706.186 87.0185 705.848 Q85.9364 705.487 85.215 705.149 Q84.6739 704.856 84.426 704.698 Q84.1554 704.518 83.6369 704.089 Q83.0959 703.639 82.8479 703.052 Q82.5773 702.444 82.5773 701.7 Q82.5773 700.032 83.6595 698.814 Q84.719 697.597 86.5902 697.439 Q82.5773 694.441 82.5773 690.247 Q82.5773 687.768 83.8849 686.347 Q85.1925 684.927 87.5145 684.927 Q88.0556 684.927 88.7544 685.04 Q89.4308 685.13 90.2874 685.355 Q91.1441 685.558 91.7979 685.739 Q92.4517 685.919 93.5112 686.28 Q94.5483 686.64 94.9991 686.798 Q95.45 686.956 96.5096 687.339 Q97.5466 687.7 97.6593 687.745 Q99.756 688.579 100.951 688.579 Q101.74 688.579 102.101 688.331 Q102.461 688.061 102.461 687.474 Q102.461 685.896 100.906 684.724 Q99.3276 683.529 96.7576 682.763 Q96.194 682.582 96.0587 682.492 Q95.9235 682.38 95.9235 682.064 Q95.9235 681.523 96.3743 681.523 Z" fill="#000000" fill-rule="nonzero" fill-opacity="1" /><path clip-path="url(#clip730)" d="M61.7056 674.727 Q50.5624 674.727 41.5769 670.572 Q37.8089 668.801 34.6527 666.321 Q31.4965 663.841 30.1117 662.199 Q28.7268 660.556 28.7268 660.105 Q28.7268 659.461 29.3709 659.429 Q29.693 659.429 30.4981 660.299 Q41.3193 670.927 61.7056 670.894 Q82.1563 670.894 92.5588 660.556 Q93.686 659.429 94.0403 659.429 Q94.6844 659.429 94.6844 660.105 Q94.6844 660.556 93.364 662.134 Q92.0435 663.712 89.0162 666.16 Q85.9888 668.608 82.2852 670.379 Q73.2997 674.727 61.7056 674.727 Z" fill="#000000" fill-rule="nonzero" fill-opacity="1" /><path clip-path="url(#clip730)" d="M34.2018 626.108 Q34.6849 626.108 35.3934 626.462 Q36.0375 626.784 36.4562 627.461 Q36.8427 628.105 36.8427 628.813 Q36.8427 629.039 36.7139 629.554 Q36.3274 630.424 35.4578 631.776 Q34.5883 633.129 34.0408 634.353 Q33.4611 635.544 33.3967 636.865 Q33.3967 638.024 33.8153 638.99 Q34.2984 639.86 35.329 640.44 Q35.7477 640.697 36.4562 640.697 Q37.4546 640.697 38.775 640.15 Q40.0955 639.602 41.8024 638.475 Q43.5093 637.316 44.6687 636.478 Q45.7959 635.641 47.6639 634.192 Q47.8249 634.063 47.9215 633.999 Q47.9859 633.934 48.1469 633.838 Q48.2758 633.741 48.3724 633.644 Q52.2049 630.585 56.4238 629.812 Q57.9053 629.619 59.4512 629.619 Q62.543 629.619 66.1822 630.553 Q69.4994 631.358 72.3657 633.065 Q75.1999 634.771 77.0678 637.348 Q78.9357 639.892 78.9357 642.662 Q78.9357 645.399 77.7441 647.654 Q76.5203 649.908 74.4269 651.261 Q71.6572 653.097 67.8247 653.097 Q65.6669 653.097 63.8312 652.581 Q60.9005 651.873 58.1952 650.198 Q55.4899 648.523 53.3965 646.108 Q50.3047 642.436 49.4352 638.443 Q45.8925 640.311 43.155 641.406 Q40.3853 642.469 38.0343 642.469 Q35.9731 642.469 34.6527 641.696 Q33.2356 641.019 32.4305 639.635 Q31.7219 638.475 31.3677 636.8 Q31.2389 635.77 31.2389 635.094 Q31.2389 632.807 32.4949 627.493 Q32.8169 626.108 34.2018 626.108 M62.0921 634.16 Q60.1275 634.16 58.8071 634.482 Q55.5865 635.094 51.1421 637.541 L50.82 637.734 Q51.7218 640.858 54.4593 643.403 Q57.8087 646.591 64.1533 648.201 Q67.6959 649.071 69.6927 649.071 Q71.8505 649.071 73.7184 648.266 Q75.4575 647.493 76.4559 646.044 Q77.4543 644.562 77.4543 642.597 Q77.4543 641.116 76.6169 639.828 Q75.7474 638.54 74.2337 637.606 Q72.72 636.672 71.0775 636.028 Q69.4028 635.351 67.4382 634.836 Q64.7974 634.16 62.0921 634.16 Z" fill="#000000" fill-rule="nonzero" fill-opacity="1" /><path clip-path="url(#clip730)" d="M92.6554 616.446 L31.2389 616.446 Q28.7912 616.446 28.7912 615.126 Q28.7912 613.805 30.7558 613.805 L92.1724 613.805 Q94.62 613.805 94.62 615.126 Q94.62 616.446 92.6554 616.446 Z" fill="#000000" fill-rule="nonzero" fill-opacity="1" /><path clip-path="url(#clip730)" d="M50.498 584.541 Q51.3997 584.541 51.6252 584.959 Q51.8184 585.378 51.8184 586.537 L51.8184 592.721 L71.2707 597.616 Q72.9777 598.003 74.4269 598.003 Q76.0372 598.003 76.7457 597.52 Q77.4543 597.004 77.4543 595.942 Q77.4543 593.848 75.5541 591.594 Q73.654 589.307 69.0163 587.375 Q68.4044 587.117 68.2756 586.988 Q68.1146 586.827 68.1146 586.409 Q68.1146 585.604 68.7587 585.604 Q68.9841 585.604 70.0147 586.054 Q71.0453 586.473 72.559 587.407 Q74.0727 588.309 75.4897 589.5 Q76.9068 590.66 77.9374 592.431 Q78.9357 594.202 78.9357 596.103 Q78.9357 598.776 77.2288 600.483 Q75.5219 602.157 72.8488 602.157 Q71.9793 602.157 69.2096 601.481 Q66.4077 600.805 51.8184 597.133 L51.8184 602.962 Q51.8184 603.768 51.7862 604.09 Q51.754 604.38 51.593 604.605 Q51.3997 604.798 51.0133 604.798 Q50.4013 604.798 50.1437 604.541 Q49.8538 604.283 49.8216 603.961 Q49.7572 603.607 49.7572 602.801 L49.7572 596.618 L39.2903 594.041 Q38.2597 593.784 37.68 593.14 Q37.0681 592.463 37.0037 592.077 Q36.9071 591.69 36.9071 591.401 Q36.9071 590.531 37.3902 590.016 Q37.8411 589.5 38.6784 589.5 Q39.1293 589.5 49.7572 592.206 L49.7572 586.409 Q49.7572 585.668 49.7894 585.378 Q49.8216 585.056 49.9827 584.798 Q50.1437 584.541 50.498 584.541 Z" fill="#000000" fill-rule="nonzero" fill-opacity="1" /><path clip-path="url(#clip730)" d="M94.0403 579.378 Q93.7182 579.378 92.9131 578.541 Q82.0919 567.913 61.7056 567.913 Q41.2549 567.913 30.9168 578.122 Q29.7252 579.378 29.3709 579.378 Q28.7268 579.378 28.7268 578.734 Q28.7268 578.283 30.0472 576.705 Q31.3677 575.095 34.395 572.68 Q37.4224 570.232 41.1261 568.428 Q50.1115 564.081 61.7056 564.081 Q72.8488 564.081 81.8343 568.235 Q85.6024 570.006 88.7585 572.486 Q91.9147 574.966 93.2996 576.609 Q94.6844 578.251 94.6844 578.734 Q94.6844 579.378 94.0403 579.378 Z" fill="#000000" fill-rule="nonzero" fill-opacity="1" /><polyline clip-path="url(#clip732)" style="stroke:#e26f46; stroke-linecap:round; stroke-linejoin:round; stroke-width:4; stroke-opacity:1; fill:none" points="235.268,391.467 247.265,391.618 259.261,391.953 271.257,392.829 283.253,393.853 295.249,394.494 307.246,395.6 319.242,396.091 331.238,396.374 343.234,396.153 355.231,392.768 367.227,392.535 379.223,392.533 391.219,393.022 403.216,393.885 415.212,395.279 427.208,397.82 439.204,397.917 451.201,399.692 463.197,400.208 475.193,400.203 487.189,400.513 499.186,400.513 511.182,400.535 523.178,400.969 535.174,401.517 547.171,401.652 559.167,401.98 571.163,402.846 583.159,403.275 595.156,403.604 607.152,403.174 619.148,401.193 631.144,394.387 643.141,390.598 655.137,384.601 667.133,370.474 679.129,331.311 691.126,301.274 703.122,299.999 715.118,299.781 727.114,299.805 739.111,299.963 751.107,299.658 763.103,299.314 775.099,299.24 787.096,299.441 799.092,299.509 811.088,299.876 823.084,299.878 835.081,299.383 847.077,297.983 859.073,295.637 871.069,291.614 883.066,292.382 895.062,291.331 907.058,292.968 919.054,291.265 931.051,290.072 943.047,282.341 955.043,264.083 967.039,265.634 979.036,270.141 991.032,276.832 1003.03,281.16 1015.02,291.166 1027.02,306.173 1039.02,329.557 1051.01,330.852 1063.01,329.996 1075.01,327.033 1087,325.307 1099,325.742 1110.99,328.921 1122.99,336.967 1134.99,350.258 1146.98,362.106 1158.98,381.747 1170.98,381.581 1182.97,379.73 1194.97,374.511 1206.96,372.977 1218.96,370.733 1230.96,370.052 1242.95,368.958 1254.95,368.138 1266.95,369.312 1278.94,370.213 1290.94,371.577 1302.93,371.648 1314.93,371.44 1326.93,372.778 1338.92,371.139 1350.92,369.684 1362.92,367.894 1374.91,365.315 1386.91,358.054 1398.9,344.549 1410.9,331.312 1422.9,332.575 1434.89,338.66 1446.89,343.926 1458.89,348.086 1470.88,354.68 1482.88,360.464 1494.87,367.659 1506.87,373.871 1518.87,370.661 1530.86,365.407 1542.86,356.686 1554.86,344.822 1566.85,332.442 1578.85,312.462 1590.84,296.638 1602.84,296.911 1614.84,295.15 1626.83,293.325 1638.83,289.11 1650.83,284.421 1662.82,275.067 1674.82,261.98 1686.81,247.174 1698.81,224.147 1710.81,186.481 1722.8,164.868 1734.8,163.455 1746.8,162.2 1758.79,159.348 1770.79,160.196 1782.78,162.45 1794.78,164.565 1806.78,166.797 1818.77,168.204 1830.77,169.386 1842.77,171.08 1854.76,172.346 1866.76,175.974 1878.75,180.485 1890.75,184.976 1902.75,189.72 1914.74,194.664 1926.74,199.945 1938.74,204.963 1950.73,210.206 1962.73,215.909 1974.72,221.896 1986.72,227.006 1998.72,232.697 2010.71,238.359 2022.71,244.71 2034.71,250.682 2046.7,256.134 2058.7,261.193 2070.69,266.001 2082.69,268.86 2094.69,269.03 2106.68,270.29 2118.68,266.647 2130.68,261.107 2142.67,253.275 2154.67,242.581 2166.66,223.526 2178.66,190.501 2190.66,192.992 2202.65,198.086 2214.65,202.534 2226.65,206.868 2238.64,210.75 2250.64,212.948 2262.63,214.901 2274.63,214.133 2286.63,210.345 2298.62,203.264 2310.62,189.613 2322.62,165.702 2334.61,128.39 2346.61,97.8205 2358.6,98.4988 2370.6,100.188 2382.6,101.887 2394.59,105.222 2406.59,109.079 2418.59,113.075 2430.58,117.615 2442.58,122.452 2454.57,127.518 2466.57,132.896 2478.57,138.721 2490.56,144.894 2502.56,151.236 2514.56,158.026 2526.55,165.229 2538.55,172.725 2550.54,180.628 2562.54,188.814 2574.54,197.212 2586.53,205.782 2598.53,214.62 2610.53,223.836 2622.52,233.323 2634.52,242.912 2646.51,252.729 2658.51,262.599 2670.51,272.464 2682.5,282.431 2694.5,292.578 2706.5,302.886 2718.49,313.318 2730.49,323.798 2742.48,334.327 2754.48,344.938 2766.48,355.429 2778.47,365.819 2790.47,376.147 2802.47,386.353 2814.46,396.467 2826.46,406.502 2838.45,416.456 2850.45,426.311 2862.45,436.049 2874.44,445.665 2886.44,455.124 2898.43,464.424 2910.43,473.555 2922.43,482.437 2934.42,491.121 2946.42,499.522 2958.42,507.478 2970.41,514.976 2982.41,522.143 2994.4,529.088 3006.4,535.801 3018.4,542.29 3030.39,548.552 3042.39,554.59 3054.39,560.302 3066.38,565.656 3078.38,570.66 3090.37,575.402 3102.37,579.934 3114.37,584.267 3126.36,588.405 3138.36,592.355 3150.36,596.121 3162.35,599.709 3174.35,603.127 3186.34,606.381 3198.34,609.476 3210.34,612.418 3222.33,615.199 "/>
<polyline clip-path="url(#clip732)" style="stroke:#3da44d; stroke-linecap:round; stroke-linejoin:round; stroke-width:4; stroke-opacity:1; fill:none" points="235.268,910.297 247.265,910.146 259.261,909.811 271.257,908.935 283.253,907.911 295.249,907.27 307.246,906.164 319.242,905.672 331.238,905.39 343.234,905.611 355.231,908.996 367.227,909.229 379.223,909.231 391.219,908.742 403.216,907.879 415.212,906.485 427.208,903.944 439.204,903.847 451.201,902.072 463.197,901.556 475.193,901.561 487.189,901.251 499.186,901.251 511.182,901.229 523.178,900.795 535.174,900.247 547.171,900.112 559.167,899.784 571.163,898.918 583.159,898.489 595.156,898.16 607.152,898.59 619.148,900.571 631.144,907.376 643.141,911.166 655.137,917.163 667.133,931.29 679.129,970.453 691.126,1000.49 703.122,1001.76 715.118,1001.98 727.114,1001.96 739.111,1001.8 751.107,1002.11 763.103,1002.45 775.099,1002.52 787.096,1002.32 799.092,1002.25 811.088,1001.89 823.084,1001.89 835.081,1002.38 847.077,1003.78 859.073,1006.13 871.069,1010.15 883.066,1009.38 895.062,1010.43 907.058,1008.8 919.054,1010.5 931.051,1011.69 943.047,1019.42 955.043,1037.68 967.039,1036.13 979.036,1031.62 991.032,1024.93 1003.03,1020.6 1015.02,1010.6 1027.02,995.591 1039.02,972.207 1051.01,970.912 1063.01,971.768 1075.01,974.731 1087,976.457 1099,976.022 1110.99,972.843 1122.99,964.797 1134.99,951.506 1146.98,939.657 1158.98,920.017 1170.98,920.183 1182.97,922.034 1194.97,927.253 1206.96,928.786 1218.96,931.031 1230.96,931.712 1242.95,932.806 1254.95,933.626 1266.95,932.452 1278.94,931.551 1290.94,930.187 1302.93,930.116 1314.93,930.323 1326.93,928.986 1338.92,930.625 1350.92,932.079 1362.92,933.87 1374.91,936.449 1386.91,943.709 1398.9,957.215 1410.9,970.452 1422.9,969.189 1434.89,963.104 1446.89,957.838 1458.89,953.678 1470.88,947.084 1482.88,941.3 1494.87,934.105 1506.87,927.893 1518.87,931.103 1530.86,936.357 1542.86,945.078 1554.86,956.942 1566.85,969.322 1578.85,989.302 1590.84,1005.13 1602.84,1004.85 1614.84,1006.61 1626.83,1008.44 1638.83,1012.65 1650.83,1017.34 1662.82,1026.7 1674.82,1039.78 1686.81,1054.59 1698.81,1077.62 1710.81,1115.28 1722.8,1136.9 1734.8,1138.31 1746.8,1139.56 1758.79,1142.42 1770.79,1141.57 1782.78,1139.31 1794.78,1137.2 1806.78,1134.97 1818.77,1133.56 1830.77,1132.38 1842.77,1130.68 1854.76,1129.42 1866.76,1125.79 1878.75,1121.28 1890.75,1116.79 1902.75,1112.04 1914.74,1107.1 1926.74,1101.82 1938.74,1096.8 1950.73,1091.56 1962.73,1085.85 1974.72,1079.87 1986.72,1074.76 1998.72,1069.07 2010.71,1063.41 2022.71,1057.05 2034.71,1051.08 2046.7,1045.63 2058.7,1040.57 2070.69,1035.76 2082.69,1032.9 2094.69,1032.73 2106.68,1031.47 2118.68,1035.12 2130.68,1040.66 2142.67,1048.49 2154.67,1059.18 2166.66,1078.24 2178.66,1111.26 2190.66,1108.77 2202.65,1103.68 2214.65,1099.23 2226.65,1094.9 2238.64,1091.01 2250.64,1088.82 2262.63,1086.86 2274.63,1087.63 2286.63,1091.42 2298.62,1098.5 2310.62,1112.15 2322.62,1136.06 2334.61,1173.37 2346.61,1203.94 2358.6,1203.27 2370.6,1201.58 2382.6,1199.88 2394.59,1196.54 2406.59,1192.69 2418.59,1188.69 2430.58,1184.15 2442.58,1179.31 2454.57,1174.25 2466.57,1168.87 2478.57,1163.04 2490.56,1156.87 2502.56,1150.53 2514.56,1143.74 2526.55,1136.54 2538.55,1129.04 2550.54,1121.14 2562.54,1112.95 2574.54,1104.55 2586.53,1095.98 2598.53,1087.14 2610.53,1077.93 2622.52,1068.44 2634.52,1058.85 2646.51,1049.04 2658.51,1039.16 2670.51,1029.3 2682.5,1019.33 2694.5,1009.19 2706.5,998.878 2718.49,988.446 2730.49,977.966 2742.48,967.437 2754.48,956.826 2766.48,946.335 2778.47,935.945 2790.47,925.617 2802.47,915.411 2814.46,905.297 2826.46,895.262 2838.45,885.308 2850.45,875.453 2862.45,865.715 2874.44,856.099 2886.44,846.64 2898.43,837.34 2910.43,828.209 2922.43,819.327 2934.42,810.642 2946.42,802.242 2958.42,794.285 2970.41,786.788 2982.41,779.62 2994.4,772.676 3006.4,765.963 3018.4,759.474 3030.39,753.211 3042.39,747.174 3054.39,741.462 3066.38,736.108 3078.38,731.104 3090.37,726.362 3102.37,721.83 3114.37,717.497 3126.36,713.358 3138.36,709.409 3150.36,705.643 3162.35,702.055 3174.35,698.637 3186.34,695.383 3198.34,692.288 3210.34,689.346 3222.33,686.565 "/>
<path clip-path="url(#clip732)" d="M235.268 412.156 L247.265 412.501 L259.261 412.908 L271.257 414.582 L283.253 420.339 L295.249 423.15 L307.246 428.376 L319.242 430.359 L331.238 433.186 L343.234 433.161 L355.231 425.76 L367.227 424.751 L379.223 425.409 L391.219 430.396 L403.216 437.176 L415.212 446.204 L427.208 462.73 L439.204 463.212 L451.201 483.023 L463.197 489.149 L475.193 489.813 L487.189 493.773 L499.186 492.619 L511.182 493.771 L523.178 497.308 L535.174 501.815 L547.171 501.79 L559.167 506.015 L571.163 515.875 L583.159 517.677 L595.156 521.788 L607.152 523.469 L619.148 524.413 L631.144 525.551 L643.141 525.964 L655.137 525.759 L667.133 520.005 L679.129 480.409 L691.126 433.474 L703.122 433.786 L715.118 434.295 L727.114 438.952 L739.111 439.512 L751.107 439.56 L763.103 442.821 L775.099 443.033 L787.096 443.263 L799.092 443.512 L811.088 445.721 L823.084 446.115 L835.081 447.323 L847.077 446.951 L859.073 447.418 L871.069 453.809 L883.066 459.113 L895.062 459.474 L907.058 470.187 L919.054 472.376 L931.051 503.992 L943.047 486.186 L955.043 474.173 L967.039 518.013 L979.036 536.668 L991.032 580.097 L1003.03 602.577 L1015.02 638.787 L1027.02 669.966 L1039.02 701.784 L1051.01 701.637 L1063.01 690.95 L1075.01 672.596 L1087 656.096 L1099 628.683 L1110.99 615.824 L1122.99 628.754 L1134.99 636.227 L1146.98 654.386 L1158.98 697.692 L1170.98 690.033 L1182.97 696.315 L1194.97 660.364 L1206.96 653.552 L1218.96 646.764 L1230.96 643.586 L1242.95 637.622 L1254.95 637.399 L1266.95 638.384 L1278.94 638.259 L1290.94 643.138 L1302.93 643.021 L1314.93 645.308 L1326.93 652.758 L1338.92 643.026 L1350.92 642.999 L1362.92 645.833 L1374.91 668.26 L1386.91 668.106 L1398.9 663.455 L1410.9 647.877 L1422.9 663.001 L1434.89 682.753 L1446.89 704.376 L1458.89 723.012 L1470.88 763.189 L1482.88 790.918 L1494.87 809.215 L1506.87 838.085 L1518.87 836.211 L1530.86 820.659 L1542.86 817.291 L1554.86 796.916 L1566.85 777.125 L1578.85 755.182 L1590.84 715.658 L1602.84 714.83 L1614.84 710.589 L1626.83 707.893 L1638.83 686.208 L1650.83 681.326 L1662.82 660.678 L1674.82 638.408 L1686.81 618.653 L1698.81 591.784 L1710.81 512.139 L1722.8 442.838 L1734.8 427.793 L1746.8 424.132 L1758.79 399.246 L1770.79 400.532 L1782.78 407.567 L1794.78 415.076 L1806.78 418.754 L1818.77 410.41 L1830.77 413.099 L1842.77 420.172 L1854.76 415.085 L1866.76 421.36 L1878.75 428.19 L1890.75 433.853 L1902.75 440.187 L1914.74 446.975 L1926.74 451.636 L1938.74 462.136 L1950.73 469.105 L1962.73 476.884 L1974.72 485.192 L1986.72 493.642 L1998.72 502.668 L2010.71 508.937 L2022.71 517.595 L2034.71 526.922 L2046.7 538.284 L2058.7 546.351 L2070.69 553.475 L2082.69 560.406 L2094.69 556.267 L2106.68 555.663 L2118.68 558.977 L2130.68 562.113 L2142.67 565.674 L2154.67 557.239 L2166.66 543.75 L2178.66 501.655 L2190.66 501.937 L2202.65 512.385 L2214.65 521.292 L2226.65 525.207 L2238.64 534.534 L2250.64 542.512 L2262.63 551.307 L2274.63 551.822 L2286.63 554.189 L2298.62 560.085 L2310.62 561.757 L2322.62 560.225 L2334.61 520.996 L2346.61 233.318 L2358.6 219.883 L2370.6 218.235 L2382.6 212.489 L2394.59 216.137 L2406.59 221.533 L2418.59 231.14 L2430.58 240.095 L2442.58 251.557 L2454.57 260.868 L2466.57 269.376 L2478.57 279.53 L2490.56 292.083 L2502.56 303.285 L2514.56 315.917 L2526.55 334.674 L2538.55 351.067 L2550.54 366.146 L2562.54 382.947 L2574.54 399.17 L2586.53 413.012 L2598.53 425.603 L2610.53 440.16 L2622.52 452.426 L2634.52 465.829 L2646.51 479.398 L2658.51 490.663 L2670.51 501.278 L2682.5 512.939 L2694.5 522.935 L2706.5 532.423 L2718.49 541.511 L2730.49 550.99 L2742.48 561.863 L2754.48 570.17 L2766.48 577.626 L2778.47 584.397 L2790.47 589.776 L2802.47 594.951 L2814.46 599.352 L2826.46 603.82 L2838.45 608.175 L2850.45 612.278 L2862.45 615.883 L2874.44 619.531 L2886.44 622.795 L2898.43 625.562 L2910.43 628.025 L2922.43 630.103 L2934.42 632.463 L2946.42 634.858 L2958.42 636.764 L2970.41 638.087 L2982.41 639.11 L2994.4 640.206 L3006.4 641.043 L3018.4 641.992 L3030.39 642.978 L3042.39 643.719 L3054.39 644.455 L3066.38 645.102 L3078.38 645.686 L3090.37 646.25 L3102.37 646.759 L3114.37 647.214 L3126.36 647.622 L3138.36 647.988 L3150.36 648.297 L3162.35 648.564 L3174.35 648.813 L3186.34 649.049 L3198.34 649.26 L3210.34 649.45 L3222.33 649.619 L3222.33 517.318 L3210.34 508.99 L3198.34 501.443 L3186.34 493.148 L3174.35 484.18 L3162.35 474.45 L3150.36 465.195 L3138.36 455.212 L3126.36 445.06 L3114.37 435.059 L3102.37 425.592 L3090.37 416.076 L3078.38 407.076 L3066.38 396.977 L3054.39 386.349 L3042.39 375.461 L3030.39 364.409 L3018.4 353.412 L3006.4 342.505 L2994.4 331.731 L2982.41 321.12 L2970.41 310.852 L2958.42 300.184 L2946.42 293.031 L2934.42 284.094 L2922.43 275.818 L2910.43 266.651 L2898.43 256.812 L2886.44 246.99 L2874.44 237.062 L2862.45 227.833 L2850.45 219.189 L2838.45 210.065 L2826.46 201.873 L2814.46 193.785 L2802.47 185.981 L2790.47 179.086 L2778.47 171.321 L2766.48 164.026 L2754.48 157.695 L2742.48 150.286 L2730.49 143.743 L2718.49 137.951 L2706.5 132.508 L2694.5 127.77 L2682.5 123.253 L2670.51 117.781 L2658.51 113.432 L2646.51 108.845 L2634.52 104.694 L2622.52 101.277 L2610.53 97.9951 L2598.53 94.1149 L2586.53 91.1179 L2574.54 88.3111 L2562.54 85.4265 L2550.54 82.9192 L2538.55 80.3446 L2526.55 78.008 L2514.56 75.8936 L2502.56 73.6397 L2490.56 71.5813 L2478.57 69.6187 L2466.57 67.4971 L2454.57 65.754 L2442.58 64.2337 L2430.58 62.9194 L2418.59 61.6376 L2406.59 60.6015 L2394.59 59.4482 L2382.6 58.3807 L2370.6 57.3901 L2358.6 56.573 L2346.61 55.7641 L2334.61 56.0343 L2322.62 56.4988 L2310.62 57.0597 L2298.62 57.994 L2286.63 59.1879 L2274.63 59.6091 L2262.63 59.3134 L2250.64 58.748 L2238.64 58.4315 L2226.65 57.7376 L2214.65 57.0624 L2202.65 56.4551 L2190.66 55.8527 L2178.66 55.2812 L2166.66 56.2373 L2154.67 57.1351 L2142.67 58.5179 L2130.68 60.549 L2118.68 61.8467 L2106.68 64.9471 L2094.69 71.6224 L2082.69 79.1081 L2070.69 86.7258 L2058.7 91.4046 L2046.7 91.7098 L2034.71 93.6182 L2022.71 94.2844 L2010.71 92.52 L1998.72 91.5376 L1986.72 91.1461 L1974.72 91.029 L1962.73 88.8801 L1950.73 87.765 L1938.74 85.9517 L1926.74 84.759 L1914.74 82.9692 L1902.75 81.2117 L1890.75 79.4961 L1878.75 77.7005 L1866.76 76.3538 L1854.76 74.6757 L1842.77 73.3617 L1830.77 72.2499 L1818.77 70.9214 L1806.78 70.0381 L1794.78 68.7706 L1782.78 67.5892 L1770.79 66.6575 L1758.79 65.8875 L1746.8 64.9104 L1734.8 64.3019 L1722.8 63.2658 L1710.81 64.6137 L1698.81 68.5568 L1686.81 70.0566 L1674.82 70.5824 L1662.82 73.2256 L1650.83 74.4071 L1638.83 74.5917 L1626.83 75.9838 L1614.84 75.5014 L1602.84 74.7311 L1590.84 75.4986 L1578.85 79.6261 L1566.85 84.3116 L1554.86 90.6686 L1542.86 97.6908 L1530.86 103.908 L1518.87 105.877 L1506.87 108.554 L1494.87 106.17 L1482.88 104.382 L1470.88 103.659 L1458.89 102.711 L1446.89 101.756 L1434.89 99.6409 L1422.9 97.9165 L1410.9 96.5201 L1398.9 106.195 L1386.91 116.882 L1374.91 134.101 L1362.92 143.823 L1350.92 151.368 L1338.92 155.662 L1326.93 155.011 L1314.93 153.909 L1302.93 153.54 L1290.94 151.981 L1278.94 151.315 L1266.95 150.752 L1254.95 149.325 L1242.95 149.528 L1230.96 149.301 L1218.96 149.804 L1206.96 150.104 L1194.97 150.192 L1182.97 150.435 L1170.98 149.639 L1158.98 145.136 L1146.98 118.645 L1134.99 106.321 L1122.99 97.814 L1110.99 96.5766 L1099 95.9342 L1087 95.298 L1075.01 97.4079 L1063.01 95.7571 L1051.01 94.4673 L1039.02 94.1306 L1027.02 85.6085 L1015.02 84.3014 L1003.03 83.0204 L991.032 83.7624 L979.036 83.1069 L967.039 83.1125 L955.043 86.7294 L943.047 100.891 L931.051 118.62 L919.054 122.514 L907.058 130.463 L895.062 130.047 L883.066 129.426 L871.069 129.131 L859.073 133.28 L847.077 135.65 L835.081 138.69 L823.084 139.921 L811.088 139.405 L799.092 138.248 L787.096 138.523 L775.099 137.966 L763.103 137.46 L751.107 137 L739.111 135.008 L727.114 134.66 L715.118 134.084 L703.122 133.723 L691.126 133.441 L679.129 139.951 L667.133 173.227 L655.137 193.275 L643.141 218.518 L631.144 240.488 L619.148 299.605 L607.152 337.076 L595.156 347.242 L583.159 351.376 L571.163 356.69 L559.167 356.744 L547.171 357.911 L535.174 357.861 L523.178 358.491 L511.182 357.73 L499.186 358.311 L487.189 358.661 L475.193 361.223 L463.197 362.745 L451.201 363.095 L439.204 363.068 L427.208 364.6 L415.212 361.354 L403.216 355.932 L391.219 355.566 L379.223 353.858 L367.227 355.439 L355.231 358.244 L343.234 373.355 L331.238 374.802 L319.242 374.176 L307.246 373.328 L295.249 370.059 L283.253 368.164 L271.257 364.412 L259.261 357.713 L247.265 355.813 L235.268 354.879  Z" fill="#e26f46" fill-rule="evenodd" fill-opacity="0.3"/>
<polyline clip-path="url(#clip732)" style="stroke:#e26f46; stroke-linecap:round; stroke-linejoin:round; stroke-width:4; stroke-opacity:0; fill:none" points="235.268,412.156 247.265,412.501 259.261,412.908 271.257,414.582 283.253,420.339 295.249,423.15 307.246,428.376 319.242,430.359 331.238,433.186 343.234,433.161 355.231,425.76 367.227,424.751 379.223,425.409 391.219,430.396 403.216,437.176 415.212,446.204 427.208,462.73 439.204,463.212 451.201,483.023 463.197,489.149 475.193,489.813 487.189,493.773 499.186,492.619 511.182,493.771 523.178,497.308 535.174,501.815 547.171,501.79 559.167,506.015 571.163,515.875 583.159,517.677 595.156,521.788 607.152,523.469 619.148,524.413 631.144,525.551 643.141,525.964 655.137,525.759 667.133,520.005 679.129,480.409 691.126,433.474 703.122,433.786 715.118,434.295 727.114,438.952 739.111,439.512 751.107,439.56 763.103,442.821 775.099,443.033 787.096,443.263 799.092,443.512 811.088,445.721 823.084,446.115 835.081,447.323 847.077,446.951 859.073,447.418 871.069,453.809 883.066,459.113 895.062,459.474 907.058,470.187 919.054,472.376 931.051,503.992 943.047,486.186 955.043,474.173 967.039,518.013 979.036,536.668 991.032,580.097 1003.03,602.577 1015.02,638.787 1027.02,669.966 1039.02,701.784 1051.01,701.637 1063.01,690.95 1075.01,672.596 1087,656.096 1099,628.683 1110.99,615.824 1122.99,628.754 1134.99,636.227 1146.98,654.386 1158.98,697.692 1170.98,690.033 1182.97,696.315 1194.97,660.364 1206.96,653.552 1218.96,646.764 1230.96,643.586 1242.95,637.622 1254.95,637.399 1266.95,638.384 1278.94,638.259 1290.94,643.138 1302.93,643.021 1314.93,645.308 1326.93,652.758 1338.92,643.026 1350.92,642.999 1362.92,645.833 1374.91,668.26 1386.91,668.106 1398.9,663.455 1410.9,647.877 1422.9,663.001 1434.89,682.753 1446.89,704.376 1458.89,723.012 1470.88,763.189 1482.88,790.918 1494.87,809.215 1506.87,838.085 1518.87,836.211 1530.86,820.659 1542.86,817.291 1554.86,796.916 1566.85,777.125 1578.85,755.182 1590.84,715.658 1602.84,714.83 1614.84,710.589 1626.83,707.893 1638.83,686.208 1650.83,681.326 1662.82,660.678 1674.82,638.408 1686.81,618.653 1698.81,591.784 1710.81,512.139 1722.8,442.838 1734.8,427.793 1746.8,424.132 1758.79,399.246 1770.79,400.532 1782.78,407.567 1794.78,415.076 1806.78,418.754 1818.77,410.41 1830.77,413.099 1842.77,420.172 1854.76,415.085 1866.76,421.36 1878.75,428.19 1890.75,433.853 1902.75,440.187 1914.74,446.975 1926.74,451.636 1938.74,462.136 1950.73,469.105 1962.73,476.884 1974.72,485.192 1986.72,493.642 1998.72,502.668 2010.71,508.937 2022.71,517.595 2034.71,526.922 2046.7,538.284 2058.7,546.351 2070.69,553.475 2082.69,560.406 2094.69,556.267 2106.68,555.663 2118.68,558.977 2130.68,562.113 2142.67,565.674 2154.67,557.239 2166.66,543.75 2178.66,501.655 2190.66,501.937 2202.65,512.385 2214.65,521.292 2226.65,525.207 2238.64,534.534 2250.64,542.512 2262.63,551.307 2274.63,551.822 2286.63,554.189 2298.62,560.085 2310.62,561.757 2322.62,560.225 2334.61,520.996 2346.61,233.318 2358.6,219.883 2370.6,218.235 2382.6,212.489 2394.59,216.137 2406.59,221.533 2418.59,231.14 2430.58,240.095 2442.58,251.557 2454.57,260.868 2466.57,269.376 2478.57,279.53 2490.56,292.083 2502.56,303.285 2514.56,315.917 2526.55,334.674 2538.55,351.067 2550.54,366.146 2562.54,382.947 2574.54,399.17 2586.53,413.012 2598.53,425.603 2610.53,440.16 2622.52,452.426 2634.52,465.829 2646.51,479.398 2658.51,490.663 2670.51,501.278 2682.5,512.939 2694.5,522.935 2706.5,532.423 2718.49,541.511 2730.49,550.99 2742.48,561.863 2754.48,570.17 2766.48,577.626 2778.47,584.397 2790.47,589.776 2802.47,594.951 2814.46,599.352 2826.46,603.82 2838.45,608.175 2850.45,612.278 2862.45,615.883 2874.44,619.531 2886.44,622.795 2898.43,625.562 2910.43,628.025 2922.43,630.103 2934.42,632.463 2946.42,634.858 2958.42,636.764 2970.41,638.087 2982.41,639.11 2994.4,640.206 3006.4,641.043 3018.4,641.992 3030.39,642.978 3042.39,643.719 3054.39,644.455 3066.38,645.102 3078.38,645.686 3090.37,646.25 3102.37,646.759 3114.37,647.214 3126.36,647.622 3138.36,647.988 3150.36,648.297 3162.35,648.564 3174.35,648.813 3186.34,649.049 3198.34,649.26 3210.34,649.45 3222.33,649.619 "/>
<path clip-path="url(#clip732)" d="M235.268 946.885 L247.265 945.951 L259.261 944.05 L271.257 937.352 L283.253 933.599 L295.249 931.705 L307.246 928.436 L319.242 927.588 L331.238 926.962 L343.234 928.409 L355.231 943.52 L367.227 946.325 L379.223 947.906 L391.219 946.198 L403.216 945.832 L415.212 940.41 L427.208 937.164 L439.204 938.696 L451.201 938.669 L463.197 939.019 L475.193 940.541 L487.189 943.103 L499.186 943.453 L511.182 944.034 L523.178 943.273 L535.174 943.903 L547.171 943.853 L559.167 945.02 L571.163 945.074 L583.159 950.388 L595.156 954.522 L607.152 964.688 L619.148 1002.16 L631.144 1061.28 L643.141 1083.25 L655.137 1108.49 L667.133 1128.54 L679.129 1161.81 L691.126 1168.32 L703.122 1168.04 L715.118 1167.68 L727.114 1167.1 L739.111 1166.76 L751.107 1164.76 L763.103 1164.3 L775.099 1163.8 L787.096 1163.24 L799.092 1163.52 L811.088 1162.36 L823.084 1161.84 L835.081 1163.07 L847.077 1166.11 L859.073 1168.48 L871.069 1172.63 L883.066 1172.34 L895.062 1171.72 L907.058 1171.3 L919.054 1179.25 L931.051 1183.14 L943.047 1200.87 L955.043 1215.03 L967.039 1218.65 L979.036 1218.66 L991.032 1218 L1003.03 1218.74 L1015.02 1217.46 L1027.02 1216.16 L1039.02 1207.63 L1051.01 1207.3 L1063.01 1206.01 L1075.01 1204.36 L1087 1206.47 L1099 1205.83 L1110.99 1205.19 L1122.99 1203.95 L1134.99 1195.44 L1146.98 1183.12 L1158.98 1156.63 L1170.98 1152.12 L1182.97 1151.33 L1194.97 1151.57 L1206.96 1151.66 L1218.96 1151.96 L1230.96 1152.46 L1242.95 1152.24 L1254.95 1152.44 L1266.95 1151.01 L1278.94 1150.45 L1290.94 1149.78 L1302.93 1148.22 L1314.93 1147.85 L1326.93 1146.75 L1338.92 1146.1 L1350.92 1150.4 L1362.92 1157.94 L1374.91 1167.66 L1386.91 1184.88 L1398.9 1195.57 L1410.9 1205.24 L1422.9 1203.85 L1434.89 1202.12 L1446.89 1200.01 L1458.89 1199.05 L1470.88 1198.1 L1482.88 1197.38 L1494.87 1195.59 L1506.87 1193.21 L1518.87 1195.89 L1530.86 1197.86 L1542.86 1204.07 L1554.86 1211.1 L1566.85 1217.45 L1578.85 1222.14 L1590.84 1226.27 L1602.84 1227.03 L1614.84 1226.26 L1626.83 1225.78 L1638.83 1227.17 L1650.83 1227.36 L1662.82 1228.54 L1674.82 1231.18 L1686.81 1231.71 L1698.81 1233.21 L1710.81 1237.15 L1722.8 1238.5 L1734.8 1237.46 L1746.8 1236.85 L1758.79 1235.88 L1770.79 1235.11 L1782.78 1234.17 L1794.78 1232.99 L1806.78 1231.73 L1818.77 1230.84 L1830.77 1229.51 L1842.77 1228.4 L1854.76 1227.09 L1866.76 1225.41 L1878.75 1224.06 L1890.75 1222.27 L1902.75 1220.55 L1914.74 1218.79 L1926.74 1217 L1938.74 1215.81 L1950.73 1214 L1962.73 1212.88 L1974.72 1210.73 L1986.72 1210.62 L1998.72 1210.23 L2010.71 1209.24 L2022.71 1207.48 L2034.71 1208.15 L2046.7 1210.05 L2058.7 1210.36 L2070.69 1215.04 L2082.69 1222.66 L2094.69 1230.14 L2106.68 1236.82 L2118.68 1239.92 L2130.68 1241.21 L2142.67 1243.25 L2154.67 1244.63 L2166.66 1245.53 L2178.66 1246.48 L2190.66 1245.91 L2202.65 1245.31 L2214.65 1244.7 L2226.65 1244.03 L2238.64 1243.33 L2250.64 1243.02 L2262.63 1242.45 L2274.63 1242.15 L2286.63 1242.58 L2298.62 1243.77 L2310.62 1244.7 L2322.62 1245.27 L2334.61 1245.73 L2346.61 1246 L2358.6 1245.19 L2370.6 1244.37 L2382.6 1243.38 L2394.59 1242.32 L2406.59 1241.16 L2418.59 1240.13 L2430.58 1238.84 L2442.58 1237.53 L2454.57 1236.01 L2466.57 1234.27 L2478.57 1232.15 L2490.56 1230.18 L2502.56 1228.12 L2514.56 1225.87 L2526.55 1223.76 L2538.55 1221.42 L2550.54 1218.84 L2562.54 1216.34 L2574.54 1213.45 L2586.53 1210.65 L2598.53 1207.65 L2610.53 1203.77 L2622.52 1200.49 L2634.52 1197.07 L2646.51 1192.92 L2658.51 1188.33 L2670.51 1183.98 L2682.5 1178.51 L2694.5 1173.99 L2706.5 1169.26 L2718.49 1163.81 L2730.49 1158.02 L2742.48 1151.48 L2754.48 1144.07 L2766.48 1137.74 L2778.47 1130.44 L2790.47 1122.68 L2802.47 1115.78 L2814.46 1107.98 L2826.46 1099.89 L2838.45 1091.7 L2850.45 1082.57 L2862.45 1073.93 L2874.44 1064.7 L2886.44 1054.77 L2898.43 1044.95 L2910.43 1035.11 L2922.43 1025.95 L2934.42 1017.67 L2946.42 1008.73 L2958.42 1001.58 L2970.41 990.912 L2982.41 980.643 L2994.4 970.032 L3006.4 959.259 L3018.4 948.352 L3030.39 937.355 L3042.39 926.303 L3054.39 915.415 L3066.38 904.787 L3078.38 894.688 L3090.37 885.688 L3102.37 876.172 L3114.37 866.705 L3126.36 856.704 L3138.36 846.552 L3150.36 836.569 L3162.35 827.314 L3174.35 817.584 L3186.34 808.615 L3198.34 800.321 L3210.34 792.774 L3222.33 784.446 L3222.33 652.144 L3210.34 652.314 L3198.34 652.504 L3186.34 652.715 L3174.35 652.951 L3162.35 653.2 L3150.36 653.466 L3138.36 653.776 L3126.36 654.141 L3114.37 654.55 L3102.37 655.005 L3090.37 655.514 L3078.38 656.078 L3066.38 656.662 L3054.39 657.309 L3042.39 658.045 L3030.39 658.786 L3018.4 659.772 L3006.4 660.721 L2994.4 661.558 L2982.41 662.654 L2970.41 663.677 L2958.42 665 L2946.42 666.906 L2934.42 669.3 L2922.43 671.661 L2910.43 673.739 L2898.43 676.202 L2886.44 678.969 L2874.44 682.233 L2862.45 685.881 L2850.45 689.485 L2838.45 693.589 L2826.46 697.944 L2814.46 702.412 L2802.47 706.813 L2790.47 711.988 L2778.47 717.367 L2766.48 724.138 L2754.48 731.594 L2742.48 739.901 L2730.49 750.774 L2718.49 760.253 L2706.5 769.341 L2694.5 778.829 L2682.5 788.825 L2670.51 800.486 L2658.51 811.101 L2646.51 822.366 L2634.52 835.935 L2622.52 849.338 L2610.53 861.604 L2598.53 876.161 L2586.53 888.752 L2574.54 902.594 L2562.54 918.817 L2550.54 935.618 L2538.55 950.697 L2526.55 967.09 L2514.56 985.847 L2502.56 998.479 L2490.56 1009.68 L2478.57 1022.23 L2466.57 1032.39 L2454.57 1040.9 L2442.58 1050.21 L2430.58 1061.67 L2418.59 1070.62 L2406.59 1080.23 L2394.59 1085.63 L2382.6 1089.27 L2370.6 1083.53 L2358.6 1081.88 L2346.61 1068.45 L2334.61 780.768 L2322.62 741.539 L2310.62 740.007 L2298.62 741.679 L2286.63 747.575 L2274.63 749.942 L2262.63 750.457 L2250.64 759.252 L2238.64 767.23 L2226.65 776.557 L2214.65 780.472 L2202.65 789.379 L2190.66 799.826 L2178.66 800.109 L2166.66 758.014 L2154.67 744.525 L2142.67 736.09 L2130.68 739.651 L2118.68 742.787 L2106.68 746.101 L2094.69 745.497 L2082.69 741.358 L2070.69 748.289 L2058.7 755.413 L2046.7 763.48 L2034.71 774.842 L2022.71 784.169 L2010.71 792.827 L1998.72 799.096 L1986.72 808.122 L1974.72 816.572 L1962.73 824.88 L1950.73 832.659 L1938.74 839.628 L1926.74 850.128 L1914.74 854.789 L1902.75 861.577 L1890.75 867.911 L1878.75 873.574 L1866.76 880.404 L1854.76 886.678 L1842.77 881.592 L1830.77 888.665 L1818.77 891.354 L1806.78 883.01 L1794.78 886.688 L1782.78 894.197 L1770.79 901.232 L1758.79 902.518 L1746.8 877.632 L1734.8 873.971 L1722.8 858.926 L1710.81 789.625 L1698.81 709.98 L1686.81 683.111 L1674.82 663.355 L1662.82 641.086 L1650.83 620.438 L1638.83 615.556 L1626.83 593.871 L1614.84 591.175 L1602.84 586.934 L1590.84 586.106 L1578.85 546.582 L1566.85 524.639 L1554.86 504.848 L1542.86 484.473 L1530.86 481.105 L1518.87 465.553 L1506.87 463.679 L1494.87 492.549 L1482.88 510.846 L1470.88 538.574 L1458.89 578.752 L1446.89 597.388 L1434.89 619.011 L1422.9 638.763 L1410.9 653.887 L1398.9 638.309 L1386.91 633.658 L1374.91 633.504 L1362.92 655.931 L1350.92 658.764 L1338.92 658.738 L1326.93 649.006 L1314.93 656.456 L1302.93 658.743 L1290.94 658.626 L1278.94 663.505 L1266.95 663.38 L1254.95 664.365 L1242.95 664.141 L1230.96 658.178 L1218.96 655 L1206.96 648.212 L1194.97 641.4 L1182.97 605.449 L1170.98 611.731 L1158.98 604.072 L1146.98 647.378 L1134.99 665.537 L1122.99 673.01 L1110.99 685.94 L1099 673.081 L1087 645.668 L1075.01 629.168 L1063.01 610.814 L1051.01 600.127 L1039.02 599.98 L1027.02 631.798 L1015.02 662.977 L1003.03 699.187 L991.032 721.667 L979.036 765.095 L967.039 783.751 L955.043 827.591 L943.047 815.578 L931.051 797.772 L919.054 829.387 L907.058 831.577 L895.062 842.29 L883.066 842.651 L871.069 847.955 L859.073 854.346 L847.077 854.813 L835.081 854.441 L823.084 855.649 L811.088 856.043 L799.092 858.252 L787.096 858.501 L775.099 858.731 L763.103 858.943 L751.107 862.204 L739.111 862.252 L727.114 862.812 L715.118 867.469 L703.122 867.978 L691.126 868.29 L679.129 821.355 L667.133 781.759 L655.137 776.005 L643.141 775.8 L631.144 776.213 L619.148 777.351 L607.152 778.295 L595.156 779.976 L583.159 784.087 L571.163 785.889 L559.167 795.749 L547.171 799.974 L535.174 799.949 L523.178 804.456 L511.182 807.993 L499.186 809.145 L487.189 807.991 L475.193 811.95 L463.197 812.615 L451.201 818.741 L439.204 838.552 L427.208 839.034 L415.212 855.56 L403.216 864.588 L391.219 871.368 L379.223 876.355 L367.227 877.013 L355.231 876.004 L343.234 868.603 L331.238 868.578 L319.242 871.405 L307.246 873.388 L295.249 878.614 L283.253 881.425 L271.257 887.182 L259.261 888.856 L247.265 889.263 L235.268 889.608  Z" fill="#3da44d" fill-rule="evenodd" fill-opacity="0.3"/>
<polyline clip-path="url(#clip732)" style="stroke:#3da44d; stroke-linecap:round; stroke-linejoin:round; stroke-width:4; stroke-opacity:0; fill:none" points="235.268,946.885 247.265,945.951 259.261,944.05 271.257,937.352 283.253,933.599 295.249,931.705 307.246,928.436 319.242,927.588 331.238,926.962 343.234,928.409 355.231,943.52 367.227,946.325 379.223,947.906 391.219,946.198 403.216,945.832 415.212,940.41 427.208,937.164 439.204,938.696 451.201,938.669 463.197,939.019 475.193,940.541 487.189,943.103 499.186,943.453 511.182,944.034 523.178,943.273 535.174,943.903 547.171,943.853 559.167,945.02 571.163,945.074 583.159,950.388 595.156,954.522 607.152,964.688 619.148,1002.16 631.144,1061.28 643.141,1083.25 655.137,1108.49 667.133,1128.54 679.129,1161.81 691.126,1168.32 703.122,1168.04 715.118,1167.68 727.114,1167.1 739.111,1166.76 751.107,1164.76 763.103,1164.3 775.099,1163.8 787.096,1163.24 799.092,1163.52 811.088,1162.36 823.084,1161.84 835.081,1163.07 847.077,1166.11 859.073,1168.48 871.069,1172.63 883.066,1172.34 895.062,1171.72 907.058,1171.3 919.054,1179.25 931.051,1183.14 943.047,1200.87 955.043,1215.03 967.039,1218.65 979.036,1218.66 991.032,1218 1003.03,1218.74 1015.02,1217.46 1027.02,1216.16 1039.02,1207.63 1051.01,1207.3 1063.01,1206.01 1075.01,1204.36 1087,1206.47 1099,1205.83 1110.99,1205.19 1122.99,1203.95 1134.99,1195.44 1146.98,1183.12 1158.98,1156.63 1170.98,1152.12 1182.97,1151.33 1194.97,1151.57 1206.96,1151.66 1218.96,1151.96 1230.96,1152.46 1242.95,1152.24 1254.95,1152.44 1266.95,1151.01 1278.94,1150.45 1290.94,1149.78 1302.93,1148.22 1314.93,1147.85 1326.93,1146.75 1338.92,1146.1 1350.92,1150.4 1362.92,1157.94 1374.91,1167.66 1386.91,1184.88 1398.9,1195.57 1410.9,1205.24 1422.9,1203.85 1434.89,1202.12 1446.89,1200.01 1458.89,1199.05 1470.88,1198.1 1482.88,1197.38 1494.87,1195.59 1506.87,1193.21 1518.87,1195.89 1530.86,1197.86 1542.86,1204.07 1554.86,1211.1 1566.85,1217.45 1578.85,1222.14 1590.84,1226.27 1602.84,1227.03 1614.84,1226.26 1626.83,1225.78 1638.83,1227.17 1650.83,1227.36 1662.82,1228.54 1674.82,1231.18 1686.81,1231.71 1698.81,1233.21 1710.81,1237.15 1722.8,1238.5 1734.8,1237.46 1746.8,1236.85 1758.79,1235.88 1770.79,1235.11 1782.78,1234.17 1794.78,1232.99 1806.78,1231.73 1818.77,1230.84 1830.77,1229.51 1842.77,1228.4 1854.76,1227.09 1866.76,1225.41 1878.75,1224.06 1890.75,1222.27 1902.75,1220.55 1914.74,1218.79 1926.74,1217 1938.74,1215.81 1950.73,1214 1962.73,1212.88 1974.72,1210.73 1986.72,1210.62 1998.72,1210.23 2010.71,1209.24 2022.71,1207.48 2034.71,1208.15 2046.7,1210.05 2058.7,1210.36 2070.69,1215.04 2082.69,1222.66 2094.69,1230.14 2106.68,1236.82 2118.68,1239.92 2130.68,1241.21 2142.67,1243.25 2154.67,1244.63 2166.66,1245.53 2178.66,1246.48 2190.66,1245.91 2202.65,1245.31 2214.65,1244.7 2226.65,1244.03 2238.64,1243.33 2250.64,1243.02 2262.63,1242.45 2274.63,1242.15 2286.63,1242.58 2298.62,1243.77 2310.62,1244.7 2322.62,1245.27 2334.61,1245.73 2346.61,1246 2358.6,1245.19 2370.6,1244.37 2382.6,1243.38 2394.59,1242.32 2406.59,1241.16 2418.59,1240.13 2430.58,1238.84 2442.58,1237.53 2454.57,1236.01 2466.57,1234.27 2478.57,1232.15 2490.56,1230.18 2502.56,1228.12 2514.56,1225.87 2526.55,1223.76 2538.55,1221.42 2550.54,1218.84 2562.54,1216.34 2574.54,1213.45 2586.53,1210.65 2598.53,1207.65 2610.53,1203.77 2622.52,1200.49 2634.52,1197.07 2646.51,1192.92 2658.51,1188.33 2670.51,1183.98 2682.5,1178.51 2694.5,1173.99 2706.5,1169.26 2718.49,1163.81 2730.49,1158.02 2742.48,1151.48 2754.48,1144.07 2766.48,1137.74 2778.47,1130.44 2790.47,1122.68 2802.47,1115.78 2814.46,1107.98 2826.46,1099.89 2838.45,1091.7 2850.45,1082.57 2862.45,1073.93 2874.44,1064.7 2886.44,1054.77 2898.43,1044.95 2910.43,1035.11 2922.43,1025.95 2934.42,1017.67 2946.42,1008.73 2958.42,1001.58 2970.41,990.912 2982.41,980.643 2994.4,970.032 3006.4,959.259 3018.4,948.352 3030.39,937.355 3042.39,926.303 3054.39,915.415 3066.38,904.787 3078.38,894.688 3090.37,885.688 3102.37,876.172 3114.37,866.705 3126.36,856.704 3138.36,846.552 3150.36,836.569 3162.35,827.314 3174.35,817.584 3186.34,808.615 3198.34,800.321 3210.34,792.774 3222.33,784.446 "/>
<polyline clip-path="url(#clip732)" style="stroke:#000000; stroke-linecap:round; stroke-linejoin:round; stroke-width:4; stroke-opacity:0.5; fill:none" stroke-dasharray="16, 8, 2, 8" points="2413.96,2461.8 2413.96,-1160.03 "/>
<path clip-path="url(#clip730)" d="M278.255 243.007 L764.776 243.007 L764.776 87.4866 L278.255 87.4866  Z" fill="#ffffff" fill-rule="evenodd" fill-opacity="1"/>
<polyline clip-path="url(#clip730)" style="stroke:#000000; stroke-linecap:round; stroke-linejoin:round; stroke-width:4; stroke-opacity:1; fill:none" points="278.255,243.007 764.776,243.007 764.776,87.4866 278.255,87.4866 278.255,243.007 "/>
<polyline clip-path="url(#clip730)" style="stroke:#e26f46; stroke-linecap:round; stroke-linejoin:round; stroke-width:4; stroke-opacity:1; fill:none" points="296.582,139.327 406.548,139.327 "/>
<path clip-path="url(#clip730)" d="M450.431 151.676 L450.431 142.394 L442.792 142.394 L442.792 138.551 L455.061 138.551 L455.061 153.389 Q452.352 155.31 449.088 156.306 Q445.825 157.278 442.121 157.278 Q434.019 157.278 429.436 152.556 Q424.876 147.81 424.876 139.361 Q424.876 130.889 429.436 126.167 Q434.019 121.422 442.121 121.422 Q445.5 121.422 448.533 122.255 Q451.588 123.088 454.158 124.709 L454.158 129.685 Q451.565 127.486 448.649 126.375 Q445.732 125.264 442.514 125.264 Q436.172 125.264 432.977 128.806 Q429.806 132.347 429.806 139.361 Q429.806 146.352 432.977 149.894 Q436.172 153.435 442.514 153.435 Q444.991 153.435 446.936 153.019 Q448.88 152.579 450.431 151.676 Z" fill="#000000" fill-rule="nonzero" fill-opacity="1" /><path clip-path="url(#clip730)" d="M460.362 130.681 L464.875 130.681 L472.977 152.44 L481.079 130.681 L485.593 130.681 L475.871 156.607 L470.084 156.607 L460.362 130.681 Z" fill="#000000" fill-rule="nonzero" fill-opacity="1" /><path clip-path="url(#clip730)" d="M491.658 122.047 L496.334 122.047 L496.334 136.213 L513.324 136.213 L513.324 122.047 L518 122.047 L518 156.607 L513.324 156.607 L513.324 140.148 L496.334 140.148 L496.334 156.607 L491.658 156.607 L491.658 122.047 Z" fill="#000000" fill-rule="nonzero" fill-opacity="1" /><path clip-path="url(#clip730)" d="M531.982 125.889 L531.982 152.764 L537.63 152.764 Q544.782 152.764 548.093 149.523 Q551.426 146.283 551.426 139.292 Q551.426 132.347 548.093 129.13 Q544.782 125.889 537.63 125.889 L531.982 125.889 M527.306 122.047 L536.912 122.047 Q546.958 122.047 551.657 126.236 Q556.356 130.403 556.356 139.292 Q556.356 148.227 551.634 152.417 Q546.912 156.607 536.912 156.607 L527.306 156.607 L527.306 122.047 Z" fill="#000000" fill-rule="nonzero" fill-opacity="1" /><polyline clip-path="url(#clip730)" style="stroke:#3da44d; stroke-linecap:round; stroke-linejoin:round; stroke-width:4; stroke-opacity:1; fill:none" points="296.582,191.167 406.548,191.167 "/>
<path clip-path="url(#clip730)" d="M443.788 186.456 L443.788 172.428 L448.047 172.428 L448.047 208.447 L443.788 208.447 L443.788 204.558 Q442.445 206.873 440.385 208.007 Q438.348 209.118 435.477 209.118 Q430.778 209.118 427.815 205.368 Q424.876 201.618 424.876 195.507 Q424.876 189.396 427.815 185.646 Q430.778 181.896 435.477 181.896 Q438.348 181.896 440.385 183.03 Q442.445 184.141 443.788 186.456 M429.274 195.507 Q429.274 200.206 431.195 202.891 Q433.139 205.553 436.519 205.553 Q439.899 205.553 441.843 202.891 Q443.788 200.206 443.788 195.507 Q443.788 190.808 441.843 188.146 Q439.899 185.461 436.519 185.461 Q433.139 185.461 431.195 188.146 Q429.274 190.808 429.274 195.507 Z" fill="#000000" fill-rule="nonzero" fill-opacity="1" /><path clip-path="url(#clip730)" d="M478.996 194.419 L478.996 196.502 L459.412 196.502 Q459.69 200.9 462.051 203.215 Q464.436 205.507 468.672 205.507 Q471.125 205.507 473.417 204.905 Q475.732 204.303 478 203.099 L478 207.127 Q475.709 208.099 473.301 208.609 Q470.894 209.118 468.417 209.118 Q462.213 209.118 458.579 205.507 Q454.968 201.896 454.968 195.738 Q454.968 189.373 458.394 185.646 Q461.843 181.896 467.676 181.896 Q472.908 181.896 475.94 185.275 Q478.996 188.632 478.996 194.419 M474.736 193.169 Q474.69 189.674 472.769 187.59 Q470.871 185.507 467.723 185.507 Q464.158 185.507 462.005 187.521 Q459.875 189.535 459.551 193.192 L474.736 193.169 Z" fill="#000000" fill-rule="nonzero" fill-opacity="1" /><path clip-path="url(#clip730)" d="M497.769 195.414 Q492.607 195.414 490.616 196.595 Q488.625 197.775 488.625 200.623 Q488.625 202.891 490.107 204.234 Q491.611 205.553 494.181 205.553 Q497.722 205.553 499.852 203.053 Q502.005 200.53 502.005 196.363 L502.005 195.414 L497.769 195.414 M506.264 193.655 L506.264 208.447 L502.005 208.447 L502.005 204.511 Q500.546 206.873 498.371 208.007 Q496.195 209.118 493.047 209.118 Q489.065 209.118 486.704 206.896 Q484.366 204.65 484.366 200.9 Q484.366 196.525 487.283 194.303 Q490.222 192.081 496.033 192.081 L502.005 192.081 L502.005 191.664 Q502.005 188.725 500.06 187.127 Q498.139 185.507 494.644 185.507 Q492.422 185.507 490.315 186.039 Q488.209 186.572 486.264 187.637 L486.264 183.701 Q488.602 182.799 490.801 182.359 Q493 181.896 495.084 181.896 Q500.709 181.896 503.486 184.812 Q506.264 187.729 506.264 193.655 Z" fill="#000000" fill-rule="nonzero" fill-opacity="1" /><path clip-path="url(#clip730)" d="M519.25 175.16 L519.25 182.521 L528.023 182.521 L528.023 185.831 L519.25 185.831 L519.25 199.905 Q519.25 203.076 520.107 203.979 Q520.986 204.882 523.648 204.882 L528.023 204.882 L528.023 208.447 L523.648 208.447 Q518.718 208.447 516.843 206.618 Q514.968 204.766 514.968 199.905 L514.968 185.831 L511.843 185.831 L511.843 182.521 L514.968 182.521 L514.968 175.16 L519.25 175.16 Z" fill="#000000" fill-rule="nonzero" fill-opacity="1" /><path clip-path="url(#clip730)" d="M555.176 192.799 L555.176 208.447 L550.917 208.447 L550.917 192.937 Q550.917 189.257 549.481 187.428 Q548.046 185.6 545.176 185.6 Q541.727 185.6 539.736 187.799 Q537.745 189.998 537.745 193.794 L537.745 208.447 L533.463 208.447 L533.463 172.428 L537.745 172.428 L537.745 186.549 Q539.273 184.211 541.333 183.053 Q543.417 181.896 546.125 181.896 Q550.593 181.896 552.884 184.674 Q555.176 187.428 555.176 192.799 Z" fill="#000000" fill-rule="nonzero" fill-opacity="1" /><path clip-path="url(#clip730)" d="M571.241 173.887 L575.176 173.887 L563.139 212.845 L559.204 212.845 L571.241 173.887 Z" fill="#000000" fill-rule="nonzero" fill-opacity="1" /><path clip-path="url(#clip730)" d="M594.666 186.502 Q593.949 186.086 593.092 185.9 Q592.259 185.692 591.24 185.692 Q587.629 185.692 585.685 188.053 Q583.764 190.391 583.764 194.789 L583.764 208.447 L579.481 208.447 L579.481 182.521 L583.764 182.521 L583.764 186.549 Q585.106 184.187 587.259 183.053 Q589.412 181.896 592.49 181.896 Q592.93 181.896 593.463 181.965 Q593.995 182.012 594.643 182.127 L594.666 186.502 Z" fill="#000000" fill-rule="nonzero" fill-opacity="1" /><path clip-path="url(#clip730)" d="M620.268 194.419 L620.268 196.502 L600.685 196.502 Q600.963 200.9 603.324 203.215 Q605.708 205.507 609.944 205.507 Q612.398 205.507 614.689 204.905 Q617.004 204.303 619.273 203.099 L619.273 207.127 Q616.981 208.099 614.574 208.609 Q612.166 209.118 609.689 209.118 Q603.486 209.118 599.852 205.507 Q596.24 201.896 596.24 195.738 Q596.24 189.373 599.666 185.646 Q603.115 181.896 608.949 181.896 Q614.18 181.896 617.213 185.275 Q620.268 188.632 620.268 194.419 M616.009 193.169 Q615.963 189.674 614.041 187.59 Q612.143 185.507 608.995 185.507 Q605.43 185.507 603.277 187.521 Q601.148 189.535 600.824 193.192 L616.009 193.169 Z" fill="#000000" fill-rule="nonzero" fill-opacity="1" /><path clip-path="url(#clip730)" d="M627.259 172.428 L631.518 172.428 L631.518 208.447 L627.259 208.447 L627.259 172.428 Z" fill="#000000" fill-rule="nonzero" fill-opacity="1" /><path clip-path="url(#clip730)" d="M652.212 195.414 Q647.05 195.414 645.06 196.595 Q643.069 197.775 643.069 200.623 Q643.069 202.891 644.55 204.234 Q646.055 205.553 648.624 205.553 Q652.166 205.553 654.296 203.053 Q656.448 200.53 656.448 196.363 L656.448 195.414 L652.212 195.414 M660.708 193.655 L660.708 208.447 L656.448 208.447 L656.448 204.511 Q654.99 206.873 652.814 208.007 Q650.638 209.118 647.49 209.118 Q643.509 209.118 641.148 206.896 Q638.81 204.65 638.81 200.9 Q638.81 196.525 641.726 194.303 Q644.666 192.081 650.476 192.081 L656.448 192.081 L656.448 191.664 Q656.448 188.725 654.504 187.127 Q652.583 185.507 649.087 185.507 Q646.865 185.507 644.759 186.039 Q642.652 186.572 640.708 187.637 L640.708 183.701 Q643.046 182.799 645.245 182.359 Q647.444 181.896 649.527 181.896 Q655.152 181.896 657.93 184.812 Q660.708 187.729 660.708 193.655 Z" fill="#000000" fill-rule="nonzero" fill-opacity="1" /><path clip-path="url(#clip730)" d="M673.601 204.558 L673.601 218.308 L669.319 218.308 L669.319 182.521 L673.601 182.521 L673.601 186.456 Q674.944 184.141 676.981 183.03 Q679.041 181.896 681.888 181.896 Q686.61 181.896 689.55 185.646 Q692.513 189.396 692.513 195.507 Q692.513 201.618 689.55 205.368 Q686.61 209.118 681.888 209.118 Q679.041 209.118 676.981 208.007 Q674.944 206.873 673.601 204.558 M688.092 195.507 Q688.092 190.808 686.147 188.146 Q684.226 185.461 680.846 185.461 Q677.467 185.461 675.522 188.146 Q673.601 190.808 673.601 195.507 Q673.601 200.206 675.522 202.891 Q677.467 205.553 680.846 205.553 Q684.226 205.553 686.147 202.891 Q688.092 200.206 688.092 195.507 Z" fill="#000000" fill-rule="nonzero" fill-opacity="1" /><path clip-path="url(#clip730)" d="M716.101 183.285 L716.101 187.312 Q714.295 186.387 712.351 185.924 Q710.406 185.461 708.323 185.461 Q705.152 185.461 703.555 186.433 Q701.981 187.405 701.981 189.349 Q701.981 190.831 703.115 191.687 Q704.249 192.521 707.675 193.285 L709.133 193.609 Q713.67 194.581 715.568 196.363 Q717.49 198.123 717.49 201.294 Q717.49 204.905 714.619 207.011 Q711.772 209.118 706.772 209.118 Q704.689 209.118 702.42 208.701 Q700.175 208.308 697.675 207.498 L697.675 203.099 Q700.036 204.326 702.328 204.951 Q704.619 205.553 706.865 205.553 Q709.874 205.553 711.494 204.535 Q713.115 203.493 713.115 201.618 Q713.115 199.882 711.934 198.956 Q710.777 198.03 706.819 197.174 L705.337 196.826 Q701.379 195.993 699.62 194.28 Q697.86 192.544 697.86 189.535 Q697.86 185.877 700.453 183.887 Q703.045 181.896 707.814 181.896 Q710.175 181.896 712.258 182.243 Q714.342 182.59 716.101 183.285 Z" fill="#000000" fill-rule="nonzero" fill-opacity="1" /><path clip-path="url(#clip730)" d="M746.448 194.419 L746.448 196.502 L726.865 196.502 Q727.143 200.9 729.504 203.215 Q731.888 205.507 736.124 205.507 Q738.578 205.507 740.869 204.905 Q743.184 204.303 745.453 203.099 L745.453 207.127 Q743.161 208.099 740.754 208.609 Q738.346 209.118 735.869 209.118 Q729.666 209.118 726.031 205.507 Q722.42 201.896 722.42 195.738 Q722.42 189.373 725.846 185.646 Q729.295 181.896 735.129 181.896 Q740.36 181.896 743.392 185.275 Q746.448 188.632 746.448 194.419 M742.189 193.169 Q742.142 189.674 740.221 187.59 Q738.323 185.507 735.175 185.507 Q731.61 185.507 729.457 187.521 Q727.328 189.535 727.004 193.192 L742.189 193.169 Z" fill="#000000" fill-rule="nonzero" fill-opacity="1" /></svg>
