<?xml version="1.0" encoding="utf-8"?>
<svg xmlns="http://www.w3.org/2000/svg" xmlns:xlink="http://www.w3.org/1999/xlink" width="480" height="360" viewBox="0 0 1920 1440">
<defs>
  <clipPath id="clip950">
    <rect x="0" y="0" width="1920" height="1440"/>
  </clipPath>
</defs>
<path clip-path="url(#clip950)" d="M0 1440 L1920 1440 L1920 0 L0 0  Z" fill="#ffffff" fill-rule="evenodd" fill-opacity="1"/>
<defs>
  <clipPath id="clip951">
    <rect x="384" y="0" width="1345" height="1345"/>
  </clipPath>
</defs>
<path clip-path="url(#clip950)" d="M229.381 1254.52 L1872.76 1254.52 L1872.76 47.2441 L229.381 47.2441  Z" fill="#ffffff" fill-rule="evenodd" fill-opacity="1"/>
<defs>
  <clipPath id="clip952">
    <rect x="229" y="47" width="1644" height="1208"/>
  </clipPath>
</defs>
<polyline clip-path="url(#clip952)" style="stroke:#000000; stroke-linecap:round; stroke-linejoin:round; stroke-width:2; stroke-opacity:0.1; fill:none" points="229.381,1254.52 229.381,47.2441 "/>
<polyline clip-path="url(#clip952)" style="stroke:#000000; stroke-linecap:round; stroke-linejoin:round; stroke-width:2; stroke-opacity:0.1; fill:none" points="482.208,1254.52 482.208,47.2441 "/>
<polyline clip-path="url(#clip952)" style="stroke:#000000; stroke-linecap:round; stroke-linejoin:round; stroke-width:2; stroke-opacity:0.1; fill:none" points="735.035,1254.52 735.035,47.2441 "/>
<polyline clip-path="url(#clip952)" style="stroke:#000000; stroke-linecap:round; stroke-linejoin:round; stroke-width:2; stroke-opacity:0.1; fill:none" points="987.862,1254.52 987.862,47.2441 "/>
<polyline clip-path="url(#clip952)" style="stroke:#000000; stroke-linecap:round; stroke-linejoin:round; stroke-width:2; stroke-opacity:0.1; fill:none" points="1240.69,1254.52 1240.69,47.2441 "/>
<polyline clip-path="url(#clip952)" style="stroke:#000000; stroke-linecap:round; stroke-linejoin:round; stroke-width:2; stroke-opacity:0.1; fill:none" points="1493.52,1254.52 1493.52,47.2441 "/>
<polyline clip-path="url(#clip952)" style="stroke:#000000; stroke-linecap:round; stroke-linejoin:round; stroke-width:2; stroke-opacity:0.1; fill:none" points="1746.34,1254.52 1746.34,47.2441 "/>
<polyline clip-path="url(#clip952)" style="stroke:#000000; stroke-linecap:round; stroke-linejoin:round; stroke-width:2; stroke-opacity:0.1; fill:none" points="229.381,1254.52 1872.76,1254.52 "/>
<polyline clip-path="url(#clip952)" style="stroke:#000000; stroke-linecap:round; stroke-linejoin:round; stroke-width:2; stroke-opacity:0.1; fill:none" points="229.381,986.236 1872.76,986.236 "/>
<polyline clip-path="url(#clip952)" style="stroke:#000000; stroke-linecap:round; stroke-linejoin:round; stroke-width:2; stroke-opacity:0.1; fill:none" points="229.381,717.953 1872.76,717.953 "/>
<polyline clip-path="url(#clip952)" style="stroke:#000000; stroke-linecap:round; stroke-linejoin:round; stroke-width:2; stroke-opacity:0.1; fill:none" points="229.381,449.669 1872.76,449.669 "/>
<polyline clip-path="url(#clip952)" style="stroke:#000000; stroke-linecap:round; stroke-linejoin:round; stroke-width:2; stroke-opacity:0.1; fill:none" points="229.381,181.386 1872.76,181.386 "/>
<polyline clip-path="url(#clip950)" style="stroke:#000000; stroke-linecap:round; stroke-linejoin:round; stroke-width:4; stroke-opacity:1; fill:none" points="229.381,1254.52 1872.76,1254.52 "/>
<polyline clip-path="url(#clip950)" style="stroke:#000000; stroke-linecap:round; stroke-linejoin:round; stroke-width:4; stroke-opacity:1; fill:none" points="229.381,1254.52 229.381,1235.62 "/>
<polyline clip-path="url(#clip950)" style="stroke:#000000; stroke-linecap:round; stroke-linejoin:round; stroke-width:4; stroke-opacity:1; fill:none" points="482.208,1254.52 482.208,1235.62 "/>
<polyline clip-path="url(#clip950)" style="stroke:#000000; stroke-linecap:round; stroke-linejoin:round; stroke-width:4; stroke-opacity:1; fill:none" points="735.035,1254.52 735.035,1235.62 "/>
<polyline clip-path="url(#clip950)" style="stroke:#000000; stroke-linecap:round; stroke-linejoin:round; stroke-width:4; stroke-opacity:1; fill:none" points="987.862,1254.52 987.862,1235.62 "/>
<polyline clip-path="url(#clip950)" style="stroke:#000000; stroke-linecap:round; stroke-linejoin:round; stroke-width:4; stroke-opacity:1; fill:none" points="1240.69,1254.52 1240.69,1235.62 "/>
<polyline clip-path="url(#clip950)" style="stroke:#000000; stroke-linecap:round; stroke-linejoin:round; stroke-width:4; stroke-opacity:1; fill:none" points="1493.52,1254.52 1493.52,1235.62 "/>
<polyline clip-path="url(#clip950)" style="stroke:#000000; stroke-linecap:round; stroke-linejoin:round; stroke-width:4; stroke-opacity:1; fill:none" points="1746.34,1254.52 1746.34,1235.62 "/>
<path clip-path="url(#clip950)" d="M206.765 1281.6 Q203.154 1281.6 201.326 1285.16 Q199.52 1288.7 199.52 1295.83 Q199.52 1302.94 201.326 1306.51 Q203.154 1310.05 206.765 1310.05 Q210.4 1310.05 212.205 1306.51 Q214.034 1302.94 214.034 1295.83 Q214.034 1288.7 212.205 1285.16 Q210.4 1281.6 206.765 1281.6 M206.765 1277.89 Q212.575 1277.89 215.631 1282.5 Q218.71 1287.08 218.71 1295.83 Q218.71 1304.56 215.631 1309.17 Q212.575 1313.75 206.765 1313.75 Q200.955 1313.75 197.876 1309.17 Q194.821 1304.56 194.821 1295.83 Q194.821 1287.08 197.876 1282.5 Q200.955 1277.89 206.765 1277.89 Z" fill="#000000" fill-rule="nonzero" fill-opacity="1" /><path clip-path="url(#clip950)" d="M226.927 1307.2 L231.811 1307.2 L231.811 1313.08 L226.927 1313.08 L226.927 1307.2 Z" fill="#000000" fill-rule="nonzero" fill-opacity="1" /><path clip-path="url(#clip950)" d="M251.997 1281.6 Q248.385 1281.6 246.557 1285.16 Q244.751 1288.7 244.751 1295.83 Q244.751 1302.94 246.557 1306.51 Q248.385 1310.05 251.997 1310.05 Q255.631 1310.05 257.436 1306.51 Q259.265 1302.94 259.265 1295.83 Q259.265 1288.7 257.436 1285.16 Q255.631 1281.6 251.997 1281.6 M251.997 1277.89 Q257.807 1277.89 260.862 1282.5 Q263.941 1287.08 263.941 1295.83 Q263.941 1304.56 260.862 1309.17 Q257.807 1313.75 251.997 1313.75 Q246.186 1313.75 243.108 1309.17 Q240.052 1304.56 240.052 1295.83 Q240.052 1287.08 243.108 1282.5 Q246.186 1277.89 251.997 1277.89 Z" fill="#000000" fill-rule="nonzero" fill-opacity="1" /><path clip-path="url(#clip950)" d="M460.391 1281.6 Q456.78 1281.6 454.951 1285.16 Q453.146 1288.7 453.146 1295.83 Q453.146 1302.94 454.951 1306.51 Q456.78 1310.05 460.391 1310.05 Q464.025 1310.05 465.831 1306.51 Q467.659 1302.94 467.659 1295.83 Q467.659 1288.7 465.831 1285.16 Q464.025 1281.6 460.391 1281.6 M460.391 1277.89 Q466.201 1277.89 469.257 1282.5 Q472.335 1287.08 472.335 1295.83 Q472.335 1304.56 469.257 1309.17 Q466.201 1313.75 460.391 1313.75 Q454.581 1313.75 451.502 1309.17 Q448.446 1304.56 448.446 1295.83 Q448.446 1287.08 451.502 1282.5 Q454.581 1277.89 460.391 1277.89 Z" fill="#000000" fill-rule="nonzero" fill-opacity="1" /><path clip-path="url(#clip950)" d="M480.553 1307.2 L485.437 1307.2 L485.437 1313.08 L480.553 1313.08 L480.553 1307.2 Z" fill="#000000" fill-rule="nonzero" fill-opacity="1" /><path clip-path="url(#clip950)" d="M499.65 1309.14 L515.969 1309.14 L515.969 1313.08 L494.025 1313.08 L494.025 1309.14 Q496.687 1306.39 501.27 1301.76 Q505.877 1297.11 507.057 1295.77 Q509.303 1293.24 510.182 1291.51 Q511.085 1289.75 511.085 1288.06 Q511.085 1285.3 509.141 1283.57 Q507.219 1281.83 504.117 1281.83 Q501.918 1281.83 499.465 1282.59 Q497.034 1283.36 494.256 1284.91 L494.256 1280.19 Q497.08 1279.05 499.534 1278.47 Q501.988 1277.89 504.025 1277.89 Q509.395 1277.89 512.59 1280.58 Q515.784 1283.27 515.784 1287.76 Q515.784 1289.89 514.974 1291.81 Q514.187 1293.7 512.08 1296.3 Q511.502 1296.97 508.4 1300.19 Q505.298 1303.38 499.65 1309.14 Z" fill="#000000" fill-rule="nonzero" fill-opacity="1" /><path clip-path="url(#clip950)" d="M712.176 1281.6 Q708.565 1281.6 706.736 1285.16 Q704.931 1288.7 704.931 1295.83 Q704.931 1302.94 706.736 1306.51 Q708.565 1310.05 712.176 1310.05 Q715.81 1310.05 717.616 1306.51 Q719.445 1302.94 719.445 1295.83 Q719.445 1288.7 717.616 1285.16 Q715.81 1281.6 712.176 1281.6 M712.176 1277.89 Q717.986 1277.89 721.042 1282.5 Q724.12 1287.08 724.12 1295.83 Q724.12 1304.56 721.042 1309.17 Q717.986 1313.75 712.176 1313.75 Q706.366 1313.75 703.287 1309.17 Q700.232 1304.56 700.232 1295.83 Q700.232 1287.08 703.287 1282.5 Q706.366 1277.89 712.176 1277.89 Z" fill="#000000" fill-rule="nonzero" fill-opacity="1" /><path clip-path="url(#clip950)" d="M732.338 1307.2 L737.222 1307.2 L737.222 1313.08 L732.338 1313.08 L732.338 1307.2 Z" fill="#000000" fill-rule="nonzero" fill-opacity="1" /><path clip-path="url(#clip950)" d="M760.255 1282.59 L748.449 1301.04 L760.255 1301.04 L760.255 1282.59 M759.028 1278.52 L764.907 1278.52 L764.907 1301.04 L769.838 1301.04 L769.838 1304.93 L764.907 1304.93 L764.907 1313.08 L760.255 1313.08 L760.255 1304.93 L744.653 1304.93 L744.653 1300.42 L759.028 1278.52 Z" fill="#000000" fill-rule="nonzero" fill-opacity="1" /><path clip-path="url(#clip950)" d="M965.165 1281.6 Q961.554 1281.6 959.725 1285.16 Q957.92 1288.7 957.92 1295.83 Q957.92 1302.94 959.725 1306.51 Q961.554 1310.05 965.165 1310.05 Q968.799 1310.05 970.605 1306.51 Q972.434 1302.94 972.434 1295.83 Q972.434 1288.7 970.605 1285.16 Q968.799 1281.6 965.165 1281.6 M965.165 1277.89 Q970.975 1277.89 974.031 1282.5 Q977.109 1287.08 977.109 1295.83 Q977.109 1304.56 974.031 1309.17 Q970.975 1313.75 965.165 1313.75 Q959.355 1313.75 956.276 1309.17 Q953.221 1304.56 953.221 1295.83 Q953.221 1287.08 956.276 1282.5 Q959.355 1277.89 965.165 1277.89 Z" fill="#000000" fill-rule="nonzero" fill-opacity="1" /><path clip-path="url(#clip950)" d="M985.327 1307.2 L990.211 1307.2 L990.211 1313.08 L985.327 1313.08 L985.327 1307.2 Z" fill="#000000" fill-rule="nonzero" fill-opacity="1" /><path clip-path="url(#clip950)" d="M1010.98 1293.94 Q1007.83 1293.94 1005.98 1296.09 Q1004.15 1298.24 1004.15 1301.99 Q1004.15 1305.72 1005.98 1307.89 Q1007.83 1310.05 1010.98 1310.05 Q1014.12 1310.05 1015.95 1307.89 Q1017.8 1305.72 1017.8 1301.99 Q1017.8 1298.24 1015.95 1296.09 Q1014.12 1293.94 1010.98 1293.94 M1020.26 1279.28 L1020.26 1283.54 Q1018.5 1282.71 1016.69 1282.27 Q1014.91 1281.83 1013.15 1281.83 Q1008.52 1281.83 1006.07 1284.95 Q1003.64 1288.08 1003.29 1294.4 Q1004.66 1292.39 1006.72 1291.32 Q1008.78 1290.23 1011.25 1290.23 Q1016.46 1290.23 1019.47 1293.4 Q1022.5 1296.55 1022.5 1301.99 Q1022.5 1307.32 1019.35 1310.53 Q1016.21 1313.75 1010.98 1313.75 Q1004.98 1313.75 1001.81 1309.17 Q998.637 1304.56 998.637 1295.83 Q998.637 1287.64 1002.53 1282.78 Q1006.41 1277.89 1012.97 1277.89 Q1014.72 1277.89 1016.51 1278.24 Q1018.31 1278.59 1020.26 1279.28 Z" fill="#000000" fill-rule="nonzero" fill-opacity="1" /><path clip-path="url(#clip950)" d="M1218.12 1281.6 Q1214.51 1281.6 1212.68 1285.16 Q1210.87 1288.7 1210.87 1295.83 Q1210.87 1302.94 1212.68 1306.51 Q1214.51 1310.05 1218.12 1310.05 Q1221.75 1310.05 1223.56 1306.51 Q1225.39 1302.94 1225.39 1295.83 Q1225.39 1288.7 1223.56 1285.16 Q1221.75 1281.6 1218.12 1281.6 M1218.12 1277.89 Q1223.93 1277.89 1226.98 1282.5 Q1230.06 1287.08 1230.06 1295.83 Q1230.06 1304.56 1226.98 1309.17 Q1223.93 1313.75 1218.12 1313.75 Q1212.31 1313.75 1209.23 1309.17 Q1206.17 1304.56 1206.17 1295.83 Q1206.17 1287.08 1209.23 1282.5 Q1212.31 1277.89 1218.12 1277.89 Z" fill="#000000" fill-rule="nonzero" fill-opacity="1" /><path clip-path="url(#clip950)" d="M1238.28 1307.2 L1243.17 1307.2 L1243.17 1313.08 L1238.28 1313.08 L1238.28 1307.2 Z" fill="#000000" fill-rule="nonzero" fill-opacity="1" /><path clip-path="url(#clip950)" d="M1263.35 1296.67 Q1260.02 1296.67 1258.1 1298.45 Q1256.2 1300.23 1256.2 1303.36 Q1256.2 1306.48 1258.1 1308.27 Q1260.02 1310.05 1263.35 1310.05 Q1266.68 1310.05 1268.61 1308.27 Q1270.53 1306.46 1270.53 1303.36 Q1270.53 1300.23 1268.61 1298.45 Q1266.71 1296.67 1263.35 1296.67 M1258.67 1294.68 Q1255.67 1293.94 1253.98 1291.88 Q1252.31 1289.82 1252.31 1286.85 Q1252.31 1282.71 1255.25 1280.3 Q1258.21 1277.89 1263.35 1277.89 Q1268.51 1277.89 1271.45 1280.3 Q1274.39 1282.71 1274.39 1286.85 Q1274.39 1289.82 1272.7 1291.88 Q1271.04 1293.94 1268.05 1294.68 Q1271.43 1295.46 1273.3 1297.76 Q1275.2 1300.05 1275.2 1303.36 Q1275.2 1308.38 1272.12 1311.07 Q1269.07 1313.75 1263.35 1313.75 Q1257.63 1313.75 1254.55 1311.07 Q1251.5 1308.38 1251.5 1303.36 Q1251.5 1300.05 1253.4 1297.76 Q1255.3 1295.46 1258.67 1294.68 M1256.96 1287.29 Q1256.96 1289.98 1258.63 1291.48 Q1260.32 1292.99 1263.35 1292.99 Q1266.36 1292.99 1268.05 1291.48 Q1269.76 1289.98 1269.76 1287.29 Q1269.76 1284.61 1268.05 1283.1 Q1266.36 1281.6 1263.35 1281.6 Q1260.32 1281.6 1258.63 1283.1 Q1256.96 1284.61 1256.96 1287.29 Z" fill="#000000" fill-rule="nonzero" fill-opacity="1" /><path clip-path="url(#clip950)" d="M1460.67 1309.14 L1468.31 1309.14 L1468.31 1282.78 L1460 1284.45 L1460 1280.19 L1468.26 1278.52 L1472.94 1278.52 L1472.94 1309.14 L1480.58 1309.14 L1480.58 1313.08 L1460.67 1313.08 L1460.67 1309.14 Z" fill="#000000" fill-rule="nonzero" fill-opacity="1" /><path clip-path="url(#clip950)" d="M1490.02 1307.2 L1494.9 1307.2 L1494.9 1313.08 L1490.02 1313.08 L1490.02 1307.2 Z" fill="#000000" fill-rule="nonzero" fill-opacity="1" /><path clip-path="url(#clip950)" d="M1515.09 1281.6 Q1511.48 1281.6 1509.65 1285.16 Q1507.84 1288.7 1507.84 1295.83 Q1507.84 1302.94 1509.65 1306.51 Q1511.48 1310.05 1515.09 1310.05 Q1518.72 1310.05 1520.53 1306.51 Q1522.36 1302.94 1522.36 1295.83 Q1522.36 1288.7 1520.53 1285.16 Q1518.72 1281.6 1515.09 1281.6 M1515.09 1277.89 Q1520.9 1277.89 1523.96 1282.5 Q1527.03 1287.08 1527.03 1295.83 Q1527.03 1304.56 1523.96 1309.17 Q1520.9 1313.75 1515.09 1313.75 Q1509.28 1313.75 1506.2 1309.17 Q1503.15 1304.56 1503.15 1295.83 Q1503.15 1287.08 1506.2 1282.5 Q1509.28 1277.89 1515.09 1277.89 Z" fill="#000000" fill-rule="nonzero" fill-opacity="1" /><path clip-path="url(#clip950)" d="M1714.29 1309.14 L1721.93 1309.14 L1721.93 1282.78 L1713.62 1284.45 L1713.62 1280.19 L1721.89 1278.52 L1726.56 1278.52 L1726.56 1309.14 L1734.2 1309.14 L1734.2 1313.08 L1714.29 1313.08 L1714.29 1309.14 Z" fill="#000000" fill-rule="nonzero" fill-opacity="1" /><path clip-path="url(#clip950)" d="M1743.65 1307.2 L1748.53 1307.2 L1748.53 1313.08 L1743.65 1313.08 L1743.65 1307.2 Z" fill="#000000" fill-rule="nonzero" fill-opacity="1" /><path clip-path="url(#clip950)" d="M1762.74 1309.14 L1779.06 1309.14 L1779.06 1313.08 L1757.12 1313.08 L1757.12 1309.14 Q1759.78 1306.39 1764.36 1301.76 Q1768.97 1297.11 1770.15 1295.77 Q1772.4 1293.24 1773.28 1291.51 Q1774.18 1289.75 1774.18 1288.06 Q1774.18 1285.3 1772.23 1283.57 Q1770.31 1281.83 1767.21 1281.83 Q1765.01 1281.83 1762.56 1282.59 Q1760.13 1283.36 1757.35 1284.91 L1757.35 1280.19 Q1760.17 1279.05 1762.63 1278.47 Q1765.08 1277.89 1767.12 1277.89 Q1772.49 1277.89 1775.68 1280.58 Q1778.88 1283.27 1778.88 1287.76 Q1778.88 1289.89 1778.07 1291.81 Q1777.28 1293.7 1775.17 1296.3 Q1774.59 1296.97 1771.49 1300.19 Q1768.39 1303.38 1762.74 1309.14 Z" fill="#000000" fill-rule="nonzero" fill-opacity="1" /><path clip-path="url(#clip950)" d="M1059.54 1356.05 Q1059.54 1356.95 1059.12 1357.18 Q1058.7 1357.37 1057.54 1357.37 L1051.36 1357.37 L1046.46 1376.82 Q1046.08 1378.53 1046.08 1379.98 Q1046.08 1381.59 1046.56 1382.3 Q1047.08 1383.01 1048.14 1383.01 Q1050.23 1383.01 1052.49 1381.11 Q1054.77 1379.21 1056.71 1374.57 Q1056.96 1373.96 1057.09 1373.83 Q1057.25 1373.67 1057.67 1373.67 Q1058.48 1373.67 1058.48 1374.31 Q1058.48 1374.54 1058.03 1375.57 Q1057.61 1376.6 1056.67 1378.11 Q1055.77 1379.62 1054.58 1381.04 Q1053.42 1382.46 1051.65 1383.49 Q1049.88 1384.49 1047.98 1384.49 Q1045.3 1384.49 1043.6 1382.78 Q1041.92 1381.07 1041.92 1378.4 Q1041.92 1377.53 1042.6 1374.76 Q1043.28 1371.96 1046.95 1357.37 L1041.12 1357.37 Q1040.31 1357.37 1039.99 1357.34 Q1039.7 1357.31 1039.48 1357.14 Q1039.28 1356.95 1039.28 1356.57 Q1039.28 1355.95 1039.54 1355.7 Q1039.8 1355.41 1040.12 1355.37 Q1040.47 1355.31 1041.28 1355.31 L1047.46 1355.31 L1050.04 1344.84 Q1050.3 1343.81 1050.94 1343.23 Q1051.62 1342.62 1052 1342.56 Q1052.39 1342.46 1052.68 1342.46 Q1053.55 1342.46 1054.06 1342.94 Q1054.58 1343.39 1054.58 1344.23 Q1054.58 1344.68 1051.87 1355.31 L1057.67 1355.31 Q1058.41 1355.31 1058.7 1355.34 Q1059.02 1355.37 1059.28 1355.53 Q1059.54 1355.7 1059.54 1356.05 Z" fill="#000000" fill-rule="nonzero" fill-opacity="1" /><polyline clip-path="url(#clip950)" style="stroke:#000000; stroke-linecap:round; stroke-linejoin:round; stroke-width:4; stroke-opacity:1; fill:none" points="229.381,1254.52 229.381,47.2441 "/>
<polyline clip-path="url(#clip950)" style="stroke:#000000; stroke-linecap:round; stroke-linejoin:round; stroke-width:4; stroke-opacity:1; fill:none" points="229.381,1254.52 248.279,1254.52 "/>
<polyline clip-path="url(#clip950)" style="stroke:#000000; stroke-linecap:round; stroke-linejoin:round; stroke-width:4; stroke-opacity:1; fill:none" points="229.381,986.236 248.279,986.236 "/>
<polyline clip-path="url(#clip950)" style="stroke:#000000; stroke-linecap:round; stroke-linejoin:round; stroke-width:4; stroke-opacity:1; fill:none" points="229.381,717.953 248.279,717.953 "/>
<polyline clip-path="url(#clip950)" style="stroke:#000000; stroke-linecap:round; stroke-linejoin:round; stroke-width:4; stroke-opacity:1; fill:none" points="229.381,449.669 248.279,449.669 "/>
<polyline clip-path="url(#clip950)" style="stroke:#000000; stroke-linecap:round; stroke-linejoin:round; stroke-width:4; stroke-opacity:1; fill:none" points="229.381,181.386 248.279,181.386 "/>
<path clip-path="url(#clip950)" d="M143.405 1240.32 Q139.794 1240.32 137.966 1243.88 Q136.16 1247.42 136.16 1254.55 Q136.16 1261.66 137.966 1265.23 Q139.794 1268.77 143.405 1268.77 Q147.04 1268.77 148.845 1265.23 Q150.674 1261.66 150.674 1254.55 Q150.674 1247.42 148.845 1243.88 Q147.04 1240.32 143.405 1240.32 M143.405 1236.61 Q149.215 1236.61 152.271 1241.22 Q155.35 1245.8 155.35 1254.55 Q155.35 1263.28 152.271 1267.89 Q149.215 1272.47 143.405 1272.47 Q137.595 1272.47 134.516 1267.89 Q131.461 1263.28 131.461 1254.55 Q131.461 1245.8 134.516 1241.22 Q137.595 1236.61 143.405 1236.61 Z" fill="#000000" fill-rule="nonzero" fill-opacity="1" /><path clip-path="url(#clip950)" d="M163.567 1265.92 L168.451 1265.92 L168.451 1271.8 L163.567 1271.8 L163.567 1265.92 Z" fill="#000000" fill-rule="nonzero" fill-opacity="1" /><path clip-path="url(#clip950)" d="M188.637 1240.32 Q185.025 1240.32 183.197 1243.88 Q181.391 1247.42 181.391 1254.55 Q181.391 1261.66 183.197 1265.23 Q185.025 1268.77 188.637 1268.77 Q192.271 1268.77 194.076 1265.23 Q195.905 1261.66 195.905 1254.55 Q195.905 1247.42 194.076 1243.88 Q192.271 1240.32 188.637 1240.32 M188.637 1236.61 Q194.447 1236.61 197.502 1241.22 Q200.581 1245.8 200.581 1254.55 Q200.581 1263.28 197.502 1267.89 Q194.447 1272.47 188.637 1272.47 Q182.826 1272.47 179.748 1267.89 Q176.692 1263.28 176.692 1254.55 Q176.692 1245.8 179.748 1241.22 Q182.826 1236.61 188.637 1236.61 Z" fill="#000000" fill-rule="nonzero" fill-opacity="1" /><path clip-path="url(#clip950)" d="M145.003 972.035 Q141.391 972.035 139.563 975.6 Q137.757 979.141 137.757 986.271 Q137.757 993.378 139.563 996.942 Q141.391 1000.48 145.003 1000.48 Q148.637 1000.48 150.442 996.942 Q152.271 993.378 152.271 986.271 Q152.271 979.141 150.442 975.6 Q148.637 972.035 145.003 972.035 M145.003 968.331 Q150.813 968.331 153.868 972.938 Q156.947 977.521 156.947 986.271 Q156.947 994.998 153.868 999.604 Q150.813 1004.19 145.003 1004.19 Q139.192 1004.19 136.114 999.604 Q133.058 994.998 133.058 986.271 Q133.058 977.521 136.114 972.938 Q139.192 968.331 145.003 968.331 Z" fill="#000000" fill-rule="nonzero" fill-opacity="1" /><path clip-path="url(#clip950)" d="M165.164 997.637 L170.049 997.637 L170.049 1003.52 L165.164 1003.52 L165.164 997.637 Z" fill="#000000" fill-rule="nonzero" fill-opacity="1" /><path clip-path="url(#clip950)" d="M184.262 999.581 L200.581 999.581 L200.581 1003.52 L178.637 1003.52 L178.637 999.581 Q181.299 996.827 185.882 992.197 Q190.488 987.544 191.669 986.202 Q193.914 983.678 194.794 981.942 Q195.697 980.183 195.697 978.493 Q195.697 975.739 193.752 974.003 Q191.831 972.267 188.729 972.267 Q186.53 972.267 184.076 973.03 Q181.646 973.794 178.868 975.345 L178.868 970.623 Q181.692 969.489 184.146 968.91 Q186.6 968.331 188.637 968.331 Q194.007 968.331 197.201 971.017 Q200.396 973.702 200.396 978.192 Q200.396 980.322 199.586 982.243 Q198.799 984.141 196.692 986.734 Q196.113 987.405 193.012 990.623 Q189.91 993.817 184.262 999.581 Z" fill="#000000" fill-rule="nonzero" fill-opacity="1" /><path clip-path="url(#clip950)" d="M142.919 703.752 Q139.308 703.752 137.479 707.316 Q135.674 710.858 135.674 717.988 Q135.674 725.094 137.479 728.659 Q139.308 732.2 142.919 732.2 Q146.553 732.2 148.359 728.659 Q150.188 725.094 150.188 717.988 Q150.188 710.858 148.359 707.316 Q146.553 703.752 142.919 703.752 M142.919 700.048 Q148.729 700.048 151.785 704.654 Q154.864 709.238 154.864 717.988 Q154.864 726.714 151.785 731.321 Q148.729 735.904 142.919 735.904 Q137.109 735.904 134.03 731.321 Q130.975 726.714 130.975 717.988 Q130.975 709.238 134.03 704.654 Q137.109 700.048 142.919 700.048 Z" fill="#000000" fill-rule="nonzero" fill-opacity="1" /><path clip-path="url(#clip950)" d="M163.081 729.353 L167.965 729.353 L167.965 735.233 L163.081 735.233 L163.081 729.353 Z" fill="#000000" fill-rule="nonzero" fill-opacity="1" /><path clip-path="url(#clip950)" d="M190.998 704.747 L179.192 723.196 L190.998 723.196 L190.998 704.747 M189.771 700.673 L195.65 700.673 L195.65 723.196 L200.581 723.196 L200.581 727.085 L195.65 727.085 L195.65 735.233 L190.998 735.233 L190.998 727.085 L175.396 727.085 L175.396 722.571 L189.771 700.673 Z" fill="#000000" fill-rule="nonzero" fill-opacity="1" /><path clip-path="url(#clip950)" d="M143.243 435.468 Q139.632 435.468 137.804 439.033 Q135.998 442.574 135.998 449.704 Q135.998 456.811 137.804 460.375 Q139.632 463.917 143.243 463.917 Q146.878 463.917 148.683 460.375 Q150.512 456.811 150.512 449.704 Q150.512 442.574 148.683 439.033 Q146.878 435.468 143.243 435.468 M143.243 431.764 Q149.053 431.764 152.109 436.371 Q155.188 440.954 155.188 449.704 Q155.188 458.431 152.109 463.037 Q149.053 467.621 143.243 467.621 Q137.433 467.621 134.354 463.037 Q131.299 458.431 131.299 449.704 Q131.299 440.954 134.354 436.371 Q137.433 431.764 143.243 431.764 Z" fill="#000000" fill-rule="nonzero" fill-opacity="1" /><path clip-path="url(#clip950)" d="M163.405 461.07 L168.289 461.07 L168.289 466.949 L163.405 466.949 L163.405 461.07 Z" fill="#000000" fill-rule="nonzero" fill-opacity="1" /><path clip-path="url(#clip950)" d="M189.053 447.806 Q185.905 447.806 184.053 449.959 Q182.225 452.111 182.225 455.861 Q182.225 459.588 184.053 461.764 Q185.905 463.917 189.053 463.917 Q192.201 463.917 194.03 461.764 Q195.882 459.588 195.882 455.861 Q195.882 452.111 194.03 449.959 Q192.201 447.806 189.053 447.806 M198.336 433.153 L198.336 437.412 Q196.576 436.579 194.771 436.139 Q192.988 435.7 191.229 435.7 Q186.6 435.7 184.146 438.824 Q181.715 441.949 181.368 448.269 Q182.734 446.255 184.794 445.19 Q186.854 444.102 189.331 444.102 Q194.539 444.102 197.549 447.274 Q200.581 450.422 200.581 455.861 Q200.581 461.185 197.433 464.403 Q194.285 467.621 189.053 467.621 Q183.058 467.621 179.887 463.037 Q176.715 458.431 176.715 449.704 Q176.715 441.51 180.604 436.649 Q184.493 431.764 191.044 431.764 Q192.803 431.764 194.586 432.112 Q196.391 432.459 198.336 433.153 Z" fill="#000000" fill-rule="nonzero" fill-opacity="1" /><path clip-path="url(#clip950)" d="M143.498 167.185 Q139.887 167.185 138.058 170.749 Q136.253 174.291 136.253 181.421 Q136.253 188.527 138.058 192.092 Q139.887 195.633 143.498 195.633 Q147.132 195.633 148.938 192.092 Q150.766 188.527 150.766 181.421 Q150.766 174.291 148.938 170.749 Q147.132 167.185 143.498 167.185 M143.498 163.481 Q149.308 163.481 152.364 168.087 Q155.442 172.671 155.442 181.421 Q155.442 190.147 152.364 194.754 Q149.308 199.337 143.498 199.337 Q137.688 199.337 134.609 194.754 Q131.554 190.147 131.554 181.421 Q131.554 172.671 134.609 168.087 Q137.688 163.481 143.498 163.481 Z" fill="#000000" fill-rule="nonzero" fill-opacity="1" /><path clip-path="url(#clip950)" d="M163.66 192.786 L168.544 192.786 L168.544 198.666 L163.66 198.666 L163.66 192.786 Z" fill="#000000" fill-rule="nonzero" fill-opacity="1" /><path clip-path="url(#clip950)" d="M188.729 182.254 Q185.396 182.254 183.475 184.036 Q181.576 185.819 181.576 188.944 Q181.576 192.069 183.475 193.851 Q185.396 195.633 188.729 195.633 Q192.062 195.633 193.984 193.851 Q195.905 192.046 195.905 188.944 Q195.905 185.819 193.984 184.036 Q192.086 182.254 188.729 182.254 M184.053 180.263 Q181.044 179.522 179.354 177.462 Q177.688 175.402 177.688 172.439 Q177.688 168.296 180.627 165.888 Q183.59 163.481 188.729 163.481 Q193.891 163.481 196.831 165.888 Q199.771 168.296 199.771 172.439 Q199.771 175.402 198.081 177.462 Q196.414 179.522 193.428 180.263 Q196.808 181.05 198.683 183.342 Q200.581 185.634 200.581 188.944 Q200.581 193.967 197.502 196.652 Q194.447 199.337 188.729 199.337 Q183.012 199.337 179.933 196.652 Q176.877 193.967 176.877 188.944 Q176.877 185.634 178.776 183.342 Q180.674 181.05 184.053 180.263 M182.34 172.879 Q182.34 175.564 184.007 177.069 Q185.697 178.573 188.729 178.573 Q191.738 178.573 193.428 177.069 Q195.141 175.564 195.141 172.879 Q195.141 170.194 193.428 168.689 Q191.738 167.185 188.729 167.185 Q185.697 167.185 184.007 168.689 Q182.34 170.194 182.34 172.879 Z" fill="#000000" fill-rule="nonzero" fill-opacity="1" /><path clip-path="url(#clip950)" d="M35.009 686.203 Q36.7803 686.203 37.8753 687.33 Q38.9703 688.425 38.9703 689.81 Q38.9703 690.808 38.3584 691.549 Q37.7465 692.258 36.6837 692.258 Q35.5887 692.258 34.4293 691.42 Q33.2699 690.583 33.1088 688.683 Q31.9172 689.939 31.9172 691.936 Q31.9172 692.934 32.5613 693.771 Q33.1732 694.576 34.1716 695.027 Q35.2022 695.51 41.0315 696.605 Q42.9316 696.96 44.7674 697.282 Q46.6031 697.604 48.5354 697.99 L48.5354 692.515 Q48.5354 691.807 48.5677 691.517 Q48.5999 691.227 48.7609 691.002 Q48.9219 690.744 49.2762 690.744 Q50.1779 690.744 50.4034 691.163 Q50.5966 691.549 50.5966 692.708 L50.5966 698.377 L71.4982 702.338 Q72.1101 702.435 74.0425 702.853 Q75.9426 703.24 79.0666 704.174 Q82.2228 705.108 84.0907 706.042 Q85.1535 706.557 86.1519 707.233 Q87.1825 707.877 88.2131 708.811 Q89.2437 709.745 89.8556 710.969 Q90.4997 712.193 90.4997 713.481 Q90.4997 715.671 89.2759 717.378 Q88.052 719.085 85.9587 719.085 Q84.1873 719.085 83.0923 717.99 Q81.9973 716.863 81.9973 715.478 Q81.9973 714.48 82.6092 713.771 Q83.2212 713.03 84.284 713.03 Q84.7348 713.03 85.2501 713.191 Q85.7654 713.352 86.3451 713.707 Q86.957 714.061 87.3757 714.834 Q87.7944 715.607 87.8588 716.67 Q89.0504 715.414 89.0504 713.481 Q89.0504 712.869 88.7928 712.322 Q88.5673 711.774 87.9876 711.323 Q87.4079 710.84 86.8282 710.486 Q86.2807 710.132 85.2179 709.778 Q84.1873 709.423 83.4144 709.198 Q82.6415 708.972 81.2566 708.683 Q79.8717 708.361 79.0344 708.2 Q78.2292 708.038 76.6512 707.749 L50.5966 702.821 L50.5966 707.169 Q50.5966 707.942 50.5644 708.264 Q50.5322 708.554 50.3712 708.779 Q50.1779 709.005 49.7915 709.005 Q49.1796 709.005 48.9219 708.747 Q48.6321 708.457 48.5999 708.135 Q48.5354 707.813 48.5354 707.04 L48.5354 702.467 Q40.3874 700.921 38.1974 700.309 Q35.8785 699.601 34.2682 698.506 Q32.6257 697.411 31.8528 696.187 Q31.0799 694.963 30.79 693.965 Q30.468 692.934 30.468 691.936 Q30.468 689.681 31.6918 687.942 Q32.8834 686.203 35.009 686.203 Z" fill="#000000" fill-rule="nonzero" fill-opacity="1" /><path clip-path="url(#clip950)" d="M79.108 660.591 Q79.4461 660.591 79.9421 660.839 Q80.393 661.064 80.6861 661.537 Q80.9566 661.988 80.9566 662.484 Q80.9566 662.642 80.8664 663.003 Q80.5959 663.612 79.9872 664.558 Q79.3785 665.505 78.9953 666.362 Q78.5895 667.196 78.5444 668.12 Q78.5444 668.932 78.8374 669.608 Q79.1756 670.217 79.897 670.623 Q80.1901 670.803 80.6861 670.803 Q81.3849 670.803 82.3092 670.42 Q83.2335 670.037 84.4284 669.248 Q85.6232 668.436 86.4348 667.85 Q87.2239 667.264 88.5314 666.249 Q88.6441 666.159 88.7118 666.114 Q88.7569 666.069 88.8696 666.001 Q88.9597 665.934 89.0274 665.866 Q91.7101 663.724 94.6634 663.183 Q95.7004 663.048 96.7826 663.048 Q98.9468 663.048 101.494 663.702 Q103.816 664.265 105.823 665.46 Q107.807 666.655 109.114 668.459 Q110.422 670.24 110.422 672.178 Q110.422 674.095 109.588 675.673 Q108.731 677.251 107.266 678.198 Q105.327 679.483 102.644 679.483 Q101.134 679.483 99.8486 679.122 Q97.797 678.626 95.9033 677.454 Q94.0096 676.281 92.5443 674.591 Q90.38 672.02 89.7713 669.225 Q87.2915 670.533 85.3752 671.299 Q83.4364 672.043 81.7907 672.043 Q80.3479 672.043 79.4236 671.502 Q78.4317 671.029 77.868 670.059 Q77.3721 669.248 77.1241 668.075 Q77.0339 667.354 77.0339 666.88 Q77.0339 665.28 77.9131 661.56 Q78.1386 660.591 79.108 660.591 M98.6312 666.227 Q97.256 666.227 96.3317 666.452 Q94.0773 666.88 90.9662 668.594 L90.7407 668.729 Q91.372 670.916 93.2882 672.697 Q95.6328 674.929 100.074 676.056 Q102.554 676.665 103.952 676.665 Q105.462 676.665 106.77 676.101 Q107.987 675.56 108.686 674.545 Q109.385 673.508 109.385 672.133 Q109.385 671.096 108.799 670.194 Q108.19 669.293 107.13 668.639 Q106.071 667.985 104.921 667.534 Q103.749 667.061 102.373 666.7 Q100.525 666.227 98.6312 666.227 Z" fill="#000000" fill-rule="nonzero" fill-opacity="1" /><path clip-path="url(#clip950)" d="M60.4838 653.735 Q49.3406 653.735 40.3552 649.581 Q36.5871 647.809 33.4309 645.329 Q30.2747 642.85 28.8899 641.207 Q27.505 639.565 27.505 639.114 Q27.505 638.47 28.1491 638.437 Q28.4712 638.437 29.2763 639.307 Q40.0975 649.935 60.4838 649.903 Q80.9345 649.903 91.337 639.565 Q92.4642 638.437 92.8185 638.437 Q93.4626 638.437 93.4626 639.114 Q93.4626 639.565 92.1422 641.143 Q90.8217 642.721 87.7944 645.168 Q84.767 647.616 81.0634 649.387 Q72.0779 653.735 60.4838 653.735 Z" fill="#000000" fill-rule="nonzero" fill-opacity="1" /><path clip-path="url(#clip950)" d="M49.2762 613.167 Q50.1779 613.167 50.4034 613.586 Q50.5966 614.005 50.5966 615.164 L50.5966 621.348 L70.049 626.243 Q71.7559 626.629 73.2051 626.629 Q74.8154 626.629 75.524 626.146 Q76.2325 625.631 76.2325 624.568 Q76.2325 622.475 74.3323 620.22 Q72.4322 617.934 67.7945 616.002 Q67.1826 615.744 67.0538 615.615 Q66.8928 615.454 66.8928 615.035 Q66.8928 614.23 67.5369 614.23 Q67.7623 614.23 68.7929 614.681 Q69.8235 615.1 71.3372 616.034 Q72.8509 616.935 74.2679 618.127 Q75.685 619.287 76.7156 621.058 Q77.714 622.829 77.714 624.729 Q77.714 627.402 76.007 629.109 Q74.3001 630.784 71.627 630.784 Q70.7575 630.784 67.9878 630.108 Q65.1859 629.431 50.5966 625.76 L50.5966 631.589 Q50.5966 632.394 50.5644 632.716 Q50.5322 633.006 50.3712 633.232 Q50.1779 633.425 49.7915 633.425 Q49.1796 633.425 48.9219 633.167 Q48.6321 632.91 48.5999 632.588 Q48.5354 632.233 48.5354 631.428 L48.5354 625.245 L38.0685 622.668 Q37.038 622.41 36.4582 621.766 Q35.8463 621.09 35.7819 620.704 Q35.6853 620.317 35.6853 620.027 Q35.6853 619.158 36.1684 618.642 Q36.6193 618.127 37.4566 618.127 Q37.9075 618.127 48.5354 620.832 L48.5354 615.035 Q48.5354 614.295 48.5677 614.005 Q48.5999 613.683 48.7609 613.425 Q48.9219 613.167 49.2762 613.167 Z" fill="#000000" fill-rule="nonzero" fill-opacity="1" /><path clip-path="url(#clip950)" d="M92.8185 608.005 Q92.4964 608.005 91.6913 607.168 Q80.8701 596.54 60.4838 596.54 Q40.0331 596.54 29.695 606.749 Q28.5034 608.005 28.1491 608.005 Q27.505 608.005 27.505 607.361 Q27.505 606.91 28.8255 605.332 Q30.1459 603.722 33.1732 601.306 Q36.2006 598.859 39.9043 597.055 Q48.8897 592.707 60.4838 592.707 Q71.627 592.707 80.6125 596.862 Q84.3806 598.633 87.5367 601.113 Q90.6929 603.593 92.0778 605.235 Q93.4626 606.878 93.4626 607.361 Q93.4626 608.005 92.8185 608.005 Z" fill="#000000" fill-rule="nonzero" fill-opacity="1" /><polyline clip-path="url(#clip952)" style="stroke:#009af9; stroke-linecap:round; stroke-linejoin:round; stroke-width:4; stroke-opacity:1; fill:none" points="229.381,1254.52 242.022,509.058 254.664,474.732 267.305,420.427 279.946,401.551 292.588,379.803 305.229,373.108 317.87,363.881 330.512,357.157 343.153,342.99 355.794,342.392 368.436,342.32 381.077,334.235 393.718,318.15 406.36,322.181 419.001,331.282 431.642,342.388 444.284,353.36 456.925,364.454 469.567,372.918 482.208,378.109 494.849,386.457 507.491,396.658 520.132,404.889 532.773,414.296 545.415,426.137 558.056,438.527 570.697,450.551 583.339,462.49 595.98,474.458 608.621,487.625 621.263,500.606 633.904,512.685 646.545,525.102 659.187,538.426 671.828,550.553 684.469,562.699 697.111,574.679 709.752,586.833 722.393,598.374 735.035,609.056 747.676,621.191 760.317,632.854 772.959,644.082 785.6,654.587 798.242,665.165 810.883,676.287 823.524,686.603 836.166,696.704 848.807,703.208 861.448,715.196 874.09,727.801 886.731,741.028 899.372,754.255 912.014,767.19 924.655,779.527 937.296,790.311 949.938,801.229 962.579,814.053 975.22,827.308 987.862,840.05 1000.5,852.09 1013.14,863.595 1025.79,874.756 1038.43,885.861 1051.07,896.766 1063.71,907.526 1076.35,917.499 1088.99,926.807 1101.63,936.836 1114.28,946.971 1126.92,956.977 1139.56,966.668 1152.2,976.244 1164.84,985.587 1177.48,994.719 1190.12,1003.14 1202.76,1011.18 1215.41,1019.77 1228.05,1028.25 1240.69,1036.67 1253.33,1044.63 1265.97,1052.54 1278.61,1060.14 1291.25,1067.63 1303.9,1074.82 1316.54,1081.9 1329.18,1088.6 1341.82,1095.21 1354.46,1101.53 1367.1,1107.56 1379.74,1113.45 1392.38,1119.06 1405.03,1124.17 1417.67,1129.47 1430.31,1134.03 1442.95,1138.87 1455.59,1143.28 1468.23,1147.45 1480.87,1151.95 1493.52,1156.44 1506.16,1160.71 1518.8,1164.82 1531.44,1168.8 1544.08,1172.87 1556.72,1176.72 1569.36,1180.33 1582,1183.69 1594.65,1186.78 1607.29,1189.84 1619.93,1192.78 1632.57,1195.81 1645.21,1198.85 1657.85,1201.72 1670.49,1204.39 1683.14,1206.91 1695.78,1209.3 1708.42,1211.66 1721.06,1213.9 1733.7,1216.03 1746.34,1218.1 1758.98,1220.02 1771.63,1221.83 1784.27,1223.58 1796.91,1225.19 1809.55,1226.77 1822.19,1228.19 1834.83,1229.65 1847.47,1231 1860.11,1232.28 1872.76,1233.48 1885.4,1234.66 1898.04,1235.83 1910.68,1236.96 1923.32,1238.04 1935.96,1239.05 1948.6,1240 1961.25,1240.88 1973.89,1241.73 1986.53,1242.53 1999.17,1243.28 2011.81,1244 2024.45,1244.66 2037.09,1245.28 2049.73,1245.87 2062.38,1246.42 2075.02,1246.95 2087.66,1247.44 2100.3,1247.9 2112.94,1248.33 2125.58,1248.72 2138.22,1249.1 2150.87,1249.46 2163.51,1249.79 2176.15,1250.11 2188.79,1250.4 2201.43,1250.68 2214.07,1250.94 2226.71,1251.18 2239.35,1251.41 2252,1251.62 2264.64,1251.82 2277.28,1252 2289.92,1252.18 2302.56,1252.35 2315.2,1252.5 2327.84,1252.65 2340.49,1252.79 2353.13,1252.91 2365.77,1253.03 2378.41,1253.14 2391.05,1253.24 2403.69,1253.33 2416.33,1253.42 2428.98,1253.5 2441.62,1253.58 2454.26,1253.65 2466.9,1253.71 2479.54,1253.77 2492.18,1253.83 2504.82,1253.88 2517.46,1253.93 2530.11,1253.97 2542.75,1254.01 2555.39,1254.05 2568.03,1254.09 2580.67,1254.12 2593.31,1254.15 2605.95,1254.18 2618.6,1254.2 2631.24,1254.23 2643.88,1254.25 2656.52,1254.27 2669.16,1254.29 2681.8,1254.31 2694.44,1254.32 2707.08,1254.34 2719.73,1254.35 2732.37,1254.37 2745.01,1254.38 2757.65,1254.39 "/>
<polyline clip-path="url(#clip952)" style="stroke:#e26f46; stroke-linecap:round; stroke-linejoin:round; stroke-width:4; stroke-opacity:1; fill:none" points="229.381,1254.52 242.022,1102.47 254.664,1067.29 267.305,976.457 279.946,940.581 292.588,886.154 305.229,859.653 317.87,832.517 330.512,802.198 343.153,737.543 355.794,716.967 368.436,704.639 381.077,666.42 393.718,565.65 406.36,532.583 419.001,526.74 431.642,530.194 444.284,535.533 456.925,541.803 469.567,539.7 482.208,524.321 494.849,522.57 507.491,526.572 520.132,529.106 532.773,529.498 545.415,535.136 558.056,544.405 570.697,554.577 583.339,563.474 595.98,572.827 608.621,583.28 621.263,594.241 633.904,603.801 646.545,614.058 659.187,624.327 671.828,633.453 684.469,643.314 697.111,653.005 709.752,662.828 722.393,671.883 735.035,680.966 747.676,691.446 760.317,701.448 772.959,710.929 785.6,720.172 798.242,729.675 810.883,739.105 823.524,747.025 836.166,755.266 848.807,759.508 861.448,769.701 874.09,779.63 886.731,789.759 899.372,799.876 912.014,809.448 924.655,817.132 937.296,821.407 949.938,826 962.579,835.418 975.22,845.909 987.862,855.89 1000.5,865.217 1013.14,874.611 1025.79,883.204 1038.43,891.768 1051.07,899.203 1063.71,907.149 1076.35,913.877 1088.99,919.945 1101.63,927.806 1114.28,937.55 1126.92,947.843 1139.56,957.026 1152.2,966.868 1164.84,976.228 1177.48,985.228 1190.12,993.498 1202.76,1001.34 1215.41,1009.36 1228.05,1017.44 1240.69,1025.86 1253.33,1033.83 1265.97,1041.77 1278.61,1049.52 1291.25,1057.18 1303.9,1064.55 1316.54,1071.7 1329.18,1078.36 1341.82,1084.76 1354.46,1091.14 1367.1,1096.88 1379.74,1102.66 1392.38,1108.05 1405.03,1112.87 1417.67,1118.1 1430.31,1121.91 1442.95,1126.59 1455.59,1130.6 1468.23,1134.65 1480.87,1139.31 1493.52,1144.35 1506.16,1149.16 1518.8,1153.87 1531.44,1158.63 1544.08,1163.28 1556.72,1167.81 1569.36,1172.03 1582,1176.04 1594.65,1179.76 1607.29,1183.33 1619.93,1186.65 1632.57,1190.08 1645.21,1193.51 1657.85,1196.74 1670.49,1199.79 1683.14,1202.66 1695.78,1205.38 1708.42,1208.03 1721.06,1210.54 1733.7,1212.94 1746.34,1215.23 1758.98,1217.41 1771.63,1219.45 1784.27,1221.41 1796.91,1223.25 1809.55,1225 1822.19,1226.62 1834.83,1228.22 1847.47,1229.73 1860.11,1231.15 1872.76,1232.5 1885.4,1233.77 1898.04,1235 1910.68,1236.19 1923.32,1237.31 1935.96,1238.37 1948.6,1239.36 1961.25,1240.29 1973.89,1241.17 1986.53,1242.01 1999.17,1242.8 2011.81,1243.55 2024.45,1244.24 2037.09,1244.89 2049.73,1245.51 2062.38,1246.09 2075.02,1246.63 2087.66,1247.15 2100.3,1247.62 2112.94,1248.07 2125.58,1248.49 2138.22,1248.88 2150.87,1249.25 2163.51,1249.6 2176.15,1249.93 2188.79,1250.24 2201.43,1250.53 2214.07,1250.8 2226.71,1251.05 2239.35,1251.29 2252,1251.51 2264.64,1251.71 2277.28,1251.91 2289.92,1252.1 2302.56,1252.27 2315.2,1252.43 2327.84,1252.58 2340.49,1252.72 2353.13,1252.85 2365.77,1252.97 2378.41,1253.09 2391.05,1253.19 2403.69,1253.29 2416.33,1253.38 2428.98,1253.47 2441.62,1253.54 2454.26,1253.62 2466.9,1253.68 2479.54,1253.75 2492.18,1253.8 2504.82,1253.86 2517.46,1253.91 2530.11,1253.95 2542.75,1254 2555.39,1254.04 2568.03,1254.07 2580.67,1254.11 2593.31,1254.14 2605.95,1254.17 2618.6,1254.19 2631.24,1254.22 2643.88,1254.24 2656.52,1254.26 2669.16,1254.28 2681.8,1254.3 2694.44,1254.32 2707.08,1254.33 2719.73,1254.35 2732.37,1254.36 2745.01,1254.37 2757.65,1254.38 "/>
<polyline clip-path="url(#clip952)" style="stroke:#3da44d; stroke-linecap:round; stroke-linejoin:round; stroke-width:4; stroke-opacity:1; fill:none" points="229.381,1254.52 242.022,1206.04 254.664,1197.04 267.305,1177.24 279.946,1165.84 292.588,1150.21 305.229,1138.02 317.87,1118.99 330.512,1096.67 343.153,1061.6 355.794,1056.33 368.436,1052.4 381.077,1048.91 393.718,1040.8 406.36,1038.62 419.001,1038.47 431.642,1038.51 444.284,1038.42 456.925,1038 469.567,1035.42 482.208,1028.04 494.849,1022.2 507.491,1018.87 520.132,1011.12 532.773,1006.63 545.415,1005.26 558.056,1003.55 570.697,1001.01 583.339,995.832 595.98,988.156 608.621,984.923 621.263,982.527 633.904,974.703 646.545,969.476 659.187,972.182 671.828,973.66 684.469,974.78 697.111,977.559 709.752,979.364 722.393,979.945 735.035,974.977 747.676,975.088 760.317,972.892 772.959,965.673 785.6,959.728 798.242,954.448 810.883,943.13 823.524,906.943 836.166,867.229 848.807,756.094 861.448,733.009 874.09,725.249 886.731,727.385 899.372,735.556 912.014,740.991 924.655,739.677 937.296,710.262 949.938,669.513 962.579,669.877 975.22,683.681 987.862,698.05 1000.5,711.394 1013.14,724.172 1025.79,734.712 1038.43,746.664 1051.07,758.01 1063.71,767.774 1076.35,775.489 1088.99,780.668 1101.63,787.798 1114.28,798.37 1126.92,808.25 1139.56,817.889 1152.2,829.245 1164.84,838.269 1177.48,849.275 1190.12,855.633 1202.76,863.779 1215.41,874.189 1228.05,885.832 1240.69,898.514 1253.33,910.332 1265.97,922.431 1278.61,934.926 1291.25,947.501 1303.9,959.416 1316.54,971.302 1329.18,982.182 1341.82,992.293 1354.46,1001.9 1367.1,1010.53 1379.74,1019.04 1392.38,1026.65 1405.03,1032.83 1417.67,1040.16 1430.31,1044.09 1442.95,1050.85 1455.59,1055.48 1468.23,1058.7 1480.87,1065.35 1493.52,1073.33 1506.16,1080.98 1518.8,1087.46 1531.44,1093.63 1544.08,1101.12 1556.72,1108.49 1569.36,1115.29 1582,1121.64 1594.65,1127.32 1607.29,1132.18 1619.93,1136.91 1632.57,1142.66 1645.21,1148.71 1657.85,1154.22 1670.49,1159.58 1683.14,1164.47 1695.78,1169.06 1708.42,1173.74 1721.06,1178.16 1733.7,1182.42 1746.34,1186.53 1758.98,1190.48 1771.63,1194.18 1784.27,1197.72 1796.91,1201.02 1809.55,1204.13 1822.19,1207.04 1834.83,1209.9 1847.47,1212.61 1860.11,1215.17 1872.76,1217.59 1885.4,1219.83 1898.04,1221.99 1910.68,1224.07 1923.32,1226.04 1935.96,1227.88 1948.6,1229.59 1961.25,1231.19 1973.89,1232.71 1986.53,1234.15 1999.17,1235.5 2011.81,1236.76 2024.45,1237.93 2037.09,1239.03 2049.73,1240.07 2062.38,1241.04 2075.02,1241.95 2087.66,1242.8 2100.3,1243.59 2112.94,1244.33 2125.58,1245.01 2138.22,1245.66 2150.87,1246.26 2163.51,1246.82 2176.15,1247.36 2188.79,1247.86 2201.43,1248.33 2214.07,1248.76 2226.71,1249.17 2239.35,1249.54 2252,1249.89 2264.64,1250.22 2277.28,1250.54 2289.92,1250.83 2302.56,1251.1 2315.2,1251.36 2327.84,1251.6 2340.49,1251.82 2353.13,1252.02 2365.77,1252.21 2378.41,1252.38 2391.05,1252.54 2403.69,1252.69 2416.33,1252.83 2428.98,1252.96 2441.62,1253.08 2454.26,1253.19 2466.9,1253.29 2479.54,1253.38 2492.18,1253.47 2504.82,1253.55 2517.46,1253.63 2530.11,1253.69 2542.75,1253.76 2555.39,1253.82 2568.03,1253.87 2580.67,1253.92 2593.31,1253.97 2605.95,1254.01 2618.6,1254.05 2631.24,1254.09 2643.88,1254.12 2656.52,1254.15 2669.16,1254.18 2681.8,1254.21 2694.44,1254.23 2707.08,1254.25 2719.73,1254.27 2732.37,1254.29 2745.01,1254.31 2757.65,1254.33 "/>
<polyline clip-path="url(#clip952)" style="stroke:#009af9; stroke-linecap:round; stroke-linejoin:round; stroke-width:4; stroke-opacity:1; fill:none" stroke-dasharray="16, 10" points="229.381,1254.52 242.022,616.645 254.664,526.552 267.305,471.049 279.946,431.668 292.588,402.037 305.229,379.121 317.87,361.205 330.512,347.216 343.153,336.427 355.794,328.319 368.436,322.507 381.077,318.693 393.718,316.64 406.36,316.156 419.001,317.082 431.642,319.282 444.284,322.64 456.925,327.057 469.567,332.442 482.208,338.716 494.849,345.809 507.491,353.655 520.132,362.196 532.773,371.376 545.415,381.145 558.056,391.457 570.697,402.266 583.339,413.533 595.98,425.218 608.621,437.284 621.263,449.696 633.904,462.421 646.545,475.428 659.187,488.687 671.828,502.168 684.469,515.845 697.111,529.692 709.752,543.682 722.393,557.793 735.035,572.002 747.676,586.286 760.317,600.624 772.959,614.997 785.6,629.385 798.242,643.77 810.883,658.134 823.524,672.461 836.166,686.736 848.807,700.942 861.448,715.066 874.09,729.094 886.731,743.013 899.372,756.811 912.014,770.477 924.655,784 937.296,797.37 949.938,810.577 962.579,823.613 975.22,836.469 987.862,849.139 1000.5,861.614 1013.14,873.889 1025.79,885.958 1038.43,897.815 1051.07,909.456 1063.71,920.877 1076.35,932.074 1088.99,943.043 1101.63,953.783 1114.28,964.29 1126.92,974.563 1139.56,984.6 1152.2,994.401 1164.84,1003.97 1177.48,1013.29 1190.12,1022.38 1202.76,1031.23 1215.41,1039.85 1228.05,1048.23 1240.69,1056.38 1253.33,1064.29 1265.97,1071.98 1278.61,1079.43 1291.25,1086.67 1303.9,1093.68 1316.54,1100.47 1329.18,1107.04 1341.82,1113.4 1354.46,1119.55 1367.1,1125.49 1379.74,1131.23 1392.38,1136.77 1405.03,1142.11 1417.67,1147.26 1430.31,1152.22 1442.95,1157.01 1455.59,1161.61 1468.23,1166.03 1480.87,1170.29 1493.52,1174.38 1506.16,1178.3 1518.8,1182.07 1531.44,1185.69 1544.08,1189.15 1556.72,1192.48 1569.36,1195.66 1582,1198.7 1594.65,1201.61 1607.29,1204.4 1619.93,1207.06 1632.57,1209.6 1645.21,1212.02 1657.85,1214.34 1670.49,1216.54 1683.14,1218.65 1695.78,1220.65 1708.42,1222.55 1721.06,1224.37 1733.7,1226.09 1746.34,1227.73 1758.98,1229.29 1771.63,1230.76 1784.27,1232.17 1796.91,1233.49 1809.55,1234.75 1822.19,1235.95 1834.83,1237.08 1847.47,1238.15 1860.11,1239.16 1872.76,1240.11 1885.4,1241.02 1898.04,1241.87 1910.68,1242.67 1923.32,1243.43 1935.96,1244.15 1948.6,1244.82 1961.25,1245.46 1973.89,1246.05 1986.53,1246.62 1999.17,1247.14 2011.81,1247.64 2024.45,1248.11 2037.09,1248.54 2049.73,1248.96 2062.38,1249.34 2075.02,1249.7 2087.66,1250.04 2100.3,1250.35 2112.94,1250.65 2125.58,1250.93 2138.22,1251.19 2150.87,1251.43 2163.51,1251.65 2176.15,1251.86 2188.79,1252.06 2201.43,1252.24 2214.07,1252.41 2226.71,1252.57 2239.35,1252.72 2252,1252.86 2264.64,1252.98 2277.28,1253.1 2289.92,1253.21 2302.56,1253.31 2315.2,1253.41 2327.84,1253.5 2340.49,1253.58 2353.13,1253.65 2365.77,1253.72 2378.41,1253.79 2391.05,1253.85 2403.69,1253.9 2416.33,1253.95 2428.98,1254 2441.62,1254.04 2454.26,1254.08 2466.9,1254.12 2479.54,1254.15 2492.18,1254.18 2504.82,1254.21 2517.46,1254.24 2530.11,1254.26 2542.75,1254.29 2555.39,1254.31 2568.03,1254.33 2580.67,1254.34 2593.31,1254.36 2605.95,1254.37 2618.6,1254.39 2631.24,1254.4 2643.88,1254.41 2656.52,1254.42 2669.16,1254.43 2681.8,1254.44 2694.44,1254.44 2707.08,1254.45 2719.73,1254.46 2732.37,1254.46 2745.01,1254.47 2757.65,1254.47 "/>
<polyline clip-path="url(#clip952)" style="stroke:#e26f46; stroke-linecap:round; stroke-linejoin:round; stroke-width:4; stroke-opacity:1; fill:none" stroke-dasharray="16, 10" points="229.381,1254.52 242.022,1119.72 254.664,1051.54 267.305,997.593 279.946,951.77 292.588,911.584 305.229,875.724 317.87,843.387 330.512,814.039 343.153,787.299 355.794,762.884 368.436,740.574 381.077,720.193 393.718,701.599 406.36,684.669 419.001,669.301 431.642,655.406 444.284,642.905 456.925,631.726 469.567,621.805 482.208,613.084 494.849,605.509 507.491,599.028 520.132,593.594 532.773,589.163 545.415,585.69 558.056,583.136 570.697,581.461 583.339,580.627 595.98,580.596 608.621,581.334 621.263,582.806 633.904,584.978 646.545,587.816 659.187,591.289 671.828,595.366 684.469,600.015 697.111,605.206 709.752,610.91 722.393,617.098 735.035,623.741 747.676,630.812 760.317,638.284 772.959,646.129 785.6,654.323 798.242,662.839 810.883,671.653 823.524,680.741 836.166,690.079 848.807,699.644 861.448,709.414 874.09,719.366 886.731,729.481 899.372,739.737 912.014,750.114 924.655,760.594 937.296,771.158 949.938,781.787 962.579,792.465 975.22,803.175 987.862,813.901 1000.5,824.628 1013.14,835.341 1025.79,846.026 1038.43,856.67 1051.07,867.259 1063.71,877.783 1076.35,888.229 1088.99,898.587 1101.63,908.847 1114.28,918.999 1126.92,929.033 1139.56,938.943 1152.2,948.719 1164.84,958.355 1177.48,967.843 1190.12,977.179 1202.76,986.356 1215.41,995.37 1228.05,1004.21 1240.69,1012.89 1253.33,1021.39 1265.97,1029.7 1278.61,1037.84 1291.25,1045.79 1303.9,1053.56 1316.54,1061.14 1329.18,1068.53 1341.82,1075.74 1354.46,1082.75 1367.1,1089.58 1379.74,1096.21 1392.38,1102.66 1405.03,1108.93 1417.67,1115 1430.31,1120.9 1442.95,1126.61 1455.59,1132.14 1468.23,1137.49 1480.87,1142.66 1493.52,1147.66 1506.16,1152.49 1518.8,1157.16 1531.44,1161.65 1544.08,1165.99 1556.72,1170.16 1569.36,1174.18 1582,1178.05 1594.65,1181.77 1607.29,1185.35 1619.93,1188.78 1632.57,1192.07 1645.21,1195.23 1657.85,1198.26 1670.49,1201.16 1683.14,1203.94 1695.78,1206.59 1708.42,1209.14 1721.06,1211.56 1733.7,1213.88 1746.34,1216.1 1758.98,1218.21 1771.63,1220.22 1784.27,1222.14 1796.91,1223.97 1809.55,1225.71 1822.19,1227.36 1834.83,1228.93 1847.47,1230.42 1860.11,1231.84 1872.76,1233.19 1885.4,1234.46 1898.04,1235.67 1910.68,1236.82 1923.32,1237.9 1935.96,1238.93 1948.6,1239.9 1961.25,1240.82 1973.89,1241.68 1986.53,1242.5 1999.17,1243.27 2011.81,1244 2024.45,1244.68 2037.09,1245.33 2049.73,1245.94 2062.38,1246.51 2075.02,1247.04 2087.66,1247.55 2100.3,1248.02 2112.94,1248.47 2125.58,1248.89 2138.22,1249.28 2150.87,1249.64 2163.51,1249.99 2176.15,1250.31 2188.79,1250.61 2201.43,1250.89 2214.07,1251.15 2226.71,1251.4 2239.35,1251.63 2252,1251.84 2264.64,1252.04 2277.28,1252.23 2289.92,1252.4 2302.56,1252.56 2315.2,1252.71 2327.84,1252.85 2340.49,1252.98 2353.13,1253.1 2365.77,1253.21 2378.41,1253.31 2391.05,1253.41 2403.69,1253.5 2416.33,1253.58 2428.98,1253.65 2441.62,1253.72 2454.26,1253.79 2466.9,1253.85 2479.54,1253.9 2492.18,1253.96 2504.82,1254 2517.46,1254.05 2530.11,1254.09 2542.75,1254.12 2555.39,1254.16 2568.03,1254.19 2580.67,1254.22 2593.31,1254.24 2605.95,1254.27 2618.6,1254.29 2631.24,1254.31 2643.88,1254.33 2656.52,1254.35 2669.16,1254.36 2681.8,1254.38 2694.44,1254.39 2707.08,1254.4 2719.73,1254.41 2732.37,1254.42 2745.01,1254.43 2757.65,1254.44 "/>
<polyline clip-path="url(#clip952)" style="stroke:#3da44d; stroke-linecap:round; stroke-linejoin:round; stroke-width:4; stroke-opacity:1; fill:none" stroke-dasharray="16, 10" points="229.381,1254.52 242.022,1249.44 254.664,1241.2 267.305,1231.21 279.946,1219.94 292.588,1207.69 305.229,1194.68 317.87,1181.04 330.512,1166.92 343.153,1152.42 355.794,1137.64 368.436,1122.66 381.077,1107.54 393.718,1092.37 406.36,1077.2 419.001,1062.09 431.642,1047.08 444.284,1032.23 456.925,1017.57 469.567,1003.16 482.208,989.018 494.849,975.189 507.491,961.703 520.132,948.587 532.773,935.869 545.415,923.573 558.056,911.72 570.697,900.331 583.339,889.422 595.98,879.011 608.621,869.11 621.263,859.731 633.904,850.884 646.545,842.579 659.187,834.82 671.828,827.614 684.469,820.963 697.111,814.87 709.752,809.335 722.393,804.357 735.035,799.934 747.676,796.062 760.317,792.737 772.959,789.953 785.6,787.702 798.242,785.978 810.883,784.77 823.524,784.069 836.166,783.865 848.807,784.145 861.448,784.898 874.09,786.11 886.731,787.769 899.372,789.859 912.014,792.367 924.655,795.276 937.296,798.573 949.938,802.24 962.579,806.263 975.22,810.624 987.862,815.307 1000.5,820.295 1013.14,825.573 1025.79,831.121 1038.43,836.925 1051.07,842.968 1063.71,849.231 1076.35,855.7 1088.99,862.358 1101.63,869.187 1114.28,876.173 1126.92,883.3 1139.56,890.552 1152.2,897.914 1164.84,905.371 1177.48,912.909 1190.12,920.513 1202.76,928.17 1215.41,935.867 1228.05,943.59 1240.69,951.328 1253.33,959.068 1265.97,966.8 1278.61,974.511 1291.25,982.191 1303.9,989.831 1316.54,997.421 1329.18,1004.95 1341.82,1012.41 1354.46,1019.8 1367.1,1027.11 1379.74,1034.32 1392.38,1041.44 1405.03,1048.45 1417.67,1055.35 1430.31,1062.14 1442.95,1068.81 1455.59,1075.36 1468.23,1081.79 1480.87,1088.08 1493.52,1094.24 1506.16,1100.26 1518.8,1106.14 1531.44,1111.89 1544.08,1117.49 1556.72,1122.95 1569.36,1128.27 1582,1133.44 1594.65,1138.47 1607.29,1143.35 1619.93,1148.09 1632.57,1152.69 1645.21,1157.15 1657.85,1161.46 1670.49,1165.63 1683.14,1169.67 1695.78,1173.57 1708.42,1177.33 1721.06,1180.96 1733.7,1184.46 1746.34,1187.84 1758.98,1191.08 1771.63,1194.2 1784.27,1197.2 1796.91,1200.09 1809.55,1202.85 1822.19,1205.51 1834.83,1208.05 1847.47,1210.48 1860.11,1212.82 1872.76,1215.05 1885.4,1217.18 1898.04,1219.22 1910.68,1221.16 1923.32,1223.02 1935.96,1224.79 1948.6,1226.47 1961.25,1228.08 1973.89,1229.6 1986.53,1231.05 1999.17,1232.43 2011.81,1233.74 2024.45,1234.99 2037.09,1236.16 2049.73,1237.28 2062.38,1238.34 2075.02,1239.34 2087.66,1240.29 2100.3,1241.19 2112.94,1242.03 2125.58,1242.83 2138.22,1243.59 2150.87,1244.3 2163.51,1244.97 2176.15,1245.6 2188.79,1246.19 2201.43,1246.75 2214.07,1247.28 2226.71,1247.77 2239.35,1248.23 2252,1248.67 2264.64,1249.08 2277.28,1249.46 2289.92,1249.82 2302.56,1250.15 2315.2,1250.47 2327.84,1250.76 2340.49,1251.03 2353.13,1251.29 2365.77,1251.53 2378.41,1251.75 2391.05,1251.96 2403.69,1252.15 2416.33,1252.33 2428.98,1252.5 2441.62,1252.65 2454.26,1252.8 2466.9,1252.93 2479.54,1253.06 2492.18,1253.17 2504.82,1253.28 2517.46,1253.38 2530.11,1253.47 2542.75,1253.56 2555.39,1253.63 2568.03,1253.71 2580.67,1253.77 2593.31,1253.84 2605.95,1253.89 2618.6,1253.95 2631.24,1253.99 2643.88,1254.04 2656.52,1254.08 2669.16,1254.12 2681.8,1254.15 2694.44,1254.19 2707.08,1254.21 2719.73,1254.24 2732.37,1254.27 2745.01,1254.29 2757.65,1254.31 "/>
<path clip-path="url(#clip952)" d="M229.381 1254.52 L242.022 1000.77 L254.664 933.037 L267.305 808.835 L279.946 748.531 L292.588 710.979 L305.229 698.971 L317.87 675.361 L330.512 664.709 L343.153 629.036 L355.794 606.509 L368.436 603.547 L381.077 582.143 L393.718 548.493 L406.36 542.933 L419.001 547.996 L431.642 547.659 L444.284 547.781 L456.925 555.18 L469.567 555.58 L482.208 553.317 L494.849 555.911 L507.491 559.122 L520.132 562.351 L532.773 567.046 L545.415 575.988 L558.056 585.12 L570.697 591.221 L583.339 600.788 L595.98 608.435 L608.621 618.467 L621.263 625.219 L633.904 635.322 L646.545 646.739 L659.187 658.058 L671.828 667.747 L684.469 674.849 L697.111 685.66 L709.752 696.103 L722.393 705.886 L735.035 714.248 L747.676 724.194 L760.317 734.923 L772.959 744.808 L785.6 752.769 L798.242 763.903 L810.883 772.956 L823.524 780.821 L836.166 790.532 L848.807 798.875 L861.448 810.884 L874.09 820.946 L886.731 832.311 L899.372 843.74 L912.014 855.731 L924.655 865.727 L937.296 877.252 L949.938 886.509 L962.579 898.101 L975.22 908.674 L987.862 919.178 L1000.5 930.012 L1013.14 940.158 L1025.79 950.733 L1038.43 960.662 L1051.07 969.702 L1063.71 978.881 L1076.35 988.821 L1088.99 997.615 L1101.63 1006.85 L1114.28 1016.21 L1126.92 1024.65 L1139.56 1033.51 L1152.2 1040.1 L1164.84 1047.99 L1177.48 1057.19 L1190.12 1064.69 L1202.76 1071.63 L1215.41 1078.81 L1228.05 1086.41 L1240.69 1093.01 L1253.33 1099.51 L1265.97 1105.95 L1278.61 1112.03 L1291.25 1117.77 L1303.9 1123.61 L1316.54 1129.77 L1329.18 1134.76 L1341.82 1140.16 L1354.46 1146.12 L1367.1 1150.7 L1379.74 1155.69 L1392.38 1160.45 L1405.03 1164.75 L1417.67 1168.91 L1430.31 1173.04 L1442.95 1176.87 L1455.59 1180.22 L1468.23 1184.62 L1480.87 1188.67 L1493.52 1191.88 L1506.16 1195.65 L1518.8 1198.54 L1531.44 1201.28 L1544.08 1204.52 L1556.72 1207.01 L1569.36 1209.69 L1582 1212.34 L1594.65 1214.87 L1607.29 1217.2 L1619.93 1219.07 L1632.57 1221.56 L1645.21 1223.6 L1657.85 1225.47 L1670.49 1227.52 L1683.14 1229.18 L1695.78 1230.8 L1708.42 1232.49 L1721.06 1234.01 L1733.7 1235.38 L1746.34 1236.71 L1758.98 1238.1 L1771.63 1239.34 L1784.27 1240.37 L1796.91 1241.46 L1809.55 1242.46 L1822.19 1243.36 L1834.83 1244.1 L1847.47 1244.89 L1860.11 1245.55 L1872.76 1246.19 L1885.4 1246.84 L1898.04 1247.43 L1910.68 1248.07 L1923.32 1248.6 L1935.96 1249.09 L1948.6 1249.5 L1961.25 1249.99 L1973.89 1250.41 L1986.53 1250.78 L1999.17 1251.1 L2011.81 1251.43 L2024.45 1251.74 L2037.09 1252.01 L2049.73 1252.24 L2062.38 1252.48 L2075.02 1252.69 L2087.66 1252.85 L2100.3 1253.01 L2112.94 1253.14 L2125.58 1253.28 L2138.22 1253.42 L2150.87 1253.53 L2163.51 1253.65 L2176.15 1253.75 L2188.79 1253.84 L2201.43 1253.91 L2214.07 1253.97 L2226.71 1254.04 L2239.35 1254.11 L2252 1254.17 L2264.64 1254.22 L2277.28 1254.26 L2289.92 1254.3 L2302.56 1254.33 L2315.2 1254.36 L2327.84 1254.38 L2340.49 1254.4 L2353.13 1254.42 L2365.77 1254.43 L2378.41 1254.44 L2391.05 1254.45 L2403.69 1254.46 L2416.33 1254.47 L2428.98 1254.47 L2441.62 1254.48 L2454.26 1254.49 L2466.9 1254.49 L2479.54 1254.5 L2492.18 1254.5 L2504.82 1254.5 L2517.46 1254.51 L2530.11 1254.51 L2542.75 1254.51 L2555.39 1254.51 L2568.03 1254.51 L2580.67 1254.52 L2593.31 1254.52 L2605.95 1254.52 L2618.6 1254.52 L2631.24 1254.52 L2643.88 1254.52 L2656.52 1254.52 L2669.16 1254.52 L2681.8 1254.52 L2694.44 1254.52 L2707.08 1254.52 L2719.73 1254.52 L2732.37 1254.52 L2745.01 1254.52 L2757.65 1254.52 L2757.65 1253.71 L2745.01 1253.65 L2732.37 1253.58 L2719.73 1253.51 L2707.08 1253.44 L2694.44 1253.38 L2681.8 1253.3 L2669.16 1253.2 L2656.52 1253.12 L2643.88 1253.03 L2631.24 1252.93 L2618.6 1252.81 L2605.95 1252.72 L2593.31 1252.63 L2580.67 1252.58 L2568.03 1252.45 L2555.39 1252.33 L2542.75 1252.17 L2530.11 1251.99 L2517.46 1251.86 L2504.82 1251.74 L2492.18 1251.58 L2479.54 1251.39 L2466.9 1251.16 L2454.26 1250.95 L2441.62 1250.82 L2428.98 1250.49 L2416.33 1250.27 L2403.69 1249.99 L2391.05 1249.75 L2378.41 1249.46 L2365.77 1249.06 L2353.13 1248.73 L2340.49 1248.56 L2327.84 1248.17 L2315.2 1247.72 L2302.56 1247.36 L2289.92 1247.09 L2277.28 1246.65 L2264.64 1246.19 L2252 1245.73 L2239.35 1245.3 L2226.71 1244.81 L2214.07 1244.24 L2201.43 1243.28 L2188.79 1242.75 L2176.15 1242.13 L2163.51 1241.55 L2150.87 1241.11 L2138.22 1240.67 L2125.58 1240.09 L2112.94 1238.89 L2100.3 1238.06 L2087.66 1237.16 L2075.02 1236.06 L2062.38 1234.79 L2049.73 1233.69 L2037.09 1232.24 L2024.45 1231.32 L2011.81 1230.33 L1999.17 1228.71 L1986.53 1227.65 L1973.89 1225.85 L1961.25 1224.06 L1948.6 1222.52 L1935.96 1220.37 L1923.32 1219.14 L1910.68 1218.95 L1898.04 1217.11 L1885.4 1214.74 L1872.76 1212.31 L1860.11 1209.86 L1847.47 1208.01 L1834.83 1206.76 L1822.19 1204.12 L1809.55 1201.98 L1796.91 1199.91 L1784.27 1197.71 L1771.63 1196.04 L1758.98 1192.58 L1746.34 1190.52 L1733.7 1187.19 L1721.06 1182.95 L1708.42 1179.66 L1695.78 1175.42 L1683.14 1171.56 L1670.49 1167.8 L1657.85 1164.12 L1645.21 1160.02 L1632.57 1154.2 L1619.93 1150.02 L1607.29 1145.31 L1594.65 1141.16 L1582 1137.57 L1569.36 1134.01 L1556.72 1129.93 L1544.08 1125.18 L1531.44 1119.26 L1518.8 1112.73 L1506.16 1107.83 L1493.52 1102 L1480.87 1094.88 L1468.23 1088.57 L1455.59 1083.65 L1442.95 1081.62 L1430.31 1074.22 L1417.67 1068.36 L1405.03 1061.41 L1392.38 1057.4 L1379.74 1052.29 L1367.1 1045.81 L1354.46 1037.98 L1341.82 1030.15 L1329.18 1022.26 L1316.54 1016.48 L1303.9 1006.94 L1291.25 996.746 L1278.61 986.236 L1265.97 977.653 L1253.33 968.023 L1240.69 955.805 L1228.05 943.149 L1215.41 932.493 L1202.76 920.437 L1190.12 911.693 L1177.48 904.011 L1164.84 890.612 L1152.2 875.791 L1139.56 865.359 L1126.92 857.584 L1114.28 846.818 L1101.63 831.88 L1088.99 823.434 L1076.35 811.681 L1063.71 800.885 L1051.07 788.764 L1038.43 775.884 L1025.79 761.663 L1013.14 750.619 L1000.5 739.309 L987.862 729.452 L975.22 711.835 L962.579 697.485 L949.938 682.813 L937.296 674.146 L924.655 667.259 L912.014 655.499 L899.372 640.872 L886.731 625.803 L874.09 610.641 L861.448 599.13 L848.807 582.024 L836.166 571.652 L823.524 558.496 L810.883 547.904 L798.242 532.994 L785.6 528.382 L772.959 512.245 L760.317 496.599 L747.676 484.488 L735.035 470.139 L722.393 462.897 L709.752 445.87 L697.111 435.023 L684.469 416.657 L671.828 399.98 L659.187 387.841 L646.545 371.381 L633.904 358.194 L621.263 345.474 L608.621 326.36 L595.98 310.056 L583.339 293.231 L570.697 276.571 L558.056 260.973 L545.415 243.122 L532.773 224.403 L520.132 209.618 L507.491 198.899 L494.849 186.547 L482.208 180.934 L469.567 168.693 L456.925 158.882 L444.284 149.581 L431.642 136.912 L419.001 115.108 L406.36 95.8101 L393.718 84.8291 L381.077 91.457 L368.436 99.5465 L355.794 93.9583 L343.153 84.5865 L330.512 88.1871 L317.87 81.2389 L305.229 87.628 L292.588 77.2893 L279.946 74.7305 L267.305 77.6042 L254.664 95.0684 L242.022 104.235 L229.381 1254.52  Z" fill="#009af9" fill-rule="evenodd" fill-opacity="0.3"/>
<polyline clip-path="url(#clip952)" style="stroke:#009af9; stroke-linecap:round; stroke-linejoin:round; stroke-width:4; stroke-opacity:0; fill:none" points="229.381,1254.52 242.022,1000.77 254.664,933.037 267.305,808.835 279.946,748.531 292.588,710.979 305.229,698.971 317.87,675.361 330.512,664.709 343.153,629.036 355.794,606.509 368.436,603.547 381.077,582.143 393.718,548.493 406.36,542.933 419.001,547.996 431.642,547.659 444.284,547.781 456.925,555.18 469.567,555.58 482.208,553.317 494.849,555.911 507.491,559.122 520.132,562.351 532.773,567.046 545.415,575.988 558.056,585.12 570.697,591.221 583.339,600.788 595.98,608.435 608.621,618.467 621.263,625.219 633.904,635.322 646.545,646.739 659.187,658.058 671.828,667.747 684.469,674.849 697.111,685.66 709.752,696.103 722.393,705.886 735.035,714.248 747.676,724.194 760.317,734.923 772.959,744.808 785.6,752.769 798.242,763.903 810.883,772.956 823.524,780.821 836.166,790.532 848.807,798.875 861.448,810.884 874.09,820.946 886.731,832.311 899.372,843.74 912.014,855.731 924.655,865.727 937.296,877.252 949.938,886.509 962.579,898.101 975.22,908.674 987.862,919.178 1000.5,930.012 1013.14,940.158 1025.79,950.733 1038.43,960.662 1051.07,969.702 1063.71,978.881 1076.35,988.821 1088.99,997.615 1101.63,1006.85 1114.28,1016.21 1126.92,1024.65 1139.56,1033.51 1152.2,1040.1 1164.84,1047.99 1177.48,1057.19 1190.12,1064.69 1202.76,1071.63 1215.41,1078.81 1228.05,1086.41 1240.69,1093.01 1253.33,1099.51 1265.97,1105.95 1278.61,1112.03 1291.25,1117.77 1303.9,1123.61 1316.54,1129.77 1329.18,1134.76 1341.82,1140.16 1354.46,1146.12 1367.1,1150.7 1379.74,1155.69 1392.38,1160.45 1405.03,1164.75 1417.67,1168.91 1430.31,1173.04 1442.95,1176.87 1455.59,1180.22 1468.23,1184.62 1480.87,1188.67 1493.52,1191.88 1506.16,1195.65 1518.8,1198.54 1531.44,1201.28 1544.08,1204.52 1556.72,1207.01 1569.36,1209.69 1582,1212.34 1594.65,1214.87 1607.29,1217.2 1619.93,1219.07 1632.57,1221.56 1645.21,1223.6 1657.85,1225.47 1670.49,1227.52 1683.14,1229.18 1695.78,1230.8 1708.42,1232.49 1721.06,1234.01 1733.7,1235.38 1746.34,1236.71 1758.98,1238.1 1771.63,1239.34 1784.27,1240.37 1796.91,1241.46 1809.55,1242.46 1822.19,1243.36 1834.83,1244.1 1847.47,1244.89 1860.11,1245.55 1872.76,1246.19 1885.4,1246.84 1898.04,1247.43 1910.68,1248.07 1923.32,1248.6 1935.96,1249.09 1948.6,1249.5 1961.25,1249.99 1973.89,1250.41 1986.53,1250.78 1999.17,1251.1 2011.81,1251.43 2024.45,1251.74 2037.09,1252.01 2049.73,1252.24 2062.38,1252.48 2075.02,1252.69 2087.66,1252.85 2100.3,1253.01 2112.94,1253.14 2125.58,1253.28 2138.22,1253.42 2150.87,1253.53 2163.51,1253.65 2176.15,1253.75 2188.79,1253.84 2201.43,1253.91 2214.07,1253.97 2226.71,1254.04 2239.35,1254.11 2252,1254.17 2264.64,1254.22 2277.28,1254.26 2289.92,1254.3 2302.56,1254.33 2315.2,1254.36 2327.84,1254.38 2340.49,1254.4 2353.13,1254.42 2365.77,1254.43 2378.41,1254.44 2391.05,1254.45 2403.69,1254.46 2416.33,1254.47 2428.98,1254.47 2441.62,1254.48 2454.26,1254.49 2466.9,1254.49 2479.54,1254.5 2492.18,1254.5 2504.82,1254.5 2517.46,1254.51 2530.11,1254.51 2542.75,1254.51 2555.39,1254.51 2568.03,1254.51 2580.67,1254.52 2593.31,1254.52 2605.95,1254.52 2618.6,1254.52 2631.24,1254.52 2643.88,1254.52 2656.52,1254.52 2669.16,1254.52 2681.8,1254.52 2694.44,1254.52 2707.08,1254.52 2719.73,1254.52 2732.37,1254.52 2745.01,1254.52 2757.65,1254.52 "/>
<path clip-path="url(#clip952)" d="M229.381 1254.52 L242.022 1254.52 L254.664 1254.52 L267.305 1242.6 L279.946 1217.71 L292.588 1167.52 L305.229 1147.46 L317.87 1126.13 L330.512 1117.59 L343.153 1078.9 L355.794 1058.65 L368.436 1052.01 L381.077 1043.3 L393.718 950.706 L406.36 874.157 L419.001 840.051 L431.642 841.939 L444.284 840.243 L456.925 846.19 L469.567 832.658 L482.208 781.871 L494.849 753.249 L507.491 749.591 L520.132 744.746 L532.773 723.774 L545.415 721.496 L558.056 726.665 L570.697 734.624 L583.339 735.947 L595.98 740.149 L608.621 742.255 L621.263 751.287 L633.904 757.512 L646.545 764.407 L659.187 768.914 L671.828 775.16 L684.469 782.016 L697.111 787.233 L709.752 792.101 L722.393 799.647 L735.035 808.01 L747.676 815.567 L760.317 824.54 L772.959 829.586 L785.6 836.228 L798.242 844.298 L810.883 852.168 L823.524 859.251 L836.166 864.153 L848.807 867.865 L861.448 875.398 L874.09 883.342 L886.731 892.606 L899.372 901.852 L912.014 910.391 L924.655 915.054 L937.296 922.441 L949.938 929.308 L962.579 938.065 L975.22 946.142 L987.862 955.23 L1000.5 962.728 L1013.14 970.974 L1025.79 979.413 L1038.43 985.875 L1051.07 993.918 L1063.71 1002.09 L1076.35 1010.35 L1088.99 1017.03 L1101.63 1023.32 L1114.28 1031.56 L1126.92 1039.73 L1139.56 1046.62 L1152.2 1052.2 L1164.84 1059.9 L1177.48 1066.6 L1190.12 1073.35 L1202.76 1078.81 L1215.41 1084.89 L1228.05 1091.29 L1240.69 1096.43 L1253.33 1102.71 L1265.97 1107.69 L1278.61 1113.53 L1291.25 1119.16 L1303.9 1124.87 L1316.54 1129.92 L1329.18 1135.54 L1341.82 1140.7 L1354.46 1145.53 L1367.1 1149.38 L1379.74 1153.62 L1392.38 1158.23 L1405.03 1162.94 L1417.67 1166.86 L1430.31 1170.67 L1442.95 1174.31 L1455.59 1177.3 L1468.23 1180.09 L1480.87 1183.66 L1493.52 1186.93 L1506.16 1189.8 L1518.8 1193.22 L1531.44 1196.34 L1544.08 1199.32 L1556.72 1202.31 L1569.36 1205.06 L1582 1207.96 L1594.65 1210.53 L1607.29 1212.66 L1619.93 1215.03 L1632.57 1217.3 L1645.21 1219.66 L1657.85 1221.79 L1670.49 1224.08 L1683.14 1226.13 L1695.78 1228.02 L1708.42 1229.79 L1721.06 1231.42 L1733.7 1233.12 L1746.34 1234.42 L1758.98 1235.84 L1771.63 1237.27 L1784.27 1238.36 L1796.91 1239.59 L1809.55 1240.54 L1822.19 1241.66 L1834.83 1242.76 L1847.47 1243.44 L1860.11 1244.32 L1872.76 1245.19 L1885.4 1245.97 L1898.04 1246.69 L1910.68 1247.37 L1923.32 1247.95 L1935.96 1248.5 L1948.6 1249 L1961.25 1249.52 L1973.89 1249.97 L1986.53 1250.4 L1999.17 1250.79 L2011.81 1251.16 L2024.45 1251.47 L2037.09 1251.8 L2049.73 1252.05 L2062.38 1252.31 L2075.02 1252.5 L2087.66 1252.74 L2100.3 1252.91 L2112.94 1253.1 L2125.58 1253.26 L2138.22 1253.4 L2150.87 1253.54 L2163.51 1253.63 L2176.15 1253.76 L2188.79 1253.86 L2201.43 1253.93 L2214.07 1254.01 L2226.71 1254.07 L2239.35 1254.11 L2252 1254.16 L2264.64 1254.21 L2277.28 1254.25 L2289.92 1254.29 L2302.56 1254.32 L2315.2 1254.35 L2327.84 1254.37 L2340.49 1254.39 L2353.13 1254.41 L2365.77 1254.42 L2378.41 1254.44 L2391.05 1254.45 L2403.69 1254.46 L2416.33 1254.47 L2428.98 1254.47 L2441.62 1254.48 L2454.26 1254.49 L2466.9 1254.49 L2479.54 1254.5 L2492.18 1254.5 L2504.82 1254.51 L2517.46 1254.51 L2530.11 1254.51 L2542.75 1254.51 L2555.39 1254.51 L2568.03 1254.51 L2580.67 1254.52 L2593.31 1254.52 L2605.95 1254.52 L2618.6 1254.52 L2631.24 1254.52 L2643.88 1254.52 L2656.52 1254.52 L2669.16 1254.52 L2681.8 1254.52 L2694.44 1254.52 L2707.08 1254.52 L2719.73 1254.52 L2732.37 1254.52 L2745.01 1254.52 L2757.65 1254.52 L2757.65 1253.74 L2745.01 1253.68 L2732.37 1253.63 L2719.73 1253.57 L2707.08 1253.49 L2694.44 1253.42 L2681.8 1253.34 L2669.16 1253.25 L2656.52 1253.13 L2643.88 1253.05 L2631.24 1252.93 L2618.6 1252.84 L2605.95 1252.72 L2593.31 1252.64 L2580.67 1252.56 L2568.03 1252.41 L2555.39 1252.29 L2542.75 1252.16 L2530.11 1252 L2517.46 1251.84 L2504.82 1251.66 L2492.18 1251.5 L2479.54 1251.31 L2466.9 1251.22 L2454.26 1251.02 L2441.62 1250.83 L2428.98 1250.6 L2416.33 1250.42 L2403.69 1250.19 L2391.05 1249.87 L2378.41 1249.65 L2365.77 1249.31 L2353.13 1249 L2340.49 1248.66 L2327.84 1248.31 L2315.2 1247.81 L2302.56 1247.43 L2289.92 1246.88 L2277.28 1246.5 L2264.64 1246.26 L2252 1245.71 L2239.35 1245.37 L2226.71 1244.73 L2214.07 1244.3 L2201.43 1243.72 L2188.79 1243.08 L2176.15 1242.43 L2163.51 1241.73 L2150.87 1240.97 L2138.22 1240.4 L2125.58 1239.66 L2112.94 1239.23 L2100.3 1238.44 L2087.66 1237.53 L2075.02 1236.59 L2062.38 1235.59 L2049.73 1234.59 L2037.09 1233.49 L2024.45 1232.36 L2011.81 1231.06 L1999.17 1230.22 L1986.53 1228.45 L1973.89 1226.7 L1961.25 1224.59 L1948.6 1223.63 L1935.96 1221.99 L1923.32 1220.85 L1910.68 1219.14 L1898.04 1217.19 L1885.4 1216.12 L1872.76 1213.82 L1860.11 1211.19 L1847.47 1209.38 L1834.83 1207.56 L1822.19 1204.87 L1809.55 1202.49 L1796.91 1200.54 L1784.27 1196.98 L1771.63 1193.66 L1758.98 1189 L1746.34 1186.56 L1733.7 1182.64 L1721.06 1179.72 L1708.42 1175.63 L1695.78 1171.6 L1683.14 1168 L1670.49 1163.81 L1657.85 1159.25 L1645.21 1153.89 L1632.57 1148.55 L1619.93 1142.36 L1607.29 1138.68 L1594.65 1132.03 L1582 1126.65 L1569.36 1120.25 L1556.72 1112.18 L1544.08 1104.09 L1531.44 1096.7 L1518.8 1089.06 L1506.16 1081.58 L1493.52 1072.86 L1480.87 1067.15 L1468.23 1060.88 L1455.59 1058.44 L1442.95 1052.94 L1430.31 1045.28 L1417.67 1044.12 L1405.03 1036.89 L1392.38 1029.95 L1379.74 1020.02 L1367.1 1015.74 L1354.46 1012.72 L1341.82 1001.35 L1329.18 994.11 L1316.54 988.636 L1303.9 979.69 L1291.25 966.306 L1278.61 955.584 L1265.97 942.139 L1253.33 930.817 L1240.69 918.247 L1228.05 906.329 L1215.41 896.189 L1202.76 886.357 L1190.12 875.446 L1177.48 867.671 L1164.84 856.142 L1152.2 841.663 L1139.56 828.631 L1126.92 812.639 L1114.28 796.08 L1101.63 778.274 L1088.99 765.29 L1076.35 763.053 L1063.71 756.973 L1051.07 745.899 L1038.43 735.012 L1025.79 723.977 L1013.14 716.831 L1000.5 709.155 L987.862 697.375 L975.22 687.677 L962.579 672.14 L949.938 660.766 L937.296 663.224 L924.655 677.514 L912.014 669.831 L899.372 663.363 L886.731 649.384 L874.09 632.81 L861.448 627.19 L848.807 615.656 L836.166 617.848 L823.524 610.8 L810.883 604.174 L798.242 593.018 L785.6 580.241 L772.959 569.039 L760.317 561.137 L747.676 546.692 L735.035 537.293 L722.393 528.555 L709.752 515.017 L697.111 502.366 L684.469 486.209 L671.828 476.823 L659.187 461.373 L646.545 448.212 L633.904 430.841 L621.263 417.224 L608.621 404.104 L595.98 389.594 L583.339 375.429 L570.697 363.158 L558.056 348.519 L545.415 330.862 L532.773 319.074 L520.132 306.001 L507.491 299.254 L494.849 283.616 L482.208 276.47 L469.567 284.751 L456.925 271.303 L444.284 254.988 L431.642 236.099 L419.001 225.616 L406.36 209.602 L393.718 218.733 L381.077 276.244 L368.436 289.962 L355.794 291.659 L343.153 289.942 L330.512 386.088 L317.87 422.347 L305.229 450.193 L292.588 463.668 L279.946 522.725 L267.305 550.188 L254.664 701.209 L242.022 743.526 L229.381 1254.52  Z" fill="#e26f46" fill-rule="evenodd" fill-opacity="0.3"/>
<polyline clip-path="url(#clip952)" style="stroke:#e26f46; stroke-linecap:round; stroke-linejoin:round; stroke-width:4; stroke-opacity:0; fill:none" points="229.381,1254.52 242.022,1254.52 254.664,1254.52 267.305,1242.6 279.946,1217.71 292.588,1167.52 305.229,1147.46 317.87,1126.13 330.512,1117.59 343.153,1078.9 355.794,1058.65 368.436,1052.01 381.077,1043.3 393.718,950.706 406.36,874.157 419.001,840.051 431.642,841.939 444.284,840.243 456.925,846.19 469.567,832.658 482.208,781.871 494.849,753.249 507.491,749.591 520.132,744.746 532.773,723.774 545.415,721.496 558.056,726.665 570.697,734.624 583.339,735.947 595.98,740.149 608.621,742.255 621.263,751.287 633.904,757.512 646.545,764.407 659.187,768.914 671.828,775.16 684.469,782.016 697.111,787.233 709.752,792.101 722.393,799.647 735.035,808.01 747.676,815.567 760.317,824.54 772.959,829.586 785.6,836.228 798.242,844.298 810.883,852.168 823.524,859.251 836.166,864.153 848.807,867.865 861.448,875.398 874.09,883.342 886.731,892.606 899.372,901.852 912.014,910.391 924.655,915.054 937.296,922.441 949.938,929.308 962.579,938.065 975.22,946.142 987.862,955.23 1000.5,962.728 1013.14,970.974 1025.79,979.413 1038.43,985.875 1051.07,993.918 1063.71,1002.09 1076.35,1010.35 1088.99,1017.03 1101.63,1023.32 1114.28,1031.56 1126.92,1039.73 1139.56,1046.62 1152.2,1052.2 1164.84,1059.9 1177.48,1066.6 1190.12,1073.35 1202.76,1078.81 1215.41,1084.89 1228.05,1091.29 1240.69,1096.43 1253.33,1102.71 1265.97,1107.69 1278.61,1113.53 1291.25,1119.16 1303.9,1124.87 1316.54,1129.92 1329.18,1135.54 1341.82,1140.7 1354.46,1145.53 1367.1,1149.38 1379.74,1153.62 1392.38,1158.23 1405.03,1162.94 1417.67,1166.86 1430.31,1170.67 1442.95,1174.31 1455.59,1177.3 1468.23,1180.09 1480.87,1183.66 1493.52,1186.93 1506.16,1189.8 1518.8,1193.22 1531.44,1196.34 1544.08,1199.32 1556.72,1202.31 1569.36,1205.06 1582,1207.96 1594.65,1210.53 1607.29,1212.66 1619.93,1215.03 1632.57,1217.3 1645.21,1219.66 1657.85,1221.79 1670.49,1224.08 1683.14,1226.13 1695.78,1228.02 1708.42,1229.79 1721.06,1231.42 1733.7,1233.12 1746.34,1234.42 1758.98,1235.84 1771.63,1237.27 1784.27,1238.36 1796.91,1239.59 1809.55,1240.54 1822.19,1241.66 1834.83,1242.76 1847.47,1243.44 1860.11,1244.32 1872.76,1245.19 1885.4,1245.97 1898.04,1246.69 1910.68,1247.37 1923.32,1247.95 1935.96,1248.5 1948.6,1249 1961.25,1249.52 1973.89,1249.97 1986.53,1250.4 1999.17,1250.79 2011.81,1251.16 2024.45,1251.47 2037.09,1251.8 2049.73,1252.05 2062.38,1252.31 2075.02,1252.5 2087.66,1252.74 2100.3,1252.91 2112.94,1253.1 2125.58,1253.26 2138.22,1253.4 2150.87,1253.54 2163.51,1253.63 2176.15,1253.76 2188.79,1253.86 2201.43,1253.93 2214.07,1254.01 2226.71,1254.07 2239.35,1254.11 2252,1254.16 2264.64,1254.21 2277.28,1254.25 2289.92,1254.29 2302.56,1254.32 2315.2,1254.35 2327.84,1254.37 2340.49,1254.39 2353.13,1254.41 2365.77,1254.42 2378.41,1254.44 2391.05,1254.45 2403.69,1254.46 2416.33,1254.47 2428.98,1254.47 2441.62,1254.48 2454.26,1254.49 2466.9,1254.49 2479.54,1254.5 2492.18,1254.5 2504.82,1254.51 2517.46,1254.51 2530.11,1254.51 2542.75,1254.51 2555.39,1254.51 2568.03,1254.51 2580.67,1254.52 2593.31,1254.52 2605.95,1254.52 2618.6,1254.52 2631.24,1254.52 2643.88,1254.52 2656.52,1254.52 2669.16,1254.52 2681.8,1254.52 2694.44,1254.52 2707.08,1254.52 2719.73,1254.52 2732.37,1254.52 2745.01,1254.52 2757.65,1254.52 "/>
<path clip-path="url(#clip952)" d="M229.381 1254.52 L242.022 1254.52 L254.664 1254.52 L267.305 1254.52 L279.946 1254.32 L292.588 1253.94 L305.229 1253.71 L317.87 1252.51 L330.512 1249.43 L343.153 1196.88 L355.794 1187.2 L368.436 1178.06 L381.077 1175.94 L393.718 1167.94 L406.36 1166.59 L419.001 1164.32 L431.642 1165.17 L444.284 1166.54 L456.925 1165.93 L469.567 1163.46 L482.208 1159.76 L494.849 1151.53 L507.491 1148.05 L520.132 1144.24 L532.773 1139.79 L545.415 1136.67 L558.056 1137.08 L570.697 1135.81 L583.339 1131.21 L595.98 1127.8 L608.621 1124.19 L621.263 1122.53 L633.904 1114.64 L646.545 1110.32 L659.187 1111.92 L671.828 1113.52 L684.469 1114.46 L697.111 1115.35 L709.752 1117.97 L722.393 1117.95 L735.035 1117.11 L747.676 1119 L760.317 1119.34 L772.959 1120.59 L785.6 1119.46 L798.242 1120.74 L810.883 1122.92 L823.524 1119.97 L836.166 1115.47 L848.807 1072.65 L861.448 1055.09 L874.09 1047.31 L886.731 1045.2 L899.372 1047.05 L912.014 1050.74 L924.655 1051.58 L937.296 1034.29 L949.938 942.247 L962.579 918.175 L975.22 926.002 L987.862 928.955 L1000.5 931.459 L1013.14 937.896 L1025.79 936.631 L1038.43 944.728 L1051.07 947.412 L1063.71 947.401 L1076.35 950.898 L1088.99 955.238 L1101.63 958.876 L1114.28 962.732 L1126.92 966.478 L1139.56 969.938 L1152.2 973.55 L1164.84 978.642 L1177.48 985.174 L1190.12 988.114 L1202.76 994.78 L1215.41 999.724 L1228.05 1007.88 L1240.69 1014.09 L1253.33 1022.28 L1265.97 1030.68 L1278.61 1038.81 L1291.25 1046.45 L1303.9 1055.53 L1316.54 1062.85 L1329.18 1069.66 L1341.82 1075.76 L1354.46 1081.62 L1367.1 1088.44 L1379.74 1095.4 L1392.38 1100.31 L1405.03 1106.07 L1417.67 1110.79 L1430.31 1115.78 L1442.95 1120.42 L1455.59 1125.51 L1468.23 1130.56 L1480.87 1134.89 L1493.52 1140.7 L1506.16 1145.79 L1518.8 1150.86 L1531.44 1154.87 L1544.08 1159.94 L1556.72 1164.64 L1569.36 1169.11 L1582 1173.38 L1594.65 1177.89 L1607.29 1181.74 L1619.93 1185.22 L1632.57 1188.79 L1645.21 1192.62 L1657.85 1196.08 L1670.49 1199.65 L1683.14 1202.88 L1695.78 1206.06 L1708.42 1209.08 L1721.06 1211.91 L1733.7 1214.54 L1746.34 1217.03 L1758.98 1219.45 L1771.63 1221.75 L1784.27 1224.08 L1796.91 1226.36 L1809.55 1228.39 L1822.19 1230.48 L1834.83 1232.31 L1847.47 1234.15 L1860.11 1235.76 L1872.76 1237.18 L1885.4 1238.64 L1898.04 1239.82 L1910.68 1241.07 L1923.32 1242.25 L1935.96 1243.35 L1948.6 1244.37 L1961.25 1245.32 L1973.89 1246.21 L1986.53 1247.02 L1999.17 1247.68 L2011.81 1248.38 L2024.45 1249.04 L2037.09 1249.61 L2049.73 1250.04 L2062.38 1250.52 L2075.02 1250.92 L2087.66 1251.28 L2100.3 1251.65 L2112.94 1252.02 L2125.58 1252.31 L2138.22 1252.58 L2150.87 1252.8 L2163.51 1253.01 L2176.15 1253.19 L2188.79 1253.37 L2201.43 1253.47 L2214.07 1253.61 L2226.71 1253.73 L2239.35 1253.85 L2252 1253.93 L2264.64 1253.99 L2277.28 1254.06 L2289.92 1254.12 L2302.56 1254.17 L2315.2 1254.21 L2327.84 1254.25 L2340.49 1254.29 L2353.13 1254.32 L2365.77 1254.35 L2378.41 1254.37 L2391.05 1254.4 L2403.69 1254.41 L2416.33 1254.43 L2428.98 1254.45 L2441.62 1254.46 L2454.26 1254.47 L2466.9 1254.48 L2479.54 1254.48 L2492.18 1254.49 L2504.82 1254.5 L2517.46 1254.5 L2530.11 1254.5 L2542.75 1254.51 L2555.39 1254.51 L2568.03 1254.51 L2580.67 1254.51 L2593.31 1254.51 L2605.95 1254.51 L2618.6 1254.52 L2631.24 1254.52 L2643.88 1254.52 L2656.52 1254.52 L2669.16 1254.52 L2681.8 1254.52 L2694.44 1254.52 L2707.08 1254.52 L2719.73 1254.52 L2732.37 1254.52 L2745.01 1254.52 L2757.65 1254.52 L2757.65 1253.37 L2745.01 1253.28 L2732.37 1253.2 L2719.73 1253.13 L2707.08 1253.04 L2694.44 1252.93 L2681.8 1252.78 L2669.16 1252.71 L2656.52 1252.63 L2643.88 1252.45 L2631.24 1252.24 L2618.6 1252.15 L2605.95 1251.99 L2593.31 1251.82 L2580.67 1251.7 L2568.03 1251.6 L2555.39 1251.32 L2542.75 1251.12 L2530.11 1250.88 L2517.46 1250.67 L2504.82 1250.49 L2492.18 1250.25 L2479.54 1249.99 L2466.9 1249.76 L2454.26 1249.52 L2441.62 1249.26 L2428.98 1248.92 L2416.33 1248.55 L2403.69 1248.18 L2391.05 1247.82 L2378.41 1247.42 L2365.77 1247.07 L2353.13 1246.56 L2340.49 1246.09 L2327.84 1245.53 L2315.2 1245.03 L2302.56 1244.51 L2289.92 1243.94 L2277.28 1243.23 L2264.64 1242.51 L2252 1241.62 L2239.35 1241.1 L2226.71 1240.39 L2214.07 1239.79 L2201.43 1239.14 L2188.79 1238.27 L2176.15 1237.36 L2163.51 1236.5 L2150.87 1235.24 L2138.22 1234.09 L2125.58 1233.08 L2112.94 1232.08 L2100.3 1230.93 L2087.66 1229.4 L2075.02 1227.98 L2062.38 1226.04 L2049.73 1224.55 L2037.09 1222.68 L2024.45 1220.74 L2011.81 1219.03 L1999.17 1217.09 L1986.53 1214.58 L1973.89 1211.78 L1961.25 1209.17 L1948.6 1206.16 L1935.96 1203.22 L1923.32 1200.61 L1910.68 1197.86 L1898.04 1194.84 L1885.4 1191.45 L1872.76 1187.02 L1860.11 1183.06 L1847.47 1179.76 L1834.83 1175.34 L1822.19 1171 L1809.55 1165.91 L1796.91 1161.17 L1784.27 1155.21 L1771.63 1148.43 L1758.98 1141.62 L1746.34 1134.3 L1733.7 1125.4 L1721.06 1116.77 L1708.42 1109.01 L1695.78 1103.09 L1683.14 1094.86 L1670.49 1085.63 L1657.85 1074.95 L1645.21 1066.08 L1632.57 1053.75 L1619.93 1043.01 L1607.29 1039.58 L1594.65 1034.59 L1582 1022.9 L1569.36 1008.89 L1556.72 994.138 L1544.08 977.706 L1531.44 964.803 L1518.8 957.655 L1506.16 947.832 L1493.52 935.699 L1480.87 915.169 L1468.23 907.673 L1455.59 916.662 L1442.95 922.617 L1430.31 914.112 L1417.67 927.023 L1405.03 919.963 L1392.38 911.562 L1379.74 901.963 L1367.1 891.397 L1354.46 885.627 L1341.82 870.003 L1329.18 854.467 L1316.54 836.282 L1303.9 815.783 L1291.25 792.184 L1278.61 772.947 L1265.97 753.077 L1253.33 728.928 L1240.69 716.11 L1228.05 693.533 L1215.41 673.835 L1202.76 657.323 L1190.12 651.567 L1177.48 646.021 L1164.84 621.446 L1152.2 612.808 L1139.56 599.25 L1126.92 582.08 L1114.28 577.741 L1101.63 559.698 L1088.99 550.475 L1076.35 546.483 L1063.71 545.14 L1051.07 528.081 L1038.43 501.487 L1025.79 474.399 L1013.14 453.212 L1000.5 431.724 L987.862 403.337 L975.22 370.436 L962.579 350.914 L949.938 336.981 L937.296 370.155 L924.655 415.352 L912.014 399.053 L899.372 382.314 L886.731 356.557 L874.09 346.123 L861.448 328.176 L848.807 329.565 L836.166 433.43 L823.524 456.481 L810.883 587.261 L798.242 636.252 L785.6 655.154 L772.959 676.251 L760.317 714.179 L747.676 721.317 L735.035 735.466 L722.393 763.584 L709.752 768.418 L697.111 772.361 L684.469 766.693 L671.828 759.85 L659.187 753.006 L646.545 748.489 L633.904 753.867 L621.263 774.65 L608.621 774.393 L595.98 773.164 L583.339 797.576 L570.697 809.965 L558.056 815.434 L545.415 826.603 L532.773 828.007 L520.132 832.818 L507.491 844.446 L494.849 849.376 L482.208 854.116 L469.567 878.133 L456.925 878.713 L444.284 877.194 L431.642 874.008 L419.001 875.787 L406.36 875.216 L393.718 877.466 L381.077 878.264 L368.436 876.723 L355.794 876.265 L343.153 875.934 L330.512 910.062 L317.87 935.524 L305.229 960.511 L292.588 967.192 L279.946 992.493 L267.305 994.761 L254.664 1024.19 L242.022 1037.65 L229.381 1254.52  Z" fill="#3da44d" fill-rule="evenodd" fill-opacity="0.3"/>
<polyline clip-path="url(#clip952)" style="stroke:#3da44d; stroke-linecap:round; stroke-linejoin:round; stroke-width:4; stroke-opacity:0; fill:none" points="229.381,1254.52 242.022,1254.52 254.664,1254.52 267.305,1254.52 279.946,1254.32 292.588,1253.94 305.229,1253.71 317.87,1252.51 330.512,1249.43 343.153,1196.88 355.794,1187.2 368.436,1178.06 381.077,1175.94 393.718,1167.94 406.36,1166.59 419.001,1164.32 431.642,1165.17 444.284,1166.54 456.925,1165.93 469.567,1163.46 482.208,1159.76 494.849,1151.53 507.491,1148.05 520.132,1144.24 532.773,1139.79 545.415,1136.67 558.056,1137.08 570.697,1135.81 583.339,1131.21 595.98,1127.8 608.621,1124.19 621.263,1122.53 633.904,1114.64 646.545,1110.32 659.187,1111.92 671.828,1113.52 684.469,1114.46 697.111,1115.35 709.752,1117.97 722.393,1117.95 735.035,1117.11 747.676,1119 760.317,1119.34 772.959,1120.59 785.6,1119.46 798.242,1120.74 810.883,1122.92 823.524,1119.97 836.166,1115.47 848.807,1072.65 861.448,1055.09 874.09,1047.31 886.731,1045.2 899.372,1047.05 912.014,1050.74 924.655,1051.58 937.296,1034.29 949.938,942.247 962.579,918.175 975.22,926.002 987.862,928.955 1000.5,931.459 1013.14,937.896 1025.79,936.631 1038.43,944.728 1051.07,947.412 1063.71,947.401 1076.35,950.898 1088.99,955.238 1101.63,958.876 1114.28,962.732 1126.92,966.478 1139.56,969.938 1152.2,973.55 1164.84,978.642 1177.48,985.174 1190.12,988.114 1202.76,994.78 1215.41,999.724 1228.05,1007.88 1240.69,1014.09 1253.33,1022.28 1265.97,1030.68 1278.61,1038.81 1291.25,1046.45 1303.9,1055.53 1316.54,1062.85 1329.18,1069.66 1341.82,1075.76 1354.46,1081.62 1367.1,1088.44 1379.74,1095.4 1392.38,1100.31 1405.03,1106.07 1417.67,1110.79 1430.31,1115.78 1442.95,1120.42 1455.59,1125.51 1468.23,1130.56 1480.87,1134.89 1493.52,1140.7 1506.16,1145.79 1518.8,1150.86 1531.44,1154.87 1544.08,1159.94 1556.72,1164.64 1569.36,1169.11 1582,1173.38 1594.65,1177.89 1607.29,1181.74 1619.93,1185.22 1632.57,1188.79 1645.21,1192.62 1657.85,1196.08 1670.49,1199.65 1683.14,1202.88 1695.78,1206.06 1708.42,1209.08 1721.06,1211.91 1733.7,1214.54 1746.34,1217.03 1758.98,1219.45 1771.63,1221.75 1784.27,1224.08 1796.91,1226.36 1809.55,1228.39 1822.19,1230.48 1834.83,1232.31 1847.47,1234.15 1860.11,1235.76 1872.76,1237.18 1885.4,1238.64 1898.04,1239.82 1910.68,1241.07 1923.32,1242.25 1935.96,1243.35 1948.6,1244.37 1961.25,1245.32 1973.89,1246.21 1986.53,1247.02 1999.17,1247.68 2011.81,1248.38 2024.45,1249.04 2037.09,1249.61 2049.73,1250.04 2062.38,1250.52 2075.02,1250.92 2087.66,1251.28 2100.3,1251.65 2112.94,1252.02 2125.58,1252.31 2138.22,1252.58 2150.87,1252.8 2163.51,1253.01 2176.15,1253.19 2188.79,1253.37 2201.43,1253.47 2214.07,1253.61 2226.71,1253.73 2239.35,1253.85 2252,1253.93 2264.64,1253.99 2277.28,1254.06 2289.92,1254.12 2302.56,1254.17 2315.2,1254.21 2327.84,1254.25 2340.49,1254.29 2353.13,1254.32 2365.77,1254.35 2378.41,1254.37 2391.05,1254.4 2403.69,1254.41 2416.33,1254.43 2428.98,1254.45 2441.62,1254.46 2454.26,1254.47 2466.9,1254.48 2479.54,1254.48 2492.18,1254.49 2504.82,1254.5 2517.46,1254.5 2530.11,1254.5 2542.75,1254.51 2555.39,1254.51 2568.03,1254.51 2580.67,1254.51 2593.31,1254.51 2605.95,1254.51 2618.6,1254.52 2631.24,1254.52 2643.88,1254.52 2656.52,1254.52 2669.16,1254.52 2681.8,1254.52 2694.44,1254.52 2707.08,1254.52 2719.73,1254.52 2732.37,1254.52 2745.01,1254.52 2757.65,1254.52 "/>
<path clip-path="url(#clip950)" d="M1475.79 294.847 L1817.98 294.847 L1817.98 87.4866 L1475.79 87.4866  Z" fill="#ffffff" fill-rule="evenodd" fill-opacity="1"/>
<polyline clip-path="url(#clip950)" style="stroke:#000000; stroke-linecap:round; stroke-linejoin:round; stroke-width:4; stroke-opacity:1; fill:none" points="1475.79,294.847 1817.98,294.847 1817.98,87.4866 1475.79,87.4866 1475.79,294.847 "/>
<polyline clip-path="url(#clip950)" style="stroke:#009af9; stroke-linecap:round; stroke-linejoin:round; stroke-width:4; stroke-opacity:1; fill:none" points="1494.05,139.327 1603.61,139.327 "/>
<path clip-path="url(#clip950)" d="M1642.38 131.676 L1642.38 135.658 Q1640.57 134.662 1638.75 134.176 Q1636.94 133.667 1635.09 133.667 Q1630.94 133.667 1628.65 136.306 Q1626.36 138.922 1626.36 143.667 Q1626.36 148.412 1628.65 151.051 Q1630.94 153.667 1635.09 153.667 Q1636.94 153.667 1638.75 153.181 Q1640.57 152.671 1642.38 151.676 L1642.38 155.611 Q1640.6 156.445 1638.68 156.861 Q1636.78 157.278 1634.63 157.278 Q1628.77 157.278 1625.32 153.597 Q1621.87 149.917 1621.87 143.667 Q1621.87 137.324 1625.34 133.69 Q1628.84 130.056 1634.9 130.056 Q1636.87 130.056 1638.75 130.473 Q1640.62 130.866 1642.38 131.676 Z" fill="#000000" fill-rule="nonzero" fill-opacity="1" /><path clip-path="url(#clip950)" d="M1661.57 143.574 Q1656.41 143.574 1654.42 144.755 Q1652.43 145.935 1652.43 148.783 Q1652.43 151.051 1653.91 152.394 Q1655.41 153.713 1657.98 153.713 Q1661.52 153.713 1663.65 151.213 Q1665.81 148.69 1665.81 144.523 L1665.81 143.574 L1661.57 143.574 M1670.06 141.815 L1670.06 156.607 L1665.81 156.607 L1665.81 152.671 Q1664.35 155.033 1662.17 156.167 Q1660 157.278 1656.85 157.278 Q1652.87 157.278 1650.5 155.056 Q1648.17 152.81 1648.17 149.06 Q1648.17 144.685 1651.08 142.463 Q1654.02 140.241 1659.83 140.241 L1665.81 140.241 L1665.81 139.824 Q1665.81 136.885 1663.86 135.287 Q1661.94 133.667 1658.44 133.667 Q1656.22 133.667 1654.12 134.199 Q1652.01 134.732 1650.07 135.797 L1650.07 131.861 Q1652.4 130.959 1654.6 130.519 Q1656.8 130.056 1658.88 130.056 Q1664.51 130.056 1667.29 132.972 Q1670.06 135.889 1670.06 141.815 Z" fill="#000000" fill-rule="nonzero" fill-opacity="1" /><path clip-path="url(#clip950)" d="M1678.4 146.375 L1678.4 130.681 L1682.66 130.681 L1682.66 146.213 Q1682.66 149.894 1684.09 151.746 Q1685.53 153.574 1688.4 153.574 Q1691.85 153.574 1693.84 151.375 Q1695.85 149.176 1695.85 145.38 L1695.85 130.681 L1700.11 130.681 L1700.11 156.607 L1695.85 156.607 L1695.85 152.625 Q1694.3 154.986 1692.24 156.144 Q1690.2 157.278 1687.5 157.278 Q1683.03 157.278 1680.71 154.5 Q1678.4 151.722 1678.4 146.375 M1689.12 130.056 L1689.12 130.056 Z" fill="#000000" fill-rule="nonzero" fill-opacity="1" /><path clip-path="url(#clip950)" d="M1725.41 131.445 L1725.41 135.472 Q1723.61 134.547 1721.66 134.084 Q1719.72 133.621 1717.63 133.621 Q1714.46 133.621 1712.87 134.593 Q1711.29 135.565 1711.29 137.509 Q1711.29 138.991 1712.43 139.847 Q1713.56 140.681 1716.99 141.445 L1718.44 141.769 Q1722.98 142.741 1724.88 144.523 Q1726.8 146.283 1726.8 149.454 Q1726.8 153.065 1723.93 155.171 Q1721.08 157.278 1716.08 157.278 Q1714 157.278 1711.73 156.861 Q1709.49 156.468 1706.99 155.658 L1706.99 151.259 Q1709.35 152.486 1711.64 153.111 Q1713.93 153.713 1716.18 153.713 Q1719.19 153.713 1720.81 152.695 Q1722.43 151.653 1722.43 149.778 Q1722.43 148.042 1721.25 147.116 Q1720.09 146.19 1716.13 145.334 L1714.65 144.986 Q1710.69 144.153 1708.93 142.44 Q1707.17 140.704 1707.17 137.695 Q1707.17 134.037 1709.76 132.047 Q1712.36 130.056 1717.12 130.056 Q1719.49 130.056 1721.57 130.403 Q1723.65 130.75 1725.41 131.445 Z" fill="#000000" fill-rule="nonzero" fill-opacity="1" /><path clip-path="url(#clip950)" d="M1755.76 142.579 L1755.76 144.662 L1736.18 144.662 Q1736.45 149.06 1738.81 151.375 Q1741.2 153.667 1745.43 153.667 Q1747.89 153.667 1750.18 153.065 Q1752.5 152.463 1754.76 151.259 L1754.76 155.287 Q1752.47 156.259 1750.06 156.769 Q1747.66 157.278 1745.18 157.278 Q1738.98 157.278 1735.34 153.667 Q1731.73 150.056 1731.73 143.898 Q1731.73 137.533 1735.16 133.806 Q1738.61 130.056 1744.44 130.056 Q1749.67 130.056 1752.7 133.435 Q1755.76 136.792 1755.76 142.579 M1751.5 141.329 Q1751.45 137.834 1749.53 135.75 Q1747.63 133.667 1744.49 133.667 Q1740.92 133.667 1738.77 135.681 Q1736.64 137.695 1736.31 141.352 L1751.5 141.329 Z" fill="#000000" fill-rule="nonzero" fill-opacity="1" /><path clip-path="url(#clip950)" d="M1779.23 152.671 L1786.87 152.671 L1786.87 126.306 L1778.56 127.973 L1778.56 123.713 L1786.82 122.047 L1791.5 122.047 L1791.5 152.671 L1799.14 152.671 L1799.14 156.607 L1779.23 156.607 L1779.23 152.671 Z" fill="#000000" fill-rule="nonzero" fill-opacity="1" /><polyline clip-path="url(#clip950)" style="stroke:#e26f46; stroke-linecap:round; stroke-linejoin:round; stroke-width:4; stroke-opacity:1; fill:none" points="1494.05,191.167 1603.61,191.167 "/>
<path clip-path="url(#clip950)" d="M1642.38 183.516 L1642.38 187.498 Q1640.57 186.502 1638.75 186.016 Q1636.94 185.507 1635.09 185.507 Q1630.94 185.507 1628.65 188.146 Q1626.36 190.762 1626.36 195.507 Q1626.36 200.252 1628.65 202.891 Q1630.94 205.507 1635.09 205.507 Q1636.94 205.507 1638.75 205.021 Q1640.57 204.511 1642.38 203.516 L1642.38 207.451 Q1640.6 208.285 1638.68 208.701 Q1636.78 209.118 1634.63 209.118 Q1628.77 209.118 1625.32 205.437 Q1621.87 201.757 1621.87 195.507 Q1621.87 189.164 1625.34 185.53 Q1628.84 181.896 1634.9 181.896 Q1636.87 181.896 1638.75 182.313 Q1640.62 182.706 1642.38 183.516 Z" fill="#000000" fill-rule="nonzero" fill-opacity="1" /><path clip-path="url(#clip950)" d="M1661.57 195.414 Q1656.41 195.414 1654.42 196.595 Q1652.43 197.775 1652.43 200.623 Q1652.43 202.891 1653.91 204.234 Q1655.41 205.553 1657.98 205.553 Q1661.52 205.553 1663.65 203.053 Q1665.81 200.53 1665.81 196.363 L1665.81 195.414 L1661.57 195.414 M1670.06 193.655 L1670.06 208.447 L1665.81 208.447 L1665.81 204.511 Q1664.35 206.873 1662.17 208.007 Q1660 209.118 1656.85 209.118 Q1652.87 209.118 1650.5 206.896 Q1648.17 204.65 1648.17 200.9 Q1648.17 196.525 1651.08 194.303 Q1654.02 192.081 1659.83 192.081 L1665.81 192.081 L1665.81 191.664 Q1665.81 188.725 1663.86 187.127 Q1661.94 185.507 1658.44 185.507 Q1656.22 185.507 1654.12 186.039 Q1652.01 186.572 1650.07 187.637 L1650.07 183.701 Q1652.4 182.799 1654.6 182.359 Q1656.8 181.896 1658.88 181.896 Q1664.51 181.896 1667.29 184.812 Q1670.06 187.729 1670.06 193.655 Z" fill="#000000" fill-rule="nonzero" fill-opacity="1" /><path clip-path="url(#clip950)" d="M1678.4 198.215 L1678.4 182.521 L1682.66 182.521 L1682.66 198.053 Q1682.66 201.734 1684.09 203.586 Q1685.53 205.414 1688.4 205.414 Q1691.85 205.414 1693.84 203.215 Q1695.85 201.016 1695.85 197.22 L1695.85 182.521 L1700.11 182.521 L1700.11 208.447 L1695.85 208.447 L1695.85 204.465 Q1694.3 206.826 1692.24 207.984 Q1690.2 209.118 1687.5 209.118 Q1683.03 209.118 1680.71 206.34 Q1678.4 203.562 1678.4 198.215 M1689.12 181.896 L1689.12 181.896 Z" fill="#000000" fill-rule="nonzero" fill-opacity="1" /><path clip-path="url(#clip950)" d="M1725.41 183.285 L1725.41 187.312 Q1723.61 186.387 1721.66 185.924 Q1719.72 185.461 1717.63 185.461 Q1714.46 185.461 1712.87 186.433 Q1711.29 187.405 1711.29 189.349 Q1711.29 190.831 1712.43 191.687 Q1713.56 192.521 1716.99 193.285 L1718.44 193.609 Q1722.98 194.581 1724.88 196.363 Q1726.8 198.123 1726.8 201.294 Q1726.8 204.905 1723.93 207.011 Q1721.08 209.118 1716.08 209.118 Q1714 209.118 1711.73 208.701 Q1709.49 208.308 1706.99 207.498 L1706.99 203.099 Q1709.35 204.326 1711.64 204.951 Q1713.93 205.553 1716.18 205.553 Q1719.19 205.553 1720.81 204.535 Q1722.43 203.493 1722.43 201.618 Q1722.43 199.882 1721.25 198.956 Q1720.09 198.03 1716.13 197.174 L1714.65 196.826 Q1710.69 195.993 1708.93 194.28 Q1707.17 192.544 1707.17 189.535 Q1707.17 185.877 1709.76 183.887 Q1712.36 181.896 1717.12 181.896 Q1719.49 181.896 1721.57 182.243 Q1723.65 182.59 1725.41 183.285 Z" fill="#000000" fill-rule="nonzero" fill-opacity="1" /><path clip-path="url(#clip950)" d="M1755.76 194.419 L1755.76 196.502 L1736.18 196.502 Q1736.45 200.9 1738.81 203.215 Q1741.2 205.507 1745.43 205.507 Q1747.89 205.507 1750.18 204.905 Q1752.5 204.303 1754.76 203.099 L1754.76 207.127 Q1752.47 208.099 1750.06 208.609 Q1747.66 209.118 1745.18 209.118 Q1738.98 209.118 1735.34 205.507 Q1731.73 201.896 1731.73 195.738 Q1731.73 189.373 1735.16 185.646 Q1738.61 181.896 1744.44 181.896 Q1749.67 181.896 1752.7 185.275 Q1755.76 188.632 1755.76 194.419 M1751.5 193.169 Q1751.45 189.674 1749.53 187.59 Q1747.63 185.507 1744.49 185.507 Q1740.92 185.507 1738.77 187.521 Q1736.64 189.535 1736.31 193.192 L1751.5 193.169 Z" fill="#000000" fill-rule="nonzero" fill-opacity="1" /><path clip-path="url(#clip950)" d="M1782.45 204.511 L1798.77 204.511 L1798.77 208.447 L1776.82 208.447 L1776.82 204.511 Q1779.49 201.757 1784.07 197.127 Q1788.68 192.474 1789.86 191.132 Q1792.1 188.609 1792.98 186.873 Q1793.88 185.113 1793.88 183.424 Q1793.88 180.669 1791.94 178.933 Q1790.02 177.197 1786.92 177.197 Q1784.72 177.197 1782.26 177.961 Q1779.83 178.725 1777.06 180.275 L1777.06 175.553 Q1779.88 174.419 1782.33 173.84 Q1784.79 173.262 1786.82 173.262 Q1792.19 173.262 1795.39 175.947 Q1798.58 178.632 1798.58 183.123 Q1798.58 185.252 1797.77 187.174 Q1796.99 189.072 1794.88 191.664 Q1794.3 192.336 1791.2 195.553 Q1788.1 198.748 1782.45 204.511 Z" fill="#000000" fill-rule="nonzero" fill-opacity="1" /><polyline clip-path="url(#clip950)" style="stroke:#3da44d; stroke-linecap:round; stroke-linejoin:round; stroke-width:4; stroke-opacity:1; fill:none" points="1494.05,243.007 1603.61,243.007 "/>
<path clip-path="url(#clip950)" d="M1642.38 235.356 L1642.38 239.338 Q1640.57 238.342 1638.75 237.856 Q1636.94 237.347 1635.09 237.347 Q1630.94 237.347 1628.65 239.986 Q1626.36 242.602 1626.36 247.347 Q1626.36 252.092 1628.65 254.731 Q1630.94 257.347 1635.09 257.347 Q1636.94 257.347 1638.75 256.861 Q1640.57 256.351 1642.38 255.356 L1642.38 259.291 Q1640.6 260.125 1638.68 260.541 Q1636.78 260.958 1634.63 260.958 Q1628.77 260.958 1625.32 257.277 Q1621.87 253.597 1621.87 247.347 Q1621.87 241.004 1625.34 237.37 Q1628.84 233.736 1634.9 233.736 Q1636.87 233.736 1638.75 234.153 Q1640.62 234.546 1642.38 235.356 Z" fill="#000000" fill-rule="nonzero" fill-opacity="1" /><path clip-path="url(#clip950)" d="M1661.57 247.254 Q1656.41 247.254 1654.42 248.435 Q1652.43 249.615 1652.43 252.463 Q1652.43 254.731 1653.91 256.074 Q1655.41 257.393 1657.98 257.393 Q1661.52 257.393 1663.65 254.893 Q1665.81 252.37 1665.81 248.203 L1665.81 247.254 L1661.57 247.254 M1670.06 245.495 L1670.06 260.287 L1665.81 260.287 L1665.81 256.351 Q1664.35 258.713 1662.17 259.847 Q1660 260.958 1656.85 260.958 Q1652.87 260.958 1650.5 258.736 Q1648.17 256.49 1648.17 252.74 Q1648.17 248.365 1651.08 246.143 Q1654.02 243.921 1659.83 243.921 L1665.81 243.921 L1665.81 243.504 Q1665.81 240.565 1663.86 238.967 Q1661.94 237.347 1658.44 237.347 Q1656.22 237.347 1654.12 237.879 Q1652.01 238.412 1650.07 239.477 L1650.07 235.541 Q1652.4 234.639 1654.6 234.199 Q1656.8 233.736 1658.88 233.736 Q1664.51 233.736 1667.29 236.652 Q1670.06 239.569 1670.06 245.495 Z" fill="#000000" fill-rule="nonzero" fill-opacity="1" /><path clip-path="url(#clip950)" d="M1678.4 250.055 L1678.4 234.361 L1682.66 234.361 L1682.66 249.893 Q1682.66 253.574 1684.09 255.426 Q1685.53 257.254 1688.4 257.254 Q1691.85 257.254 1693.84 255.055 Q1695.85 252.856 1695.85 249.06 L1695.85 234.361 L1700.11 234.361 L1700.11 260.287 L1695.85 260.287 L1695.85 256.305 Q1694.3 258.666 1692.24 259.824 Q1690.2 260.958 1687.5 260.958 Q1683.03 260.958 1680.71 258.18 Q1678.4 255.402 1678.4 250.055 M1689.12 233.736 L1689.12 233.736 Z" fill="#000000" fill-rule="nonzero" fill-opacity="1" /><path clip-path="url(#clip950)" d="M1725.41 235.125 L1725.41 239.152 Q1723.61 238.227 1721.66 237.764 Q1719.72 237.301 1717.63 237.301 Q1714.46 237.301 1712.87 238.273 Q1711.29 239.245 1711.29 241.189 Q1711.29 242.671 1712.43 243.527 Q1713.56 244.361 1716.99 245.125 L1718.44 245.449 Q1722.98 246.421 1724.88 248.203 Q1726.8 249.963 1726.8 253.134 Q1726.8 256.745 1723.93 258.851 Q1721.08 260.958 1716.08 260.958 Q1714 260.958 1711.73 260.541 Q1709.49 260.148 1706.99 259.338 L1706.99 254.939 Q1709.35 256.166 1711.64 256.791 Q1713.93 257.393 1716.18 257.393 Q1719.19 257.393 1720.81 256.375 Q1722.43 255.333 1722.43 253.458 Q1722.43 251.722 1721.25 250.796 Q1720.09 249.87 1716.13 249.014 L1714.65 248.666 Q1710.69 247.833 1708.93 246.12 Q1707.17 244.384 1707.17 241.375 Q1707.17 237.717 1709.76 235.727 Q1712.36 233.736 1717.12 233.736 Q1719.49 233.736 1721.57 234.083 Q1723.65 234.43 1725.41 235.125 Z" fill="#000000" fill-rule="nonzero" fill-opacity="1" /><path clip-path="url(#clip950)" d="M1755.76 246.259 L1755.76 248.342 L1736.18 248.342 Q1736.45 252.74 1738.81 255.055 Q1741.2 257.347 1745.43 257.347 Q1747.89 257.347 1750.18 256.745 Q1752.5 256.143 1754.76 254.939 L1754.76 258.967 Q1752.47 259.939 1750.06 260.449 Q1747.66 260.958 1745.18 260.958 Q1738.98 260.958 1735.34 257.347 Q1731.73 253.736 1731.73 247.578 Q1731.73 241.213 1735.16 237.486 Q1738.61 233.736 1744.44 233.736 Q1749.67 233.736 1752.7 237.115 Q1755.76 240.472 1755.76 246.259 M1751.5 245.009 Q1751.45 241.514 1749.53 239.43 Q1747.63 237.347 1744.49 237.347 Q1740.92 237.347 1738.77 239.361 Q1736.64 241.375 1736.31 245.032 L1751.5 245.009 Z" fill="#000000" fill-rule="nonzero" fill-opacity="1" /><path clip-path="url(#clip950)" d="M1792.59 241.652 Q1795.94 242.37 1797.82 244.639 Q1799.72 246.907 1799.72 250.24 Q1799.72 255.356 1796.2 258.157 Q1792.68 260.958 1786.2 260.958 Q1784.02 260.958 1781.71 260.518 Q1779.42 260.101 1776.96 259.245 L1776.96 254.731 Q1778.91 255.865 1781.22 256.444 Q1783.54 257.023 1786.06 257.023 Q1790.46 257.023 1792.75 255.287 Q1795.06 253.551 1795.06 250.24 Q1795.06 247.185 1792.91 245.472 Q1790.78 243.736 1786.96 243.736 L1782.93 243.736 L1782.93 239.893 L1787.15 239.893 Q1790.6 239.893 1792.43 238.527 Q1794.25 237.139 1794.25 234.546 Q1794.25 231.884 1792.36 230.472 Q1790.48 229.037 1786.96 229.037 Q1785.04 229.037 1782.84 229.453 Q1780.64 229.87 1778 230.75 L1778 226.583 Q1780.67 225.842 1782.98 225.472 Q1785.32 225.102 1787.38 225.102 Q1792.7 225.102 1795.81 227.532 Q1798.91 229.94 1798.91 234.06 Q1798.91 236.93 1797.26 238.921 Q1795.62 240.889 1792.59 241.652 Z" fill="#000000" fill-rule="nonzero" fill-opacity="1" /></svg>
