<?xml version="1.0" encoding="utf-8"?>
<svg xmlns="http://www.w3.org/2000/svg" xmlns:xlink="http://www.w3.org/1999/xlink" width="480" height="360" viewBox="0 0 1920 1440">
<defs>
  <clipPath id="clip650">
    <rect x="0" y="0" width="1920" height="1440"/>
  </clipPath>
</defs>
<path clip-path="url(#clip650)" d="M0 1440 L1920 1440 L1920 0 L0 0  Z" fill="#ffffff" fill-rule="evenodd" fill-opacity="1"/>
<defs>
  <clipPath id="clip651">
    <rect x="384" y="0" width="1345" height="1345"/>
  </clipPath>
</defs>
<path clip-path="url(#clip650)" d="M223.272 1254.52 L1872.76 1254.52 L1872.76 47.2441 L223.272 47.2441  Z" fill="#ffffff" fill-rule="evenodd" fill-opacity="1"/>
<defs>
  <clipPath id="clip652">
    <rect x="223" y="47" width="1650" height="1208"/>
  </clipPath>
</defs>
<polyline clip-path="url(#clip652)" style="stroke:#000000; stroke-linecap:round; stroke-linejoin:round; stroke-width:2; stroke-opacity:0.1; fill:none" points="223.272,1254.52 223.272,47.2441 "/>
<polyline clip-path="url(#clip652)" style="stroke:#000000; stroke-linecap:round; stroke-linejoin:round; stroke-width:2; stroke-opacity:0.1; fill:none" points="611.386,1254.52 611.386,47.2441 "/>
<polyline clip-path="url(#clip652)" style="stroke:#000000; stroke-linecap:round; stroke-linejoin:round; stroke-width:2; stroke-opacity:0.1; fill:none" points="999.5,1254.52 999.5,47.2441 "/>
<polyline clip-path="url(#clip652)" style="stroke:#000000; stroke-linecap:round; stroke-linejoin:round; stroke-width:2; stroke-opacity:0.1; fill:none" points="1387.61,1254.52 1387.61,47.2441 "/>
<polyline clip-path="url(#clip652)" style="stroke:#000000; stroke-linecap:round; stroke-linejoin:round; stroke-width:2; stroke-opacity:0.1; fill:none" points="1775.73,1254.52 1775.73,47.2441 "/>
<polyline clip-path="url(#clip652)" style="stroke:#000000; stroke-linecap:round; stroke-linejoin:round; stroke-width:2; stroke-opacity:0.1; fill:none" points="223.272,1254.52 1872.76,1254.52 "/>
<polyline clip-path="url(#clip652)" style="stroke:#000000; stroke-linecap:round; stroke-linejoin:round; stroke-width:2; stroke-opacity:0.1; fill:none" points="223.272,1013.06 1872.76,1013.06 "/>
<polyline clip-path="url(#clip652)" style="stroke:#000000; stroke-linecap:round; stroke-linejoin:round; stroke-width:2; stroke-opacity:0.1; fill:none" points="223.272,771.61 1872.76,771.61 "/>
<polyline clip-path="url(#clip652)" style="stroke:#000000; stroke-linecap:round; stroke-linejoin:round; stroke-width:2; stroke-opacity:0.1; fill:none" points="223.272,530.154 1872.76,530.154 "/>
<polyline clip-path="url(#clip652)" style="stroke:#000000; stroke-linecap:round; stroke-linejoin:round; stroke-width:2; stroke-opacity:0.1; fill:none" points="223.272,288.699 1872.76,288.699 "/>
<polyline clip-path="url(#clip652)" style="stroke:#000000; stroke-linecap:round; stroke-linejoin:round; stroke-width:2; stroke-opacity:0.1; fill:none" points="223.272,47.2441 1872.76,47.2441 "/>
<polyline clip-path="url(#clip650)" style="stroke:#000000; stroke-linecap:round; stroke-linejoin:round; stroke-width:4; stroke-opacity:1; fill:none" points="223.272,1254.52 1872.76,1254.52 "/>
<polyline clip-path="url(#clip650)" style="stroke:#000000; stroke-linecap:round; stroke-linejoin:round; stroke-width:4; stroke-opacity:1; fill:none" points="223.272,1254.52 223.272,1235.62 "/>
<polyline clip-path="url(#clip650)" style="stroke:#000000; stroke-linecap:round; stroke-linejoin:round; stroke-width:4; stroke-opacity:1; fill:none" points="611.386,1254.52 611.386,1235.62 "/>
<polyline clip-path="url(#clip650)" style="stroke:#000000; stroke-linecap:round; stroke-linejoin:round; stroke-width:4; stroke-opacity:1; fill:none" points="999.5,1254.52 999.5,1235.62 "/>
<polyline clip-path="url(#clip650)" style="stroke:#000000; stroke-linecap:round; stroke-linejoin:round; stroke-width:4; stroke-opacity:1; fill:none" points="1387.61,1254.52 1387.61,1235.62 "/>
<polyline clip-path="url(#clip650)" style="stroke:#000000; stroke-linecap:round; stroke-linejoin:round; stroke-width:4; stroke-opacity:1; fill:none" points="1775.73,1254.52 1775.73,1235.62 "/>
<path clip-path="url(#clip650)" d="M223.272 1281.6 Q219.661 1281.6 217.832 1285.16 Q216.027 1288.7 216.027 1295.83 Q216.027 1302.94 217.832 1306.51 Q219.661 1310.05 223.272 1310.05 Q226.906 1310.05 228.712 1306.51 Q230.54 1302.94 230.54 1295.83 Q230.54 1288.7 228.712 1285.16 Q226.906 1281.6 223.272 1281.6 M223.272 1277.89 Q229.082 1277.89 232.138 1282.5 Q235.216 1287.08 235.216 1295.83 Q235.216 1304.56 232.138 1309.17 Q229.082 1313.75 223.272 1313.75 Q217.462 1313.75 214.383 1309.17 Q211.328 1304.56 211.328 1295.83 Q211.328 1287.08 214.383 1282.5 Q217.462 1277.89 223.272 1277.89 Z" fill="#000000" fill-rule="nonzero" fill-opacity="1" /><path clip-path="url(#clip650)" d="M606.039 1309.14 L622.358 1309.14 L622.358 1313.08 L600.414 1313.08 L600.414 1309.14 Q603.076 1306.39 607.659 1301.76 Q612.265 1297.11 613.446 1295.77 Q615.691 1293.24 616.571 1291.51 Q617.474 1289.75 617.474 1288.06 Q617.474 1285.3 615.529 1283.57 Q613.608 1281.83 610.506 1281.83 Q608.307 1281.83 605.853 1282.59 Q603.423 1283.36 600.645 1284.91 L600.645 1280.19 Q603.469 1279.05 605.923 1278.47 Q608.377 1277.89 610.414 1277.89 Q615.784 1277.89 618.978 1280.58 Q622.173 1283.27 622.173 1287.76 Q622.173 1289.89 621.363 1291.81 Q620.576 1293.7 618.469 1296.3 Q617.89 1296.97 614.789 1300.19 Q611.687 1303.38 606.039 1309.14 Z" fill="#000000" fill-rule="nonzero" fill-opacity="1" /><path clip-path="url(#clip650)" d="M1002.51 1282.59 L990.703 1301.04 L1002.51 1301.04 L1002.51 1282.59 M1001.28 1278.52 L1007.16 1278.52 L1007.16 1301.04 L1012.09 1301.04 L1012.09 1304.93 L1007.16 1304.93 L1007.16 1313.08 L1002.51 1313.08 L1002.51 1304.93 L986.907 1304.93 L986.907 1300.42 L1001.28 1278.52 Z" fill="#000000" fill-rule="nonzero" fill-opacity="1" /><path clip-path="url(#clip650)" d="M1388.02 1293.94 Q1384.87 1293.94 1383.02 1296.09 Q1381.19 1298.24 1381.19 1301.99 Q1381.19 1305.72 1383.02 1307.89 Q1384.87 1310.05 1388.02 1310.05 Q1391.17 1310.05 1393 1307.89 Q1394.85 1305.72 1394.85 1301.99 Q1394.85 1298.24 1393 1296.09 Q1391.17 1293.94 1388.02 1293.94 M1397.3 1279.28 L1397.3 1283.54 Q1395.54 1282.71 1393.74 1282.27 Q1391.95 1281.83 1390.19 1281.83 Q1385.56 1281.83 1383.11 1284.95 Q1380.68 1288.08 1380.33 1294.4 Q1381.7 1292.39 1383.76 1291.32 Q1385.82 1290.23 1388.3 1290.23 Q1393.5 1290.23 1396.51 1293.4 Q1399.55 1296.55 1399.55 1301.99 Q1399.55 1307.32 1396.4 1310.53 Q1393.25 1313.75 1388.02 1313.75 Q1382.02 1313.75 1378.85 1309.17 Q1375.68 1304.56 1375.68 1295.83 Q1375.68 1287.64 1379.57 1282.78 Q1383.46 1277.89 1390.01 1277.89 Q1391.77 1277.89 1393.55 1278.24 Q1395.36 1278.59 1397.3 1279.28 Z" fill="#000000" fill-rule="nonzero" fill-opacity="1" /><path clip-path="url(#clip650)" d="M1775.73 1296.67 Q1772.39 1296.67 1770.47 1298.45 Q1768.57 1300.23 1768.57 1303.36 Q1768.57 1306.48 1770.47 1308.27 Q1772.39 1310.05 1775.73 1310.05 Q1779.06 1310.05 1780.98 1308.27 Q1782.9 1306.46 1782.9 1303.36 Q1782.9 1300.23 1780.98 1298.45 Q1779.08 1296.67 1775.73 1296.67 M1771.05 1294.68 Q1768.04 1293.94 1766.35 1291.88 Q1764.69 1289.82 1764.69 1286.85 Q1764.69 1282.71 1767.63 1280.3 Q1770.59 1277.89 1775.73 1277.89 Q1780.89 1277.89 1783.83 1280.3 Q1786.77 1282.71 1786.77 1286.85 Q1786.77 1289.82 1785.08 1291.88 Q1783.41 1293.94 1780.43 1294.68 Q1783.81 1295.46 1785.68 1297.76 Q1787.58 1300.05 1787.58 1303.36 Q1787.58 1308.38 1784.5 1311.07 Q1781.45 1313.75 1775.73 1313.75 Q1770.01 1313.75 1766.93 1311.07 Q1763.88 1308.38 1763.88 1303.36 Q1763.88 1300.05 1765.77 1297.76 Q1767.67 1295.46 1771.05 1294.68 M1769.34 1287.29 Q1769.34 1289.98 1771.01 1291.48 Q1772.7 1292.99 1775.73 1292.99 Q1778.74 1292.99 1780.43 1291.48 Q1782.14 1289.98 1782.14 1287.29 Q1782.14 1284.61 1780.43 1283.1 Q1778.74 1281.6 1775.73 1281.6 Q1772.7 1281.6 1771.01 1283.1 Q1769.34 1284.61 1769.34 1287.29 Z" fill="#000000" fill-rule="nonzero" fill-opacity="1" /><path clip-path="url(#clip650)" d="M933.802 1356.05 Q933.802 1356.95 933.384 1357.18 Q932.965 1357.37 931.806 1357.37 L925.622 1357.37 L920.727 1376.82 Q920.34 1378.53 920.34 1379.98 Q920.34 1381.59 920.823 1382.3 Q921.339 1383.01 922.402 1383.01 Q924.495 1383.01 926.749 1381.11 Q929.036 1379.21 930.968 1374.57 Q931.226 1373.96 931.355 1373.83 Q931.516 1373.67 931.934 1373.67 Q932.74 1373.67 932.74 1374.31 Q932.74 1374.54 932.289 1375.57 Q931.87 1376.6 930.936 1378.11 Q930.034 1379.62 928.843 1381.04 Q927.683 1382.46 925.912 1383.49 Q924.141 1384.49 922.241 1384.49 Q919.567 1384.49 917.861 1382.78 Q916.186 1381.07 916.186 1378.4 Q916.186 1377.53 916.862 1374.76 Q917.538 1371.96 921.21 1357.37 L915.381 1357.37 Q914.576 1357.37 914.253 1357.34 Q913.964 1357.31 913.738 1357.14 Q913.545 1356.95 913.545 1356.57 Q913.545 1355.95 913.803 1355.7 Q914.06 1355.41 914.382 1355.37 Q914.737 1355.31 915.542 1355.31 L921.725 1355.31 L924.302 1344.84 Q924.559 1343.81 925.203 1343.23 Q925.88 1342.62 926.266 1342.56 Q926.653 1342.46 926.943 1342.46 Q927.812 1342.46 928.327 1342.94 Q928.843 1343.39 928.843 1344.23 Q928.843 1344.68 926.137 1355.31 L931.934 1355.31 Q932.675 1355.31 932.965 1355.34 Q933.287 1355.37 933.545 1355.53 Q933.802 1355.7 933.802 1356.05 Z" fill="#000000" fill-rule="nonzero" fill-opacity="1" /><path clip-path="url(#clip650)" d="M978.048 1334.29 Q973.783 1341.61 971.714 1348.77 Q969.646 1355.93 969.646 1363.28 Q969.646 1370.63 971.714 1377.86 Q973.815 1385.05 978.048 1392.34 L972.956 1392.34 Q968.181 1384.86 965.794 1377.64 Q963.439 1370.41 963.439 1363.28 Q963.439 1356.18 965.794 1348.99 Q968.15 1341.8 972.956 1334.29 L978.048 1334.29 Z" fill="#000000" fill-rule="nonzero" fill-opacity="1" /><path clip-path="url(#clip650)" d="M1004.24 1387.06 Q1001.76 1393.42 999.405 1395.36 Q997.05 1397.31 993.103 1397.31 L988.424 1397.31 L988.424 1392.4 L991.862 1392.4 Q994.281 1392.4 995.618 1391.26 Q996.954 1390.11 998.578 1385.85 L999.628 1383.17 L985.21 1348.1 L991.416 1348.1 L1002.56 1375.98 L1013.7 1348.1 L1019.9 1348.1 L1004.24 1387.06 Z" fill="#000000" fill-rule="nonzero" fill-opacity="1" /><path clip-path="url(#clip650)" d="M1058.48 1364.46 L1058.48 1367.32 L1031.55 1367.32 Q1031.93 1373.37 1035.18 1376.55 Q1038.46 1379.7 1044.28 1379.7 Q1047.66 1379.7 1050.81 1378.88 Q1053.99 1378.05 1057.11 1376.39 L1057.11 1381.93 Q1053.96 1383.27 1050.65 1383.97 Q1047.34 1384.67 1043.93 1384.67 Q1035.4 1384.67 1030.41 1379.7 Q1025.44 1374.74 1025.44 1366.27 Q1025.44 1357.52 1030.15 1352.4 Q1034.89 1347.24 1042.91 1347.24 Q1050.11 1347.24 1054.28 1351.89 Q1058.48 1356.5 1058.48 1364.46 M1052.62 1362.74 Q1052.56 1357.93 1049.92 1355.07 Q1047.31 1352.2 1042.98 1352.2 Q1038.08 1352.2 1035.12 1354.97 Q1032.19 1357.74 1031.74 1362.77 L1052.62 1362.74 Z" fill="#000000" fill-rule="nonzero" fill-opacity="1" /><path clip-path="url(#clip650)" d="M1084.29 1365.83 Q1077.19 1365.83 1074.46 1367.45 Q1071.72 1369.07 1071.72 1372.99 Q1071.72 1376.11 1073.76 1377.95 Q1075.83 1379.77 1079.36 1379.77 Q1084.23 1379.77 1087.16 1376.33 Q1090.12 1372.86 1090.12 1367.13 L1090.12 1365.83 L1084.29 1365.83 M1095.97 1363.41 L1095.97 1383.75 L1090.12 1383.75 L1090.12 1378.34 Q1088.11 1381.58 1085.12 1383.14 Q1082.13 1384.67 1077.8 1384.67 Q1072.32 1384.67 1069.08 1381.61 Q1065.86 1378.53 1065.86 1373.37 Q1065.86 1367.36 1069.87 1364.3 Q1073.92 1361.24 1081.9 1361.24 L1090.12 1361.24 L1090.12 1360.67 Q1090.12 1356.63 1087.44 1354.43 Q1084.8 1352.2 1080 1352.2 Q1076.94 1352.2 1074.04 1352.94 Q1071.15 1353.67 1068.47 1355.13 L1068.47 1349.72 Q1071.69 1348.48 1074.71 1347.88 Q1077.74 1347.24 1080.6 1347.24 Q1088.33 1347.24 1092.15 1351.25 Q1095.97 1355.26 1095.97 1363.41 Z" fill="#000000" fill-rule="nonzero" fill-opacity="1" /><path clip-path="url(#clip650)" d="M1128.69 1353.57 Q1127.71 1353 1126.53 1352.75 Q1125.38 1352.46 1123.98 1352.46 Q1119.02 1352.46 1116.34 1355.71 Q1113.7 1358.92 1113.7 1364.97 L1113.7 1383.75 L1107.81 1383.75 L1107.81 1348.1 L1113.7 1348.1 L1113.7 1353.64 Q1115.55 1350.39 1118.51 1348.83 Q1121.47 1347.24 1125.7 1347.24 Q1126.31 1347.24 1127.04 1347.34 Q1127.77 1347.4 1128.66 1347.56 L1128.69 1353.57 Z" fill="#000000" fill-rule="nonzero" fill-opacity="1" /><path clip-path="url(#clip650)" d="M1157.56 1349.15 L1157.56 1354.69 Q1155.08 1353.41 1152.41 1352.78 Q1149.73 1352.14 1146.87 1352.14 Q1142.51 1352.14 1140.31 1353.48 Q1138.15 1354.81 1138.15 1357.49 Q1138.15 1359.53 1139.71 1360.7 Q1141.27 1361.85 1145.98 1362.9 L1147.98 1363.34 Q1154.22 1364.68 1156.83 1367.13 Q1159.47 1369.55 1159.47 1373.91 Q1159.47 1378.88 1155.52 1381.77 Q1151.61 1384.67 1144.73 1384.67 Q1141.87 1384.67 1138.75 1384.1 Q1135.66 1383.56 1132.23 1382.44 L1132.23 1376.39 Q1135.47 1378.08 1138.62 1378.94 Q1141.77 1379.77 1144.86 1379.77 Q1149 1379.77 1151.23 1378.37 Q1153.46 1376.94 1153.46 1374.36 Q1153.46 1371.97 1151.83 1370.7 Q1150.24 1369.42 1144.8 1368.25 L1142.76 1367.77 Q1137.32 1366.62 1134.9 1364.27 Q1132.48 1361.88 1132.48 1357.74 Q1132.48 1352.71 1136.05 1349.98 Q1139.61 1347.24 1146.17 1347.24 Q1149.41 1347.24 1152.28 1347.72 Q1155.14 1348.19 1157.56 1349.15 Z" fill="#000000" fill-rule="nonzero" fill-opacity="1" /><path clip-path="url(#clip650)" d="M1167.87 1334.29 L1172.97 1334.29 Q1177.74 1341.8 1180.1 1348.99 Q1182.48 1356.18 1182.48 1363.28 Q1182.48 1370.41 1180.1 1377.64 Q1177.74 1384.86 1172.97 1392.34 L1167.87 1392.34 Q1172.11 1385.05 1174.18 1377.86 Q1176.28 1370.63 1176.28 1363.28 Q1176.28 1355.93 1174.18 1348.77 Q1172.11 1341.61 1167.87 1334.29 Z" fill="#000000" fill-rule="nonzero" fill-opacity="1" /><polyline clip-path="url(#clip650)" style="stroke:#000000; stroke-linecap:round; stroke-linejoin:round; stroke-width:4; stroke-opacity:1; fill:none" points="223.272,1254.52 223.272,47.2441 "/>
<polyline clip-path="url(#clip650)" style="stroke:#000000; stroke-linecap:round; stroke-linejoin:round; stroke-width:4; stroke-opacity:1; fill:none" points="223.272,1254.52 242.17,1254.52 "/>
<polyline clip-path="url(#clip650)" style="stroke:#000000; stroke-linecap:round; stroke-linejoin:round; stroke-width:4; stroke-opacity:1; fill:none" points="223.272,1013.06 242.17,1013.06 "/>
<polyline clip-path="url(#clip650)" style="stroke:#000000; stroke-linecap:round; stroke-linejoin:round; stroke-width:4; stroke-opacity:1; fill:none" points="223.272,771.61 242.17,771.61 "/>
<polyline clip-path="url(#clip650)" style="stroke:#000000; stroke-linecap:round; stroke-linejoin:round; stroke-width:4; stroke-opacity:1; fill:none" points="223.272,530.154 242.17,530.154 "/>
<polyline clip-path="url(#clip650)" style="stroke:#000000; stroke-linecap:round; stroke-linejoin:round; stroke-width:4; stroke-opacity:1; fill:none" points="223.272,288.699 242.17,288.699 "/>
<polyline clip-path="url(#clip650)" style="stroke:#000000; stroke-linecap:round; stroke-linejoin:round; stroke-width:4; stroke-opacity:1; fill:none" points="223.272,47.2441 242.17,47.2441 "/>
<path clip-path="url(#clip650)" d="M137.296 1240.32 Q133.685 1240.32 131.857 1243.88 Q130.051 1247.42 130.051 1254.55 Q130.051 1261.66 131.857 1265.23 Q133.685 1268.77 137.296 1268.77 Q140.931 1268.77 142.736 1265.23 Q144.565 1261.66 144.565 1254.55 Q144.565 1247.42 142.736 1243.88 Q140.931 1240.32 137.296 1240.32 M137.296 1236.61 Q143.107 1236.61 146.162 1241.22 Q149.241 1245.8 149.241 1254.55 Q149.241 1263.28 146.162 1267.89 Q143.107 1272.47 137.296 1272.47 Q131.486 1272.47 128.408 1267.89 Q125.352 1263.28 125.352 1254.55 Q125.352 1245.8 128.408 1241.22 Q131.486 1236.61 137.296 1236.61 Z" fill="#000000" fill-rule="nonzero" fill-opacity="1" /><path clip-path="url(#clip650)" d="M157.458 1265.92 L162.343 1265.92 L162.343 1271.8 L157.458 1271.8 L157.458 1265.92 Z" fill="#000000" fill-rule="nonzero" fill-opacity="1" /><path clip-path="url(#clip650)" d="M182.528 1240.32 Q178.917 1240.32 177.088 1243.88 Q175.282 1247.42 175.282 1254.55 Q175.282 1261.66 177.088 1265.23 Q178.917 1268.77 182.528 1268.77 Q186.162 1268.77 187.967 1265.23 Q189.796 1261.66 189.796 1254.55 Q189.796 1247.42 187.967 1243.88 Q186.162 1240.32 182.528 1240.32 M182.528 1236.61 Q188.338 1236.61 191.393 1241.22 Q194.472 1245.8 194.472 1254.55 Q194.472 1263.28 191.393 1267.89 Q188.338 1272.47 182.528 1272.47 Q176.717 1272.47 173.639 1267.89 Q170.583 1263.28 170.583 1254.55 Q170.583 1245.8 173.639 1241.22 Q176.717 1236.61 182.528 1236.61 Z" fill="#000000" fill-rule="nonzero" fill-opacity="1" /><path clip-path="url(#clip650)" d="M138.894 998.863 Q135.283 998.863 133.454 1002.43 Q131.648 1005.97 131.648 1013.1 Q131.648 1020.21 133.454 1023.77 Q135.283 1027.31 138.894 1027.31 Q142.528 1027.31 144.333 1023.77 Q146.162 1020.21 146.162 1013.1 Q146.162 1005.97 144.333 1002.43 Q142.528 998.863 138.894 998.863 M138.894 995.16 Q144.704 995.16 147.759 999.766 Q150.838 1004.35 150.838 1013.1 Q150.838 1021.83 147.759 1026.43 Q144.704 1031.02 138.894 1031.02 Q133.083 1031.02 130.005 1026.43 Q126.949 1021.83 126.949 1013.1 Q126.949 1004.35 130.005 999.766 Q133.083 995.16 138.894 995.16 Z" fill="#000000" fill-rule="nonzero" fill-opacity="1" /><path clip-path="url(#clip650)" d="M159.056 1024.47 L163.94 1024.47 L163.94 1030.34 L159.056 1030.34 L159.056 1024.47 Z" fill="#000000" fill-rule="nonzero" fill-opacity="1" /><path clip-path="url(#clip650)" d="M178.153 1026.41 L194.472 1026.41 L194.472 1030.34 L172.528 1030.34 L172.528 1026.41 Q175.19 1023.65 179.773 1019.03 Q184.379 1014.37 185.56 1013.03 Q187.805 1010.51 188.685 1008.77 Q189.588 1007.01 189.588 1005.32 Q189.588 1002.57 187.643 1000.83 Q185.722 999.095 182.62 999.095 Q180.421 999.095 177.967 999.859 Q175.537 1000.62 172.759 1002.17 L172.759 997.451 Q175.583 996.317 178.037 995.738 Q180.491 995.16 182.528 995.16 Q187.898 995.16 191.092 997.845 Q194.287 1000.53 194.287 1005.02 Q194.287 1007.15 193.477 1009.07 Q192.69 1010.97 190.583 1013.56 Q190.004 1014.23 186.903 1017.45 Q183.801 1020.65 178.153 1026.41 Z" fill="#000000" fill-rule="nonzero" fill-opacity="1" /><path clip-path="url(#clip650)" d="M136.81 757.408 Q133.199 757.408 131.371 760.973 Q129.565 764.515 129.565 771.644 Q129.565 778.751 131.371 782.316 Q133.199 785.857 136.81 785.857 Q140.445 785.857 142.25 782.316 Q144.079 778.751 144.079 771.644 Q144.079 764.515 142.25 760.973 Q140.445 757.408 136.81 757.408 M136.81 753.705 Q142.62 753.705 145.676 758.311 Q148.755 762.894 148.755 771.644 Q148.755 780.371 145.676 784.978 Q142.62 789.561 136.81 789.561 Q131 789.561 127.921 784.978 Q124.866 780.371 124.866 771.644 Q124.866 762.894 127.921 758.311 Q131 753.705 136.81 753.705 Z" fill="#000000" fill-rule="nonzero" fill-opacity="1" /><path clip-path="url(#clip650)" d="M156.972 783.01 L161.856 783.01 L161.856 788.89 L156.972 788.89 L156.972 783.01 Z" fill="#000000" fill-rule="nonzero" fill-opacity="1" /><path clip-path="url(#clip650)" d="M184.889 758.404 L173.083 776.853 L184.889 776.853 L184.889 758.404 M183.662 754.33 L189.541 754.33 L189.541 776.853 L194.472 776.853 L194.472 780.741 L189.541 780.741 L189.541 788.89 L184.889 788.89 L184.889 780.741 L169.287 780.741 L169.287 776.228 L183.662 754.33 Z" fill="#000000" fill-rule="nonzero" fill-opacity="1" /><path clip-path="url(#clip650)" d="M137.134 515.953 Q133.523 515.953 131.695 519.518 Q129.889 523.06 129.889 530.189 Q129.889 537.296 131.695 540.86 Q133.523 544.402 137.134 544.402 Q140.769 544.402 142.574 540.86 Q144.403 537.296 144.403 530.189 Q144.403 523.06 142.574 519.518 Q140.769 515.953 137.134 515.953 M137.134 512.249 Q142.945 512.249 146 516.856 Q149.079 521.439 149.079 530.189 Q149.079 538.916 146 543.522 Q142.945 548.106 137.134 548.106 Q131.324 548.106 128.246 543.522 Q125.19 538.916 125.19 530.189 Q125.19 521.439 128.246 516.856 Q131.324 512.249 137.134 512.249 Z" fill="#000000" fill-rule="nonzero" fill-opacity="1" /><path clip-path="url(#clip650)" d="M157.296 541.555 L162.181 541.555 L162.181 547.434 L157.296 547.434 L157.296 541.555 Z" fill="#000000" fill-rule="nonzero" fill-opacity="1" /><path clip-path="url(#clip650)" d="M182.944 528.291 Q179.796 528.291 177.944 530.444 Q176.116 532.597 176.116 536.346 Q176.116 540.073 177.944 542.249 Q179.796 544.402 182.944 544.402 Q186.092 544.402 187.921 542.249 Q189.773 540.073 189.773 536.346 Q189.773 532.597 187.921 530.444 Q186.092 528.291 182.944 528.291 M192.227 513.638 L192.227 517.898 Q190.467 517.064 188.662 516.624 Q186.879 516.185 185.12 516.185 Q180.491 516.185 178.037 519.31 Q175.606 522.435 175.259 528.754 Q176.625 526.74 178.685 525.675 Q180.745 524.587 183.222 524.587 Q188.43 524.587 191.44 527.759 Q194.472 530.907 194.472 536.346 Q194.472 541.671 191.324 544.888 Q188.176 548.106 182.944 548.106 Q176.949 548.106 173.778 543.522 Q170.606 538.916 170.606 530.189 Q170.606 521.995 174.495 517.134 Q178.384 512.249 184.935 512.249 Q186.694 512.249 188.477 512.597 Q190.282 512.944 192.227 513.638 Z" fill="#000000" fill-rule="nonzero" fill-opacity="1" /><path clip-path="url(#clip650)" d="M137.389 274.498 Q133.778 274.498 131.949 278.063 Q130.144 281.604 130.144 288.734 Q130.144 295.84 131.949 299.405 Q133.778 302.947 137.389 302.947 Q141.023 302.947 142.829 299.405 Q144.657 295.84 144.657 288.734 Q144.657 281.604 142.829 278.063 Q141.023 274.498 137.389 274.498 M137.389 270.794 Q143.199 270.794 146.255 275.401 Q149.333 279.984 149.333 288.734 Q149.333 297.461 146.255 302.067 Q143.199 306.651 137.389 306.651 Q131.579 306.651 128.5 302.067 Q125.445 297.461 125.445 288.734 Q125.445 279.984 128.5 275.401 Q131.579 270.794 137.389 270.794 Z" fill="#000000" fill-rule="nonzero" fill-opacity="1" /><path clip-path="url(#clip650)" d="M157.551 300.1 L162.435 300.1 L162.435 305.979 L157.551 305.979 L157.551 300.1 Z" fill="#000000" fill-rule="nonzero" fill-opacity="1" /><path clip-path="url(#clip650)" d="M182.62 289.567 Q179.287 289.567 177.366 291.35 Q175.467 293.132 175.467 296.257 Q175.467 299.382 177.366 301.164 Q179.287 302.947 182.62 302.947 Q185.954 302.947 187.875 301.164 Q189.796 299.359 189.796 296.257 Q189.796 293.132 187.875 291.35 Q185.977 289.567 182.62 289.567 M177.944 287.577 Q174.935 286.836 173.245 284.776 Q171.579 282.715 171.579 279.753 Q171.579 275.609 174.518 273.202 Q177.481 270.794 182.62 270.794 Q187.782 270.794 190.722 273.202 Q193.662 275.609 193.662 279.753 Q193.662 282.715 191.972 284.776 Q190.305 286.836 187.319 287.577 Q190.699 288.364 192.574 290.655 Q194.472 292.947 194.472 296.257 Q194.472 301.28 191.393 303.965 Q188.338 306.651 182.62 306.651 Q176.903 306.651 173.824 303.965 Q170.768 301.28 170.768 296.257 Q170.768 292.947 172.667 290.655 Q174.565 288.364 177.944 287.577 M176.231 280.192 Q176.231 282.878 177.898 284.382 Q179.588 285.887 182.62 285.887 Q185.629 285.887 187.319 284.382 Q189.032 282.878 189.032 280.192 Q189.032 277.507 187.319 276.003 Q185.629 274.498 182.62 274.498 Q179.588 274.498 177.898 276.003 Q176.231 277.507 176.231 280.192 Z" fill="#000000" fill-rule="nonzero" fill-opacity="1" /><path clip-path="url(#clip650)" d="M128.107 60.5889 L135.745 60.5889 L135.745 34.2233 L127.435 35.89 L127.435 31.6308 L135.699 29.9641 L140.375 29.9641 L140.375 60.5889 L148.014 60.5889 L148.014 64.5241 L128.107 64.5241 L128.107 60.5889 Z" fill="#000000" fill-rule="nonzero" fill-opacity="1" /><path clip-path="url(#clip650)" d="M157.458 58.6445 L162.343 58.6445 L162.343 64.5241 L157.458 64.5241 L157.458 58.6445 Z" fill="#000000" fill-rule="nonzero" fill-opacity="1" /><path clip-path="url(#clip650)" d="M182.528 33.0428 Q178.917 33.0428 177.088 36.6076 Q175.282 40.1492 175.282 47.2788 Q175.282 54.3853 177.088 57.9501 Q178.917 61.4917 182.528 61.4917 Q186.162 61.4917 187.967 57.9501 Q189.796 54.3853 189.796 47.2788 Q189.796 40.1492 187.967 36.6076 Q186.162 33.0428 182.528 33.0428 M182.528 29.3391 Q188.338 29.3391 191.393 33.9456 Q194.472 38.5289 194.472 47.2788 Q194.472 56.0056 191.393 60.6121 Q188.338 65.1954 182.528 65.1954 Q176.717 65.1954 173.639 60.6121 Q170.583 56.0056 170.583 47.2788 Q170.583 38.5289 173.639 33.9456 Q176.717 29.3391 182.528 29.3391 Z" fill="#000000" fill-rule="nonzero" fill-opacity="1" /><path clip-path="url(#clip650)" d="M59.58 713.252 Q64.2821 713.252 68.8231 715.635 Q73.3641 717.986 76.166 721.689 Q78.9357 725.393 78.9357 729.161 Q78.9357 731.416 77.7119 732.929 Q76.4559 734.411 74.6846 735.216 Q76.8746 735.828 82.1241 737.148 Q87.3737 738.469 87.889 738.469 Q88.1788 738.469 88.3076 738.404 Q88.4365 738.34 88.5975 738.05 Q88.7907 737.76 88.8551 737.052 Q88.9518 736.343 88.9518 735.152 Q88.9518 734.54 88.9518 734.314 Q88.984 734.057 89.145 733.831 Q89.306 733.573 89.6603 733.573 Q90.9807 733.573 90.9807 734.765 Q90.9807 735.828 90.8841 738.018 Q90.7875 740.208 90.7875 741.303 Q90.7875 742.237 90.8841 744.105 Q90.9807 745.973 90.9807 746.842 Q90.9807 747.712 90.2078 747.712 Q89.7569 747.712 89.4671 747.583 Q89.2094 747.486 89.0806 747.229 Q88.984 746.971 88.9518 746.746 Q88.9518 746.552 88.9518 746.166 Q88.9518 744.684 88.6941 744.04 Q88.4687 743.396 87.9856 743.171 Q87.5347 742.913 86.2465 742.623 L56.8747 735.216 Q54.9102 734.765 53.5253 734.765 Q51.7862 734.765 51.1421 735.313 Q50.498 735.86 50.498 736.826 Q50.498 738.501 52.4947 739.596 Q54.4915 740.691 58.3562 741.625 Q59.419 741.915 59.6444 742.108 Q59.8699 742.269 59.8699 742.752 Q59.8377 743.557 59.1935 743.557 Q59.0325 743.557 58.0019 743.3 Q56.9391 743.042 55.3933 742.559 Q53.8152 742.044 52.8168 741.496 Q52.1405 741.174 51.6896 740.884 Q51.2387 740.594 50.5302 740.015 Q49.8216 739.403 49.4352 738.533 Q49.0487 737.664 49.0487 736.601 Q49.0487 734.54 50.2725 732.833 Q51.4963 731.126 53.9762 730.675 Q51.8184 728.839 50.4336 726.585 Q49.0487 724.33 49.0487 722.044 Q49.0487 718.243 52.0116 715.764 Q54.9424 713.252 59.58 713.252 M56.6815 718.018 Q53.7508 718.018 52.1405 719.145 Q50.498 720.24 50.498 722.237 Q50.498 724.717 53.01 727.583 Q55.3933 730.417 57.6155 730.997 L70.53 734.25 L71.5928 734.443 Q71.786 734.443 72.3657 734.346 Q72.9132 734.218 73.815 733.863 Q74.7168 733.477 75.5219 732.962 Q76.2949 732.414 76.8746 731.448 Q77.4543 730.449 77.4543 729.226 Q77.4543 727.261 75.7152 725.135 Q73.976 722.978 70.691 721.367 Q68.5655 720.369 63.9922 719.21 Q59.3868 718.018 56.6815 718.018 Z" fill="#000000" fill-rule="nonzero" fill-opacity="1" /><path clip-path="url(#clip650)" d="M96.3743 681.523 Q96.5547 681.523 97.2536 681.726 Q97.9524 681.929 99.0345 682.425 Q100.117 682.898 101.109 683.552 Q102.078 684.206 102.799 685.288 Q103.498 686.347 103.498 687.565 Q103.498 689.188 102.416 690.27 Q101.334 691.352 99.7109 691.352 Q98.8091 691.352 97.5692 690.879 Q89.566 687.88 86.8156 687.88 Q83.5918 687.88 83.5918 690.383 Q83.5918 691.623 84.0653 692.795 Q84.5161 693.945 85.1474 694.734 Q85.7786 695.523 86.6578 696.244 Q87.5145 696.943 88.1006 697.304 Q88.6643 697.642 89.2279 697.912 L91.5274 698.499 Q92.1586 698.634 94.6159 699.288 L98.7866 700.302 Q101.898 701.023 102.191 701.181 Q102.822 701.407 103.16 701.903 Q103.498 702.399 103.498 702.895 Q103.498 703.458 103.16 703.842 Q102.822 704.225 102.236 704.225 Q102.146 704.225 101.807 704.157 Q101.469 704.089 100.996 703.977 Q100.522 703.864 100.252 703.819 L89.5886 701.136 Q87.6498 700.64 87.0411 700.528 Q86.4098 700.392 85.711 700.392 Q83.5918 700.392 83.5918 701.835 Q83.5918 703.007 84.9896 703.774 Q86.3873 704.54 89.0926 705.194 Q89.8365 705.397 89.9944 705.532 Q90.1522 705.645 90.1522 705.983 Q90.1296 706.547 89.6787 706.547 Q89.566 706.547 88.8221 706.366 Q88.0781 706.186 87.0185 705.848 Q85.9364 705.487 85.215 705.149 Q84.6739 704.856 84.426 704.698 Q84.1554 704.518 83.6369 704.089 Q83.0959 703.639 82.8479 703.052 Q82.5773 702.444 82.5773 701.7 Q82.5773 700.032 83.6595 698.814 Q84.719 697.597 86.5902 697.439 Q82.5773 694.441 82.5773 690.247 Q82.5773 687.768 83.8849 686.347 Q85.1925 684.927 87.5145 684.927 Q88.0556 684.927 88.7544 685.04 Q89.4308 685.13 90.2874 685.355 Q91.1441 685.558 91.7979 685.739 Q92.4517 685.919 93.5112 686.28 Q94.5483 686.64 94.9991 686.798 Q95.45 686.956 96.5096 687.339 Q97.5466 687.7 97.6593 687.745 Q99.756 688.579 100.951 688.579 Q101.74 688.579 102.101 688.331 Q102.461 688.061 102.461 687.474 Q102.461 685.896 100.906 684.724 Q99.3276 683.529 96.7576 682.763 Q96.194 682.582 96.0587 682.492 Q95.9235 682.38 95.9235 682.064 Q95.9235 681.523 96.3743 681.523 Z" fill="#000000" fill-rule="nonzero" fill-opacity="1" /><path clip-path="url(#clip650)" d="M61.7056 674.727 Q50.5624 674.727 41.5769 670.572 Q37.8089 668.801 34.6527 666.321 Q31.4965 663.841 30.1117 662.199 Q28.7268 660.556 28.7268 660.105 Q28.7268 659.461 29.3709 659.429 Q29.693 659.429 30.4981 660.299 Q41.3193 670.927 61.7056 670.894 Q82.1563 670.894 92.5588 660.556 Q93.686 659.429 94.0403 659.429 Q94.6844 659.429 94.6844 660.105 Q94.6844 660.556 93.364 662.134 Q92.0435 663.712 89.0162 666.16 Q85.9888 668.608 82.2852 670.379 Q73.2997 674.727 61.7056 674.727 Z" fill="#000000" fill-rule="nonzero" fill-opacity="1" /><path clip-path="url(#clip650)" d="M34.2018 626.108 Q34.6849 626.108 35.3934 626.462 Q36.0375 626.784 36.4562 627.461 Q36.8427 628.105 36.8427 628.813 Q36.8427 629.039 36.7139 629.554 Q36.3274 630.424 35.4578 631.776 Q34.5883 633.129 34.0408 634.353 Q33.4611 635.544 33.3967 636.865 Q33.3967 638.024 33.8153 638.99 Q34.2984 639.86 35.329 640.44 Q35.7477 640.697 36.4562 640.697 Q37.4546 640.697 38.775 640.15 Q40.0955 639.602 41.8024 638.475 Q43.5093 637.316 44.6687 636.478 Q45.7959 635.641 47.6639 634.192 Q47.8249 634.063 47.9215 633.999 Q47.9859 633.934 48.1469 633.838 Q48.2758 633.741 48.3724 633.644 Q52.2049 630.585 56.4238 629.812 Q57.9053 629.619 59.4512 629.619 Q62.543 629.619 66.1822 630.553 Q69.4994 631.358 72.3657 633.065 Q75.1999 634.771 77.0678 637.348 Q78.9357 639.892 78.9357 642.662 Q78.9357 645.399 77.7441 647.654 Q76.5203 649.908 74.4269 651.261 Q71.6572 653.097 67.8247 653.097 Q65.6669 653.097 63.8312 652.581 Q60.9005 651.873 58.1952 650.198 Q55.4899 648.523 53.3965 646.108 Q50.3047 642.436 49.4352 638.443 Q45.8925 640.311 43.155 641.406 Q40.3853 642.469 38.0343 642.469 Q35.9731 642.469 34.6527 641.696 Q33.2356 641.019 32.4305 639.635 Q31.7219 638.475 31.3677 636.8 Q31.2389 635.77 31.2389 635.094 Q31.2389 632.807 32.4949 627.493 Q32.8169 626.108 34.2018 626.108 M62.0921 634.16 Q60.1275 634.16 58.8071 634.482 Q55.5865 635.094 51.1421 637.541 L50.82 637.734 Q51.7218 640.858 54.4593 643.403 Q57.8087 646.591 64.1533 648.201 Q67.6959 649.071 69.6927 649.071 Q71.8505 649.071 73.7184 648.266 Q75.4575 647.493 76.4559 646.044 Q77.4543 644.562 77.4543 642.597 Q77.4543 641.116 76.6169 639.828 Q75.7474 638.54 74.2337 637.606 Q72.72 636.672 71.0775 636.028 Q69.4028 635.351 67.4382 634.836 Q64.7974 634.16 62.0921 634.16 Z" fill="#000000" fill-rule="nonzero" fill-opacity="1" /><path clip-path="url(#clip650)" d="M92.6554 616.446 L31.2389 616.446 Q28.7912 616.446 28.7912 615.126 Q28.7912 613.805 30.7558 613.805 L92.1724 613.805 Q94.62 613.805 94.62 615.126 Q94.62 616.446 92.6554 616.446 Z" fill="#000000" fill-rule="nonzero" fill-opacity="1" /><path clip-path="url(#clip650)" d="M50.498 584.541 Q51.3997 584.541 51.6252 584.959 Q51.8184 585.378 51.8184 586.537 L51.8184 592.721 L71.2707 597.616 Q72.9777 598.003 74.4269 598.003 Q76.0372 598.003 76.7457 597.52 Q77.4543 597.004 77.4543 595.942 Q77.4543 593.848 75.5541 591.594 Q73.654 589.307 69.0163 587.375 Q68.4044 587.117 68.2756 586.988 Q68.1146 586.827 68.1146 586.409 Q68.1146 585.604 68.7587 585.604 Q68.9841 585.604 70.0147 586.054 Q71.0453 586.473 72.559 587.407 Q74.0727 588.309 75.4897 589.5 Q76.9068 590.66 77.9374 592.431 Q78.9357 594.202 78.9357 596.103 Q78.9357 598.776 77.2288 600.483 Q75.5219 602.157 72.8488 602.157 Q71.9793 602.157 69.2096 601.481 Q66.4077 600.805 51.8184 597.133 L51.8184 602.962 Q51.8184 603.768 51.7862 604.09 Q51.754 604.38 51.593 604.605 Q51.3997 604.798 51.0133 604.798 Q50.4013 604.798 50.1437 604.541 Q49.8538 604.283 49.8216 603.961 Q49.7572 603.607 49.7572 602.801 L49.7572 596.618 L39.2903 594.041 Q38.2597 593.784 37.68 593.14 Q37.0681 592.463 37.0037 592.077 Q36.9071 591.69 36.9071 591.401 Q36.9071 590.531 37.3902 590.016 Q37.8411 589.5 38.6784 589.5 Q39.1293 589.5 49.7572 592.206 L49.7572 586.409 Q49.7572 585.668 49.7894 585.378 Q49.8216 585.056 49.9827 584.798 Q50.1437 584.541 50.498 584.541 Z" fill="#000000" fill-rule="nonzero" fill-opacity="1" /><path clip-path="url(#clip650)" d="M94.0403 579.378 Q93.7182 579.378 92.9131 578.541 Q82.0919 567.913 61.7056 567.913 Q41.2549 567.913 30.9168 578.122 Q29.7252 579.378 29.3709 579.378 Q28.7268 579.378 28.7268 578.734 Q28.7268 578.283 30.0472 576.705 Q31.3677 575.095 34.395 572.68 Q37.4224 570.232 41.1261 568.428 Q50.1115 564.081 61.7056 564.081 Q72.8488 564.081 81.8343 568.235 Q85.6024 570.006 88.7585 572.486 Q91.9147 574.966 93.2996 576.609 Q94.6844 578.251 94.6844 578.734 Q94.6844 579.378 94.0403 579.378 Z" fill="#000000" fill-rule="nonzero" fill-opacity="1" /><polyline clip-path="url(#clip652)" style="stroke:#e26f46; stroke-linecap:round; stroke-linejoin:round; stroke-width:4; stroke-opacity:1; fill:none" points="232.975,863.555 242.678,857.453 252.381,853.598 262.083,846.273 271.786,834.295 281.489,809.346 291.192,773.843 300.895,707.488 310.598,600.674 320.3,340.101 330.003,287.291 339.706,284.368 349.409,284.267 359.112,283.784 368.815,282.994 378.518,282.399 388.22,282.3 397.923,282.156 407.626,281.443 417.329,280.905 427.032,280.696 436.735,279.852 446.437,278.979 456.14,278.097 465.843,277.855 475.546,276.995 485.249,276.3 494.952,275.31 504.655,273.716 514.357,272.343 524.06,271.179 533.763,268.742 543.466,265.702 553.169,258.284 562.872,255.933 572.574,254.159 582.277,253.3 591.98,251.754 601.683,250.248 611.386,248.255 621.089,246.485 630.792,244.957 640.494,243.679 650.197,243.09 659.9,242.477 669.603,242.204 679.306,241.96 689.009,241.885 698.711,241.983 708.414,241.844 718.117,241.802 727.82,241.814 737.523,241.741 747.226,241.813 756.929,241.979 766.631,242.107 776.334,242.17 786.037,242.326 795.74,242.468 805.443,242.548 815.146,242.697 824.848,242.855 834.551,243.025 844.254,243.307 853.957,243.71 863.66,243.943 873.363,244.03 883.066,244.347 892.768,244.666 902.471,244.847 912.174,245.139 921.877,245.784 931.58,246.482 941.283,247.039 950.985,247.945 960.688,249.012 970.391,250.074 980.094,251.382 989.797,251.612 999.5,251.864 1009.2,252 1018.91,252.356 1028.61,252.306 1038.31,252.667 1048.01,252.905 1057.72,253.326 1067.42,253.592 1077.12,253.572 1086.83,253.77 1096.53,253.981 1106.23,254.303 1115.93,254.604 1125.64,255.134 1135.34,255.486 1145.04,255.732 1154.75,256.145 1164.45,256.544 1174.15,257.056 1183.85,257.952 1193.56,258.882 1203.26,259.957 1212.96,260.604 1222.67,261.128 1232.37,261.415 1242.07,261.541 1251.77,261.832 1261.48,262.552 1271.18,262.701 1280.88,263.08 1290.59,263.351 1300.29,263.867 1309.99,263.894 1319.69,264.364 1329.4,264.717 1339.1,265.171 1348.8,265.409 1358.51,265.56 1368.21,266.007 1377.91,266.487 1387.61,266.77 1397.32,266.977 1407.02,267.412 1416.72,267.761 1426.42,268.405 1436.13,268.668 1445.83,268.942 1455.53,269.141 1465.24,269.444 1474.94,270.113 1484.64,270.466 1494.34,270.839 1504.05,271.388 1513.75,271.635 1523.45,272.768 1533.16,273.522 1542.86,274.718 1552.56,275.572 1562.26,276.451 1571.97,277.961 1581.67,279.039 1591.37,280.261 1601.08,282.067 1610.78,283.32 1620.48,284.4 1630.18,286.285 1639.89,288.267 1649.59,290.781 1659.29,293.979 1669,295.862 1678.7,298.527 1688.4,301.684 1698.1,305.038 1707.81,307.486 1717.51,309.951 1727.21,311.304 1736.92,314.481 1746.62,318.674 1756.32,323.155 1766.02,326.679 1775.73,331.724 1785.43,337.068 1795.13,344.707 1804.84,351.779 1814.54,359.934 1824.24,370.339 1833.94,379.832 1843.65,389.473 1853.35,396.326 1863.05,406.094 1872.76,415.707 1882.46,426.88 1892.16,438.69 1901.86,450.974 1911.57,454.296 1921.27,455.06 1930.97,455.727 1940.68,455.904 1950.38,456.478 1960.08,457.694 1969.78,458.476 1979.49,459.156 1989.19,460.062 1998.89,460.236 2008.6,460.866 2018.3,461.41 2028,462.348 2037.7,463.5 2047.41,464.8 2057.11,466.413 2066.81,466.84 2076.52,467.112 2086.22,467.387 2095.92,467.669 2105.62,467.964 2115.33,468.264 2125.03,468.571 2134.73,468.891 2144.44,469.225 2154.14,469.57 2163.84,469.924 2173.54,470.291 2183.25,470.676 2192.95,471.075 2202.65,471.486 2212.36,471.911 2222.06,472.357 2231.76,472.814 2241.46,473.29 2251.17,473.789 2260.87,474.303 2270.57,474.836 2280.28,475.387 2289.98,475.948 2299.68,476.532 2309.38,477.139 2319.09,477.775 2328.79,478.425 2338.49,479.092 2348.2,479.794 2357.9,480.522 2367.6,481.268 2377.3,482.039 2387.01,482.839 2396.71,483.674 2406.41,484.533 2416.12,485.419 2425.82,486.354 2435.52,487.317 2445.22,488.278 2454.93,489.278 2464.63,490.304 2474.33,491.385 2484.04,492.508 2493.74,493.65 2503.44,494.849 2513.14,496.094 2522.85,497.354 2532.55,498.63 2542.25,499.897 2551.96,501.204 "/>
<polyline clip-path="url(#clip652)" style="stroke:#3da44d; stroke-linecap:round; stroke-linejoin:round; stroke-width:4; stroke-opacity:1; fill:none" points="232.975,438.209 242.678,444.311 252.381,448.165 262.083,455.491 271.786,467.469 281.489,492.418 291.192,527.921 300.895,594.276 310.598,701.09 320.3,961.662 330.003,1014.47 339.706,1017.4 349.409,1017.5 359.112,1017.98 368.815,1018.77 378.518,1019.36 388.22,1019.46 397.923,1019.61 407.626,1020.32 417.329,1020.86 427.032,1021.07 436.735,1021.91 446.437,1022.78 456.14,1023.67 465.843,1023.91 475.546,1024.77 485.249,1025.46 494.952,1026.45 504.655,1028.05 514.357,1029.42 524.06,1030.58 533.763,1033.02 543.466,1036.06 553.169,1043.48 562.872,1045.83 572.574,1047.61 582.277,1048.46 591.98,1050.01 601.683,1051.52 611.386,1053.51 621.089,1055.28 630.792,1056.81 640.494,1058.09 650.197,1058.67 659.9,1059.29 669.603,1059.56 679.306,1059.8 689.009,1059.88 698.711,1059.78 708.414,1059.92 718.117,1059.96 727.82,1059.95 737.523,1060.02 747.226,1059.95 756.929,1059.79 766.631,1059.66 776.334,1059.59 786.037,1059.44 795.74,1059.3 805.443,1059.22 815.146,1059.07 824.848,1058.91 834.551,1058.74 844.254,1058.46 853.957,1058.05 863.66,1057.82 873.363,1057.73 883.066,1057.42 892.768,1057.1 902.471,1056.92 912.174,1056.63 921.877,1055.98 931.58,1055.28 941.283,1054.72 950.985,1053.82 960.688,1052.75 970.391,1051.69 980.094,1050.38 989.797,1050.15 999.5,1049.9 1009.2,1049.76 1018.91,1049.41 1028.61,1049.46 1038.31,1049.1 1048.01,1048.86 1057.72,1048.44 1067.42,1048.17 1077.12,1048.19 1086.83,1047.99 1096.53,1047.78 1106.23,1047.46 1115.93,1047.16 1125.64,1046.63 1135.34,1046.28 1145.04,1046.03 1154.75,1045.62 1164.45,1045.22 1174.15,1044.71 1183.85,1043.81 1193.56,1042.88 1203.26,1041.81 1212.96,1041.16 1222.67,1040.64 1232.37,1040.35 1242.07,1040.22 1251.77,1039.93 1261.48,1039.21 1271.18,1039.06 1280.88,1038.68 1290.59,1038.41 1300.29,1037.9 1309.99,1037.87 1319.69,1037.4 1329.4,1037.05 1339.1,1036.59 1348.8,1036.36 1358.51,1036.2 1368.21,1035.76 1377.91,1035.28 1387.61,1034.99 1397.32,1034.79 1407.02,1034.35 1416.72,1034 1426.42,1033.36 1436.13,1033.1 1445.83,1032.82 1455.53,1032.62 1465.24,1032.32 1474.94,1031.65 1484.64,1031.3 1494.34,1030.93 1504.05,1030.38 1513.75,1030.13 1523.45,1029 1533.16,1028.24 1542.86,1027.05 1552.56,1026.19 1562.26,1025.31 1571.97,1023.8 1581.67,1022.73 1591.37,1021.5 1601.08,1019.7 1610.78,1018.44 1620.48,1017.36 1630.18,1015.48 1639.89,1013.5 1649.59,1010.98 1659.29,1007.79 1669,1005.9 1678.7,1003.24 1688.4,1000.08 1698.1,996.726 1707.81,994.278 1717.51,991.813 1727.21,990.46 1736.92,987.283 1746.62,983.09 1756.32,978.609 1766.02,975.085 1775.73,970.039 1785.43,964.696 1795.13,957.057 1804.84,949.985 1814.54,941.83 1824.24,931.425 1833.94,921.932 1843.65,912.291 1853.35,905.438 1863.05,895.67 1872.76,886.057 1882.46,874.884 1892.16,863.074 1901.86,850.79 1911.57,847.468 1921.27,846.703 1930.97,846.036 1940.68,845.86 1950.38,845.286 1960.08,844.07 1969.78,843.288 1979.49,842.608 1989.19,841.702 1998.89,841.528 2008.6,840.898 2018.3,840.354 2028,839.416 2037.7,838.264 2047.41,836.964 2057.11,835.351 2066.81,834.924 2076.52,834.652 2086.22,834.377 2095.92,834.095 2105.62,833.8 2115.33,833.5 2125.03,833.192 2134.73,832.873 2144.44,832.539 2154.14,832.194 2163.84,831.84 2173.54,831.473 2183.25,831.088 2192.95,830.689 2202.65,830.278 2212.36,829.853 2222.06,829.407 2231.76,828.95 2241.46,828.474 2251.17,827.975 2260.87,827.461 2270.57,826.928 2280.28,826.377 2289.98,825.816 2299.68,825.232 2309.38,824.625 2319.09,823.989 2328.79,823.339 2338.49,822.672 2348.2,821.97 2357.9,821.242 2367.6,820.496 2377.3,819.725 2387.01,818.925 2396.71,818.09 2406.41,817.231 2416.12,816.345 2425.82,815.41 2435.52,814.447 2445.22,813.486 2454.93,812.486 2464.63,811.46 2474.33,810.379 2484.04,809.256 2493.74,808.114 2503.44,806.915 2513.14,805.67 2522.85,804.41 2532.55,803.134 2542.25,801.867 2551.96,800.56 "/>
<path clip-path="url(#clip652)" d="M232.975 1254.45 L242.678 1254.38 L252.381 1254.31 L262.083 1254.24 L271.786 1254.16 L281.489 1254.08 L291.192 1254 L300.895 1253.83 L310.598 1253.6 L320.3 1241.2 L330.003 489.989 L339.706 470.652 L349.409 470.738 L359.112 469.368 L368.815 465.555 L378.518 464.339 L388.22 462.623 L397.923 458.898 L407.626 453.691 L417.329 450.075 L427.032 450.226 L436.735 449.025 L446.437 447.579 L456.14 446.56 L465.843 446.576 L475.546 444.791 L485.249 443.683 L494.952 437.854 L504.655 432.488 L514.357 427.142 L524.06 420.704 L533.763 417.927 L543.466 408.28 L553.169 368.719 L562.872 360.277 L572.574 355.135 L582.277 347.948 L591.98 334.209 L601.683 329.055 L611.386 316.875 L621.089 309.913 L630.792 304.384 L640.494 301.059 L650.197 299.972 L659.9 297.148 L669.603 296.267 L679.306 295.776 L689.009 295.471 L698.711 295.387 L708.414 294.785 L718.117 294.707 L727.82 294.728 L737.523 294.649 L747.226 294.77 L756.929 294.806 L766.631 294.933 L776.334 294.962 L786.037 294.995 L795.74 295.048 L805.443 295.318 L815.146 295.332 L824.848 295.731 L834.551 295.789 L844.254 296.341 L853.957 296.379 L863.66 296.714 L873.363 297.117 L883.066 297.23 L892.768 297.89 L902.471 298.306 L912.174 299.172 L921.877 301.257 L931.58 302.871 L941.283 304.735 L950.985 306.653 L960.688 312.687 L970.391 318.999 L980.094 326.091 L989.797 326.292 L999.5 327.762 L1009.2 328.631 L1018.91 333.349 L1028.61 333.773 L1038.31 334.472 L1048.01 334.741 L1057.72 338.457 L1067.42 338.463 L1077.12 338.306 L1086.83 338.477 L1096.53 337.932 L1106.23 337.971 L1115.93 339.234 L1125.64 342.037 L1135.34 344.007 L1145.04 344.18 L1154.75 345.043 L1164.45 345.969 L1174.15 349.102 L1183.85 351.239 L1193.56 355.107 L1203.26 362.165 L1212.96 368.468 L1222.67 369.005 L1232.37 369.959 L1242.07 370.095 L1251.77 371.827 L1261.48 374.777 L1271.18 374.789 L1280.88 378.091 L1290.59 379.5 L1300.29 381.194 L1309.99 388.105 L1319.69 389.547 L1329.4 389.562 L1339.1 393.78 L1348.8 393.84 L1358.51 393.902 L1368.21 394.477 L1377.91 395.37 L1387.61 395.537 L1397.32 396.188 L1407.02 397.001 L1416.72 397.659 L1426.42 400.248 L1436.13 400.321 L1445.83 402.083 L1455.53 404.7 L1465.24 406.738 L1474.94 412.02 L1484.64 414.677 L1494.34 415.71 L1504.05 419.517 L1513.75 419.539 L1523.45 424.229 L1533.16 425.278 L1542.86 431.495 L1552.56 432.422 L1562.26 434.75 L1571.97 443.999 L1581.67 452.999 L1591.37 457.954 L1601.08 467.339 L1610.78 481.017 L1620.48 485.493 L1630.18 494.125 L1639.89 498.133 L1649.59 511.666 L1659.29 528.742 L1669 537.827 L1678.7 547.728 L1688.4 558.433 L1698.1 581.205 L1707.81 585.988 L1717.51 597.055 L1727.21 600.016 L1736.92 620.075 L1746.62 641.388 L1756.32 658.947 L1766.02 667.615 L1775.73 680.995 L1785.43 698.647 L1795.13 719.998 L1804.84 739.759 L1814.54 754.4 L1824.24 765.251 L1833.94 787.336 L1843.65 813.737 L1853.35 815.993 L1863.05 830.908 L1872.76 861.923 L1882.46 868.296 L1892.16 882.271 L1901.86 893.808 L1911.57 893.263 L1921.27 893.048 L1930.97 892.83 L1940.68 892.61 L1950.38 892.373 L1960.08 892.032 L1969.78 891.853 L1979.49 891.672 L1989.19 889.85 L1998.89 886.058 L2008.6 885.138 L2018.3 884.188 L2028 883.2 L2037.7 882.169 L2047.41 881.141 L2057.11 883.581 L2066.81 882.286 L2076.52 880.917 L2086.22 879.531 L2095.92 878.122 L2105.62 877.517 L2115.33 876.904 L2125.03 876.281 L2134.73 875.632 L2144.44 874.928 L2154.14 874.206 L2163.84 873.468 L2173.54 872.726 L2183.25 871.983 L2192.95 871.186 L2202.65 870.417 L2212.36 869.606 L2222.06 868.142 L2231.76 867.536 L2241.46 866.904 L2251.17 866.046 L2260.87 865.085 L2270.57 861.543 L2280.28 857.879 L2289.98 856.387 L2299.68 852.762 L2309.38 851.956 L2319.09 850.386 L2328.79 842.964 L2338.49 841.976 L2348.2 840.499 L2357.9 839.599 L2367.6 835.687 L2377.3 832.438 L2387.01 829.584 L2396.71 825.937 L2406.41 821.935 L2416.12 820.048 L2425.82 818.062 L2435.52 816.263 L2445.22 814.746 L2454.93 813.16 L2464.63 811.53 L2474.33 808.429 L2484.04 805.631 L2493.74 804.109 L2503.44 800.239 L2513.14 799.083 L2522.85 798.19 L2532.55 796.965 L2542.25 794.813 L2551.96 792.153 L2551.96 300.614 L2542.25 299.065 L2532.55 297.591 L2522.85 296.65 L2513.14 295.584 L2503.44 294.563 L2493.74 293.348 L2484.04 292.439 L2474.33 291.579 L2464.63 290.741 L2454.93 289.923 L2445.22 289.218 L2435.52 288.503 L2425.82 287.8 L2416.12 286.892 L2406.41 285.713 L2396.71 285.078 L2387.01 284.144 L2377.3 283.429 L2367.6 282.496 L2357.9 281.434 L2348.2 280.281 L2338.49 279.354 L2328.79 278.794 L2319.09 277.926 L2309.38 276.991 L2299.68 276.228 L2289.98 275.531 L2280.28 274.8 L2270.57 274.095 L2260.87 273.416 L2251.17 272.752 L2241.46 272.109 L2231.76 271.676 L2222.06 270.997 L2212.36 270.077 L2202.65 269.292 L2192.95 268.551 L2183.25 267.801 L2173.54 266.932 L2163.84 266.358 L2154.14 265.699 L2144.44 265.139 L2134.73 264.163 L2125.03 263.17 L2115.33 262.263 L2105.62 261.377 L2095.92 260.495 L2086.22 260.044 L2076.52 259.77 L2066.81 259.494 L2057.11 258.476 L2047.41 258.02 L2037.7 256.325 L2028 255.367 L2018.3 254.843 L2008.6 254.393 L1998.89 253.928 L1989.19 253.524 L1979.49 253.034 L1969.78 252.583 L1960.08 251.269 L1950.38 250.943 L1940.68 250.627 L1930.97 250.293 L1921.27 249.915 L1911.57 249.54 L1901.86 247.93 L1892.16 241.351 L1882.46 235.827 L1872.76 231.841 L1863.05 224.324 L1853.35 221.561 L1843.65 219.686 L1833.94 215.385 L1824.24 213.561 L1814.54 207.374 L1804.84 204.191 L1795.13 200.946 L1785.43 200.08 L1775.73 198.577 L1766.02 197.492 L1756.32 196.382 L1746.62 195.495 L1736.92 194.769 L1727.21 193.917 L1717.51 193.398 L1707.81 192.746 L1698.1 192.111 L1688.4 191.46 L1678.7 190.338 L1669 188.582 L1659.29 186.949 L1649.59 185.963 L1639.89 184.612 L1630.18 183.84 L1620.48 183.661 L1610.78 183.427 L1601.08 181.967 L1591.37 181.891 L1581.67 181.841 L1571.97 181.473 L1562.26 180.666 L1552.56 179.896 L1542.86 179.138 L1533.16 179.648 L1523.45 179.139 L1513.75 178.643 L1504.05 178.162 L1494.34 179.949 L1484.64 178.995 L1474.94 178.688 L1465.24 176.335 L1455.53 176.917 L1445.83 176.708 L1436.13 176.513 L1426.42 176.323 L1416.72 176.14 L1407.02 176.229 L1397.32 176.756 L1387.61 177.441 L1377.91 177.042 L1368.21 176.63 L1358.51 176.58 L1348.8 176.301 L1339.1 176.037 L1329.4 175.768 L1319.69 176.387 L1309.99 177.421 L1300.29 180.458 L1290.59 180.779 L1280.88 180.661 L1271.18 181.243 L1261.48 181.048 L1251.77 180.86 L1242.07 182.646 L1232.37 181.872 L1222.67 181.785 L1212.96 181.7 L1203.26 181.796 L1193.56 181.16 L1183.85 179.688 L1174.15 179.428 L1164.45 179.182 L1154.75 179.002 L1145.04 178.696 L1135.34 178.469 L1125.64 178.241 L1115.93 177.931 L1106.23 178.236 L1096.53 177.84 L1086.83 177.747 L1077.12 177.564 L1067.42 177.569 L1057.72 177.157 L1048.01 176.948 L1038.31 176.749 L1028.61 176.697 L1018.91 176.733 L1009.2 176.462 L999.5 176.247 L989.797 175.638 L980.094 174.934 L970.391 173.733 L960.688 172.108 L950.985 170.106 L941.283 167.412 L931.58 166.582 L921.877 165.2 L912.174 163.012 L902.471 162.84 L892.768 162.656 L883.066 162.49 L873.363 161.548 L863.66 162.174 L853.957 161.31 L844.254 160.957 L834.551 160.75 L824.848 160.58 L815.146 160.418 L805.443 160.264 L795.74 160.742 L786.037 160.655 L776.334 161.73 L766.631 160.831 L756.929 160.675 L747.226 160.494 L737.523 160.319 L727.82 162.364 L718.117 161.326 L708.414 161.265 L698.711 161.205 L689.009 161.146 L679.306 160.809 L669.603 160.468 L659.9 160.138 L650.197 160.927 L640.494 161.971 L630.792 164.735 L621.089 166.518 L611.386 170.442 L601.683 174.889 L591.98 176.478 L582.277 177.044 L572.574 176.987 L562.872 178.727 L553.169 179.395 L543.466 190.401 L533.763 193.335 L524.06 195.536 L514.357 196.366 L504.655 198.194 L494.952 200.194 L485.249 201.094 L475.546 201.391 L465.843 202.1 L456.14 201.531 L446.437 202.056 L436.735 202.423 L427.032 202.378 L417.329 202.792 L407.626 202.291 L397.923 201.391 L388.22 201.369 L378.518 201.347 L368.815 201.191 L359.112 201.304 L349.409 201.282 L339.706 201.262 L330.003 202.204 L320.3 204.587 L310.598 217.017 L300.895 224.644 L291.192 229.72 L281.489 235.773 L271.786 240.638 L262.083 243.23 L252.381 243.208 L242.678 243.161 L232.975 242.8  Z" fill="#e26f46" fill-rule="evenodd" fill-opacity="0.3"/>
<polyline clip-path="url(#clip652)" style="stroke:#e26f46; stroke-linecap:round; stroke-linejoin:round; stroke-width:4; stroke-opacity:0; fill:none" points="232.975,1254.45 242.678,1254.38 252.381,1254.31 262.083,1254.24 271.786,1254.16 281.489,1254.08 291.192,1254 300.895,1253.83 310.598,1253.6 320.3,1241.2 330.003,489.989 339.706,470.652 349.409,470.738 359.112,469.368 368.815,465.555 378.518,464.339 388.22,462.623 397.923,458.898 407.626,453.691 417.329,450.075 427.032,450.226 436.735,449.025 446.437,447.579 456.14,446.56 465.843,446.576 475.546,444.791 485.249,443.683 494.952,437.854 504.655,432.488 514.357,427.142 524.06,420.704 533.763,417.927 543.466,408.28 553.169,368.719 562.872,360.277 572.574,355.135 582.277,347.948 591.98,334.209 601.683,329.055 611.386,316.875 621.089,309.913 630.792,304.384 640.494,301.059 650.197,299.972 659.9,297.148 669.603,296.267 679.306,295.776 689.009,295.471 698.711,295.387 708.414,294.785 718.117,294.707 727.82,294.728 737.523,294.649 747.226,294.77 756.929,294.806 766.631,294.933 776.334,294.962 786.037,294.995 795.74,295.048 805.443,295.318 815.146,295.332 824.848,295.731 834.551,295.789 844.254,296.341 853.957,296.379 863.66,296.714 873.363,297.117 883.066,297.23 892.768,297.89 902.471,298.306 912.174,299.172 921.877,301.257 931.58,302.871 941.283,304.735 950.985,306.653 960.688,312.687 970.391,318.999 980.094,326.091 989.797,326.292 999.5,327.762 1009.2,328.631 1018.91,333.349 1028.61,333.773 1038.31,334.472 1048.01,334.741 1057.72,338.457 1067.42,338.463 1077.12,338.306 1086.83,338.477 1096.53,337.932 1106.23,337.971 1115.93,339.234 1125.64,342.037 1135.34,344.007 1145.04,344.18 1154.75,345.043 1164.45,345.969 1174.15,349.102 1183.85,351.239 1193.56,355.107 1203.26,362.165 1212.96,368.468 1222.67,369.005 1232.37,369.959 1242.07,370.095 1251.77,371.827 1261.48,374.777 1271.18,374.789 1280.88,378.091 1290.59,379.5 1300.29,381.194 1309.99,388.105 1319.69,389.547 1329.4,389.562 1339.1,393.78 1348.8,393.84 1358.51,393.902 1368.21,394.477 1377.91,395.37 1387.61,395.537 1397.32,396.188 1407.02,397.001 1416.72,397.659 1426.42,400.248 1436.13,400.321 1445.83,402.083 1455.53,404.7 1465.24,406.738 1474.94,412.02 1484.64,414.677 1494.34,415.71 1504.05,419.517 1513.75,419.539 1523.45,424.229 1533.16,425.278 1542.86,431.495 1552.56,432.422 1562.26,434.75 1571.97,443.999 1581.67,452.999 1591.37,457.954 1601.08,467.339 1610.78,481.017 1620.48,485.493 1630.18,494.125 1639.89,498.133 1649.59,511.666 1659.29,528.742 1669,537.827 1678.7,547.728 1688.4,558.433 1698.1,581.205 1707.81,585.988 1717.51,597.055 1727.21,600.016 1736.92,620.075 1746.62,641.388 1756.32,658.947 1766.02,667.615 1775.73,680.995 1785.43,698.647 1795.13,719.998 1804.84,739.759 1814.54,754.4 1824.24,765.251 1833.94,787.336 1843.65,813.737 1853.35,815.993 1863.05,830.908 1872.76,861.923 1882.46,868.296 1892.16,882.271 1901.86,893.808 1911.57,893.263 1921.27,893.048 1930.97,892.83 1940.68,892.61 1950.38,892.373 1960.08,892.032 1969.78,891.853 1979.49,891.672 1989.19,889.85 1998.89,886.058 2008.6,885.138 2018.3,884.188 2028,883.2 2037.7,882.169 2047.41,881.141 2057.11,883.581 2066.81,882.286 2076.52,880.917 2086.22,879.531 2095.92,878.122 2105.62,877.517 2115.33,876.904 2125.03,876.281 2134.73,875.632 2144.44,874.928 2154.14,874.206 2163.84,873.468 2173.54,872.726 2183.25,871.983 2192.95,871.186 2202.65,870.417 2212.36,869.606 2222.06,868.142 2231.76,867.536 2241.46,866.904 2251.17,866.046 2260.87,865.085 2270.57,861.543 2280.28,857.879 2289.98,856.387 2299.68,852.762 2309.38,851.956 2319.09,850.386 2328.79,842.964 2338.49,841.976 2348.2,840.499 2357.9,839.599 2367.6,835.687 2377.3,832.438 2387.01,829.584 2396.71,825.937 2406.41,821.935 2416.12,820.048 2425.82,818.062 2435.52,816.263 2445.22,814.746 2454.93,813.16 2464.63,811.53 2474.33,808.429 2484.04,805.631 2493.74,804.109 2503.44,800.239 2513.14,799.083 2522.85,798.19 2532.55,796.965 2542.25,794.813 2551.96,792.153 "/>
<path clip-path="url(#clip652)" d="M232.975 1058.96 L242.678 1058.6 L252.381 1058.56 L262.083 1058.53 L271.786 1061.13 L281.489 1065.99 L291.192 1072.04 L300.895 1077.12 L310.598 1084.75 L320.3 1097.18 L330.003 1099.56 L339.706 1100.5 L349.409 1100.48 L359.112 1100.46 L368.815 1100.57 L378.518 1100.42 L388.22 1100.4 L397.923 1100.37 L407.626 1099.47 L417.329 1098.97 L427.032 1099.39 L436.735 1099.34 L446.437 1099.71 L456.14 1100.23 L465.843 1099.66 L475.546 1100.37 L485.249 1100.67 L494.952 1101.57 L504.655 1103.57 L514.357 1105.4 L524.06 1106.23 L533.763 1108.43 L543.466 1111.36 L553.169 1122.37 L562.872 1123.04 L572.574 1124.78 L582.277 1124.72 L591.98 1125.29 L601.683 1126.87 L611.386 1131.32 L621.089 1135.25 L630.792 1137.03 L640.494 1139.79 L650.197 1140.84 L659.9 1141.63 L669.603 1141.3 L679.306 1140.96 L689.009 1140.62 L698.711 1140.56 L708.414 1140.5 L718.117 1140.44 L727.82 1139.4 L737.523 1141.44 L747.226 1141.27 L756.929 1141.09 L766.631 1140.93 L776.334 1140.03 L786.037 1141.11 L795.74 1141.02 L805.443 1141.5 L815.146 1141.35 L824.848 1141.18 L834.551 1141.01 L844.254 1140.81 L853.957 1140.45 L863.66 1139.59 L873.363 1140.22 L883.066 1139.27 L892.768 1139.11 L902.471 1138.92 L912.174 1138.75 L921.877 1136.56 L931.58 1135.18 L941.283 1134.35 L950.985 1131.66 L960.688 1129.66 L970.391 1128.03 L980.094 1126.83 L989.797 1126.13 L999.5 1125.52 L1009.2 1125.3 L1018.91 1125.03 L1028.61 1125.07 L1038.31 1125.01 L1048.01 1124.82 L1057.72 1124.61 L1067.42 1124.19 L1077.12 1124.2 L1086.83 1124.02 L1096.53 1123.92 L1106.23 1123.53 L1115.93 1123.83 L1125.64 1123.52 L1135.34 1123.3 L1145.04 1123.07 L1154.75 1122.76 L1164.45 1122.58 L1174.15 1122.34 L1183.85 1122.08 L1193.56 1120.6 L1203.26 1119.97 L1212.96 1120.06 L1222.67 1119.98 L1232.37 1119.89 L1242.07 1119.12 L1251.77 1120.9 L1261.48 1120.72 L1271.18 1120.52 L1280.88 1121.1 L1290.59 1120.99 L1300.29 1121.31 L1309.99 1124.34 L1319.69 1125.38 L1329.4 1126 L1339.1 1125.73 L1348.8 1125.46 L1358.51 1125.18 L1368.21 1125.13 L1377.91 1124.72 L1387.61 1124.32 L1397.32 1125.01 L1407.02 1125.54 L1416.72 1125.62 L1426.42 1125.44 L1436.13 1125.25 L1445.83 1125.06 L1455.53 1124.85 L1465.24 1125.43 L1474.94 1123.08 L1484.64 1122.77 L1494.34 1121.81 L1504.05 1123.6 L1513.75 1123.12 L1523.45 1122.62 L1533.16 1122.12 L1542.86 1122.63 L1552.56 1121.87 L1562.26 1121.1 L1571.97 1120.29 L1581.67 1119.92 L1591.37 1119.87 L1601.08 1119.8 L1610.78 1118.34 L1620.48 1118.1 L1630.18 1117.92 L1639.89 1117.15 L1649.59 1115.8 L1659.29 1114.81 L1669 1113.18 L1678.7 1111.43 L1688.4 1110.3 L1698.1 1109.65 L1707.81 1109.02 L1717.51 1108.37 L1727.21 1107.85 L1736.92 1106.99 L1746.62 1106.27 L1756.32 1105.38 L1766.02 1104.27 L1775.73 1103.19 L1785.43 1101.68 L1795.13 1100.82 L1804.84 1097.57 L1814.54 1094.39 L1824.24 1088.2 L1833.94 1086.38 L1843.65 1082.08 L1853.35 1080.2 L1863.05 1077.44 L1872.76 1069.92 L1882.46 1065.94 L1892.16 1060.41 L1901.86 1053.83 L1911.57 1052.22 L1921.27 1051.85 L1930.97 1051.47 L1940.68 1051.14 L1950.38 1050.82 L1960.08 1050.49 L1969.78 1049.18 L1979.49 1048.73 L1989.19 1048.24 L1998.89 1047.84 L2008.6 1047.37 L2018.3 1046.92 L2028 1046.4 L2037.7 1045.44 L2047.41 1043.74 L2057.11 1043.29 L2066.81 1042.27 L2076.52 1041.99 L2086.22 1041.72 L2095.92 1041.27 L2105.62 1040.39 L2115.33 1039.5 L2125.03 1038.59 L2134.73 1037.6 L2144.44 1036.62 L2154.14 1036.06 L2163.84 1035.41 L2173.54 1034.83 L2183.25 1033.96 L2192.95 1033.21 L2202.65 1032.47 L2212.36 1031.69 L2222.06 1030.77 L2231.76 1030.09 L2241.46 1029.66 L2251.17 1029.01 L2260.87 1028.35 L2270.57 1027.67 L2280.28 1026.96 L2289.98 1026.23 L2299.68 1025.54 L2309.38 1024.77 L2319.09 1023.84 L2328.79 1022.97 L2338.49 1022.41 L2348.2 1021.48 L2357.9 1020.33 L2367.6 1019.27 L2377.3 1018.34 L2387.01 1017.62 L2396.71 1016.69 L2406.41 1016.05 L2416.12 1014.87 L2425.82 1013.96 L2435.52 1013.26 L2445.22 1012.55 L2454.93 1011.84 L2464.63 1011.02 L2474.33 1010.18 L2484.04 1009.33 L2493.74 1008.42 L2503.44 1007.2 L2513.14 1006.18 L2522.85 1005.11 L2532.55 1004.17 L2542.25 1002.7 L2551.96 1001.15 L2551.96 509.611 L2542.25 506.951 L2532.55 504.799 L2522.85 503.574 L2513.14 502.681 L2503.44 501.525 L2493.74 497.655 L2484.04 496.133 L2474.33 493.335 L2464.63 490.234 L2454.93 488.604 L2445.22 487.018 L2435.52 485.501 L2425.82 483.702 L2416.12 481.716 L2406.41 479.829 L2396.71 475.827 L2387.01 472.18 L2377.3 469.326 L2367.6 466.077 L2357.9 462.165 L2348.2 461.265 L2338.49 459.788 L2328.79 458.8 L2319.09 451.378 L2309.38 449.808 L2299.68 449.002 L2289.98 445.377 L2280.28 443.884 L2270.57 440.221 L2260.87 436.679 L2251.17 435.718 L2241.46 434.86 L2231.76 434.228 L2222.06 433.622 L2212.36 432.158 L2202.65 431.347 L2192.95 430.578 L2183.25 429.781 L2173.54 429.038 L2163.84 428.296 L2154.14 427.558 L2144.44 426.836 L2134.73 426.132 L2125.03 425.483 L2115.33 424.86 L2105.62 424.247 L2095.92 423.642 L2086.22 422.233 L2076.52 420.847 L2066.81 419.478 L2057.11 418.183 L2047.41 420.623 L2037.7 419.595 L2028 418.564 L2018.3 417.576 L2008.6 416.626 L1998.89 415.706 L1989.19 411.914 L1979.49 410.092 L1969.78 409.911 L1960.08 409.731 L1950.38 409.391 L1940.68 409.154 L1930.97 408.934 L1921.27 408.716 L1911.57 408.501 L1901.86 407.956 L1892.16 419.493 L1882.46 433.468 L1872.76 439.841 L1863.05 470.856 L1853.35 485.771 L1843.65 488.026 L1833.94 514.428 L1824.24 536.513 L1814.54 547.364 L1804.84 562.005 L1795.13 581.766 L1785.43 603.117 L1775.73 620.769 L1766.02 634.149 L1756.32 642.817 L1746.62 660.376 L1736.92 681.689 L1727.21 701.747 L1717.51 704.709 L1707.81 715.776 L1698.1 720.559 L1688.4 743.331 L1678.7 754.036 L1669 763.937 L1659.29 773.022 L1649.59 790.098 L1639.89 803.631 L1630.18 807.639 L1620.48 816.271 L1610.78 820.747 L1601.08 834.425 L1591.37 843.81 L1581.67 848.765 L1571.97 857.765 L1562.26 867.014 L1552.56 869.342 L1542.86 870.268 L1533.16 876.486 L1523.45 877.535 L1513.75 882.225 L1504.05 882.247 L1494.34 886.054 L1484.64 887.087 L1474.94 889.744 L1465.24 895.026 L1455.53 897.064 L1445.83 899.681 L1436.13 901.443 L1426.42 901.516 L1416.72 904.105 L1407.02 904.763 L1397.32 905.576 L1387.61 906.227 L1377.91 906.393 L1368.21 907.287 L1358.51 907.862 L1348.8 907.924 L1339.1 907.984 L1329.4 912.202 L1319.69 912.217 L1309.99 913.659 L1300.29 920.57 L1290.59 922.264 L1280.88 923.672 L1271.18 926.975 L1261.48 926.987 L1251.77 929.937 L1242.07 931.669 L1232.37 931.805 L1222.67 932.759 L1212.96 933.296 L1203.26 939.599 L1193.56 946.657 L1183.85 950.525 L1174.15 952.662 L1164.45 955.795 L1154.75 956.721 L1145.04 957.584 L1135.34 957.757 L1125.64 959.727 L1115.93 962.53 L1106.23 963.793 L1096.53 963.832 L1086.83 963.287 L1077.12 963.458 L1067.42 963.301 L1057.72 963.307 L1048.01 967.023 L1038.31 967.292 L1028.61 967.991 L1018.91 968.415 L1009.2 973.133 L999.5 974.002 L989.797 975.472 L980.094 975.673 L970.391 982.765 L960.688 989.077 L950.985 995.111 L941.283 997.029 L931.58 998.893 L921.877 1000.51 L912.174 1002.59 L902.471 1003.46 L892.768 1003.87 L883.066 1004.53 L873.363 1004.65 L863.66 1005.05 L853.957 1005.39 L844.254 1005.42 L834.551 1005.97 L824.848 1006.03 L815.146 1006.43 L805.443 1006.45 L795.74 1006.72 L786.037 1006.77 L776.334 1006.8 L766.631 1006.83 L756.929 1006.96 L747.226 1006.99 L737.523 1007.11 L727.82 1007.04 L718.117 1007.06 L708.414 1006.98 L698.711 1006.38 L689.009 1006.29 L679.306 1005.99 L669.603 1005.5 L659.9 1004.62 L650.197 1001.79 L640.494 1000.7 L630.792 997.38 L621.089 991.851 L611.386 984.889 L601.683 972.709 L591.98 967.555 L582.277 953.816 L572.574 946.628 L562.872 941.487 L553.169 933.045 L543.466 893.484 L533.763 883.837 L524.06 881.06 L514.357 874.622 L504.655 869.276 L494.952 863.91 L485.249 858.081 L475.546 856.973 L465.843 855.188 L456.14 855.204 L446.437 854.184 L436.735 852.739 L427.032 851.538 L417.329 851.689 L407.626 848.073 L397.923 842.865 L388.22 839.141 L378.518 837.425 L368.815 836.209 L359.112 832.396 L349.409 831.026 L339.706 831.112 L330.003 811.775 L320.3 60.5652 L310.598 48.1591 L300.895 47.9377 L291.192 47.7617 L281.489 47.6824 L271.786 47.6015 L262.083 47.5266 L252.381 47.4519 L242.678 47.3805 L232.975 47.3119  Z" fill="#3da44d" fill-rule="evenodd" fill-opacity="0.3"/>
<polyline clip-path="url(#clip652)" style="stroke:#3da44d; stroke-linecap:round; stroke-linejoin:round; stroke-width:4; stroke-opacity:0; fill:none" points="232.975,1058.96 242.678,1058.6 252.381,1058.56 262.083,1058.53 271.786,1061.13 281.489,1065.99 291.192,1072.04 300.895,1077.12 310.598,1084.75 320.3,1097.18 330.003,1099.56 339.706,1100.5 349.409,1100.48 359.112,1100.46 368.815,1100.57 378.518,1100.42 388.22,1100.4 397.923,1100.37 407.626,1099.47 417.329,1098.97 427.032,1099.39 436.735,1099.34 446.437,1099.71 456.14,1100.23 465.843,1099.66 475.546,1100.37 485.249,1100.67 494.952,1101.57 504.655,1103.57 514.357,1105.4 524.06,1106.23 533.763,1108.43 543.466,1111.36 553.169,1122.37 562.872,1123.04 572.574,1124.78 582.277,1124.72 591.98,1125.29 601.683,1126.87 611.386,1131.32 621.089,1135.25 630.792,1137.03 640.494,1139.79 650.197,1140.84 659.9,1141.63 669.603,1141.3 679.306,1140.96 689.009,1140.62 698.711,1140.56 708.414,1140.5 718.117,1140.44 727.82,1139.4 737.523,1141.44 747.226,1141.27 756.929,1141.09 766.631,1140.93 776.334,1140.03 786.037,1141.11 795.74,1141.02 805.443,1141.5 815.146,1141.35 824.848,1141.18 834.551,1141.01 844.254,1140.81 853.957,1140.45 863.66,1139.59 873.363,1140.22 883.066,1139.27 892.768,1139.11 902.471,1138.92 912.174,1138.75 921.877,1136.56 931.58,1135.18 941.283,1134.35 950.985,1131.66 960.688,1129.66 970.391,1128.03 980.094,1126.83 989.797,1126.13 999.5,1125.52 1009.2,1125.3 1018.91,1125.03 1028.61,1125.07 1038.31,1125.01 1048.01,1124.82 1057.72,1124.61 1067.42,1124.19 1077.12,1124.2 1086.83,1124.02 1096.53,1123.92 1106.23,1123.53 1115.93,1123.83 1125.64,1123.52 1135.34,1123.3 1145.04,1123.07 1154.75,1122.76 1164.45,1122.58 1174.15,1122.34 1183.85,1122.08 1193.56,1120.6 1203.26,1119.97 1212.96,1120.06 1222.67,1119.98 1232.37,1119.89 1242.07,1119.12 1251.77,1120.9 1261.48,1120.72 1271.18,1120.52 1280.88,1121.1 1290.59,1120.99 1300.29,1121.31 1309.99,1124.34 1319.69,1125.38 1329.4,1126 1339.1,1125.73 1348.8,1125.46 1358.51,1125.18 1368.21,1125.13 1377.91,1124.72 1387.61,1124.32 1397.32,1125.01 1407.02,1125.54 1416.72,1125.62 1426.42,1125.44 1436.13,1125.25 1445.83,1125.06 1455.53,1124.85 1465.24,1125.43 1474.94,1123.08 1484.64,1122.77 1494.34,1121.81 1504.05,1123.6 1513.75,1123.12 1523.45,1122.62 1533.16,1122.12 1542.86,1122.63 1552.56,1121.87 1562.26,1121.1 1571.97,1120.29 1581.67,1119.92 1591.37,1119.87 1601.08,1119.8 1610.78,1118.34 1620.48,1118.1 1630.18,1117.92 1639.89,1117.15 1649.59,1115.8 1659.29,1114.81 1669,1113.18 1678.7,1111.43 1688.4,1110.3 1698.1,1109.65 1707.81,1109.02 1717.51,1108.37 1727.21,1107.85 1736.92,1106.99 1746.62,1106.27 1756.32,1105.38 1766.02,1104.27 1775.73,1103.19 1785.43,1101.68 1795.13,1100.82 1804.84,1097.57 1814.54,1094.39 1824.24,1088.2 1833.94,1086.38 1843.65,1082.08 1853.35,1080.2 1863.05,1077.44 1872.76,1069.92 1882.46,1065.94 1892.16,1060.41 1901.86,1053.83 1911.57,1052.22 1921.27,1051.85 1930.97,1051.47 1940.68,1051.14 1950.38,1050.82 1960.08,1050.49 1969.78,1049.18 1979.49,1048.73 1989.19,1048.24 1998.89,1047.84 2008.6,1047.37 2018.3,1046.92 2028,1046.4 2037.7,1045.44 2047.41,1043.74 2057.11,1043.29 2066.81,1042.27 2076.52,1041.99 2086.22,1041.72 2095.92,1041.27 2105.62,1040.39 2115.33,1039.5 2125.03,1038.59 2134.73,1037.6 2144.44,1036.62 2154.14,1036.06 2163.84,1035.41 2173.54,1034.83 2183.25,1033.96 2192.95,1033.21 2202.65,1032.47 2212.36,1031.69 2222.06,1030.77 2231.76,1030.09 2241.46,1029.66 2251.17,1029.01 2260.87,1028.35 2270.57,1027.67 2280.28,1026.96 2289.98,1026.23 2299.68,1025.54 2309.38,1024.77 2319.09,1023.84 2328.79,1022.97 2338.49,1022.41 2348.2,1021.48 2357.9,1020.33 2367.6,1019.27 2377.3,1018.34 2387.01,1017.62 2396.71,1016.69 2406.41,1016.05 2416.12,1014.87 2425.82,1013.96 2435.52,1013.26 2445.22,1012.55 2454.93,1011.84 2464.63,1011.02 2474.33,1010.18 2484.04,1009.33 2493.74,1008.42 2503.44,1007.2 2513.14,1006.18 2522.85,1005.11 2532.55,1004.17 2542.25,1002.7 2551.96,1001.15 "/>
<polyline clip-path="url(#clip652)" style="stroke:#000000; stroke-linecap:round; stroke-linejoin:round; stroke-width:4; stroke-opacity:0.5; fill:none" stroke-dasharray="16, 8, 2, 8" points="2060.5,2461.8 2060.5,-1160.03 "/>
<path clip-path="url(#clip650)" d="M1409.59 243.007 L1817.77 243.007 L1817.77 87.4866 L1409.59 87.4866  Z" fill="#ffffff" fill-rule="evenodd" fill-opacity="1"/>
<polyline clip-path="url(#clip650)" style="stroke:#000000; stroke-linecap:round; stroke-linejoin:round; stroke-width:4; stroke-opacity:1; fill:none" points="1409.59,243.007 1817.77,243.007 1817.77,87.4866 1409.59,87.4866 1409.59,243.007 "/>
<polyline clip-path="url(#clip650)" style="stroke:#e26f46; stroke-linecap:round; stroke-linejoin:round; stroke-width:4; stroke-opacity:1; fill:none" points="1427.91,139.327 1537.88,139.327 "/>
<path clip-path="url(#clip650)" d="M1576.55 135.658 Q1578.15 132.787 1580.37 131.422 Q1582.59 130.056 1585.6 130.056 Q1589.65 130.056 1591.85 132.903 Q1594.05 135.727 1594.05 140.959 L1594.05 156.607 L1589.77 156.607 L1589.77 141.097 Q1589.77 137.371 1588.45 135.565 Q1587.13 133.76 1584.42 133.76 Q1581.11 133.76 1579.19 135.959 Q1577.27 138.158 1577.27 141.954 L1577.27 156.607 L1572.99 156.607 L1572.99 141.097 Q1572.99 137.347 1571.67 135.565 Q1570.35 133.76 1567.59 133.76 Q1564.33 133.76 1562.41 135.982 Q1560.49 138.181 1560.49 141.954 L1560.49 156.607 L1556.21 156.607 L1556.21 130.681 L1560.49 130.681 L1560.49 134.709 Q1561.95 132.324 1563.98 131.19 Q1566.02 130.056 1568.82 130.056 Q1571.65 130.056 1573.61 131.491 Q1575.6 132.926 1576.55 135.658 Z" fill="#000000" fill-rule="nonzero" fill-opacity="1" /><path clip-path="url(#clip650)" d="M1624.72 142.579 L1624.72 144.662 L1605.14 144.662 Q1605.42 149.06 1607.78 151.375 Q1610.16 153.667 1614.4 153.667 Q1616.85 153.667 1619.15 153.065 Q1621.46 152.463 1623.73 151.259 L1623.73 155.287 Q1621.44 156.259 1619.03 156.769 Q1616.62 157.278 1614.15 157.278 Q1607.94 157.278 1604.31 153.667 Q1600.7 150.056 1600.7 143.898 Q1600.7 137.533 1604.12 133.806 Q1607.57 130.056 1613.4 130.056 Q1618.64 130.056 1621.67 133.435 Q1624.72 136.792 1624.72 142.579 M1620.46 141.329 Q1620.42 137.834 1618.5 135.75 Q1616.6 133.667 1613.45 133.667 Q1609.89 133.667 1607.73 135.681 Q1605.6 137.695 1605.28 141.352 L1620.46 141.329 Z" fill="#000000" fill-rule="nonzero" fill-opacity="1" /><path clip-path="url(#clip650)" d="M1631.71 120.588 L1635.97 120.588 L1635.97 156.607 L1631.71 156.607 L1631.71 120.588 Z" fill="#000000" fill-rule="nonzero" fill-opacity="1" /><path clip-path="url(#clip650)" d="M1656.67 143.574 Q1651.51 143.574 1649.52 144.755 Q1647.53 145.935 1647.53 148.783 Q1647.53 151.051 1649.01 152.394 Q1650.51 153.713 1653.08 153.713 Q1656.62 153.713 1658.75 151.213 Q1660.9 148.69 1660.9 144.523 L1660.9 143.574 L1656.67 143.574 M1665.16 141.815 L1665.16 156.607 L1660.9 156.607 L1660.9 152.671 Q1659.45 155.033 1657.27 156.167 Q1655.09 157.278 1651.95 157.278 Q1647.96 157.278 1645.6 155.056 Q1643.27 152.81 1643.27 149.06 Q1643.27 144.685 1646.18 142.463 Q1649.12 140.241 1654.93 140.241 L1660.9 140.241 L1660.9 139.824 Q1660.9 136.885 1658.96 135.287 Q1657.04 133.667 1653.54 133.667 Q1651.32 133.667 1649.21 134.199 Q1647.11 134.732 1645.16 135.797 L1645.16 131.861 Q1647.5 130.959 1649.7 130.519 Q1651.9 130.056 1653.98 130.056 Q1659.61 130.056 1662.39 132.972 Q1665.16 135.889 1665.16 141.815 Z" fill="#000000" fill-rule="nonzero" fill-opacity="1" /><path clip-path="url(#clip650)" d="M1695.49 140.959 L1695.49 156.607 L1691.23 156.607 L1691.23 141.097 Q1691.23 137.417 1689.79 135.588 Q1688.36 133.76 1685.49 133.76 Q1682.04 133.76 1680.05 135.959 Q1678.06 138.158 1678.06 141.954 L1678.06 156.607 L1673.77 156.607 L1673.77 130.681 L1678.06 130.681 L1678.06 134.709 Q1679.59 132.371 1681.65 131.213 Q1683.73 130.056 1686.44 130.056 Q1690.9 130.056 1693.2 132.834 Q1695.49 135.588 1695.49 140.959 Z" fill="#000000" fill-rule="nonzero" fill-opacity="1" /><path clip-path="url(#clip650)" d="M1714.03 133.667 Q1710.6 133.667 1708.61 136.352 Q1706.62 139.014 1706.62 143.667 Q1706.62 148.32 1708.59 151.005 Q1710.58 153.667 1714.03 153.667 Q1717.43 153.667 1719.42 150.982 Q1721.41 148.296 1721.41 143.667 Q1721.41 139.06 1719.42 136.375 Q1717.43 133.667 1714.03 133.667 M1714.03 130.056 Q1719.58 130.056 1722.76 133.667 Q1725.93 137.278 1725.93 143.667 Q1725.93 150.033 1722.76 153.667 Q1719.58 157.278 1714.03 157.278 Q1708.45 157.278 1705.28 153.667 Q1702.13 150.033 1702.13 143.667 Q1702.13 137.278 1705.28 133.667 Q1708.45 130.056 1714.03 130.056 Z" fill="#000000" fill-rule="nonzero" fill-opacity="1" /><path clip-path="url(#clip650)" d="M1753.17 135.658 Q1754.77 132.787 1756.99 131.422 Q1759.21 130.056 1762.22 130.056 Q1766.27 130.056 1768.47 132.903 Q1770.67 135.727 1770.67 140.959 L1770.67 156.607 L1766.39 156.607 L1766.39 141.097 Q1766.39 137.371 1765.07 135.565 Q1763.75 133.76 1761.04 133.76 Q1757.73 133.76 1755.81 135.959 Q1753.89 138.158 1753.89 141.954 L1753.89 156.607 L1749.61 156.607 L1749.61 141.097 Q1749.61 137.347 1748.29 135.565 Q1746.97 133.76 1744.21 133.76 Q1740.95 133.76 1739.03 135.982 Q1737.11 138.181 1737.11 141.954 L1737.11 156.607 L1732.83 156.607 L1732.83 130.681 L1737.11 130.681 L1737.11 134.709 Q1738.57 132.324 1740.6 131.19 Q1742.64 130.056 1745.44 130.056 Q1748.27 130.056 1750.23 131.491 Q1752.22 132.926 1753.17 135.658 Z" fill="#000000" fill-rule="nonzero" fill-opacity="1" /><path clip-path="url(#clip650)" d="M1790.95 143.574 Q1785.79 143.574 1783.8 144.755 Q1781.81 145.935 1781.81 148.783 Q1781.81 151.051 1783.29 152.394 Q1784.79 153.713 1787.36 153.713 Q1790.9 153.713 1793.03 151.213 Q1795.19 148.69 1795.19 144.523 L1795.19 143.574 L1790.95 143.574 M1799.45 141.815 L1799.45 156.607 L1795.19 156.607 L1795.19 152.671 Q1793.73 155.033 1791.55 156.167 Q1789.38 157.278 1786.23 157.278 Q1782.25 157.278 1779.89 155.056 Q1777.55 152.81 1777.55 149.06 Q1777.55 144.685 1780.46 142.463 Q1783.4 140.241 1789.21 140.241 L1795.19 140.241 L1795.19 139.824 Q1795.19 136.885 1793.24 135.287 Q1791.32 133.667 1787.83 133.667 Q1785.6 133.667 1783.5 134.199 Q1781.39 134.732 1779.45 135.797 L1779.45 131.861 Q1781.78 130.959 1783.98 130.519 Q1786.18 130.056 1788.27 130.056 Q1793.89 130.056 1796.67 132.972 Q1799.45 135.889 1799.45 141.815 Z" fill="#000000" fill-rule="nonzero" fill-opacity="1" /><polyline clip-path="url(#clip650)" style="stroke:#3da44d; stroke-linecap:round; stroke-linejoin:round; stroke-width:4; stroke-opacity:1; fill:none" points="1427.91,191.167 1537.88,191.167 "/>
<path clip-path="url(#clip650)" d="M1568.1 185.507 Q1564.68 185.507 1562.69 188.192 Q1560.7 190.854 1560.7 195.507 Q1560.7 200.16 1562.66 202.845 Q1564.66 205.507 1568.1 205.507 Q1571.51 205.507 1573.5 202.822 Q1575.49 200.136 1575.49 195.507 Q1575.49 190.9 1573.5 188.215 Q1571.51 185.507 1568.1 185.507 M1568.1 181.896 Q1573.66 181.896 1576.83 185.507 Q1580 189.118 1580 195.507 Q1580 201.873 1576.83 205.507 Q1573.66 209.118 1568.1 209.118 Q1562.53 209.118 1559.35 205.507 Q1556.21 201.873 1556.21 195.507 Q1556.21 189.118 1559.35 185.507 Q1562.53 181.896 1568.1 181.896 Z" fill="#000000" fill-rule="nonzero" fill-opacity="1" /><path clip-path="url(#clip650)" d="M1591.28 175.16 L1591.28 182.521 L1600.05 182.521 L1600.05 185.831 L1591.28 185.831 L1591.28 199.905 Q1591.28 203.076 1592.13 203.979 Q1593.01 204.882 1595.67 204.882 L1600.05 204.882 L1600.05 208.447 L1595.67 208.447 Q1590.74 208.447 1588.87 206.618 Q1586.99 204.766 1586.99 199.905 L1586.99 185.831 L1583.87 185.831 L1583.87 182.521 L1586.99 182.521 L1586.99 175.16 L1591.28 175.16 Z" fill="#000000" fill-rule="nonzero" fill-opacity="1" /><path clip-path="url(#clip650)" d="M1627.2 192.799 L1627.2 208.447 L1622.94 208.447 L1622.94 192.937 Q1622.94 189.257 1621.51 187.428 Q1620.07 185.6 1617.2 185.6 Q1613.75 185.6 1611.76 187.799 Q1609.77 189.998 1609.77 193.794 L1609.77 208.447 L1605.49 208.447 L1605.49 172.428 L1609.77 172.428 L1609.77 186.549 Q1611.3 184.211 1613.36 183.053 Q1615.44 181.896 1618.15 181.896 Q1622.62 181.896 1624.91 184.674 Q1627.2 187.428 1627.2 192.799 Z" fill="#000000" fill-rule="nonzero" fill-opacity="1" /><path clip-path="url(#clip650)" d="M1657.87 194.419 L1657.87 196.502 L1638.29 196.502 Q1638.57 200.9 1640.93 203.215 Q1643.31 205.507 1647.55 205.507 Q1650 205.507 1652.29 204.905 Q1654.61 204.303 1656.88 203.099 L1656.88 207.127 Q1654.59 208.099 1652.18 208.609 Q1649.77 209.118 1647.29 209.118 Q1641.09 209.118 1637.46 205.507 Q1633.84 201.896 1633.84 195.738 Q1633.84 189.373 1637.27 185.646 Q1640.72 181.896 1646.55 181.896 Q1651.78 181.896 1654.82 185.275 Q1657.87 188.632 1657.87 194.419 M1653.61 193.169 Q1653.57 189.674 1651.65 187.59 Q1649.75 185.507 1646.6 185.507 Q1643.03 185.507 1640.88 187.521 Q1638.75 189.535 1638.43 193.192 L1653.61 193.169 Z" fill="#000000" fill-rule="nonzero" fill-opacity="1" /><path clip-path="url(#clip650)" d="M1679.89 186.502 Q1679.17 186.086 1678.31 185.9 Q1677.48 185.692 1676.46 185.692 Q1672.85 185.692 1670.9 188.053 Q1668.98 190.391 1668.98 194.789 L1668.98 208.447 L1664.7 208.447 L1664.7 182.521 L1668.98 182.521 L1668.98 186.549 Q1670.33 184.187 1672.48 183.053 Q1674.63 181.896 1677.71 181.896 Q1678.15 181.896 1678.68 181.965 Q1679.21 182.012 1679.86 182.127 L1679.89 186.502 Z" fill="#000000" fill-rule="nonzero" fill-opacity="1" /><path clip-path="url(#clip650)" d="M1700.88 183.285 L1700.88 187.312 Q1699.08 186.387 1697.13 185.924 Q1695.19 185.461 1693.1 185.461 Q1689.93 185.461 1688.33 186.433 Q1686.76 187.405 1686.76 189.349 Q1686.76 190.831 1687.9 191.687 Q1689.03 192.521 1692.46 193.285 L1693.91 193.609 Q1698.45 194.581 1700.35 196.363 Q1702.27 198.123 1702.27 201.294 Q1702.27 204.905 1699.4 207.011 Q1696.55 209.118 1691.55 209.118 Q1689.47 209.118 1687.2 208.701 Q1684.96 208.308 1682.46 207.498 L1682.46 203.099 Q1684.82 204.326 1687.11 204.951 Q1689.4 205.553 1691.65 205.553 Q1694.65 205.553 1696.27 204.535 Q1697.9 203.493 1697.9 201.618 Q1697.9 199.882 1696.71 198.956 Q1695.56 198.03 1691.6 197.174 L1690.12 196.826 Q1686.16 195.993 1684.4 194.28 Q1682.64 192.544 1682.64 189.535 Q1682.64 185.877 1685.23 183.887 Q1687.83 181.896 1692.59 181.896 Q1694.96 181.896 1697.04 182.243 Q1699.12 182.59 1700.88 183.285 Z" fill="#000000" fill-rule="nonzero" fill-opacity="1" /></svg>
