<?xml version="1.0" encoding="utf-8"?>
<svg xmlns="http://www.w3.org/2000/svg" xmlns:xlink="http://www.w3.org/1999/xlink" width="480" height="360" viewBox="0 0 1920 1440">
<defs>
  <clipPath id="clip910">
    <rect x="0" y="0" width="1920" height="1440"/>
  </clipPath>
</defs>
<path clip-path="url(#clip910)" d="M0 1440 L1920 1440 L1920 0 L0 0  Z" fill="#ffffff" fill-rule="evenodd" fill-opacity="1"/>
<defs>
  <clipPath id="clip911">
    <rect x="384" y="0" width="1345" height="1345"/>
  </clipPath>
</defs>
<path clip-path="url(#clip910)" d="M221.006 1254.52 L1872.76 1254.52 L1872.76 47.2441 L221.006 47.2441  Z" fill="#ffffff" fill-rule="evenodd" fill-opacity="1"/>
<defs>
  <clipPath id="clip912">
    <rect x="221" y="47" width="1653" height="1208"/>
  </clipPath>
</defs>
<polyline clip-path="url(#clip912)" style="stroke:#000000; stroke-linecap:round; stroke-linejoin:round; stroke-width:2; stroke-opacity:0.1; fill:none" points="221.006,1254.52 221.006,47.2441 "/>
<polyline clip-path="url(#clip912)" style="stroke:#000000; stroke-linecap:round; stroke-linejoin:round; stroke-width:2; stroke-opacity:0.1; fill:none" points="475.122,1254.52 475.122,47.2441 "/>
<polyline clip-path="url(#clip912)" style="stroke:#000000; stroke-linecap:round; stroke-linejoin:round; stroke-width:2; stroke-opacity:0.1; fill:none" points="729.237,1254.52 729.237,47.2441 "/>
<polyline clip-path="url(#clip912)" style="stroke:#000000; stroke-linecap:round; stroke-linejoin:round; stroke-width:2; stroke-opacity:0.1; fill:none" points="983.352,1254.52 983.352,47.2441 "/>
<polyline clip-path="url(#clip912)" style="stroke:#000000; stroke-linecap:round; stroke-linejoin:round; stroke-width:2; stroke-opacity:0.1; fill:none" points="1237.47,1254.52 1237.47,47.2441 "/>
<polyline clip-path="url(#clip912)" style="stroke:#000000; stroke-linecap:round; stroke-linejoin:round; stroke-width:2; stroke-opacity:0.1; fill:none" points="1491.58,1254.52 1491.58,47.2441 "/>
<polyline clip-path="url(#clip912)" style="stroke:#000000; stroke-linecap:round; stroke-linejoin:round; stroke-width:2; stroke-opacity:0.1; fill:none" points="1745.7,1254.52 1745.7,47.2441 "/>
<polyline clip-path="url(#clip912)" style="stroke:#000000; stroke-linecap:round; stroke-linejoin:round; stroke-width:2; stroke-opacity:0.1; fill:none" points="221.006,1254.52 1872.76,1254.52 "/>
<polyline clip-path="url(#clip912)" style="stroke:#000000; stroke-linecap:round; stroke-linejoin:round; stroke-width:2; stroke-opacity:0.1; fill:none" points="221.006,1013.06 1872.76,1013.06 "/>
<polyline clip-path="url(#clip912)" style="stroke:#000000; stroke-linecap:round; stroke-linejoin:round; stroke-width:2; stroke-opacity:0.1; fill:none" points="221.006,771.61 1872.76,771.61 "/>
<polyline clip-path="url(#clip912)" style="stroke:#000000; stroke-linecap:round; stroke-linejoin:round; stroke-width:2; stroke-opacity:0.1; fill:none" points="221.006,530.154 1872.76,530.154 "/>
<polyline clip-path="url(#clip912)" style="stroke:#000000; stroke-linecap:round; stroke-linejoin:round; stroke-width:2; stroke-opacity:0.1; fill:none" points="221.006,288.699 1872.76,288.699 "/>
<polyline clip-path="url(#clip912)" style="stroke:#000000; stroke-linecap:round; stroke-linejoin:round; stroke-width:2; stroke-opacity:0.1; fill:none" points="221.006,47.2441 1872.76,47.2441 "/>
<polyline clip-path="url(#clip910)" style="stroke:#000000; stroke-linecap:round; stroke-linejoin:round; stroke-width:4; stroke-opacity:1; fill:none" points="221.006,1254.52 1872.76,1254.52 "/>
<polyline clip-path="url(#clip910)" style="stroke:#000000; stroke-linecap:round; stroke-linejoin:round; stroke-width:4; stroke-opacity:1; fill:none" points="221.006,1254.52 221.006,1235.62 "/>
<polyline clip-path="url(#clip910)" style="stroke:#000000; stroke-linecap:round; stroke-linejoin:round; stroke-width:4; stroke-opacity:1; fill:none" points="475.122,1254.52 475.122,1235.62 "/>
<polyline clip-path="url(#clip910)" style="stroke:#000000; stroke-linecap:round; stroke-linejoin:round; stroke-width:4; stroke-opacity:1; fill:none" points="729.237,1254.52 729.237,1235.62 "/>
<polyline clip-path="url(#clip910)" style="stroke:#000000; stroke-linecap:round; stroke-linejoin:round; stroke-width:4; stroke-opacity:1; fill:none" points="983.352,1254.52 983.352,1235.62 "/>
<polyline clip-path="url(#clip910)" style="stroke:#000000; stroke-linecap:round; stroke-linejoin:round; stroke-width:4; stroke-opacity:1; fill:none" points="1237.47,1254.52 1237.47,1235.62 "/>
<polyline clip-path="url(#clip910)" style="stroke:#000000; stroke-linecap:round; stroke-linejoin:round; stroke-width:4; stroke-opacity:1; fill:none" points="1491.58,1254.52 1491.58,1235.62 "/>
<polyline clip-path="url(#clip910)" style="stroke:#000000; stroke-linecap:round; stroke-linejoin:round; stroke-width:4; stroke-opacity:1; fill:none" points="1745.7,1254.52 1745.7,1235.62 "/>
<path clip-path="url(#clip910)" d="M198.391 1281.6 Q194.78 1281.6 192.951 1285.16 Q191.145 1288.7 191.145 1295.83 Q191.145 1302.94 192.951 1306.51 Q194.78 1310.05 198.391 1310.05 Q202.025 1310.05 203.83 1306.51 Q205.659 1302.94 205.659 1295.83 Q205.659 1288.7 203.83 1285.16 Q202.025 1281.6 198.391 1281.6 M198.391 1277.89 Q204.201 1277.89 207.256 1282.5 Q210.335 1287.08 210.335 1295.83 Q210.335 1304.56 207.256 1309.17 Q204.201 1313.75 198.391 1313.75 Q192.58 1313.75 189.502 1309.17 Q186.446 1304.56 186.446 1295.83 Q186.446 1287.08 189.502 1282.5 Q192.58 1277.89 198.391 1277.89 Z" fill="#000000" fill-rule="nonzero" fill-opacity="1" /><path clip-path="url(#clip910)" d="M218.553 1307.2 L223.437 1307.2 L223.437 1313.08 L218.553 1313.08 L218.553 1307.2 Z" fill="#000000" fill-rule="nonzero" fill-opacity="1" /><path clip-path="url(#clip910)" d="M243.622 1281.6 Q240.011 1281.6 238.182 1285.16 Q236.377 1288.7 236.377 1295.83 Q236.377 1302.94 238.182 1306.51 Q240.011 1310.05 243.622 1310.05 Q247.256 1310.05 249.062 1306.51 Q250.89 1302.94 250.89 1295.83 Q250.89 1288.7 249.062 1285.16 Q247.256 1281.6 243.622 1281.6 M243.622 1277.89 Q249.432 1277.89 252.488 1282.5 Q255.566 1287.08 255.566 1295.83 Q255.566 1304.56 252.488 1309.17 Q249.432 1313.75 243.622 1313.75 Q237.812 1313.75 234.733 1309.17 Q231.678 1304.56 231.678 1295.83 Q231.678 1287.08 234.733 1282.5 Q237.812 1277.89 243.622 1277.89 Z" fill="#000000" fill-rule="nonzero" fill-opacity="1" /><path clip-path="url(#clip910)" d="M453.305 1281.6 Q449.693 1281.6 447.865 1285.16 Q446.059 1288.7 446.059 1295.83 Q446.059 1302.94 447.865 1306.51 Q449.693 1310.05 453.305 1310.05 Q456.939 1310.05 458.744 1306.51 Q460.573 1302.94 460.573 1295.83 Q460.573 1288.7 458.744 1285.16 Q456.939 1281.6 453.305 1281.6 M453.305 1277.89 Q459.115 1277.89 462.17 1282.5 Q465.249 1287.08 465.249 1295.83 Q465.249 1304.56 462.17 1309.17 Q459.115 1313.75 453.305 1313.75 Q447.494 1313.75 444.416 1309.17 Q441.36 1304.56 441.36 1295.83 Q441.36 1287.08 444.416 1282.5 Q447.494 1277.89 453.305 1277.89 Z" fill="#000000" fill-rule="nonzero" fill-opacity="1" /><path clip-path="url(#clip910)" d="M473.467 1307.2 L478.351 1307.2 L478.351 1313.08 L473.467 1313.08 L473.467 1307.2 Z" fill="#000000" fill-rule="nonzero" fill-opacity="1" /><path clip-path="url(#clip910)" d="M492.564 1309.14 L508.883 1309.14 L508.883 1313.08 L486.939 1313.08 L486.939 1309.14 Q489.601 1306.39 494.184 1301.76 Q498.79 1297.11 499.971 1295.77 Q502.216 1293.24 503.096 1291.51 Q503.999 1289.75 503.999 1288.06 Q503.999 1285.3 502.054 1283.57 Q500.133 1281.83 497.031 1281.83 Q494.832 1281.83 492.378 1282.59 Q489.948 1283.36 487.17 1284.91 L487.17 1280.19 Q489.994 1279.05 492.448 1278.47 Q494.902 1277.89 496.939 1277.89 Q502.309 1277.89 505.503 1280.58 Q508.698 1283.27 508.698 1287.76 Q508.698 1289.89 507.888 1291.81 Q507.101 1293.7 504.994 1296.3 Q504.415 1296.97 501.314 1300.19 Q498.212 1303.38 492.564 1309.14 Z" fill="#000000" fill-rule="nonzero" fill-opacity="1" /><path clip-path="url(#clip910)" d="M706.378 1281.6 Q702.767 1281.6 700.938 1285.16 Q699.133 1288.7 699.133 1295.83 Q699.133 1302.94 700.938 1306.51 Q702.767 1310.05 706.378 1310.05 Q710.012 1310.05 711.818 1306.51 Q713.647 1302.94 713.647 1295.83 Q713.647 1288.7 711.818 1285.16 Q710.012 1281.6 706.378 1281.6 M706.378 1277.89 Q712.188 1277.89 715.244 1282.5 Q718.323 1287.08 718.323 1295.83 Q718.323 1304.56 715.244 1309.17 Q712.188 1313.75 706.378 1313.75 Q700.568 1313.75 697.489 1309.17 Q694.434 1304.56 694.434 1295.83 Q694.434 1287.08 697.489 1282.5 Q700.568 1277.89 706.378 1277.89 Z" fill="#000000" fill-rule="nonzero" fill-opacity="1" /><path clip-path="url(#clip910)" d="M726.54 1307.2 L731.424 1307.2 L731.424 1313.08 L726.54 1313.08 L726.54 1307.2 Z" fill="#000000" fill-rule="nonzero" fill-opacity="1" /><path clip-path="url(#clip910)" d="M754.457 1282.59 L742.651 1301.04 L754.457 1301.04 L754.457 1282.59 M753.23 1278.52 L759.109 1278.52 L759.109 1301.04 L764.04 1301.04 L764.04 1304.93 L759.109 1304.93 L759.109 1313.08 L754.457 1313.08 L754.457 1304.93 L738.855 1304.93 L738.855 1300.42 L753.23 1278.52 Z" fill="#000000" fill-rule="nonzero" fill-opacity="1" /><path clip-path="url(#clip910)" d="M960.656 1281.6 Q957.045 1281.6 955.216 1285.16 Q953.41 1288.7 953.41 1295.83 Q953.41 1302.94 955.216 1306.51 Q957.045 1310.05 960.656 1310.05 Q964.29 1310.05 966.095 1306.51 Q967.924 1302.94 967.924 1295.83 Q967.924 1288.7 966.095 1285.16 Q964.29 1281.6 960.656 1281.6 M960.656 1277.89 Q966.466 1277.89 969.521 1282.5 Q972.6 1287.08 972.6 1295.83 Q972.6 1304.56 969.521 1309.17 Q966.466 1313.75 960.656 1313.75 Q954.845 1313.75 951.767 1309.17 Q948.711 1304.56 948.711 1295.83 Q948.711 1287.08 951.767 1282.5 Q954.845 1277.89 960.656 1277.89 Z" fill="#000000" fill-rule="nonzero" fill-opacity="1" /><path clip-path="url(#clip910)" d="M980.818 1307.2 L985.702 1307.2 L985.702 1313.08 L980.818 1313.08 L980.818 1307.2 Z" fill="#000000" fill-rule="nonzero" fill-opacity="1" /><path clip-path="url(#clip910)" d="M1006.47 1293.94 Q1003.32 1293.94 1001.47 1296.09 Q999.637 1298.24 999.637 1301.99 Q999.637 1305.72 1001.47 1307.89 Q1003.32 1310.05 1006.47 1310.05 Q1009.61 1310.05 1011.44 1307.89 Q1013.29 1305.72 1013.29 1301.99 Q1013.29 1298.24 1011.44 1296.09 Q1009.61 1293.94 1006.47 1293.94 M1015.75 1279.28 L1015.75 1283.54 Q1013.99 1282.71 1012.18 1282.27 Q1010.4 1281.83 1008.64 1281.83 Q1004.01 1281.83 1001.56 1284.95 Q999.128 1288.08 998.78 1294.4 Q1000.15 1292.39 1002.21 1291.32 Q1004.27 1290.23 1006.74 1290.23 Q1011.95 1290.23 1014.96 1293.4 Q1017.99 1296.55 1017.99 1301.99 Q1017.99 1307.32 1014.85 1310.53 Q1011.7 1313.75 1006.47 1313.75 Q1000.47 1313.75 997.299 1309.17 Q994.128 1304.56 994.128 1295.83 Q994.128 1287.64 998.017 1282.78 Q1001.91 1277.89 1008.46 1277.89 Q1010.22 1277.89 1012 1278.24 Q1013.8 1278.59 1015.75 1279.28 Z" fill="#000000" fill-rule="nonzero" fill-opacity="1" /><path clip-path="url(#clip910)" d="M1214.9 1281.6 Q1211.29 1281.6 1209.46 1285.16 Q1207.65 1288.7 1207.65 1295.83 Q1207.65 1302.94 1209.46 1306.51 Q1211.29 1310.05 1214.9 1310.05 Q1218.53 1310.05 1220.34 1306.51 Q1222.17 1302.94 1222.17 1295.83 Q1222.17 1288.7 1220.34 1285.16 Q1218.53 1281.6 1214.9 1281.6 M1214.9 1277.89 Q1220.71 1277.89 1223.76 1282.5 Q1226.84 1287.08 1226.84 1295.83 Q1226.84 1304.56 1223.76 1309.17 Q1220.71 1313.75 1214.9 1313.75 Q1209.09 1313.75 1206.01 1309.17 Q1202.95 1304.56 1202.95 1295.83 Q1202.95 1287.08 1206.01 1282.5 Q1209.09 1277.89 1214.9 1277.89 Z" fill="#000000" fill-rule="nonzero" fill-opacity="1" /><path clip-path="url(#clip910)" d="M1235.06 1307.2 L1239.94 1307.2 L1239.94 1313.08 L1235.06 1313.08 L1235.06 1307.2 Z" fill="#000000" fill-rule="nonzero" fill-opacity="1" /><path clip-path="url(#clip910)" d="M1260.13 1296.67 Q1256.8 1296.67 1254.87 1298.45 Q1252.98 1300.23 1252.98 1303.36 Q1252.98 1306.48 1254.87 1308.27 Q1256.8 1310.05 1260.13 1310.05 Q1263.46 1310.05 1265.38 1308.27 Q1267.31 1306.46 1267.31 1303.36 Q1267.31 1300.23 1265.38 1298.45 Q1263.49 1296.67 1260.13 1296.67 M1255.45 1294.68 Q1252.44 1293.94 1250.75 1291.88 Q1249.09 1289.82 1249.09 1286.85 Q1249.09 1282.71 1252.03 1280.3 Q1254.99 1277.89 1260.13 1277.89 Q1265.29 1277.89 1268.23 1280.3 Q1271.17 1282.71 1271.17 1286.85 Q1271.17 1289.82 1269.48 1291.88 Q1267.81 1293.94 1264.83 1294.68 Q1268.21 1295.46 1270.08 1297.76 Q1271.98 1300.05 1271.98 1303.36 Q1271.98 1308.38 1268.9 1311.07 Q1265.85 1313.75 1260.13 1313.75 Q1254.41 1313.75 1251.33 1311.07 Q1248.28 1308.38 1248.28 1303.36 Q1248.28 1300.05 1250.18 1297.76 Q1252.07 1295.46 1255.45 1294.68 M1253.74 1287.29 Q1253.74 1289.98 1255.41 1291.48 Q1257.1 1292.99 1260.13 1292.99 Q1263.14 1292.99 1264.83 1291.48 Q1266.54 1289.98 1266.54 1287.29 Q1266.54 1284.61 1264.83 1283.1 Q1263.14 1281.6 1260.13 1281.6 Q1257.1 1281.6 1255.41 1283.1 Q1253.74 1284.61 1253.74 1287.29 Z" fill="#000000" fill-rule="nonzero" fill-opacity="1" /><path clip-path="url(#clip910)" d="M1458.74 1309.14 L1466.37 1309.14 L1466.37 1282.78 L1458.06 1284.45 L1458.06 1280.19 L1466.33 1278.52 L1471 1278.52 L1471 1309.14 L1478.64 1309.14 L1478.64 1313.08 L1458.74 1313.08 L1458.74 1309.14 Z" fill="#000000" fill-rule="nonzero" fill-opacity="1" /><path clip-path="url(#clip910)" d="M1488.09 1307.2 L1492.97 1307.2 L1492.97 1313.08 L1488.09 1313.08 L1488.09 1307.2 Z" fill="#000000" fill-rule="nonzero" fill-opacity="1" /><path clip-path="url(#clip910)" d="M1513.16 1281.6 Q1509.55 1281.6 1507.72 1285.16 Q1505.91 1288.7 1505.91 1295.83 Q1505.91 1302.94 1507.72 1306.51 Q1509.55 1310.05 1513.16 1310.05 Q1516.79 1310.05 1518.6 1306.51 Q1520.43 1302.94 1520.43 1295.83 Q1520.43 1288.7 1518.6 1285.16 Q1516.79 1281.6 1513.16 1281.6 M1513.16 1277.89 Q1518.97 1277.89 1522.02 1282.5 Q1525.1 1287.08 1525.1 1295.83 Q1525.1 1304.56 1522.02 1309.17 Q1518.97 1313.75 1513.16 1313.75 Q1507.35 1313.75 1504.27 1309.17 Q1501.21 1304.56 1501.21 1295.83 Q1501.21 1287.08 1504.27 1282.5 Q1507.35 1277.89 1513.16 1277.89 Z" fill="#000000" fill-rule="nonzero" fill-opacity="1" /><path clip-path="url(#clip910)" d="M1713.65 1309.14 L1721.29 1309.14 L1721.29 1282.78 L1712.98 1284.45 L1712.98 1280.19 L1721.24 1278.52 L1725.92 1278.52 L1725.92 1309.14 L1733.56 1309.14 L1733.56 1313.08 L1713.65 1313.08 L1713.65 1309.14 Z" fill="#000000" fill-rule="nonzero" fill-opacity="1" /><path clip-path="url(#clip910)" d="M1743 1307.2 L1747.89 1307.2 L1747.89 1313.08 L1743 1313.08 L1743 1307.2 Z" fill="#000000" fill-rule="nonzero" fill-opacity="1" /><path clip-path="url(#clip910)" d="M1762.1 1309.14 L1778.42 1309.14 L1778.42 1313.08 L1756.47 1313.08 L1756.47 1309.14 Q1759.14 1306.39 1763.72 1301.76 Q1768.33 1297.11 1769.51 1295.77 Q1771.75 1293.24 1772.63 1291.51 Q1773.53 1289.75 1773.53 1288.06 Q1773.53 1285.3 1771.59 1283.57 Q1769.67 1281.83 1766.57 1281.83 Q1764.37 1281.83 1761.91 1282.59 Q1759.48 1283.36 1756.71 1284.91 L1756.71 1280.19 Q1759.53 1279.05 1761.98 1278.47 Q1764.44 1277.89 1766.47 1277.89 Q1771.84 1277.89 1775.04 1280.58 Q1778.23 1283.27 1778.23 1287.76 Q1778.23 1289.89 1777.42 1291.81 Q1776.64 1293.7 1774.53 1296.3 Q1773.95 1296.97 1770.85 1300.19 Q1767.75 1303.38 1762.1 1309.14 Z" fill="#000000" fill-rule="nonzero" fill-opacity="1" /><path clip-path="url(#clip910)" d="M1055.35 1356.05 Q1055.35 1356.95 1054.93 1357.18 Q1054.52 1357.37 1053.36 1357.37 L1047.17 1357.37 L1042.28 1376.82 Q1041.89 1378.53 1041.89 1379.98 Q1041.89 1381.59 1042.37 1382.3 Q1042.89 1383.01 1043.95 1383.01 Q1046.05 1383.01 1048.3 1381.11 Q1050.59 1379.21 1052.52 1374.57 Q1052.78 1373.96 1052.9 1373.83 Q1053.07 1373.67 1053.48 1373.67 Q1054.29 1373.67 1054.29 1374.31 Q1054.29 1374.54 1053.84 1375.57 Q1053.42 1376.6 1052.49 1378.11 Q1051.58 1379.62 1050.39 1381.04 Q1049.23 1382.46 1047.46 1383.49 Q1045.69 1384.49 1043.79 1384.49 Q1041.12 1384.49 1039.41 1382.78 Q1037.74 1381.07 1037.74 1378.4 Q1037.74 1377.53 1038.41 1374.76 Q1039.09 1371.96 1042.76 1357.37 L1036.93 1357.37 Q1036.13 1357.37 1035.8 1357.34 Q1035.51 1357.31 1035.29 1357.14 Q1035.1 1356.95 1035.1 1356.57 Q1035.1 1355.95 1035.35 1355.7 Q1035.61 1355.41 1035.93 1355.37 Q1036.29 1355.31 1037.09 1355.31 L1043.28 1355.31 L1045.85 1344.84 Q1046.11 1343.81 1046.75 1343.23 Q1047.43 1342.62 1047.82 1342.56 Q1048.2 1342.46 1048.49 1342.46 Q1049.36 1342.46 1049.88 1342.94 Q1050.39 1343.39 1050.39 1344.23 Q1050.39 1344.68 1047.69 1355.31 L1053.48 1355.31 Q1054.23 1355.31 1054.52 1355.34 Q1054.84 1355.37 1055.09 1355.53 Q1055.35 1355.7 1055.35 1356.05 Z" fill="#000000" fill-rule="nonzero" fill-opacity="1" /><polyline clip-path="url(#clip910)" style="stroke:#000000; stroke-linecap:round; stroke-linejoin:round; stroke-width:4; stroke-opacity:1; fill:none" points="221.006,1254.52 221.006,47.2441 "/>
<polyline clip-path="url(#clip910)" style="stroke:#000000; stroke-linecap:round; stroke-linejoin:round; stroke-width:4; stroke-opacity:1; fill:none" points="221.006,1254.52 239.904,1254.52 "/>
<polyline clip-path="url(#clip910)" style="stroke:#000000; stroke-linecap:round; stroke-linejoin:round; stroke-width:4; stroke-opacity:1; fill:none" points="221.006,1013.06 239.904,1013.06 "/>
<polyline clip-path="url(#clip910)" style="stroke:#000000; stroke-linecap:round; stroke-linejoin:round; stroke-width:4; stroke-opacity:1; fill:none" points="221.006,771.61 239.904,771.61 "/>
<polyline clip-path="url(#clip910)" style="stroke:#000000; stroke-linecap:round; stroke-linejoin:round; stroke-width:4; stroke-opacity:1; fill:none" points="221.006,530.154 239.904,530.154 "/>
<polyline clip-path="url(#clip910)" style="stroke:#000000; stroke-linecap:round; stroke-linejoin:round; stroke-width:4; stroke-opacity:1; fill:none" points="221.006,288.699 239.904,288.699 "/>
<polyline clip-path="url(#clip910)" style="stroke:#000000; stroke-linecap:round; stroke-linejoin:round; stroke-width:4; stroke-opacity:1; fill:none" points="221.006,47.2441 239.904,47.2441 "/>
<path clip-path="url(#clip910)" d="M135.031 1240.32 Q131.42 1240.32 129.591 1243.88 Q127.785 1247.42 127.785 1254.55 Q127.785 1261.66 129.591 1265.23 Q131.42 1268.77 135.031 1268.77 Q138.665 1268.77 140.47 1265.23 Q142.299 1261.66 142.299 1254.55 Q142.299 1247.42 140.47 1243.88 Q138.665 1240.32 135.031 1240.32 M135.031 1236.61 Q140.841 1236.61 143.896 1241.22 Q146.975 1245.8 146.975 1254.55 Q146.975 1263.28 143.896 1267.89 Q140.841 1272.47 135.031 1272.47 Q129.22 1272.47 126.142 1267.89 Q123.086 1263.28 123.086 1254.55 Q123.086 1245.8 126.142 1241.22 Q129.22 1236.61 135.031 1236.61 Z" fill="#000000" fill-rule="nonzero" fill-opacity="1" /><path clip-path="url(#clip910)" d="M155.193 1265.92 L160.077 1265.92 L160.077 1271.8 L155.193 1271.8 L155.193 1265.92 Z" fill="#000000" fill-rule="nonzero" fill-opacity="1" /><path clip-path="url(#clip910)" d="M180.262 1240.32 Q176.651 1240.32 174.822 1243.88 Q173.017 1247.42 173.017 1254.55 Q173.017 1261.66 174.822 1265.23 Q176.651 1268.77 180.262 1268.77 Q183.896 1268.77 185.702 1265.23 Q187.53 1261.66 187.53 1254.55 Q187.53 1247.42 185.702 1243.88 Q183.896 1240.32 180.262 1240.32 M180.262 1236.61 Q186.072 1236.61 189.128 1241.22 Q192.206 1245.8 192.206 1254.55 Q192.206 1263.28 189.128 1267.89 Q186.072 1272.47 180.262 1272.47 Q174.452 1272.47 171.373 1267.89 Q168.318 1263.28 168.318 1254.55 Q168.318 1245.8 171.373 1241.22 Q174.452 1236.61 180.262 1236.61 Z" fill="#000000" fill-rule="nonzero" fill-opacity="1" /><path clip-path="url(#clip910)" d="M136.628 998.863 Q133.017 998.863 131.188 1002.43 Q129.383 1005.97 129.383 1013.1 Q129.383 1020.21 131.188 1023.77 Q133.017 1027.31 136.628 1027.31 Q140.262 1027.31 142.068 1023.77 Q143.896 1020.21 143.896 1013.1 Q143.896 1005.97 142.068 1002.43 Q140.262 998.863 136.628 998.863 M136.628 995.16 Q142.438 995.16 145.494 999.766 Q148.572 1004.35 148.572 1013.1 Q148.572 1021.83 145.494 1026.43 Q142.438 1031.02 136.628 1031.02 Q130.818 1031.02 127.739 1026.43 Q124.683 1021.83 124.683 1013.1 Q124.683 1004.35 127.739 999.766 Q130.818 995.16 136.628 995.16 Z" fill="#000000" fill-rule="nonzero" fill-opacity="1" /><path clip-path="url(#clip910)" d="M156.79 1024.47 L161.674 1024.47 L161.674 1030.34 L156.79 1030.34 L156.79 1024.47 Z" fill="#000000" fill-rule="nonzero" fill-opacity="1" /><path clip-path="url(#clip910)" d="M175.887 1026.41 L192.206 1026.41 L192.206 1030.34 L170.262 1030.34 L170.262 1026.41 Q172.924 1023.65 177.507 1019.03 Q182.114 1014.37 183.294 1013.03 Q185.54 1010.51 186.419 1008.77 Q187.322 1007.01 187.322 1005.32 Q187.322 1002.57 185.378 1000.83 Q183.456 999.095 180.354 999.095 Q178.155 999.095 175.702 999.859 Q173.271 1000.62 170.493 1002.17 L170.493 997.451 Q173.317 996.317 175.771 995.738 Q178.225 995.16 180.262 995.16 Q185.632 995.16 188.827 997.845 Q192.021 1000.53 192.021 1005.02 Q192.021 1007.15 191.211 1009.07 Q190.424 1010.97 188.317 1013.56 Q187.739 1014.23 184.637 1017.45 Q181.535 1020.65 175.887 1026.41 Z" fill="#000000" fill-rule="nonzero" fill-opacity="1" /><path clip-path="url(#clip910)" d="M134.545 757.408 Q130.933 757.408 129.105 760.973 Q127.299 764.515 127.299 771.644 Q127.299 778.751 129.105 782.316 Q130.933 785.857 134.545 785.857 Q138.179 785.857 139.984 782.316 Q141.813 778.751 141.813 771.644 Q141.813 764.515 139.984 760.973 Q138.179 757.408 134.545 757.408 M134.545 753.705 Q140.355 753.705 143.41 758.311 Q146.489 762.894 146.489 771.644 Q146.489 780.371 143.41 784.978 Q140.355 789.561 134.545 789.561 Q128.734 789.561 125.656 784.978 Q122.6 780.371 122.6 771.644 Q122.6 762.894 125.656 758.311 Q128.734 753.705 134.545 753.705 Z" fill="#000000" fill-rule="nonzero" fill-opacity="1" /><path clip-path="url(#clip910)" d="M154.706 783.01 L159.591 783.01 L159.591 788.89 L154.706 788.89 L154.706 783.01 Z" fill="#000000" fill-rule="nonzero" fill-opacity="1" /><path clip-path="url(#clip910)" d="M182.623 758.404 L170.817 776.853 L182.623 776.853 L182.623 758.404 M181.396 754.33 L187.276 754.33 L187.276 776.853 L192.206 776.853 L192.206 780.741 L187.276 780.741 L187.276 788.89 L182.623 788.89 L182.623 780.741 L167.021 780.741 L167.021 776.228 L181.396 754.33 Z" fill="#000000" fill-rule="nonzero" fill-opacity="1" /><path clip-path="url(#clip910)" d="M134.869 515.953 Q131.258 515.953 129.429 519.518 Q127.623 523.06 127.623 530.189 Q127.623 537.296 129.429 540.86 Q131.258 544.402 134.869 544.402 Q138.503 544.402 140.308 540.86 Q142.137 537.296 142.137 530.189 Q142.137 523.06 140.308 519.518 Q138.503 515.953 134.869 515.953 M134.869 512.249 Q140.679 512.249 143.734 516.856 Q146.813 521.439 146.813 530.189 Q146.813 538.916 143.734 543.522 Q140.679 548.106 134.869 548.106 Q129.058 548.106 125.98 543.522 Q122.924 538.916 122.924 530.189 Q122.924 521.439 125.98 516.856 Q129.058 512.249 134.869 512.249 Z" fill="#000000" fill-rule="nonzero" fill-opacity="1" /><path clip-path="url(#clip910)" d="M155.031 541.555 L159.915 541.555 L159.915 547.434 L155.031 547.434 L155.031 541.555 Z" fill="#000000" fill-rule="nonzero" fill-opacity="1" /><path clip-path="url(#clip910)" d="M180.679 528.291 Q177.53 528.291 175.679 530.444 Q173.85 532.597 173.85 536.346 Q173.85 540.073 175.679 542.249 Q177.53 544.402 180.679 544.402 Q183.827 544.402 185.655 542.249 Q187.507 540.073 187.507 536.346 Q187.507 532.597 185.655 530.444 Q183.827 528.291 180.679 528.291 M189.961 513.638 L189.961 517.898 Q188.202 517.064 186.396 516.624 Q184.614 516.185 182.854 516.185 Q178.225 516.185 175.771 519.31 Q173.341 522.435 172.993 528.754 Q174.359 526.74 176.419 525.675 Q178.479 524.587 180.956 524.587 Q186.165 524.587 189.174 527.759 Q192.206 530.907 192.206 536.346 Q192.206 541.671 189.058 544.888 Q185.91 548.106 180.679 548.106 Q174.683 548.106 171.512 543.522 Q168.341 538.916 168.341 530.189 Q168.341 521.995 172.23 517.134 Q176.118 512.249 182.669 512.249 Q184.429 512.249 186.211 512.597 Q188.016 512.944 189.961 513.638 Z" fill="#000000" fill-rule="nonzero" fill-opacity="1" /><path clip-path="url(#clip910)" d="M135.123 274.498 Q131.512 274.498 129.683 278.063 Q127.878 281.604 127.878 288.734 Q127.878 295.84 129.683 299.405 Q131.512 302.947 135.123 302.947 Q138.757 302.947 140.563 299.405 Q142.392 295.84 142.392 288.734 Q142.392 281.604 140.563 278.063 Q138.757 274.498 135.123 274.498 M135.123 270.794 Q140.933 270.794 143.989 275.401 Q147.068 279.984 147.068 288.734 Q147.068 297.461 143.989 302.067 Q140.933 306.651 135.123 306.651 Q129.313 306.651 126.234 302.067 Q123.179 297.461 123.179 288.734 Q123.179 279.984 126.234 275.401 Q129.313 270.794 135.123 270.794 Z" fill="#000000" fill-rule="nonzero" fill-opacity="1" /><path clip-path="url(#clip910)" d="M155.285 300.1 L160.169 300.1 L160.169 305.979 L155.285 305.979 L155.285 300.1 Z" fill="#000000" fill-rule="nonzero" fill-opacity="1" /><path clip-path="url(#clip910)" d="M180.354 289.567 Q177.021 289.567 175.1 291.35 Q173.202 293.132 173.202 296.257 Q173.202 299.382 175.1 301.164 Q177.021 302.947 180.354 302.947 Q183.688 302.947 185.609 301.164 Q187.53 299.359 187.53 296.257 Q187.53 293.132 185.609 291.35 Q183.711 289.567 180.354 289.567 M175.679 287.577 Q172.669 286.836 170.98 284.776 Q169.313 282.715 169.313 279.753 Q169.313 275.609 172.253 273.202 Q175.216 270.794 180.354 270.794 Q185.516 270.794 188.456 273.202 Q191.396 275.609 191.396 279.753 Q191.396 282.715 189.706 284.776 Q188.04 286.836 185.054 287.577 Q188.433 288.364 190.308 290.655 Q192.206 292.947 192.206 296.257 Q192.206 301.28 189.128 303.965 Q186.072 306.651 180.354 306.651 Q174.637 306.651 171.558 303.965 Q168.503 301.28 168.503 296.257 Q168.503 292.947 170.401 290.655 Q172.299 288.364 175.679 287.577 M173.966 280.192 Q173.966 282.878 175.632 284.382 Q177.322 285.887 180.354 285.887 Q183.364 285.887 185.054 284.382 Q186.766 282.878 186.766 280.192 Q186.766 277.507 185.054 276.003 Q183.364 274.498 180.354 274.498 Q177.322 274.498 175.632 276.003 Q173.966 277.507 173.966 280.192 Z" fill="#000000" fill-rule="nonzero" fill-opacity="1" /><path clip-path="url(#clip910)" d="M125.841 60.5889 L133.48 60.5889 L133.48 34.2233 L125.17 35.89 L125.17 31.6308 L133.433 29.9641 L138.109 29.9641 L138.109 60.5889 L145.748 60.5889 L145.748 64.5241 L125.841 64.5241 L125.841 60.5889 Z" fill="#000000" fill-rule="nonzero" fill-opacity="1" /><path clip-path="url(#clip910)" d="M155.193 58.6445 L160.077 58.6445 L160.077 64.5241 L155.193 64.5241 L155.193 58.6445 Z" fill="#000000" fill-rule="nonzero" fill-opacity="1" /><path clip-path="url(#clip910)" d="M180.262 33.0428 Q176.651 33.0428 174.822 36.6076 Q173.017 40.1492 173.017 47.2788 Q173.017 54.3853 174.822 57.9501 Q176.651 61.4917 180.262 61.4917 Q183.896 61.4917 185.702 57.9501 Q187.53 54.3853 187.53 47.2788 Q187.53 40.1492 185.702 36.6076 Q183.896 33.0428 180.262 33.0428 M180.262 29.3391 Q186.072 29.3391 189.128 33.9456 Q192.206 38.5289 192.206 47.2788 Q192.206 56.0056 189.128 60.6121 Q186.072 65.1954 180.262 65.1954 Q174.452 65.1954 171.373 60.6121 Q168.318 56.0056 168.318 47.2788 Q168.318 38.5289 171.373 33.9456 Q174.452 29.3391 180.262 29.3391 Z" fill="#000000" fill-rule="nonzero" fill-opacity="1" /><path clip-path="url(#clip910)" d="M35.7905 670.595 L50.2187 674.17 Q51.0883 674.363 51.3137 674.524 Q51.5391 674.685 51.5391 675.136 Q51.5391 675.491 51.3781 675.716 Q51.2171 675.909 51.056 675.909 L50.895 675.941 Q50.7984 675.941 50.3153 675.877 Q49.8 675.813 48.9627 675.748 Q48.1253 675.684 47.1913 675.684 Q41.9096 675.684 39.4619 678.26 Q36.9821 680.805 36.9821 685.185 Q36.9821 688.212 38.5924 690.917 Q40.2027 693.623 42.7469 695.168 Q45.259 696.714 47.8999 696.714 Q50.3153 696.714 51.8612 695.49 Q53.4071 694.267 53.9224 692.689 L55.114 688.276 Q56.3056 683.639 56.8209 682.318 Q57.304 680.998 58.399 679.903 Q61.4263 676.65 66.1284 676.65 Q70.1863 676.65 74.1154 678.937 Q78.0124 681.223 80.5566 685.152 Q83.0687 689.081 83.0687 693.429 Q83.0687 701.062 78.3344 704.573 L82.0703 707.793 Q82.7788 708.405 82.9076 708.598 Q83.0687 708.759 83.0687 708.985 Q83.0687 709.275 82.8754 709.5 Q82.7144 709.725 82.4246 709.725 Q82.1991 709.725 74.6307 707.825 Q67.0624 705.925 66.9013 705.764 Q66.6437 705.506 66.6437 705.088 Q66.6437 704.315 67.3844 704.315 Q67.5777 704.379 67.8353 704.444 Q70.1541 704.83 71.4101 704.83 Q73.7612 704.83 75.5647 704.025 Q77.336 703.22 78.3666 702.028 Q79.365 700.804 80.0091 699.162 Q80.621 697.519 80.8465 696.135 Q81.0397 694.75 81.0397 693.3 Q81.0397 690.176 79.2362 687.407 Q77.4326 684.605 74.6307 683.027 Q71.8288 681.416 68.8981 681.416 Q67.3522 681.416 66.1606 681.835 Q64.9368 682.254 64.2604 682.834 Q63.5841 683.381 63.0688 684.315 Q62.5535 685.249 62.3603 685.893 Q62.1349 686.505 61.9094 687.471 L60.0415 694.524 Q59.2041 697.358 56.7887 699.387 Q54.3732 701.384 50.6696 701.384 Q46.7727 701.384 43.1656 699.098 Q39.5263 696.779 37.3363 693.011 Q35.1141 689.21 35.1141 685.12 Q35.1141 681.9 36.3702 679.42 Q37.594 676.94 39.8806 675.684 L36.1125 672.495 Q35.3718 671.851 35.243 671.723 Q35.1141 671.562 35.1141 671.336 Q35.1141 670.95 35.3396 670.789 Q35.565 670.595 35.7905 670.595 Z" fill="#000000" fill-rule="nonzero" fill-opacity="1" /><path clip-path="url(#clip910)" d="M65.13 663.095 Q53.9868 663.095 45.0013 658.94 Q41.2333 657.169 38.0771 654.689 Q34.9209 652.209 33.5361 650.567 Q32.1512 648.924 32.1512 648.473 Q32.1512 647.829 32.7953 647.797 Q33.1174 647.797 33.9225 648.667 Q44.7437 659.294 65.13 659.262 Q85.5807 659.262 95.9832 648.924 Q97.1104 647.797 97.4647 647.797 Q98.1088 647.797 98.1088 648.473 Q98.1088 648.924 96.7884 650.502 Q95.4679 652.08 92.4406 654.528 Q89.4132 656.976 85.7096 658.747 Q76.7241 663.095 65.13 663.095 Z" fill="#000000" fill-rule="nonzero" fill-opacity="1" /><path clip-path="url(#clip910)" d="M53.9224 622.527 Q54.8241 622.527 55.0496 622.946 Q55.2428 623.364 55.2428 624.524 L55.2428 630.707 L74.6951 635.603 Q76.4021 635.989 77.8513 635.989 Q79.4616 635.989 80.1701 635.506 Q80.8787 634.991 80.8787 633.928 Q80.8787 631.835 78.9785 629.58 Q77.0784 627.294 72.4407 625.361 Q71.8288 625.104 71.7 624.975 Q71.539 624.814 71.539 624.395 Q71.539 623.59 72.1831 623.59 Q72.4085 623.59 73.4391 624.041 Q74.4697 624.459 75.9834 625.393 Q77.4971 626.295 78.9141 627.487 Q80.3312 628.646 81.3618 630.417 Q82.3601 632.189 82.3601 634.089 Q82.3601 636.762 80.6532 638.469 Q78.9463 640.144 76.2732 640.144 Q75.4037 640.144 72.634 639.467 Q69.8321 638.791 55.2428 635.12 L55.2428 640.949 Q55.2428 641.754 55.2106 642.076 Q55.1784 642.366 55.0174 642.591 Q54.8241 642.785 54.4377 642.785 Q53.8257 642.785 53.5681 642.527 Q53.2782 642.269 53.246 641.947 Q53.1816 641.593 53.1816 640.788 L53.1816 634.604 L42.7147 632.028 Q41.6841 631.77 41.1044 631.126 Q40.4925 630.45 40.4281 630.063 Q40.3315 629.677 40.3315 629.387 Q40.3315 628.517 40.8146 628.002 Q41.2655 627.487 42.1028 627.487 Q42.5537 627.487 53.1816 630.192 L53.1816 624.395 Q53.1816 623.654 53.2138 623.364 Q53.246 623.042 53.4071 622.785 Q53.5681 622.527 53.9224 622.527 Z" fill="#000000" fill-rule="nonzero" fill-opacity="1" /><path clip-path="url(#clip910)" d="M97.4647 617.365 Q97.1426 617.365 96.3375 616.527 Q85.5163 605.899 65.13 605.899 Q44.6793 605.899 34.3412 616.109 Q33.1496 617.365 32.7953 617.365 Q32.1512 617.365 32.1512 616.721 Q32.1512 616.27 33.4716 614.692 Q34.7921 613.081 37.8194 610.666 Q40.8468 608.218 44.5505 606.415 Q53.5359 602.067 65.13 602.067 Q76.2732 602.067 85.2587 606.221 Q89.0268 607.993 92.1829 610.473 Q95.3391 612.952 96.724 614.595 Q98.1088 616.237 98.1088 616.721 Q98.1088 617.365 97.4647 617.365 Z" fill="#000000" fill-rule="nonzero" fill-opacity="1" /><polyline clip-path="url(#clip912)" style="stroke:#009af9; stroke-linecap:round; stroke-linejoin:round; stroke-width:4; stroke-opacity:1; fill:none" points="221.006,47.2441 233.712,54.221 246.418,63.0179 259.124,72.9225 271.829,83.9447 284.535,95.6037 297.241,107.927 309.947,120.666 322.652,133.934 335.358,148.001 348.064,162.75 360.77,177.643 373.475,192.835 386.181,208.819 398.887,225.499 411.593,242.355 424.299,259.089 437.004,275.697 449.71,292.142 462.416,308.492 475.122,324.879 487.827,341.421 500.533,357.861 513.239,374.247 525.945,390.617 538.65,406.865 551.356,422.949 564.062,438.848 576.768,454.598 589.473,470.226 602.179,485.697 614.885,500.966 627.591,516.079 640.297,531.071 653.002,545.847 665.708,560.401 678.414,574.753 691.12,588.887 703.825,602.807 716.531,616.52 729.237,630.077 741.943,643.459 754.648,656.651 767.354,669.698 780.06,682.61 792.766,695.403 805.472,708.07 818.177,720.737 830.883,733.679 843.589,747.057 856.295,761.04 869,774.922 881.706,788.589 894.412,802.001 907.118,815.135 919.823,828.056 932.529,840.923 945.235,854.08 957.941,867.184 970.646,880.015 983.352,892.513 996.058,904.685 1008.76,916.548 1021.47,928.122 1034.18,939.417 1046.88,950.441 1059.59,961.194 1072.29,971.693 1085,982.008 1097.7,992.128 1110.41,1001.99 1123.12,1011.58 1135.82,1020.91 1148.53,1029.96 1161.23,1038.76 1173.94,1047.3 1186.64,1055.6 1199.35,1063.7 1212.06,1071.57 1224.76,1079.19 1237.47,1086.54 1250.17,1093.64 1262.88,1100.48 1275.58,1107.08 1288.29,1113.43 1301,1119.53 1313.7,1125.39 1326.41,1131.03 1339.11,1136.46 1351.82,1141.67 1364.53,1146.71 1377.23,1151.55 1389.94,1156.23 1402.64,1160.74 1415.35,1165.1 1428.05,1169.33 1440.76,1173.42 1453.47,1177.39 1466.17,1181.24 1478.88,1184.98 1491.58,1188.56 1504.29,1191.99 1516.99,1195.28 1529.7,1198.43 1542.41,1201.44 1555.11,1204.3 1567.82,1207.03 1580.52,1209.63 1593.23,1212.12 1605.93,1214.49 1618.64,1216.77 1631.35,1218.94 1644.05,1220.99 1656.76,1222.95 1669.46,1224.79 1682.17,1226.55 1694.88,1228.21 1707.58,1229.78 1720.29,1231.27 1732.99,1232.67 1745.7,1234.01 1758.4,1235.27 1771.11,1236.46 1783.82,1237.58 1796.52,1238.63 1809.23,1239.63 1821.93,1240.57 1834.64,1241.46 1847.34,1242.29 1860.05,1243.08 1872.76,1243.83 1885.46,1244.53 1898.17,1245.18 1910.87,1245.8 1923.58,1246.37 1936.28,1246.92 1948.99,1247.42 1961.7,1247.9 1974.4,1248.35 1987.11,1248.76 1999.81,1249.15 2012.52,1249.52 2025.23,1249.86 2037.93,1250.18 2050.64,1250.48 2063.34,1250.76 2076.05,1251.02 2088.75,1251.27 2101.46,1251.49 2114.17,1251.71 2126.87,1251.9 2139.58,1252.09 2152.28,1252.26 2164.99,1252.42 2177.69,1252.57 2190.4,1252.72 2203.11,1252.85 2215.81,1252.97 2228.52,1253.08 2241.22,1253.19 2253.93,1253.29 2266.63,1253.38 2279.34,1253.46 2292.05,1253.54 2304.75,1253.61 2317.46,1253.68 2330.16,1253.74 2342.87,1253.8 2355.58,1253.86 2368.28,1253.91 2380.99,1253.95 2393.69,1254 2406.4,1254.04 2419.1,1254.07 2431.81,1254.11 2444.52,1254.14 2457.22,1254.17 2469.93,1254.19 2482.63,1254.22 2495.34,1254.24 2508.04,1254.26 2520.75,1254.28 2533.46,1254.3 2546.16,1254.32 2558.87,1254.33 2571.57,1254.35 2584.28,1254.36 2596.98,1254.37 2609.69,1254.39 2622.4,1254.4 2635.1,1254.41 2647.81,1254.41 2660.51,1254.42 2673.22,1254.43 2685.92,1254.44 2698.63,1254.44 2711.34,1254.45 2724.04,1254.45 2736.75,1254.46 2749.45,1254.46 2762.16,1254.47 "/>
<polyline clip-path="url(#clip912)" style="stroke:#e26f46; stroke-linecap:round; stroke-linejoin:round; stroke-width:4; stroke-opacity:1; fill:none" points="221.006,47.2441 233.712,52.8183 246.418,60.6214 259.124,69.6799 271.829,79.7005 284.535,90.5203 297.241,102.03 309.947,114.149 322.652,126.814 335.358,139.97 348.064,153.573 360.77,167.582 373.475,181.962 386.181,196.68 398.887,211.706 411.593,227.011 424.299,242.569 437.004,258.355 449.71,274.345 462.416,290.517 475.122,306.849 487.827,323.32 500.533,339.909 513.239,356.598 525.945,373.368 538.65,390.201 551.356,407.079 564.062,423.986 576.768,440.905 589.473,457.821 602.179,474.717 614.885,491.581 627.591,508.397 640.297,525.151 653.002,541.832 665.708,558.425 678.414,574.919 691.12,591.302 703.825,607.564 716.531,623.692 729.237,639.678 741.943,655.511 754.648,671.182 767.354,686.683 780.06,702.004 792.766,717.139 805.472,732.079 818.177,746.819 830.883,761.35 843.589,775.668 856.295,789.767 869,803.642 881.706,817.288 894.412,830.7 907.118,843.875 919.823,856.81 932.529,869.501 945.235,881.945 957.941,894.141 970.646,906.087 983.352,917.78 996.058,929.22 1008.76,940.406 1021.47,951.338 1034.18,962.014 1046.88,972.436 1059.59,982.604 1072.29,992.519 1085,1002.18 1097.7,1011.59 1110.41,1020.75 1123.12,1029.67 1135.82,1038.33 1148.53,1046.76 1161.23,1054.94 1173.94,1062.88 1186.64,1070.59 1199.35,1078.07 1212.06,1085.31 1224.76,1092.33 1237.47,1099.13 1250.17,1105.71 1262.88,1112.07 1275.58,1118.22 1288.29,1124.16 1301,1129.9 1313.7,1135.44 1326.41,1140.79 1339.11,1145.94 1351.82,1150.9 1364.53,1155.69 1377.23,1160.29 1389.94,1164.72 1402.64,1168.98 1415.35,1173.07 1428.05,1177.01 1440.76,1180.78 1453.47,1184.41 1466.17,1187.89 1478.88,1191.22 1491.58,1194.41 1504.29,1197.47 1516.99,1200.4 1529.7,1203.2 1542.41,1205.88 1555.11,1208.44 1567.82,1210.88 1580.52,1213.22 1593.23,1215.45 1605.93,1217.57 1618.64,1219.6 1631.35,1221.52 1644.05,1223.36 1656.76,1225.11 1669.46,1226.77 1682.17,1228.36 1694.88,1229.86 1707.58,1231.29 1720.29,1232.64 1732.99,1233.93 1745.7,1235.15 1758.4,1236.3 1771.11,1237.4 1783.82,1238.43 1796.52,1239.41 1809.23,1240.34 1821.93,1241.22 1834.64,1242.05 1847.34,1242.83 1860.05,1243.57 1872.76,1244.27 1885.46,1244.93 1898.17,1245.54 1910.87,1246.13 1923.58,1246.68 1936.28,1247.19 1948.99,1247.68 1961.7,1248.14 1974.4,1248.57 1987.11,1248.97 1999.81,1249.35 2012.52,1249.7 2025.23,1250.04 2037.93,1250.35 2050.64,1250.64 2063.34,1250.91 2076.05,1251.17 2088.75,1251.41 2101.46,1251.63 2114.17,1251.84 2126.87,1252.04 2139.58,1252.22 2152.28,1252.39 2164.99,1252.54 2177.69,1252.69 2190.4,1252.83 2203.11,1252.96 2215.81,1253.08 2228.52,1253.19 2241.22,1253.29 2253.93,1253.38 2266.63,1253.47 2279.34,1253.55 2292.05,1253.63 2304.75,1253.7 2317.46,1253.77 2330.16,1253.83 2342.87,1253.88 2355.58,1253.93 2368.28,1253.98 2380.99,1254.03 2393.69,1254.07 2406.4,1254.1 2419.1,1254.14 2431.81,1254.17 2444.52,1254.2 2457.22,1254.23 2469.93,1254.25 2482.63,1254.28 2495.34,1254.3 2508.04,1254.32 2520.75,1254.33 2533.46,1254.35 2546.16,1254.36 2558.87,1254.38 2571.57,1254.39 2584.28,1254.4 2596.98,1254.41 2609.69,1254.42 2622.4,1254.43 2635.1,1254.44 2647.81,1254.45 2660.51,1254.45 2673.22,1254.46 2685.92,1254.47 2698.63,1254.47 2711.34,1254.48 2724.04,1254.48 2736.75,1254.48 2749.45,1254.49 2762.16,1254.49 "/>
<polyline clip-path="url(#clip912)" style="stroke:#3da44d; stroke-linecap:round; stroke-linejoin:round; stroke-width:4; stroke-opacity:1; fill:none" points="221.006,47.2441 233.712,55.2926 246.418,55.2926 259.124,67.3654 271.829,75.4139 284.535,91.5109 297.241,103.584 309.947,115.656 322.652,135.778 335.358,139.802 348.064,155.899 360.77,163.947 373.475,180.044 386.181,204.19 398.887,220.287 411.593,256.505 424.299,256.505 437.004,284.675 449.71,288.699 462.416,296.748 475.122,304.796 487.827,345.039 500.533,353.087 513.239,361.136 525.945,393.33 538.65,409.427 551.356,441.621 564.062,449.669 576.768,469.791 589.473,489.912 602.179,514.057 614.885,526.13 627.591,526.13 640.297,554.3 653.002,562.348 665.708,570.397 678.414,582.47 691.12,598.567 703.825,618.688 716.531,634.785 729.237,654.906 741.943,671.003 754.648,679.052 767.354,691.124 780.06,699.173 792.766,715.27 805.472,727.343 818.177,735.391 830.883,751.488 843.589,759.537 856.295,771.61 869,795.755 881.706,803.804 894.412,811.852 907.118,827.949 919.823,827.949 932.529,844.046 945.235,856.119 957.941,872.216 970.646,884.289 983.352,896.361 996.058,900.386 1008.76,908.434 1021.47,920.507 1034.18,928.555 1046.88,944.652 1059.59,948.677 1072.29,952.701 1085,968.798 1097.7,984.895 1110.41,992.943 1123.12,1009.04 1135.82,1021.11 1148.53,1029.16 1161.23,1037.21 1173.94,1041.23 1186.64,1041.23 1199.35,1053.31 1212.06,1061.36 1224.76,1077.45 1237.47,1093.55 1250.17,1097.57 1262.88,1105.62 1275.58,1121.72 1288.29,1125.74 1301,1129.77 1313.7,1133.79 1326.41,1133.79 1339.11,1141.84 1351.82,1141.84 1364.53,1145.87 1377.23,1145.87 1389.94,1149.89 1402.64,1153.91 1415.35,1153.91 1428.05,1153.91 1440.76,1161.96 1453.47,1161.96 1466.17,1165.99 1478.88,1182.08 1491.58,1186.11 1504.29,1186.11 1516.99,1194.16 1529.7,1198.18 1542.41,1206.23 1555.11,1206.23 1567.82,1206.23 1580.52,1206.23 1593.23,1206.23 1605.93,1210.25 1618.64,1214.28 1631.35,1226.35 1644.05,1226.35 1656.76,1226.35 1669.46,1226.35 1682.17,1226.35 1694.88,1226.35 1707.58,1230.37 1720.29,1234.4 1732.99,1234.4 1745.7,1234.4 1758.4,1238.42 1771.11,1238.42 1783.82,1238.42 1796.52,1238.42 1809.23,1238.42 1821.93,1238.42 1834.64,1242.45 1847.34,1242.45 1860.05,1242.45 1872.76,1242.45 1885.46,1246.47 1898.17,1250.5 1910.87,1250.5 1923.58,1250.5 1936.28,1250.5 1948.99,1250.5 1961.7,1250.5 1974.4,1250.5 1987.11,1250.5 1999.81,1250.5 2012.52,1250.5 2025.23,1250.5 2037.93,1250.5 2050.64,1250.5 2063.34,1250.5 2076.05,1250.5 2088.75,1250.5 2101.46,1250.5 2114.17,1250.5 2126.87,1250.5 2139.58,1250.5 2152.28,1250.5 2164.99,1250.5 2177.69,1250.5 2190.4,1250.5 2203.11,1250.5 2215.81,1250.5 2228.52,1250.5 2241.22,1250.5 2253.93,1250.5 2266.63,1254.52 2279.34,1254.52 2292.05,1254.52 2304.75,1254.52 2317.46,1254.52 2330.16,1254.52 2342.87,1254.52 2355.58,1254.52 2368.28,1254.52 2380.99,1254.52 2393.69,1254.52 2406.4,1254.52 2419.1,1254.52 2431.81,1254.52 2444.52,1254.52 2457.22,1254.52 2469.93,1254.52 2482.63,1254.52 2495.34,1254.52 2508.04,1254.52 2520.75,1254.52 2533.46,1254.52 2546.16,1254.52 2558.87,1254.52 2571.57,1254.52 2584.28,1254.52 2596.98,1254.52 2609.69,1254.52 2622.4,1254.52 2635.1,1254.52 2647.81,1254.52 2660.51,1254.52 2673.22,1254.52 2685.92,1254.52 2698.63,1254.52 2711.34,1254.52 2724.04,1254.52 2736.75,1254.52 2749.45,1254.52 2762.16,1254.52 "/>
<path clip-path="url(#clip912)" d="M221.006 47.2441 L233.712 59.1973 L246.418 73.2829 L259.124 87.6181 L271.829 102.071 L284.535 116.887 L297.241 132.212 L309.947 149.128 L322.652 165.546 L335.358 182.485 L348.064 199.71 L360.77 216.651 L373.475 234.05 L386.181 251.362 L398.887 269.404 L411.593 287.646 L424.299 305.264 L437.004 323.165 L449.71 341.018 L462.416 358.526 L475.122 376.197 L487.827 392.96 L500.533 410.397 L513.239 428.28 L525.945 445.258 L538.65 461.88 L551.356 478.026 L564.062 494.041 L576.768 510.311 L589.473 525.913 L602.179 541.872 L614.885 557.374 L627.591 573.641 L640.297 588.618 L653.002 603.316 L665.708 620.019 L678.414 634.923 L691.12 648.704 L703.825 662.442 L716.531 676.71 L729.237 690.694 L741.943 703.777 L754.648 716.929 L767.354 729.78 L780.06 742.086 L792.766 754.56 L805.472 767.538 L818.177 780.43 L830.883 792.825 L843.589 805.497 L856.295 818.213 L869 831.968 L881.706 846.113 L894.412 859.178 L907.118 870.77 L919.823 883.239 L932.529 896.284 L945.235 908.475 L957.941 919.48 L970.646 931.942 L983.352 943.628 L996.058 955.199 L1008.76 966.61 L1021.47 977.448 L1034.18 987.901 L1046.88 998.879 L1059.59 1009.29 L1072.29 1018.24 L1085 1027.72 L1097.7 1037.08 L1110.41 1046.49 L1123.12 1055.69 L1135.82 1064.35 L1148.53 1072.62 L1161.23 1080.47 L1173.94 1088.75 L1186.64 1095.89 L1199.35 1103.6 L1212.06 1110.33 L1224.76 1116.79 L1237.47 1123.15 L1250.17 1129.87 L1262.88 1136.03 L1275.58 1141.67 L1288.29 1147.04 L1301 1152.66 L1313.7 1158.15 L1326.41 1163 L1339.11 1167.86 L1351.82 1172.43 L1364.53 1176.89 L1377.23 1181.01 L1389.94 1185.21 L1402.64 1189.37 L1415.35 1193.2 L1428.05 1196.32 L1440.76 1199.81 L1453.47 1203.08 L1466.17 1205.95 L1478.88 1208.87 L1491.58 1211.71 L1504.29 1214.16 L1516.99 1216.7 L1529.7 1219.39 L1542.41 1221.83 L1555.11 1223.94 L1567.82 1225.9 L1580.52 1227.98 L1593.23 1229.75 L1605.93 1231.58 L1618.64 1233.06 L1631.35 1234.74 L1644.05 1236.17 L1656.76 1237.61 L1669.46 1238.76 L1682.17 1239.89 L1694.88 1241.05 L1707.58 1242.1 L1720.29 1243.12 L1732.99 1244.04 L1745.7 1244.82 L1758.4 1245.71 L1771.11 1246.43 L1783.82 1247.17 L1796.52 1247.82 L1809.23 1248.36 L1821.93 1248.89 L1834.64 1249.44 L1847.34 1249.92 L1860.05 1250.38 L1872.76 1250.8 L1885.46 1251.16 L1898.17 1251.48 L1910.87 1251.83 L1923.58 1252.09 L1936.28 1252.33 L1948.99 1252.56 L1961.7 1252.76 L1974.4 1252.93 L1987.11 1253.08 L1999.81 1253.25 L2012.52 1253.4 L2025.23 1253.54 L2037.93 1253.65 L2050.64 1253.73 L2063.34 1253.83 L2076.05 1253.9 L2088.75 1253.97 L2101.46 1254.04 L2114.17 1254.1 L2126.87 1254.15 L2139.58 1254.19 L2152.28 1254.23 L2164.99 1254.27 L2177.69 1254.3 L2190.4 1254.33 L2203.11 1254.36 L2215.81 1254.38 L2228.52 1254.4 L2241.22 1254.42 L2253.93 1254.43 L2266.63 1254.45 L2279.34 1254.46 L2292.05 1254.47 L2304.75 1254.47 L2317.46 1254.48 L2330.16 1254.49 L2342.87 1254.49 L2355.58 1254.49 L2368.28 1254.5 L2380.99 1254.5 L2393.69 1254.5 L2406.4 1254.51 L2419.1 1254.51 L2431.81 1254.51 L2444.52 1254.51 L2457.22 1254.51 L2469.93 1254.52 L2482.63 1254.52 L2495.34 1254.52 L2508.04 1254.52 L2520.75 1254.52 L2533.46 1254.52 L2546.16 1254.52 L2558.87 1254.52 L2571.57 1254.52 L2584.28 1254.52 L2596.98 1254.52 L2609.69 1254.52 L2622.4 1254.52 L2635.1 1254.52 L2647.81 1254.52 L2660.51 1254.52 L2673.22 1254.52 L2685.92 1254.52 L2698.63 1254.52 L2711.34 1254.52 L2724.04 1254.52 L2736.75 1254.52 L2749.45 1254.52 L2762.16 1254.52 L2762.16 1254.15 L2749.45 1254.12 L2736.75 1254.1 L2724.04 1254.07 L2711.34 1254.04 L2698.63 1254 L2685.92 1253.98 L2673.22 1253.93 L2660.51 1253.89 L2647.81 1253.86 L2635.1 1253.82 L2622.4 1253.77 L2609.69 1253.71 L2596.98 1253.66 L2584.28 1253.61 L2571.57 1253.55 L2558.87 1253.49 L2546.16 1253.43 L2533.46 1253.36 L2520.75 1253.28 L2508.04 1253.21 L2495.34 1253.11 L2482.63 1253.01 L2469.93 1252.9 L2457.22 1252.79 L2444.52 1252.68 L2431.81 1252.56 L2419.1 1252.43 L2406.4 1252.31 L2393.69 1252.15 L2380.99 1252.02 L2368.28 1251.88 L2355.58 1251.73 L2342.87 1251.59 L2330.16 1251.42 L2317.46 1251.21 L2304.75 1250.98 L2292.05 1250.79 L2279.34 1250.59 L2266.63 1250.35 L2253.93 1250.09 L2241.22 1249.81 L2228.52 1249.53 L2215.81 1249.27 L2203.11 1248.99 L2190.4 1248.66 L2177.69 1248.34 L2164.99 1248 L2152.28 1247.55 L2139.58 1247.24 L2126.87 1246.81 L2114.17 1246.4 L2101.46 1245.98 L2088.75 1245.54 L2076.05 1245.08 L2063.34 1244.54 L2050.64 1243.96 L2037.93 1243.4 L2025.23 1242.84 L2012.52 1242.25 L1999.81 1241.47 L1987.11 1240.71 L1974.4 1239.98 L1961.7 1239.16 L1948.99 1238.29 L1936.28 1237.39 L1923.58 1236.46 L1910.87 1235.56 L1898.17 1234.67 L1885.46 1233.63 L1872.76 1232.43 L1860.05 1231.23 L1847.34 1230.05 L1834.64 1228.93 L1821.93 1227.72 L1809.23 1226.27 L1796.52 1224.85 L1783.82 1223.49 L1771.11 1221.98 L1758.4 1220.35 L1745.7 1218.55 L1732.99 1216.54 L1720.29 1214.6 L1707.58 1212.65 L1694.88 1210.64 L1682.17 1208.56 L1669.46 1206.07 L1656.76 1203.65 L1644.05 1201.01 L1631.35 1198.34 L1618.64 1195.7 L1605.93 1192.91 L1593.23 1189.77 L1580.52 1186.5 L1567.82 1183.3 L1555.11 1180.12 L1542.41 1176.31 L1529.7 1172.4 L1516.99 1168.94 L1504.29 1164.79 L1491.58 1160.19 L1478.88 1154.66 L1466.17 1149.48 L1453.47 1144.95 L1440.76 1140 L1428.05 1135.06 L1415.35 1130.42 L1402.64 1125.29 L1389.94 1119.91 L1377.23 1114.57 L1364.53 1108.92 L1351.82 1103.26 L1339.11 1097.38 L1326.41 1091.47 L1313.7 1085.06 L1301 1079.25 L1288.29 1073.07 L1275.58 1065.76 L1262.88 1057.7 L1250.17 1049.31 L1237.47 1041.72 L1224.76 1033.5 L1212.06 1024.25 L1199.35 1015.33 L1186.64 1006.88 L1173.94 998.092 L1161.23 989.367 L1148.53 979.84 L1135.82 970.239 L1123.12 959.529 L1110.41 949.214 L1097.7 939.092 L1085 928.369 L1072.29 917.444 L1059.59 905.368 L1046.88 894.754 L1034.18 883.025 L1021.47 871.832 L1008.76 859.966 L996.058 847.443 L983.352 835.353 L970.646 821.018 L957.941 806.845 L945.235 792.446 L932.529 779.133 L919.823 766.031 L907.118 752.745 L894.412 741.121 L881.706 727.785 L869 713.121 L856.295 699.124 L843.589 684.96 L830.883 672 L818.177 659.158 L805.472 646.573 L792.766 634.302 L780.06 621.545 L767.354 608.81 L754.648 595.873 L741.943 582.207 L729.237 568.422 L716.531 555.164 L703.825 542.181 L691.12 528.472 L678.414 514.029 L665.708 500.078 L653.002 485.794 L640.297 471.616 L627.591 457.589 L614.885 443.419 L602.179 429.258 L589.473 414.782 L576.768 399.454 L564.062 384.205 L551.356 369.164 L538.65 353.646 L525.945 338.639 L513.239 323.127 L500.533 307.249 L487.827 291.684 L475.122 275.73 L462.416 260.524 L449.71 246.107 L437.004 231.398 L424.299 216.063 L411.593 200.489 L398.887 185.354 L386.181 169.046 L373.475 154.715 L360.77 142.001 L348.064 129.744 L335.358 116.973 L322.652 105.184 L309.947 95.2655 L297.241 85.829 L284.535 76.1785 L271.829 67.8652 L259.124 59.3864 L246.418 53.3925 L233.712 49.6398 L221.006 47.2441  Z" fill="#009af9" fill-rule="evenodd" fill-opacity="0.3"/>
<polyline clip-path="url(#clip912)" style="stroke:#009af9; stroke-linecap:round; stroke-linejoin:round; stroke-width:4; stroke-opacity:0; fill:none" points="221.006,47.2441 233.712,59.1973 246.418,73.2829 259.124,87.6181 271.829,102.071 284.535,116.887 297.241,132.212 309.947,149.128 322.652,165.546 335.358,182.485 348.064,199.71 360.77,216.651 373.475,234.05 386.181,251.362 398.887,269.404 411.593,287.646 424.299,305.264 437.004,323.165 449.71,341.018 462.416,358.526 475.122,376.197 487.827,392.96 500.533,410.397 513.239,428.28 525.945,445.258 538.65,461.88 551.356,478.026 564.062,494.041 576.768,510.311 589.473,525.913 602.179,541.872 614.885,557.374 627.591,573.641 640.297,588.618 653.002,603.316 665.708,620.019 678.414,634.923 691.12,648.704 703.825,662.442 716.531,676.71 729.237,690.694 741.943,703.777 754.648,716.929 767.354,729.78 780.06,742.086 792.766,754.56 805.472,767.538 818.177,780.43 830.883,792.825 843.589,805.497 856.295,818.213 869,831.968 881.706,846.113 894.412,859.178 907.118,870.77 919.823,883.239 932.529,896.284 945.235,908.475 957.941,919.48 970.646,931.942 983.352,943.628 996.058,955.199 1008.76,966.61 1021.47,977.448 1034.18,987.901 1046.88,998.879 1059.59,1009.29 1072.29,1018.24 1085,1027.72 1097.7,1037.08 1110.41,1046.49 1123.12,1055.69 1135.82,1064.35 1148.53,1072.62 1161.23,1080.47 1173.94,1088.75 1186.64,1095.89 1199.35,1103.6 1212.06,1110.33 1224.76,1116.79 1237.47,1123.15 1250.17,1129.87 1262.88,1136.03 1275.58,1141.67 1288.29,1147.04 1301,1152.66 1313.7,1158.15 1326.41,1163 1339.11,1167.86 1351.82,1172.43 1364.53,1176.89 1377.23,1181.01 1389.94,1185.21 1402.64,1189.37 1415.35,1193.2 1428.05,1196.32 1440.76,1199.81 1453.47,1203.08 1466.17,1205.95 1478.88,1208.87 1491.58,1211.71 1504.29,1214.16 1516.99,1216.7 1529.7,1219.39 1542.41,1221.83 1555.11,1223.94 1567.82,1225.9 1580.52,1227.98 1593.23,1229.75 1605.93,1231.58 1618.64,1233.06 1631.35,1234.74 1644.05,1236.17 1656.76,1237.61 1669.46,1238.76 1682.17,1239.89 1694.88,1241.05 1707.58,1242.1 1720.29,1243.12 1732.99,1244.04 1745.7,1244.82 1758.4,1245.71 1771.11,1246.43 1783.82,1247.17 1796.52,1247.82 1809.23,1248.36 1821.93,1248.89 1834.64,1249.44 1847.34,1249.92 1860.05,1250.38 1872.76,1250.8 1885.46,1251.16 1898.17,1251.48 1910.87,1251.83 1923.58,1252.09 1936.28,1252.33 1948.99,1252.56 1961.7,1252.76 1974.4,1252.93 1987.11,1253.08 1999.81,1253.25 2012.52,1253.4 2025.23,1253.54 2037.93,1253.65 2050.64,1253.73 2063.34,1253.83 2076.05,1253.9 2088.75,1253.97 2101.46,1254.04 2114.17,1254.1 2126.87,1254.15 2139.58,1254.19 2152.28,1254.23 2164.99,1254.27 2177.69,1254.3 2190.4,1254.33 2203.11,1254.36 2215.81,1254.38 2228.52,1254.4 2241.22,1254.42 2253.93,1254.43 2266.63,1254.45 2279.34,1254.46 2292.05,1254.47 2304.75,1254.47 2317.46,1254.48 2330.16,1254.49 2342.87,1254.49 2355.58,1254.49 2368.28,1254.5 2380.99,1254.5 2393.69,1254.5 2406.4,1254.51 2419.1,1254.51 2431.81,1254.51 2444.52,1254.51 2457.22,1254.51 2469.93,1254.52 2482.63,1254.52 2495.34,1254.52 2508.04,1254.52 2520.75,1254.52 2533.46,1254.52 2546.16,1254.52 2558.87,1254.52 2571.57,1254.52 2584.28,1254.52 2596.98,1254.52 2609.69,1254.52 2622.4,1254.52 2635.1,1254.52 2647.81,1254.52 2660.51,1254.52 2673.22,1254.52 2685.92,1254.52 2698.63,1254.52 2711.34,1254.52 2724.04,1254.52 2736.75,1254.52 2749.45,1254.52 2762.16,1254.52 "/>
<path clip-path="url(#clip910)" d="M1346.51 294.847 L1817.7 294.847 L1817.7 87.4866 L1346.51 87.4866  Z" fill="#ffffff" fill-rule="evenodd" fill-opacity="1"/>
<polyline clip-path="url(#clip910)" style="stroke:#000000; stroke-linecap:round; stroke-linejoin:round; stroke-width:4; stroke-opacity:1; fill:none" points="1346.51,294.847 1817.7,294.847 1817.7,87.4866 1346.51,87.4866 1346.51,294.847 "/>
<polyline clip-path="url(#clip910)" style="stroke:#009af9; stroke-linecap:round; stroke-linejoin:round; stroke-width:4; stroke-opacity:1; fill:none" points="1364.86,139.327 1474.98,139.327 "/>
<path clip-path="url(#clip910)" d="M1497.61 152.718 L1497.61 166.468 L1493.33 166.468 L1493.33 130.681 L1497.61 130.681 L1497.61 134.616 Q1498.95 132.301 1500.99 131.19 Q1503.05 130.056 1505.9 130.056 Q1510.62 130.056 1513.56 133.806 Q1516.52 137.556 1516.52 143.667 Q1516.52 149.778 1513.56 153.528 Q1510.62 157.278 1505.9 157.278 Q1503.05 157.278 1500.99 156.167 Q1498.95 155.033 1497.61 152.718 M1512.1 143.667 Q1512.1 138.968 1510.16 136.306 Q1508.24 133.621 1504.86 133.621 Q1501.48 133.621 1499.53 136.306 Q1497.61 138.968 1497.61 143.667 Q1497.61 148.366 1499.53 151.051 Q1501.48 153.713 1504.86 153.713 Q1508.24 153.713 1510.16 151.051 Q1512.1 148.366 1512.1 143.667 Z" fill="#000000" fill-rule="nonzero" fill-opacity="1" /><path clip-path="url(#clip910)" d="M1533.63 133.667 Q1530.2 133.667 1528.21 136.352 Q1526.22 139.014 1526.22 143.667 Q1526.22 148.32 1528.19 151.005 Q1530.18 153.667 1533.63 153.667 Q1537.03 153.667 1539.02 150.982 Q1541.01 148.296 1541.01 143.667 Q1541.01 139.06 1539.02 136.375 Q1537.03 133.667 1533.63 133.667 M1533.63 130.056 Q1539.18 130.056 1542.36 133.667 Q1545.53 137.278 1545.53 143.667 Q1545.53 150.033 1542.36 153.667 Q1539.18 157.278 1533.63 157.278 Q1528.05 157.278 1524.88 153.667 Q1521.73 150.033 1521.73 143.667 Q1521.73 137.278 1524.88 133.667 Q1528.05 130.056 1533.63 130.056 Z" fill="#000000" fill-rule="nonzero" fill-opacity="1" /><path clip-path="url(#clip910)" d="M1569.11 131.445 L1569.11 135.472 Q1567.31 134.547 1565.36 134.084 Q1563.42 133.621 1561.34 133.621 Q1558.17 133.621 1556.57 134.593 Q1554.99 135.565 1554.99 137.509 Q1554.99 138.991 1556.13 139.847 Q1557.26 140.681 1560.69 141.445 L1562.15 141.769 Q1566.68 142.741 1568.58 144.523 Q1570.5 146.283 1570.5 149.454 Q1570.5 153.065 1567.63 155.171 Q1564.79 157.278 1559.79 157.278 Q1557.7 157.278 1555.43 156.861 Q1553.19 156.468 1550.69 155.658 L1550.69 151.259 Q1553.05 152.486 1555.34 153.111 Q1557.63 153.713 1559.88 153.713 Q1562.89 153.713 1564.51 152.695 Q1566.13 151.653 1566.13 149.778 Q1566.13 148.042 1564.95 147.116 Q1563.79 146.19 1559.83 145.334 L1558.35 144.986 Q1554.39 144.153 1552.63 142.44 Q1550.87 140.704 1550.87 137.695 Q1550.87 134.037 1553.47 132.047 Q1556.06 130.056 1560.83 130.056 Q1563.19 130.056 1565.27 130.403 Q1567.36 130.75 1569.11 131.445 Z" fill="#000000" fill-rule="nonzero" fill-opacity="1" /><path clip-path="url(#clip910)" d="M1581.5 123.32 L1581.5 130.681 L1590.27 130.681 L1590.27 133.991 L1581.5 133.991 L1581.5 148.065 Q1581.5 151.236 1582.36 152.139 Q1583.23 153.042 1585.9 153.042 L1590.27 153.042 L1590.27 156.607 L1585.9 156.607 Q1580.97 156.607 1579.09 154.778 Q1577.22 152.926 1577.22 148.065 L1577.22 133.991 L1574.09 133.991 L1574.09 130.681 L1577.22 130.681 L1577.22 123.32 L1581.5 123.32 Z" fill="#000000" fill-rule="nonzero" fill-opacity="1" /><path clip-path="url(#clip910)" d="M1618.05 142.579 L1618.05 144.662 L1598.47 144.662 Q1598.74 149.06 1601.11 151.375 Q1603.49 153.667 1607.73 153.667 Q1610.18 153.667 1612.47 153.065 Q1614.79 152.463 1617.05 151.259 L1617.05 155.287 Q1614.76 156.259 1612.36 156.769 Q1609.95 157.278 1607.47 157.278 Q1601.27 157.278 1597.63 153.667 Q1594.02 150.056 1594.02 143.898 Q1594.02 137.533 1597.45 133.806 Q1600.9 130.056 1606.73 130.056 Q1611.96 130.056 1614.99 133.435 Q1618.05 136.792 1618.05 142.579 M1613.79 141.329 Q1613.74 137.834 1611.82 135.75 Q1609.92 133.667 1606.78 133.667 Q1603.21 133.667 1601.06 135.681 Q1598.93 137.695 1598.61 141.352 L1613.79 141.329 Z" fill="#000000" fill-rule="nonzero" fill-opacity="1" /><path clip-path="url(#clip910)" d="M1640.06 134.662 Q1639.35 134.246 1638.49 134.06 Q1637.66 133.852 1636.64 133.852 Q1633.03 133.852 1631.08 136.213 Q1629.16 138.551 1629.16 142.949 L1629.16 156.607 L1624.88 156.607 L1624.88 130.681 L1629.16 130.681 L1629.16 134.709 Q1630.5 132.347 1632.66 131.213 Q1634.81 130.056 1637.89 130.056 Q1638.33 130.056 1638.86 130.125 Q1639.39 130.172 1640.04 130.287 L1640.06 134.662 Z" fill="#000000" fill-rule="nonzero" fill-opacity="1" /><path clip-path="url(#clip910)" d="M1644.53 130.681 L1648.79 130.681 L1648.79 156.607 L1644.53 156.607 L1644.53 130.681 M1644.53 120.588 L1648.79 120.588 L1648.79 125.982 L1644.53 125.982 L1644.53 120.588 Z" fill="#000000" fill-rule="nonzero" fill-opacity="1" /><path clip-path="url(#clip910)" d="M1667.75 133.667 Q1664.32 133.667 1662.33 136.352 Q1660.34 139.014 1660.34 143.667 Q1660.34 148.32 1662.31 151.005 Q1664.3 153.667 1667.75 153.667 Q1671.15 153.667 1673.14 150.982 Q1675.13 148.296 1675.13 143.667 Q1675.13 139.06 1673.14 136.375 Q1671.15 133.667 1667.75 133.667 M1667.75 130.056 Q1673.3 130.056 1676.48 133.667 Q1679.65 137.278 1679.65 143.667 Q1679.65 150.033 1676.48 153.667 Q1673.3 157.278 1667.75 157.278 Q1662.17 157.278 1659 153.667 Q1655.85 150.033 1655.85 143.667 Q1655.85 137.278 1659 133.667 Q1662.17 130.056 1667.75 130.056 Z" fill="#000000" fill-rule="nonzero" fill-opacity="1" /><path clip-path="url(#clip910)" d="M1701.73 134.662 Q1701.01 134.246 1700.16 134.06 Q1699.32 133.852 1698.3 133.852 Q1694.69 133.852 1692.75 136.213 Q1690.83 138.551 1690.83 142.949 L1690.83 156.607 L1686.54 156.607 L1686.54 130.681 L1690.83 130.681 L1690.83 134.709 Q1692.17 132.347 1694.32 131.213 Q1696.47 130.056 1699.55 130.056 Q1699.99 130.056 1700.53 130.125 Q1701.06 130.172 1701.71 130.287 L1701.73 134.662 Z" fill="#000000" fill-rule="nonzero" fill-opacity="1" /><polyline clip-path="url(#clip910)" style="stroke:#e26f46; stroke-linecap:round; stroke-linejoin:round; stroke-width:4; stroke-opacity:1; fill:none" points="1364.86,191.167 1474.98,191.167 "/>
<path clip-path="url(#clip910)" d="M1500.74 175.16 L1500.74 182.521 L1509.51 182.521 L1509.51 185.831 L1500.74 185.831 L1500.74 199.905 Q1500.74 203.076 1501.59 203.979 Q1502.47 204.882 1505.13 204.882 L1509.51 204.882 L1509.51 208.447 L1505.13 208.447 Q1500.2 208.447 1498.33 206.618 Q1496.45 204.766 1496.45 199.905 L1496.45 185.831 L1493.33 185.831 L1493.33 182.521 L1496.45 182.521 L1496.45 175.16 L1500.74 175.16 Z" fill="#000000" fill-rule="nonzero" fill-opacity="1" /><path clip-path="url(#clip910)" d="M1530.13 186.502 Q1529.42 186.086 1528.56 185.9 Q1527.73 185.692 1526.71 185.692 Q1523.1 185.692 1521.15 188.053 Q1519.23 190.391 1519.23 194.789 L1519.23 208.447 L1514.95 208.447 L1514.95 182.521 L1519.23 182.521 L1519.23 186.549 Q1520.57 184.187 1522.73 183.053 Q1524.88 181.896 1527.96 181.896 Q1528.4 181.896 1528.93 181.965 Q1529.46 182.012 1530.11 182.127 L1530.13 186.502 Z" fill="#000000" fill-rule="nonzero" fill-opacity="1" /><path clip-path="url(#clip910)" d="M1534.16 198.215 L1534.16 182.521 L1538.42 182.521 L1538.42 198.053 Q1538.42 201.734 1539.86 203.586 Q1541.29 205.414 1544.16 205.414 Q1547.61 205.414 1549.6 203.215 Q1551.61 201.016 1551.61 197.22 L1551.61 182.521 L1555.87 182.521 L1555.87 208.447 L1551.61 208.447 L1551.61 204.465 Q1550.06 206.826 1548 207.984 Q1545.97 209.118 1543.26 209.118 Q1538.79 209.118 1536.48 206.34 Q1534.16 203.562 1534.16 198.215 M1544.88 181.896 L1544.88 181.896 Z" fill="#000000" fill-rule="nonzero" fill-opacity="1" /><path clip-path="url(#clip910)" d="M1586.82 194.419 L1586.82 196.502 L1567.24 196.502 Q1567.52 200.9 1569.88 203.215 Q1572.26 205.507 1576.5 205.507 Q1578.95 205.507 1581.24 204.905 Q1583.56 204.303 1585.83 203.099 L1585.83 207.127 Q1583.54 208.099 1581.13 208.609 Q1578.72 209.118 1576.24 209.118 Q1570.04 209.118 1566.41 205.507 Q1562.8 201.896 1562.8 195.738 Q1562.8 189.373 1566.22 185.646 Q1569.67 181.896 1575.5 181.896 Q1580.73 181.896 1583.77 185.275 Q1586.82 188.632 1586.82 194.419 M1582.56 193.169 Q1582.52 189.674 1580.6 187.59 Q1578.7 185.507 1575.55 185.507 Q1571.98 185.507 1569.83 187.521 Q1567.7 189.535 1567.38 193.192 L1582.56 193.169 Z" fill="#000000" fill-rule="nonzero" fill-opacity="1" /><polyline clip-path="url(#clip910)" style="stroke:#3da44d; stroke-linecap:round; stroke-linejoin:round; stroke-width:4; stroke-opacity:1; fill:none" points="1364.86,243.007 1474.98,243.007 "/>
<path clip-path="url(#clip910)" d="M1493.33 225.727 L1498 225.727 L1498 240.333 L1513.51 225.727 L1519.53 225.727 L1502.38 241.838 L1520.76 260.287 L1514.6 260.287 L1498 243.643 L1498 260.287 L1493.33 260.287 L1493.33 225.727 Z" fill="#000000" fill-rule="nonzero" fill-opacity="1" /><path clip-path="url(#clip910)" d="M1535.18 247.254 Q1530.02 247.254 1528.03 248.435 Q1526.04 249.615 1526.04 252.463 Q1526.04 254.731 1527.52 256.074 Q1529.02 257.393 1531.59 257.393 Q1535.13 257.393 1537.26 254.893 Q1539.42 252.37 1539.42 248.203 L1539.42 247.254 L1535.18 247.254 M1543.67 245.495 L1543.67 260.287 L1539.42 260.287 L1539.42 256.351 Q1537.96 258.713 1535.78 259.847 Q1533.61 260.958 1530.46 260.958 Q1526.48 260.958 1524.11 258.736 Q1521.78 256.49 1521.78 252.74 Q1521.78 248.365 1524.69 246.143 Q1527.63 243.921 1533.44 243.921 L1539.42 243.921 L1539.42 243.504 Q1539.42 240.565 1537.47 238.967 Q1535.55 237.347 1532.05 237.347 Q1529.83 237.347 1527.73 237.879 Q1525.62 238.412 1523.67 239.477 L1523.67 235.541 Q1526.01 234.639 1528.21 234.199 Q1530.41 233.736 1532.49 233.736 Q1538.12 233.736 1540.9 236.652 Q1543.67 239.569 1543.67 245.495 Z" fill="#000000" fill-rule="nonzero" fill-opacity="1" /><path clip-path="url(#clip910)" d="M1556.57 256.398 L1556.57 270.148 L1552.29 270.148 L1552.29 234.361 L1556.57 234.361 L1556.57 238.296 Q1557.91 235.981 1559.95 234.87 Q1562.01 233.736 1564.86 233.736 Q1569.58 233.736 1572.52 237.486 Q1575.48 241.236 1575.48 247.347 Q1575.48 253.458 1572.52 257.208 Q1569.58 260.958 1564.86 260.958 Q1562.01 260.958 1559.95 259.847 Q1557.91 258.713 1556.57 256.398 M1571.06 247.347 Q1571.06 242.648 1569.11 239.986 Q1567.19 237.301 1563.81 237.301 Q1560.43 237.301 1558.49 239.986 Q1556.57 242.648 1556.57 247.347 Q1556.57 252.046 1558.49 254.731 Q1560.43 257.393 1563.81 257.393 Q1567.19 257.393 1569.11 254.731 Q1571.06 252.046 1571.06 247.347 Z" fill="#000000" fill-rule="nonzero" fill-opacity="1" /><path clip-path="url(#clip910)" d="M1582.54 224.268 L1586.8 224.268 L1586.8 260.287 L1582.54 260.287 L1582.54 224.268 Z" fill="#000000" fill-rule="nonzero" fill-opacity="1" /><path clip-path="url(#clip910)" d="M1607.49 247.254 Q1602.33 247.254 1600.34 248.435 Q1598.35 249.615 1598.35 252.463 Q1598.35 254.731 1599.83 256.074 Q1601.34 257.393 1603.91 257.393 Q1607.45 257.393 1609.58 254.893 Q1611.73 252.37 1611.73 248.203 L1611.73 247.254 L1607.49 247.254 M1615.99 245.495 L1615.99 260.287 L1611.73 260.287 L1611.73 256.351 Q1610.27 258.713 1608.1 259.847 Q1605.92 260.958 1602.77 260.958 Q1598.79 260.958 1596.43 258.736 Q1594.09 256.49 1594.09 252.74 Q1594.09 248.365 1597.01 246.143 Q1599.95 243.921 1605.76 243.921 L1611.73 243.921 L1611.73 243.504 Q1611.73 240.565 1609.79 238.967 Q1607.86 237.347 1604.37 237.347 Q1602.15 237.347 1600.04 237.879 Q1597.93 238.412 1595.99 239.477 L1595.99 235.541 Q1598.33 234.639 1600.53 234.199 Q1602.73 233.736 1604.81 233.736 Q1610.43 233.736 1613.21 236.652 Q1615.99 239.569 1615.99 245.495 Z" fill="#000000" fill-rule="nonzero" fill-opacity="1" /><path clip-path="url(#clip910)" d="M1646.31 244.639 L1646.31 260.287 L1642.05 260.287 L1642.05 244.777 Q1642.05 241.097 1640.62 239.268 Q1639.18 237.44 1636.31 237.44 Q1632.86 237.44 1630.87 239.639 Q1628.88 241.838 1628.88 245.634 L1628.88 260.287 L1624.6 260.287 L1624.6 234.361 L1628.88 234.361 L1628.88 238.389 Q1630.41 236.051 1632.47 234.893 Q1634.55 233.736 1637.26 233.736 Q1641.73 233.736 1644.02 236.514 Q1646.31 239.268 1646.31 244.639 Z" fill="#000000" fill-rule="nonzero" fill-opacity="1" /><path clip-path="url(#clip910)" d="M1652.66 245.402 L1665.13 245.402 L1665.13 249.199 L1652.66 249.199 L1652.66 245.402 Z" fill="#000000" fill-rule="nonzero" fill-opacity="1" /><path clip-path="url(#clip910)" d="M1672.1 225.727 L1679.07 225.727 L1687.89 249.245 L1696.75 225.727 L1703.72 225.727 L1703.72 260.287 L1699.16 260.287 L1699.16 229.94 L1690.25 253.643 L1685.55 253.643 L1676.64 229.94 L1676.64 260.287 L1672.1 260.287 L1672.1 225.727 Z" fill="#000000" fill-rule="nonzero" fill-opacity="1" /><path clip-path="url(#clip910)" d="M1734.99 246.259 L1734.99 248.342 L1715.41 248.342 Q1715.69 252.74 1718.05 255.055 Q1720.43 257.347 1724.67 257.347 Q1727.12 257.347 1729.41 256.745 Q1731.73 256.143 1734 254.939 L1734 258.967 Q1731.71 259.939 1729.3 260.449 Q1726.89 260.958 1724.41 260.958 Q1718.21 260.958 1714.58 257.347 Q1710.97 253.736 1710.97 247.578 Q1710.97 241.213 1714.39 237.486 Q1717.84 233.736 1723.67 233.736 Q1728.91 233.736 1731.94 237.115 Q1734.99 240.472 1734.99 246.259 M1730.73 245.009 Q1730.69 241.514 1728.77 239.43 Q1726.87 237.347 1723.72 237.347 Q1720.16 237.347 1718 239.361 Q1715.87 241.375 1715.55 245.032 L1730.73 245.009 Z" fill="#000000" fill-rule="nonzero" fill-opacity="1" /><path clip-path="url(#clip910)" d="M1741.98 234.361 L1746.24 234.361 L1746.24 260.287 L1741.98 260.287 L1741.98 234.361 M1741.98 224.268 L1746.24 224.268 L1746.24 229.662 L1741.98 229.662 L1741.98 224.268 Z" fill="#000000" fill-rule="nonzero" fill-opacity="1" /><path clip-path="url(#clip910)" d="M1777.33 246.259 L1777.33 248.342 L1757.75 248.342 Q1758.03 252.74 1760.39 255.055 Q1762.77 257.347 1767.01 257.347 Q1769.46 257.347 1771.75 256.745 Q1774.07 256.143 1776.34 254.939 L1776.34 258.967 Q1774.04 259.939 1771.64 260.449 Q1769.23 260.958 1766.75 260.958 Q1760.55 260.958 1756.91 257.347 Q1753.3 253.736 1753.3 247.578 Q1753.3 241.213 1756.73 237.486 Q1760.18 233.736 1766.01 233.736 Q1771.24 233.736 1774.28 237.115 Q1777.33 240.472 1777.33 246.259 M1773.07 245.009 Q1773.03 241.514 1771.1 239.43 Q1769.21 237.347 1766.06 237.347 Q1762.49 237.347 1760.34 239.361 Q1758.21 241.375 1757.89 245.032 L1773.07 245.009 Z" fill="#000000" fill-rule="nonzero" fill-opacity="1" /><path clip-path="url(#clip910)" d="M1799.34 238.342 Q1798.63 237.926 1797.77 237.74 Q1796.94 237.532 1795.92 237.532 Q1792.31 237.532 1790.36 239.893 Q1788.44 242.231 1788.44 246.629 L1788.44 260.287 L1784.16 260.287 L1784.16 234.361 L1788.44 234.361 L1788.44 238.389 Q1789.78 236.027 1791.94 234.893 Q1794.09 233.736 1797.17 233.736 Q1797.61 233.736 1798.14 233.805 Q1798.67 233.852 1799.32 233.967 L1799.34 238.342 Z" fill="#000000" fill-rule="nonzero" fill-opacity="1" /></svg>
